<svg width="160" height="160" viewBox="0 0 160 160" fill="none" xmlns="http://www.w3.org/2000/svg">
<path d="M40.0752 124.558C62.1251 135.068 97.8752 135.068 119.925 124.559C141.975 114.049 141.975 97.0097 119.925 86.5003C97.8752 75.9908 62.1248 75.9908 40.0749 86.5C18.025 97.0094 18.025 114.049 40.0752 124.558Z" fill="white"/>
<path d="M114.65 115.766C117.522 117.134 122.177 117.134 125.049 115.766C127.921 114.397 127.921 112.178 125.049 110.809C122.177 109.441 117.522 109.441 114.65 110.809C111.779 112.178 111.779 114.397 114.65 115.766Z" fill="#EBEBEB"/>
<path d="M38.3853 113.789L40.985 112.288C40.985 112.288 43.1296 110.712 44.1917 107.786C44.9952 105.571 44.8845 103.886 44.3082 103.042C43.5994 102.003 41.7654 102.185 41.6925 104.375C41.5491 108.689 40.2906 111.673 38.3853 113.789Z" fill="#0172D0"/>
<path opacity="0.2" d="M38.3853 113.789L40.985 112.288C40.985 112.288 43.1296 110.712 44.1917 107.786C44.9952 105.571 44.8845 103.886 44.3082 103.042C43.5994 102.003 41.7654 102.185 41.6925 104.375C41.5491 108.689 40.2906 111.673 38.3853 113.789Z" fill="black"/>
<path d="M38.3856 113.949C38.3347 113.949 38.2851 113.925 38.2538 113.88C38.2035 113.807 38.2214 113.708 38.2941 113.657C44.3091 109.495 43.144 103.696 43.1315 103.638C43.113 103.552 43.168 103.467 43.2541 103.448C43.3411 103.429 43.4256 103.484 43.4442 103.571C43.4573 103.631 44.6726 109.632 38.4762 113.92C38.4486 113.94 38.417 113.949 38.3856 113.949Z" fill="white"/>
<path d="M33.1859 116.791C33.1859 116.791 32.281 116.054 32.4998 115.057C32.719 114.059 33.3027 113.342 32.2992 112.055C31.2957 110.768 31.0365 109.053 32.2166 108.123C33.129 107.404 34.5526 108.423 35.0669 106.518C35.4419 105.129 35.3139 102.054 37.0858 101.031C38.8573 100.009 39.9574 101.549 39.6854 103.634C39.4422 105.5 39.0995 107.297 39.3638 107.786C39.8806 108.742 40.769 108.614 40.7286 110.367C40.6909 111.999 39.1478 113.35 39.1478 113.35L33.1859 116.791Z" fill="#0172D0"/>
<path d="M36.1594 115.234C36.0794 115.234 36.0106 115.174 36.0006 115.093C35.5427 111.301 36.6339 104.755 37.5366 102.809C37.5738 102.729 37.6682 102.693 37.7491 102.731C37.8294 102.768 37.864 102.863 37.8269 102.943C36.9402 104.856 35.8803 111.43 36.3184 115.055C36.329 115.142 36.2662 115.222 36.1786 115.233C36.1722 115.234 36.1658 115.234 36.1594 115.234Z" fill="white"/>
<path d="M36.0726 112.283C36.049 112.283 36.0253 112.277 36.0026 112.266C34.8922 111.724 34.1885 109.795 34.159 109.713C34.1293 109.63 34.1725 109.539 34.2554 109.508C34.3386 109.479 34.4301 109.522 34.4602 109.605C34.4669 109.624 35.1494 111.492 36.143 111.979C36.2224 112.017 36.2554 112.113 36.2163 112.193C36.1888 112.25 36.1322 112.283 36.0726 112.283Z" fill="white"/>
<path d="M36.0547 113.56C35.9914 113.56 35.9312 113.522 35.9062 113.459C35.8736 113.377 35.9133 113.284 35.9952 113.252C37.8637 112.503 39.0285 110.276 39.04 110.254C39.0806 110.175 39.177 110.144 39.2554 110.185C39.3341 110.225 39.3648 110.322 39.3242 110.401C39.2749 110.496 38.0922 112.756 36.1139 113.549C36.0947 113.556 36.0746 113.56 36.0547 113.56Z" fill="white"/>
<path d="M101.376 96.3463C101.376 96.3463 99.977 94.0832 99.842 91.6192C99.707 89.1555 100.248 88.1328 100.99 87.839C101.731 87.5456 101.788 88.4496 102.171 88.9856C102.554 89.5216 103.329 89.2147 103.615 87.5485C103.902 85.8826 104.952 83.0589 107.126 82.52C109.526 81.9255 108.238 84.7408 107.636 85.8394C107.033 86.9379 106.563 88.4339 106.961 88.8413C107.358 89.2487 107.974 88.496 108.565 89.1939C109.278 90.0362 107.061 93.0643 105.789 93.799L101.376 96.3463Z" fill="#0172D0"/>
<path d="M103.293 95.3934C103.29 95.3934 103.287 95.3934 103.285 95.3931C103.197 95.3883 103.129 95.3131 103.134 95.2251C103.486 88.6724 106.684 84.1345 106.716 84.0894C106.767 84.0171 106.868 84.0011 106.939 84.0526C107.011 84.1038 107.027 84.204 106.976 84.2756C106.944 84.3201 103.8 88.787 103.453 95.242C103.448 95.3272 103.378 95.3934 103.293 95.3934Z" fill="white"/>
<path d="M103.476 93.5042C103.45 93.5042 103.423 93.4978 103.398 93.484C102.502 92.988 102.006 91.5167 101.985 91.4539C101.958 91.3701 102.003 91.2795 102.087 91.2517C102.17 91.2229 102.262 91.2696 102.289 91.3531C102.294 91.3672 102.767 92.7688 103.553 93.2037C103.63 93.2466 103.659 93.3439 103.616 93.4213C103.587 93.4744 103.532 93.5042 103.476 93.5042Z" fill="white"/>
<path d="M103.633 92.534C103.561 92.534 103.496 92.486 103.478 92.4134C103.456 92.3273 103.508 92.2406 103.593 92.2191C105.903 91.6351 106.703 90.4246 106.711 90.4124C106.758 90.3382 106.858 90.3167 106.932 90.3638C107.006 90.4111 107.028 90.5097 106.981 90.5839C106.947 90.638 106.115 91.9113 103.672 92.5289C103.659 92.5324 103.646 92.534 103.633 92.534Z" fill="white"/>
<path d="M66.5668 91.3708C66.5668 91.3708 63.4983 90.6226 63.3386 84.877C63.1662 78.6751 64.0906 71.4399 60.4714 70.8514C56.8526 70.2629 54.8218 74.7004 54.8682 79.8572C54.9089 84.3848 56.7322 94.2088 66.5665 96.1343L66.5668 91.3708Z" fill="#0172D0"/>
<path opacity="0.2" d="M66.5668 91.3708C66.5668 91.3708 63.4983 90.6226 63.3386 84.877C63.1662 78.6751 64.0906 71.4399 60.4714 70.8514C56.8526 70.2629 54.8218 74.7004 54.8682 79.8572C54.9089 84.3848 56.7322 94.2088 66.5665 96.1343L66.5668 91.3708Z" fill="black"/>
<path d="M66.5665 95.5431C66.5569 95.5431 66.5473 95.5422 66.5377 95.5406C64.3249 95.1374 62.5239 93.9201 61.1844 91.9223C57.2087 85.9914 58.4612 74.9207 58.8724 72.987C58.891 72.9002 58.9754 72.8458 59.0622 72.8638C59.1486 72.8823 59.2036 72.9671 59.1854 73.0535C58.7786 74.9658 57.5364 85.9063 61.45 91.7444C62.7393 93.6676 64.4702 94.8388 66.5946 95.2257C66.6817 95.2417 66.7393 95.3252 66.7233 95.4119C66.7098 95.489 66.6423 95.5431 66.5665 95.5431Z" fill="white"/>
<path d="M66.5668 110.294C63.394 110.724 58.2407 110.717 55.2724 108.376C52.3041 106.035 52.9214 104.017 54.0634 103.175C55.2052 102.333 56.1969 101.371 54.2327 99.5033C52.2682 97.6355 49.1108 94.6339 48.09 90.1308C47.0689 85.6281 47.5716 82.814 49.5809 81.8755C51.5306 80.9651 52.0442 82.4115 53.2375 85.3942C54.4308 88.3772 57.1166 85.8198 59.4129 86.751C61.7089 87.6819 61.619 89.5254 61.7636 91.11C61.9086 92.6943 62.6666 93.1324 63.9668 93.1324C65.267 93.1324 66.5662 93.8828 66.5665 95.3836L66.5668 110.294Z" fill="#0172D0"/>
<path d="M66.5666 105.067C66.5525 105.067 66.5378 105.065 66.5234 105.061C66.3861 105.023 63.1048 104.067 58.3295 99.6805C53.2421 95.0072 50.8402 88.0008 50.8165 87.9307C50.7883 87.8469 50.8331 87.756 50.917 87.7279C51.0008 87.7003 51.0914 87.7448 51.1195 87.828C51.1429 87.8978 53.5205 94.8284 58.5458 99.4447C63.2575 103.773 66.5768 104.743 66.6098 104.753C66.6949 104.777 66.7442 104.865 66.7205 104.95C66.7007 105.021 66.6367 105.067 66.5666 105.067Z" fill="white"/>
<path d="M59.6586 100.797C59.5946 100.797 59.5342 100.758 59.5095 100.695C58.4826 98.0562 58.25 92.4149 58.2407 92.1762C58.2372 92.0882 58.306 92.0136 58.3943 92.0098C58.4762 92.0107 58.5569 92.075 58.5604 92.1634C58.5626 92.2213 58.8004 97.9899 59.8078 100.579C59.8398 100.661 59.7991 100.754 59.7166 100.786C59.6974 100.793 59.6778 100.797 59.6586 100.797Z" fill="white"/>
<path d="M59.6318 104.593C59.1345 104.593 58.7905 104.554 58.7489 104.549C58.6612 104.539 58.5985 104.459 58.6087 104.371C58.6193 104.284 58.698 104.218 58.7866 104.231C58.8164 104.234 61.7937 104.571 63.161 103.176C63.2225 103.112 63.3242 103.112 63.3873 103.173C63.4503 103.235 63.4513 103.337 63.3895 103.4C62.3889 104.421 60.6743 104.593 59.6318 104.593Z" fill="white"/>
<path d="M57.3274 43.9977L56.9837 42.0025L55.2032 43.174C55.025 42.8329 54.7958 42.559 54.5264 42.3522L55.3782 40.0479L53.7923 39.6934L52.6205 41.9263C52.2323 41.9862 51.8224 42.117 51.4 42.3238L50.8928 40.6409L48.9933 42.1343L49.1178 44.1183C48.7331 44.5462 48.3814 45.014 48.0675 45.5062L46.4979 45.4287L45.3974 47.8953L46.7453 48.47C46.6029 49.0006 46.5114 49.527 46.479 50.0332L44.768 51.6066L45.1117 53.6018L46.8918 52.4303C47.0701 52.7714 47.2992 53.0454 47.569 53.2521L46.7168 55.5564L48.303 55.911L49.9792 54.2767C50.3677 54.2172 50.273 53.4876 50.6954 53.2809L51.2022 54.9638L53.1021 53.4703L53.0531 52.6898C53.4374 52.2623 54.8893 51.3183 55.2032 50.8262L55.5974 50.1759L56.6979 47.7094L56.1853 46.7807L55.6163 45.5714L57.3274 43.9977ZM51.5251 50.5737C50.0678 51.7193 49.624 51.9692 49.3603 50.4386C49.0966 48.9081 49.9491 46.574 51.4067 45.4284C52.864 44.2825 53.4234 44.197 53.6867 45.7276C53.9501 47.2582 52.9824 49.4278 51.5251 50.5737Z" fill="#E0E0E0"/>
<path d="M53.7926 39.6934L55.8675 40.8898L54.696 43.1228L52.6205 41.926L53.7926 39.6934Z" fill="#F5F5F5"/>
<path d="M59.0592 43.1997L57.279 44.3712L55.2035 43.1744L56.984 42.0029L59.0592 43.1997Z" fill="#F5F5F5"/>
<path d="M58.7731 48.9066L57.4256 48.3316L55.3504 47.1348L56.6979 47.7098L58.7731 48.9066Z" fill="#E0E0E0"/>
<path d="M46.7168 55.5563L48.7923 56.7531L49.6442 54.4488L47.569 53.252L46.7168 55.5563Z" fill="#E0E0E0"/>
<path d="M53.2781 56.1609L51.2026 54.9641L50.6957 53.2812L52.7709 54.4781L53.2781 56.1609Z" fill="#E0E0E0"/>
<path d="M59.4026 45.1949L59.0589 43.1997L57.2787 44.3713C57.1005 44.0301 56.871 43.7562 56.6016 43.5495L57.4538 41.2452L55.8675 40.8906L54.6957 43.1236C54.3075 43.1834 53.8973 43.3143 53.4749 43.521L52.9677 41.8381L51.0682 43.3316L51.1926 45.3156C50.8083 45.7431 50.4563 46.2113 50.1424 46.7034L48.5728 46.626L47.4723 49.0925L48.8202 49.6673C48.6778 50.1978 48.5866 50.7242 48.5539 51.2308L46.8429 52.8042L47.1866 54.7994L48.9667 53.6279C49.145 53.9687 49.3741 54.2429 49.6435 54.4497L48.7917 56.754L50.3779 57.1085L51.5498 54.8756C51.9379 54.8161 52.3478 54.6849 52.7702 54.4781L53.2774 56.161L55.177 54.6676L55.0525 52.6836C55.4371 52.2561 55.7888 51.7879 56.1027 51.2957L57.6723 51.3732L58.7725 48.9066L57.4246 48.3319C57.567 47.8013 57.6586 47.2749 57.6906 46.7687L59.4026 45.1949ZM53.6003 51.7709C52.143 52.9169 50.7478 52.6045 50.4842 51.074C50.2205 49.5434 51.1885 47.3735 52.6458 46.2279C54.103 45.082 55.4979 45.394 55.7616 46.9245C56.0253 48.4554 55.0576 50.625 53.6003 51.7709Z" fill="#EBEBEB"/>
<path d="M52.968 41.8374L50.8928 40.6406L48.9933 42.1341L51.0685 43.3309L52.968 41.8374Z" fill="#F5F5F5"/>
<path d="M48.9933 42.1338L49.1178 44.1178L51.1926 45.3143L51.0685 43.3306L48.9933 42.1338Z" fill="#E0E0E0"/>
<path d="M50.1427 46.703L48.0672 45.5062L46.4979 45.4287L48.5731 46.6255L50.1427 46.703Z" fill="#F5F5F5"/>
<path d="M46.4979 45.4287L45.3974 47.8953L47.4726 49.0921L48.5731 46.6255L46.4979 45.4287Z" fill="#E0E0E0"/>
<path d="M48.5542 51.23L46.479 50.0332L44.768 51.6066L46.8432 52.8034L48.5542 51.23Z" fill="#F5F5F5"/>
<path d="M47.1869 54.7984L45.1117 53.6016L44.768 51.6064L46.8432 52.8032L47.1869 54.7984Z" fill="#E0E0E0"/>
<path d="M55.8675 40.8898L53.7926 39.6934L55.3786 40.0479L57.4538 41.2447L55.8675 40.8898Z" fill="#F5F5F5"/>
<path d="M48.0298 34.9487V31.9685L45.6582 33.0376C45.5152 32.4872 45.2976 32.0156 45.0176 31.6261L46.5117 28.6133L44.6867 27.5596L42.8246 30.3602C42.3475 30.3125 41.8301 30.3596 41.2819 30.5113L41.0218 27.9228L38.4413 29.4127L38.1811 32.3013C37.633 32.7829 37.1155 33.3333 36.6384 33.9317L34.7763 33.2815L32.9514 36.4421L34.4454 37.7295C34.1658 38.4418 33.9478 39.1653 33.8048 39.8808L31.4333 41.5503V44.5301L33.8048 43.461C33.9478 44.0114 34.1658 44.4831 34.4454 44.8725L32.9514 47.8853L34.7763 48.9388L36.6384 46.1384C37.1155 46.1861 37.633 46.1388 38.1811 45.9874L38.4413 48.5759L41.0218 47.086L41.2819 44.1973C42.0509 43.9407 42.8739 43.3455 43.3507 42.7471L44.6864 43.2175L46.5114 40.0569L45.3917 39.0921C45.6714 38.3797 45.7011 37.2408 45.6576 36.6184L48.0298 34.9487ZM39.7318 42.3887C37.752 43.5317 36.5213 42.7208 36.5213 40.4348C36.5213 38.1487 38.1574 35.348 40.1373 34.205C42.1171 33.062 43.3165 33.8933 43.3165 36.1794C43.3168 38.4658 41.7117 41.2456 39.7318 42.3887Z" fill="#E0E0E0"/>
<path d="M46.7622 28.7564L44.6867 27.5596L42.825 30.3602L44.9002 31.5567L46.7622 28.7564Z" fill="#F5F5F5"/>
<path d="M50.105 33.1655L48.0298 31.9688L45.6582 33.0379L47.7334 34.2347L50.105 33.1655Z" fill="#F5F5F5"/>
<path d="M40.5168 49.7726L38.4416 48.5758L38.1814 45.9873L40.257 47.1841L40.5168 49.7726Z" fill="#E0E0E0"/>
<path d="M32.952 47.8849L35.0272 49.0817L36.5213 46.0689L34.4461 44.8721L32.952 47.8849Z" fill="#E0E0E0"/>
<path d="M50.105 36.146V33.1658L47.7334 34.2349C47.5904 33.6845 47.3725 33.2128 47.0928 32.8234L48.5869 29.8106L46.7619 28.7568L44.8998 31.5575C44.423 31.5098 43.9056 31.5568 43.3574 31.7085L43.0973 29.1204L40.5168 30.6103L40.2566 33.4989C39.7085 33.9805 39.191 34.5309 38.7139 35.1293L36.8518 34.4791L35.0269 37.64L36.521 38.9274C36.2413 39.6397 36.0234 40.3629 35.8803 41.0784L33.5088 42.7479V45.7277L35.8803 44.6586C36.0234 45.209 36.2413 45.6807 36.521 46.0701L35.0269 49.0829L36.8518 50.1364L38.7139 47.336C39.191 47.3834 39.7085 47.3364 40.2566 47.185L40.5168 49.7735L43.0973 48.2836L43.3574 45.3949C43.9056 44.9136 44.423 44.3629 44.8998 43.7648L46.7619 44.4151L48.5869 41.2544L47.0928 39.9671C47.3725 39.2548 47.5904 38.5316 47.7334 37.816L50.105 36.146ZM41.807 43.586C39.8272 44.729 38.2221 43.8023 38.2221 41.5162C38.2221 39.2301 39.8272 36.45 41.807 35.3069C43.7869 34.1639 45.392 35.0906 45.392 37.3767C45.392 39.6631 43.7869 42.4429 41.807 43.586Z" fill="#EBEBEB"/>
<path d="M36.639 33.9315L38.7142 35.1283L36.8522 34.4781L34.777 33.2812L36.639 33.9315Z" fill="#F0F0F0"/>
<path d="M34.7737 33.2821L32.9504 36.4434L35.0254 37.6402L36.8487 34.4789L34.7737 33.2821Z" fill="#F5F5F5"/>
<path d="M32.952 36.4424L35.0272 37.6392L36.5213 38.9269L34.4461 37.7297L32.952 36.4424Z" fill="#E0E0E0"/>
<path d="M33.8058 39.8809L35.881 41.0777L33.5094 42.7471L31.4339 41.5503L33.8058 39.8809Z" fill="#F5F5F5"/>
<path d="M31.4339 41.5498L33.5094 42.7466V45.7261L31.4339 44.5296V41.5498Z" fill="#E0E0E0"/>
<path d="M43.0976 29.1197L41.0221 27.9229L38.4416 29.4128L40.5168 30.6096L43.0976 29.1197Z" fill="#F5F5F5"/>
<path d="M69.721 114.577L99.809 97.2053C100.115 97.0284 100.115 96.742 99.8093 96.5647L97.0259 94.9545C96.72 94.7772 96.2237 94.7768 95.9174 94.9538L65.8214 112.325C65.5152 112.502 65.5152 112.788 65.8214 112.965L68.6125 114.577C68.9187 114.753 69.415 114.753 69.721 114.577Z" fill="#E0E0E0"/>
<path d="M98.9773 30.1424L71.8518 45.8032C71.0867 46.2451 70.4662 47.3197 70.4662 48.2032V112.546C70.4662 113.429 71.0867 113.787 71.8518 113.346L98.9776 97.6851C99.743 97.2432 100.363 96.1686 100.363 95.2851L100.363 30.9427C100.363 30.0589 99.7424 29.7005 98.9773 30.1424Z" fill="#455A64"/>
<path d="M71.8518 45.8033L98.9773 30.1425C99.6618 29.7476 100.228 29.9934 100.341 30.6814C100.237 29.8568 99.6688 28.9419 98.9773 28.5425L97.8493 27.891C97.0838 27.4491 95.8429 27.4491 95.0778 27.891L67.9526 43.5518C67.5699 43.7726 67.2237 44.1518 66.9728 44.5861L70.8723 46.8373C71.1229 46.4033 71.4694 46.0245 71.8518 45.8033Z" fill="#37474F"/>
<path d="M66.567 110.294C66.567 111.178 67.1872 112.252 67.9526 112.694L69.081 113.345C69.7728 113.745 70.8502 113.779 71.6166 113.457C70.9638 113.704 70.4662 113.336 70.4662 112.545V48.2029C70.4662 47.761 70.6214 47.2714 70.8723 46.8371L66.9728 44.5859C66.7219 45.0202 66.567 45.5098 66.567 45.9517V110.294Z" fill="#263238"/>
<path d="M72.5978 54.3791L98.2317 39.5795C98.6912 39.3142 99.0634 39.5292 99.0634 40.0595L99.0637 87.6707C99.0637 88.2009 98.6912 88.8457 98.232 89.1107L72.5981 103.911C72.1389 104.176 71.7667 103.961 71.7667 103.431L71.7664 55.8195C71.7661 55.2889 72.1386 54.6441 72.5978 54.3791Z" fill="white"/>
<path d="M85.4147 40.4143C85.1456 40.5698 84.9274 40.9477 84.9274 41.2584C84.9274 41.5695 85.1459 41.6952 85.4147 41.5397C85.6842 41.3845 85.9021 41.0066 85.9021 40.6956C85.9021 40.3848 85.6842 40.2588 85.4147 40.4143Z" fill="#37474F"/>
<path d="M85.4154 98.7959C84.3523 99.4096 83.4906 100.902 83.4906 102.13C83.4906 103.357 84.352 103.854 85.4154 103.241C86.4781 102.627 87.3398 101.135 87.3398 99.9072C87.3395 98.68 86.4781 98.1824 85.4154 98.7959Z" fill="#37474F"/>
<path d="M80.8106 45.3665C80.2723 45.6775 79.8358 46.4334 79.8358 47.0551C79.8358 47.6769 80.2723 47.9287 80.8109 47.618C81.3494 47.3073 81.7856 46.5514 81.7856 45.9297C81.7856 45.3076 81.3491 45.0558 80.8106 45.3665Z" fill="#37474F"/>
<path d="M83.1942 45.1555C83.1942 45.5699 83.5046 45.727 83.887 45.5059L90.3008 41.8032C90.6832 41.5824 90.9936 41.0672 90.9936 40.6528C90.9933 40.2384 90.6832 40.0812 90.3005 40.3024L83.887 44.0051C83.5046 44.2262 83.1942 44.7411 83.1942 45.1555Z" fill="#37474F"/>
<path d="M68.7242 56.4385C69.1549 56.6871 69.504 57.2919 69.504 57.7895C69.504 58.2868 69.1549 58.4884 68.7242 58.2397C68.2934 57.9911 67.944 57.3863 67.944 56.889C67.944 56.3917 68.2934 56.1898 68.7242 56.4385Z" fill="#37474F"/>
<path d="M68.7242 62.4472C69.1549 62.6958 69.504 63.3006 69.504 63.7982C69.504 64.2958 69.1549 64.4971 68.7242 64.2485C68.2934 63.9998 67.944 63.395 67.944 62.8974C67.9443 62.4001 68.2934 62.1989 68.7242 62.4472Z" fill="#37474F"/>
<path d="M68.4832 56.5598C68.9139 56.8085 69.2634 57.4133 69.2634 57.9105C69.2634 58.4078 68.9142 58.6097 68.4832 58.3608C68.0525 58.1121 67.7034 57.5073 67.7034 57.0101C67.7034 56.5125 68.0528 56.3109 68.4832 56.5598Z" fill="#455A64"/>
<path d="M68.4832 62.5675C68.9139 62.8161 69.2634 63.4209 69.2634 63.9185C69.2634 64.4158 68.9142 64.6174 68.4832 64.3688C68.0525 64.1201 67.7034 63.5153 67.7034 63.0177C67.7034 62.5201 68.0528 62.3188 68.4832 62.5675Z" fill="#455A64"/>
<path d="M104.263 41.5642C104.263 41.034 103.891 40.8192 103.431 41.0842L100.363 42.8557L77.7971 55.8842C77.3379 56.1495 76.9658 56.794 76.9658 57.3242L76.9661 104.935C76.9661 105.466 77.3382 105.68 77.7974 105.415L100.371 92.3821L103.431 90.6154C103.891 90.3501 104.263 89.7053 104.263 89.1754L104.263 41.5642Z" fill="white" stroke="#0172D0" stroke-miterlimit="10"/>
<path d="M77.4259 105.689C77.3194 105.689 77.2192 105.663 77.1296 105.612C76.921 105.491 76.8061 105.251 76.8061 104.935L76.8058 57.3238C76.8058 56.7338 77.2061 56.0403 77.7171 55.7453L100.283 42.7168L100.443 42.9939L77.8771 56.0224C77.4698 56.2576 77.1258 56.8534 77.1258 57.3238L77.1261 104.935C77.1261 105.129 77.1856 105.275 77.2896 105.335C77.3936 105.395 77.5494 105.373 77.7174 105.276L100.291 92.2432L100.451 92.52L77.8774 105.553C77.7213 105.644 77.5677 105.689 77.4259 105.689Z" fill="#0172D0" stroke="#0172D0" stroke-miterlimit="10"/>
<path d="M100.451 92.5206L100.291 92.2438L103.351 90.4774C103.759 90.2419 104.103 89.6457 104.103 89.1759L104.103 41.5647C104.103 41.3708 104.043 41.2252 103.939 41.1651C103.836 41.1052 103.68 41.126 103.511 41.2233L100.443 42.9948L100.283 42.7177L103.351 40.9462C103.624 40.7884 103.89 40.7673 104.099 40.8879C104.308 41.0086 104.423 41.2486 104.423 41.5647L104.423 89.1759C104.423 89.7657 104.023 90.4591 103.511 90.7545L100.451 92.5206Z" fill="#0172D0" stroke="#0172D0" stroke-miterlimit="10"/>
<path d="M90.6144 52.6281C93.4861 50.9702 95.8138 52.3142 95.8138 55.63C95.8138 58.9459 93.4861 62.9775 90.6144 64.6358C87.7427 66.2937 85.415 64.9497 85.415 61.6339C85.415 58.318 87.7427 54.286 90.6144 52.6281Z" fill="#0172D0"/>
<path d="M90.6144 55.2372C91.5459 54.6993 92.3011 55.1355 92.3011 56.211C92.3011 57.2868 91.5459 58.595 90.6144 59.1326C89.6829 59.6705 88.9274 59.2343 88.9274 58.1585C88.9274 57.083 89.6829 55.7752 90.6144 55.2372Z" fill="#0172D0"/>
<path d="M93.9021 60.9737C93.9021 59.2063 92.6611 58.4899 91.1309 59.3737L90.1741 59.926C88.6438 60.8095 87.4029 62.9587 87.4029 64.726V65.2015C88.2877 65.4953 89.4013 65.3363 90.6144 64.6355C91.8618 63.9151 93.0064 62.7462 93.9021 61.3833V60.9737Z" fill="#0172D0"/>
<path opacity="0.7" d="M90.6144 55.2382C91.5459 54.7003 92.3011 55.1364 92.3011 56.212C92.3011 57.2878 91.5459 58.596 90.6144 59.1336C89.6829 59.6715 88.9274 59.2353 88.9274 58.1595C88.9274 57.084 89.6829 55.7761 90.6144 55.2382Z" fill="white"/>
<path opacity="0.7" d="M93.9021 60.9747C93.9021 59.2073 92.6611 58.4908 91.1309 59.3747L90.1741 59.927C88.6438 60.8105 87.4029 62.9596 87.4029 64.727V65.2025C88.2877 65.4963 89.4013 65.3372 90.6144 64.6364C91.8618 63.9161 93.0064 62.7472 93.9021 61.3843V60.9747Z" fill="white"/>
<path d="M80.5539 71.9481L87.2445 68.0854C87.5507 67.9088 87.799 68.0521 87.799 68.4054V68.6262C87.799 68.9798 87.551 69.4095 87.2445 69.5862L80.5539 73.4489C80.248 73.6259 79.9997 73.4825 79.9997 73.1289V72.9081C79.9997 72.5545 80.248 72.1248 80.5539 71.9481Z" fill="#0172D0"/>
<path opacity="0.1" d="M80.5539 71.9481L87.2445 68.0854C87.5507 67.9088 87.799 68.0521 87.799 68.4054V68.6262C87.799 68.9798 87.551 69.4095 87.2445 69.5862L80.5539 73.4489C80.248 73.6259 79.9997 73.4825 79.9997 73.1289V72.9081C79.9997 72.5545 80.248 72.1248 80.5539 71.9481Z" fill="black"/>
<path d="M80.2771 76.611L100.52 64.9236C100.673 64.8353 100.797 64.9067 100.797 65.0836V67.4455C100.797 67.6222 100.673 67.8372 100.52 67.9255L80.2771 79.6129C80.1242 79.7012 80 79.6295 80 79.4529V77.091C80 76.9143 80.1242 76.6993 80.2771 76.611Z" fill="#0172D0"/>
<path opacity="0.2" d="M80.2771 76.611L100.52 64.9236C100.673 64.8353 100.797 64.9067 100.797 65.0836V67.4455C100.797 67.6222 100.673 67.8372 100.52 67.9255L80.2771 79.6129C80.1242 79.7012 80 79.6295 80 79.4529V77.091C80 76.9143 80.1242 76.6993 80.2771 76.611Z" fill="white"/>
<path d="M80.5539 82.455L87.2445 78.5923C87.5507 78.4156 87.799 78.5587 87.799 78.9123V79.1331C87.799 79.4864 87.551 79.9164 87.2445 80.0931L80.5539 83.9558C80.248 84.1328 79.9997 83.9891 79.9997 83.6358V83.415C79.9997 83.0614 80.248 82.632 80.5539 82.455Z" fill="#0172D0"/>
<path opacity="0.1" d="M80.5539 82.455L87.2445 78.5923C87.5507 78.4156 87.799 78.5587 87.799 78.9123V79.1331C87.799 79.4864 87.551 79.9164 87.2445 80.0931L80.5539 83.9558C80.248 84.1328 79.9997 83.9891 79.9997 83.6358V83.415C79.9997 83.0614 80.248 82.632 80.5539 82.455Z" fill="black"/>
<path d="M80.2771 87.1178L100.52 75.4304C100.673 75.3421 100.797 75.4138 100.797 75.5904V77.9523C100.797 78.1289 100.673 78.344 100.52 78.4323L80.2771 90.1197C80.1242 90.208 80 90.1366 80 89.9597V87.5978C80 87.4211 80.1242 87.2064 80.2771 87.1178Z" fill="#0172D0"/>
<path opacity="0.2" d="M80.2771 87.1178L100.52 75.4304C100.673 75.3421 100.797 75.4138 100.797 75.5904V77.9523C100.797 78.1289 100.673 78.344 100.52 78.4323L80.2771 90.1197C80.1242 90.208 80 90.1366 80 89.9597V87.5978C80 87.4211 80.1242 87.2064 80.2771 87.1178Z" fill="white"/>
<path d="M88.3533 88.4585L96.3437 83.8454C96.6499 83.6684 96.8979 83.8118 96.8979 84.1654V86.6377C96.8979 86.9909 96.6499 87.421 96.3437 87.5977L88.3533 92.2111C88.047 92.3878 87.799 92.2444 87.799 91.8911V89.4185C87.799 89.0649 88.047 88.6351 88.3533 88.4585Z" fill="#0172D0"/>
<path opacity="0.1" d="M88.3533 88.4585L96.3437 83.8454C96.6499 83.6684 96.8979 83.8118 96.8979 84.1654V86.6377C96.8979 86.9909 96.6499 87.421 96.3437 87.5977L88.3533 92.2111C88.047 92.3878 87.799 92.2444 87.799 91.8911V89.4185C87.799 89.0649 88.047 88.6351 88.3533 88.4585Z" fill="black"/>
<path d="M107.297 78.0333C107.297 78.0333 103.366 72.6103 103.126 71.9652C102.945 71.4788 103.139 70.7552 103.183 70.4189C103.228 70.0829 103.293 69.3341 103.349 69.1258C103.447 68.7623 102.976 68.8369 102.711 69.1674C102.441 69.506 102.354 70.1671 102.219 70.2756C102.085 70.384 101.034 68.8583 100.486 68.152C99.9382 67.4455 99.5955 67.0202 99.2624 67.282C99.0224 67.4705 99.2013 67.882 99.5984 68.4833C99.9955 69.0845 100.172 69.3633 100.232 69.4922C100.292 69.6215 99.9648 69.6317 99.7885 69.9031C99.6509 70.1149 99.7792 70.4577 99.5968 70.6212C99.4144 70.7847 99.2442 71.0788 99.4442 71.4103C99.6989 71.8324 100.21 72.4359 100.797 72.8429C101.385 73.2503 101.623 73.3933 101.97 73.9476C102.317 74.5015 105.449 80.1565 105.659 80.4957C105.869 80.8353 106.278 81.5265 106.895 81.546C107.514 81.5661 112.568 77.2135 112.829 76.9962C113.662 76.3015 113.925 76.1994 114.068 76.8253C114.114 77.0212 114.143 77.2442 114.174 77.4967C114.275 78.289 114.814 81.1245 114.814 81.1245C114.814 81.1245 117.371 82.3636 119.476 81.753C121.581 81.1425 122.287 80.2628 122.287 80.2628L121.234 78.5466C121.521 77.8378 122.845 74.9729 123.26 72.9649L116.668 71.9005C116.533 71.8711 116.317 71.8167 116.041 71.7441C115.679 71.6487 114.769 71.3293 114.068 71.9393C111.8 73.913 107.297 78.0333 107.297 78.0333Z" fill="#FFA8A7"/>
<path d="M120.366 111.293L119.184 112.936C119.184 112.936 119.732 113.257 120.901 113.301C121.958 113.341 122.249 112.994 122.288 112.911C122.466 112.528 122.188 111.837 122.111 111.243L120.366 111.293Z" fill="#37474F"/>
<path d="M119.251 112.147C119.251 112.147 117.819 112.056 116.828 111.931C115.838 111.806 115.055 112.29 115.288 112.698C115.521 113.105 116.065 113.444 116.914 113.73C117.641 113.974 118.512 114.152 119.271 114.379C120.049 114.612 120.547 114.878 120.988 114.727C121.479 114.558 121.69 114.361 121.648 114.004C121.606 113.646 121.25 112.494 121.25 112.494L119.251 112.147Z" fill="#37474F"/>
<path d="M122.288 109.643C122.288 109.643 122.108 111.135 122.095 111.455C122.081 111.775 120.639 111.878 120.366 111.293L120.321 109.47L122.288 109.643Z" fill="#F28F8F"/>
<path d="M120.834 110.562L121.349 112.824C121.349 112.824 121.398 113.1 120.219 113.276C119.041 113.452 117.192 112.659 116.878 112.498C116.563 112.337 116.525 112.017 117.683 112.081C118.841 112.145 119.251 112.147 119.251 112.147L118.875 111.144L120.834 110.562Z" fill="#FFA8A7"/>
<path d="M123.261 72.9652L124.076 72.7402C124.076 72.7402 125.783 78.1374 125.972 78.6574C126.16 79.177 126.373 79.7316 126.006 80.3748C125.569 81.1406 123.261 84.2222 123.261 84.2222L121.796 82.7886L123.458 79.7441L121.988 76.7662L123.261 72.9652Z" fill="#F28F8F"/>
<path d="M114.871 65.95C114.871 65.95 114.218 64.9042 114.906 63.6236C115.717 62.1148 117.53 61.3784 119.688 61.661C120.684 61.7916 121.861 62.6098 122.507 63.8594C123.216 65.2316 123.282 67.9976 123.458 69.0434L114.871 65.95Z" fill="#37474F"/>
<path d="M114.822 66.541C114.822 66.541 114.309 67.517 114.398 67.606C114.487 67.6946 114.829 67.7666 114.829 67.7666L114.822 66.541Z" fill="#FFA8A7"/>
<path d="M116.378 63.4545C115.82 63.818 114.861 64.4823 114.819 66.6756C114.775 68.9271 115.093 69.6529 115.426 69.914C115.651 70.09 116.965 70.0007 117.529 69.8682C118.094 69.7358 119.716 68.9342 120.3 67.715C120.987 66.281 120.848 64.1812 119.826 63.5716C118.388 62.7137 116.85 63.147 116.378 63.4545Z" fill="#FFA8A7"/>
<path d="M122.287 80.2637C123.274 81.7994 124.212 83.152 124.412 84.8778C124.835 88.5226 123.448 92.6893 123.154 95.3843C123.154 95.3843 124.085 96.5949 124.084 98.0173C124.084 99.1309 122.288 109.643 122.288 109.643C122.288 109.643 120.981 110.041 120.321 109.469L119.086 90.1305L119.737 87.7763L122.287 80.2637Z" fill="#0172D0"/>
<path opacity="0.2" d="M122.287 80.2637C123.274 81.7994 124.212 83.152 124.412 84.8778C124.835 88.5226 123.448 92.6893 123.154 95.3843C123.154 95.3843 124.085 96.5949 124.084 98.0173C124.084 99.1309 122.288 109.643 122.288 109.643C122.288 109.643 120.981 110.041 120.321 109.469L119.086 90.1305L119.737 87.7763L122.287 80.2637Z" fill="black"/>
<path d="M119.086 90.1309L119.737 87.7767C119.737 87.7767 121.54 87.3411 123.261 86.3789C123.261 86.3789 122.594 87.5904 120.683 88.2547L119.688 91.2813L119.602 98.2074L119.086 90.1309Z" fill="#0172D0"/>
<path opacity="0.3" d="M119.086 90.1309L119.737 87.7767C119.737 87.7767 121.54 87.3411 123.261 86.3789C123.261 86.3789 122.594 87.5904 120.683 88.2547L119.688 91.2813L119.602 98.2074L119.086 90.1309Z" fill="black"/>
<path d="M122.287 80.2637C122.815 81.1254 124.077 82.599 123.809 84.015C123.484 85.7309 122.561 86.937 119.737 87.7766L117.088 97.369C117.088 97.369 118.467 98.6595 118.889 99.8874C119.31 101.115 120.834 110.561 120.834 110.561C120.834 110.561 120.363 111.33 118.875 111.144C118.875 111.144 113.688 99.2963 113.321 98.5334C112.955 97.7705 112.717 97.2003 112.882 95.9578C113.047 94.7155 114.814 81.1251 114.814 81.1251L122.287 80.2637Z" fill="#0172D0"/>
<path opacity="0.2" d="M122.287 80.2637C122.815 81.1254 124.077 82.599 123.809 84.015C123.484 85.7309 122.561 86.937 119.737 87.7766L117.088 97.369C117.088 97.369 118.467 98.6595 118.889 99.8874C119.31 101.115 120.834 110.561 120.834 110.561C120.834 110.561 120.363 111.33 118.875 111.144C118.875 111.144 113.688 99.2963 113.321 98.5334C112.955 97.7705 112.717 97.2003 112.882 95.9578C113.047 94.7155 114.814 81.1251 114.814 81.1251L122.287 80.2637Z" fill="black"/>
<path d="M123.261 72.9656L116.669 71.9013C116.534 71.8718 116.316 71.8171 116.041 71.7445L116.04 71.7441C116.04 71.7441 115.759 75.8769 114.068 76.8257C114.108 77.0229 114.143 77.2446 114.174 77.4971C114.275 78.2894 114.814 81.1249 114.814 81.1249C114.814 81.1249 117.371 82.364 119.476 81.7534C121.581 81.1429 122.287 80.2632 122.287 80.2632L121.234 78.547C121.521 77.8389 122.845 74.9736 123.261 72.9656Z" fill="#0172D0"/>
<path opacity="0.7" d="M123.261 72.9656L116.669 71.9013C116.534 71.8718 116.316 71.8171 116.041 71.7445L116.04 71.7441C116.04 71.7441 115.759 75.8769 114.068 76.8257C114.108 77.0229 114.143 77.2446 114.174 77.4971C114.275 78.2894 114.814 81.1249 114.814 81.1249C114.814 81.1249 117.371 82.364 119.476 81.7534C121.581 81.1429 122.287 80.2632 122.287 80.2632L121.234 78.547C121.521 77.8389 122.845 74.9736 123.261 72.9656Z" fill="white"/>
<path d="M121.522 77.8721C121.495 77.9342 119.403 79.0551 118.781 79.2266C119.761 79.178 120.575 78.9476 121.234 78.547L121.522 77.8721Z" fill="#0172D0"/>
<path d="M116.213 63.565C116.213 63.565 115.906 65.6459 116.65 66.8664C116.65 66.8664 116.93 66.0382 117.633 66.1963C118.342 66.3557 118.372 67.2757 117.88 67.7973C117.388 68.3189 116.84 68.1304 116.84 68.1304C116.84 68.1304 116.729 69.6344 116.67 70.8955C116.613 72.1106 116.274 74.9045 117.693 76.028C119.112 77.1515 122.668 77.5307 124.335 75.2005C125.263 73.9042 124.031 71.6126 123.458 69.043C122.931 66.6805 122.635 63.1794 120.128 62.6174C117.621 62.0558 116.213 63.565 116.213 63.565Z" fill="#37474F"/>
<path d="M125.409 35.1436L124.881 35.4488C124.923 35.2543 124.953 35.0613 124.953 34.8754C124.953 33.805 124.201 33.3711 123.274 33.9064C123.004 34.062 122.753 34.2872 122.527 34.548C122.527 34.5455 122.528 34.5426 122.528 34.54C122.528 33.0991 121.516 32.5148 120.268 33.2354C119.02 33.956 118.008 35.7084 118.008 37.1496C118.008 37.2229 118.012 37.2927 118.018 37.3615C117.754 37.3144 117.438 37.3791 117.1 37.5749C116.172 38.1103 115.421 39.4117 115.421 40.4825C115.421 40.63 115.436 40.7637 115.463 40.886L115.182 41.0485C114.416 41.4904 113.796 42.3525 113.796 42.9743C113.796 43.5957 114.417 43.7416 115.182 43.3L125.409 37.3954C126.174 36.9535 126.795 36.0914 126.795 35.4696C126.795 34.8476 126.174 34.7016 125.409 35.1436Z" fill="#EBEBEB"/>
</svg>
