<svg width="83" height="83" viewBox="0 0 83 83" fill="none" xmlns="http://www.w3.org/2000/svg">
<path d="M79.3896 79.8752C79.3896 79.8991 62.3501 79.9184 41.3358 79.9184C20.3141 79.9184 3.27832 79.8991 3.27832 79.8752C3.27832 79.8513 20.3141 79.832 41.3358 79.832C62.3502 79.8319 79.3896 79.8513 79.3896 79.8752Z" fill="#263238"/>
<path d="M17.9639 76.0684C17.9639 76.0684 17.3542 71.8769 17.405 69.4382C17.4558 66.9995 17.402 64.2559 17.402 64.2559H17.6829C17.6829 64.2559 17.4926 69.0964 17.6996 72.016C17.9065 74.9333 18.4516 76.0684 18.4516 76.0684H17.9639Z" fill="#263238"/>
<path d="M19.7799 59.5393C19.7235 59.3961 19.6539 59.247 19.524 59.1645C19.3457 59.0516 19.1121 59.0986 18.9131 59.1688C18.0642 59.4689 17.3117 61.0517 16.9686 61.8841L18.0955 65.6813C20.1297 63.7944 20.4821 61.3188 19.7799 59.5393Z" fill="#455A64"/>
<path d="M19.4582 59.3184C19.4597 59.319 19.4541 59.3361 19.4418 59.3678C19.4273 59.4042 19.4091 59.45 19.3867 59.5061C19.3372 59.6256 19.268 59.7994 19.1851 60.0151C19.0191 60.4463 18.8077 61.0491 18.6188 61.7282C18.4305 62.4078 18.3009 63.0335 18.2209 63.4885C18.1807 63.7161 18.1505 63.9006 18.1312 64.0285C18.1214 64.0882 18.1135 64.1369 18.1071 64.1754C18.1012 64.2089 18.0972 64.2265 18.0957 64.2263C18.094 64.2262 18.0949 64.2082 18.0978 64.1742C18.1018 64.1352 18.107 64.0862 18.1133 64.026C18.1271 63.8973 18.1523 63.7116 18.1885 63.483C18.2604 63.0257 18.3852 62.3972 18.5739 61.7157C18.7633 61.0348 18.9803 60.4319 19.1546 60.003C19.2416 59.7885 19.3155 59.6163 19.3701 59.499C19.3958 59.4442 19.4167 59.3994 19.4333 59.364C19.4483 59.3335 19.4567 59.3177 19.4582 59.3184Z" fill="#263238"/>
<path d="M17.5949 66.5922C16.5386 66.0085 15.9159 64.9105 15.8578 63.705C15.8173 62.8623 16.0761 62.0355 16.3694 61.2445C16.3948 61.176 16.4251 61.1019 16.4888 61.0659C16.5774 61.0158 16.6883 61.0604 16.7768 61.1107C17.5444 61.5478 18.0094 62.3811 18.2569 63.229C18.4215 63.7933 18.5069 64.3882 18.4307 64.9709C18.3545 65.5537 18.0213 66.1878 17.5949 66.5922Z" fill="#455A64"/>
<path d="M17.5949 66.5923C17.5932 66.5923 17.5919 66.5747 17.5907 66.5413C17.59 66.5028 17.589 66.4547 17.5879 66.3956C17.5876 66.2691 17.5824 66.086 17.5721 65.8602C17.5519 65.4085 17.4926 64.7861 17.3761 64.1061C17.2589 63.426 17.1166 62.817 17.0119 62.3767C16.9602 62.1614 16.9179 61.9848 16.8869 61.8555C16.8738 61.7979 16.863 61.7509 16.8543 61.7134C16.8474 61.6807 16.8445 61.6634 16.846 61.6631C16.8475 61.6628 16.8535 61.6792 16.8633 61.7111C16.8741 61.7479 16.8877 61.7942 16.9043 61.851C16.939 61.9728 16.987 62.1496 17.0437 62.3689C17.1568 62.8073 17.3042 63.4164 17.4219 64.0983C17.5387 64.7802 17.593 65.4059 17.605 65.8591C17.6111 66.0857 17.6113 66.2691 17.6061 66.3958C17.6038 66.4548 17.6018 66.503 17.6002 66.5415C17.5982 66.5749 17.5963 66.5923 17.5949 66.5923Z" fill="#263238"/>
<g opacity="0.3">
<path d="M17.5949 66.5922C16.5386 66.0085 15.9159 64.9105 15.8578 63.705C15.8173 62.8623 16.0761 62.0355 16.3694 61.2445C16.3948 61.176 16.4251 61.1019 16.4888 61.0659C16.5774 61.0158 16.6883 61.0604 16.7768 61.1107C17.5444 61.5478 18.0094 62.3811 18.2569 63.229C18.4215 63.7933 18.5069 64.3882 18.4307 64.9709C18.3545 65.5537 18.0213 66.1878 17.5949 66.5922Z" fill="black"/>
</g>
<path d="M18.7866 73.0048C19.8262 73.2332 20.6823 73.9664 21.6851 74.323C22.3486 74.5589 23.0991 74.6424 23.6289 75.1063C23.5018 74.7853 23.2005 74.5716 22.9077 74.3887C22.0828 73.8736 21.1997 73.452 20.2804 73.1344C19.8086 72.9716 19.2965 72.8353 18.8158 72.9696" fill="#455A64"/>
<path d="M17.2834 73.9314C15.9815 73.9105 14.6107 72.802 13.3147 72.7359C14.6708 72.298 16.6126 72.6557 17.2834 73.9314Z" fill="#455A64"/>
<path d="M17.7921 70.8085C18.4532 70.5701 19.1791 70.5589 19.8735 70.6669C20.5679 70.7748 21.2387 70.9976 21.9055 71.2192C21.8386 70.7675 21.4729 70.4279 21.1292 70.1271C20.8705 69.9008 20.6099 69.6732 20.3133 69.4999C20.0166 69.3266 19.678 69.2093 19.3347 69.2239C18.9205 69.2415 18.5263 69.4551 18.2547 69.7682C17.9831 70.0813 17.837 70.3963 17.7921 70.8085Z" fill="#455A64"/>
<path d="M15.12 69.3709C14.3004 68.6712 13.0589 68.7396 11.9816 68.7639C13.6377 69.5557 15.4224 70.6413 16.8487 71.7968C16.8927 71.0352 16.1553 70.2549 15.12 69.3709Z" fill="#455A64"/>
<g opacity="0.3">
<path d="M15.12 69.3709C14.3004 68.6712 13.0589 68.7396 11.9816 68.7639C13.6377 69.5557 15.4224 70.6413 16.8487 71.7968C16.8927 71.0352 16.1553 70.2549 15.12 69.3709Z" fill="black"/>
</g>
<path d="M18.1608 68.4043C18.573 68.1296 18.9898 67.8676 19.4212 67.6718C19.8527 67.4757 20.255 67.1636 20.6717 66.9379C21.2119 66.6454 21.68 66.2387 22.1758 65.876C22.6717 65.5133 23.2165 65.1859 23.8232 65.0898C23.3284 64.9877 22.8114 65.0433 22.3239 65.1765C21.8365 65.3096 21.3736 65.5179 20.9129 65.7254C20.2735 66.0134 19.6231 66.3086 19.1005 66.776C18.5779 67.2438 18.1055 67.7053 18.1608 68.4043Z" fill="#455A64"/>
<path d="M21.6613 73.9315C21.6605 73.9329 21.6464 73.9267 21.6202 73.9138C21.5895 73.8979 21.5519 73.8784 21.5066 73.855C21.4085 73.8029 21.2678 73.7255 21.0906 73.6364C21.0028 73.5901 20.9057 73.5418 20.8001 73.4921C20.6957 73.4402 20.5822 73.3891 20.462 73.3371C20.2216 73.2343 19.9532 73.1273 19.6604 73.0577C19.3685 72.9862 19.0775 72.9704 18.8252 73.0368C18.6979 73.0675 18.5781 73.0979 18.4713 73.1425C18.3642 73.1859 18.2688 73.2367 18.1856 73.2891C18.0188 73.3942 17.9023 73.5054 17.8267 73.5856C17.7514 73.6664 17.7145 73.7159 17.7112 73.7134C17.7099 73.7124 17.718 73.6993 17.7346 73.6751C17.7509 73.6507 17.7773 73.6161 17.8133 73.5735C17.8855 73.4888 18.0002 73.372 18.1679 73.2614C18.2514 73.2061 18.348 73.1527 18.4567 73.1067C18.5653 73.0596 18.6879 73.027 18.8153 72.995C19.0732 72.9244 19.3755 72.9395 19.671 73.0124C19.9683 73.0831 20.2382 73.1923 20.4791 73.2978C20.5994 73.351 20.7128 73.4038 20.8169 73.4573C20.9221 73.5084 21.0187 73.5587 21.1057 73.607C21.2815 73.7001 21.4201 73.7818 21.5154 73.8389C21.5591 73.8655 21.5953 73.8874 21.6248 73.9053C21.6496 73.9214 21.6622 73.9302 21.6613 73.9315Z" fill="#263238"/>
<path d="M16.3123 73.2867C16.3135 73.2837 16.3424 73.2924 16.3938 73.3106C16.4456 73.328 16.5185 73.3593 16.606 73.4027C16.7811 73.4892 17.0117 73.6366 17.228 73.8438C17.4438 74.0518 17.6003 74.2762 17.6938 74.4477C17.7407 74.5334 17.7748 74.6049 17.7944 74.656C17.8146 74.7068 17.8244 74.7352 17.8214 74.7366C17.814 74.7399 17.7653 74.6297 17.6652 74.4643C17.5656 74.299 17.4079 74.0819 17.1958 73.8773C16.983 73.6737 16.7599 73.5246 16.5905 73.4318C16.4214 73.3385 16.3093 73.2943 16.3123 73.2867Z" fill="#263238"/>
<path d="M13.4316 69.3049C13.4321 69.3034 13.4512 69.3091 13.487 69.3214C13.5274 69.3356 13.5792 69.3542 13.6432 69.377C13.7126 69.4025 13.795 69.4329 13.8896 69.4678C13.9855 69.5035 14.0899 69.5561 14.2078 69.608C14.6766 69.8208 15.3004 70.1789 15.9028 70.688C16.2 70.9467 16.4686 71.2094 16.6933 71.4664C16.9171 71.7239 17.1067 71.9659 17.2544 72.1772C17.403 72.3877 17.5159 72.5632 17.593 72.6845C17.6296 72.7418 17.6591 72.7881 17.6822 72.8241C17.7024 72.8562 17.7124 72.8734 17.7111 72.8744C17.7097 72.8754 17.6973 72.8598 17.6745 72.8294C17.6518 72.7991 17.6188 72.7539 17.5781 72.6945C17.4961 72.5761 17.3794 72.4038 17.2278 72.1963C17.0773 71.9881 16.8859 71.7493 16.6615 71.4948C16.4362 71.2408 16.1683 70.9804 15.873 70.7234C15.2742 70.2176 14.6573 69.8574 14.194 69.6378C14.0775 69.5841 13.9746 69.5295 13.8798 69.4917C13.7865 69.454 13.7053 69.4213 13.6369 69.3937C13.5742 69.3675 13.5234 69.3464 13.4839 69.33C13.4492 69.315 13.4311 69.3064 13.4316 69.3049Z" fill="#263238"/>
<path d="M19.7457 70.0767C19.7449 70.0798 19.7078 70.0749 19.6419 70.0632C19.6061 70.0566 19.5664 70.0493 19.5223 70.0412C19.4758 70.0322 19.4215 70.0319 19.3624 70.0259C19.1283 70.009 18.7872 70.0282 18.4677 70.2025C18.3065 70.2842 18.1712 70.3942 18.0605 70.5046C17.9481 70.6142 17.8629 70.7284 17.7987 70.8283C17.668 71.0282 17.6277 71.1728 17.6197 71.17C17.6172 71.1693 17.6245 71.1326 17.6461 71.0684C17.67 71.0055 17.7069 70.914 17.7708 70.8109C17.8325 70.707 17.9167 70.5885 18.0301 70.4746C18.1416 70.3599 18.2799 70.2455 18.4461 70.1615C18.7758 69.9819 19.1285 69.9675 19.3654 69.9934C19.4253 70.0017 19.4803 70.0043 19.5267 70.0158C19.5707 70.0269 19.6102 70.0368 19.6459 70.0458C19.7112 70.0627 19.7465 70.0735 19.7457 70.0767Z" fill="#263238"/>
<path d="M21.0543 66.0168C21.0549 66.0183 21.038 66.0286 21.005 66.0472C20.9675 66.0676 20.9193 66.0936 20.8597 66.126C20.7334 66.1941 20.5516 66.2945 20.3308 66.4246C20.1111 66.5565 19.8521 66.7185 19.5765 66.9153C19.3018 67.1127 19.0068 67.3421 18.7344 67.6208C18.6001 67.7611 18.4763 67.9075 18.39 68.0667C18.3046 68.2306 18.2231 68.3888 18.1483 68.5408C17.9977 68.8444 17.875 69.1241 17.7866 69.3643C17.6982 69.6047 17.6433 69.8047 17.6106 69.9442C17.5772 70.0835 17.5653 70.1621 17.5606 70.1613C17.559 70.1611 17.561 70.1412 17.5658 70.1037C17.5704 70.066 17.5784 70.0107 17.5928 69.9404C17.6202 69.7991 17.6707 69.5964 17.7555 69.3532C17.8407 69.1102 17.9609 68.8277 18.1098 68.5221C18.184 68.369 18.2648 68.2101 18.3496 68.046C18.4393 67.8795 18.5649 67.7309 18.7011 67.5886C18.9768 67.3066 19.2744 67.077 19.5518 66.8805C19.83 66.6844 20.0918 66.5249 20.3142 66.3963C20.5378 66.2694 20.7224 66.1732 20.8514 66.1099C20.9127 66.0807 20.9623 66.0571 21.0008 66.0387C21.0352 66.0229 21.0536 66.0153 21.0543 66.0168Z" fill="#263238"/>
<path d="M17.4034 69.9586C17.4003 69.9591 17.3912 69.92 17.3776 69.8489C17.3623 69.7686 17.3434 69.6678 17.3206 69.5481C17.271 69.2947 17.1951 68.9457 17.0744 68.5712C16.9548 68.1962 16.809 67.8699 16.7026 67.6345C16.6521 67.5236 16.6096 67.4301 16.5756 67.3558C16.5461 67.2897 16.531 67.2525 16.5339 67.251C16.5368 67.2495 16.5573 67.2841 16.5919 67.3476C16.6264 67.4112 16.675 67.5042 16.7323 67.6204C16.8465 67.8526 16.9981 68.1788 17.1186 68.5568C17.2403 68.9341 17.3115 69.2865 17.3528 69.5422C17.3732 69.6701 17.3878 69.7739 17.3953 69.8461C17.4036 69.9181 17.4066 69.9582 17.4034 69.9586Z" fill="#263238"/>
<path d="M17.3093 66.9972C17.2766 66.5053 17.1165 66.0273 16.8859 65.5915C16.2539 64.3966 15.0662 63.511 13.7408 63.2461C14.7114 64.6926 15.6819 66.1393 16.6525 67.5858L17.0285 68.3604C17.2849 67.9396 17.3419 67.4891 17.3093 66.9972Z" fill="#455A64"/>
<path d="M21.4859 75.5498H14.7154V76.7498H21.4859V75.5498Z" fill="#E83F93"/>
<path d="M15.2211 76.5117L15.7976 80.2353H20.2924L20.9803 76.5117H15.2211Z" fill="#E83F93"/>
<path d="M21.4821 76.7513C21.4821 76.7644 19.9549 76.775 18.0714 76.775C16.1873 76.775 14.6605 76.7644 14.6605 76.7513C14.6605 76.7382 16.1873 76.7275 18.0714 76.7275C19.9549 76.7274 21.4821 76.7382 21.4821 76.7513Z" fill="#263238"/>
<path d="M47.5328 24.4163L46.6402 23.8255C46.5934 23.2168 46.3831 22.6131 45.9976 22.083C44.8889 20.559 42.7546 20.2222 41.2304 21.3309C39.7064 22.4396 39.3696 24.5739 40.4783 26.0981C41.587 27.6221 43.7213 27.9589 45.2455 26.8502C45.8818 26.3873 46.3104 25.7452 46.5139 25.0436V25.0456L47.5328 24.4163Z" fill="white"/>
<path d="M47.5328 24.4163C47.5328 24.4163 47.5087 24.4299 47.4641 24.4568C47.4184 24.4843 47.3528 24.5238 47.2669 24.5758C47.0936 24.681 46.8391 24.8354 46.5082 25.0365L46.5245 25.0457V25.0439C46.5247 25.0379 46.52 25.0331 46.5142 25.033C46.5092 25.0328 46.5051 25.0361 46.5038 25.0408C46.3769 25.4672 46.1271 26.0057 45.6454 26.4863C45.5257 26.6058 45.3929 26.7217 45.2456 26.8284C45.0936 26.928 44.9395 27.0367 44.7636 27.1184C44.4181 27.2921 44.0207 27.4176 43.5923 27.4614C43.1645 27.5059 42.7065 27.4687 42.2585 27.3326C41.8108 27.1973 41.3735 26.9624 40.9977 26.6317C40.2409 25.9783 39.7662 24.9055 39.8643 23.8077C39.9154 23.2506 40.091 22.7111 40.3882 22.2616C40.6798 21.8091 41.0714 21.4391 41.5088 21.1766C41.9461 20.9118 42.4318 20.7663 42.9047 20.7191C43.379 20.6725 43.8426 20.7283 44.2588 20.8591C44.6758 20.9895 45.0446 21.1947 45.3507 21.4372C45.3886 21.4683 45.4261 21.4992 45.4633 21.5297C45.5011 21.5596 45.5375 21.5905 45.5697 21.6255C45.6364 21.6927 45.7021 21.7588 45.7667 21.8239C45.8808 21.9669 45.9986 22.0996 46.0888 22.2442C46.4619 22.8164 46.5952 23.3921 46.6303 23.8263C46.6304 23.8295 46.6322 23.8323 46.6347 23.8339C46.9242 24.0224 47.1472 24.1673 47.2992 24.2662C47.3746 24.3148 47.432 24.352 47.4724 24.3781C47.5115 24.4033 47.5328 24.4163 47.5328 24.4163C47.5328 24.4163 47.515 24.4035 47.4777 24.3779C47.4385 24.3514 47.3826 24.3135 47.3095 24.2639C47.1576 24.1616 46.935 24.0117 46.6459 23.817L46.6503 23.8247C46.6191 23.3876 46.4888 22.8064 46.115 22.2269C46.0247 22.0807 45.9065 21.9462 45.7918 21.8011C45.7269 21.7352 45.6608 21.6681 45.5937 21.5999C45.5614 21.5646 45.5247 21.5332 45.4867 21.5028C45.4492 21.4718 45.4115 21.4404 45.3735 21.409C45.0649 21.1627 44.6925 20.9538 44.2709 20.8207C43.8502 20.6873 43.381 20.6296 42.9006 20.676C42.4215 20.7226 41.9288 20.8695 41.4852 21.1373C41.0417 21.4025 40.6441 21.7774 40.3481 22.236C40.0465 22.6919 39.8682 23.2388 39.8163 23.8037C39.806 23.8726 39.8068 23.9422 39.806 24.0114L39.8038 24.2186L39.8209 24.4241C39.8259 24.4925 39.8314 24.5607 39.8462 24.6276C39.8584 24.6948 39.8706 24.7617 39.8828 24.8285C39.8931 24.8957 39.9177 24.9594 39.9345 25.0248C39.9541 25.0894 39.9692 25.1553 39.9924 25.2184C40.0171 25.2808 40.0419 25.3432 40.0664 25.4053C40.2701 25.8993 40.5842 26.3339 40.9672 26.6666C41.3486 27.0014 41.792 27.2388 42.2459 27.3749C42.7 27.5117 43.1637 27.5484 43.5966 27.5022C44.0302 27.4566 44.4317 27.3284 44.7803 27.1516C44.958 27.0681 45.1133 26.9579 45.2662 26.8566C45.4145 26.7482 45.5483 26.6307 45.6684 26.5094C46.1525 26.0218 46.4008 25.4773 46.5245 25.0471L46.5036 25.0439V25.0457C46.5034 25.0516 46.5081 25.0565 46.5139 25.0567C46.516 25.0567 46.5182 25.0562 46.5199 25.055C46.8507 24.8474 47.105 24.6877 47.2782 24.579C47.3618 24.526 47.4257 24.4857 47.4702 24.4576C47.5125 24.4301 47.5328 24.4163 47.5328 24.4163Z" fill="#263238"/>
<path d="M41.6718 24.1845L42.1484 23.6573L43.1597 24.469L44.6615 22.7441L45.1528 23.2226L43.1366 25.4405L41.6718 24.1845Z" fill="#E83F93"/>
<path d="M54.8069 53.6133H7.62372V56.1806H54.8069V53.6133Z" fill="#455A64"/>
<path d="M12.6751 56.0781H11.0839V79.878H12.6751V56.0781Z" fill="#263238"/>
<path d="M31.5279 56.0781H29.9366V79.878H31.5279V56.0781Z" fill="#263238"/>
<path d="M50.3805 56.0781H48.7892V79.878H50.3805V56.0781Z" fill="#263238"/>
<path d="M32.6857 52.5025C31.7581 51.7529 30.5113 51.4124 29.3315 51.5869L28.9439 52.0503C28.9861 52.249 29.1527 52.3939 29.3138 52.5178C29.762 52.8626 30.2477 53.1665 30.78 53.3571C31.3124 53.5476 31.8954 53.6207 32.4485 53.5028C32.6962 53.45 32.9741 53.3156 33.0101 53.0649C33.0421 52.8402 32.8622 52.6449 32.6857 52.5025Z" fill="#FAFAFA"/>
<g opacity="0.3">
<path d="M32.1572 53.1629C32.2495 53.1614 32.3574 53.1481 32.4043 53.0685C32.4668 52.9625 32.3728 52.8346 32.2817 52.7521C31.4875 52.0339 30.3672 51.692 29.3074 51.8442L29.2122 51.9823C29.9854 52.7446 31.0714 53.1798 32.1572 53.1629Z" fill="black"/>
</g>
<path d="M29.5594 49.0672C28.6971 48.2761 27.5098 47.8905 26.3397 47.8745C25.8648 47.868 25.3734 47.9237 24.9607 48.1589C24.8669 48.2123 24.7735 48.2802 24.7322 48.38C24.6838 48.4965 24.7172 48.6313 24.7712 48.7454C24.9068 49.0329 25.1633 49.2495 25.4458 49.3956C25.7283 49.5415 26.0384 49.6242 26.3457 49.7057C27.2192 49.9374 28.0928 50.1691 28.9663 50.401L29.2528 50.9067C29.4363 50.7805 29.6215 50.6524 29.7689 50.4854C29.9162 50.3184 30.0241 50.1061 30.0226 49.8834C30.0202 49.5614 29.7968 49.285 29.5594 49.0672Z" fill="#FAFAFA"/>
<g opacity="0.3">
<path d="M28.9204 50.0438L29.1129 49.6147C28.9474 49.3678 28.6808 49.1323 28.4166 48.9967C28.1523 48.861 27.8666 48.7726 27.5814 48.6892C27.0955 48.5475 26.6038 48.4186 26.101 48.3605C25.9961 48.3484 25.8894 48.3395 25.7856 48.3594C25.682 48.3793 25.5804 48.4318 25.5223 48.5197C25.4349 48.6522 25.4659 48.8365 25.5567 48.9666C25.6475 49.0967 25.7868 49.1836 25.9247 49.2621C26.8336 49.7785 27.8757 50.0821 28.9204 50.0438Z" fill="black"/>
</g>
<path d="M29.2585 50.9545C29.2429 50.8783 28.9507 49.8194 28.0991 49.3393C27.4281 48.961 26.6338 49.0948 26.2889 49.3329C25.9439 49.5707 25.0387 50.417 25.0766 51.0822C25.0766 51.0822 25.1181 52.4561 25.6091 52.9095C26.1001 53.3628 27.3279 53.9842 28.3715 53.4819C29.4153 52.9794 29.4595 51.9399 29.2585 50.9545Z" fill="white"/>
<path d="M19.3512 51.8833C19.8811 51.6303 20.4346 51.4266 21.002 51.2756L21.358 50.254C21.2448 50.1098 21.0645 50.0299 20.8829 50.0047C20.7013 49.9794 20.5167 50.0035 20.3361 50.0351C19.6012 50.1635 18.8923 50.4164 18.2145 50.7281C18.0294 50.8133 17.8325 50.9165 17.7484 51.1021C17.6504 51.3182 17.7412 51.5769 17.8853 51.7653C18.0146 51.9343 18.1929 52.0739 18.4007 52.1194C18.7261 52.1907 19.0508 52.0267 19.3512 51.8833Z" fill="white"/>
<path d="M21.6524 53.7195C21.7246 53.6572 21.7744 53.5628 21.7631 53.4681L20.5217 52.6239C20.2445 52.4423 19.917 52.3483 19.5878 52.3096C19.2586 52.2709 18.9258 52.2851 18.5948 52.3046C18.3051 52.3219 17.9969 52.3503 17.7678 52.5284C17.5457 52.7011 17.437 53.006 17.4949 53.2812C17.5528 53.5565 17.7723 53.7903 18.042 53.8702C18.303 53.9475 18.5817 53.8878 18.8511 53.8489C19.2452 53.792 19.6458 53.7807 20.0423 53.8154C20.4943 53.8549 20.9562 53.953 21.3956 53.8398C21.488 53.8159 21.5801 53.7817 21.6524 53.7195Z" fill="white"/>
<path d="M24.0368 53.6614C24.7014 53.4388 25.485 52.9118 26.069 52.5426L25.6237 51.0227C24.8445 50.6309 25.3062 50.6641 24.438 50.4762C24.438 50.4762 24.3963 50.4286 24.2049 50.3316C23.5909 50.0207 22.3994 49.8887 21.7853 50.0903C21.2472 50.267 20.7797 50.6165 20.5287 51.0861C20.2727 51.565 20.2143 52.1369 20.4185 52.6289C20.6668 53.2277 21.2828 53.6574 21.9616 53.8156C22.6406 53.9738 23.3721 53.884 24.0368 53.6614Z" fill="white"/>
<path d="M22.8064 49.9853C22.7647 49.8255 22.7812 49.6218 22.822 49.4616C22.8316 49.4238 22.8413 49.3774 22.8125 49.351C22.7964 49.3363 22.773 49.3333 22.7513 49.3311C22.6231 49.3185 22.4947 49.3092 22.3658 49.3036C22.3122 49.3012 22.2525 49.3014 22.2126 49.3374C22.1759 49.3706 22.1675 49.4241 22.163 49.4734C22.1426 49.6953 22.1207 49.7889 22.1713 50.0059L22.8064 49.9853Z" fill="#E83F93"/>
<path d="M23.7099 50.1484C23.7096 50.1494 23.7011 50.1479 23.6853 50.1445C23.6664 50.14 23.6438 50.1345 23.6164 50.1279C23.5867 50.1199 23.55 50.1116 23.5074 50.1021C23.4649 50.092 23.4164 50.0814 23.3625 50.0711C23.1475 50.0278 22.8455 49.9836 22.5109 49.9919C22.1759 49.9982 21.8776 50.0678 21.6719 50.1423C21.5693 50.1807 21.4873 50.215 21.4329 50.2436C21.4075 50.2557 21.3866 50.2658 21.369 50.2741C21.3542 50.2809 21.3462 50.2841 21.3457 50.2832C21.3452 50.2824 21.3524 50.2776 21.3663 50.2695C21.3832 50.2598 21.4035 50.2482 21.4281 50.2343C21.4812 50.2027 21.5627 50.1654 21.6651 50.1244C21.8708 50.0445 22.1721 49.9712 22.5101 49.9649C22.8477 49.9564 23.1515 50.004 23.3663 50.0523C23.4202 50.0638 23.4687 50.0757 23.5109 50.0874C23.5534 50.0983 23.5897 50.1081 23.6191 50.1177C23.646 50.1262 23.6682 50.1333 23.6867 50.1393C23.7023 50.1445 23.7102 50.1476 23.7099 50.1484Z" fill="black"/>
<path d="M22.494 49.6612C22.4963 49.616 22.4834 49.5702 22.458 49.5329C22.4415 49.5088 22.411 49.4865 22.3854 49.5003C22.3711 49.5081 22.3638 49.5254 22.3638 49.5417C22.3638 49.5579 22.3696 49.5737 22.3756 49.5888C22.4105 49.676 22.4566 49.7586 22.5124 49.8341C22.5152 49.838 22.5185 49.8421 22.5232 49.8429C22.531 49.8444 22.5371 49.8368 22.5413 49.8302C22.5826 49.7641 22.6256 49.6927 22.6226 49.6147C22.6216 49.5881 22.6113 49.5574 22.5859 49.5498C22.5589 49.5417 22.532 49.5651 22.5199 49.5906C22.5078 49.6162 22.5038 49.6456 22.4878 49.669" fill="#F5F5F5"/>
<path d="M25.39 50.4656C25.3758 50.2747 25.2714 50.1019 25.1494 49.9543C24.7555 49.4782 24.1758 49.2035 23.6845 48.8288C23.4956 48.6848 23.3065 48.5191 23.0723 48.4784C22.8648 48.4424 22.6388 48.5199 22.5044 48.6821C22.3699 48.8443 22.3364 49.0863 22.4302 49.2749C22.5273 49.4704 22.7325 49.584 22.9257 49.6856C23.5757 50.0279 24.2258 50.37 24.8757 50.7123L25.1252 50.9299C25.3056 50.8653 25.4041 50.6565 25.39 50.4656Z" fill="white"/>
<path d="M25.39 50.4653C25.39 50.4653 25.4011 50.5171 25.3827 50.6136C25.3727 50.6612 25.3536 50.7198 25.3155 50.7806C25.2768 50.84 25.2165 50.9034 25.1277 50.9359L25.1239 50.9373L25.1207 50.9346C25.047 50.871 24.9627 50.7982 24.8702 50.7182L24.8719 50.7193C24.546 50.5488 24.1284 50.3305 23.6491 50.0799C23.4094 49.9541 23.1543 49.8201 22.8877 49.6802C22.7554 49.6093 22.617 49.5323 22.5091 49.4131C22.4558 49.3536 22.4124 49.2833 22.3879 49.2049C22.364 49.1267 22.3578 49.0429 22.3691 48.961C22.3885 48.8185 22.4617 48.684 22.572 48.5962C22.681 48.507 22.8185 48.4602 22.9539 48.4562C23.0906 48.4528 23.2212 48.4979 23.3329 48.5618C23.4456 48.6256 23.5442 48.7042 23.6407 48.7789C23.8324 48.9295 24.0268 49.056 24.2077 49.1759C24.389 49.2952 24.5572 49.4086 24.7034 49.522C24.9971 49.7472 25.1996 49.9763 25.2982 50.1594C25.3478 50.2507 25.3706 50.3292 25.3807 50.3827C25.3908 50.4365 25.39 50.4653 25.39 50.4653C25.3895 50.4653 25.3883 50.4584 25.3865 50.4446C25.3848 50.4308 25.3814 50.4104 25.3755 50.384C25.3638 50.3314 25.3397 50.2544 25.2891 50.1647C25.1886 49.9853 24.9854 49.7595 24.6918 49.5374C24.5454 49.4253 24.3772 49.3135 24.1955 49.1948C24.014 49.0758 23.8185 48.9494 23.6254 48.7987C23.5288 48.7242 23.4307 48.6465 23.3205 48.5844C23.2111 48.5221 23.0854 48.4793 22.9549 48.4828C22.8251 48.4868 22.6933 48.5321 22.5894 48.6171C22.4845 48.7008 22.4151 48.8282 22.3963 48.9647C22.3856 49.0429 22.3915 49.1226 22.4141 49.1968C22.4373 49.2708 22.4783 49.3377 22.5295 49.395C22.6331 49.5095 22.7687 49.5859 22.9005 49.6566C23.1667 49.7972 23.4216 49.9318 23.6609 50.0581C24.1388 50.3115 24.5552 50.5321 24.8802 50.7042L24.881 50.7047L24.8817 50.7054C24.9735 50.7862 25.0572 50.8599 25.1302 50.9242L25.1234 50.9228C25.2089 50.8925 25.2681 50.832 25.3068 50.7746C25.345 50.7158 25.3649 50.6586 25.3759 50.6119C25.3868 50.5648 25.3885 50.5278 25.3898 50.503C25.3898 50.4914 25.3898 50.4823 25.3898 50.4748C25.3895 50.4685 25.39 50.4653 25.39 50.4653Z" fill="#263238"/>
<path d="M22.6376 49.4025C22.6368 49.3973 22.6944 49.3927 22.777 49.3552C22.8587 49.319 22.9649 49.2426 23.0305 49.1214C23.0954 49.0001 23.1006 48.8693 23.0858 48.7811C23.0715 48.6917 23.0436 48.6409 23.0483 48.6387C23.0498 48.6379 23.0581 48.6497 23.0697 48.6731C23.0813 48.6963 23.0949 48.7318 23.1047 48.7777C23.125 48.868 23.1231 49.0059 23.0544 49.1344C22.9852 49.2625 22.8711 49.3401 22.7845 49.3729C22.7408 49.3899 22.7038 49.3982 22.6779 49.4013C22.6522 49.4045 22.6377 49.404 22.6376 49.4025Z" fill="black"/>
<path d="M28.0646 50.6783C27.9969 50.7024 27.9227 50.6669 27.8986 50.5993C27.8745 50.5316 27.91 50.4574 27.9776 50.4333C28.0453 50.4092 28.1195 50.4448 28.1436 50.5123C28.1677 50.5799 28.1323 50.6543 28.0646 50.6783Z" fill="#263238"/>
<path d="M28.2963 51.3346C28.2286 51.3587 28.1542 51.3231 28.1303 51.2556C28.1063 51.1878 28.1418 51.1136 28.2094 51.0896C28.2771 51.0655 28.3513 51.101 28.3754 51.1686C28.3994 51.2363 28.3641 51.3105 28.2963 51.3346Z" fill="#263238"/>
<path d="M26.2949 51.6378C26.2942 51.6361 26.3097 51.6275 26.3382 51.6136C26.3668 51.5996 26.4088 51.5804 26.4609 51.5576C26.5653 51.512 26.711 51.4527 26.8742 51.393C27.0376 51.3334 27.1873 51.2847 27.2964 51.2523C27.351 51.2361 27.3953 51.2238 27.4262 51.216C27.457 51.2082 27.4743 51.2047 27.475 51.2065C27.4761 51.2102 27.4097 51.2336 27.3022 51.2706C27.1948 51.3076 27.0464 51.3591 26.8835 51.4185C26.7207 51.4781 26.5743 51.5344 26.4682 51.5754C26.3623 51.6164 26.2965 51.6413 26.2949 51.6378Z" fill="black"/>
<path d="M29.2975 52.3349C29.297 52.3348 29.2973 52.3298 29.2985 52.3198C29.2998 52.3084 29.3016 52.2941 29.3039 52.276C29.3097 52.2376 29.3162 52.1809 29.3238 52.1078C29.3383 51.9617 29.3501 51.7484 29.3298 51.4867C29.3089 51.2254 29.2516 50.9151 29.1285 50.5908C29.0085 50.2664 28.8059 49.9326 28.5141 49.659C28.3679 49.5232 28.2078 49.409 28.0403 49.3232C27.8727 49.238 27.6987 49.1808 27.5286 49.1497C27.1876 49.0871 26.8692 49.1212 26.6187 49.1945C26.4937 49.2335 26.3847 49.2808 26.2939 49.3316C26.2489 49.3575 26.2082 49.3841 26.1713 49.4088C26.1363 49.4364 26.103 49.4598 26.0752 49.4839C26.0485 49.5086 26.0246 49.5305 26.0035 49.5499C25.9833 49.5695 25.9683 49.5884 25.955 49.6024C25.9428 49.6157 25.933 49.6265 25.9252 49.6348C25.9184 49.6419 25.9145 49.6455 25.9142 49.6452C25.9139 49.6449 25.9169 49.6407 25.923 49.6329C25.9303 49.624 25.9394 49.6127 25.9509 49.5987C25.9637 49.5841 25.978 49.5645 25.9977 49.5443C26.0183 49.5242 26.0419 49.5015 26.0681 49.4759C26.0955 49.4512 26.1287 49.4268 26.1635 49.3984C26.2004 49.3728 26.2411 49.3453 26.2862 49.3184C26.3773 49.2659 26.4869 49.2168 26.6131 49.1761C26.8656 49.0996 27.1873 49.0632 27.533 49.1251C27.7053 49.1559 27.8821 49.2133 28.0525 49.2994C28.2224 49.3861 28.3846 49.5016 28.5327 49.6391C28.8282 49.9158 29.0322 50.2543 29.152 50.5818C29.275 50.9093 29.3307 51.2222 29.3492 51.4852C29.367 51.7488 29.3522 51.9627 29.3346 52.109C29.3253 52.1822 29.3172 52.2388 29.3096 52.2768C29.3063 52.2946 29.3036 52.3089 29.3014 52.3201C29.2991 52.3301 29.2978 52.3351 29.2975 52.3349Z" fill="black"/>
<path d="M27.6976 50.8089C27.6801 50.7851 27.6554 50.7596 27.6267 50.7655C27.6036 50.7703 27.59 50.7936 27.5796 50.8147C27.5327 50.9098 27.4941 51.009 27.4642 51.1108C27.4542 51.1447 27.4453 51.1815 27.4574 51.2147C27.4665 51.2398 27.4863 51.2592 27.5063 51.2768C27.5998 51.3591 27.7099 51.4226 27.8279 51.4626C27.8699 51.4768 27.9124 51.4406 27.9051 51.397C27.8719 51.1998 27.803 50.9526 27.6976 50.8089Z" fill="#E83F93"/>
<path d="M20.74 53.0964C20.7393 53.0971 20.73 53.087 20.7129 53.0674C20.6958 53.0478 20.6708 53.0187 20.6416 52.9789C20.5823 52.9002 20.5018 52.7807 20.4279 52.6195C20.3541 52.4591 20.2891 52.2546 20.2714 52.0199C20.2637 51.9027 20.2687 51.7785 20.2923 51.6527C20.3147 51.5269 20.3547 51.4001 20.4065 51.2752C20.5109 51.0254 20.6623 50.8093 20.8359 50.6509C21.0079 50.493 21.1758 50.3637 21.3291 50.2751C21.482 50.1854 21.6163 50.1332 21.7108 50.1043C21.7581 50.0898 21.7951 50.08 21.8207 50.0749C21.8461 50.0692 21.8593 50.0666 21.8597 50.0676C21.8605 50.0706 21.8071 50.0822 21.7143 50.1144C21.6215 50.1463 21.4893 50.2007 21.3393 50.2917C21.1885 50.3817 21.0235 50.5115 20.8532 50.6695C20.6834 50.8262 20.5348 51.0395 20.4319 51.286C20.3278 51.5322 20.2802 51.7875 20.2966 52.0186C20.3126 52.2495 20.3748 52.452 20.4457 52.6119C20.5166 52.7724 20.5939 52.8926 20.6504 52.9729C20.7065 53.0533 20.7423 53.0946 20.74 53.0964Z" fill="black"/>
<path d="M21.7427 51.5443C21.7428 51.5489 21.6552 51.5512 21.5152 51.5677C21.3755 51.5839 21.1832 51.6183 20.9784 51.6831C20.7737 51.7485 20.5969 51.8313 20.4734 51.8989C20.3498 51.9663 20.2769 52.0149 20.2744 52.0111C20.2734 52.0096 20.2907 51.996 20.3229 51.9729C20.3549 51.9495 20.403 51.9181 20.4641 51.8821C20.5861 51.8097 20.7634 51.7231 20.9703 51.6572C21.1771 51.5916 21.372 51.56 21.5134 51.5486C21.5841 51.5428 21.6416 51.5405 21.6811 51.5411C21.7208 51.5413 21.7427 51.5423 21.7427 51.5443Z" fill="black"/>
<path d="M29.2063 49.4669C29.2131 49.4702 29.1509 49.6123 29.0672 49.7841C28.9837 49.9561 28.9105 50.0927 28.9037 50.0895C28.8969 50.0862 28.9591 49.9443 29.0426 49.7723C29.1263 49.6003 29.1995 49.4637 29.2063 49.4669Z" fill="black"/>
<path d="M25.5773 52.6151C25.5758 52.6162 25.5655 52.6051 25.5479 52.584C25.5301 52.5631 25.5067 52.5311 25.48 52.4899C25.4265 52.4077 25.364 52.2857 25.3211 52.1418C25.2786 51.9977 25.2644 51.8613 25.2644 51.7633C25.2642 51.7144 25.2663 51.6747 25.2698 51.6475C25.273 51.6202 25.2756 51.6053 25.2776 51.6055C25.2821 51.6058 25.2786 51.6661 25.2836 51.7628C25.2884 51.8594 25.3054 51.9926 25.3472 52.1342C25.3893 52.2756 25.4478 52.3965 25.4964 52.48C25.5449 52.5636 25.5809 52.6123 25.5773 52.6151Z" fill="black"/>
<path d="M18.6316 51.8047C18.6268 51.806 18.6117 51.7433 18.5672 51.6505C18.5236 51.5579 18.4479 51.4355 18.3337 51.3283C18.2201 51.2211 18.094 51.1485 17.9939 51.1303C17.8931 51.1097 17.8315 51.1404 17.8305 51.1347C17.83 51.1336 17.8438 51.1244 17.8725 51.1166C17.9009 51.1085 17.9446 51.1035 17.9973 51.1113C18.1038 51.1258 18.2364 51.1986 18.3526 51.3085C18.4698 51.4186 18.5451 51.5463 18.585 51.6427C18.6056 51.6908 18.6172 51.7317 18.6247 51.7599C18.6308 51.7884 18.6335 51.8042 18.6316 51.8047Z" fill="black"/>
<path d="M23.3536 54.6883C23.499 54.6382 23.6285 54.551 23.7543 54.4626C24.2417 54.1199 24.7055 53.7421 25.1253 53.3193C25.2652 53.1784 25.4042 53.0262 25.4672 52.8379C25.5303 52.6495 25.4978 52.4153 25.3404 52.2939L24.7581 52.3776C24.2739 52.7187 23.2491 53.4098 22.7649 53.7509C22.6784 53.8118 22.5875 53.8782 22.5488 53.9767C22.5036 54.0916 22.541 54.2222 22.5933 54.3341C22.6607 54.4778 22.7594 54.6156 22.9034 54.683C23.0426 54.7481 23.2081 54.7385 23.3536 54.6883Z" fill="white"/>
<path d="M23.5345 54.4469C23.5292 54.447 23.5343 54.3815 23.5056 54.2829C23.4782 54.1856 23.4077 54.0541 23.2792 53.9656C23.1502 53.8777 23.0021 53.8594 22.9015 53.8689C22.7993 53.8777 22.74 53.9062 22.7382 53.9011C22.7375 53.8996 22.7515 53.8913 22.7787 53.8801C22.8059 53.8689 22.8471 53.8566 22.8994 53.8496C23.0028 53.8348 23.1585 53.8503 23.2944 53.9431C23.4299 54.0365 23.5006 54.1761 23.5242 54.2779C23.5366 54.3293 23.54 54.3722 23.5393 54.4016C23.5388 54.4309 23.536 54.447 23.5345 54.4469Z" fill="black"/>
<path d="M41.9505 59.1898L41.9261 58.2881C41.9261 58.2881 44.5943 58.4108 44.579 58.44C44.5637 58.4692 44.2807 59.8155 44.2807 59.8155L42.8282 60.2876L41.9505 59.1898Z" fill="#E0E0E0"/>
<path d="M41.6517 60.5317C41.6748 60.7395 44.0378 62.8442 44.6993 63.4048C44.8032 63.493 44.9443 63.5286 45.0796 63.5021C45.3212 63.4548 45.4644 63.2257 45.3919 63.0029L44.363 59.76C44.3668 59.7143 44.3169 59.5896 44.4216 59.3257C44.0385 59.4406 42.7885 59.3086 41.9372 58.9414L41.8581 59.455L41.6155 60.2221C41.6155 60.2221 41.6174 60.4173 41.6517 60.5317Z" fill="#455A64"/>
<path d="M44.0282 61.4088C44.0466 61.4231 44.1688 61.2698 44.38 61.1717C44.5893 61.0698 44.7852 61.0716 44.7858 61.0484C44.7915 61.0288 44.5777 60.9895 44.3463 61.101C44.1137 61.2099 44.0094 61.4006 44.0282 61.4088Z" fill="#263238"/>
<path d="M43.8801 60.983C43.8985 60.9973 44.0207 60.8441 44.2319 60.7459C44.4412 60.644 44.6371 60.6458 44.6377 60.6226C44.6434 60.603 44.4296 60.5637 44.1982 60.6752C43.9656 60.7843 43.8612 60.975 43.8801 60.983Z" fill="#263238"/>
<path d="M45.1779 63.4704C44.9956 63.5764 44.7933 63.4963 44.6867 63.4051C42.8541 61.8383 41.7645 60.8778 41.5096 60.4815L41.6486 60.1182L45.1779 63.4704Z" fill="#E0E0E0"/>
<path d="M43.7164 60.5543C43.7349 60.5686 43.857 60.4154 44.0682 60.3172C44.2775 60.2153 44.4734 60.2172 44.4741 60.1939C44.4797 60.1743 44.2659 60.135 44.0345 60.2464C43.8021 60.3556 43.6977 60.5463 43.7164 60.5543Z" fill="#263238"/>
<path d="M46.2971 59.1898L46.2725 58.2881C46.2725 58.2881 48.9406 58.4108 48.9254 58.44C48.9101 58.4692 48.6271 59.8155 48.6271 59.8155L47.1746 60.2876L46.2971 59.1898Z" fill="#E0E0E0"/>
<path d="M45.9983 60.5317C46.0214 60.7395 48.3844 62.8442 49.0459 63.4048C49.1498 63.493 49.2909 63.5286 49.4262 63.5021C49.6677 63.4548 49.8111 63.2257 49.7384 63.0029L48.7096 59.76C48.7134 59.7143 48.6634 59.5896 48.7682 59.3257C48.385 59.4406 47.1351 59.3086 46.2838 58.9414L46.2046 59.455L45.9621 60.2221C45.9621 60.2221 45.9639 60.4173 45.9983 60.5317Z" fill="#455A64"/>
<path d="M48.3747 61.4088C48.3931 61.4231 48.5153 61.2698 48.7263 61.1717C48.9356 61.0698 49.1315 61.0716 49.1322 61.0484C49.1378 61.0288 48.924 60.9895 48.6926 61.101C48.4604 61.2099 48.3559 61.4006 48.3747 61.4088Z" fill="#263238"/>
<path d="M48.2267 60.983C48.2451 60.9973 48.3673 60.8441 48.5783 60.7459C48.7876 60.644 48.9835 60.6458 48.9841 60.6226C48.9898 60.603 48.776 60.5637 48.5446 60.6752C48.3122 60.7843 48.2079 60.975 48.2267 60.983Z" fill="#263238"/>
<path d="M49.5245 63.4704C49.3422 63.5764 49.1398 63.4963 49.0333 63.4051C47.2005 61.8383 46.111 60.8778 45.856 60.4815L45.995 60.1182L49.5245 63.4704Z" fill="#E0E0E0"/>
<path d="M48.063 60.5543C48.0814 60.5686 48.2036 60.4154 48.4146 60.3172C48.6239 60.2153 48.8198 60.2172 48.8204 60.1939C48.8261 60.1743 48.6123 60.135 48.3809 60.2464C48.1486 60.3556 48.0442 60.5463 48.063 60.5543Z" fill="#263238"/>
<path d="M38.2663 38.8505C38.2937 38.1201 38.3211 37.3897 38.3483 36.6593C38.3898 35.5515 38.431 34.0511 38.8435 33.0407C39.4516 31.5514 41.4554 30.7768 43.0035 30.9328C44.4113 31.0746 45.1693 31.4504 45.8251 32.7846C46.481 34.1187 46.6143 36.4374 46.6065 37.9249C46.6053 38.1371 46.5966 38.364 46.4782 38.5325C46.3532 38.7104 46.1359 38.7817 45.9329 38.8427C44.9472 39.1397 43.9613 39.4367 42.9756 39.7335L41.1768 39.4581C40.4306 39.7232 39.6134 39.7763 38.8322 39.6103C38.65 39.5716 38.4528 39.5091 38.3482 39.3454C38.257 39.2031 38.2599 39.0202 38.2663 38.8505Z" fill="#263238"/>
<path d="M45.49 33.4908C45.2455 32.4073 43.9215 31.5079 42.8797 31.8027L40.8402 32.5713C40.096 32.8517 39.6608 33.6463 39.8128 34.4471L40.3588 35.6377L41.2153 40.8097L41.0507 40.9032C41.0507 40.9032 41.7273 43.2061 43.6356 42.7451C45.3499 42.331 44.5949 40.286 44.5949 40.2853L44.3519 38.929C44.3519 38.929 46.0557 38.5418 46.0416 36.669C46.0345 35.7379 45.7618 34.6948 45.49 33.4908Z" fill="#FFBF9D"/>
<path d="M45.406 35.1646C45.4302 35.2876 45.3492 35.4097 45.2249 35.4378C45.1009 35.4659 44.9804 35.3893 44.9561 35.2665C44.9319 35.1437 45.0129 35.0213 45.1369 34.9931C45.2612 34.965 45.3818 35.0417 45.406 35.1646Z" fill="#263238"/>
<path d="M45.3457 34.5559C45.324 34.5874 45.1553 34.4898 44.9367 34.5218C44.7179 34.5506 44.5717 34.692 44.5446 34.6673C44.5315 34.6565 44.5511 34.6023 44.6143 34.5388C44.6766 34.4755 44.7877 34.4068 44.9239 34.3879C45.0602 34.3691 45.1812 34.4053 45.2536 34.4498C45.3278 34.4944 45.3567 34.5416 45.3457 34.5559Z" fill="#263238"/>
<path d="M43.3664 35.5357C43.3906 35.6585 43.3094 35.7808 43.1853 35.8089C43.0611 35.8369 42.9408 35.7604 42.9165 35.6376C42.8923 35.5147 42.9733 35.3924 43.0973 35.3642C43.2215 35.3361 43.342 35.413 43.3664 35.5357Z" fill="#263238"/>
<path d="M43.0952 34.8733C43.0734 34.9048 42.9047 34.8072 42.6861 34.8392C42.4673 34.8679 42.3213 35.0094 42.294 34.9846C42.2809 34.9738 42.3003 34.9197 42.3638 34.8562C42.4262 34.7929 42.5371 34.7242 42.6735 34.7053C42.8098 34.6865 42.9308 34.7227 43.0032 34.7672C43.0771 34.8118 43.1059 34.859 43.0952 34.8733Z" fill="#263238"/>
<path d="M44.0875 36.4783C44.0847 36.4675 44.2334 36.4192 44.4758 36.3498C44.5373 36.3334 44.595 36.313 44.6004 36.2771C44.6099 36.2386 44.5757 36.1898 44.5369 36.1375C44.4603 36.0278 44.3801 35.9129 44.2962 35.7926C44.2065 35.6674 43.7497 34.9523 43.7347 34.8782C43.761 34.8653 44.0548 35.2537 44.3909 35.7459C44.4723 35.8676 44.5501 35.9835 44.6243 36.0945C44.6564 36.1466 44.7065 36.2034 44.6858 36.2836C44.6745 36.3238 44.6326 36.359 44.594 36.3747C44.5554 36.3917 44.5204 36.3985 44.4897 36.4054C44.2437 36.4607 44.0901 36.4893 44.0875 36.4783Z" fill="#263238"/>
<path d="M44.3653 38.9297C44.3653 38.9297 43.1844 39.2107 41.8835 38.6797C41.8835 38.6797 42.6897 39.8802 44.4377 39.4089L44.3653 38.9297Z" fill="#F584BC"/>
<path d="M43.0571 34.2377C43.0415 34.3202 42.8214 34.2981 42.5692 34.3592C42.3159 34.4135 42.1174 34.531 42.0782 34.461C42.0606 34.4274 42.091 34.3486 42.1685 34.2639C42.2454 34.1796 42.3717 34.0954 42.5233 34.0606C42.6748 34.0262 42.8176 34.049 42.9143 34.0938C43.0116 34.1386 43.0634 34.1987 43.0571 34.2377Z" fill="#263238"/>
<path d="M45.2896 33.7598C45.2609 33.8377 45.07 33.8115 44.8594 33.8604C44.6469 33.9006 44.4824 34.0012 44.4249 33.9416C44.399 33.9121 44.4112 33.8384 44.4739 33.7559C44.5355 33.6738 44.6514 33.5908 44.7968 33.5601C44.9422 33.5298 45.0815 33.5593 45.1706 33.6094C45.2609 33.6597 45.3016 33.7225 45.2896 33.7598Z" fill="#263238"/>
<path d="M39.7871 35.1474C39.6963 34.7087 39.6619 34.5497 39.6699 34.1015C39.6778 33.6533 39.8893 33.1412 40.1709 32.7995C40.3956 32.527 40.7587 32.1638 41.0781 32.0222C41.5797 31.8001 41.8249 31.6175 42.8533 31.6379C43.2882 31.6465 43.3435 31.5706 43.7598 31.6968L44.0518 31.7971C43.9278 32.6066 41.7528 34.6992 40.9434 35.1343C40.9476 35.424 40.9655 35.631 40.9373 35.9193C40.9252 36.0442 40.8948 36.1745 40.8091 36.2638C40.7014 36.376 40.5244 36.3961 40.3805 36.3415C40.2364 36.2869 40.187 36.1971 40.101 36.0661C39.9204 35.7905 39.8543 35.4723 39.7871 35.1474Z" fill="#263238"/>
<path d="M40.3417 35.7376C40.3417 35.7376 39.2152 35.4985 39.4381 36.6054C39.6609 37.7123 40.6953 37.2565 40.6908 37.2243C40.6861 37.1921 40.3417 35.7376 40.3417 35.7376Z" fill="#FFBF9D"/>
<path d="M40.2776 36.8744C40.2722 36.8719 40.2615 36.8918 40.233 36.9134C40.2051 36.9345 40.1538 36.9557 40.0935 36.9459C39.9712 36.927 39.8381 36.7615 39.7927 36.5631C39.7697 36.4629 39.771 36.3626 39.7898 36.276C39.8062 36.188 39.8459 36.1207 39.901 36.0983C39.9553 36.0728 40.0029 36.0995 40.0222 36.1279C40.0427 36.1558 40.0404 36.1793 40.0464 36.18C40.05 36.1822 40.0658 36.1566 40.0479 36.1128C40.0391 36.0917 40.0212 36.0683 39.9916 36.0523C39.9614 36.0362 39.9212 36.0333 39.8822 36.046C39.8004 36.0694 39.7416 36.1637 39.721 36.259C39.696 36.3556 39.6923 36.4687 39.7182 36.5812C39.77 36.8028 39.9231 36.9883 40.0879 37.0017C40.1676 37.006 40.226 36.9693 40.2534 36.9363C40.2811 36.9016 40.2818 36.8755 40.2776 36.8744Z" fill="#F584BC"/>
<path d="M44.0388 37.0387C44.0426 37.0478 43.9952 37.0812 43.9044 37.0971C43.815 37.1134 43.6801 37.1049 43.5549 37.0336C43.4299 36.9618 43.3541 36.8498 43.3229 36.7646C43.2905 36.6783 43.2951 36.6204 43.3049 36.6192C43.317 36.6169 43.3328 36.6685 43.3748 36.7399C43.4158 36.8111 43.4885 36.9017 43.5954 36.963C43.7023 37.0239 43.8174 37.0405 43.8995 37.0399C43.982 37.0397 44.0347 37.0271 44.0388 37.0387Z" fill="#263238"/>
<path d="M41.3431 34.5596C40.9673 36.1943 41.168 37.9554 41.9017 39.4639C41.7131 39.4275 41.5198 39.469 41.328 39.4816C41.1365 39.4941 40.9246 39.469 40.7908 39.3314C40.674 39.2112 40.6436 39.0336 40.6204 38.8676C40.4351 37.5418 40.3546 36.2015 40.38 34.863" fill="#263238"/>
<path d="M41.3281 39.4814C41.3302 39.4805 41.3221 39.449 41.3048 39.3896C41.2849 39.3243 41.2588 39.2384 41.2261 39.1311C41.1529 38.9007 41.0508 38.5792 40.9255 38.1849C40.8121 37.7844 40.7514 37.2869 40.6981 36.7364C40.6468 36.185 40.6091 35.5767 40.5837 34.9378C40.5812 34.8679 40.5787 34.7985 40.5766 34.7341L40.5585 34.7645C41.1126 34.4831 41.5887 34.1277 41.9796 33.7658C42.3722 33.4046 42.6869 33.0429 42.9383 32.7315C43.1894 32.4197 43.3795 32.1586 43.508 31.9765C43.5727 31.8859 43.6207 31.814 43.6536 31.7655C43.6861 31.7169 43.7022 31.6907 43.7005 31.6895C43.6987 31.6882 43.6791 31.7119 43.6431 31.7581C43.6038 31.8097 43.5523 31.8773 43.4879 31.9617C43.3533 32.139 43.1579 32.3955 42.9031 32.7024C42.6481 33.009 42.3312 33.3656 41.9393 33.7215C41.549 34.0781 41.0766 34.4278 40.5289 34.7056L40.51 34.7152L40.5107 34.7359C40.513 34.8007 40.5153 34.8704 40.5178 34.9405C40.5432 35.5805 40.5829 36.1896 40.6377 36.7424C40.6948 37.2945 40.7598 37.7925 40.881 38.1989C41.0148 38.591 41.1239 38.9108 41.2021 39.1399C41.2396 39.2457 41.2698 39.3302 41.2925 39.3944C41.3138 39.4522 41.3259 39.4822 41.3281 39.4814Z" fill="#455A64"/>
<path d="M39.9851 34.7461C40.0058 34.686 40.0631 34.6442 40.1238 34.6256C40.1848 34.607 40.2495 34.6078 40.3131 34.6088C40.6097 34.6136 40.9122 34.6193 41.1926 34.7162C41.3602 34.7523 41.3302 34.9083 41.3114 34.9558C41.2927 35.0032 41.2458 35.0351 41.1967 35.0489C41.1476 35.0625 41.0956 35.0608 41.0445 35.059C40.8212 35.0511 40.5979 35.0431 40.3745 35.0351C40.2799 35.0316 40.1813 35.0273 40.0983 34.9817C40.0153 34.9358 39.9542 34.8356 39.9851 34.7461Z" fill="#E83F93"/>
<g opacity="0.3">
<path d="M42.5092 36.2714C42.5462 36.2018 42.6315 36.1656 42.7047 36.1369C42.7665 36.1284 42.8289 36.1198 42.8908 36.1263C42.9527 36.1328 43.0153 36.156 43.0573 36.202C43.0993 36.248 43.1164 36.3193 43.0883 36.375C43.0661 36.4191 43.0206 36.4467 42.9755 36.4668C42.9001 36.5004 42.8187 36.5205 42.7364 36.5257C42.6615 36.5303 42.5787 36.5194 42.5274 36.4646C42.474 36.4073 42.4723 36.3408 42.5092 36.2714Z" fill="#F584BC"/>
</g>
<path d="M41.076 39.9424C40.9009 39.9424 39.0014 40.6303 38.5809 41.2217C38.1604 41.8132 38.2731 49.2072 38.2731 49.2072L46.6118 48.9444L46.3665 44.312L46.9971 41.7823C46.9971 41.7823 46.1211 40.4681 44.5094 40.1725C44.5094 40.1725 44.194 40.6653 43.1079 40.4352C42.0219 40.2052 41.076 39.9424 41.076 39.9424Z" fill="#E0E0E0"/>
<path d="M49.4267 49.5263L50.1846 52.9036L47.8593 52.7321L46.7111 49.1299L49.4267 49.5263Z" fill="#FFBF9D"/>
<path d="M46.9973 41.7822C47.8708 43.782 48.7634 46.694 49.6601 49.7985L48.1184 50.3953L46.3666 48.7144L45.9462 43.5236L46.9973 41.7822Z" fill="#E0E0E0"/>
<path d="M52.0234 53.4854C52.0234 53.4854 52.1052 53.3423 51.8803 53.1992C51.6554 53.0561 51.4713 52.9539 51.4713 52.9539C51.4713 52.9539 51.5531 52.4426 51.2259 52.4222C50.8987 52.4017 49.7741 52.4222 49.7741 52.4222L48.0769 52.7133C48.0769 52.7133 48.0165 53.1219 48.5882 53.3833C49.8747 53.9716 49.8828 53.6285 49.8828 53.6285L49.6924 53.3425C49.6924 53.3425 50.04 53.6697 50.265 53.6492C50.4899 53.6288 50.6536 53.4039 50.6536 53.4039C50.6536 53.4039 50.674 53.7329 50.9603 53.6502C51.2467 53.5676 51.3079 53.2608 51.3079 53.2608C51.3079 53.2608 51.4304 53.6489 52.0234 53.4854Z" fill="#FFBF9D"/>
<path d="M37.8682 49.2127C37.9033 48.8818 37.4815 51.5285 38.2178 52.491C38.9544 53.4535 39.7251 53.7241 41.5119 53.7241L41.4794 58.9301L44.8477 59.0327C44.8477 59.0327 45.471 54.5962 45.6462 53.1977C45.8213 51.7991 46.3118 51.2976 44.2797 50.3003L43.7191 50.1149L43.649 48.8818L37.8682 49.2127Z" fill="#E83F93"/>
<path d="M42.0488 48.7827C42.0838 48.4518 41.662 51.0986 42.3984 52.061C43.1349 53.0235 43.9057 53.2941 45.6925 53.2941L45.7106 58.7092L49.4245 58.9472C49.7806 55.4023 49.6421 54.6383 49.835 53.0979C50.0101 51.6993 50.136 50.4203 48.4604 49.8705L46.6116 49.129L46.5804 48.2754L42.0488 48.7827Z" fill="#E83F93"/>
<path d="M37.9456 49.3334C38.0797 49.325 40.3349 48.6713 40.5038 48.1301C40.6727 47.5889 41.1519 44.1526 41.1519 44.1526L46.3394 43.9902L46.6347 49.0707L44.828 50.2677L37.9456 49.3334Z" fill="#E83F93"/>
<path d="M39.2824 40.6652C39.2824 40.6652 40.6107 41.7307 41.0604 42.6746C41.5103 43.6185 41.5103 44.6027 41.5103 44.6027H42.6668C42.6668 44.6027 42.3483 41.3931 40.0131 40.3076L39.2824 40.6652Z" fill="#E83F93"/>
<path d="M44.9221 40.167C45.3317 41.6643 45.4252 43.115 45.1249 44.5076H46.0311C46.3163 43.8645 45.979 40.8868 45.7874 40.5822C45.7702 40.5544 45.2823 40.3054 44.9221 40.167Z" fill="#E83F93"/>
<path d="M42.7433 49.9453C42.744 49.9395 42.8223 49.9423 42.9636 49.9538C43.1047 49.9657 43.309 49.9845 43.5598 50.0255C43.81 50.0675 44.1091 50.1312 44.4224 50.2625C44.733 50.3933 45.0626 50.5944 45.3138 50.9023C45.5666 51.2104 45.6858 51.5831 45.727 51.9182C45.769 52.2569 45.7368 52.5608 45.715 52.8128C45.6893 53.0653 45.6587 53.268 45.6362 53.4077C45.6133 53.5475 45.5975 53.6242 45.5917 53.6235C45.5857 53.6227 45.5902 53.5445 45.6028 53.4036C45.6151 53.2627 45.6363 53.0591 45.6541 52.8077C45.668 52.5565 45.6931 52.2549 45.648 51.9289C45.6036 51.6043 45.4868 51.2494 45.2467 50.9571C45.0079 50.6639 44.6918 50.4672 44.391 50.3359C44.0882 50.2044 43.7952 50.1351 43.5489 50.0859C43.3019 50.0376 43.0992 50.0096 42.9596 49.9873C42.8198 49.9656 42.7426 49.9513 42.7433 49.9453Z" fill="#263238"/>
<path d="M46.0044 49.6197C46.0077 49.6466 45.6372 49.6702 45.2415 49.875C44.8429 50.0744 44.6057 50.3599 44.586 50.3415C44.5667 50.3323 44.7842 50.0081 45.2023 49.798C45.6181 49.5837 46.0084 49.5988 46.0044 49.6197Z" fill="#263238"/>
<path d="M46.027 49.1424C46.0278 49.1484 45.9568 49.1628 45.8273 49.1841C45.698 49.2061 45.5098 49.2302 45.2765 49.2531C44.8101 49.2994 44.1607 49.3283 43.4454 49.291C42.7297 49.2526 42.0872 49.1554 41.628 49.0601C41.3984 49.0126 41.2138 48.9688 41.0875 48.9332C40.961 48.8984 40.892 48.8765 40.8935 48.8707C40.895 48.8649 40.9667 48.8758 41.0951 48.9004C41.2233 48.9258 41.4092 48.9605 41.6393 49C42.0993 49.0795 42.7389 49.1665 43.4499 49.2047C44.1607 49.2417 44.8059 49.2228 45.2717 49.1922C45.5046 49.1773 45.6932 49.1625 45.8233 49.1507C45.9536 49.1398 46.0262 49.1366 46.027 49.1424Z" fill="#263238"/>
<path d="M42.2116 44.4543C42.2116 44.56 42.1202 44.6458 42.0075 44.6458C41.8948 44.6458 41.8033 44.5602 41.8033 44.4543C41.8033 44.3485 41.8948 44.2627 42.0075 44.2627C42.1202 44.2629 42.2116 44.3485 42.2116 44.4543Z" fill="#263238"/>
<path d="M45.7874 44.3058C45.7874 44.4116 45.696 44.4974 45.5833 44.4974C45.4706 44.4974 45.3791 44.4116 45.3791 44.3058C45.3791 44.2001 45.4706 44.1143 45.5833 44.1143C45.6961 44.1143 45.7874 44.2001 45.7874 44.3058Z" fill="#263238"/>
<path d="M39.1068 53.676C39.1068 53.676 39.1886 53.5329 38.9637 53.3896C38.7387 53.2465 38.5547 53.1443 38.5547 53.1443C38.5547 53.1443 38.6365 52.633 38.3093 52.6126C37.9821 52.5922 36.8575 52.6126 36.8575 52.6126L35.1603 52.9038C35.1603 52.9038 35.0999 53.3123 35.6716 53.5737C36.9581 54.162 36.9662 53.8189 36.9662 53.8189L36.7758 53.5329C36.7758 53.5329 37.1234 53.8601 37.3483 53.8397C37.5733 53.8192 37.7368 53.5943 37.7368 53.5943C37.7368 53.5943 37.7572 53.9233 38.0435 53.8407C38.3299 53.758 38.3911 53.4512 38.3911 53.4512C38.3911 53.4512 38.5138 53.8395 39.1068 53.676Z" fill="#FFBF9D"/>
<path d="M35.9182 49.5263L35.1603 52.9036L37.4856 52.7321L38.6338 49.1299L35.9182 49.5263Z" fill="#FFBF9D"/>
<path d="M35.4191 49.7877C35.4191 49.7877 36.3014 46.7139 36.8526 44.8987C37.9034 41.4387 38.7128 41.0752 38.7128 41.0752C38.7128 41.0752 40.3707 42.8609 40.4422 44.0091C40.5136 45.1573 39.1214 49.2671 38.4067 50.3983L35.4191 49.7877Z" fill="#E0E0E0"/>
<path d="M40.5284 44.4024C40.534 44.4042 40.5122 44.491 40.4681 44.6462C40.4175 44.8162 40.3519 45.0365 40.273 45.3016C40.0969 45.8673 39.8624 46.6211 39.6029 47.4543C39.4781 47.8758 39.3683 48.2815 39.2511 48.6458C39.1348 49.0104 39.0123 49.3339 38.8894 49.5968C38.7673 49.8601 38.6467 50.0623 38.5581 50.1979C38.4665 50.3317 38.4109 50.4019 38.4065 50.3988C38.4012 50.395 38.4474 50.3184 38.5294 50.1802C38.6086 50.0402 38.7196 49.8356 38.8335 49.5718C38.9479 49.3083 39.0634 48.9858 39.175 48.6219C39.2873 48.2582 39.3944 47.8528 39.5199 47.4295C39.78 46.5863 40.0332 45.8313 40.2146 45.2828C40.3041 45.0212 40.3785 44.8036 40.4359 44.6359C40.49 44.4839 40.5225 44.4005 40.5284 44.4024Z" fill="#263238"/>
<path d="M40.6212 43.1216C40.6064 43.1259 40.5618 42.967 40.4432 42.7331C40.3866 42.6148 40.302 42.4833 40.2027 42.3422C40.0985 42.2044 39.973 42.0612 39.8265 41.926C39.5317 41.6558 39.2114 41.4785 38.9707 41.3752C38.7291 41.2723 38.5693 41.2328 38.5727 41.2182C38.5741 41.2124 38.6151 41.2174 38.6886 41.2313C38.7625 41.2438 38.8671 41.2735 38.9932 41.3185C39.2449 41.4091 39.5809 41.5834 39.8848 41.8621C40.0359 42.0016 40.1635 42.1511 40.2673 42.2955C40.366 42.4436 40.4474 42.5822 40.4983 42.7069C40.5521 42.8299 40.5868 42.9332 40.6028 43.0064C40.6202 43.0792 40.6268 43.1199 40.6212 43.1216Z" fill="#263238"/>
<path d="M68.106 74.8929L67.9924 80.0937L61.14 79.9934C61.1903 79.3759 64.7556 78.1865 64.7556 78.1865L64.6836 74.8516L68.106 74.8929Z" fill="#455A64"/>
<path d="M66.8791 77.9376C67.011 77.9738 67.1003 78.1159 67.0675 78.2421C67.0346 78.3682 66.8824 78.4552 66.7496 78.4212C66.6169 78.3872 66.5041 78.2197 66.5517 78.0978C66.5992 77.976 66.7841 77.883 66.9041 77.9461" fill="white"/>
<path d="M67.9926 80.1048L68.0073 79.5479L61.4142 79.689C61.4142 79.689 61.1079 79.8118 61.1404 80.015L67.9926 80.1048Z" fill="#263238"/>
<path d="M64.645 78.1517C64.6457 78.1834 64.8127 78.2002 64.9757 78.3041C65.1415 78.404 65.2242 78.5421 65.2552 78.5302C65.2861 78.5245 65.2394 78.3348 65.0397 78.2121C64.841 78.0879 64.6382 78.1226 64.645 78.1517Z" fill="#263238"/>
<path d="M63.9218 78.4224C63.9136 78.453 64.0577 78.5089 64.1691 78.6442C64.2848 78.7763 64.311 78.9212 64.3444 78.9204C64.3758 78.9259 64.402 78.7411 64.2601 78.5753C64.1195 78.4085 63.9229 78.3924 63.9218 78.4224Z" fill="#263238"/>
<path d="M63.5001 79.2288C63.5303 79.2359 63.5796 79.0787 63.4965 78.9044C63.4146 78.7294 63.2579 78.6589 63.2433 78.6849C63.2241 78.7107 63.324 78.805 63.3901 78.949C63.4596 79.0916 63.4669 79.2251 63.5001 79.2288Z" fill="#263238"/>
<path d="M64.7179 77.3903C64.7315 77.4193 64.8857 77.378 65.0746 77.3927C65.2638 77.404 65.4101 77.4661 65.428 77.4392C65.4478 77.4167 65.306 77.2976 65.0832 77.283C64.8605 77.2669 64.7018 77.3652 64.7179 77.3903Z" fill="#263238"/>
<path d="M71.5262 70.8457L74.661 75.123L69.0458 78.8335C68.7034 78.3052 70.8548 75.3685 70.8548 75.3685L68.7273 72.7059L71.5262 70.8457Z" fill="#455A64"/>
<path d="M72.4208 73.9911C72.5503 73.9473 72.7108 74.0132 72.7624 74.1336C72.814 74.2539 72.7447 74.4086 72.616 74.4546C72.4874 74.5004 72.292 74.4271 72.2551 74.3021C72.2181 74.1771 72.3101 73.9994 72.4467 73.9842" fill="white"/>
<path d="M74.6681 75.1314L74.3346 74.6719L69.0792 78.4343C69.0792 78.4343 68.9073 78.7032 69.0596 78.8499L74.6681 75.1314Z" fill="#263238"/>
<path d="M70.7437 75.4015C70.7638 75.4267 70.9095 75.3478 71.1063 75.342C71.3026 75.3312 71.4554 75.3975 71.4729 75.3706C71.4945 75.3488 71.3388 75.221 71.1009 75.2321C70.8631 75.2411 70.7203 75.3815 70.7437 75.4015Z" fill="#263238"/>
<path d="M70.3252 76.0208C70.3375 76.0501 70.4889 76.0157 70.6632 76.0637C70.839 76.1068 70.9502 76.2097 70.9766 76.1905C71.0055 76.1775 70.912 76.0134 70.6941 75.9576C70.477 75.9 70.3076 75.9958 70.3252 76.0208Z" fill="#263238"/>
<path d="M70.4839 76.9079C70.513 76.8969 70.4552 76.7424 70.2798 76.6471C70.105 76.5506 69.9341 76.5802 69.9386 76.6094C69.939 76.6409 70.0786 76.662 70.2213 76.7424C70.3661 76.8192 70.4549 76.9233 70.4839 76.9079Z" fill="#263238"/>
<path d="M70.3302 74.7442C70.3592 74.7602 70.4585 74.6415 70.6209 74.549C70.7812 74.4534 70.9382 74.4228 70.9361 74.3913C70.9381 74.3621 70.7493 74.344 70.5598 74.4554C70.3692 74.5654 70.3016 74.7328 70.3302 74.7442Z" fill="#263238"/>
<path d="M58.783 52.9605C58.6673 53.4827 58.3744 57.943 58.2014 60.2947C58.0284 62.6464 58.2414 63.8129 58.5098 64.3479C58.7784 64.883 69.3005 72.665 70.0636 74.4799L72.8442 72.4816C72.8442 72.4816 69.0664 65.5971 67.3928 64.3199C65.7192 63.0427 62.4858 61.8199 62.4858 61.8199L63.8157 48.9489L59.3574 48.5957L58.783 52.9605Z" fill="#263238"/>
<path d="M58.4404 48.0361C58.431 48.3405 57.672 56.0104 60.1597 61.6403C60.1597 61.6403 61.0274 63.404 61.165 64.1696C61.3026 64.9352 64.3613 77.6307 64.3613 77.6307L68.3425 77.6035C68.3425 77.6035 69.1748 71.3071 68.6433 67.6358C68.1117 63.9646 66.921 64.3582 66.9942 61.9988C67.0673 59.6393 67.8124 54.762 67.8124 54.762C67.8124 54.762 68.7226 53.4492 69.0991 50.8667C69.4049 48.7681 68.4263 46.4848 68.4263 46.4848L67.4421 44.7215L58.6821 44.0449L58.4404 48.0361Z" fill="#263238"/>
<path d="M58.4404 48.036C58.4404 48.036 58.4421 47.9475 58.4507 47.7747C58.46 47.6001 58.4738 47.3433 58.4919 47.0068C58.5306 46.3292 58.5877 45.3318 58.6612 44.0439L58.6624 44.0234L58.684 44.0251C60.8367 44.1881 63.8271 44.4147 67.4451 44.6886L67.4642 44.6901L67.4732 44.7062C67.7793 45.2532 68.1143 45.8518 68.4594 46.4684L68.4604 46.4703L68.4609 46.4716C68.7036 47.0762 68.8951 47.7173 69.0273 48.3896C69.1627 49.0605 69.2275 49.7659 69.1816 50.4858C69.1108 51.2041 68.9643 51.927 68.757 52.6529C68.5417 53.3757 68.2733 54.1045 67.8493 54.7849L67.856 54.7681C67.6657 56.0442 67.4856 57.3662 67.3253 58.7275C67.2457 59.4085 67.1727 60.0994 67.1149 60.8001C67.0859 61.1503 67.0617 61.5031 67.0477 61.858C67.0358 62.0358 67.0442 62.2124 67.0421 62.3903C67.056 62.567 67.0598 62.7457 67.0954 62.9205C67.1501 63.273 67.2733 63.6131 67.4406 63.9381C67.6068 64.2638 67.7945 64.5865 67.9498 64.9262C68.2668 65.6043 68.463 66.3333 68.5983 67.073C68.8694 68.5571 68.8857 70.0922 68.8554 71.6367C68.7992 73.6772 68.6279 75.6763 68.39 77.6092L68.3852 77.6487L68.3427 77.6491C66.986 77.658 65.657 77.6668 64.3615 77.6755L64.3235 77.6758L64.315 77.6408C63.2936 73.3878 62.3403 69.4135 61.5028 65.84C61.4001 65.3928 61.2986 64.9521 61.1987 64.5178C61.1471 64.2988 61.1152 64.0812 61.0508 63.8742C60.9879 63.6654 60.9132 63.4607 60.8355 63.259C60.6773 62.8565 60.5057 62.4655 60.3297 62.0846C60.285 61.9896 60.2405 61.895 60.1964 61.8009C60.1499 61.7081 60.1063 61.6128 60.0707 61.516C59.9944 61.3241 59.9188 61.1339 59.844 60.9455C59.2631 59.4314 58.9389 57.9679 58.7205 56.6343C58.294 53.9604 58.2937 51.7942 58.3159 50.3173C58.352 48.8373 58.4404 48.036 58.4404 48.036C58.4404 48.036 58.4399 48.0863 58.4346 48.1847C58.4288 48.285 58.4204 48.4309 58.4091 48.6225C58.3858 49.0078 58.3621 49.5783 58.3486 50.3175C58.3365 51.7936 58.3463 53.9577 58.7802 56.6253C59.0022 57.9555 59.3299 59.4151 59.9114 60.9214C59.9862 61.1087 60.0618 61.2977 60.1381 61.4886C60.1738 61.5852 60.2166 61.6784 60.2638 61.772C60.3083 61.8663 60.3531 61.9611 60.3981 62.0562C60.5752 62.4378 60.7482 62.8294 60.9079 63.2338C60.9864 63.4365 61.0619 63.6423 61.1263 63.8541C61.1929 64.0671 61.2256 64.2879 61.2767 64.5022C61.3771 64.9361 61.4792 65.3765 61.5827 65.8232C62.4374 69.393 63.3891 73.3676 64.4073 77.6208L64.361 77.5861C65.6565 77.577 66.9855 77.5676 68.3422 77.5581L68.2949 77.5979C68.5316 75.6692 68.7026 73.6707 68.7585 71.6345C68.7887 70.0931 68.7723 68.5626 68.5034 67.0888C68.3689 66.3534 68.1749 65.632 67.8621 64.9625C67.7087 64.6267 67.523 64.307 67.3546 63.977C67.1852 63.6478 67.0575 63.2954 67.0017 62.9347C66.9655 62.7552 66.9617 62.5734 66.9476 62.3933C66.9498 62.2134 66.9415 62.0326 66.9536 61.8548C66.9677 61.4981 66.9923 61.1445 67.0216 60.7934C67.0799 60.0914 67.1536 59.3997 67.2338 58.7183C67.3956 57.3556 67.5771 56.0335 67.769 54.7565L67.7701 54.7485L67.7756 54.7397C68.1896 54.0769 68.4612 53.348 68.6748 52.632C68.8815 51.9126 69.0288 51.189 69.0998 50.4808C69.1461 49.7699 69.0835 49.0702 68.9501 48.4035C68.8204 47.7364 68.6302 47.0961 68.3916 46.4985L68.3931 46.5016C68.0494 45.8843 67.7157 45.285 67.4109 44.7374L67.439 44.7548C63.822 44.47 60.8322 44.2346 58.6801 44.0651L58.7029 44.0463C58.6206 45.3338 58.5568 46.3308 58.5135 47.0079C58.4907 47.3443 58.4735 47.6009 58.4615 47.7754C58.4496 47.9478 58.4404 48.036 58.4404 48.036Z" fill="#455A64"/>
<path d="M58.4934 21.5974L56.1857 19.415C56.4949 19.0057 56.3693 18.3715 55.9895 18.0266C55.6096 17.6816 55.0461 17.597 54.5429 17.6981C53.8149 17.8443 53.1719 18.3626 52.8741 19.0428C52.7133 19.4105 52.6328 19.8415 52.3242 20.0979C52.0528 20.3234 51.671 20.3546 51.3592 20.5197C50.9414 20.741 50.6818 21.1942 50.5994 21.6598C50.5171 22.1255 50.5906 22.6049 50.7033 23.0642C50.8068 23.4857 50.9411 23.9405 50.7712 24.3399C50.6057 24.7293 50.1972 24.9518 49.9341 25.2833C49.4391 25.9069 49.5887 26.937 50.2405 27.3941C50.4484 27.5399 50.7087 27.6475 50.8131 27.8789C50.9084 28.0902 50.8406 28.3354 50.8526 28.5669C50.8833 29.1629 51.5564 29.6325 52.1263 29.4557C52.414 29.3664 52.6746 29.1436 52.9744 29.175C53.272 29.2062 53.4787 29.4736 53.725 29.6434C54.2099 29.9774 54.9339 29.9006 55.3379 29.4726C55.5071 29.2935 55.6399 29.0525 55.8759 28.9818C56.1115 28.9112 56.3658 29.0397 56.6083 28.9987C56.9257 28.9451 57.1251 28.6219 57.2096 28.3111C57.2939 28.0005 57.3085 27.6662 57.4587 27.3815C57.6554 27.0089 58.0455 26.7887 58.3706 26.5206C59.088 25.9285 59.5316 25.017 59.5548 24.0871C59.5782 23.157 59.1805 22.2244 58.4934 21.5974Z" fill="#263238"/>
<path d="M60.698 28.1586L57.7235 21.0402C57.6097 20.6856 56.9135 20.0751 56.5505 20.1581L53.5603 20.4047C52.3653 20.6776 52.0848 22.3602 52.4081 23.5426C52.7674 24.8562 53.2579 26.446 53.7388 27.3532C54.7057 29.1777 56.3855 28.8795 56.3855 28.8795C56.3837 28.8729 56.9788 30.2547 56.9788 30.2547L58.4314 32.1446L60.698 28.1586Z" fill="#FFBF9D"/>
<path d="M53.5447 25.0778C53.5849 25.2101 53.7298 25.2851 53.8688 25.2458C54.0074 25.2064 54.0875 25.0677 54.0474 24.9354C54.0072 24.8032 53.8621 24.728 53.7235 24.7672C53.5847 24.8066 53.5046 24.9455 53.5447 25.0778Z" fill="#263238"/>
<path d="M53.0295 24.2444C53.0712 24.2663 53.2113 24.0633 53.4777 23.9728C53.7426 23.8787 53.9848 23.9488 54.0026 23.9063C54.0119 23.887 53.9606 23.8394 53.8543 23.8065C53.7494 23.7735 53.5861 23.7625 53.4204 23.82C53.2549 23.8777 53.1362 23.9864 53.0775 24.0764C53.0172 24.1672 53.0096 24.2351 53.0295 24.2444Z" fill="#263238"/>
<path d="M55.8093 24.2721C55.8495 24.4044 55.9944 24.4795 56.1334 24.4401C56.2718 24.4008 56.3521 24.262 56.312 24.1297C56.2718 23.9976 56.1267 23.9224 55.9881 23.9615C55.8493 24.0009 55.7691 24.14 55.8093 24.2721Z" fill="#263238"/>
<path d="M55.6636 23.3977C55.7054 23.4194 55.8457 23.2164 56.1119 23.1261C56.3767 23.032 56.6191 23.102 56.6368 23.0595C56.646 23.0403 56.5952 22.9926 56.4886 22.9599C56.3837 22.9269 56.2203 22.9158 56.0547 22.9732C55.8892 23.031 55.7706 23.1397 55.7117 23.2297C55.6516 23.3205 55.6437 23.3884 55.6636 23.3977Z" fill="#263238"/>
<path d="M55.3736 25.7035C55.3696 25.6878 55.1943 25.7159 54.9144 25.7735C54.844 25.7898 54.775 25.7982 54.7477 25.7557C54.7149 25.7121 54.7182 25.6291 54.7242 25.5386C54.7318 25.3522 54.7396 25.1568 54.7479 24.9521C54.7748 24.1193 54.7693 23.444 54.7358 23.4434C54.7023 23.4425 54.6533 24.1168 54.6264 24.9495C54.6214 25.1543 54.6164 25.3495 54.6121 25.5363C54.6128 25.6223 54.5985 25.725 54.6682 25.8152C54.7039 25.8597 54.7665 25.8794 54.8141 25.8763C54.8623 25.8748 54.9008 25.8623 54.9351 25.8527C55.2099 25.775 55.3777 25.7189 55.3736 25.7035Z" fill="#263238"/>
<path d="M56.3854 28.8796C56.3854 28.8796 57.595 28.5561 58.6162 27.3428C58.6162 27.3428 58.6249 28.9696 56.6321 29.4501L56.3854 28.8796Z" fill="#F584BC"/>
<path d="M55.1708 22.3414C55.2219 22.4049 55.4759 22.2795 55.8012 22.2103C56.1251 22.1344 56.4083 22.1396 56.4275 22.0604C56.4353 22.0231 56.3681 21.9699 56.2423 21.9347C56.1174 21.8994 55.9335 21.8881 55.7388 21.9314C55.5443 21.9751 55.3827 22.0637 55.2848 22.1489C55.186 22.2344 55.1477 22.3109 55.1708 22.3414Z" fill="#263238"/>
<path d="M52.8096 23.2956C52.8771 23.3401 53.0391 23.2144 53.2586 23.1359C53.4754 23.0497 53.6797 23.0371 53.7012 22.9591C53.7095 22.9219 53.6593 22.8714 53.5581 22.8421C53.4581 22.8125 53.3076 22.812 53.1577 22.8685C53.0078 22.9252 52.8952 23.0248 52.8398 23.1131C52.783 23.2019 52.7789 23.273 52.8096 23.2956Z" fill="#263238"/>
<path d="M50.971 23.6228C50.9527 23.3036 51.0143 22.9693 51.204 22.7118C51.3079 22.5707 51.4472 22.4564 51.5365 22.3055C51.7291 21.9794 51.6477 21.5679 51.7017 21.1931C51.7712 20.71 52.09 20.2698 52.5272 20.0532C52.8911 19.8729 53.3233 19.8404 53.6572 19.6093C53.904 19.4385 54.0758 19.1724 54.3323 19.0165C54.8318 18.7129 55.4762 18.9116 56.0099 19.15C56.1555 19.5343 55.9452 19.9066 55.7426 20.2642C55.5399 20.6217 55.1729 20.8817 54.7684 20.9542C54.4545 21.0105 54.077 20.9826 53.8813 21.2344C53.6754 21.4992 53.8154 21.9066 53.6553 22.2012C53.4264 22.6224 52.7842 22.5482 52.4015 22.8368C52.1061 23.0598 52.0174 23.4552 51.8967 23.8051C51.7761 24.155 51.5405 24.533 51.1713 24.5587C51.0804 24.2521 50.9892 23.9421 50.971 23.6228Z" fill="#263238"/>
<path d="M54.3995 20.484C54.6148 20.3248 55.0496 19.984 55.1005 19.7264C55.2113 19.1671 55.5902 18.6716 56.1065 18.5097C56.6228 18.3481 57.2579 18.5657 57.5613 19.061C58.1752 18.8364 58.9162 18.9973 59.4267 19.4657C59.4904 19.5243 59.5503 19.5874 59.6061 19.6543C59.9225 19.9183 60.1166 20.3255 60.1134 20.738C60.1116 20.987 60.0601 21.2824 60.2487 21.445C60.4406 21.6105 60.7311 21.509 60.9844 21.5024C61.4251 21.4906 61.8461 21.8445 61.9104 22.2808C61.9334 22.4373 61.9183 22.6078 62.0028 22.7416C62.0908 22.8809 62.26 22.939 62.4034 23.0198C62.7598 23.2205 62.9958 23.6189 63.001 24.0279C63.0061 24.4369 62.78 24.841 62.4288 25.0506C62.2689 25.1461 62.0803 25.2085 61.966 25.3554C61.835 25.5239 61.8372 25.7566 61.7769 25.9613C61.6612 26.3539 61.2787 26.6519 60.8697 26.668C60.7869 26.6711 60.7047 26.66 60.6242 26.6414C60.5691 26.8438 60.4291 27.0191 60.1209 27.1346L58.6843 23.0829C58.6777 23.1821 58.6329 23.2861 58.512 23.3654C57.9207 23.7534 57.3278 22.4576 57.3367 22.0427C57.0253 21.9227 56.7102 21.8007 56.4332 21.6038C56.1561 21.4069 55.73 20.7469 55.6468 20.409C55.4196 20.51 54.3051 20.554 54.3995 20.484Z" fill="#263238"/>
<path d="M58.6295 23.4767C58.4967 23.0599 58.9647 22.785 59.3961 22.8572C59.6328 22.8969 59.8666 23.0674 60.0113 23.5084C60.3973 24.6845 59.1368 24.8295 59.1237 24.7966C59.1156 24.776 58.7851 23.9648 58.6295 23.4767Z" fill="#FFBF9D"/>
<path d="M59.3369 24.2332C59.3408 24.2277 59.3621 24.2408 59.4019 24.2453C59.4408 24.2498 59.5024 24.2413 59.5561 24.1982C59.6654 24.1118 59.7052 23.8801 59.6415 23.6663C59.6093 23.5582 59.5535 23.4638 59.4878 23.3917C59.4237 23.3175 59.3483 23.2755 59.2821 23.285C59.215 23.291 59.1831 23.3431 59.1797 23.3808C59.1747 23.4188 59.1898 23.4399 59.1843 23.444C59.182 23.448 59.1526 23.4326 59.1461 23.3809C59.1433 23.356 59.1481 23.3237 59.1682 23.2921C59.1888 23.2599 59.2266 23.2347 59.2716 23.2251C59.3644 23.2017 59.4735 23.2583 59.5455 23.3371C59.6227 23.4148 59.6881 23.5204 59.7241 23.6417C59.7944 23.8813 59.7459 24.1427 59.5918 24.2478C59.5163 24.2966 59.4389 24.2943 59.3943 24.2782C59.3483 24.2611 59.3335 24.2367 59.3369 24.2332Z" fill="#F584BC"/>
<path d="M55.8772 19.5738C55.8732 19.5892 56.0064 19.5633 56.1808 19.6807C56.3546 19.7956 56.511 20.0819 56.566 20.4498L56.5706 20.4813L56.6018 20.4777C56.9151 20.4418 57.3158 20.5514 57.5942 20.8556C57.6612 20.9313 57.721 21.0205 57.7598 21.1158C57.7972 21.2137 57.8179 21.3231 57.8382 21.4353C57.8589 21.5477 57.8782 21.6646 57.9175 21.7814C57.9521 21.8976 58.0316 22.0176 58.1373 22.0889C58.3634 22.254 58.6355 22.2753 58.8735 22.3055C59.1162 22.3306 59.3443 22.3634 59.5433 22.4564C59.9447 22.6353 60.2155 22.9597 60.3393 23.265C60.4676 23.5734 60.4721 23.8533 60.4547 24.038C60.4369 24.225 60.4006 24.3246 60.409 24.3269C60.4118 24.3279 60.4221 24.3036 60.4391 24.2563C60.454 24.2085 60.4751 24.137 60.4885 24.0422C60.5166 23.8548 60.5224 23.5659 60.3966 23.2419C60.2749 22.9207 59.9968 22.5756 59.5765 22.3832C59.3682 22.2831 59.124 22.2464 58.8835 22.2207C58.6453 22.1906 58.3871 22.1654 58.1893 22.019C57.9951 21.8912 57.9665 21.6402 57.9225 21.4199C57.9014 21.3073 57.8798 21.194 57.8379 21.0851C57.7922 20.976 57.7281 20.8834 57.6544 20.8012C57.3511 20.4765 56.9258 20.3688 56.594 20.4134L56.6299 20.4415C56.5648 20.0587 56.3932 19.7659 56.2006 19.6507C56.1066 19.5927 56.0205 19.5745 55.964 19.5708C55.9066 19.5696 55.8772 19.5705 55.8772 19.5738Z" fill="white"/>
<path d="M56.5779 25.5693C56.3244 25.7358 56.0011 25.9956 55.8058 26.2249C55.8329 26.3698 56.1694 26.5867 56.3168 26.5942C56.4642 26.6017 56.6486 26.5077 56.729 26.3839C56.8093 26.2602 56.8246 26.0901 56.7982 25.945C56.772 25.7999 56.6666 25.6874 56.5779 25.5693Z" fill="#F584BC"/>
<path d="M56.3613 26.5974C56.3565 26.5826 56.4947 26.5693 56.639 26.4282C56.7084 26.3587 56.7759 26.2559 56.7954 26.1293C56.8164 26.0038 56.7851 25.856 56.7016 25.7342C56.6627 25.6791 56.6152 25.6323 56.563 25.5972L56.6126 25.5944C56.1973 25.9317 55.8741 26.1754 55.8608 26.1593C55.8475 26.1432 56.1486 25.8726 56.5593 25.5295L56.5829 25.5098L56.6089 25.5267C56.671 25.567 56.727 25.6215 56.772 25.6854C56.8686 25.8263 56.9021 25.9971 56.873 26.1427C56.8455 26.29 56.7622 26.4017 56.6802 26.4726C56.508 26.616 56.3579 26.6052 56.3613 26.5974Z" fill="#263238"/>
<path d="M59.6287 23.5309C59.6121 23.4684 59.574 23.4125 59.5244 23.376C59.373 23.3054 59.2429 23.3572 59.1589 23.4681C59.1094 23.5335 59.0862 23.6238 59.1176 23.6997C59.1469 23.7709 59.2163 23.8159 59.2817 23.8564C59.4077 23.9346 59.5335 24.0126 59.6595 24.0906C59.6878 23.9045 59.6773 23.7126 59.6287 23.5309Z" fill="#455A64"/>
<path d="M66.3015 40.0251C66.3015 40.0251 65.7635 37.1387 65.5437 36.0385C64.974 33.1874 64.8427 32.4685 64.187 31.0332C63.5311 29.5978 59.9223 28.1123 59.9223 28.1123L56.913 30.3022C56.913 30.3022 55.3541 36.5121 55.881 38.6568C56.3779 40.6785 57.6589 42.5691 58.4756 44.3868L58.1388 52.0321C58.1388 52.0321 65.8133 51.9195 67.4016 51.4006L68.5965 50.1554L66.3015 40.0251Z" fill="#E83F93"/>
<path d="M47.4595 44.2556C47.4595 44.846 46.9809 45.3246 46.3905 45.3246C45.8 45.3246 45.3214 44.846 45.3214 44.2556C45.3214 43.6651 45.8 43.1865 46.3905 43.1865C46.9809 43.1865 47.4595 43.6651 47.4595 44.2556Z" fill="#E0E0E0"/>
<path d="M46.3903 45.3282C45.7987 45.3282 45.3171 44.8468 45.3171 44.255C45.3171 43.6632 45.7985 43.1816 46.3903 43.1816C46.9821 43.1816 47.4637 43.663 47.4637 44.255C47.4635 44.8468 46.9821 45.3282 46.3903 45.3282ZM46.3903 43.1901C45.8032 43.1901 45.3256 43.6679 45.3256 44.255C45.3256 44.8421 45.8032 45.3197 46.3903 45.3197C46.9775 45.3197 47.4552 44.8421 47.4552 44.255C47.4552 43.6679 46.9775 43.1901 46.3903 43.1901Z" fill="#263238"/>
<path d="M47.247 44.2552C47.247 44.7283 46.8634 45.1119 46.3903 45.1119C45.9172 45.1119 45.5336 44.7283 45.5336 44.2552C45.5336 43.7821 45.9172 43.3984 46.3903 43.3984C46.8634 43.3984 47.247 43.7819 47.247 44.2552Z" fill="#263238"/>
<path d="M56.0803 31.6526L56.0293 31.5934C55.9908 31.5484 55.0821 30.471 54.9098 28.6407L55.0751 28.6251C55.2199 30.1629 55.9151 31.1719 56.1066 31.4235C57.6246 30.2348 58.9042 27.8336 59.374 26.7155C59.8065 25.6856 59.7029 24.433 59.5233 24.0211C59.4791 23.92 59.4471 23.9059 59.4467 23.9057L59.4504 23.7402C59.514 23.7402 59.5716 23.7784 59.6215 23.8536C59.8602 24.2128 60.0091 25.6318 59.5269 26.7799C59.0447 27.9278 57.7165 30.4139 56.1423 31.6053L56.0803 31.6526Z" fill="#455A64"/>
<path d="M69.2393 46.52C68.8113 44.8099 66.6386 37.9606 66.6386 37.9606C66.6386 37.9606 64.8796 32.2661 64.7042 31.7084C64.0577 29.6544 60.7514 27.9176 60.7514 27.9176L60.2364 27.0869L59.2708 28.6191C59.2708 28.6191 57.9619 32.3989 57.5821 35.3612C57.437 36.4933 57.553 38.935 57.8645 39.6707C59.1091 42.6109 59.2751 45.3087 59.2751 45.3087L60.1358 64.1393L65.7373 63.716L65.8008 61.214L66.2616 63.7731L72.039 62.9004C71.9092 62.6836 70.024 49.6553 69.2393 46.52Z" fill="#FAFAFA"/>
<path d="M69.2393 46.5203C69.2393 46.5203 69.2647 46.6169 69.3095 46.8064C69.3553 46.9958 69.4217 47.2779 69.4954 47.6502C69.6516 48.3932 69.8543 49.4936 70.1001 50.911C70.346 52.3283 70.6318 54.0628 70.954 56.0749C71.1141 57.0812 71.2852 58.1564 71.4665 59.2956C71.5574 59.8652 71.6509 60.4508 71.7468 61.0519C71.7962 61.3522 71.846 61.6563 71.8964 61.9641C71.9228 62.1178 71.9494 62.2723 71.9761 62.4279C72.0032 62.5839 72.032 62.7409 72.0671 62.8837L72.078 62.928L72.0437 62.9332C70.2648 63.2031 68.3196 63.4982 66.2667 63.8098L66.2312 63.8153L66.2247 63.7799C66.0811 62.9851 65.9234 62.1118 65.7626 61.2211L65.8386 61.2152C65.8192 61.9931 65.7979 62.848 65.7763 63.7174L65.7755 63.753L65.74 63.7557C63.9613 63.8907 62.0769 64.0338 60.1386 64.1808L60.0961 64.1841L60.0941 64.1415C59.9037 59.9863 59.6972 55.4846 59.4836 50.8228C59.4366 49.7934 59.39 48.7719 59.3437 47.7591C59.3206 47.2528 59.2975 46.7487 59.2746 46.247C59.2475 45.7447 59.2441 45.2455 59.1753 44.7545C59.0528 43.7698 58.848 42.8058 58.5869 41.8704C58.4519 41.404 58.309 40.9423 58.1405 40.493C58.0611 40.2664 57.97 40.0453 57.8807 39.8241C57.7857 39.606 57.7157 39.3658 57.6747 39.1326C57.5879 38.6623 57.5447 38.1904 57.514 37.7218C57.4848 37.253 57.4733 36.7863 57.4816 36.323C57.4856 36.0913 57.4952 35.8606 57.5137 35.6307C57.5316 35.4001 57.568 35.1738 57.6005 34.9481C57.6677 34.4969 57.7534 34.0523 57.8434 33.6128C58.2197 31.8575 58.7044 30.189 59.2348 28.6069L59.2361 28.6029L59.2386 28.5991C59.5703 28.0735 59.8901 27.5665 60.205 27.0674L60.2364 27.0176L60.2673 27.0675C60.4456 27.3554 60.6144 27.6281 60.7817 27.8985L60.7678 27.8856C61.4673 28.2692 62.1155 28.7045 62.712 29.1781C63.3074 29.651 63.8492 30.1736 64.2622 30.7737C64.3723 30.9191 64.4541 31.0811 64.5411 31.2385C64.5889 31.315 64.6153 31.4018 64.6499 31.4843C64.6816 31.5678 64.7182 31.65 64.7453 31.7338C64.8491 32.0698 64.9511 32.4013 65.0519 32.728C65.2534 33.3814 65.449 34.0156 65.6384 34.63C66.0174 35.8587 66.3716 37.0076 66.6991 38.0692C67.0301 39.1296 67.3339 40.1029 67.6081 40.9815C68.1521 42.7399 68.5684 44.1221 68.8428 45.0664C68.9796 45.5387 69.0802 45.9017 69.1461 46.1468C69.2095 46.3928 69.2393 46.5203 69.2393 46.5203C69.2393 46.5203 69.2022 46.3948 69.1358 46.1499C69.0645 45.9049 68.9594 45.5438 68.8223 45.0727C68.5412 44.1305 68.1184 42.7504 67.5686 40.9941C67.2919 40.1163 66.9853 39.144 66.6511 38.0846C66.3213 37.0237 65.9644 35.8755 65.5826 34.6478C65.392 34.0337 65.1952 33.3998 64.9925 32.7469C64.8912 32.4204 64.7883 32.0892 64.684 31.7532C64.657 31.6697 64.6211 31.5905 64.5899 31.5087C64.5561 31.428 64.5305 31.3434 64.4832 31.268C64.3975 31.1135 64.317 30.9544 64.2081 30.8112C63.8001 30.22 63.2618 29.7016 62.6691 29.2325C62.076 28.7627 61.4281 28.3293 60.7344 27.9498L60.7254 27.945L60.7205 27.9369C60.5528 27.6668 60.3837 27.3942 60.205 27.1066L60.2673 27.1067C59.9529 27.6062 59.6335 28.1135 59.3025 28.6394L59.3061 28.6316C58.7786 30.2104 58.2957 31.8786 57.9219 33.6292C57.8326 34.0676 57.7474 34.5108 57.6808 34.9602C57.6485 35.1851 57.6124 35.4104 57.595 35.6373C57.5769 35.8647 57.5675 36.0941 57.5638 36.3244C57.5558 36.785 57.5676 37.25 57.5968 37.7164C57.6276 38.1827 57.6709 38.6527 57.7569 39.1167C57.7992 39.3515 57.8626 39.571 57.9582 39.7918C58.048 40.0139 58.1398 40.2362 58.2197 40.4636C58.3892 40.9149 58.5329 41.3786 58.6687 41.847C58.9312 42.7864 59.1372 43.7539 59.2605 44.7437C59.3299 45.2389 59.3335 45.7419 59.3606 46.2422C59.3835 46.744 59.4066 47.248 59.4298 47.7543C59.4761 48.7671 59.5229 49.7886 59.5699 50.818C59.7824 55.4801 59.9876 59.982 60.1768 64.1373L60.1323 64.098C62.0707 63.9522 63.9551 63.8105 65.734 63.6767L65.6976 63.715C65.7201 62.8459 65.7421 61.991 65.7622 61.2131L65.7718 60.8381L65.8381 61.2073C65.9981 62.0982 66.1548 62.9715 66.2976 63.7665L66.2557 63.7366C68.309 63.4279 70.2545 63.1354 72.0339 62.8678L72.0105 62.9172C71.9641 62.7504 71.9396 62.5944 71.912 62.4392C71.8855 62.2833 71.8592 62.1284 71.833 61.9745C71.783 61.6664 71.7337 61.3621 71.6849 61.0617C71.59 60.4604 71.4977 59.8746 71.4077 59.3047C71.2289 58.1652 71.0601 57.0895 70.9022 56.083C70.5849 54.0704 70.3041 52.3351 70.0639 50.9171C69.8236 49.4991 69.6269 48.3979 69.4768 47.654C69.4061 47.281 69.3428 46.9985 69.3002 46.8086C69.2583 46.6184 69.2393 46.5203 69.2393 46.5203Z" fill="#263238"/>
<path d="M62.8116 47.3954C62.8131 47.3933 62.8431 47.3875 62.8992 47.3782C62.9635 47.3682 63.044 47.3558 63.1429 47.3403C63.3635 47.3083 63.6656 47.2645 64.0378 47.2105C64.7958 47.1024 65.847 46.9559 67.0426 46.7973L67.0089 46.8561C66.8968 46.5913 66.78 46.3156 66.6608 46.0341C66.6445 45.9957 66.6284 45.9574 66.613 45.9207L66.6584 45.9467C64.9916 46.1677 63.5229 46.3558 62.6235 46.4645L62.6449 46.4346C62.6977 46.7273 62.74 46.9625 62.7712 47.1353C62.784 47.212 62.7946 47.2747 62.8031 47.326C62.8099 47.3697 62.8129 47.3936 62.8116 47.3954C62.8102 47.3973 62.8044 47.3773 62.7945 47.3365C62.783 47.2874 62.7687 47.2271 62.7516 47.1536C62.7131 46.9786 62.6607 46.7406 62.5956 46.4442L62.5898 46.4182L62.6168 46.4142C63.5134 46.2844 64.9804 46.0824 66.6472 45.8608L66.6799 45.8564L66.6926 45.8868C66.7081 45.9235 66.7243 45.9619 66.7406 46.0002C66.8595 46.2819 66.9758 46.558 67.0876 46.8227L67.1093 46.8744L67.0539 46.8815C65.8409 47.039 64.7738 47.1703 64.0156 47.2615C63.6459 47.3048 63.3457 47.34 63.1268 47.3657C63.0308 47.3758 62.9527 47.3843 62.8904 47.3908C62.8371 47.3959 62.8101 47.3976 62.8116 47.3954Z" fill="#263238"/>
<path d="M60.7412 28.087C60.7452 28.0896 60.7097 28.1535 60.6424 28.2712C60.5757 28.3891 60.4784 28.5616 60.3637 28.7833C60.1343 29.2262 59.8385 29.8713 59.5986 30.6655L59.5925 30.6859L59.5717 30.6922C59.368 30.7543 59.1547 30.8195 58.9353 30.8864L58.9368 30.8062C59.0897 30.8585 59.2518 30.9141 59.417 30.9707L59.4582 30.9848L59.4434 31.026C59.3934 31.1655 59.3405 31.3134 59.2867 31.4631C58.8719 32.6258 58.518 33.686 58.2665 34.4547C58.1436 34.8304 58.0429 35.1387 57.9687 35.3654C57.935 35.465 57.9074 35.5467 57.8853 35.6123C57.8654 35.6685 57.8535 35.6976 57.8506 35.6968C57.8478 35.6959 57.8541 35.665 57.8686 35.6073C57.8867 35.5404 57.9091 35.4572 57.9365 35.3556C57.9977 35.1377 58.0895 34.8233 58.208 34.4363C58.4449 33.6623 58.7899 32.5979 59.2052 31.434C59.259 31.2843 59.3123 31.1362 59.3624 30.9966L59.3888 31.0519C59.224 30.9948 59.0618 30.9387 58.9092 30.8859L58.7854 30.8431L58.9107 30.8056C59.1307 30.7398 59.3443 30.6761 59.5483 30.615L59.5216 30.6417C59.7694 29.8433 60.0775 29.1984 60.3204 28.7599C60.4417 28.5405 60.546 28.3712 60.62 28.2573C60.6945 28.1439 60.7375 28.0847 60.7412 28.087Z" fill="#263238"/>
<path d="M52.0762 45.7096C51.9581 45.7096 51.8434 45.7064 51.7332 45.7021C49.9029 45.6266 48.1066 45.1669 46.3698 44.7225L46.4109 44.5617C48.1396 45.0041 49.9273 45.4616 51.7402 45.5361C52.4067 45.5645 53.2513 45.5366 53.8706 45.0821C54.6419 44.5165 54.8598 43.4729 54.9637 42.6268C55.154 41.0757 55.0921 40.2998 55.0135 39.3177C54.9647 38.7085 54.9096 38.018 54.9096 37.0243C54.9096 35.4697 55.4179 33.6578 55.7889 32.3348C55.8742 32.0305 55.9516 31.7549 56.0122 31.5186L56.173 31.5599C56.1121 31.7973 56.0344 32.074 55.9486 32.3796C55.5803 33.6933 55.0756 35.4926 55.0756 37.0243C55.0756 38.0115 55.1306 38.6984 55.1789 39.3046C55.2581 40.2961 55.3206 41.0793 55.1284 42.647C55.0205 43.5263 54.7913 44.613 53.9689 45.2162C53.4125 45.6239 52.701 45.7096 52.0762 45.7096Z" fill="#455A64"/>
<path d="M51.8557 42.5032L52.7252 44.9117C52.7252 44.9117 50.8645 45.0437 50.3448 45.247C49.8249 45.4502 48.1605 44.9683 48.1605 44.9683C48.1605 44.9683 47.6687 45.2588 47.2798 45.4474C46.891 45.636 46.565 45.365 46.565 45.365C46.2414 45.5141 46.1571 45.2782 46.1571 45.2782C45.8277 45.38 45.7365 45.0482 45.7365 45.0482L46.0839 44.6498L45.8998 44.503C45.8998 44.503 46.0389 44.2824 46.4026 43.8725C46.7663 43.4627 48.0845 42.4403 48.4066 42.3762C48.743 42.3092 50.5739 43.0779 50.5739 43.0779L51.8557 42.5032Z" fill="#FFBF9D"/>
<path d="M48.0719 43.2716C48.0702 43.2801 47.9315 43.2811 47.7152 43.3516C47.6098 43.387 47.4755 43.4273 47.3583 43.5049C47.2381 43.5877 47.1249 43.7061 47.0052 43.833C46.7648 44.0862 46.5437 44.3119 46.3805 44.4725C46.2174 44.633 46.1121 44.7281 46.1035 44.7198C46.0948 44.7117 46.1845 44.6016 46.3362 44.4303C46.4881 44.259 46.7021 44.0266 46.9426 43.7734C47.062 43.647 47.1818 43.5244 47.3138 43.4388C47.4527 43.3536 47.5869 43.3224 47.6991 43.2925C47.9245 43.2354 48.0754 43.2562 48.0719 43.2716Z" fill="#F584BC"/>
<path d="M48.4769 43.7638C48.4798 43.7779 48.3264 43.8078 48.0985 43.9072C47.8695 44.0041 47.5746 44.1831 47.2739 44.4175C46.9731 44.652 46.7084 44.8789 46.5022 45.0255C46.2975 45.1743 46.1586 45.2476 46.1526 45.2382C46.1458 45.2274 46.2716 45.1366 46.4648 44.9771C46.6596 44.8195 46.9164 44.5865 47.2211 44.3489C47.5258 44.1114 47.8348 43.9351 48.0757 43.8504C48.3162 43.7629 48.4761 43.7543 48.4769 43.7638Z" fill="#F584BC"/>
<path d="M48.5827 44.391C48.5829 44.4058 48.4544 44.4041 48.262 44.4652C48.0686 44.5233 47.8216 44.6574 47.5673 44.8374C47.3128 45.0178 47.0769 45.1845 46.8864 45.2718C46.6973 45.3622 46.5675 45.3823 46.5652 45.3725C46.5612 45.3594 46.6819 45.3191 46.858 45.2177C47.0359 45.1191 47.2604 44.9491 47.5178 44.7665C47.7756 44.5839 48.0391 44.4516 48.2457 44.4063C48.4521 44.3578 48.5842 44.382 48.5827 44.391Z" fill="#F584BC"/>
<path d="M62.0202 29.948C61.237 29.7239 60.5594 30.3122 60.0775 30.9566C59.6335 31.5505 59.3264 32.2356 59.1441 32.9546L58.761 34.4658L58.3161 37.029C58.1418 38.2873 57.8999 39.7649 57.6999 39.9873C57.3427 40.3847 50.7349 42.3054 50.7349 42.3054L51.4754 45.6122C51.4754 45.6122 58.6864 43.9795 60.2609 43.2306C61.2991 42.7368 62.2689 40.1153 62.9581 38.1037C63.1742 37.2576 64.0854 33.9977 64.139 32.9961C64.2873 30.2267 62.0202 29.948 62.0202 29.948Z" fill="#FAFAFA"/>
<path d="M62.0202 29.9483C62.0202 29.9483 62.0776 29.951 62.1857 29.9767C62.2934 30.0023 62.4541 30.0451 62.6507 30.1356C62.8454 30.2265 63.0863 30.353 63.318 30.5692C63.5504 30.782 63.776 31.078 63.9315 31.4564C63.9642 31.5531 64.0154 31.647 64.0358 31.7531C64.0608 31.8578 64.0866 31.9652 64.113 32.0753C64.1261 32.1877 64.1394 32.3027 64.153 32.4202C64.1722 32.5376 64.1588 32.6593 64.1631 32.7826C64.1754 33.0303 64.1357 33.2878 64.0934 33.5504C64.0494 33.8136 63.9934 34.0846 63.9329 34.3641C63.6895 35.4819 63.353 36.7352 62.9915 38.1122L62.9911 38.1137L62.9908 38.1149C62.6766 39.03 62.3351 40.0056 61.8909 40.9994C61.6661 41.4945 61.417 41.9966 61.0938 42.4705C60.9258 42.7016 60.751 42.9387 60.5114 43.1188C60.3921 43.2079 60.2579 43.2824 60.1208 43.3336L59.9157 43.4196L59.7062 43.4941C59.1462 43.6945 58.5662 43.8646 57.9754 44.0321C57.385 44.2011 56.7812 44.3593 56.169 44.5191C54.9438 44.836 53.6797 45.143 52.3882 45.4456C52.0856 45.5155 51.7845 45.5852 51.4852 45.6543L51.443 45.664L51.4336 45.6216C51.1811 44.4932 50.9337 43.3877 50.6937 42.3147L50.6851 42.2758L50.7234 42.2647C51.9561 41.9045 53.15 41.5453 54.2941 41.187C54.8661 41.0077 55.4255 40.8283 55.9698 40.645C56.5113 40.4578 57.0493 40.283 57.5374 40.0498C57.5958 40.0162 57.6559 39.9892 57.6868 39.9405C57.7208 39.8926 57.7449 39.8275 57.7671 39.7662C57.8109 39.6412 57.8453 39.5121 57.8762 39.3831C57.9379 39.1251 57.9877 38.8675 58.034 38.6134C58.1255 38.1044 58.2002 37.6082 58.2686 37.127C58.4353 36.1698 58.5905 35.2781 58.7327 34.461L58.7329 34.4599L58.7332 34.4589C58.8516 33.9961 58.9641 33.5565 59.0704 33.1413C59.17 32.7247 59.2956 32.3371 59.4505 31.993C59.7591 31.3032 60.1519 30.773 60.538 30.4141C60.9233 30.0491 61.3318 29.903 61.607 29.8944C61.7451 29.8899 61.8501 29.9043 61.9181 29.9209C61.9858 29.9379 62.0202 29.9483 62.0202 29.9483C62.0194 29.9578 61.8809 29.8992 61.6075 29.9108C61.3363 29.9249 60.937 30.0728 60.5589 30.4375C60.1801 30.7961 59.7936 31.3258 59.4917 32.0115C59.34 32.3545 59.218 32.7375 59.1203 33.1545C59.0159 33.57 58.9054 34.0102 58.789 34.4735L58.7895 34.4713C58.6502 35.2886 58.4982 36.1803 58.335 37.1375C58.2681 37.6182 58.1946 38.116 58.1041 38.6265C58.0583 38.8818 58.009 39.1404 57.9472 39.4009C57.9163 39.5312 57.882 39.6618 57.8368 39.7918C57.8128 39.8567 57.7909 39.9216 57.7469 39.985C57.7289 40.0192 57.6927 40.0406 57.6639 40.0639L57.5719 40.1168C57.0719 40.3569 56.538 40.5305 55.9946 40.7197C55.4498 40.9042 54.8902 41.0846 54.318 41.2647C53.1736 41.6248 51.98 41.9852 50.7468 42.3464L50.7764 42.2964C51.0169 43.3693 51.2647 44.4748 51.5177 45.603L51.4661 45.5703C51.7652 45.501 52.0662 45.4315 52.3685 45.3616C53.6593 45.059 54.923 44.7527 56.1476 44.4366C56.7595 44.2773 57.3629 44.1196 57.9525 43.9514C58.5425 43.7848 59.1222 43.6153 59.6784 43.4171L59.8868 43.3434L60.0886 43.259C60.2266 43.2074 60.3494 43.1385 60.4626 43.0547C60.6907 42.8844 60.8637 42.6518 61.0289 42.4252C61.3479 41.9589 61.5971 41.4603 61.8215 40.9681C62.2657 39.9795 62.6093 39.0061 62.9257 38.0926L62.9249 38.0953C63.2906 36.7178 63.6309 35.4675 63.8789 34.3523C63.9405 34.0736 63.9976 33.8037 64.0427 33.5419C64.0862 33.28 64.1266 33.028 64.1158 32.7824C64.112 32.6604 64.1262 32.5398 64.1078 32.4239C64.095 32.3075 64.0826 32.1938 64.0705 32.0828C64.0451 31.974 64.0205 31.868 63.9963 31.7645C63.977 31.6595 63.927 31.5668 63.8955 31.4714C63.7449 31.0974 63.5253 30.8039 63.2979 30.5914C63.0711 30.3756 62.8343 30.2475 62.6424 30.1543C62.4487 30.0615 62.2898 30.0157 62.1834 29.987C62.1299 29.9726 62.0891 29.9636 62.0615 29.958C62.0341 29.9517 62.02 29.9495 62.0202 29.9483Z" fill="#263238"/>
</svg>
