<svg width="190" height="176" viewBox="0 0 190 176" fill="none" xmlns="http://www.w3.org/2000/svg">
<path d="M41.6828 160.582C41.6828 160.582 40.268 151.258 40.3859 145.833C40.5037 140.409 40.3789 134.306 40.3789 134.306H41.0307C41.0307 134.306 40.5893 145.073 41.0696 151.568C41.5495 158.057 42.8145 160.582 42.8145 160.582H41.6828Z" fill="#263238"/>
<path d="M45.8967 123.815C45.7658 123.496 45.6044 123.164 45.3028 122.981C44.8891 122.73 44.3471 122.834 43.8853 122.991C41.9155 123.658 40.1695 127.179 39.3733 129.03L41.9883 137.477C46.7083 133.28 47.526 127.773 45.8967 123.815Z" fill="#455A64"/>
<path d="M45.1502 123.323C45.1537 123.325 45.1406 123.363 45.1121 123.433C45.0786 123.514 45.0362 123.616 44.9842 123.741C44.8694 124.007 44.7088 124.393 44.5166 124.873C44.1314 125.832 43.6407 127.173 43.2024 128.684C42.7656 130.195 42.4647 131.587 42.2791 132.599C42.1859 133.106 42.1158 133.516 42.0711 133.801C42.0484 133.933 42.0299 134.042 42.0152 134.127C42.0014 134.202 41.9921 134.241 41.9886 134.241C41.9848 134.24 41.9867 134.2 41.9937 134.125C42.0029 134.038 42.0148 133.929 42.0295 133.795C42.0614 133.509 42.12 133.096 42.204 132.587C42.3707 131.57 42.6604 130.172 43.0984 128.656C43.5378 127.141 44.0413 125.8 44.4457 124.846C44.6476 124.369 44.819 123.986 44.9457 123.725C45.0054 123.603 45.0539 123.503 45.0924 123.425C45.1271 123.357 45.1468 123.322 45.1502 123.323Z" fill="#263238"/>
<path d="M40.8265 139.503C38.3756 138.205 36.9308 135.762 36.796 133.08C36.702 131.206 37.3025 129.367 37.9831 127.607C38.0421 127.455 38.1122 127.29 38.2601 127.21C38.4658 127.098 38.7231 127.198 38.9284 127.31C40.7094 128.282 41.7883 130.136 42.3626 132.022C42.7447 133.277 42.9427 134.6 42.7659 135.896C42.5891 137.193 41.8161 138.603 40.8265 139.503Z" fill="#455A64"/>
<path d="M40.8265 139.503C40.8227 139.503 40.8196 139.464 40.8169 139.389C40.8154 139.304 40.813 139.197 40.8104 139.065C40.8096 138.784 40.7976 138.377 40.7738 137.874C40.7268 136.87 40.5893 135.485 40.3189 133.972C40.0469 132.46 39.7168 131.105 39.4738 130.126C39.354 129.647 39.2558 129.254 39.1837 128.966C39.1533 128.838 39.1283 128.733 39.1082 128.65C39.0921 128.577 39.0855 128.539 39.089 128.538C39.0924 128.537 39.1063 128.574 39.129 128.645C39.1541 128.727 39.1857 128.83 39.2242 128.956C39.3047 129.227 39.416 129.62 39.5477 130.108C39.81 131.083 40.1521 132.438 40.4252 133.955C40.6963 135.472 40.8223 136.864 40.85 137.872C40.8643 138.376 40.8647 138.784 40.8527 139.066C40.8473 139.197 40.8427 139.304 40.8389 139.39C40.8342 139.464 40.83 139.503 40.8265 139.503Z" fill="#263238"/>
<g opacity="0.3">
<path d="M40.8265 139.503C38.3756 138.205 36.9308 135.762 36.796 133.08C36.702 131.206 37.3025 129.367 37.9831 127.607C38.0421 127.455 38.1122 127.29 38.2601 127.21C38.4658 127.098 38.7231 127.198 38.9284 127.31C40.7094 128.282 41.7883 130.136 42.3626 132.022C42.7447 133.277 42.9427 134.6 42.7659 135.896C42.5891 137.193 41.8161 138.603 40.8265 139.503Z" fill="black"/>
</g>
<path d="M43.5918 153.768C46.0042 154.276 47.9906 155.907 50.3175 156.7C51.857 157.225 53.5984 157.411 54.8279 158.443C54.5329 157.729 53.8338 157.253 53.1543 156.846C51.2404 155.701 49.1912 154.763 47.058 154.056C45.9634 153.694 44.7751 153.391 43.6596 153.69" fill="#455A64"/>
<path d="M40.1039 155.828C37.083 155.782 33.9021 153.316 30.895 153.169C34.0416 152.195 38.5474 152.991 40.1039 155.828Z" fill="#455A64"/>
<path d="M41.2842 148.881C42.8184 148.351 44.5028 148.326 46.114 148.566C47.7252 148.806 49.2817 149.302 50.829 149.795C50.6738 148.79 49.8252 148.034 49.0275 147.365C48.4274 146.862 47.8226 146.356 47.1343 145.97C46.446 145.585 45.6602 145.324 44.8637 145.356C43.9026 145.395 42.9878 145.871 42.3577 146.567C41.7275 147.263 41.3886 147.964 41.2842 148.881Z" fill="#455A64"/>
<path d="M35.0839 145.684C33.1822 144.128 30.3015 144.28 27.8016 144.334C31.6446 146.095 35.7857 148.51 39.0952 151.08C39.1972 149.386 37.4863 147.65 35.0839 145.684Z" fill="#455A64"/>
<g opacity="0.3">
<path d="M35.0839 145.684C33.1822 144.128 30.3015 144.28 27.8016 144.334C31.6446 146.095 35.7857 148.51 39.0952 151.08C39.1972 149.386 37.4863 147.65 35.0839 145.684Z" fill="black"/>
</g>
<path d="M42.1396 143.535C43.096 142.924 44.0632 142.341 45.0643 141.906C46.0654 141.469 46.9991 140.775 47.9659 140.273C49.2193 139.622 50.3055 138.718 51.456 137.911C52.6066 137.104 53.8707 136.376 55.2786 136.162C54.1303 135.935 52.9309 136.059 51.7996 136.355C50.6687 136.651 49.5944 137.114 48.5256 137.576C47.0418 138.217 45.5327 138.873 44.3202 139.913C43.1076 140.954 42.0114 141.98 42.1396 143.535Z" fill="#455A64"/>
<path d="M50.2624 155.829C50.2604 155.832 50.2277 155.818 50.1668 155.789C50.0956 155.754 50.0085 155.711 49.9034 155.658C49.6757 155.543 49.3491 155.37 48.9381 155.172C48.7343 155.069 48.509 154.962 48.264 154.851C48.0218 154.736 47.7583 154.622 47.4794 154.506C46.9217 154.278 46.2988 154.04 45.6194 153.885C44.9422 153.726 44.267 153.691 43.6815 153.838C43.3861 153.907 43.108 153.974 42.8603 154.074C42.6119 154.17 42.3904 154.283 42.1974 154.4C41.8103 154.633 41.5399 154.881 41.3647 155.059C41.1898 155.239 41.1043 155.349 41.0966 155.343C41.0935 155.341 41.1124 155.312 41.1509 155.258C41.1886 155.204 41.2499 155.127 41.3335 155.032C41.501 154.844 41.7672 154.584 42.1562 154.338C42.35 154.215 42.5741 154.096 42.8264 153.994C43.0783 153.889 43.363 153.817 43.6584 153.745C44.257 153.588 44.9584 153.622 45.644 153.784C46.3339 153.941 46.9602 154.184 47.5191 154.419C47.7984 154.537 48.0614 154.655 48.3029 154.774C48.5471 154.887 48.7713 154.999 48.9732 155.107C49.3811 155.314 49.7027 155.496 49.9238 155.623C50.0251 155.682 50.1091 155.73 50.1776 155.77C50.235 155.806 50.2643 155.826 50.2624 155.829Z" fill="#263238"/>
<path d="M37.8507 154.394C37.8534 154.387 37.9204 154.406 38.0398 154.447C38.16 154.486 38.3291 154.555 38.532 154.652C38.9384 154.844 39.4734 155.172 39.9753 155.633C40.4761 156.096 40.8393 156.595 41.0561 156.976C41.1651 157.167 41.2441 157.326 41.2896 157.44C41.3366 157.553 41.3593 157.616 41.3523 157.619C41.335 157.626 41.2222 157.381 40.9899 157.013C40.7588 156.646 40.3929 156.163 39.9006 155.708C39.4068 155.255 38.8891 154.923 38.4962 154.717C38.1037 154.509 37.8437 154.411 37.8507 154.394Z" fill="#263238"/>
<path d="M31.1662 145.539C31.1674 145.535 31.2117 145.548 31.2949 145.575C31.3885 145.607 31.5086 145.648 31.6573 145.699C31.8183 145.756 32.0094 145.823 32.2289 145.901C32.4516 145.98 32.6939 146.097 32.9673 146.213C34.0551 146.686 35.5026 147.483 36.9004 148.615C37.5899 149.191 38.2131 149.775 38.7347 150.347C39.2539 150.919 39.6938 151.458 40.0366 151.928C40.3813 152.396 40.6432 152.786 40.8223 153.056C40.9071 153.184 40.9756 153.287 41.0292 153.367C41.0762 153.438 41.0993 153.476 41.0962 153.479C41.0931 153.481 41.0642 153.446 41.0115 153.379C40.9587 153.311 40.882 153.211 40.7877 153.078C40.5974 152.815 40.3266 152.432 39.9749 151.97C39.6256 151.507 39.1815 150.976 38.6607 150.41C38.138 149.845 37.5163 149.266 36.8311 148.694C35.4417 147.569 34.0104 146.767 32.9354 146.279C32.665 146.16 32.4262 146.038 32.2062 145.954C31.9897 145.87 31.8014 145.797 31.6427 145.736C31.4971 145.678 31.3792 145.631 31.2876 145.594C31.207 145.561 31.1651 145.542 31.1662 145.539Z" fill="#263238"/>
<path d="M45.8173 147.253C45.8154 147.26 45.7295 147.249 45.5766 147.223C45.4934 147.209 45.4013 147.192 45.2989 147.174C45.191 147.154 45.0651 147.154 44.928 147.14C44.3849 147.103 43.5933 147.146 42.8518 147.533C42.4778 147.715 42.1639 147.96 41.907 148.205C41.6462 148.449 41.4486 148.703 41.2995 148.925C40.9964 149.37 40.9028 149.692 40.8843 149.685C40.8785 149.684 40.8955 149.602 40.9456 149.459C41.001 149.319 41.0865 149.116 41.2348 148.887C41.3781 148.655 41.5734 148.392 41.8365 148.139C42.0953 147.883 42.4162 147.629 42.8018 147.442C43.5667 147.043 44.3852 147.01 44.9349 147.068C45.0739 147.087 45.2014 147.092 45.3093 147.118C45.4114 147.143 45.503 147.165 45.5859 147.185C45.7372 147.222 45.8193 147.246 45.8173 147.253Z" fill="#263238"/>
<path d="M48.8537 138.223C48.8553 138.226 48.816 138.249 48.7393 138.291C48.6523 138.336 48.5406 138.394 48.4023 138.466C48.1092 138.617 47.6874 138.841 47.1751 139.13C46.6651 139.424 46.0642 139.784 45.4248 140.222C44.7874 140.661 44.1029 141.171 43.4708 141.791C43.1592 142.103 42.8718 142.429 42.6716 142.783C42.4736 143.147 42.2844 143.499 42.1107 143.838C41.7614 144.513 41.4767 145.135 41.2714 145.669C41.0665 146.204 40.939 146.649 40.8631 146.959C40.7857 147.269 40.758 147.444 40.7472 147.442C40.7433 147.442 40.748 147.398 40.7591 147.314C40.7699 147.23 40.7884 147.107 40.8219 146.951C40.8855 146.637 41.0026 146.186 41.1994 145.645C41.397 145.104 41.6759 144.476 42.0214 143.796C42.1935 143.455 42.3811 143.102 42.578 142.737C42.786 142.366 43.0775 142.036 43.3934 141.72C44.0332 141.092 44.7238 140.581 45.3674 140.144C46.013 139.708 46.6204 139.353 47.1366 139.067C47.6554 138.785 48.0837 138.571 48.383 138.43C48.5252 138.365 48.6403 138.313 48.7297 138.272C48.8094 138.237 48.8522 138.22 48.8537 138.223Z" fill="#263238"/>
<path d="M40.3825 146.993C40.3751 146.994 40.354 146.907 40.3224 146.749C40.2869 146.57 40.243 146.346 40.1903 146.08C40.0751 145.516 39.8991 144.74 39.619 143.907C39.3413 143.072 39.0031 142.346 38.7562 141.823C38.6391 141.576 38.5405 141.368 38.4616 141.203C38.393 141.056 38.3579 140.973 38.3649 140.97C38.3714 140.967 38.4192 141.043 38.4993 141.185C38.5794 141.326 38.6923 141.533 38.8252 141.791C39.0902 142.308 39.4418 143.034 39.7215 143.874C40.0038 144.714 40.1691 145.498 40.265 146.066C40.3124 146.351 40.3463 146.582 40.3636 146.742C40.3828 146.903 40.3898 146.992 40.3825 146.993Z" fill="#263238"/>
<path d="M40.164 140.404C40.0882 139.31 39.7165 138.246 39.1814 137.277C37.7151 134.619 34.9591 132.649 31.8838 132.06C34.1359 135.277 36.3877 138.495 38.6399 141.713L39.5123 143.436C40.1074 142.5 40.2395 141.498 40.164 140.404Z" fill="#455A64"/>
<path d="M49.8552 159.429H34.1452V162.098H49.8552V159.429Z" fill="#E83F93"/>
<path d="M35.3185 161.568L36.6562 169.851H47.0858L48.682 161.568H35.3185Z" fill="#E83F93"/>
<path d="M49.8464 162.102C49.8464 162.131 46.3027 162.154 41.9324 162.154C37.5606 162.154 34.0177 162.131 34.0177 162.102C34.0177 162.072 37.5606 162.049 41.9324 162.049C46.3027 162.048 49.8464 162.072 49.8464 162.102Z" fill="#263238"/>
<path d="M110.294 45.6844L108.223 44.3702C108.114 43.0162 107.626 41.6732 106.732 40.4942C104.159 37.104 99.2067 36.3548 95.6699 38.8211C92.1336 41.2873 91.3521 46.0348 93.9247 49.4253C96.4973 52.8155 101.45 53.5647 104.986 51.0984C106.463 50.0686 107.457 48.6403 107.93 47.0798V47.0843L110.294 45.6844Z" fill="white"/>
<path d="M110.294 45.6843C110.294 45.6843 110.238 45.7146 110.134 45.7744C110.028 45.8357 109.876 45.9236 109.677 46.0392C109.275 46.2733 108.684 46.6167 107.916 47.0639L107.954 47.0845V47.0805C107.955 47.0672 107.944 47.0565 107.93 47.0561C107.919 47.0557 107.909 47.0631 107.906 47.0734C107.612 48.0221 107.032 49.2199 105.914 50.2889C105.637 50.5548 105.328 50.8125 104.987 51.05C104.634 51.2715 104.276 51.5134 103.868 51.695C103.067 52.0813 102.144 52.3604 101.15 52.4579C100.158 52.5569 99.095 52.4742 98.0554 52.1714C97.0165 51.8704 96.002 51.3479 95.1299 50.6124C93.3739 49.159 92.2722 46.7725 92.4999 44.3306C92.6185 43.0914 93.026 41.8913 93.7155 40.8914C94.3923 39.8848 95.3009 39.0617 96.3159 38.4779C97.3305 37.889 98.4575 37.5651 99.5549 37.4603C100.655 37.3565 101.731 37.4806 102.697 37.7715C103.664 38.0618 104.52 38.5182 105.231 39.0577C105.318 39.1267 105.405 39.1954 105.492 39.2633C105.58 39.3298 105.664 39.3985 105.739 39.4764C105.893 39.6259 106.046 39.7729 106.196 39.9177C106.46 40.236 106.734 40.531 106.943 40.8526C107.809 42.1254 108.118 43.406 108.2 44.372C108.2 44.379 108.204 44.3853 108.21 44.389C108.882 44.8081 109.399 45.1304 109.752 45.3505C109.927 45.4587 110.06 45.5414 110.154 45.5994C110.244 45.6555 110.294 45.6843 110.294 45.6843C110.294 45.6843 110.253 45.6559 110.166 45.599C110.075 45.5399 109.945 45.4557 109.776 45.3453C109.423 45.1179 108.907 44.7844 108.236 44.3513L108.246 44.3683C108.174 43.396 107.871 42.1033 107.004 40.8142C106.794 40.4889 106.52 40.1898 106.254 39.8671C106.103 39.7205 105.95 39.5713 105.794 39.4195C105.719 39.3409 105.634 39.2711 105.546 39.2035C105.459 39.1345 105.372 39.0647 105.283 38.9949C104.567 38.4469 103.703 37.9824 102.725 37.6863C101.749 37.3894 100.66 37.2612 99.5453 37.3643C98.4336 37.468 97.2904 37.7948 96.2612 38.3904C95.232 38.9805 94.3095 39.8143 93.6227 40.8345C92.9228 41.8485 92.5091 43.0652 92.3886 44.3218C92.3647 44.475 92.3666 44.6297 92.3647 44.7837L92.3597 45.2445L92.3994 45.7017C92.4109 45.8538 92.4236 46.0056 92.4579 46.1544C92.4864 46.3039 92.5145 46.4527 92.543 46.6012C92.5669 46.7507 92.6239 46.8925 92.6628 47.038C92.7083 47.1816 92.7433 47.3282 92.7972 47.4686C92.8546 47.6074 92.912 47.7462 92.969 47.8843C93.4417 48.9832 94.1704 49.9499 95.059 50.6899C95.9442 51.4347 96.973 51.9628 98.0261 52.2655C99.0799 52.5698 100.156 52.6514 101.16 52.5488C102.166 52.4472 103.098 52.1621 103.907 51.7689C104.319 51.5832 104.68 51.338 105.034 51.1127C105.378 50.8716 105.689 50.6102 105.968 50.3402C107.091 49.2557 107.667 48.0446 107.954 47.0875L107.906 47.0805V47.0845C107.905 47.0975 107.916 47.1085 107.93 47.1089C107.935 47.1089 107.94 47.1078 107.943 47.1052C108.711 46.6433 109.301 46.288 109.703 46.0462C109.897 45.9284 110.045 45.8387 110.149 45.7763C110.247 45.715 110.294 45.6843 110.294 45.6843Z" fill="#263238"/>
<path d="M96.6942 45.1689L97.8 43.9961L100.147 45.8018L103.631 41.9648L104.771 43.029L100.093 47.9627L96.6942 45.1689Z" fill="#E83F93"/>
<path d="M127.172 110.629H17.6899V116.34H127.172V110.629Z" fill="#455A64"/>
<path d="M29.411 116.115H25.7186V169.056H29.411V116.115Z" fill="#263238"/>
<path d="M73.1565 116.115H69.4641V169.056H73.1565V116.115Z" fill="#263238"/>
<path d="M116.902 116.115H113.209V169.056H116.902V116.115Z" fill="#263238"/>
<path d="M75.8431 108.159C73.6907 106.492 70.7976 105.734 68.0601 106.122L67.1607 107.153C67.2585 107.595 67.6453 107.918 68.0189 108.193C69.0589 108.96 70.1859 109.636 71.4212 110.06C72.6565 110.484 74.0092 110.646 75.2927 110.384C75.8674 110.267 76.5122 109.968 76.5957 109.41C76.6701 108.91 76.2525 108.476 75.8431 108.159Z" fill="#FAFAFA"/>
<g opacity="0.3">
<path d="M74.6167 109.629C74.8309 109.625 75.0812 109.596 75.1902 109.419C75.3351 109.183 75.1171 108.898 74.9056 108.715C73.0629 107.117 70.4633 106.357 68.0043 106.695L67.7832 107.003C69.5774 108.698 72.0972 109.666 74.6167 109.629Z" fill="black"/>
</g>
<path d="M68.589 100.518C66.588 98.7586 63.8332 97.9008 61.118 97.8653C60.016 97.8509 58.8759 97.9747 57.9183 98.4979C57.7007 98.6168 57.4838 98.7678 57.3879 98.9897C57.2758 99.249 57.3533 99.5488 57.4784 99.8025C57.7931 100.442 58.3882 100.924 59.0438 101.249C59.6994 101.573 60.4189 101.757 61.1319 101.939C63.1587 102.454 65.1859 102.97 67.2128 103.485L67.8776 104.61C68.3032 104.33 68.7331 104.044 69.0751 103.673C69.4168 103.302 69.6671 102.829 69.6637 102.334C69.6583 101.618 69.1398 101.003 68.589 100.518Z" fill="#FAFAFA"/>
<g opacity="0.3">
<path d="M67.106 102.691L67.5528 101.736C67.1688 101.187 66.5502 100.663 65.937 100.362C65.3238 100.06 64.6609 99.8631 63.9991 99.6778C62.8717 99.3624 61.7308 99.0759 60.5641 98.9466C60.3206 98.9197 60.073 98.8997 59.8322 98.944C59.5919 98.9884 59.3562 99.105 59.2213 99.3007C59.0183 99.5954 59.0904 100.005 59.3011 100.295C59.5118 100.584 59.8349 100.777 60.155 100.952C62.2639 102.101 64.6821 102.776 67.106 102.691Z" fill="black"/>
</g>
<path d="M67.8906 104.716C67.8544 104.547 67.1765 102.191 65.2005 101.123C63.6436 100.282 61.8005 100.579 61.0001 101.109C60.1997 101.638 58.0993 103.521 58.1871 105C58.1871 105 58.2834 108.057 59.4228 109.065C60.5622 110.073 63.411 111.456 65.8326 110.338C68.2546 109.22 68.3571 106.908 67.8906 104.716Z" fill="white"/>
<path d="M44.9022 106.782C46.1317 106.22 47.4159 105.767 48.7325 105.431L49.5587 103.158C49.296 102.837 48.8777 102.66 48.4563 102.604C48.0349 102.547 47.6066 102.601 47.1875 102.671C45.4823 102.957 43.8372 103.519 42.2645 104.213C41.835 104.402 41.3782 104.632 41.1829 105.045C40.9556 105.525 41.1663 106.101 41.5007 106.52C41.8007 106.896 42.2144 107.206 42.6967 107.307C43.4516 107.466 44.205 107.101 44.9022 106.782Z" fill="white"/>
<path d="M50.2416 110.866C50.4092 110.728 50.5247 110.518 50.4985 110.307L47.6182 108.429C46.9749 108.025 46.2149 107.816 45.4511 107.73C44.6873 107.644 43.915 107.676 43.147 107.719C42.4748 107.758 41.7595 107.821 41.228 108.217C40.7126 108.601 40.4603 109.279 40.5947 109.891C40.7292 110.504 41.2384 111.024 41.8643 111.202C42.4698 111.374 43.1165 111.241 43.7417 111.154C44.6561 111.028 45.5855 111.003 46.5057 111.08C47.5546 111.168 48.6262 111.386 49.6458 111.134C49.8603 111.081 50.0741 111.005 50.2416 110.866Z" fill="white"/>
<path d="M55.7744 110.737C57.3166 110.242 59.1347 109.069 60.4898 108.248L59.4567 104.867C57.6487 103.996 58.7199 104.069 56.7054 103.651C56.7054 103.651 56.6087 103.545 56.1646 103.33C54.7398 102.638 51.9749 102.345 50.5501 102.793C49.3014 103.186 48.2167 103.963 47.6343 105.008C47.0404 106.073 46.9048 107.345 47.3786 108.44C47.9548 109.772 49.3842 110.728 50.9592 111.08C52.5346 111.432 54.2321 111.232 55.7744 110.737Z" fill="white"/>
<path d="M52.9194 102.561C52.8227 102.206 52.8609 101.753 52.9556 101.396C52.978 101.312 53.0003 101.209 52.9337 101.15C52.8963 101.118 52.842 101.111 52.7915 101.106C52.4942 101.078 52.1961 101.057 51.8972 101.045C51.7727 101.04 51.6341 101.04 51.5416 101.12C51.4565 101.194 51.4369 101.313 51.4265 101.423C51.3791 101.916 51.3282 102.125 51.4457 102.607L52.9194 102.561Z" fill="#E83F93"/>
<path d="M55.016 102.924C55.0152 102.926 54.9956 102.923 54.959 102.915C54.915 102.905 54.8627 102.893 54.7991 102.878C54.7302 102.861 54.645 102.842 54.546 102.821C54.4474 102.799 54.335 102.775 54.2098 102.752C53.711 102.656 53.0103 102.558 52.2338 102.576C51.4565 102.59 50.7643 102.745 50.2871 102.911C50.049 102.996 49.8588 103.072 49.7324 103.136C49.6735 103.163 49.625 103.185 49.5841 103.204C49.5499 103.219 49.5314 103.226 49.5302 103.224C49.5291 103.222 49.5456 103.212 49.578 103.193C49.6173 103.172 49.6643 103.146 49.7213 103.115C49.8445 103.045 50.0336 102.962 50.2713 102.871C50.7485 102.693 51.4476 102.53 52.2319 102.516C53.0153 102.497 53.7202 102.603 54.2186 102.71C54.3438 102.736 54.4563 102.763 54.5541 102.788C54.6527 102.813 54.7371 102.835 54.8053 102.856C54.8677 102.875 54.9193 102.891 54.962 102.904C54.9982 102.915 55.0167 102.922 55.016 102.924Z" fill="black"/>
<path d="M52.1945 101.84C52.1999 101.739 52.1698 101.638 52.1109 101.554C52.0728 101.501 52.0019 101.451 51.9426 101.482C51.9095 101.499 51.8925 101.538 51.8925 101.574C51.8925 101.61 51.906 101.645 51.9199 101.679C52.0008 101.873 52.1078 102.057 52.2373 102.225C52.2438 102.233 52.2515 102.242 52.2623 102.244C52.2804 102.248 52.2946 102.231 52.3043 102.216C52.4002 102.069 52.5 101.91 52.493 101.736C52.4907 101.677 52.4668 101.609 52.4079 101.592C52.3451 101.574 52.2827 101.626 52.2546 101.683C52.2265 101.74 52.2172 101.805 52.1802 101.857" fill="#F5F5F5"/>
<path d="M58.9144 103.627C58.8816 103.203 58.6394 102.818 58.3562 102.49C57.4422 101.431 56.0972 100.82 54.957 99.9863C54.5187 99.6658 54.08 99.2973 53.5365 99.2068C53.055 99.1267 52.5308 99.2991 52.2188 99.6599C51.9068 100.021 51.829 100.559 52.0466 100.979C52.2719 101.413 52.748 101.666 53.1963 101.892C54.7047 102.653 56.2131 103.414 57.7211 104.176L58.3 104.66C58.7187 104.516 58.9471 104.052 58.9144 103.627Z" fill="white"/>
<path d="M58.9144 103.628C58.9144 103.628 58.9402 103.743 58.8974 103.957C58.8743 104.063 58.83 104.194 58.7414 104.329C58.6517 104.461 58.5119 104.602 58.3058 104.675L58.2969 104.678L58.2896 104.672C58.1186 104.53 57.9229 104.368 57.7084 104.19L57.7122 104.193C56.9561 103.813 55.987 103.328 54.875 102.77C54.3188 102.49 53.7268 102.192 53.1082 101.881C52.8012 101.723 52.4799 101.552 52.2296 101.287C52.1059 101.155 52.0054 100.998 51.9484 100.824C51.8929 100.65 51.8787 100.464 51.9048 100.282C51.9499 99.9643 52.1198 99.6652 52.3755 99.4699C52.6286 99.2716 52.9475 99.1675 53.2618 99.1586C53.5788 99.1509 53.882 99.2513 54.1412 99.3935C54.4028 99.5353 54.6315 99.7103 54.8553 99.8764C55.3002 100.211 55.7513 100.493 56.1711 100.759C56.5917 101.025 56.9819 101.277 57.3213 101.529C58.0027 102.03 58.4726 102.54 58.7014 102.947C58.8165 103.15 58.8693 103.325 58.8928 103.444C58.9163 103.563 58.9144 103.628 58.9144 103.628C58.9132 103.628 58.9105 103.612 58.9063 103.582C58.9024 103.551 58.8944 103.505 58.8809 103.447C58.8535 103.33 58.7977 103.158 58.6802 102.959C58.4472 102.56 57.9757 102.058 57.2943 101.564C56.9546 101.314 56.5644 101.065 56.1426 100.801C55.7216 100.537 55.2679 100.256 54.8199 99.9204C54.5957 99.7546 54.3681 99.5818 54.1123 99.4437C53.8585 99.3052 53.5669 99.2099 53.2642 99.2177C52.9629 99.2266 52.6571 99.3274 52.416 99.5164C52.1725 99.7025 52.0115 99.9861 51.968 100.29C51.943 100.464 51.9568 100.641 52.0092 100.806C52.0632 100.971 52.1583 101.119 52.2769 101.247C52.5173 101.502 52.832 101.671 53.1378 101.829C53.7556 102.141 54.3469 102.441 54.9023 102.722C56.0113 103.285 56.9773 103.776 57.7315 104.159L57.7334 104.16L57.735 104.162C57.948 104.341 58.1421 104.505 58.3116 104.648L58.2958 104.645C58.4941 104.578 58.6317 104.443 58.7214 104.316C58.81 104.185 58.8562 104.058 58.8816 103.954C58.9071 103.849 58.9109 103.767 58.914 103.712C58.914 103.686 58.914 103.665 58.914 103.649C58.9132 103.635 58.9144 103.628 58.9144 103.628Z" fill="#263238"/>
<path d="M52.5277 101.265C52.5257 101.254 52.6594 101.244 52.8512 101.16C53.0407 101.08 53.2872 100.91 53.4394 100.64C53.59 100.37 53.6019 100.079 53.5677 99.8833C53.5345 99.6843 53.4698 99.5713 53.4806 99.5665C53.4841 99.5647 53.5033 99.5909 53.5303 99.6429C53.5573 99.6946 53.5888 99.7736 53.6116 99.8756C53.6586 100.076 53.6543 100.383 53.4949 100.669C53.3342 100.954 53.0696 101.127 52.8686 101.2C52.7673 101.237 52.6814 101.256 52.6213 101.263C52.5616 101.27 52.5281 101.269 52.5277 101.265Z" fill="black"/>
<path d="M65.1204 104.102C64.9633 104.155 64.7911 104.076 64.7353 103.926C64.6794 103.775 64.7618 103.61 64.9186 103.557C65.0758 103.503 65.2479 103.582 65.3038 103.733C65.3596 103.883 65.2776 104.048 65.1204 104.102Z" fill="#263238"/>
<path d="M65.6582 105.562C65.501 105.615 65.3284 105.536 65.273 105.386C65.2171 105.235 65.2996 105.07 65.4563 105.017C65.6135 104.963 65.7857 105.042 65.8415 105.193C65.8974 105.343 65.8153 105.508 65.6582 105.562Z" fill="#263238"/>
<path d="M61.014 106.237C61.0125 106.233 61.0483 106.214 61.1146 106.183C61.1808 106.152 61.2783 106.109 61.3992 106.058C61.6415 105.957 61.9797 105.825 62.3583 105.692C62.7373 105.56 63.0848 105.451 63.3378 105.379C63.4646 105.343 63.5674 105.316 63.639 105.298C63.7107 105.281 63.7507 105.273 63.7523 105.277C63.755 105.286 63.6009 105.338 63.3513 105.42C63.1021 105.502 62.7577 105.617 62.3799 105.749C62.002 105.882 61.6623 106.007 61.4162 106.098C61.1704 106.189 61.0179 106.245 61.014 106.237Z" fill="black"/>
<path d="M67.9812 107.786C67.98 107.786 67.9808 107.774 67.9835 107.752C67.9866 107.727 67.9908 107.695 67.9962 107.655C68.0097 107.57 68.0247 107.443 68.0424 107.281C68.0759 106.956 68.1033 106.481 68.0563 105.899C68.0078 105.318 67.8749 104.628 67.5891 103.906C67.3106 103.185 66.8407 102.442 66.1635 101.834C65.8242 101.531 65.4529 101.277 65.0642 101.087C64.6752 100.897 64.2715 100.77 63.8767 100.701C63.0855 100.561 62.3467 100.637 61.7655 100.8C61.4755 100.887 61.2224 100.992 61.0117 101.105C60.9073 101.163 60.813 101.222 60.7274 101.277C60.6462 101.338 60.5687 101.39 60.5044 101.444C60.4424 101.499 60.3869 101.548 60.338 101.591C60.291 101.634 60.2564 101.677 60.2256 101.708C60.197 101.737 60.1743 101.761 60.1562 101.78C60.1404 101.795 60.1316 101.804 60.1308 101.803C60.13 101.802 60.137 101.793 60.1512 101.776C60.1682 101.756 60.1893 101.73 60.2159 101.699C60.2456 101.667 60.2787 101.623 60.3245 101.578C60.3723 101.534 60.427 101.483 60.4879 101.426C60.5514 101.371 60.6284 101.317 60.7093 101.254C60.7948 101.197 60.8892 101.136 60.994 101.076C61.2055 100.959 61.4597 100.85 61.7524 100.759C62.3383 100.589 63.0848 100.508 63.8871 100.646C64.2869 100.714 64.6971 100.842 65.0923 101.034C65.4867 101.226 65.8631 101.483 66.2067 101.789C66.8923 102.405 67.3657 103.158 67.6438 103.886C67.9292 104.615 68.0582 105.311 68.1014 105.896C68.1426 106.482 68.1083 106.958 68.0675 107.283C68.0459 107.446 68.027 107.572 68.0093 107.657C68.0016 107.696 67.9954 107.728 67.9904 107.753C67.985 107.775 67.982 107.786 67.9812 107.786Z" fill="black"/>
<path d="M64.2688 104.392C64.2283 104.339 64.1709 104.283 64.1043 104.296C64.0508 104.307 64.0192 104.358 63.9949 104.405C63.8863 104.617 63.7966 104.838 63.7272 105.064C63.7041 105.139 63.6833 105.221 63.7114 105.295C63.7326 105.351 63.7784 105.394 63.8251 105.433C64.0419 105.616 64.2973 105.757 64.5711 105.846C64.6686 105.878 64.7672 105.798 64.7503 105.701C64.6732 105.262 64.5134 104.712 64.2688 104.392Z" fill="#E83F93"/>
<path d="M48.1247 109.482C48.1231 109.483 48.1016 109.461 48.0619 109.417C48.0222 109.374 47.964 109.309 47.8963 109.221C47.7587 109.046 47.5719 108.78 47.4005 108.421C47.2291 108.064 47.0785 107.61 47.0373 107.087C47.0196 106.827 47.0311 106.551 47.0858 106.271C47.1378 105.991 47.2307 105.709 47.3508 105.431C47.5931 104.875 47.9444 104.394 48.3473 104.042C48.7463 103.691 49.1358 103.403 49.4917 103.206C49.8464 103.007 50.158 102.89 50.3772 102.826C50.487 102.794 50.5729 102.772 50.6322 102.761C50.6911 102.748 50.7219 102.742 50.7227 102.745C50.7246 102.751 50.6006 102.777 50.3853 102.849C50.17 102.92 49.8634 103.041 49.5152 103.243C49.1654 103.443 48.7826 103.732 48.3874 104.084C47.9933 104.432 47.6486 104.907 47.4098 105.455C47.1683 106.003 47.0577 106.57 47.0958 107.084C47.1328 107.598 47.2773 108.049 47.4417 108.404C47.6062 108.761 47.7857 109.029 47.9167 109.207C48.0469 109.386 48.1301 109.478 48.1247 109.482Z" fill="black"/>
<path d="M50.4512 106.029C50.4515 106.039 50.2482 106.044 49.9235 106.081C49.5991 106.117 49.1531 106.193 48.6778 106.337C48.2028 106.483 47.7926 106.667 47.5061 106.817C47.2191 106.967 47.05 107.076 47.0442 107.067C47.0419 107.064 47.082 107.033 47.1567 106.982C47.231 106.93 47.3427 106.86 47.4845 106.78C47.7676 106.619 48.179 106.426 48.6589 106.28C49.1388 106.134 49.591 106.064 49.9192 106.038C50.0833 106.025 50.2166 106.02 50.3083 106.022C50.4003 106.022 50.4512 106.024 50.4512 106.029Z" fill="black"/>
<path d="M67.7697 101.407C67.7855 101.415 67.6411 101.731 67.4469 102.113C67.2532 102.496 67.0833 102.799 67.0675 102.792C67.0517 102.785 67.1962 102.469 67.3899 102.087C67.5841 101.704 67.7539 101.4 67.7697 101.407Z" fill="black"/>
<path d="M59.3489 108.41C59.3454 108.412 59.3215 108.388 59.2807 108.341C59.2395 108.294 59.1852 108.223 59.1232 108.131C58.9991 107.949 58.8539 107.677 58.7546 107.357C58.6559 107.037 58.6228 106.733 58.6228 106.515C58.6224 106.406 58.6274 106.318 58.6355 106.257C58.6428 106.197 58.649 106.164 58.6536 106.164C58.664 106.165 58.6559 106.299 58.6675 106.514C58.6787 106.729 58.718 107.025 58.815 107.34C58.9129 107.655 59.0484 107.924 59.1613 108.109C59.2738 108.295 59.3574 108.404 59.3489 108.41Z" fill="black"/>
<path d="M43.2325 106.608C43.2213 106.611 43.1862 106.471 43.083 106.265C42.9817 106.059 42.8061 105.786 42.5411 105.548C42.2776 105.309 41.9848 105.148 41.7526 105.107C41.5188 105.062 41.3759 105.13 41.3736 105.117C41.3724 105.115 41.4044 105.095 41.471 105.077C41.5369 105.059 41.6382 105.048 41.7607 105.065C42.0076 105.097 42.3153 105.26 42.585 105.504C42.8569 105.749 43.0318 106.033 43.1242 106.247C43.172 106.354 43.1989 106.445 43.2163 106.508C43.2305 106.572 43.2367 106.607 43.2325 106.608Z" fill="black"/>
<path d="M54.1889 113.021C54.5264 112.91 54.8268 112.716 55.1188 112.519C56.2497 111.757 57.3259 110.917 58.3 109.976C58.6247 109.663 58.9471 109.324 59.0935 108.905C59.2398 108.486 59.1643 107.965 58.7992 107.695L57.448 107.881C56.3244 108.64 53.9467 110.177 52.8231 110.936C52.6224 111.072 52.4113 111.219 52.3216 111.438C52.2168 111.694 52.3035 111.985 52.4248 112.233C52.5812 112.553 52.8104 112.86 53.1443 113.01C53.4675 113.154 53.8515 113.133 54.1889 113.021Z" fill="white"/>
<path d="M54.6088 112.485C54.5965 112.485 54.6084 112.339 54.5418 112.12C54.4782 111.904 54.3145 111.611 54.0164 111.414C53.7171 111.219 53.3735 111.178 53.1401 111.199C52.9028 111.219 52.7653 111.282 52.7611 111.271C52.7596 111.267 52.7919 111.249 52.8551 111.224C52.9182 111.199 53.0138 111.172 53.1351 111.156C53.3751 111.123 53.7364 111.158 54.0518 111.364C54.3662 111.572 54.5302 111.883 54.5849 112.109C54.6138 112.224 54.6215 112.319 54.62 112.384C54.6188 112.449 54.6123 112.485 54.6088 112.485Z" fill="black"/>
<path d="M97.3409 123.036L97.2842 121.03C97.2842 121.03 103.475 121.303 103.44 121.368C103.404 121.433 102.748 124.428 102.748 124.428L99.3773 125.478L97.3409 123.036Z" fill="#E0E0E0"/>
<path d="M96.6475 126.02C96.701 126.482 102.184 131.164 103.719 132.411C103.96 132.607 104.288 132.686 104.602 132.627C105.162 132.522 105.494 132.013 105.326 131.517L102.939 124.303C102.948 124.202 102.832 123.924 103.075 123.337C102.186 123.593 99.2852 123.299 97.31 122.482L97.1263 123.625L96.5635 125.331C96.5635 125.331 96.5678 125.765 96.6475 126.02Z" fill="#455A64"/>
<path d="M102.162 127.97C102.205 128.002 102.488 127.661 102.978 127.443C103.464 127.216 103.918 127.22 103.92 127.168C103.933 127.125 103.437 127.037 102.9 127.285C102.36 127.528 102.118 127.952 102.162 127.97Z" fill="#263238"/>
<path d="M101.818 127.024C101.861 127.055 102.144 126.715 102.634 126.496C103.12 126.27 103.575 126.274 103.576 126.222C103.589 126.178 103.093 126.091 102.556 126.339C102.017 126.582 101.774 127.006 101.818 127.024Z" fill="#263238"/>
<path d="M104.83 132.557C104.407 132.793 103.937 132.615 103.69 132.412C99.4374 128.927 96.9091 126.79 96.3178 125.909L96.6402 125.101L104.83 132.557Z" fill="#E0E0E0"/>
<path d="M101.438 126.072C101.481 126.103 101.765 125.763 102.255 125.544C102.74 125.318 103.195 125.322 103.196 125.27C103.21 125.226 102.713 125.139 102.176 125.387C101.637 125.63 101.395 126.054 101.438 126.072Z" fill="#263238"/>
<path d="M107.427 123.036L107.37 121.03C107.37 121.03 113.561 121.303 113.525 121.368C113.49 121.433 112.833 124.428 112.833 124.428L109.463 125.478L107.427 123.036Z" fill="#E0E0E0"/>
<path d="M106.733 126.02C106.787 126.482 112.27 131.164 113.805 132.411C114.046 132.607 114.373 132.686 114.687 132.627C115.248 132.522 115.58 132.013 115.412 131.517L113.024 124.303C113.033 124.202 112.917 123.924 113.16 123.337C112.271 123.593 109.371 123.299 107.396 122.482L107.212 123.625L106.649 125.331C106.649 125.331 106.653 125.765 106.733 126.02Z" fill="#455A64"/>
<path d="M112.247 127.97C112.29 128.002 112.574 127.661 113.063 127.443C113.549 127.216 114.003 127.22 114.005 127.168C114.018 127.125 113.522 127.037 112.985 127.285C112.446 127.528 112.204 127.952 112.247 127.97Z" fill="#263238"/>
<path d="M111.904 127.024C111.947 127.055 112.23 126.715 112.72 126.496C113.205 126.27 113.66 126.274 113.661 126.222C113.675 126.178 113.178 126.091 112.641 126.339C112.102 126.582 111.86 127.006 111.904 127.024Z" fill="#263238"/>
<path d="M114.915 132.557C114.492 132.793 114.023 132.615 113.775 132.412C109.523 128.927 106.995 126.79 106.403 125.909L106.725 125.101L114.915 132.557Z" fill="#E0E0E0"/>
<path d="M111.524 126.072C111.567 126.103 111.85 125.763 112.34 125.544C112.826 125.318 113.28 125.322 113.282 125.27C113.295 125.226 112.799 125.139 112.262 125.387C111.723 125.63 111.481 126.054 111.524 126.072Z" fill="#263238"/>
<path d="M88.7922 77.792C88.8557 76.1673 88.9193 74.5426 88.9825 72.9179C89.0788 70.4535 89.1743 67.1161 90.1315 64.8685C91.5424 61.5555 96.1919 59.8326 99.7841 60.1797C103.051 60.495 104.81 61.331 106.331 64.2987C107.853 67.2664 108.163 72.4242 108.144 75.7331C108.142 76.205 108.121 76.7097 107.847 77.0845C107.557 77.4804 107.052 77.6388 106.581 77.7747C104.294 78.4353 102.007 79.0959 99.7194 79.7561L95.5456 79.1435C93.8142 79.7332 91.9179 79.8514 90.1053 79.4821C89.6823 79.3961 89.2247 79.2569 88.9821 78.8928C88.7706 78.5763 88.7772 78.1694 88.7922 77.792Z" fill="#263238"/>
<path d="M105.554 65.8673C104.986 63.4572 101.914 61.4566 99.4968 62.1123L94.7644 63.822C93.0376 64.4457 92.0277 66.2133 92.3805 67.9946L93.6474 70.6429L95.6349 82.1478L95.2528 82.3556C95.2528 82.3556 96.8228 87.4783 101.251 86.4529C105.229 85.5316 103.477 80.9827 103.477 80.9813L102.913 77.9641C102.913 77.9641 106.866 77.103 106.834 72.9371C106.817 70.8659 106.184 68.5455 105.554 65.8673Z" fill="#FFBF9D"/>
<path d="M105.359 69.5916C105.415 69.8652 105.227 70.137 104.939 70.1994C104.651 70.2618 104.371 70.0915 104.315 69.8183C104.259 69.545 104.447 69.2729 104.734 69.2101C105.023 69.1477 105.303 69.3183 105.359 69.5916Z" fill="#263238"/>
<path d="M105.219 68.2385C105.169 68.3086 104.777 68.0915 104.27 68.1628C103.762 68.2267 103.423 68.5413 103.36 68.4862C103.33 68.4622 103.375 68.3419 103.522 68.2004C103.666 68.0597 103.924 67.9069 104.24 67.8648C104.557 67.8231 104.837 67.9036 105.005 68.0025C105.177 68.1018 105.244 68.2067 105.219 68.2385Z" fill="#263238"/>
<path d="M100.626 70.4158C100.682 70.689 100.494 70.9612 100.206 71.0236C99.9178 71.086 99.6385 70.9157 99.5823 70.6425C99.526 70.3692 99.714 70.0971 100.002 70.0343C100.29 69.9719 100.57 70.1429 100.626 70.4158Z" fill="#263238"/>
<path d="M99.9967 68.9426C99.9463 69.0127 99.5549 68.7956 99.0476 68.8669C98.54 68.9307 98.201 69.2454 98.1378 69.1903C98.1074 69.1663 98.1525 69.046 98.2996 68.9045C98.4444 68.7638 98.7017 68.611 99.0184 68.5689C99.3346 68.5272 99.6154 68.6077 99.7833 68.7066C99.9547 68.8059 100.022 68.9108 99.9967 68.9426Z" fill="#263238"/>
<path d="M102.299 72.515C102.293 72.491 102.638 72.3836 103.2 72.2292C103.343 72.1927 103.477 72.1472 103.49 72.0675C103.512 71.9818 103.432 71.8733 103.342 71.7569C103.164 71.5129 102.978 71.2573 102.784 70.9896C102.576 70.7112 101.516 69.1205 101.481 68.9558C101.542 68.927 102.223 69.791 103.003 70.8859C103.192 71.1565 103.373 71.4143 103.545 71.6613C103.619 71.7773 103.736 71.9035 103.688 72.0819C103.661 72.1713 103.564 72.2495 103.475 72.2846C103.385 72.3223 103.304 72.3374 103.233 72.3529C102.662 72.4759 102.306 72.5394 102.299 72.515Z" fill="#263238"/>
<path d="M102.944 77.9672C102.944 77.9672 100.204 78.5924 97.1853 77.4111C97.1853 77.4111 99.0561 80.0816 103.112 79.0333L102.944 77.9672Z" fill="#F584BC"/>
<path d="M99.9085 67.5296C99.8723 67.7131 99.3616 67.664 98.7765 67.7999C98.1887 67.9207 97.728 68.1821 97.6371 68.0263C97.5963 67.9517 97.6668 67.7763 97.8466 67.588C98.025 67.4004 98.3181 67.2132 98.6698 67.1356C99.0214 67.0592 99.3527 67.1098 99.5773 67.2095C99.803 67.3092 99.9232 67.4428 99.9085 67.5296Z" fill="#263238"/>
<path d="M105.089 66.4667C105.022 66.6398 104.579 66.5815 104.09 66.6904C103.597 66.7798 103.216 67.0036 103.082 66.871C103.022 66.8053 103.05 66.6413 103.196 66.4578C103.339 66.2754 103.608 66.0908 103.945 66.0224C104.283 65.9549 104.606 66.0206 104.813 66.1321C105.022 66.244 105.117 66.3836 105.089 66.4667Z" fill="#263238"/>
<path d="M92.3208 69.5536C92.1102 68.5777 92.0304 68.2239 92.0489 67.227C92.0674 66.23 92.5581 65.0908 93.2114 64.3309C93.7329 63.7246 94.5753 62.9166 95.3164 62.6017C96.4804 62.1076 97.0493 61.7014 99.4355 61.7468C100.445 61.766 100.573 61.5973 101.539 61.8779L102.217 62.101C101.929 63.9018 96.8822 68.5566 95.004 69.5245C95.0137 70.1688 95.0553 70.6293 94.9898 71.2707C94.9617 71.5483 94.8912 71.8382 94.6924 72.0369C94.4424 72.2865 94.0318 72.3312 93.6979 72.2097C93.3635 72.0882 93.2488 71.8884 93.0492 71.5971C92.6301 70.9841 92.4768 70.2763 92.3208 69.5536Z" fill="#263238"/>
<path d="M93.6077 70.8667C93.6077 70.8667 90.9939 70.335 91.5112 72.7972C92.0281 75.2594 94.4282 74.2454 94.4178 74.1738C94.407 74.1021 93.6077 70.8667 93.6077 70.8667Z" fill="#FFBF9D"/>
<path d="M93.4591 73.3945C93.4463 73.3889 93.4217 73.4332 93.3554 73.4812C93.2907 73.5281 93.1717 73.5754 93.0319 73.5536C92.748 73.5115 92.4391 73.1434 92.3339 72.7021C92.2804 72.4791 92.2835 72.256 92.327 72.0633C92.3651 71.8676 92.4572 71.718 92.5851 71.6682C92.711 71.6113 92.8216 71.6708 92.8663 71.7339C92.914 71.796 92.9086 71.8484 92.9225 71.8499C92.931 71.8547 92.9676 71.7978 92.926 71.7003C92.9056 71.6534 92.864 71.6014 92.7954 71.5659C92.7253 71.5301 92.6321 71.5234 92.5416 71.5519C92.3517 71.6039 92.2153 71.8137 92.1675 72.0256C92.1094 72.2405 92.1009 72.492 92.161 72.7424C92.2812 73.2353 92.6363 73.6478 93.0188 73.6777C93.2037 73.6873 93.3393 73.6057 93.4028 73.5322C93.4672 73.455 93.4687 73.397 93.4591 73.3945Z" fill="#F584BC"/>
<path d="M102.187 73.7604C102.195 73.7807 102.085 73.855 101.875 73.8904C101.667 73.9266 101.354 73.9078 101.064 73.749C100.774 73.5895 100.598 73.3402 100.525 73.1508C100.45 72.9588 100.461 72.8299 100.484 72.8273C100.512 72.8221 100.548 72.937 100.646 73.0958C100.741 73.2542 100.91 73.4558 101.158 73.592C101.406 73.7276 101.673 73.7645 101.863 73.763C102.055 73.7626 102.177 73.7346 102.187 73.7604Z" fill="#263238"/>
<path d="M95.9315 68.248C95.0595 71.8845 95.5252 75.8019 97.2277 79.1573C96.7901 79.0764 96.3414 79.1688 95.8965 79.1968C95.452 79.2245 94.9605 79.1688 94.65 78.8626C94.3789 78.5953 94.3084 78.2002 94.2544 77.8309C93.8246 74.8817 93.6378 71.9003 93.6967 68.923" fill="#263238"/>
<path d="M95.8965 79.1959C95.9015 79.194 95.8826 79.1239 95.8425 78.9917C95.7963 78.8465 95.7359 78.6553 95.66 78.4167C95.4901 77.9042 95.2532 77.189 94.9624 76.312C94.6993 75.421 94.5583 74.3143 94.4347 73.0899C94.3157 71.8632 94.2282 70.5102 94.1693 69.089C94.1635 68.9335 94.1578 68.7792 94.1527 68.6359L94.1108 68.7035C95.3965 68.0776 96.5012 67.287 97.4083 66.482C98.3193 65.6785 99.0496 64.8739 99.6327 64.1812C100.216 63.4877 100.657 62.9069 100.955 62.5018C101.105 62.3002 101.216 62.1403 101.292 62.0325C101.368 61.9243 101.405 61.866 101.401 61.8634C101.397 61.8604 101.352 61.9132 101.268 62.0159C101.177 62.1307 101.058 62.281 100.908 62.469C100.596 62.8633 100.142 63.4338 99.5511 64.1166C98.9594 64.7986 98.2241 65.5918 97.3147 66.3834C96.4091 67.1766 95.3129 67.9546 94.0422 68.5724L93.9983 68.5938L93.9998 68.64C94.0052 68.784 94.0106 68.9391 94.0164 69.0949C94.0753 70.5187 94.1674 71.8735 94.2945 73.1031C94.427 74.3313 94.578 75.4391 94.8592 76.343C95.1696 77.2152 95.4227 77.9267 95.6041 78.4363C95.6912 78.6715 95.7613 78.8595 95.814 79.0024C95.8633 79.1309 95.8915 79.1977 95.8965 79.1959Z" fill="#455A64"/>
<path d="M92.7804 68.6618C92.8285 68.5281 92.9614 68.4351 93.1024 68.3937C93.2437 68.3524 93.394 68.3542 93.5415 68.3564C94.2298 68.3671 94.9316 68.3797 95.5822 68.5953C95.9712 68.6755 95.9015 69.0226 95.858 69.1282C95.8144 69.2338 95.7058 69.3047 95.5918 69.3353C95.4778 69.3656 95.3572 69.3619 95.2386 69.3578C94.7205 69.3401 94.2025 69.3224 93.684 69.3047C93.4645 69.2969 93.2357 69.2873 93.0431 69.1858C92.8505 69.0839 92.7087 68.8608 92.7804 68.6618Z" fill="#E83F93"/>
<g opacity="0.3">
<path d="M98.637 72.0553C98.7229 71.9006 98.9209 71.8201 99.0908 71.7562C99.2341 71.7374 99.3789 71.7182 99.5226 71.7326C99.6662 71.747 99.8115 71.7987 99.9089 71.901C100.006 72.0032 100.046 72.162 99.9809 72.2857C99.9293 72.3839 99.8238 72.4452 99.719 72.4899C99.5441 72.5649 99.3554 72.6096 99.1643 72.621C98.9906 72.6313 98.7984 72.607 98.6794 72.4851C98.5554 72.3577 98.5515 72.2097 98.637 72.0553Z" fill="#F584BC"/>
</g>
<path d="M95.3117 80.2217C94.9053 80.2217 90.4977 81.7519 89.522 83.0675C88.5464 84.3832 88.8079 100.831 88.8079 100.831L108.157 100.246L107.587 89.9416L109.051 84.3145C109.051 84.3145 107.018 81.3911 103.278 80.7335C103.278 80.7335 102.547 81.8298 100.026 81.318C97.5065 80.8062 95.3117 80.2217 95.3117 80.2217Z" fill="#E0E0E0"/>
<path d="M114.688 101.54L116.447 109.052L111.051 108.671L108.387 100.658L114.688 101.54Z" fill="#FFBF9D"/>
<path d="M109.051 84.3145C111.078 88.7629 113.149 95.2403 115.23 102.146L111.653 103.474L107.588 99.7345L106.612 88.1879L109.051 84.3145Z" fill="#E0E0E0"/>
<path d="M120.714 110.347C120.714 110.347 120.904 110.029 120.382 109.711C119.86 109.392 119.433 109.165 119.433 109.165C119.433 109.165 119.622 108.028 118.863 107.982C118.104 107.937 115.494 107.982 115.494 107.982L111.556 108.63C111.556 108.63 111.416 109.539 112.743 110.12C115.728 111.429 115.747 110.665 115.747 110.665L115.305 110.029C115.305 110.029 116.112 110.757 116.633 110.712C117.155 110.666 117.535 110.166 117.535 110.166C117.535 110.166 117.583 110.898 118.247 110.714C118.911 110.53 119.054 109.848 119.054 109.848C119.054 109.848 119.338 110.711 120.714 110.347Z" fill="#FFBF9D"/>
<path d="M87.8685 100.841C87.9497 100.105 86.971 105.993 88.6797 108.134C90.3887 110.275 92.1771 110.877 96.3232 110.877L96.2477 122.457L104.063 122.685C104.063 122.685 105.51 112.817 105.916 109.706C106.323 106.595 107.461 105.479 102.745 103.261L101.445 102.848L101.282 100.105L87.8685 100.841Z" fill="#E83F93"/>
<path d="M97.5689 99.8853C97.6502 99.1494 96.6714 105.037 98.3801 107.178C100.089 109.319 101.878 109.921 106.024 109.921L106.066 121.966L114.683 122.495C115.51 114.61 115.188 112.911 115.636 109.484C116.042 106.373 116.334 103.528 112.446 102.305L108.156 100.656L108.084 98.7568L97.5689 99.8853Z" fill="#E83F93"/>
<path d="M88.048 101.111C88.3592 101.092 93.5919 99.6382 93.984 98.4344C94.3757 97.2307 95.4878 89.5867 95.4878 89.5867L107.525 89.2256L108.21 100.527L104.018 103.189L88.048 101.111Z" fill="#E83F93"/>
<path d="M91.1498 81.8296C91.1498 81.8296 94.2321 84.1998 95.2755 86.2994C96.3194 88.399 96.3194 90.5883 96.3194 90.5883H99.0029C99.0029 90.5883 98.2638 83.4487 92.8454 81.0342L91.1498 81.8296Z" fill="#E83F93"/>
<path d="M104.236 80.7207C105.187 84.0514 105.403 87.2783 104.707 90.376H106.809C107.471 88.9455 106.688 82.3218 106.244 81.6442C106.204 81.5825 105.072 81.0287 104.236 80.7207Z" fill="#E83F93"/>
<path d="M99.1805 102.471C99.182 102.458 99.3638 102.465 99.6916 102.49C100.019 102.517 100.493 102.559 101.075 102.65C101.656 102.743 102.35 102.885 103.077 103.177C103.797 103.468 104.562 103.915 105.145 104.6C105.732 105.285 106.008 106.114 106.104 106.86C106.201 107.613 106.126 108.289 106.076 108.85C106.016 109.412 105.945 109.862 105.893 110.173C105.84 110.484 105.803 110.655 105.79 110.653C105.776 110.651 105.786 110.478 105.816 110.164C105.844 109.851 105.893 109.398 105.935 108.838C105.967 108.28 106.025 107.609 105.92 106.884C105.818 106.162 105.546 105.372 104.989 104.722C104.435 104.07 103.702 103.632 103.004 103.34C102.301 103.048 101.621 102.893 101.05 102.784C100.477 102.677 100.006 102.614 99.6824 102.565C99.3581 102.516 99.179 102.485 99.1805 102.471Z" fill="#263238"/>
<path d="M106.747 101.749C106.755 101.809 105.895 101.861 104.977 102.317C104.052 102.76 103.502 103.395 103.456 103.354C103.411 103.334 103.916 102.613 104.886 102.145C105.851 101.669 106.757 101.702 106.747 101.749Z" fill="#263238"/>
<path d="M106.8 100.686C106.802 100.699 106.637 100.731 106.336 100.779C106.036 100.828 105.6 100.881 105.058 100.932C103.976 101.035 102.469 101.1 100.809 101.016C99.1489 100.931 97.6578 100.715 96.5924 100.503C96.0597 100.397 95.6314 100.3 95.3383 100.221C95.0448 100.143 94.8845 100.094 94.888 100.082C94.8915 100.069 95.0579 100.093 95.356 100.148C95.6534 100.204 96.0848 100.281 96.6186 100.369C97.686 100.546 99.1701 100.74 100.82 100.824C102.469 100.907 103.966 100.865 105.047 100.797C105.588 100.764 106.025 100.731 106.327 100.704C106.629 100.68 106.798 100.673 106.8 100.686Z" fill="#263238"/>
<path d="M97.9468 90.2572C97.9468 90.4924 97.7345 90.6833 97.473 90.6833C97.2114 90.6833 96.9992 90.4928 96.9992 90.2572C96.9992 90.022 97.2114 89.8311 97.473 89.8311C97.7345 89.8314 97.9468 90.022 97.9468 90.2572Z" fill="#263238"/>
<path d="M106.244 89.9271C106.244 90.1623 106.032 90.3532 105.77 90.3532C105.509 90.3532 105.296 90.1623 105.296 89.9271C105.296 89.6919 105.509 89.501 105.77 89.501C106.032 89.501 106.244 89.6919 106.244 89.9271Z" fill="#263238"/>
<path d="M90.7423 110.769C90.7423 110.769 90.9322 110.451 90.4103 110.132C89.8884 109.814 89.4612 109.587 89.4612 109.587C89.4612 109.587 89.6511 108.449 88.8919 108.404C88.1327 108.359 85.5231 108.404 85.5231 108.404L81.585 109.052C81.585 109.052 81.4448 109.96 82.7714 110.542C85.7565 111.851 85.7754 111.087 85.7754 111.087L85.3336 110.451C85.3336 110.451 86.1402 111.179 86.6621 111.134C87.184 111.088 87.5634 110.588 87.5634 110.588C87.5634 110.588 87.6108 111.32 88.2752 111.136C88.9397 110.952 89.0818 110.269 89.0818 110.269C89.0818 110.269 89.3665 111.133 90.7423 110.769Z" fill="#FFBF9D"/>
<path d="M83.3438 101.539L81.585 109.051L86.9806 108.67L89.6449 100.657L83.3438 101.539Z" fill="#FFBF9D"/>
<path d="M82.1855 102.122C82.1855 102.122 84.2327 95.2841 85.5119 91.2463C87.9501 83.5499 89.8283 82.7412 89.8283 82.7412C89.8283 82.7412 93.6751 86.7133 93.8411 89.2674C94.0067 91.8216 90.7762 100.964 89.118 103.48L82.1855 102.122Z" fill="#E0E0E0"/>
<path d="M94.041 90.1407C94.0541 90.1448 94.0036 90.3379 93.9012 90.6831C93.7837 91.0612 93.6315 91.5512 93.4486 92.1409C93.0399 93.3994 92.4956 95.0762 91.8936 96.9294C91.6039 97.867 91.3493 98.7694 91.0774 99.5799C90.8074 100.391 90.5231 101.111 90.2381 101.695C89.9546 102.281 89.675 102.731 89.4693 103.032C89.2566 103.33 89.1276 103.486 89.1176 103.479C89.1053 103.471 89.2123 103.301 89.4026 102.993C89.5864 102.682 89.844 102.226 90.1083 101.64C90.3737 101.054 90.6418 100.336 90.9006 99.5268C91.1614 98.7177 91.4098 97.816 91.701 96.8744C92.3046 94.9986 92.892 93.3192 93.313 92.0992C93.5206 91.5173 93.6932 91.0332 93.8264 90.6602C93.952 90.322 94.0275 90.1366 94.041 90.1407Z" fill="#263238"/>
<path d="M94.2563 87.2929C94.222 87.3025 94.1184 86.9491 93.8434 86.4288C93.7121 86.1656 93.5156 85.8731 93.2853 85.5592C93.0434 85.2528 92.7522 84.9341 92.4125 84.6335C91.7284 84.0324 90.985 83.638 90.4265 83.4083C89.866 83.1794 89.4951 83.0915 89.5032 83.059C89.5063 83.0461 89.6014 83.0572 89.772 83.0882C89.9434 83.1159 90.1861 83.182 90.4788 83.282C91.0628 83.4837 91.8424 83.8714 92.5477 84.4914C92.8982 84.8015 93.1944 85.1342 93.4351 85.4555C93.6643 85.7849 93.853 86.0932 93.9713 86.3705C94.0961 86.6441 94.1766 86.8738 94.2136 87.0366C94.254 87.1987 94.2694 87.2892 94.2563 87.2929Z" fill="#263238"/>
<path d="M158.031 157.968L157.768 169.537L141.868 169.314C141.984 167.94 150.257 165.294 150.257 165.294L150.09 157.876L158.031 157.968Z" fill="#455A64"/>
<path d="M155.184 164.739C155.491 164.82 155.698 165.136 155.622 165.416C155.545 165.697 155.192 165.891 154.884 165.815C154.576 165.739 154.314 165.367 154.425 165.096C154.535 164.825 154.964 164.618 155.243 164.758" fill="white"/>
<path d="M157.768 169.56L157.802 168.321L142.504 168.635C142.504 168.635 141.793 168.908 141.869 169.36L157.768 169.56Z" fill="#263238"/>
<path d="M150.001 165.218C150.002 165.288 150.39 165.326 150.768 165.557C151.153 165.779 151.344 166.086 151.416 166.06C151.488 166.047 151.38 165.625 150.917 165.352C150.455 165.076 149.985 165.153 150.001 165.218Z" fill="#263238"/>
<path d="M148.322 165.818C148.303 165.886 148.638 166.011 148.896 166.312C149.165 166.606 149.226 166.928 149.303 166.926C149.376 166.938 149.437 166.527 149.107 166.158C148.781 165.787 148.325 165.751 148.322 165.818Z" fill="#263238"/>
<path d="M147.344 167.613C147.414 167.629 147.528 167.279 147.335 166.891C147.146 166.502 146.782 166.345 146.748 166.403C146.703 166.461 146.935 166.67 147.089 166.991C147.25 167.308 147.267 167.605 147.344 167.613Z" fill="#263238"/>
<path d="M150.17 163.524C150.201 163.588 150.559 163.496 150.997 163.529C151.437 163.554 151.776 163.692 151.817 163.633C151.863 163.582 151.534 163.318 151.017 163.285C150.501 163.249 150.132 163.468 150.17 163.524Z" fill="#263238"/>
<path d="M165.968 148.964L173.241 158.478L160.212 166.732C159.417 165.557 164.409 159.025 164.409 159.025L159.473 153.102L165.968 148.964Z" fill="#455A64"/>
<path d="M168.043 155.962C168.344 155.864 168.716 156.011 168.836 156.279C168.956 156.546 168.795 156.891 168.496 156.993C168.198 157.095 167.744 156.932 167.659 156.654C167.573 156.375 167.786 155.98 168.103 155.946" fill="white"/>
<path d="M173.258 158.498L172.484 157.476L160.29 165.845C160.29 165.845 159.89 166.443 160.244 166.769L173.258 158.498Z" fill="#263238"/>
<path d="M164.152 159.099C164.198 159.155 164.537 158.98 164.993 158.967C165.449 158.943 165.803 159.09 165.844 159.03C165.894 158.982 165.533 158.697 164.981 158.722C164.429 158.742 164.097 159.055 164.152 159.099Z" fill="#263238"/>
<path d="M163.181 160.476C163.209 160.541 163.561 160.465 163.965 160.571C164.373 160.667 164.631 160.896 164.692 160.853C164.759 160.825 164.542 160.459 164.037 160.335C163.533 160.207 163.14 160.42 163.181 160.476Z" fill="#263238"/>
<path d="M163.549 162.449C163.616 162.424 163.482 162.08 163.075 161.869C162.67 161.654 162.273 161.72 162.284 161.785C162.284 161.855 162.608 161.902 162.94 162.08C163.275 162.251 163.482 162.483 163.549 162.449Z" fill="#263238"/>
<path d="M163.192 157.635C163.26 157.671 163.49 157.407 163.867 157.201C164.239 156.988 164.603 156.92 164.598 156.85C164.603 156.785 164.165 156.745 163.725 156.993C163.283 157.237 163.126 157.61 163.192 157.635Z" fill="#263238"/>
<path d="M136.399 109.178C136.13 110.34 135.45 120.261 135.049 125.492C134.648 130.724 135.142 133.318 135.765 134.508C136.388 135.699 160.803 153.009 162.574 157.046L169.026 152.601C169.026 152.601 160.26 137.287 156.376 134.446C152.493 131.605 144.991 128.885 144.991 128.885L148.076 100.255L137.731 99.4688L136.399 109.178Z" fill="#263238"/>
<path d="M135.604 98.2257C135.582 98.9029 133.821 115.964 139.593 128.487C139.593 128.487 141.606 132.411 141.926 134.114C142.245 135.817 149.342 164.057 149.342 164.057L158.58 163.996C158.58 163.996 160.511 149.99 159.278 141.824C158.045 133.657 155.282 134.533 155.452 129.285C155.621 124.036 157.35 113.187 157.35 113.187C157.35 113.187 159.462 110.267 160.336 104.522C161.045 99.8541 158.775 94.775 158.775 94.775L156.491 90.8527L136.164 89.3477L135.604 98.2257Z" fill="#263238"/>
<path d="M135.604 98.2254C135.604 98.2254 135.608 98.0286 135.628 97.6442C135.649 97.2558 135.681 96.6845 135.723 95.936C135.813 94.4287 135.945 92.2103 136.116 89.3452L136.119 89.2998L136.169 89.3035C141.164 89.6661 148.103 90.1701 156.498 90.7794L156.542 90.7827L156.563 90.8185C157.273 92.0352 158.051 93.3668 158.851 94.7385L158.854 94.7426L158.855 94.7456C159.418 96.0904 159.862 97.5165 160.169 99.0119C160.483 100.504 160.634 102.073 160.527 103.675C160.363 105.273 160.023 106.881 159.542 108.496C159.042 110.103 158.42 111.724 157.436 113.238L157.451 113.201C157.01 116.039 156.592 118.98 156.22 122.008C156.035 123.523 155.866 125.06 155.732 126.618C155.664 127.397 155.608 128.182 155.576 128.971C155.548 129.367 155.568 129.76 155.563 130.156C155.595 130.549 155.604 130.946 155.686 131.335C155.813 132.119 156.099 132.876 156.487 133.599C156.873 134.323 157.309 135.041 157.669 135.796C158.404 137.305 158.86 138.927 159.174 140.572C159.803 143.873 159.84 147.288 159.77 150.723C159.64 155.262 159.242 159.709 158.69 164.009L158.679 164.097L158.581 164.098C155.432 164.117 152.349 164.137 149.343 164.156L149.254 164.157L149.235 164.079C146.865 154.619 144.653 145.778 142.709 137.829C142.471 136.834 142.236 135.854 142.004 134.888C141.884 134.401 141.81 133.917 141.661 133.456C141.515 132.992 141.341 132.537 141.161 132.088C140.794 131.192 140.396 130.323 139.987 129.475C139.884 129.264 139.781 129.054 139.678 128.844C139.57 128.638 139.469 128.426 139.387 128.211C139.209 127.784 139.034 127.361 138.86 126.942C137.513 123.574 136.76 120.318 136.253 117.352C135.264 111.404 135.263 106.585 135.315 103.3C135.398 100.008 135.604 98.2254 135.604 98.2254C135.604 98.2254 135.602 98.3373 135.59 98.5563C135.577 98.7793 135.557 99.1039 135.531 99.53C135.477 100.387 135.422 101.656 135.391 103.3C135.363 106.584 135.385 111.398 136.392 117.332C136.907 120.291 137.667 123.537 139.017 126.888C139.19 127.305 139.366 127.725 139.543 128.15C139.626 128.365 139.725 128.572 139.834 128.78C139.938 128.99 140.042 129.201 140.146 129.412C140.557 130.261 140.958 131.132 141.329 132.032C141.511 132.483 141.686 132.941 141.836 133.412C141.99 133.885 142.066 134.377 142.185 134.853C142.418 135.819 142.655 136.798 142.895 137.792C144.878 145.733 147.086 154.574 149.449 164.035L149.342 163.958C152.348 163.937 155.431 163.916 158.579 163.895L158.47 163.984C159.019 159.693 159.416 155.248 159.545 150.719C159.616 147.29 159.577 143.885 158.953 140.607C158.641 138.971 158.191 137.366 157.465 135.877C157.11 135.13 156.678 134.419 156.288 133.685C155.895 132.953 155.598 132.169 155.469 131.366C155.385 130.967 155.376 130.563 155.343 130.162C155.348 129.762 155.329 129.36 155.357 128.964C155.39 128.171 155.447 127.384 155.515 126.603C155.65 125.042 155.821 123.503 156.008 121.987C156.383 118.956 156.804 116.015 157.249 113.175L157.252 113.157L157.265 113.137C158.225 111.663 158.856 110.042 159.351 108.449C159.831 106.849 160.172 105.239 160.337 103.664C160.445 102.082 160.3 100.526 159.99 99.043C159.689 97.5589 159.248 96.1347 158.694 94.8054L158.698 94.8124C157.9 93.4391 157.126 92.1061 156.418 90.888L156.484 90.9267C148.091 90.2931 141.153 89.7695 136.16 89.3925L136.213 89.3508C136.022 92.2147 135.874 94.4324 135.773 95.9386C135.72 96.6867 135.68 97.2576 135.653 97.6457C135.625 98.0294 135.604 98.2254 135.604 98.2254Z" fill="#455A64"/>
<path d="M135.727 39.4148L130.372 34.5602C131.089 33.6497 130.798 32.2391 129.916 31.4718C129.035 30.7045 127.727 30.5162 126.56 30.741C124.871 31.0664 123.379 32.2192 122.688 33.7324C122.314 34.5503 122.128 35.5089 121.412 36.0794C120.782 36.5808 119.896 36.6502 119.173 37.0176C118.203 37.5099 117.601 38.5179 117.41 39.5537C117.219 40.5894 117.389 41.6558 117.651 42.6776C117.891 43.6151 118.202 44.6269 117.808 45.5153C117.424 46.3816 116.476 46.8764 115.866 47.6138C114.717 49.0011 115.064 51.2923 116.577 52.3092C117.059 52.6334 117.663 52.8727 117.905 53.3874C118.126 53.8575 117.969 54.4029 117.997 54.918C118.068 56.2436 119.63 57.2883 120.952 56.895C121.62 56.6963 122.225 56.2008 122.92 56.2706C123.611 56.34 124.091 56.9349 124.662 57.3126C125.787 58.0556 127.467 57.8846 128.405 56.9327C128.797 56.5342 129.105 55.9981 129.653 55.8408C130.2 55.6838 130.79 55.9696 131.352 55.8784C132.089 55.7592 132.551 55.0402 132.748 54.349C132.943 53.6581 132.977 52.9144 133.326 52.2812C133.782 51.4522 134.687 50.9625 135.441 50.3662C137.106 49.0491 138.135 47.0215 138.189 44.9529C138.244 42.884 137.321 40.8095 135.727 39.4148Z" fill="#263238"/>
<path d="M140.842 54.009L133.94 38.1746C133.676 37.3859 132.061 36.0277 131.218 36.2124L124.28 36.7611C121.507 37.3681 120.856 41.1109 121.607 43.7411C122.44 46.663 123.578 50.1994 124.694 52.2174C126.938 56.2758 130.835 55.6127 130.835 55.6127C130.831 55.5979 132.212 58.6716 132.212 58.6716L135.583 62.8755L140.842 54.009Z" fill="#FFBF9D"/>
<path d="M124.244 47.1563C124.337 47.4506 124.673 47.6175 124.996 47.53C125.317 47.4425 125.503 47.1338 125.41 46.8395C125.317 46.5456 124.98 46.3783 124.659 46.4655C124.337 46.553 124.151 46.862 124.244 47.1563Z" fill="#263238"/>
<path d="M123.048 45.3022C123.145 45.3509 123.47 44.8993 124.088 44.6981C124.703 44.4887 125.265 44.6446 125.306 44.55C125.328 44.5072 125.209 44.4012 124.962 44.3281C124.719 44.2546 124.34 44.2303 123.955 44.358C123.571 44.4865 123.296 44.7284 123.16 44.9285C123.02 45.1305 123.002 45.2815 123.048 45.3022Z" fill="#263238"/>
<path d="M129.498 45.3643C129.592 45.6586 129.928 45.8255 130.25 45.738C130.572 45.6505 130.758 45.3418 130.665 45.0475C130.572 44.7536 130.235 44.5863 129.913 44.6735C129.591 44.761 129.405 45.0704 129.498 45.3643Z" fill="#263238"/>
<path d="M129.16 43.4192C129.257 43.4676 129.583 43.016 130.201 42.8151C130.815 42.6057 131.377 42.7616 131.419 42.667C131.44 42.6242 131.322 42.5182 131.075 42.4455C130.831 42.372 130.452 42.3473 130.068 42.475C129.684 42.6035 129.409 42.8454 129.272 43.0455C129.133 43.2475 129.114 43.3985 129.16 43.4192Z" fill="#263238"/>
<path d="M128.487 48.5469C128.478 48.5122 128.071 48.5746 127.422 48.7028C127.259 48.739 127.098 48.7578 127.035 48.6633C126.959 48.5661 126.967 48.3815 126.981 48.1803C126.998 47.7656 127.016 47.331 127.036 46.8757C127.098 45.0231 127.085 43.521 127.008 43.5195C126.93 43.5177 126.816 45.0176 126.754 46.8698C126.742 47.3254 126.731 47.7597 126.721 48.1751C126.722 48.3664 126.689 48.5949 126.851 48.7954C126.934 48.8944 127.079 48.9384 127.189 48.9313C127.301 48.928 127.39 48.9003 127.47 48.8789C128.108 48.7061 128.497 48.5813 128.487 48.5469Z" fill="#263238"/>
<path d="M130.835 55.6129C130.835 55.6129 133.642 54.8932 136.012 52.1943C136.012 52.1943 136.032 55.813 131.407 56.882L130.835 55.6129Z" fill="#F584BC"/>
<path d="M128.017 41.0703C128.135 41.2113 128.725 40.9325 129.48 40.7786C130.231 40.6098 130.888 40.6213 130.933 40.4451C130.951 40.362 130.795 40.2439 130.503 40.1656C130.213 40.0869 129.787 40.0618 129.335 40.1582C128.883 40.2553 128.509 40.4525 128.281 40.6419C128.052 40.8321 127.963 41.0023 128.017 41.0703Z" fill="#263238"/>
<path d="M122.538 43.1925C122.695 43.2914 123.071 43.0119 123.58 42.8373C124.083 42.6456 124.557 42.6175 124.607 42.444C124.626 42.3613 124.51 42.249 124.275 42.1837C124.043 42.1179 123.693 42.1168 123.346 42.2424C122.998 42.3687 122.737 42.5902 122.608 42.7867C122.476 42.9842 122.467 43.1423 122.538 43.1925Z" fill="#263238"/>
<path d="M118.272 43.9205C118.229 43.2104 118.372 42.4668 118.812 41.894C119.054 41.5802 119.377 41.3258 119.584 40.9901C120.031 40.2649 119.842 39.3495 119.967 38.5157C120.129 37.4412 120.868 36.4619 121.883 35.9801C122.727 35.579 123.73 35.5067 124.505 34.9927C125.077 34.6127 125.476 34.0208 126.071 33.6741C127.23 32.9987 128.725 33.4407 129.964 33.9709C130.302 34.8258 129.814 35.654 129.344 36.4494C128.873 37.2447 128.022 37.823 127.083 37.9844C126.355 38.1095 125.479 38.0475 125.025 38.6077C124.547 39.1966 124.872 40.1028 124.5 40.7582C123.969 41.695 122.479 41.53 121.591 42.1721C120.905 42.668 120.7 43.5476 120.42 44.3259C120.14 45.1043 119.593 45.9451 118.736 46.0024C118.525 45.3204 118.314 44.6306 118.272 43.9205Z" fill="#263238"/>
<path d="M126.227 36.9385C126.727 36.5844 127.736 35.8263 127.854 35.2532C128.111 34.0092 128.99 32.907 130.188 32.547C131.386 32.1873 132.86 32.6714 133.564 33.7732C134.988 33.2736 136.708 33.6315 137.892 34.6735C138.04 34.8038 138.179 34.9442 138.308 35.093C139.043 35.6801 139.493 36.5859 139.485 37.5035C139.481 38.0573 139.362 38.7146 139.799 39.0761C140.245 39.4443 140.919 39.2187 141.507 39.2039C142.529 39.1777 143.506 39.9649 143.655 40.9353C143.709 41.2835 143.674 41.6627 143.87 41.9604C144.074 42.2702 144.466 42.3994 144.799 42.5792C145.626 43.0257 146.174 43.9119 146.186 44.8217C146.198 45.7316 145.673 46.6303 144.858 47.0967C144.487 47.309 144.049 47.4479 143.784 47.7747C143.48 48.1495 143.485 48.6672 143.345 49.1224C143.077 49.9957 142.189 50.6585 141.24 50.6944C141.048 50.7014 140.857 50.6766 140.671 50.6353C140.543 51.0854 140.218 51.4753 139.503 51.7323L136.169 42.7196C136.154 42.9404 136.05 43.1715 135.77 43.348C134.398 44.211 133.022 41.3286 133.043 40.4058C132.32 40.1388 131.589 39.8674 130.946 39.4295C130.303 38.9916 129.314 37.5234 129.121 36.7716C128.594 36.9965 126.008 37.0943 126.227 36.9385Z" fill="#263238"/>
<path d="M136.042 43.596C135.734 42.6688 136.82 42.0574 137.821 42.218C138.37 42.3062 138.913 42.6855 139.249 43.6666C140.144 46.2827 137.219 46.6051 137.189 46.532C137.17 46.4862 136.403 44.6817 136.042 43.596Z" fill="#FFBF9D"/>
<path d="M137.684 45.2778C137.693 45.2656 137.742 45.2948 137.835 45.3047C137.925 45.3147 138.068 45.2959 138.192 45.1999C138.446 45.0079 138.538 44.4924 138.39 44.0168C138.316 43.7764 138.186 43.5663 138.034 43.406C137.885 43.241 137.71 43.1475 137.556 43.1686C137.401 43.1819 137.327 43.2978 137.319 43.3817C137.307 43.4662 137.342 43.5131 137.33 43.5223C137.324 43.5312 137.256 43.4969 137.241 43.382C137.234 43.3266 137.246 43.2546 137.292 43.1845C137.34 43.1128 137.428 43.0567 137.532 43.0353C137.748 42.9832 138.001 43.1092 138.168 43.2845C138.347 43.4574 138.499 43.6922 138.582 43.9621C138.745 44.495 138.633 45.0765 138.275 45.3103C138.1 45.4188 137.92 45.4137 137.817 45.3778C137.71 45.3398 137.676 45.2855 137.684 45.2778Z" fill="#F584BC"/>
<path d="M129.656 34.914C129.647 34.9483 129.956 34.8907 130.361 35.1518C130.764 35.4073 131.127 36.0443 131.254 36.8626L131.265 36.9327L131.337 36.9246C132.064 36.8448 132.994 37.0885 133.64 37.7654C133.796 37.9338 133.934 38.1321 134.024 38.344C134.111 38.5619 134.159 38.8052 134.206 39.0548C134.254 39.3048 134.299 39.5648 134.39 39.8247C134.47 40.0832 134.655 40.3502 134.9 40.5086C135.425 40.876 136.056 40.9233 136.609 40.9905C137.172 41.0462 137.701 41.1193 138.163 41.3261C139.094 41.7242 139.722 42.4457 140.01 43.1248C140.307 43.8108 140.318 44.4334 140.277 44.8444C140.236 45.2602 140.152 45.4817 140.171 45.4869C140.178 45.4891 140.202 45.4352 140.241 45.3299C140.276 45.2236 140.325 45.0644 140.356 44.8536C140.421 44.4367 140.435 43.7942 140.143 43.0734C139.86 42.3589 139.215 41.5912 138.24 41.1633C137.756 40.9406 137.19 40.859 136.632 40.8018C136.079 40.7349 135.48 40.6788 135.021 40.3531C134.57 40.0688 134.504 39.5105 134.402 39.0205C134.353 38.7701 134.303 38.5179 134.205 38.2757C134.099 38.0331 133.951 37.8271 133.78 37.6443C133.076 36.922 132.089 36.6824 131.319 36.7817L131.402 36.8441C131.251 35.9926 130.853 35.3412 130.406 35.085C130.188 34.9561 129.988 34.9155 129.857 34.9074C129.724 34.9048 129.656 34.9066 129.656 34.914Z" fill="white"/>
<path d="M131.282 48.249C130.694 48.6194 129.943 49.1973 129.49 49.7072C129.553 50.0296 130.334 50.5122 130.676 50.5288C131.018 50.5454 131.446 50.3364 131.632 50.061C131.819 49.7859 131.854 49.4074 131.793 49.0846C131.732 48.7619 131.488 48.5116 131.282 48.249Z" fill="#F584BC"/>
<path d="M130.779 50.5365C130.768 50.5037 131.089 50.4741 131.424 50.1603C131.585 50.0056 131.741 49.777 131.786 49.4952C131.835 49.2161 131.763 48.8874 131.569 48.6164C131.479 48.4938 131.369 48.3897 131.247 48.3118L131.362 48.3055C130.399 49.0558 129.649 49.5979 129.618 49.5621C129.587 49.5263 130.286 48.9244 131.239 48.1611L131.293 48.1172L131.354 48.1548C131.498 48.2446 131.628 48.3657 131.732 48.5079C131.956 48.8214 132.034 49.2013 131.967 49.5252C131.903 49.8527 131.709 50.1012 131.519 50.2589C131.12 50.5779 130.772 50.5539 130.779 50.5365Z" fill="#263238"/>
<path d="M138.361 43.715C138.322 43.5762 138.234 43.4518 138.119 43.3705C137.768 43.2136 137.466 43.3288 137.271 43.5755C137.156 43.7209 137.102 43.9218 137.175 44.0906C137.243 44.249 137.404 44.349 137.556 44.4391C137.848 44.6131 138.14 44.7866 138.432 44.9602C138.498 44.5462 138.474 44.1194 138.361 43.715Z" fill="#455A64"/>
<path d="M153.844 80.4064C153.844 80.4064 152.596 73.9858 152.086 71.5384C150.764 65.1965 150.459 63.5972 148.938 60.4046C147.416 57.2117 139.042 53.9072 139.042 53.9072L132.06 58.7784C132.06 58.7784 128.442 72.5919 129.665 77.3627C130.818 81.8598 133.79 86.0653 135.685 90.1086L134.904 107.115C134.904 107.115 152.712 106.865 156.397 105.71L159.169 102.941L153.844 80.4064Z" fill="#E83F93"/>
<path d="M110.124 89.8145C110.124 91.128 109.013 92.1925 107.643 92.1925C106.273 92.1925 105.163 91.128 105.163 89.8145C105.163 88.5011 106.273 87.4365 107.643 87.4365C109.013 87.4365 110.124 88.5011 110.124 89.8145Z" fill="#E0E0E0"/>
<path d="M107.643 92.2016C106.27 92.2016 105.153 91.1308 105.153 89.8144C105.153 88.498 106.27 87.4268 107.643 87.4268C109.016 87.4268 110.133 88.4976 110.133 89.8144C110.133 91.1308 109.016 92.2016 107.643 92.2016ZM107.643 87.4456C106.281 87.4456 105.172 88.5083 105.172 89.8144C105.172 91.1204 106.281 92.1828 107.643 92.1828C109.005 92.1828 110.114 91.1204 110.114 89.8144C110.114 88.5083 109.005 87.4456 107.643 87.4456Z" fill="#263238"/>
<path d="M109.631 89.8149C109.631 90.8673 108.741 91.7206 107.643 91.7206C106.545 91.7206 105.655 90.8673 105.655 89.8149C105.655 88.7625 106.545 87.9092 107.643 87.9092C108.741 87.9092 109.631 88.7622 109.631 89.8149Z" fill="#263238"/>
<path d="M130.127 61.7822L130.009 61.6504C129.919 61.5503 127.811 59.1538 127.411 55.0824L127.795 55.0477C128.131 58.4685 129.744 60.7128 130.188 61.2726C133.71 58.6284 136.68 53.2871 137.77 50.7998C138.773 48.5089 138.533 45.7225 138.116 44.8064C138.014 44.5815 137.939 44.5502 137.939 44.5498L137.947 44.1816C138.095 44.1816 138.228 44.2666 138.344 44.4338C138.898 45.2329 139.244 48.3893 138.125 50.9431C137.006 53.4965 133.924 59.0268 130.271 61.6769L130.127 61.7822Z" fill="#455A64"/>
<path d="M160.661 94.8535C159.668 91.0495 154.626 75.8136 154.626 75.8136C154.626 75.8136 150.545 63.1467 150.138 61.906C148.638 57.3372 140.966 53.4737 140.966 53.4737L139.771 51.626L137.53 55.0342C137.53 55.0342 134.493 63.4421 133.612 70.0315C133.275 72.5498 133.544 77.9812 134.267 79.6177C137.155 86.158 137.54 92.1591 137.54 92.1591L139.538 134.046L152.535 133.105L152.682 127.539L153.751 133.232L167.157 131.29C166.856 130.808 162.482 101.828 160.661 94.8535Z" fill="#FAFAFA"/>
<path d="M160.661 94.853C160.661 94.853 160.72 95.0679 160.824 95.4896C160.93 95.9109 161.084 96.5383 161.255 97.3665C161.618 99.0193 162.088 101.467 162.658 104.62C163.229 107.772 163.892 111.631 164.64 116.107C165.011 118.345 165.408 120.737 165.829 123.271C166.04 124.538 166.257 125.84 166.479 127.178C166.594 127.846 166.709 128.522 166.827 129.207C166.888 129.549 166.949 129.892 167.011 130.238C167.074 130.585 167.141 130.935 167.222 131.252L167.248 131.351L167.168 131.362C163.041 131.963 158.527 132.619 153.763 133.312L153.681 133.325L153.666 133.246C153.333 131.478 152.967 129.535 152.594 127.554L152.77 127.541C152.725 129.271 152.676 131.173 152.626 133.107L152.624 133.186L152.541 133.192C148.414 133.492 144.041 133.81 139.544 134.138L139.445 134.145L139.441 134.05C138.999 124.807 138.52 114.793 138.024 104.424C137.915 102.134 137.807 99.8616 137.699 97.6087C137.646 96.4825 137.592 95.3611 137.539 94.2452C137.476 93.1278 137.468 92.0175 137.309 90.9252C137.025 88.7348 136.549 86.5905 135.943 84.5098C135.63 83.4722 135.299 82.4453 134.908 81.4457C134.724 80.9417 134.512 80.4498 134.305 79.958C134.085 79.4728 133.922 78.9385 133.827 78.4197C133.625 77.3736 133.525 76.3238 133.454 75.2814C133.386 74.2386 133.36 73.2006 133.379 72.17C133.388 71.6545 133.41 71.1413 133.453 70.6299C133.495 70.117 133.579 69.6137 133.655 69.1115C133.811 68.1079 134.009 67.119 134.218 66.1412C135.091 62.2367 136.216 58.5253 137.447 55.006L137.45 54.9971L137.456 54.9886C138.225 53.8195 138.967 52.6918 139.698 51.5815L139.771 51.4707L139.843 51.5818C140.256 52.2221 140.648 52.8288 141.036 53.4303L141.004 53.4015C142.627 54.2549 144.131 55.2231 145.515 56.2766C146.897 57.3286 148.154 58.491 149.112 59.8258C149.368 60.1493 149.558 60.5097 149.759 60.8597C149.87 61.03 149.932 61.2231 150.012 61.4066C150.085 61.5924 150.17 61.7751 150.233 61.9616C150.474 62.709 150.711 63.4464 150.945 64.1731C151.412 65.6265 151.866 67.0374 152.306 68.404C153.185 71.1372 154.007 73.6928 154.767 76.0542C155.535 78.413 156.24 80.578 156.876 82.5324C158.138 86.4439 159.104 89.5184 159.741 91.619C160.058 92.6696 160.292 93.4771 160.445 94.0222C160.592 94.5694 160.661 94.853 160.661 94.853C160.661 94.853 160.575 94.5738 160.421 94.0292C160.255 93.4842 160.011 92.681 159.693 91.6331C159.041 89.5372 158.06 86.4672 156.784 82.5605C156.142 80.6079 155.431 78.4451 154.656 76.0886C153.89 73.7287 153.062 71.1745 152.176 68.4435C151.734 67.0776 151.277 65.6674 150.807 64.2152C150.572 63.4888 150.333 62.7522 150.091 62.0048C150.028 61.8191 149.945 61.6429 149.873 61.4609C149.794 61.2814 149.735 61.0931 149.625 60.9255C149.426 60.5817 149.239 60.228 148.987 59.9093C148.04 58.5944 146.791 57.4412 145.416 56.3977C144.04 55.3527 142.536 54.3886 140.926 53.5444L140.906 53.5337L140.894 53.5156C140.505 52.9149 140.113 52.3085 139.698 51.6686L139.843 51.669C139.113 52.7801 138.372 53.9085 137.604 55.0783L137.612 55.061C136.388 58.573 135.268 62.2836 134.4 66.1778C134.193 67.153 133.996 68.1389 133.841 69.1384C133.766 69.6388 133.682 70.1399 133.642 70.6446C133.6 71.1505 133.578 71.6608 133.57 72.173C133.551 73.1977 133.578 74.2319 133.646 75.2696C133.717 76.3068 133.818 77.3521 134.017 78.3842C134.116 78.9067 134.263 79.3949 134.485 79.886C134.693 80.38 134.906 80.8745 135.091 81.3804C135.485 82.3844 135.818 83.4157 136.133 84.4577C136.742 86.5473 137.22 88.6994 137.506 90.9012C137.667 92.0027 137.676 93.1216 137.739 94.2345C137.792 95.3507 137.845 96.4718 137.899 97.598C138.007 99.8509 138.115 102.123 138.224 104.413C138.717 114.784 139.194 124.798 139.633 134.041L139.529 133.953C144.027 133.629 148.4 133.314 152.527 133.016L152.443 133.102C152.495 131.168 152.546 129.266 152.593 127.536L152.615 126.702L152.769 127.523C153.14 129.505 153.504 131.448 153.835 133.216L153.738 133.15C158.502 132.463 163.017 131.812 167.145 131.217L167.091 131.327C166.984 130.956 166.927 130.609 166.863 130.263C166.801 129.917 166.74 129.572 166.679 129.23C166.563 128.545 166.449 127.868 166.336 127.199C166.115 125.862 165.901 124.559 165.693 123.291C165.278 120.756 164.886 118.363 164.52 116.125C163.783 111.648 163.132 107.788 162.574 104.633C162.017 101.479 161.56 99.0296 161.212 97.375C161.048 96.5453 160.901 95.9168 160.802 95.4944C160.705 95.0712 160.661 94.853 160.661 94.853Z" fill="#263238"/>
<path d="M145.746 96.8003C145.75 96.7955 145.819 96.7826 145.95 96.7619C146.099 96.7398 146.286 96.7121 146.515 96.6777C147.027 96.6065 147.728 96.509 148.592 96.389C150.35 96.1486 152.79 95.8225 155.564 95.4699L155.486 95.6006C155.226 95.0116 154.954 94.3983 154.678 93.772C154.64 93.6867 154.603 93.6015 154.567 93.5199L154.672 93.5778C150.805 94.0693 147.397 94.4877 145.31 94.7295L145.36 94.6631C145.482 95.3141 145.58 95.8373 145.653 96.2217C145.682 96.3923 145.707 96.5319 145.727 96.646C145.742 96.7431 145.749 96.7963 145.746 96.8003C145.743 96.8044 145.73 96.7601 145.707 96.6692C145.68 96.5599 145.647 96.4259 145.607 96.2623C145.518 95.8731 145.396 95.3436 145.245 94.6845L145.232 94.6265L145.294 94.6176C147.375 94.3289 150.779 93.8795 154.646 93.3866L154.722 93.377L154.752 93.4445C154.788 93.5261 154.825 93.6114 154.863 93.6967C155.139 94.3234 155.409 94.9374 155.668 95.5264L155.719 95.6412L155.59 95.6571C152.775 96.0075 150.3 96.2996 148.54 96.5023C147.682 96.5987 146.986 96.677 146.478 96.7342C146.255 96.7567 146.074 96.7756 145.929 96.79C145.806 96.8014 145.743 96.8051 145.746 96.8003Z" fill="#263238"/>
<path d="M140.942 53.8498C140.952 53.8557 140.869 53.9978 140.713 54.2596C140.558 54.5218 140.333 54.9055 140.066 55.3988C139.534 56.3839 138.848 57.8189 138.291 59.5854L138.277 59.6308L138.229 59.6448C137.756 59.7829 137.261 59.9281 136.752 60.0769L136.755 59.8985C137.11 60.0148 137.486 60.1385 137.87 60.2645L137.965 60.2958L137.931 60.3874C137.815 60.6976 137.692 61.0266 137.567 61.3597C136.605 63.9459 135.784 66.3044 135.2 68.0144C134.915 68.85 134.681 69.5357 134.509 70.0401C134.431 70.2617 134.367 70.4433 134.316 70.5892C134.269 70.7144 134.242 70.779 134.235 70.7771C134.229 70.7753 134.243 70.7066 134.277 70.5781C134.319 70.4293 134.371 70.2443 134.434 70.0183C134.576 69.5335 134.789 68.8341 135.064 67.9734C135.614 66.2515 136.414 63.8839 137.378 61.295C137.503 60.962 137.627 60.6326 137.743 60.3221L137.804 60.445C137.422 60.318 137.045 60.1932 136.691 60.0758L136.404 59.9805L136.695 59.897C137.205 59.7508 137.701 59.609 138.174 59.4731L138.112 59.5326C138.687 57.7565 139.402 56.3219 139.966 55.3467C140.247 54.8586 140.489 54.4819 140.661 54.2286C140.834 53.9764 140.934 53.8446 140.942 53.8498Z" fill="#263238"/>
<path d="M120.836 93.0512C120.562 93.0512 120.296 93.0442 120.04 93.0346C115.793 92.8666 111.625 91.8441 107.595 90.8556L107.691 90.4978C111.702 91.4819 115.85 92.4996 120.057 92.6654C121.603 92.7285 123.563 92.6665 125 91.6555C126.79 90.3974 127.295 88.0759 127.536 86.1938C127.978 82.7435 127.834 81.0176 127.652 78.8331C127.539 77.4779 127.411 75.9418 127.411 73.7315C127.411 70.2734 128.59 66.243 129.451 63.3C129.649 62.6232 129.829 62.0102 129.969 61.4844L130.342 61.5763C130.201 62.1044 130.021 62.7199 129.822 63.3997C128.967 66.322 127.796 70.3243 127.796 73.7315C127.796 75.9274 127.924 77.4554 128.036 78.8039C128.219 81.0095 128.365 82.7516 127.919 86.2389C127.668 88.1948 127.136 90.6119 125.228 91.9538C123.937 92.8607 122.286 93.0512 120.836 93.0512Z" fill="#455A64"/>
<path d="M120.325 85.9187L122.342 91.2762C122.342 91.2762 118.025 91.5697 116.819 92.0221C115.612 92.474 111.75 91.4021 111.75 91.4021C111.75 91.4021 110.609 92.0483 109.707 92.4678C108.805 92.8872 108.048 92.2846 108.048 92.2846C107.297 92.6162 107.102 92.0915 107.102 92.0915C106.338 92.3178 106.126 91.5797 106.126 91.5797L106.932 90.6935L106.505 90.3671C106.505 90.3671 106.827 89.8763 107.671 88.9646C108.515 88.0529 111.574 85.7787 112.321 85.6362C113.102 85.487 117.35 87.197 117.35 87.197L120.325 85.9187Z" fill="#FFBF9D"/>
<path d="M111.545 87.6281C111.541 87.6469 111.219 87.6491 110.717 87.8061C110.472 87.8847 110.161 87.9744 109.889 88.1469C109.61 88.3311 109.347 88.5944 109.07 88.8769C108.512 89.44 107.999 89.9422 107.62 90.2993C107.242 90.6563 106.997 90.8679 106.977 90.8495C106.957 90.8314 107.165 90.5865 107.517 90.2055C107.87 89.8244 108.366 89.3074 108.924 88.7443C109.201 88.463 109.479 88.1904 109.786 87.9999C110.108 87.8105 110.419 87.7411 110.68 87.6746C111.203 87.5476 111.553 87.5937 111.545 87.6281Z" fill="#F584BC"/>
<path d="M112.485 88.7235C112.491 88.7549 112.135 88.8214 111.606 89.0425C111.075 89.2582 110.391 89.6563 109.693 90.1776C108.995 90.6994 108.381 91.2042 107.902 91.5302C107.428 91.8611 107.105 92.0243 107.091 92.0032C107.076 91.9792 107.367 91.7773 107.816 91.4224C108.268 91.072 108.864 90.5535 109.571 90.0251C110.278 89.4967 110.995 89.1046 111.554 88.9163C112.112 88.7217 112.483 88.7025 112.485 88.7235Z" fill="#F584BC"/>
<path d="M112.73 90.1171C112.73 90.15 112.432 90.1463 111.986 90.2822C111.537 90.4114 110.964 90.7098 110.374 91.1101C109.783 91.5114 109.236 91.8822 108.794 92.0764C108.355 92.2777 108.054 92.3223 108.049 92.3005C108.039 92.2714 108.319 92.1816 108.728 91.956C109.141 91.7367 109.662 91.3586 110.259 90.9524C110.857 90.5462 111.469 90.2519 111.948 90.1511C112.427 90.0433 112.733 90.0972 112.73 90.1171Z" fill="#F584BC"/>
<path d="M143.91 57.9918C142.093 57.4933 140.52 58.802 139.402 60.2354C138.372 61.5566 137.659 63.0805 137.236 64.6798L136.347 68.0415L135.315 73.7431C134.911 76.5421 134.349 79.8288 133.885 80.3236C133.056 81.2076 117.724 85.4799 117.724 85.4799L119.442 92.8358C119.442 92.8358 136.174 89.2038 139.828 87.5381C142.237 86.4396 144.487 80.6083 146.086 76.1337C146.588 74.2516 148.702 67.0002 148.827 64.7721C149.171 58.6118 143.91 57.9918 143.91 57.9918Z" fill="#FAFAFA"/>
<path d="M143.91 57.992C143.91 57.992 144.043 57.9979 144.294 58.0551C144.544 58.112 144.917 58.2072 145.373 58.4085C145.825 58.6108 146.384 58.8922 146.921 59.373C147.461 59.8464 147.984 60.5047 148.345 61.3466C148.421 61.5616 148.54 61.7706 148.587 62.0065C148.645 62.2395 148.705 62.4784 148.766 62.7232C148.797 62.9732 148.827 63.2291 148.859 63.4905C148.904 63.7516 148.872 64.0223 148.882 64.2966C148.911 64.8476 148.819 65.4203 148.721 66.0044C148.619 66.5901 148.489 67.1927 148.348 67.8145C147.783 70.3011 147.003 73.089 146.164 76.1519L146.163 76.1552L146.162 76.1578C145.433 78.1935 144.641 80.3636 143.61 82.5744C143.089 83.6755 142.51 84.7925 141.76 85.8467C141.371 86.3607 140.965 86.888 140.409 87.2886C140.132 87.4869 139.821 87.6527 139.503 87.7665L139.027 87.9577L138.541 88.1235C137.241 88.5692 135.896 88.9477 134.525 89.3203C133.155 89.6962 131.754 90.0481 130.333 90.4037C127.49 91.1086 124.557 91.7913 121.56 92.4645C120.858 92.6199 120.159 92.775 119.465 92.9286L119.367 92.9504L119.345 92.8559C118.759 90.3461 118.185 87.8868 117.628 85.5L117.608 85.4136L117.697 85.3888C120.558 84.5875 123.328 83.7885 125.983 82.9916C127.31 82.5928 128.608 82.1937 129.871 81.786C131.127 81.3695 132.376 80.9807 133.508 80.4619C133.644 80.3873 133.783 80.3271 133.855 80.2189C133.934 80.1122 133.99 79.9674 134.041 79.8312C134.143 79.5531 134.223 79.2658 134.294 78.9789C134.438 78.4051 134.553 77.832 134.661 77.2667C134.873 76.1346 135.046 75.0309 135.205 73.9604C135.592 71.8313 135.952 69.8476 136.282 68.0302L136.282 68.0276L136.283 68.0254C136.558 66.9959 136.819 66.0181 137.065 65.0946C137.297 64.1678 137.588 63.3055 137.947 62.5401C138.664 61.0058 139.575 59.8264 140.471 59.0281C141.365 58.2161 142.313 57.8912 142.951 57.872C143.272 57.862 143.515 57.8941 143.673 57.931C143.83 57.9687 143.91 57.992 143.91 57.992C143.908 58.013 143.587 57.8827 142.953 57.9085C142.323 57.9399 141.397 58.2689 140.519 59.0802C139.64 59.8777 138.744 61.056 138.043 62.5814C137.691 63.3443 137.408 64.1962 137.181 65.1238C136.939 66.048 136.683 67.0273 136.413 68.0579L136.414 68.0531C136.091 69.8709 135.738 71.8545 135.359 73.9837C135.204 75.053 135.033 76.1604 134.823 77.2959C134.717 77.8638 134.603 78.4391 134.459 79.0184C134.388 79.3083 134.308 79.5989 134.203 79.888C134.147 80.0324 134.096 80.1768 133.994 80.3179C133.953 80.3939 133.869 80.4416 133.802 80.4933L133.588 80.611C132.428 81.145 131.189 81.5312 129.928 81.9522C128.664 82.3624 127.366 82.7638 126.038 83.1644C123.383 83.9654 120.613 84.767 117.752 85.5705L117.82 85.4594C118.378 87.8459 118.953 90.3051 119.54 92.8145L119.421 92.7418C120.115 92.5878 120.813 92.4331 121.514 92.2777C124.51 91.6045 127.442 90.9232 130.284 90.2202C131.703 89.8657 133.103 89.5149 134.472 89.1408C135.841 88.7701 137.186 88.3931 138.476 87.9522L138.96 87.7882L139.428 87.6007C139.748 87.4858 140.033 87.3326 140.296 87.1461C140.825 86.7673 141.227 86.2499 141.61 85.7459C142.35 84.7087 142.928 83.5994 143.449 82.5046C144.48 80.3057 145.277 78.1404 146.011 76.1083L146.009 76.1143C146.858 73.0502 147.648 70.2689 148.223 67.7883C148.366 67.1683 148.498 66.5679 148.603 65.9856C148.704 65.4029 148.798 64.8424 148.773 64.2962C148.764 64.0248 148.797 63.7564 148.754 63.4987C148.724 63.2398 148.696 62.9869 148.667 62.7398C148.609 62.498 148.552 62.262 148.495 62.032C148.451 61.7982 148.335 61.5922 148.261 61.3799C147.912 60.5479 147.403 59.8951 146.875 59.4225C146.349 58.9424 145.799 58.6574 145.354 58.4502C144.904 58.2438 144.536 58.1419 144.289 58.078C144.165 58.0459 144.07 58.0259 144.006 58.0134C143.942 57.9993 143.91 57.9945 143.91 57.992Z" fill="#263238"/>
</svg>
