<svg width="35" height="75" viewBox="0 0 35 75" fill="none" xmlns="http://www.w3.org/2000/svg">
<path d="M12.6317 36.6391C13.1245 36.7265 25.1832 36.7616 25.6226 36.6162C26.1908 36.428 25.5154 25.095 25.0168 24.3242C24.9699 24.2517 23.6836 22.5522 23.6952 22.4885C21.1349 21.4725 17.965 21.1061 14.6691 21.3119C13.9196 21.3588 12.0771 21.7454 11.8301 21.7568C11.8301 21.7568 12.226 36.5673 12.6317 36.6391Z" fill="#05D3F0"/>
<path d="M9.48961 53.6908C9.70814 56.4639 9.27011 66.958 9.29925 68.0543C9.32839 69.1502 13.2213 68.5775 13.2213 68.5775C13.2213 68.5775 14.2236 56.896 14.5846 53.4854L9.48961 53.6908Z" fill="#F8B78D"/>
<path d="M9.30492 67.3793C8.51624 67.9973 8.15621 71.8043 8.37798 72.4317C8.99086 74.1669 18.1497 74.771 18.116 73.1539C18.094 72.0856 17.3597 71.021 16.5986 70.4307C15.2987 69.4228 14.6923 68.7495 14.6013 68.2361C14.5424 67.9045 14.8661 67.2184 14.7081 66.7661C14.4812 66.117 12.8456 65.9504 12.2424 66.4399C11.7872 66.8089 11.9066 67.2245 11.9432 67.8839C11.9963 68.845 9.38359 69.1395 9.30492 67.3793Z" fill="#E6E9F5"/>
<path d="M17.9672 73.4774C16.7735 74.7144 9.24733 74.0475 8.42109 72.5127C8.42012 72.5147 8.41882 72.5171 8.41785 72.5191C8.27507 72.8635 8.3298 73.1985 8.37772 73.3341C8.9906 75.0693 18.1494 75.6734 18.1158 74.0563C18.1129 73.9095 18.1158 73.5753 17.9694 73.4791C17.9688 73.4791 17.9681 73.4781 17.9672 73.4774Z" fill="#ACB3D8"/>
<path d="M21.1342 52.1423C21.3527 54.9154 20.9146 65.4095 20.9438 66.5058C20.9729 67.6018 24.8597 67.284 24.8597 67.284C24.8597 67.284 26.0537 55.3475 26.4147 51.9365L21.1342 52.1423Z" fill="#F8B78D"/>
<path d="M20.9504 65.8301C20.1617 66.4481 19.8017 70.2551 20.0235 70.8825C20.6364 72.6177 29.7952 73.2219 29.7615 71.6048C29.7395 70.5365 29.0052 69.4719 28.2441 68.8819C26.9442 67.874 26.3381 67.2007 26.2468 66.6873C26.1879 66.3557 26.5116 65.6696 26.3536 65.2172C26.1267 64.5682 24.491 64.4016 23.8879 64.891C23.433 65.2601 23.5522 65.6756 23.5887 66.3351C23.6418 67.2958 21.0291 67.5903 20.9504 65.8301Z" fill="#E6E9F5"/>
<path d="M29.6128 71.9286C28.4191 73.1656 20.893 72.4987 20.0667 70.9639C20.0657 70.9659 20.0645 70.9683 20.0635 70.9703C19.9204 71.3147 19.9754 71.6496 20.0233 71.7856C20.6362 73.5208 29.7951 74.1249 29.7614 72.5078C29.7585 72.3614 29.7614 72.0268 29.615 71.9306C29.6141 71.93 29.6138 71.9293 29.6128 71.9286Z" fill="#ACB3D8"/>
<path d="M5.12627 32.1455C3.81342 36.1053 2.4015 43.0943 2.35844 43.5956C2.28754 44.423 1.71447 45.0531 1.51407 45.5341C1.39007 45.832 1.28517 47.5615 1.54191 48.087C1.832 48.682 2.99139 48.9772 3.8814 49.4859C4.12066 50.1271 4.33823 50.6975 4.67041 50.6938C5.29818 50.6874 5.11331 49.4279 5.21011 48.3319C5.22792 48.1305 5.27777 47.9136 5.32925 47.7389C5.40275 47.4886 5.29623 49.0754 5.79126 49.1361C6.44266 49.183 6.44268 47.1493 6.26105 46.2749C6.13737 45.6795 5.53583 45.2471 5.50475 44.7742C5.47367 44.3009 7.34564 38.7682 7.90186 37.122C8.45808 35.4756 8.80159 34.9787 8.80159 34.9787C8.80159 34.9787 5.56496 32.5199 5.12627 32.1455Z" fill="#FBD1B4"/>
<path d="M7.73293 37.6246C7.79769 37.4334 7.85531 37.2627 7.90258 37.1224C8.4588 35.4759 8.80233 34.979 8.80233 34.979C8.80233 34.979 5.56536 32.5199 5.12667 32.1455C4.70416 33.4192 4.27195 35.0067 3.87793 36.5907C5.23707 36.4767 6.59977 36.8431 7.73293 37.6246Z" fill="#F8B78D"/>
<path d="M9.04981 36.4006C9.46487 35.6703 9.95764 34.7228 10.261 33.5523C13.9778 34.0461 13.3953 22.001 10.0247 22.4922C7.06711 24.7411 4.80338 31.7614 4.46537 32.7009C4.12737 33.64 8.38254 37.5745 9.04981 36.4006Z" fill="#05D3F0"/>
<path d="M29.6914 31.6104C31.2345 35.389 33.0724 42.123 33.1472 42.6104C33.2709 43.4146 33.8725 43.9901 34.0997 44.4461C34.2406 44.7288 34.4562 46.412 34.2396 46.9447C33.9948 47.5471 32.8804 47.9182 32.0435 48.4791C31.8515 49.1231 31.6761 49.6962 31.351 49.7164C30.7368 49.7549 30.8349 48.5102 30.6685 47.4453C30.6378 47.2496 30.575 47.0411 30.5131 46.8738C30.4247 46.6343 30.6329 48.1782 30.1528 48.273C29.5189 48.3651 29.3858 46.3763 29.5062 45.5087C29.5881 44.9177 30.1483 44.4522 30.1476 43.9874C30.147 43.5225 27.9541 38.2451 27.3024 36.6749C26.6507 35.1043 26.2822 34.6429 26.2822 34.6429C26.2822 34.6429 29.2871 32.0077 29.6914 31.6104Z" fill="#FBD1B4"/>
<path d="M27.5012 37.1542C27.4254 36.9717 27.3581 36.8091 27.3024 36.6752C26.6507 35.1046 26.2822 34.6432 26.2822 34.6432C26.2822 34.6432 29.2867 32.0084 29.6911 31.6113C30.1874 32.827 30.7142 34.3484 31.2031 35.8693C29.8666 35.8545 28.5576 36.3092 27.5012 37.1542Z" fill="#F8B78D"/>
<path d="M26.1333 36.0511C25.6798 35.3663 23.7395 22.4945 24.6871 23.1145C27.7266 25.1037 29.9819 31.2129 30.374 32.1071C30.766 33.0017 26.8628 37.1518 26.1333 36.0511Z" fill="#05D3F0"/>
<path d="M26.9944 36.3885C26.332 29.2028 26.6817 26.9313 25.8282 24.2236C25.3335 22.6548 23.1815 22.001 22.9759 22.2264C24.3684 23.7797 24.5021 27.2498 24.6106 28.286C24.653 28.6905 15.5187 28.9154 15.1286 28.1663C14.7116 27.3658 14.361 23.3668 12.7807 21.7285C12.6198 21.5618 12.3883 21.4961 12.1672 21.5494C11.3769 21.7399 10.3794 22.0553 10.0249 22.4918C11.5459 22.3141 12.8888 28.0587 10.2612 33.5519C10.7132 41.0189 6.89411 57.072 6.45347 59.153C5.86714 61.9227 30.9783 62.7954 31.032 58.4008C31.0469 57.1732 27.9035 46.2491 26.9944 36.3885Z" fill="#E83F93"/>
<path d="M14.5795 15.4584C14.5685 17.0664 14.5283 19.6587 14.6801 21.4594C14.8624 23.6206 18.5403 26.4733 20.3288 26.3627C21.6391 26.2817 21.924 24.3627 21.6905 23.0846C21.5591 22.3647 21.1016 21.7616 20.9912 21.1814C20.6639 19.4611 20.75 16.9042 20.75 16.9042C20.75 16.9042 14.5856 14.6023 14.5795 15.4584Z" fill="#F8B78D"/>
<path d="M14.9014 5.82364C14.8046 7.1419 12.76 7.99229 11.9785 8.15252C10.4215 8.47129 13.3399 7.08894 10.5649 8.23077C6.44056 9.92818 11.2202 24.04 0 21.7655C6.83749 23.1364 -3.34477 4.48617 6.86662 0.544899C11.5916 -1.27866 15.2028 1.72653 14.9014 5.82364Z" fill="#4D216B"/>
<path d="M15.4051 4.39602C15.9445 5.00995 16.1455 6.18079 14.6944 7.97973C13.5862 9.35331 11.8104 9.86603 10.8003 8.78256C10.2437 8.1855 10.604 6.51474 11.7786 5.19615C12.8487 3.99427 14.6404 3.52573 15.4051 4.39602Z" fill="#E83F93"/>
<path d="M13.337 18.8776C14.0389 20.7706 18.0782 22.6863 21.1885 21.7607C24.8243 20.6782 24.9865 17.0972 24.8765 13.6906C24.8117 11.6801 25.0552 9.59583 24.7732 8.48537C24.2118 6.27321 20.1379 4.17406 15.5218 6.19934C9.99064 8.62637 12.2123 16.0198 12.2123 16.0198C10.4008 15.752 11.1312 19.4129 13.337 18.8776Z" fill="#FBD1B4"/>
<path d="M24.7676 8.43786C25.6696 7.2397 20.8313 1.43169 14.3525 4.82717C10.3956 6.90136 10.696 13.0231 12.2118 16.0202C12.2118 16.0202 12.8568 16.1835 13.2993 17.5472C13.0662 16.1922 12.4417 12.2172 16.5709 11.8175C20.8523 11.4026 19.8341 7.42961 24.7676 8.43786Z" fill="#4D216B"/>
</svg>
