<svg width="50" height="47" viewBox="0 0 50 47" fill="none" xmlns="http://www.w3.org/2000/svg">
<path d="M34.5322 21.9014C32.0809 21.3411 31.0154 23.3441 31.4968 27.8982C31.8863 31.5842 34.6326 37.4617 34.6636 38.602C34.7014 39.9988 33.6609 40.6605 34.8692 41.8015C35.6157 42.5062 38.7836 42.9257 38.5773 41.99C39.6318 42.1784 40.6992 42.2773 41.5258 42.3819C42.7072 42.5313 43.322 41.8936 42.5996 41.6496C43.7907 41.894 44.2401 41.1026 43.3904 40.8665C44.1314 40.9124 44.1108 40.3248 43.8054 40.1342C43.6346 40.0275 43.116 39.9455 43.0294 39.9257C43.5517 39.9157 43.5225 39.4629 43.1319 39.3407C42.7179 39.2114 38.8011 38.9972 38.3177 37.9887C38.0811 37.4957 37.4556 32.7987 37.305 29.281C37.1204 24.9749 36.7511 22.4084 34.5322 21.9014Z" fill="#FBD1B4"/>
<path d="M37.305 29.281C37.1204 24.9752 36.7507 22.4087 34.5322 21.9014C32.0809 21.3411 31.0154 23.3441 31.4968 27.8982C31.6742 29.578 32.3413 31.7121 33.0176 33.6463C33.6843 32.7188 35.3341 29.6099 37.305 29.281Z" fill="#F8B78D"/>
<path d="M37.9442 40.5729C37.4649 40.3938 36.5255 41.0239 36.8879 41.121C38.3348 41.5076 38.5061 41.7315 38.5769 41.9905C38.9984 42.0657 39.42 42.127 39.8278 42.1796C38.3286 41.8328 38.3039 40.7069 37.9442 40.5729Z" fill="#F8B78D"/>
<path d="M11.5741 19.2265C9.32739 21.2037 9.49038 27.6568 9.19536 29.2951C8.90034 30.9338 6.33179 34.0086 6.53157 37.7566C6.5467 38.044 9.08326 39.405 9.72179 37.9218C10.3166 36.5404 13.4742 34.0043 15.3739 31.3329C16.6183 29.5828 18.0577 26.1314 18.4699 23.7627C19.1738 19.7194 14.6587 16.512 11.5741 19.2265Z" fill="#F8B78D"/>
<path d="M6.54362 36.9303C6.54362 36.9303 5.45018 39.1221 5.90613 41.0391C6.14957 41.4156 9.5406 42.2102 11.6886 42.3306C13.8366 42.451 14.7461 41.2784 14.6656 40.6679C14.5556 39.8318 12.7215 38.891 11.4974 37.4824C11.1663 37.1012 11.0766 36.7376 11.0556 36.1275C11.0343 35.5174 9.34667 35.9842 9.29062 36.394C9.23492 36.8038 9.41682 37.4422 9.18437 37.8062C8.7274 38.5216 6.74924 38.483 6.54362 36.9303Z" fill="#D9DCE7"/>
<path d="M11.6888 42.3302C9.5408 42.2098 6.14977 41.4152 5.90633 41.0387C5.82965 41.3503 5.95584 41.5639 6.06449 41.7322C6.30794 42.1088 9.53805 42.7837 11.6861 42.9041C13.8344 43.0244 14.7071 41.9518 14.6569 40.876C14.6569 40.8749 14.6562 40.8735 14.6559 40.8721C14.5438 41.5062 13.6161 42.438 11.6888 42.3302Z" fill="#A1A8CA"/>
<path d="M18.1974 17.2334C18.1974 17.2334 11.9425 14.5283 8.31556 15.9899C4.68866 17.4516 1.74533 24.2422 5.68754 28.7329C9.62975 33.2236 19.0384 32.4977 19.0384 32.4977L18.1974 17.2334Z" fill="#05D3F0"/>
<path d="M6.47597 20.2756C3.95867 22.491 4.14124 29.7216 3.81046 31.5573C3.47968 33.3933 0.602028 36.8386 0.825873 41.038C0.843065 41.3598 3.68496 42.8852 4.40051 41.2229C5.06688 39.6749 8.60507 36.8336 10.7338 33.8401C12.1281 31.8794 13.7411 28.012 14.2029 25.3578C14.991 20.8277 9.93232 17.2337 6.47597 20.2756Z" fill="#FBD1B4"/>
<path d="M0.838933 40.1125C0.838933 40.1125 -0.386537 42.5683 0.124764 44.7164C0.397779 45.1384 4.19695 46.0287 6.60388 46.1634C9.01081 46.2981 10.0296 44.9844 9.93989 44.3001C9.81644 43.3629 7.76161 42.3093 6.39001 40.7309C6.01899 40.3038 5.91859 39.8961 5.89487 39.2126C5.87114 38.529 3.97998 39.0521 3.9174 39.5114C3.85482 39.9706 4.05907 40.6861 3.79843 41.0938C3.28576 41.8959 1.06897 41.8522 0.838933 40.1125Z" fill="#E6E9F5"/>
<path d="M6.60413 46.1629C4.1972 46.0282 0.39768 45.138 0.12501 44.716C0.0390478 45.0652 0.180376 45.3046 0.302442 45.493C0.575113 45.915 4.19445 46.6709 6.60138 46.806C9.00831 46.9407 9.98621 45.7391 9.93016 44.5336C9.93016 44.5322 9.92912 44.5307 9.92912 44.5293C9.80293 45.2397 8.76383 46.284 6.60413 46.1629Z" fill="#ACB3D8"/>
<path d="M18.6647 16.2134C17.1112 15.5406 14.6234 30.5405 16.2003 33.2238C16.2003 33.2238 29.3408 33.8163 34.0192 30.0923C38.6972 26.3683 39.171 23.2017 37.8562 20.6825C36.3577 17.8122 24.5575 18.7659 18.6647 16.2134Z" fill="#E83F93"/>
<path d="M27.5278 24.0494C25.0218 23.9104 24.1292 26.4522 24.6106 31.0062C25.0002 34.6926 26.9044 41.173 26.935 42.3137C26.9728 43.7105 26.2012 44.2153 27.4095 45.3563C28.6178 46.4973 31.9858 46.7302 33.6565 46.9659C35.0962 47.1694 35.8654 46.42 34.9593 45.9628C36.0992 46.0291 36.8003 45.1858 35.9507 44.9497C36.8216 45.0038 36.6373 44.2217 36.0569 44.0892C36.5486 44.0548 36.3812 43.4916 36.0273 43.3809C35.6134 43.2516 34.7744 43.1004 33.9684 42.884C33.8552 41.7333 31.7781 42.0382 31.0828 41.5617C30.641 41.259 30.4986 37.0872 30.3477 33.5699C30.1627 29.2633 30.7187 24.2263 27.5278 24.0494Z" fill="#FBD1B4"/>
<path d="M31.0829 41.5607C31.0279 41.5231 30.9781 41.4199 30.9316 41.2705C30.9316 41.2705 31.1232 42.0361 31.3838 42.2199C31.9119 42.5928 33.058 42.6956 33.9688 42.883C33.8554 41.7323 31.7785 42.0372 31.0829 41.5607Z" fill="#F8B78D"/>
<path d="M36.7155 7.69589C34.7893 7.68729 31.5131 10.8403 32.0592 13.2538C29.1595 10.8238 30.6456 0.82465 36.8132 0.0286171C39.9082 -0.370832 42.6476 3.50795 41.9049 5.64026C41.6319 6.42554 39.5908 7.70879 36.7155 7.69589Z" fill="#4D216B"/>
<path d="M42.5985 6.758C42.8323 7.52215 42.4125 7.94238 40.4962 9.01104C39.0328 9.82713 37.3734 9.90201 36.7459 8.60156C36.2153 7.50244 37.3975 5.90107 38.9661 5.32285C40.8016 4.64612 42.1684 5.35259 42.5985 6.758Z" fill="#E83F93"/>
<path d="M37.1426 14.8828C37.1426 14.8828 35.0145 15.4621 35.2071 17.0495C35.3505 18.2307 35.1806 18.3091 34.5964 19.1739C33.7495 20.6739 34.9227 25.4326 36.8706 25.4913C38.9141 25.5529 40.8933 21.2296 40.8933 21.2296L37.1426 14.8828Z" fill="#F8B78D"/>
<path d="M36.8295 16.9106C36.8295 16.9106 35.3637 18.92 35.524 20.4426C35.6842 21.9652 37.6317 25.6054 39.6371 26.1571C42.046 26.8195 43.3403 26.4426 45.2359 23.0396C46.7255 20.3649 48.9522 18.4683 49.1829 16.8515C49.5247 14.4587 47.2285 10.0558 44.1806 8.54904C40.922 6.93799 36.6418 9.66463 36.725 12.3558C36.8082 15.0466 37.4639 16.2059 36.8295 16.9106Z" fill="#FBD1B4"/>
<path d="M37.8713 17.5607C37.8713 17.5607 40.15 14.8509 41.9462 14.9372C44.5467 15.0626 47.1593 18.0504 49.1835 16.8524C51.7582 15.3284 47.8779 7.23876 41.9132 6.73291C37.7358 6.37861 31.9544 12.2948 34.688 18.9872C35.1363 18.5477 36.0826 17.1096 36.4478 16.2466C36.8105 15.3908 37.8713 17.5607 37.8713 17.5607Z" fill="#4D216B"/>
<path d="M38.9786 17.3881C39.4497 16.542 40.1123 15.0473 38.7131 14.3054C37.7858 13.8135 36.5249 14.7152 36.2141 15.9885C35.8468 17.4906 37.4959 20.0535 38.9786 17.3881Z" fill="#FBD1B4"/>
</svg>
