<svg width="43" height="59" viewBox="0 0 43 59" fill="none" xmlns="http://www.w3.org/2000/svg">
<path d="M32.9407 51.4484C32.9407 51.4484 34.9007 55.2336 35.1159 55.4826C35.331 55.7316 37.4062 54.77 37.4103 54.2376C37.4154 53.5733 36.1916 50.3774 35.9764 49.9291C35.7613 49.4808 32.9099 51.2171 32.9407 51.4484Z" fill="#FBD1B4"/>
<path d="M36.4498 51.112C36.2351 50.5423 36.0489 50.0801 35.9764 49.9301C35.7613 49.4818 32.9099 51.2181 32.9407 51.4489C32.9407 51.4489 33.2939 52.1309 33.7164 52.9338C34.1953 52.811 36.1393 51.8274 36.4498 51.112Z" fill="#F8B78D"/>
<path d="M34.7049 54.7829C33.9815 55.0835 35.2017 57.5501 35.6214 57.8512C36.159 58.2374 41.2025 55.971 41.9677 55.1605C42.3961 54.7065 42.2461 54.0292 41.7521 53.8543C41.2502 53.6765 39.031 53.6507 38.131 53.6478C37.9081 53.6474 37.7049 53.5107 37.6173 53.297C37.5131 53.0433 37.3677 52.7364 37.2549 52.6853C36.9664 52.5548 36.4443 53.1967 36.2783 53.4127C36.1122 53.6292 36.4797 54.1038 36.4443 54.2926C36.3636 54.7217 35.0045 55.3273 34.7049 54.7829Z" fill="#E83F93"/>
<path d="M42.2198 54.4768C42.2157 54.4725 42.2143 54.4706 42.2106 54.4668C42.2345 54.6986 42.1648 54.9524 41.9684 55.1603C41.2336 55.9393 36.5524 58.0598 35.7084 57.8835L35.7098 57.8854C35.6543 58.0489 35.7846 58.2338 35.835 58.2701C36.3731 58.6563 41.4161 56.39 42.1813 55.5789C42.4657 55.2778 42.4542 54.7091 42.2198 54.4768Z" fill="#E6E9F5"/>
<path d="M12.9664 34.9951C12.9664 34.9951 11.8004 41.7606 16.0352 43.6174C20.27 45.4741 27.9777 44.9226 29.1001 45.5295C30.2221 46.1365 31.7575 50.9898 32.4987 51.5963C33.24 52.2033 36.4689 50.769 36.3629 49.7764C36.2569 48.7837 33.5928 40.9515 32.9395 39.9588C32.2868 38.9662 24.2919 37.0736 23.1277 36.6411C21.9645 36.2086 12.9664 34.9951 12.9664 34.9951Z" fill="#05D3F0"/>
<path d="M10.8761 21.5108C8.25323 22.3644 9.65505 34.6824 11.7023 36.4842C13.749 38.286 23.9755 37.7158 24.8576 36.9071C25.7397 36.098 21.4109 23.801 17.8834 21.8147C16.1082 20.8154 12.5445 20.9679 10.8761 21.5108Z" fill="#D20273"/>
<path d="M8.62543 17.2444C9.20157 18.0765 10.0956 19.6637 10.8772 21.5114C11.2571 22.4094 18.4629 23.4694 17.9317 21.953C17.2097 19.8902 16.629 17.2019 16.629 17.2019C16.629 17.2019 8.04929 16.4124 8.62543 17.2444Z" fill="#F8B78D"/>
<path d="M7.44349 3.3952C7.42927 4.87486 5.62379 6.64509 5.04031 6.62168C1.44173 6.47782 1.6486 0.824928 0 1.85629C2.62199 -1.83664 7.46964 0.672941 7.44349 3.3952Z" fill="#4D216B"/>
<path d="M7.44342 3.3958C7.82415 3.68017 8.07506 4.32632 7.45122 5.54073C6.97508 6.4679 6.01591 6.9855 5.31088 6.49132C4.92235 6.2189 4.93565 5.21526 5.45629 4.31103C5.93059 3.48757 6.90398 2.99291 7.44342 3.3958Z" fill="#E83F93"/>
<path d="M8.62037 18.0647C9.00431 19.0253 13.5125 22.7307 19.89 19.0516C23.9477 16.7107 20.8762 12.0366 20.4468 10.0996C20.2932 9.40709 20.2757 6.04871 18.8432 3.93629C17.4249 1.84489 12.813 0.329384 8.20662 3.6567C2.68696 7.64355 6.75663 15.2058 6.75663 15.2058C4.71354 15.3477 6.32407 19.1811 8.62037 18.0647Z" fill="#FBD1B4"/>
<path d="M18.626 3.65066C19.3724 2.74356 12.8545 -0.68364 7.44406 3.39497C3.42806 6.42215 4.43355 12.2882 6.75645 15.2059C6.75645 15.2059 7.49865 15.2298 8.28534 16.6168C7.72984 15.1892 7.53167 12.6514 8.8968 10.9491C10.5504 8.88681 10.0711 6.40829 11.8807 5.53703C11.5206 6.11532 10.9748 7.03915 12.1362 8.18235C13.2137 9.24287 12.6362 10.107 12.3651 10.3751C14.1275 9.29735 12.5032 8.14793 13.1536 6.56553C14.355 3.64397 17.9687 4.45023 18.626 3.65066Z" fill="#4D216B"/>
<path d="M25.3181 21.1836H23.6948H22.0714C21.4865 21.1836 21.0127 21.6773 21.0127 22.2866V27.6184C21.0127 28.2277 21.4865 28.7214 22.0714 28.7214H23.6948H25.3181C25.903 28.7214 26.3769 28.2277 26.3769 27.6184V22.2866C26.3769 21.6778 25.903 21.1836 25.3181 21.1836Z" fill="#E6E9F5"/>
<path d="M25.124 19.9697H23.6947H22.2653C22.1291 19.9697 22.0186 20.0849 22.0186 20.2273V20.9261C22.0186 21.068 22.1291 21.1837 22.2653 21.1837H23.6947H25.124C25.2603 21.1837 25.3713 21.0685 25.3713 20.9261V20.2273C25.3708 20.0854 25.2603 19.9697 25.124 19.9697Z" fill="#F8B78D"/>
<path d="M24.4492 18.5902C24.2387 18.5902 24.0561 18.4181 24.0561 18.1987C24.0561 17.749 24.2969 17.7237 24.2969 17.3471C24.2969 16.9987 24.0276 16.7162 23.6942 16.7119C23.3607 16.7167 23.0914 16.9987 23.0914 17.3471C23.0914 17.7237 23.3322 17.749 23.3322 18.1987C23.3322 18.4181 23.1497 18.5902 22.9391 18.5902C22.6015 18.5902 22.3281 18.875 22.3281 19.2268V19.9714H23.6937H25.0593V19.2268C25.0602 18.875 24.7868 18.5902 24.4492 18.5902Z" fill="#FCAAB9"/>
<path d="M22.4902 25.0777C22.4902 25.0777 23.6517 24.1271 24.6136 23.8159C25.576 23.5048 27.7324 23.6601 28.2966 23.7294C28.8608 23.7987 28.8108 24.7837 28.147 24.8702C28.0585 25.6134 27.8815 27.6876 27.2677 28.2755C26.6539 28.8633 23.12 29.2432 23.17 29.2432C23.22 29.2432 22.4902 25.0777 22.4902 25.0777Z" fill="#FBD1B4"/>
<path d="M26.2869 28.6938C26.5429 25.5902 23.5695 24.3208 23.4553 24.3925C22.9104 24.7342 22.4893 25.0774 22.4893 25.0774C22.4893 25.0774 23.2191 29.243 23.1695 29.243C23.1333 29.243 25.0342 29.0365 26.2869 28.6938Z" fill="#F8B78D"/>
<path d="M27.4629 28.0134C27.9202 27.2229 28.0684 25.5268 28.1468 24.8691C27.8427 24.9098 27.5455 24.9413 27.5056 25.0541C27.4647 25.1674 27.4808 26.5175 27.4629 28.0134Z" fill="#F8B78D"/>
<path d="M17.7827 27.4942C17.218 27.4942 15.5782 25.0735 14.3011 23.9729C12.591 22.4994 9.15438 25.1041 10.7961 27.6333C12.2718 29.9063 15.1685 33.8215 16.4066 34.0485C17.8093 34.3061 21.7065 31.6182 24.6657 29.0895C25.3707 28.4873 23.3478 24.4336 22.3285 24.8694C21.4524 25.2441 18.2543 27.4942 17.7827 27.4942Z" fill="#E83F93"/>
<path d="M11.7168 35.248V40.3389C11.7168 43.1792 13.9264 45.4814 16.6525 45.4814H22.9029C25.629 45.4814 27.8386 43.1792 27.8386 40.3389V35.248H11.7168Z" fill="#ACB3D8"/>
<path opacity="0.33" d="M27.8386 35.248H11.7168V39.0724H27.8386V35.248Z" fill="#ACB3D8"/>
<path d="M30.9139 33.2326H14.8187C13.9981 33.2326 13.2641 32.6997 12.9802 31.8977L8.77108 20.0112C8.18623 18.3595 6.67524 17.2627 4.98581 17.2627H4.4248L10.3481 34.782C10.7146 35.8669 11.6986 36.5924 12.8022 36.5924H27.9874C29.6039 36.5924 30.9139 35.2269 30.9139 33.5432V33.2326Z" fill="#ACB3D8"/>
<path opacity="0.4" d="M8.28399 20.5193L12.4931 32.4057C12.7771 33.2077 13.511 33.7406 14.3316 33.7406H30.9053C30.9094 33.6746 30.9149 33.6091 30.9149 33.5422V33.2321H14.8197C13.9991 33.2321 13.2651 32.6992 12.9812 31.8967L8.77205 20.0103C8.1872 18.3586 6.67621 17.2617 4.98678 17.2617H4.42578L4.59917 17.7741C6.24731 17.8171 7.7106 18.9005 8.28399 20.5193Z" fill="#E6E9F5"/>
</svg>
