<svg width="34" height="38" viewBox="0 0 34 38" fill="none" xmlns="http://www.w3.org/2000/svg">
<path d="M26.0408 18.5602C24.2702 18.4617 23.5128 19.9777 23.8527 23.1955C24.128 25.8002 26.0454 29.6662 26.0674 30.472C26.094 31.4589 25.5073 32.1538 26.361 32.96C26.8885 33.458 29.127 33.7543 28.9811 33.0934C29.726 33.2267 30.4802 33.2965 31.0646 33.3701C31.8994 33.4757 32.3338 33.025 31.8233 32.8525C32.665 33.025 32.9824 32.4659 32.382 32.2991C32.9054 32.3316 32.8907 31.9163 32.6751 31.7815C32.5545 31.706 32.1879 31.6481 32.1265 31.6343C32.4957 31.6271 32.4746 31.3074 32.199 31.2209C31.9063 31.1296 29.36 30.8185 29.0183 30.1059C28.8513 29.7575 28.5848 26.779 28.4779 24.2938C28.3481 21.2513 28.2953 18.6849 26.0408 18.5602Z" fill="#FBD1B4"/>
<path d="M28.5884 26.2595C28.5444 25.6067 28.5059 24.9338 28.4784 24.2929C28.3476 21.2504 28.2953 18.6844 26.0408 18.5592C24.2702 18.4607 23.5128 19.9767 23.8527 23.1946C24.033 24.8979 24.9133 27.136 25.5082 28.7094C25.8743 27.5423 26.9715 26.2858 28.5884 26.2595Z" fill="#F8B78D"/>
<path d="M28.5342 32.0909C28.1956 31.9642 27.5319 32.4097 27.7878 32.478C28.8103 32.7514 28.9309 32.9091 28.9814 33.0921C29.2791 33.1452 29.5773 33.1887 29.8653 33.2255C28.8062 32.9813 28.7883 32.1855 28.5342 32.0909Z" fill="#F8B78D"/>
<path d="M9.18296 19.9399C8.59306 23.2467 9.92883 26.9037 9.99396 27.288C10.0183 27.4318 9.66507 27.1245 8.84673 27.2244C7.8605 27.3444 6.5963 27.7707 6.18483 27.352C5.79264 26.953 5.38439 26.5391 4.64036 26.8292C3.95459 27.0968 3.79037 28.2047 3.52386 28.6735C3.28854 29.0879 2.07525 29.6652 2.32984 30.1011C2.63167 30.5728 3.23533 30.5551 3.78808 30.4939C4.28256 30.439 5.0532 30.0179 5.58163 30.0423C6.13117 30.0676 8.60728 30.7128 10.3921 30.8438C12.177 30.9747 13.282 30.9107 13.8733 30.5704C14.4646 30.2301 15.1989 23.4302 14.9971 21.4707C14.5939 17.5675 9.62929 17.438 9.18296 19.9399Z" fill="#F8B78D"/>
<path d="M18.6674 15.4223C18.4981 15.1909 16.5261 14.0057 13.023 14.1314C9.77393 14.248 5.86893 16.1563 5.64829 20.8567C5.41893 25.7512 7.7134 30.8196 14.2308 30.3416C16.7596 30.1557 19.4013 16.4264 18.6674 15.4223Z" fill="#E6E9F5"/>
<path d="M14.2315 29.528C14.2315 29.528 22.1236 30.4814 26.5313 25.631C30.2029 21.5906 28.9483 17.5273 28.9483 17.5273C28.9483 17.5273 20.1057 15.4698 17.8571 15.422C15.6081 15.3737 11.7072 29.1929 14.2315 29.528Z" fill="#E83F93"/>
<path d="M6.88804 24.269C6.29814 27.5758 7.6339 31.2328 7.69904 31.6171C7.72335 31.7609 7.37015 31.4536 6.55181 31.5535C5.56512 31.6735 4.30138 32.0998 3.88991 31.6811C3.49772 31.2821 3.08946 30.8682 2.34544 31.1583C1.65966 31.4259 1.49545 32.5338 1.22894 33.0026C0.993618 33.417 -0.21967 33.9943 0.0349139 34.4302C0.336745 34.9019 0.940408 34.8842 1.49315 34.823C1.98764 34.7681 2.75828 34.347 3.28671 34.3714C3.83624 34.3967 6.3119 35.0419 8.0972 35.1729C9.88204 35.3038 10.9871 35.2398 11.5784 34.8995C12.1696 34.5592 12.904 27.7593 12.7022 25.7998C12.2994 21.8966 7.33437 21.7671 6.88804 24.269Z" fill="#FBD1B4"/>
<path opacity="0.4" d="M22.7313 28.295C21.2786 28.8183 21.0713 25.4805 21.0713 25.4805H16.5282C16.5819 28.5841 15.1099 29.4076 14.7236 29.5701C15.9819 29.6504 19.4676 29.7115 22.7313 28.295Z" fill="#D20273"/>
<path d="M18.7937 22.194C17.0231 22.0955 16.2658 23.6115 16.6057 26.8293C16.8809 29.434 18.7983 33.3 18.8203 34.1057C18.8469 35.0927 18.2598 35.7876 19.1139 36.5938C19.9675 37.4001 22.3891 37.2261 23.5698 37.3929C24.5868 37.5368 25.1308 37.0072 24.4904 36.6842C25.2959 36.731 25.7913 36.135 25.1909 35.9682C25.806 36.0065 25.6762 35.454 25.2661 35.3603C25.6133 35.3359 25.495 34.9383 25.245 34.8599C24.9528 34.7686 24.3597 34.662 23.7904 34.5091C23.7106 33.6962 22.2427 33.9112 21.7515 33.5748C21.4391 33.3607 21.3386 30.4133 21.2322 27.9276C21.101 24.8851 21.0483 22.3192 18.7937 22.194Z" fill="#FBD1B4"/>
<path d="M21.7514 33.5742C21.7124 33.5474 21.6771 33.4748 21.6445 33.3691C21.6445 33.3691 21.7799 33.9102 21.9638 34.0402C22.3367 34.3035 23.1468 34.3761 23.7904 34.5085C23.7101 33.6956 22.2427 33.9106 21.7514 33.5742Z" fill="#F8B78D"/>
<path d="M21.9103 16.9346C21.9103 16.9346 20.6865 18.69 21.3291 19.8055C21.9718 20.9214 24.3277 23.5992 26.5919 23.0888C28.8561 22.5789 28.2749 18.8491 28.1832 18.8491C28.0915 18.8491 21.9103 16.9346 21.9103 16.9346Z" fill="#F8B78D"/>
<path d="M18.4226 16.2361C18.4226 16.2361 20.3675 22.3277 29.3761 20.4758C36.1994 19.0731 33.1394 14.2914 33.3229 12.1236C33.3885 11.3484 34.4632 7.84709 33.6596 5.14251C32.8642 2.4647 28.5573 -0.741704 22.6803 1.09401C15.6382 3.29342 17.413 12.602 17.413 12.602C15.2405 12.028 15.669 16.5869 18.4226 16.2361Z" fill="#FBD1B4"/>
<path d="M30.4784 15.8294C29.6843 15.9728 29.1935 15.0882 27.9422 15.4935C26.7991 15.8639 25.5908 18.0289 27.289 19.5353C28.9871 21.0417 31.7866 19.2323 32.4063 18.037C33.026 16.8417 33.3384 15.2167 32.6127 14.9926C31.7871 14.7374 31.2724 15.6856 30.4784 15.8294Z" fill="#ACB3D8"/>
<path opacity="0.3" d="M27.6413 19.6944C25.9432 18.188 27.1514 16.023 28.295 15.6526C29.5463 15.2473 30.0371 16.132 30.8312 15.9886C31.5757 15.8543 32.0747 15.0117 32.8146 15.1178C32.7587 15.0614 32.6935 15.017 32.6137 14.9926C31.7885 14.7374 31.2734 15.686 30.4793 15.8294C29.6853 15.9728 29.1945 15.0882 27.9431 15.4934C26.8 15.8638 25.5918 18.0288 27.2899 19.5353C27.5211 19.7408 27.7743 19.8794 28.0381 19.9716C27.9009 19.8947 27.7675 19.8062 27.6413 19.6944Z" fill="#6B78B7"/>
<path opacity="0.3" d="M31.793 18.4041L32.3269 17.8334L31.8614 16.9994L31.8582 17.0028C31.8233 16.9416 31.787 16.8809 31.7403 16.8264C31.2834 16.2892 30.4247 16.305 29.8219 16.8613C29.2192 17.4176 29.1004 18.3042 29.5573 18.8414C29.6206 18.9159 29.693 18.9776 29.7701 19.0306L29.7683 19.0325L30.6761 19.5984L31.2632 18.9709C31.3361 18.9221 31.4077 18.8691 31.4756 18.8065C31.6059 18.6856 31.7091 18.5479 31.793 18.4041Z" fill="#6B78B7"/>
<path d="M32.0228 19.3635C31.5214 19.8262 30.8072 19.8391 30.4274 19.3927C30.0476 18.9458 30.1462 18.2089 30.6476 17.7463C31.149 17.2836 31.8632 17.2707 32.243 17.7171C32.6228 18.164 32.5242 18.9009 32.0228 19.3635Z" fill="#ACB3D8"/>
<path d="M32.4686 18.3984C32.4627 18.7023 32.3388 19.0168 32.1072 19.2711C32.1792 19.7055 32.1485 20.2432 31.626 20.4195C29.9393 20.9887 29.1691 18.4514 29.1095 18.3315C29.0494 18.2115 28.6581 18.212 28.5586 18.6584C28.6274 19.997 30.0109 22.228 32.0925 21.1928C33.32 20.582 32.826 19.1368 32.4686 18.3984Z" fill="#ACB3D8"/>
<path opacity="0.3" d="M32.4686 18.3984C32.4627 18.7023 32.3388 19.0168 32.1072 19.2711C32.1792 19.7055 32.1485 20.2432 31.626 20.4195C29.9393 20.9887 29.1691 18.4514 29.1095 18.3315C29.0494 18.2115 28.6581 18.212 28.5586 18.6584C28.6274 19.997 30.0109 22.228 32.0925 21.1928C33.32 20.582 32.826 19.1368 32.4686 18.3984Z" fill="#6B78B7"/>
<path d="M17.4136 12.6018C17.4136 12.6018 18.1787 12.8886 18.5457 14.6101C18.5457 14.6101 18.0475 11.027 19.1576 9.63724C21.1433 7.1506 22.3786 6.45522 22.7374 4.76003C23.1351 2.87939 26.1258 1.87669 28.3176 3.77167C29.8662 5.11081 28.3176 6.22629 30.5088 7.21464C30.5088 7.21464 29.8052 6.29033 30.6313 5.46113C31.4574 4.63241 32.2093 3.65505 31.512 2.29488C30.8148 0.934704 27.2043 -0.946409 21.9722 0.551885C16.7402 2.05018 15.9448 8.74448 17.4136 12.6018Z" fill="#F8B78D"/>
</svg>
