<svg width="38" height="58" viewBox="0 0 38 58" fill="none" xmlns="http://www.w3.org/2000/svg">
<path d="M9.86431 48.8654C12.462 51.191 17.8624 48.1968 20.9752 48.0677C22.5275 48.0032 22.8921 48.8716 24.149 49.2215C25.6802 49.6478 28.0719 49.6157 29.72 50.1032C30.0292 50.1945 32.1278 47.4617 30.6549 46.352C29.2833 45.3187 27.2976 44.3643 23.1664 42.1558C21.0004 40.9978 15.5931 40.9409 13.0267 41.7845C8.28084 43.3439 7.99323 47.1898 9.86431 48.8654Z" fill="#F8B78D"/>
<path d="M28.8186 49.8942C28.8186 49.8942 28.8306 50.2527 29.8283 51.0455C30.8264 51.8384 32.5172 52.487 33.1223 52.2289C33.592 52.0286 36.2988 47.8626 36.9383 45.3386C37.5777 42.8147 36.5098 41.4574 35.8227 41.4082C34.8814 41.3413 32.4255 43.0174 30.5943 44.1391C30.0989 44.4425 29.6796 44.4631 29.0067 44.3436C28.3338 44.2246 28.4457 46.3404 28.8815 46.5033C29.3168 46.6663 30.0585 46.6013 30.4021 46.9636C31.0769 47.6762 30.5668 50.0175 28.8186 49.8942Z" fill="#D9DCE7"/>
<path d="M36.9391 45.338C36.2996 47.8619 33.5928 52.0275 33.123 52.2283C33.446 52.3931 33.7097 52.2937 33.9198 52.2044C34.3895 52.0041 36.9271 48.0005 37.567 45.4771C38.2065 42.9532 37.2391 41.6628 36.0501 41.4678C36.0487 41.4678 36.0469 41.4683 36.0455 41.4678C36.7125 41.7512 37.5129 43.0736 36.9391 45.338Z" fill="#A1A8CA"/>
<path d="M24.9194 28.3108C24.9194 28.3108 25.4868 32.4353 25.3565 33.1101C25.2263 33.785 30.4812 36.0938 30.8656 36.0886C31.25 36.0833 31.9257 35.3277 32.7202 35.1728C33.5142 35.0185 34.5119 35.2875 34.7862 35.4739C35.2931 35.625 35.2858 36.5961 35.4183 36.9488C35.7055 37.1008 35.322 37.5257 35.2353 38.0891C35.0729 39.1458 34.1899 40.842 33.6349 41.1354C33.394 41.2626 33.134 41.5527 31.922 41.1617C31.1945 40.9271 30.5881 40.0501 30.2643 39.9239C29.4014 39.5879 21.7194 37.7923 20.6584 35.9433C19.8759 34.5793 19.7832 29.0769 19.7832 29.0769C19.7832 29.0769 24.0299 27.9117 24.9194 28.3108Z" fill="#FBD1B4"/>
<path d="M26.3827 34.0306C25.7492 33.6492 25.319 33.3089 25.3575 33.1101C25.4878 32.4353 24.9204 28.3108 24.9204 28.3108C24.0305 27.9117 19.7842 29.0774 19.7842 29.0774C19.7842 29.0774 19.8768 34.5797 20.6594 35.9437C21.2809 37.0272 24.1754 38.092 26.6396 38.8557C25.8887 37.3579 25.8781 35.6312 26.3827 34.0306Z" fill="#F8B78D"/>
<path d="M32.6183 41.099C32.9591 41.2558 33.8715 41.6305 34.2976 41.6305C34.7237 41.6305 34.9118 40.7798 34.4577 40.5986C34.0036 40.4175 33.1545 40.1618 32.8426 40.137C32.3894 40.1006 32.1665 40.8916 32.6183 41.099Z" fill="#FCD7BE"/>
<path d="M32.9959 40.0436C33.3839 40.2219 34.4211 40.6477 34.9059 40.6482C35.3908 40.6487 35.633 39.6245 35.1169 39.4185C34.6009 39.2125 33.6059 38.9779 33.2509 38.9497C32.7358 38.9076 32.4821 39.8075 32.9959 40.0436Z" fill="#FCD7BE"/>
<path d="M33.5066 38.8493C33.8946 39.0275 34.9318 39.4534 35.4166 39.4538C35.9015 39.4543 36.1148 38.486 35.5988 38.2805C35.0827 38.0746 34.1167 37.784 33.7621 37.7553C33.2465 37.7137 32.9928 38.6132 33.5066 38.8493Z" fill="#FCD7BE"/>
<path d="M34.0755 37.6979C34.4383 37.8647 35.409 38.2633 35.8627 38.2633C36.3163 38.2633 36.5158 37.3581 36.0328 37.1655C35.5498 36.9729 34.6462 36.7009 34.314 36.6741C33.8319 36.6354 33.5948 37.4771 34.0755 37.6979Z" fill="#FCD7BE"/>
<path d="M24.0017 41.9116C23.4274 37.8726 8.62852 38.449 7.28404 40.5318C2.8662 47.3771 4.22995 52.5635 7.23129 54.328C10.7193 56.3788 20.4243 51.6794 22.5334 50.4157C22.5334 50.4157 24.9673 48.7038 24.0017 41.9116Z" fill="#05D3F0"/>
<path d="M15.7058 19.9092C15.7058 19.9092 10.7008 20.0091 8.83016 20.8655C7.01504 21.7712 3.56738 26.3913 3.56738 26.3913C3.56738 26.3913 7.42191 29.4639 8.46135 30.6462C8.46135 30.6462 8.38383 33.9329 6.70174 39.159C5.01965 44.3852 22.3878 45.4968 24.0318 42.9757C25.6758 40.4547 24.5203 34.8391 23.98 29.7444C23.791 27.9651 23.8644 22.4403 21.3456 21.2555C18.8268 20.0707 15.7058 19.9092 15.7058 19.9092Z" fill="#E83F93"/>
<path d="M5.33272 7.88184C3.56669 7.76236 2.00662 10.7212 3.24835 11.9581C0.533705 11.548 -1.04748 5.41431 0.796993 2.14292C2.29789 -0.519123 7.00334 -0.908154 7.62627 2.15726C8.01113 2.95826 7.46389 5.56008 5.33272 7.88184Z" fill="#4D216B"/>
<path d="M8.97259 2.41886C9.71616 2.79308 9.7203 3.44353 9.10471 5.78584C8.63453 7.57471 7.46619 8.97504 6.03181 8.52483C4.81944 8.14393 4.49559 6.00426 5.22081 4.30571C6.06942 2.31802 7.60563 1.73017 8.97259 2.41886Z" fill="#E83F93"/>
<path d="M11.0169 12.8369C11.0169 12.8369 9.87972 14.99 11.2072 16.0051C12.1953 16.7602 12.0916 19.7907 12.3063 20.9029C12.8022 22.696 16.1723 24.4108 18.2475 24.1566C21.4681 23.7623 20.0979 21.4056 19.9819 17.7892C19.9516 16.8424 11.0169 12.8369 11.0169 12.8369Z" fill="#F8B78D"/>
<path d="M12.9063 14.2821C12.9063 14.2821 12.5247 16.5834 13.9756 18.2518C15.2907 19.7635 19.4434 20.5573 22.1815 19.4217C24.392 18.5051 24.3589 15.1869 23.3585 11.1775C22.447 7.52476 23.0282 5.94569 21.9911 4.56592C20.4562 2.52375 14.8522 1.09811 11.4779 2.45781C7.87061 3.91165 6.74906 9.39393 8.8206 11.3118C10.893 13.2293 12.8481 13.2479 12.9063 14.2821Z" fill="#FBD1B4"/>
<path d="M13.5533 14.2221C13.5533 14.2221 13.2102 10.3753 14.6001 8.98263C16.612 6.96627 21.3927 7.09149 21.9908 4.56613C22.7518 1.354 13.2258 -1.50639 8.44743 2.95647C5.10068 6.08258 5.00755 15.4246 12.0235 18.1454C12.5896 18.3648 11.496 15.4102 11.5222 14.4071C11.5483 13.4039 13.5533 14.2221 13.5533 14.2221Z" fill="#4D216B"/>
<path d="M14.1525 13.6377C13.9061 12.8616 13.3616 11.5975 11.9717 12.0553C11.0507 12.3588 10.8213 13.6626 11.4493 14.5802C12.1901 15.6637 14.9281 16.0818 14.1525 13.6377Z" fill="#FBD1B4"/>
<path d="M8.46116 30.6466C8.46116 30.6466 6.66898 32.942 6.24284 33.5299C5.8167 34.1173 10.3001 38.8377 10.6731 39.0188C11.046 39.2 12.0336 38.7976 12.8684 39.0322C13.7028 39.2669 14.545 40.0086 14.7262 40.3202C15.1478 40.7107 14.7083 41.6431 14.679 42.0475C15.023 42.5168 15.2868 42.7586 15.1886 43.2088C15.0478 43.8535 13.3107 45.9296 12.29 45.9521C12.001 45.9583 10.4277 45.3819 9.43318 44.4199C8.83594 43.8421 8.64189 42.7036 8.38593 42.4255C7.70383 41.6847 0.36723 35.7432 0.167691 33.4477C0.0204452 31.7544 4.40342 27.0674 4.40342 27.0674C4.40342 27.0674 7.7809 29.8322 8.46116 30.6466Z" fill="#FBD1B4"/>
<path d="M7.52771 31.8462C8.0222 31.2081 8.46026 30.647 8.46026 30.647C7.77999 29.8327 4.40252 27.0674 4.40252 27.0674C4.40252 27.0674 3.50849 28.0251 2.54199 29.229C4.4438 29.2677 7.39514 31.6975 7.52771 31.8462Z" fill="#F8B78D"/>
<path d="M14.7256 40.3201C14.6802 40.2422 14.5939 40.1375 14.477 40.0209C14.5522 40.7669 12.1646 39.5697 12.6178 39.9975C13.071 40.4252 14.6788 42.0468 14.6788 42.0468C14.7077 41.643 15.1471 40.7105 14.7256 40.3201Z" fill="#F8B78D"/>
<path d="M22.1812 21.8971C23.9853 23.7653 24.5591 25.8796 26.0352 29.4607C26.0352 29.4607 25.5467 30.9117 22.194 31.9068C20.8284 32.312 21.1669 20.8471 22.1812 21.8971Z" fill="#E83F93"/>
<path d="M7.2307 54.3292C10.0669 56.8689 15.9645 53.5989 19.3636 53.4579C21.0585 53.3877 21.4571 54.3359 22.8291 54.7182C24.5011 55.1837 27.113 55.1488 28.9125 55.6812C29.2502 55.7811 31.5414 52.7965 29.9336 51.5849C28.436 50.4565 26.2676 49.4147 21.7567 47.0026C19.3916 45.738 13.487 45.6759 10.6843 46.5968C5.50136 48.3002 5.1876 52.5002 7.2307 54.3292Z" fill="#FBD1B4"/>
<path d="M27.9282 55.4532C27.9282 55.4532 30.2653 57.438 32.6745 57.341C33.1873 57.1221 36.0965 53.2342 36.7951 50.4785C37.4937 47.7228 36.3272 46.2402 35.5767 46.1867C34.5488 46.1136 31.8671 47.944 29.8672 49.1685C29.3259 49.4997 28.8681 49.5221 28.1337 49.3921C27.3988 49.2621 27.5213 51.5724 27.9966 51.7507C28.4718 51.929 29.2823 51.8577 29.6571 52.253C30.3942 53.0311 29.8369 55.5875 27.9282 55.4532Z" fill="#E6E9F5"/>
<path d="M36.7944 50.4783C36.0958 53.2344 33.1867 57.1219 32.6738 57.3408C33.0266 57.5209 33.3142 57.4125 33.5435 57.3145C34.0564 57.0956 36.7811 53.3855 37.4797 50.6297C38.1783 47.874 37.1215 46.4646 35.8233 46.252C35.822 46.252 35.8201 46.2524 35.8183 46.252C36.5467 46.5616 37.421 48.0055 36.7944 50.4783Z" fill="#ACB3D8"/>
</svg>
