<svg width="92" height="113" viewBox="0 0 92 113" fill="none" xmlns="http://www.w3.org/2000/svg">
<path d="M10.8966 29.1768C10.5834 29.1401 1.45262 30.039 0.856823 39.8253L2.41937 46.6015C9.7981 43.8622 17.933 43.972 25.2349 46.9099L25.3438 46.9534L24.7083 39.2118C24.7083 39.2118 22.3824 30.5231 10.8966 29.1768Z" fill="#263238"/>
<path d="M30.0635 76.4214C29.3283 76.4834 28.9607 76.5168 28.2302 76.5789C27.5523 64.8825 26.2538 53.3962 24.2917 41.8479C23.5851 37.9952 21.2458 34.663 18.2287 32.6531C16.9301 31.8081 17.0543 31.9274 16.0804 31.493C14.6625 30.8915 13.1586 30.5573 11.6453 30.5334C11.6405 30.5334 11.6405 30.5334 11.6357 30.5334C11.6357 30.5382 11.6357 30.5382 11.6405 30.543C11.6405 30.543 11.6405 30.5477 11.6357 30.5477C10.9674 30.5143 9.78341 30.6766 9.78341 30.6766C8.34643 30.9058 7.03834 31.4214 5.91167 32.1805C5.44859 32.4812 4.34579 33.522 4.34579 33.522C4.09277 33.7941 3.84929 34.0805 3.62969 34.3908C2.02084 36.6203 1.4766 39.437 2.06381 42.416C4.01638 52.9713 5.35312 63.479 6.12651 74.1919C5.39131 74.2396 5.02848 74.2635 4.29328 74.316C3.52944 63.6843 2.20226 53.253 0.268784 42.774C-0.423449 39.2794 0.225815 35.9615 2.14497 33.288C4.03549 30.6575 7.01448 28.8816 10.3706 28.6525C17.5317 28.1655 24.9839 33.9946 26.0867 41.4612C28.0632 53.0859 29.376 64.6486 30.0635 76.4214Z" fill="#263238"/>
<path opacity="0.3" d="M30.0635 76.4214C29.3283 76.4834 28.9607 76.5168 28.2302 76.5789C27.5523 64.8825 26.2538 53.3962 24.2917 41.8479C23.5851 37.9952 21.2458 34.663 18.2287 32.6531C16.9301 31.8081 17.0543 31.9274 16.0804 31.493C14.6625 30.8915 13.1586 30.5573 11.6453 30.5334C11.6453 30.5334 11.6453 30.5382 11.6405 30.543C11.6405 30.543 11.6405 30.5477 11.6357 30.5477C10.9674 30.5143 9.78341 30.6766 9.78341 30.6766C8.34643 30.9058 7.03834 31.4214 5.91167 32.1805C5.44859 32.4812 4.34579 33.522 4.34579 33.522C4.09277 33.7941 3.84929 34.0805 3.62969 34.3908C2.02084 36.6203 1.4766 39.437 2.06381 42.416C4.01638 52.9713 5.35312 63.479 6.12651 74.1919C5.39131 74.2396 5.02848 74.2635 4.29328 74.316C3.52944 63.6843 2.20226 53.253 0.268784 42.774C-0.423449 39.2794 0.225815 35.9615 2.14497 33.288C4.03549 30.6575 7.01448 28.8816 10.3706 28.6525C17.5317 28.1655 24.9839 33.9946 26.0867 41.4612C28.0632 53.0859 29.376 64.6486 30.0635 76.4214Z" fill="white"/>
<path d="M46.4297 75.3158H4.25833V74.3348C4.25833 72.4013 5.82564 70.834 7.75912 70.834H42.9289C44.8624 70.834 46.4297 72.4013 46.4297 74.3348V75.3158Z" fill="#263238"/>
<path d="M5.68608 112.154H3.44515L5.27838 75.3174H8.13086L5.68608 112.154Z" fill="#263238"/>
<path opacity="0.3" d="M5.68608 112.154H3.44515L5.27838 75.3174H8.13086L5.68608 112.154Z" fill="white"/>
<path d="M20.6604 112.154H18.4195L19.6417 75.3174H22.4941L20.6604 112.154Z" fill="#263238"/>
<path opacity="0.3" d="M20.6604 112.154H18.4195L19.6417 75.3174H22.4941L20.6604 112.154Z" fill="white"/>
<path d="M32.2725 112.154H30.0315L28.1978 75.3174H31.0503L32.2725 112.154Z" fill="#263238"/>
<path opacity="0.3" d="M32.2725 112.154H30.0315L28.1978 75.3174H31.0503L32.2725 112.154Z" fill="white"/>
<path d="M47.2461 112.154H45.0047L42.5604 75.3174H45.4124L47.2461 112.154Z" fill="#263238"/>
<path opacity="0.3" d="M47.2461 112.154H45.0047L42.5604 75.3174H45.4124L47.2461 112.154Z" fill="white"/>
<path d="M48.2674 76.9482H23.209V73.6885H48.2674V76.9482Z" fill="#263238"/>
<path opacity="0.7" d="M48.2674 76.9482H23.209V73.6885H48.2674V76.9482Z" fill="white"/>
<path d="M23.2089 76.9482H2.41895L2.41895 73.6885H23.2089V76.9482Z" fill="#263238"/>
<path opacity="0.4" d="M23.2098 76.9482H2.41992L2.41992 73.6885H23.2098V76.9482Z" fill="white"/>
<path d="M30.7425 23.3354C35.2984 24.2338 44.3217 28.1146 44.379 27.8979C44.379 27.8979 51.9755 26.101 55.0958 22.6574C55.0958 22.6574 58.0776 22.2889 59.6406 21.9814C58.5068 24.6501 56.3012 27.8845 53.8459 29.427C50.729 31.3853 49.8792 31.9773 46.7933 33.1522C42.9349 34.6207 37.0285 33.0605 33.2083 31.4946C31.7976 30.9165 30.3563 30.1827 29.528 28.9028C28.6992 27.6229 29.4793 24.1894 30.7425 23.3354Z" fill="#FF8492"/>
<path opacity="0.7" d="M30.7425 23.3354C35.2984 24.2338 44.3217 28.1146 44.379 27.8979C44.379 27.8979 51.9755 26.101 55.0958 22.6574C55.0958 22.6574 58.0776 22.2889 59.6406 21.9814C58.5068 24.6501 56.3012 27.8845 53.8459 29.427C50.729 31.3853 49.8792 31.9773 46.7933 33.1522C42.9349 34.6207 37.0285 33.0605 33.2083 31.4946C31.7976 30.9165 30.3563 30.1827 29.528 28.9028C28.6992 27.6229 29.4793 24.1894 30.7425 23.3354Z" fill="white"/>
<path d="M42.841 23.1097C46.623 23.1097 50.405 23.1097 54.187 23.1097C55.7753 17.3651 52.5987 11.6206 54.187 5.87598C50.405 5.87598 46.623 5.87598 42.841 5.87598C41.2527 11.6206 44.4294 17.3651 42.841 23.1097Z" fill="#FF8492"/>
<g opacity="0.7">
<path d="M42.841 23.1097C46.623 23.1097 50.405 23.1097 54.187 23.1097C55.7753 17.3651 52.5987 11.6206 54.187 5.87598C50.405 5.87598 46.623 5.87598 42.841 5.87598C41.2527 11.6206 44.4294 17.3651 42.841 23.1097Z" fill="white"/>
</g>
<path d="M52.4123 20.0495L54.2374 20.9294C54.4384 21.4096 54.8055 22.1253 55.3326 22.4045C55.9069 22.7053 56.4406 22.9569 56.9481 23.0863C57.7635 23.2939 58.5097 23.1851 59.2415 22.4508C59.4941 22.1969 59.5628 21.814 59.4191 21.4884L57.6776 18.233C57.4785 17.8606 57.1161 17.6028 56.6984 17.5369L53.833 17.0848C53.475 17.0323 53.115 17.177 52.8973 17.4639L52.0571 18.5662C51.6799 19.0627 51.8537 19.7817 52.4123 20.0495Z" fill="#CE7A63"/>
<path d="M14.2146 50.2808L11.5292 60.0838L26.2885 63.2485L35.2012 58.5303L32.711 50.0908L14.2146 50.2808Z" fill="#FF8492"/>
<path opacity="0.1" d="M14.2146 50.2808L11.5292 60.0838L26.2885 63.2485L35.2012 58.5303L32.711 50.0908L14.2146 50.2808Z" fill="black"/>
<path d="M34.1478 28.9725C34.4801 32.1606 34.3622 33.9432 34.1827 36.5336C34.0428 39.9126 33.3071 43.4669 32.3881 48.9384C30.5367 50.0197 21.1782 49.5734 15.1902 48.7985C15.5535 44.0054 14.9582 38.5253 11.7104 27.7398C10.9575 25.2406 12.6384 22.8374 15.3172 22.5834C16.0352 22.5132 16.7966 22.4564 17.5758 22.4216C20.3098 22.2397 23.053 22.2397 25.7875 22.4216C26.6631 22.5003 27.6084 22.6054 28.4925 22.719C31.6835 23.1353 33.5611 25.5887 34.1478 28.9725Z" fill="#FF8492"/>
<path d="M32.7115 50.0917C26.6743 50.7587 20.5812 50.7467 14.5463 50.0569C14.3105 50.0039 14.162 49.77 14.215 49.5341C14.2193 49.5155 14.2246 49.4973 14.2313 49.4792C14.3802 49.1293 14.5287 48.7832 14.669 48.4332C14.7321 48.2762 14.8901 48.1783 15.0586 48.1926C20.8629 48.8319 26.7196 48.8319 32.5234 48.1926C32.7368 48.1654 32.9316 48.3167 32.9588 48.5301C32.9598 48.5387 32.9607 48.5473 32.9612 48.5559C33.0008 48.9192 33.0357 49.2782 33.0705 49.6415C33.0963 49.8649 32.9359 50.0669 32.7125 50.0922L32.7115 50.0917Z" fill="#FF8492"/>
<path d="M26.0144 22.2832C30.4781 28.0135 30.7994 42.1742 29.6636 69.9877C29.5648 72.411 31.8883 72.2343 34.167 71.7655C37.5551 71.068 38.9004 71.3206 38.9004 71.3206C38.9004 71.3206 33.4948 57.1164 34.3703 44.3793C35.2459 31.6417 34.6386 27.1403 32.5724 24.7857C30.5067 22.4302 26.0144 22.2832 26.0144 22.2832Z" fill="#FF8492"/>
<path opacity="0.7" d="M26.0144 22.2832C30.4781 28.0135 30.8022 42.1742 29.6665 69.9877C29.5677 72.4109 31.7752 72.1489 34.1698 71.7655C37.2868 71.2661 38.9004 71.3206 38.9004 71.3206C38.9004 71.3206 33.4948 57.1164 34.3703 44.3793C35.2459 31.6417 34.6386 27.1403 32.5724 24.7857C30.5067 22.4302 26.0144 22.2832 26.0144 22.2832Z" fill="white"/>
<path d="M18.1527 13.1816C18.8664 15.8078 19.7415 20.6664 18.0257 22.4308C18.0257 22.4308 20.2929 24.2516 25.1004 26.0013C26.5354 25.6361 26.2332 22.4308 26.2332 22.4308C23.2304 21.7262 23.143 19.5421 23.5063 17.4888L18.1527 13.1816Z" fill="#CE7A63"/>
<path opacity="0.2" d="M20.3374 14.9375L23.5107 17.4849C23.42 17.9657 23.3713 18.4531 23.3666 18.9424C22.2284 18.7806 20.5914 17.546 20.3814 16.3645C20.2816 15.8952 20.2668 15.412 20.3374 14.9375Z" fill="black"/>
<path d="M23.0811 3.51277C26.19 7.67286 27.5721 13.0837 26.8392 18.2249C28.3459 15.3681 29.718 16.9244 29.8135 13.6962C29.8617 12.0745 29.0167 5.48922 28.2958 4.03553C27.5749 2.58184 26.0964 1.40409 24.4752 1.47045C23.8961 1.49384 23.3022 1.68814 22.9045 2.11016C22.5068 2.53219 22.7341 3.04826 23.0811 3.51277Z" fill="#263238"/>
<path d="M15.8946 7.87699C16.6957 12.145 16.9453 13.9658 19.3963 16.01C23.0599 19.074 28.0936 17.4632 28.5882 13.1122C29.026 9.19461 27.6382 2.87381 23.2394 1.46451C20.3535 0.409931 17.1592 1.89418 16.1046 4.78008C15.7423 5.77212 15.6693 6.8458 15.8946 7.87699Z" fill="#CE7A63"/>
<path d="M23.3043 8.85635C23.4074 9.20438 23.6767 9.44833 23.8996 9.39868C24.1226 9.34903 24.2262 9.02488 24.1278 8.67637C24.029 8.32787 23.755 8.0801 23.532 8.12927C23.3086 8.17892 23.205 8.50355 23.3043 8.85635Z" fill="#263238"/>
<path d="M26.9333 7.98029C27.0364 8.32832 27.3014 8.57323 27.5286 8.5231C27.7559 8.47298 27.8552 8.14882 27.7525 7.80127C27.6494 7.45324 27.3845 7.20834 27.1572 7.25846C26.93 7.30859 26.8297 7.62797 26.9333 7.98029Z" fill="#263238"/>
<path d="M27.0652 7.29982L27.8262 6.87207C27.8262 6.87207 27.5894 7.62684 27.0652 7.29982Z" fill="#263238"/>
<path d="M25.916 8.81641C26.4588 9.54826 27.0928 10.2076 27.8027 10.779C27.4719 11.3085 26.6369 11.2822 26.6369 11.2822L25.916 8.81641Z" fill="#BA4D3C"/>
<path d="M25.0231 13.0116C25.2236 13.0031 25.4222 12.9744 25.6165 12.9267C25.671 12.9147 25.7049 12.8608 25.6929 12.8064C25.6924 12.8044 25.692 12.8025 25.6915 12.8006C25.6743 12.7433 25.6151 12.709 25.5564 12.7228C24.6593 12.9219 23.7208 12.7037 23.0037 12.1294C22.9574 12.0946 22.8915 12.1041 22.8567 12.1504C22.8218 12.1967 22.8314 12.2631 22.8777 12.2979C22.8777 12.2979 22.8777 12.2979 22.8782 12.2984C23.4806 12.7925 24.2445 13.0465 25.0231 13.0116Z" fill="#263238"/>
<path d="M26.3047 2.01814C24.9675 0.180137 21.3349 -0.321135 19.2038 0.186822C11.6599 1.98424 15.122 8.25493 10.7547 11.7786C12.0222 14.0544 13.2472 13.5718 14.7253 14.5991C15.5903 15.2002 17.8809 17.0745 18.9169 16.9904C18.8663 14.855 17.9311 12.4012 18.365 10.3159C18.799 8.23058 19.6459 6.20353 21.0346 4.662C22.4234 3.11951 24.2996 1.92552 26.3047 2.01814Z" fill="#263238"/>
<path opacity="0.2" d="M26.3047 2.01814C24.9675 0.180137 21.3349 -0.321135 19.2038 0.186822C11.6599 1.98424 15.122 8.25493 10.7547 11.7786C12.0222 14.0544 13.2472 13.5718 14.7253 14.5991C15.5903 15.2002 17.8809 17.0745 18.9169 16.9904C18.8663 14.855 17.9311 12.4012 18.365 10.3159C18.799 8.23058 19.6459 6.20353 21.0346 4.662C22.4234 3.11951 24.2996 1.92552 26.3047 2.01814Z" fill="black"/>
<path d="M26.3047 2.01814C24.9675 0.180137 21.3349 -0.321135 19.2038 0.186822C11.6599 1.98424 15.122 8.25493 10.7547 11.7786C12.0222 14.0544 13.2472 13.5718 14.7253 14.5991C15.5903 15.2002 17.8809 17.0745 18.9169 16.9904C18.8663 14.855 17.9311 12.4012 18.365 10.3159C18.799 8.23058 19.6459 6.20353 21.0346 4.662C22.4234 3.11951 24.2996 1.92552 26.3047 2.01814Z" fill="#263238"/>
<path opacity="0.1" d="M26.3047 2.01814C24.9675 0.180137 21.3349 -0.321135 19.2038 0.186822C11.6599 1.98424 15.122 8.25493 10.7547 11.7786C12.0222 14.0544 13.2472 13.5718 14.7253 14.5991C15.5903 15.2002 17.8809 17.0745 18.9169 16.9904C18.8663 14.855 17.9311 12.4012 18.365 10.3159C18.799 8.23058 19.6459 6.20353 21.0346 4.662C22.4234 3.11951 24.2996 1.92552 26.3047 2.01814Z" fill="black"/>
<path d="M16.1485 12.1964C16.5925 12.9101 17.3172 13.4033 18.1446 13.5532C19.16 13.6931 19.4579 12.5115 18.9848 11.4216C18.547 10.441 17.5273 9.18926 16.5949 9.55256C15.6626 9.91587 15.5489 11.2641 16.1485 12.1964Z" fill="#CE7A63"/>
<path d="M21.6766 7.46059C21.7286 7.44292 21.7697 7.40282 21.7893 7.35174C21.9654 6.85715 22.3798 6.48525 22.8902 6.36256C22.9957 6.34824 23.0692 6.25085 23.0549 6.14582C23.0539 6.13818 23.0525 6.13054 23.0506 6.12291C23.0224 6.0069 22.9093 5.93242 22.7918 5.95247C22.1421 6.09617 21.6117 6.56307 21.3863 7.18895C21.3501 7.29923 21.4083 7.41858 21.5176 7.45773C21.5673 7.48016 21.625 7.48159 21.6766 7.46059Z" fill="#263238"/>
<path d="M27.7361 5.91537C27.845 5.91108 27.9295 5.81989 27.9257 5.71104C27.9233 5.6485 27.8913 5.59121 27.8397 5.55589C27.326 5.08851 26.6233 4.88848 25.9401 5.01451C25.8351 5.0422 25.7721 5.15009 25.8003 5.25512C25.8017 5.25942 25.8026 5.26372 25.8041 5.26801C25.8404 5.38116 25.9578 5.44704 26.0733 5.41935C26.6152 5.32769 27.169 5.49144 27.5738 5.86286C27.6196 5.90057 27.6774 5.91919 27.7361 5.91537Z" fill="#263238"/>
<path d="M23.4373 8.17142L24.1982 7.74414C24.1982 7.74414 23.961 8.49462 23.4373 8.17142Z" fill="#263238"/>
<path d="M25.6548 1.83679C25.9623 2.20249 26.2583 2.59013 26.4196 3.03984C26.581 3.48956 26.5915 4.01518 26.3442 4.42432C26.127 4.78332 25.7446 5.00817 25.3603 5.17574C24.9693 5.34617 24.5592 5.47317 24.1405 5.55385C24.6036 5.14806 24.7711 4.60859 24.6222 4.01089C24.5983 4.50691 24.1515 5.07024 23.7247 5.32374C23.2979 5.57724 22.8124 5.71426 22.3693 5.93768C20.9701 6.64328 18.3654 10.3169 20.2936 17.9625C18.5874 17.3295 16.1951 11.3309 16.5952 9.55544C16.9947 7.77998 17.0516 3.21505 21.6112 1.61958C22.8315 1.19326 24.4112 1.48352 25.6548 1.83679Z" fill="#263238"/>
<path d="M47.705 108.075L51.8073 108.472L54.2373 96.9185L49.4003 96.3613L47.705 108.075Z" fill="#CE7A63"/>
<path d="M53.5026 107.52C53.1264 107.129 52.607 106.91 52.0656 106.872L47.6654 106.565C47.4601 106.542 47.273 106.682 47.2357 106.885L46.3883 110.966C46.2862 111.433 46.5812 111.894 47.0476 111.997C47.0577 111.999 47.0672 112.001 47.0772 112.002C48.7376 112.432 49.7822 112.085 52.3191 112.26C53.8816 112.37 57.2125 112.991 59.3436 112.64C61.4747 112.289 61.2083 110.17 60.2884 110.125C57.0296 110.016 54.3476 108.396 53.5026 107.52Z" fill="#263238"/>
<g opacity="0.2">
<path d="M54.2383 96.9267L52.8242 103.646L48.4755 102.739L49.3965 96.3662L54.2383 96.9267Z" fill="black"/>
</g>
<path d="M28.5312 72.971C28.6969 72.971 28.8625 72.971 29.033 72.9562C29.3089 72.9514 29.5901 72.9309 29.8708 72.896L51.827 71.7226C48.2837 74.9699 47.6975 101.021 47.6975 101.021L48.7516 101.247L53.5094 102.266H53.5142L54.3873 102.452C54.3873 102.452 56.38 93.9194 58.6883 84.1327C59.8526 79.1791 61.3631 74.0547 62.0105 69.1365C62.191 67.8065 62.3017 66.4864 62.327 65.1917C62.337 64.7902 62.337 64.3887 62.3218 63.9872C62.327 63.9471 62.3218 63.9018 62.3218 63.8617C62.3165 63.6912 62.3017 63.5256 62.2817 63.3647C62.1714 62.5464 61.8348 61.8289 61.323 61.2064C61.2677 61.1409 61.2175 61.0808 61.1622 61.0207C61.1068 60.9605 61.0519 60.9003 60.9917 60.845C60.8762 60.7247 60.7559 60.6139 60.6256 60.5036C60.4947 60.3933 60.3596 60.2878 60.2188 60.1823C60.098 60.0969 59.9777 60.0119 59.8474 59.9264C59.697 59.831 59.5414 59.7407 59.3805 59.6505C59.3003 59.6051 59.2201 59.5603 59.1346 59.5202C58.8835 59.3898 58.6276 59.2643 58.3569 59.1487C58.2767 59.1187 58.2013 59.0833 58.1211 59.0485C58.0156 59.0084 57.9106 58.9683 57.7998 58.9282C57.7043 58.8881 57.6089 58.8528 57.5139 58.8227C57.2226 58.7172 56.9214 58.6169 56.6106 58.5315C56.5605 58.5167 56.5103 58.5014 56.455 58.4861C56.4397 58.4813 56.4249 58.4761 56.4096 58.4761C48.0832 56.1172 33.9101 57.939 33.9101 57.939C33.9101 57.939 30.1711 55.1687 26.1915 54.6416C26.0058 54.6664 25.8201 54.687 25.6291 54.707C25.0619 54.7672 24.47 54.8326 23.8575 54.9027C23.8326 54.908 23.8073 54.908 23.782 54.9128C17.9668 65.1468 21.5802 72.896 28.5312 72.971Z" fill="#FF8492"/>
<g opacity="0.1">
<path d="M28.5312 72.971C28.6969 72.971 28.8625 72.971 29.033 72.9562C29.3089 72.9514 29.5901 72.9309 29.8708 72.896L51.827 71.7226C48.2837 74.9699 47.6975 101.021 47.6975 101.021L48.7516 101.247L53.5094 102.266H53.5142L54.3873 102.452C54.3873 102.452 56.38 93.9194 58.6883 84.1327C59.8526 79.1791 61.3631 74.0547 62.0105 69.1365C62.191 67.8065 62.3017 66.4864 62.327 65.1917C62.337 64.7902 62.337 64.3887 62.3218 63.9872C62.327 63.9471 62.3218 63.9018 62.3218 63.8617C62.3165 63.6912 62.3017 63.5256 62.2817 63.3647C62.1714 62.5464 61.8348 61.8289 61.323 61.2064C61.2677 61.1409 61.2175 61.0808 61.1622 61.0207C61.1068 60.9605 61.0519 60.9003 60.9917 60.845C60.8762 60.7247 60.7559 60.6139 60.6256 60.5036C60.4947 60.3933 60.3596 60.2878 60.2188 60.1823C60.098 60.0969 59.9777 60.0119 59.8474 59.9264C59.697 59.831 59.5414 59.7407 59.3805 59.6505C59.3003 59.6051 59.2201 59.5603 59.1346 59.5202C58.8835 59.3898 58.6276 59.2643 58.3569 59.1487C58.2767 59.1187 58.2013 59.0833 58.1211 59.0485C58.0156 59.0084 57.9106 58.9683 57.7998 58.9282C57.7043 58.8881 57.6089 58.8528 57.5139 58.8227C57.2226 58.7172 56.9214 58.6169 56.6106 58.5315C56.5605 58.5167 56.5103 58.5014 56.455 58.4861C56.4397 58.4813 56.4249 58.4761 56.4096 58.4761C48.0832 56.1172 33.9101 57.939 33.9101 57.939C33.9101 57.939 30.1711 55.1687 26.1915 54.6416C26.0058 54.6664 25.8201 54.687 25.6291 54.707C25.0619 54.7672 24.47 54.8326 23.8575 54.9027C23.8326 54.908 23.8073 54.908 23.782 54.9128C17.9668 65.1468 21.5802 72.896 28.5312 72.971Z" fill="black"/>
</g>
<path d="M74.856 88.4628L76.0304 90.2598L78.6451 94.2747L83.0215 94.7311L79.704 87.7601L77.4507 83.0176L74.856 88.4628Z" fill="#CE7A63"/>
<path d="M81.9125 91.7289L78.2876 93.9899C78.11 94.0853 78.036 94.3021 78.1181 94.4864L79.8959 98.6326C80.1079 99.0494 80.6173 99.215 81.0341 99.0035C81.0422 98.9993 81.0503 98.9954 81.0579 98.9911C82.7446 97.9638 83.5046 97.3847 85.6506 96.1281C86.972 95.3543 89.1504 94.0906 90.9722 93.0241C92.7939 91.9576 91.81 90.1138 90.9497 90.395C87.1028 91.6673 84.5349 91.843 82.8071 91.5618C82.4992 91.5102 82.1822 91.5694 81.9125 91.7289Z" fill="#263238"/>
<g opacity="0.2">
<path d="M74.8561 88.4628L76.0257 90.2598H76.0305L79.7041 87.7601L77.4508 83.0176L74.8561 88.4628Z" fill="black"/>
</g>
<path d="M27.1209 73.3709C27.5578 73.3155 28.0294 73.2253 28.5312 73.0949C28.6968 73.0548 28.8625 73.0095 29.0329 72.9546C33.0632 71.7954 38.865 68.6183 44.2649 65.4913C49.2385 62.6155 53.856 59.7797 56.4105 58.6005C56.4258 58.6005 56.4406 58.6053 56.4559 58.6105C56.5113 58.6253 56.5614 58.6406 56.6115 58.6559C56.9228 58.7413 57.2236 58.8416 57.5148 58.9471C57.6102 58.9772 57.7053 59.0125 57.8007 59.0526C57.911 59.0927 58.0165 59.1328 58.122 59.1729C58.2022 59.2082 58.2777 59.2431 58.3579 59.2732C58.6285 59.3887 58.8849 59.5142 59.1355 59.6446C59.221 59.6847 59.3012 59.73 59.3814 59.7749C59.5423 59.8651 59.6975 59.9559 59.8483 60.0509C59.9786 60.1363 60.0994 60.2213 60.2197 60.3067C60.3601 60.4123 60.4957 60.5173 60.6265 60.628C60.7568 60.7383 60.8776 60.8486 60.9926 60.9694C61.0528 61.0248 61.1082 61.0849 61.1631 61.1451C61.2185 61.2052 61.2686 61.2654 61.324 61.3308C61.8357 61.9528 62.1723 62.6708 62.2826 63.4891C62.3026 63.6495 62.3179 63.8152 62.3227 63.9861C62.338 64.3876 62.338 64.7891 62.3279 65.1906C62.3079 66.4905 62.2024 67.8206 62.0267 69.1607C62.0219 69.196 62.0167 69.2261 62.0114 69.2609C68.009 80.0717 74.2425 89.878 74.2425 89.878L75.3013 89.1505L79.1206 86.5305L79.7832 86.0736C79.7832 86.0736 73.1282 70.4802 68.5461 56.5878C66.8198 51.3531 61.9212 47.8098 56.4058 47.8599C45.1033 47.9602 30.2675 54.2089 30.2675 54.2089C30.2675 54.2089 28.5312 54.3893 26.1924 54.6404C26.0067 54.6653 25.821 54.6858 25.63 54.7059C25.0629 54.766 24.4709 54.8314 23.8584 54.9016C23.8335 54.9068 23.8082 54.9069 23.7829 54.9116C22.8162 55.0176 21.7583 55.0969 20.7214 55.1709C18.3754 55.3389 16.3966 56.9764 15.7769 59.2455C12.7745 70.2458 19.9971 74.2459 27.1209 73.3709Z" fill="#FF8492"/>
<path d="M27.1209 73.3709C27.5578 73.3155 28.0294 73.2253 28.5312 73.0949C28.6968 73.0548 28.8625 73.0095 29.0329 72.9546C33.0632 71.7954 38.865 68.6183 44.2649 65.4913C49.2385 62.6155 53.856 59.7797 56.4105 58.6005C56.4258 58.6005 56.4406 58.6053 56.4559 58.6105C56.5113 58.6253 56.5614 58.6406 56.6115 58.6559C56.9228 58.7413 57.2236 58.8416 57.5148 58.9471C57.6102 58.9772 57.7053 59.0125 57.8007 59.0526C57.911 59.0927 58.0165 59.1328 58.122 59.1729C58.2022 59.2082 58.2777 59.2431 58.3579 59.2732C58.6285 59.3887 58.8849 59.5142 59.1355 59.6446C59.221 59.6847 59.3012 59.73 59.3814 59.7749C59.5423 59.8651 59.6975 59.9559 59.8483 60.0509C59.9786 60.1363 60.0994 60.2213 60.2197 60.3067C60.3601 60.4123 60.4957 60.5173 60.6265 60.628C60.7568 60.7383 60.8776 60.8486 60.9926 60.9694C61.0528 61.0248 61.1082 61.0849 61.1631 61.1451C61.2185 61.2052 61.2686 61.2654 61.324 61.3308C61.8357 61.9528 62.1723 62.6708 62.2826 63.4891C62.3026 63.6495 62.3179 63.8152 62.3227 63.9861C62.338 64.3876 62.338 64.7891 62.3279 65.1906C62.3079 66.4905 62.2024 67.8206 62.0267 69.1607C62.0219 69.196 62.0167 69.2261 62.0114 69.2609C68.009 80.0717 74.2425 89.878 74.2425 89.878L75.3013 89.1505L79.1206 86.5305L79.7832 86.0736C79.7832 86.0736 73.1282 70.4802 68.5461 56.5878C66.8198 51.3531 61.9212 47.8098 56.4058 47.8599C45.1033 47.9602 30.2675 54.2089 30.2675 54.2089C30.2675 54.2089 28.5312 54.3893 26.1924 54.6404C26.0067 54.6653 25.821 54.6858 25.63 54.7059C25.0629 54.766 24.4709 54.8314 23.8584 54.9016C23.8335 54.9068 23.8082 54.9069 23.7829 54.9116C22.8162 55.0176 21.7583 55.0969 20.7214 55.1709C18.3754 55.3389 16.3966 56.9764 15.7769 59.2455C12.7745 70.2458 19.9971 74.2459 27.1209 73.3709Z" fill="#FF8492"/>
<path d="M56.4567 58.4785V58.4833C56.512 58.4986 56.5622 58.5134 56.6123 58.5286C56.5622 58.5086 56.512 58.4933 56.4567 58.4785Z" fill="#FF8492"/>
<path d="M17.8373 22.0196C17.8373 22.0196 20.9452 24.7818 21.8733 31.4392C23.3513 42.1784 22.5808 62.878 22.0246 74.7004C21.943 76.4391 20.1924 77.5854 18.5616 76.9772C14.8708 75.5999 8.83878 76.6769 6.1319 74.3452C5.93904 70.7824 12.1343 52.5853 11.5304 43.1656C10.9265 33.746 9.75778 25.539 10.9742 23.7659C12.1911 21.9928 17.8373 22.0196 17.8373 22.0196Z" fill="#FF8492"/>
<path opacity="0.7" d="M17.8371 22.0196C17.8371 22.0196 20.945 24.7818 21.8731 31.4392C23.3511 42.1784 22.497 62.878 21.9413 74.7004C21.8597 76.4391 20.109 77.5854 18.4782 76.9772C14.787 75.5999 8.83852 76.6769 6.13165 74.3452C5.93878 70.7824 12.134 52.5853 11.5301 43.1656C10.9262 33.746 9.75752 25.539 10.9739 23.7659C12.1908 21.9928 17.8371 22.0196 17.8371 22.0196Z" fill="white"/>
<path d="M17.9755 36.1526C18.0639 36.1474 18.1307 36.0715 18.1254 35.9836C18.1221 35.9273 18.0892 35.8772 18.0395 35.8514L17.3754 35.5253C16.1065 34.9152 15.3479 33.5828 15.4716 32.1797L16.0096 25.7238C16.1065 24.5407 17.1444 23.6604 18.3274 23.7578C19.1332 23.8242 19.8341 24.3369 20.1401 25.0855L22.6025 31.0735C23.1449 32.3725 22.8274 33.8716 21.8043 34.8393L21.2668 35.3534C21.2076 35.4169 21.2104 35.5167 21.273 35.5769C21.3369 35.6361 21.4362 35.6332 21.4964 35.5711L22.0339 35.0613C23.1477 33.9995 23.49 32.3606 22.8942 30.9422L20.4122 24.9671C19.8895 23.7077 18.4448 23.1109 17.1859 23.6337C16.3352 23.987 15.7518 24.7842 15.673 25.7018L15.135 32.1539C15.0037 33.6911 15.8387 35.1491 17.2313 35.8141L17.8953 36.1359C17.9192 36.1498 17.9474 36.156 17.9755 36.1526Z" fill="#263238"/>
<path d="M15.7515 27.1367C15.8303 27.1353 15.8957 27.0751 15.9033 26.9968C16.0656 25.9265 16.934 25.1035 18.0115 24.9979C18.8952 24.8624 20.1083 25.1097 20.6229 26.2626C20.6534 26.3457 20.7451 26.3881 20.8277 26.3576C20.9108 26.327 20.9533 26.2354 20.9227 26.1528C20.9203 26.1466 20.9179 26.1408 20.9151 26.1346C20.1498 24.7478 18.4054 24.2437 17.0185 25.0085C16.2781 25.4171 15.7553 26.1313 15.5906 26.961C15.5811 27.046 15.6422 27.1229 15.7271 27.1334L15.7515 27.1367Z" fill="#263238"/>
<path d="M17.8111 23.7753C17.8971 23.7686 17.961 23.6941 17.9548 23.6082C17.9548 23.6067 17.9544 23.6048 17.9544 23.6034C17.8856 22.8262 17.9591 21.4054 18.6843 21.0183C18.7616 20.9753 18.7893 20.8779 18.7464 20.801C18.7034 20.7237 18.606 20.696 18.5292 20.739C17.4817 21.3147 17.6335 23.3967 17.656 23.6316C17.6617 23.7127 17.73 23.7753 17.8111 23.7753Z" fill="#263238"/>
<path d="M21.0237 35.5188C21.0719 35.8172 21.2653 36.032 21.46 35.9986C21.6548 35.9652 21.7756 35.7064 21.7279 35.4119C21.6801 35.1173 21.4906 34.8987 21.2953 34.9321C21.101 34.965 20.9798 35.2243 21.0237 35.5188Z" fill="#263238"/>
<path d="M17.6174 36.0512C17.6614 36.3458 17.859 36.5601 18.0538 36.531C18.2486 36.5019 18.3693 36.235 18.3216 35.9404C18.2739 35.6459 18.08 35.4315 17.8853 35.4607C17.6905 35.4898 17.5697 35.7528 17.6174 36.0512Z" fill="#263238"/>
<path d="M26.2254 29.8624C26.3882 30.526 26.878 30.9805 27.2962 30.8726C27.7144 30.7647 27.9551 30.157 27.7946 29.4776C27.6342 28.7983 27.142 28.3596 26.7238 28.4675C26.3061 28.5753 26.0669 29.1993 26.2254 29.8624Z" fill="#263238"/>
<path d="M27.5834 29.6331L27.6149 29.6374C27.7023 29.6311 27.7686 29.5557 27.7634 29.4684C27.5992 26.7963 26.0065 22.3718 24.2664 20.9224C24.2082 20.856 24.107 20.8498 24.0406 20.908C23.9742 20.9663 23.968 21.0675 24.0263 21.1334C24.0368 21.1453 24.0497 21.1558 24.0635 21.1644C25.744 22.577 27.2888 26.8508 27.4469 29.4812C27.4502 29.5581 27.5075 29.6216 27.5834 29.6331Z" fill="#263238"/>
<path d="M25.7567 29.9289C25.8641 30.496 26.2847 30.8966 26.6986 30.8207C27.1125 30.7443 27.366 30.2191 27.2633 29.6482C27.1602 29.0777 26.7353 28.6805 26.3214 28.7564C25.9075 28.8323 25.6497 29.3574 25.7567 29.9289Z" fill="white"/>
<path d="M25.7216 29.9807C25.871 30.6829 26.2553 31.1995 26.5752 31.1308C26.895 31.062 27.034 30.4357 26.8812 29.7291C26.7284 29.0225 26.3475 28.5103 26.0276 28.5795C25.7073 28.6478 25.5688 29.2741 25.7216 29.9807Z" fill="#263238"/>
<path d="M32.168 45.2456L42.1247 45.4313C42.5042 45.4385 42.8504 45.1372 42.8971 44.7582L44.7867 29.5176C44.8335 29.1385 44.5642 28.8258 44.1842 28.8186L34.2275 28.6329C33.848 28.6258 33.5023 28.9275 33.4551 29.3061L31.5655 44.5467C31.5187 44.9257 31.7885 45.2384 32.168 45.2456Z" fill="#263238"/>
<path d="M37.8635 29.9105L40.2477 29.9549C40.7222 29.964 41.1547 29.5868 41.2134 29.1132L41.3877 27.7092L37.2849 27.6328L37.1107 29.0369C37.0519 29.5104 37.389 29.9019 37.8635 29.9105Z" fill="#263238"/>
<path opacity="0.7" d="M37.8635 29.9105L40.2477 29.9549C40.7222 29.964 41.1547 29.5868 41.2134 29.1132L41.3877 27.7092L37.2849 27.6328L37.1107 29.0369C37.0519 29.5104 37.389 29.9019 37.8635 29.9105Z" fill="white"/>
<path d="M33.7685 28.673L34.2373 28.6816C33.8578 28.6744 33.5121 28.9761 33.4649 29.3547L31.5753 44.5953C31.5285 44.9744 31.7978 45.2871 32.1778 45.2942L31.709 45.2856C31.3295 45.2785 31.0597 44.9658 31.1065 44.5867L32.9961 29.3461C33.0428 28.9671 33.389 28.6658 33.7685 28.673Z" fill="white"/>
<path opacity="0.2" d="M14.4119 26.002C14.2616 26.329 17.4902 39.1912 17.4902 39.1912L15.0316 40.2734L14.4119 26.002Z" fill="black"/>
<path d="M9.11433 34.3079C9.67671 39.3574 10.1928 41.33 10.5518 41.878C12.4065 48.7192 18.2991 45.2781 19.1455 44.996C20.6173 44.5109 22.1336 43.517 23.541 42.8672C26.2717 41.6308 28.8487 40.6492 31.4023 39.0805L30.0957 36.2566C30.0957 36.2566 20.2937 38.3868 19.0071 38.6532C18.4476 38.7783 15.6547 39.2347 15.7307 37.7442C15.4423 37.2377 15.1893 28.5891 14.3858 25.1417C14.2956 24.7536 14.1223 24.3922 13.8845 24.0724L13.8039 23.964C13.2677 23.2417 12.9164 23.2446 11.9358 23.2827C9.8037 23.3663 8.79828 25.0162 8.57056 27.1378C8.36003 29.1013 8.89615 32.3448 9.11433 34.3079Z" fill="#FF8492"/>
<g opacity="0.7">
<path d="M9.11433 34.3079C9.67671 39.3574 10.1928 41.33 10.5518 41.878C12.4065 48.7192 18.2991 45.2781 19.1455 44.996C20.6173 44.5109 22.1336 43.517 23.541 42.8672C26.2717 41.6308 28.8487 40.6492 31.4023 39.0805L30.0957 36.2566C30.0957 36.2566 20.2937 38.3868 19.0071 38.6532C18.4476 38.7783 15.6547 39.2347 15.7307 37.7442C15.4423 37.2377 15.1893 28.5891 14.3858 25.1417C14.2956 24.7536 14.1223 24.3922 13.8845 24.0724L13.8039 23.964C13.2677 23.2417 12.9164 23.2446 11.9358 23.2827C9.8037 23.3663 8.79828 25.0162 8.57056 27.1378C8.36003 29.1013 8.89615 32.3448 9.11433 34.3079Z" fill="white"/>
</g>
<path d="M29.9719 36.5918C29.6459 38.0455 30.6212 39.4648 32.093 39.6968C33.2899 39.8854 34.4538 39.788 34.4538 39.788L34.6338 34.9414L30.9263 35.6642C30.4532 35.7587 30.0798 36.1215 29.9719 36.5918Z" fill="#CE7A63"/>
<path d="M34.6338 34.9414L34.4395 39.7985L36.2383 39.9074C37.3297 39.9732 38.3098 39.2442 38.5604 38.1801L38.5862 38.0693C38.8798 36.8214 38.0715 35.5811 36.8112 35.3462L34.6338 34.9414Z" fill="#CE7A63"/>
</svg>
