<svg width="47" height="47" viewBox="0 0 47 47" fill="none" xmlns="http://www.w3.org/2000/svg">
<path d="M23.5102 22.5784C22.2938 22.5784 21.307 23.5642 21.307 24.7815C21.4117 31.4138 20.5598 37.8075 18.7643 44.2011C18.5136 45.0934 18.9616 47 20.8866 47C21.8486 47 22.7326 46.3648 23.0062 45.3917C24.2482 40.9937 25.8556 33.8795 25.7124 24.7815C25.7133 23.5652 24.7274 22.5784 23.5102 22.5784ZM23.4312 15.0758C17.8077 15.0694 13.8834 19.3967 13.9614 24.3555C14.0303 28.7563 13.6172 33.1598 12.7341 37.4412C12.4872 38.6327 13.2546 39.7994 14.4452 40.0445C15.6432 40.2896 16.8016 39.525 17.0486 38.3334C17.9978 33.7353 18.4411 29.0087 18.3677 24.2867C18.3301 21.9046 20.1963 19.4683 23.366 19.482C26.2402 19.5252 28.6122 21.8082 28.6554 24.574C28.7261 28.9849 28.3974 33.4168 27.6814 37.7515C27.4822 38.9503 28.2955 40.0849 29.4953 40.2832C31.3285 40.5889 31.9564 38.8971 32.0271 38.4684C32.7871 33.8758 33.1341 29.1776 33.0616 24.5052C32.9808 19.3829 28.6609 15.1529 23.4312 15.0758ZM13.2702 13.2601C12.3247 12.4945 10.9413 12.6358 10.1711 13.5795C7.81931 16.4711 6.55527 20.1228 6.61402 23.8608C6.66818 27.3105 6.38728 30.7703 5.77775 34.1466C5.56295 35.3445 6.35699 36.4902 7.55494 36.7068C9.40097 37.0281 10.0399 35.3473 10.1152 34.9296C10.7752 31.2724 11.079 27.5253 11.0203 23.7919C10.9771 21.049 11.8648 18.4787 13.5906 16.3591C14.3571 15.4154 14.2139 14.0284 13.2702 13.2601ZM23.3192 7.53835C21.9046 7.50072 20.4854 7.67054 19.1168 7.99458C17.9335 8.27548 17.201 9.4615 17.48 10.6466C17.7609 11.8299 18.9488 12.5587 20.132 12.2833C21.1464 12.0437 22.1947 11.9373 23.2531 11.9446C30.1774 12.0483 35.8963 17.5901 36.0019 24.2986C36.056 27.7759 35.8844 31.2853 35.4896 34.7295C35.3519 35.9385 36.2194 37.0318 37.4275 37.1695C38.9623 37.3485 39.7692 36.0789 39.8674 35.2316C40.2846 31.5798 40.4652 27.9049 40.4081 24.2298C40.2649 15.1648 32.599 7.67605 23.3192 7.53835ZM46.4585 18.6871C46.1959 17.5011 45.0347 16.741 43.8321 17.01C42.6443 17.2725 41.8934 18.4475 42.1559 19.6363C42.5883 21.6016 42.6067 23.0704 42.5874 25.291C42.5773 26.5091 43.5558 27.5023 44.7721 27.5124H44.7905C45.9995 27.5124 46.9835 26.5385 46.9936 25.3277C47.0102 23.2916 47.0303 21.2785 46.4585 18.6871ZM42.7756 10.3593C38.3051 3.98949 30.9898 0.118412 23.2063 0.00182989C16.7998 -0.0752795 10.8743 2.28665 6.46714 6.69566C2.21052 10.9578 -0.0834801 16.6189 0.0119887 22.6417L0.000973051 24.6126C-0.0348277 25.8289 0.921696 26.8442 2.138 26.879C2.15912 26.8809 2.18207 26.8809 2.2041 26.8809C3.39011 26.8809 4.36959 25.9354 4.40447 24.742L4.41916 22.5719C4.34297 17.7526 6.17798 13.2215 9.58548 9.81216C13.1435 6.25044 17.9702 4.33464 23.142 4.409C29.5173 4.50355 35.5098 7.67329 39.1716 12.8901C39.8702 13.887 41.2426 14.1248 42.2395 13.428C43.2345 12.7285 43.4751 11.3543 42.7756 10.3593Z" fill="#553FB5"/>
</svg>
