<svg width="119" height="111" viewBox="0 0 119 111" fill="none" xmlns="http://www.w3.org/2000/svg">
<path d="M94.1523 28.7586H114.384C116.739 28.7586 118.647 26.8498 118.647 24.4952V4.26342C118.647 1.90882 116.739 0 114.384 0H94.1523C91.7977 0 89.8889 1.90882 89.8889 4.26342V24.4952C89.8889 26.8498 91.7977 28.7586 94.1523 28.7586Z" fill="#F0F0F0"/>
<path d="M112.235 19.2801V7.89469C112.235 6.20383 110.456 5.10417 108.944 5.86017L97.5581 11.5529C95.8816 12.391 95.8816 14.7835 97.5581 15.6216L108.944 21.3143C110.456 22.0706 112.235 20.9707 112.235 19.2801Z" fill="#0172D0"/>
<path d="M4.29781 28.7586H24.5296C26.8842 28.7586 28.793 26.8498 28.793 24.4952V4.26342C28.793 1.90882 26.8842 0 24.5296 0H4.29781C1.94321 0 0.0343971 1.90882 0.0343971 4.26342V24.4952C0.0340996 26.8498 1.94291 28.7586 4.29781 28.7586Z" fill="#F0F0F0"/>
<path d="M24.0785 22.1295C25.1068 22.1295 25.9404 21.2958 25.9404 20.2675V12.316C25.9404 11.2877 25.1068 10.4541 24.0785 10.4541C23.0502 10.4541 22.2166 11.2877 22.2166 12.316V20.2675C22.2163 21.2958 23.0499 22.1295 24.0785 22.1295Z" fill="#945DDC"/>
<path d="M17.6361 22.1283C18.6644 22.1283 19.498 21.2946 19.498 20.2663V8.06995C19.498 7.04164 18.6644 6.20801 17.6361 6.20801C16.6078 6.20801 15.7742 7.04164 15.7742 8.06995V20.2663C15.7742 21.2946 16.6078 22.1283 17.6361 22.1283Z" fill="#0172D0"/>
<path d="M11.1908 22.1287C12.2191 22.1287 13.0527 21.2951 13.0527 20.2668V14.7457C13.0527 13.7174 12.2191 12.8838 11.1908 12.8838C10.1625 12.8838 9.32884 13.7174 9.32884 14.7457V20.2668C9.32884 21.2951 10.1625 22.1287 11.1908 22.1287Z" fill="white"/>
<path d="M4.7533 22.1272C5.78161 22.1272 6.61523 21.2936 6.61523 20.2653V6.90686C6.61523 5.87856 5.78161 5.04492 4.7533 5.04492C3.725 5.04492 2.89136 5.87856 2.89136 6.90686V20.2653C2.89136 21.2936 3.725 22.1272 4.7533 22.1272Z" fill="#0172D0"/>
<path d="M34.9513 58.258H83.5206C84.4698 58.258 85.2393 57.4886 85.2393 56.5394V54.9354C85.2393 53.9862 84.4698 53.2168 83.5206 53.2168H34.9516C34.0024 53.2168 33.233 53.9862 33.233 54.9354V56.5394C33.2327 57.4886 34.0021 58.258 34.9513 58.258Z" fill="#F0F0F0"/>
<path d="M77.3125 56.5551H82.1868C82.6371 56.5551 83.002 56.1902 83.002 55.7399C83.002 55.2897 82.6368 54.9248 82.1868 54.9248H77.3125C76.8623 54.9248 76.4974 55.2897 76.4974 55.7399C76.4971 56.1902 76.8623 56.5551 77.3125 56.5551Z" fill="#0172D0"/>
<path d="M67.0586 56.5551H71.9329C72.3832 56.5551 72.748 56.1902 72.748 55.7399C72.748 55.2897 72.3832 54.9248 71.9329 54.9248H67.0586C66.6084 54.9248 66.2435 55.2897 66.2435 55.7399C66.2435 56.1902 66.6084 56.5551 67.0586 56.5551Z" fill="#945DDC"/>
<path d="M56.7969 56.5551H61.6712C62.1215 56.5551 62.4863 56.1902 62.4863 55.7399C62.4863 55.2897 62.1215 54.9248 61.6712 54.9248H56.7969C56.3466 54.9248 55.9818 55.2897 55.9818 55.7399C55.9815 56.1902 56.3466 56.5551 56.7969 56.5551Z" fill="white"/>
<path d="M46.543 56.5551H51.4173C51.8676 56.5551 52.2324 56.1902 52.2324 55.7399C52.2324 55.2897 51.8676 54.9248 51.4173 54.9248H46.543C46.0927 54.9248 45.7279 55.2897 45.7279 55.7399C45.7279 56.1902 46.0927 56.5551 46.543 56.5551Z" fill="#0172D0"/>
<path d="M36.293 56.5551H41.1673C41.6176 56.5551 41.9824 56.1902 41.9824 55.7399C41.9824 55.2897 41.6176 54.9248 41.1673 54.9248H36.293C35.8427 54.9248 35.4779 55.2897 35.4779 55.7399C35.4779 56.1902 35.843 56.5551 36.293 56.5551Z" fill="#0172D0"/>
<path d="M37.7269 49.4528H81.2063C83.5609 49.4528 85.4697 47.544 85.4697 45.1894V37.3738C85.4697 35.0192 83.5609 33.1104 81.2063 33.1104H37.7269C35.3723 33.1104 33.4635 35.0192 33.4635 37.3738V45.1894C33.4635 47.544 35.3723 49.4528 37.7269 49.4528Z" fill="#F0F0F0"/>
<path d="M73.3226 46.2103H79.3802C80.43 46.2103 81.2812 45.359 81.2812 44.3092V38.2516C81.2812 37.2015 80.43 36.3506 79.3802 36.3506H73.3226C72.2728 36.3506 71.4216 37.2018 71.4216 38.2516V44.3092C71.4216 45.359 72.2725 46.2103 73.3226 46.2103Z" fill="#945DDC"/>
<path d="M56.4398 46.2103H62.4974C63.5472 46.2103 64.3984 45.359 64.3984 44.3092V38.2516C64.3984 37.2015 63.5472 36.3506 62.4974 36.3506H56.4398C55.39 36.3506 54.5387 37.2018 54.5387 38.2516V44.3092C54.5384 45.359 55.3897 46.2103 56.4398 46.2103Z" fill="#0172D0"/>
<path d="M39.558 46.2103H45.6155C46.6656 46.2103 47.5166 45.359 47.5166 44.3092V38.2516C47.5166 37.2015 46.6654 36.3506 45.6155 36.3506H39.558C38.5079 36.3506 37.6569 37.2018 37.6569 38.2516V44.3092C37.6566 45.359 38.5079 46.2103 39.558 46.2103Z" fill="#0172D0"/>
<path d="M67.116 41.2823C67.116 40.7909 67.5143 40.3926 68.0057 40.3926C68.4972 40.3926 68.8955 40.7909 68.8955 41.2823C68.8955 41.7738 68.4972 42.1721 68.0057 42.1721C67.5143 42.1721 67.116 41.7735 67.116 41.2823Z" fill="white"/>
<path d="M50.325 41.2823C50.325 40.7909 50.7233 40.3926 51.2147 40.3926C51.7062 40.3926 52.1045 40.7909 52.1045 41.2823C52.1045 41.7738 51.7062 42.1721 51.2147 42.1721C50.7233 42.1721 50.325 41.7735 50.325 41.2823Z" fill="white"/>
<path d="M107.16 107.999C107.101 108.415 106.964 108.875 106.59 109.067C106.363 109.184 106.093 109.173 105.838 109.161C105.332 109.135 104.818 109.109 104.338 108.945C103.859 108.781 103.41 108.46 103.211 107.994C103.008 107.521 103.082 106.958 102.846 106.501C102.5 105.831 101.626 105.622 101.149 105.039C100.856 104.682 100.738 104.215 100.665 103.759C100.603 103.366 100.569 102.958 100.678 102.576C100.786 102.194 101.061 101.839 101.443 101.729C101.878 101.605 102.342 101.819 102.688 102.11C103.035 102.4 103.312 102.768 103.672 103.041C104.154 103.405 104.75 103.575 105.305 103.812C107.082 104.573 107.419 106.194 107.16 107.999Z" fill="black"/>
<path d="M96.5141 65.3545C96.7291 70.3079 98.7594 75.1897 100.181 80.0326C100.219 80.17 100.261 80.3073 100.297 80.4447C101.93 86.1565 102.745 92.1012 102.707 98.0399C102.701 99.0073 102.671 99.9777 102.557 100.939C102.399 102.298 102.071 103.68 102.378 105.012C102.686 106.343 103.907 107.603 105.251 107.359C105.913 107.239 106.496 106.75 106.725 106.119C106.842 105.803 106.875 105.466 106.905 105.131C107.099 103.026 107.293 100.924 107.49 98.8192C107.768 95.7916 108.048 92.7461 107.791 89.7155C107.544 86.7745 106.794 83.8992 106.4 80.9731C105.997 78.0112 105.961 75.0105 105.925 72.0217C105.925 70.4154 105.889 68.806 105.869 67.1967C105.857 66.0949 106.293 63.9482 105.692 62.9987C104.668 61.3893 99.464 61.5088 97.7024 61.2311C97.4606 61.1923 97.1919 61.1594 96.9888 61.2968C96.7709 61.4431 96.7082 61.7327 96.6723 61.9954C96.5081 63.1181 96.4663 64.2378 96.5141 65.3545Z" fill="#0172D0"/>
<path d="M96.5186 65.3551C96.7336 70.3085 98.764 75.1903 100.185 80.0333C100.224 80.1706 100.266 80.3079 100.302 80.4453C100.723 77.7103 101.018 74.8857 100.075 72.306C99.5462 70.8699 98.6415 69.5382 98.4893 68.0154C98.4206 67.3138 98.5132 66.5942 98.343 65.9075C97.9339 64.2503 97.1307 64.5639 96.5186 65.3551Z" fill="#0768B9"/>
<path d="M84.9601 106.097C84.4387 106.131 83.9282 105.964 83.411 105.89C82.8939 105.816 82.309 105.858 81.9381 106.225C81.3455 106.813 81.6739 107.89 82.3352 108.399C82.8506 108.795 83.4988 108.969 84.1279 109.133C86.2165 109.678 88.305 110.223 90.3936 110.768C91.1281 110.959 91.9325 111.146 92.6237 110.832C93.5603 110.407 93.9019 109.151 93.5547 108.182C93.2071 107.214 92.34 106.517 91.4159 106.065C90.4503 105.592 89.2808 105.328 88.2053 105.275C87.022 105.215 86.103 106.023 84.9601 106.097Z" fill="black"/>
<path d="M97.916 69.2078C97.3549 70.4416 96.5915 71.5875 96.174 72.8768C95.7701 74.1242 95.7074 75.4526 95.6476 76.7625C95.5766 78.3205 95.5058 79.8782 95.4348 81.4362C95.0027 90.9199 94.9758 98.4844 92.658 107.983C92.569 108.349 92.1994 108.575 91.8333 108.489L89.0953 107.844C88.4674 107.696 88.0303 107.127 88.05 106.482L88.3731 95.8346C88.5788 89.052 88.7791 82.1999 87.454 75.5449C87.1581 74.0589 86.7864 72.5836 86.6404 71.0755C86.4822 69.4413 86.5914 67.7947 86.7007 66.1567L87.139 59.5873C87.1393 59.5834 87.1423 59.5801 87.1459 59.5795C88.2563 59.3968 89.3924 59.6073 90.487 59.8689C92.7565 60.4111 96.5174 61.1387 98.2972 62.7409C99.9096 64.1917 98.6994 67.4859 97.916 69.2078Z" fill="#0172D0"/>
<path d="M90.8 23.5189C90.7033 23.8321 90.5901 24.1752 90.7269 24.4717C90.78 24.5884 90.8568 24.675 90.9535 24.7449C91.25 24.9581 91.7098 24.9882 92.0896 25.0847C92.716 25.2378 93.2326 25.6544 93.719 26.0843C93.7688 26.1276 93.8223 26.1709 93.8721 26.2175C94.2454 25.6711 94.9849 25.551 95.6412 25.4877C97.0738 25.3546 98.51 25.2877 99.9491 25.2913C100.032 24.8213 100.116 24.3549 100.199 23.8853C100.226 23.7285 100.252 23.5622 100.192 23.4156C100.129 23.2591 99.9793 23.1591 99.8261 23.089C99.3063 22.8558 98.59 22.859 98.3335 22.3461C98.2502 22.1795 98.2368 21.9896 98.2269 21.803C98.1803 20.9499 98.1236 20.0237 97.5572 19.3806C97.4273 19.234 97.2738 19.1074 97.1508 18.9542C96.9376 18.6909 96.8209 18.3613 96.6211 18.0881C96.4211 17.8148 96.0747 17.5915 95.7517 17.6981C95.6651 17.728 95.5851 17.7781 95.4985 17.7948C95.2653 17.8349 95.0652 17.6417 94.9288 17.4518C94.569 16.9454 94.3558 16.3455 94.2991 15.7293C94.2591 15.2727 94.2525 14.623 93.7625 14.3767C93.2427 14.1202 93.0961 14.8031 92.8262 15.1297C92.4963 15.5295 91.9833 15.8595 91.9167 16.4157C91.8669 16.8289 92.1001 17.232 92.0732 17.6453C92.02 18.4681 91.0335 18.8912 90.6839 19.6377C90.5773 19.861 90.554 20.1674 90.7472 20.3241C90.8505 20.4107 90.9971 20.4307 91.0935 20.5206C91.2201 20.6373 91.2303 20.8338 91.2234 21.007C91.1966 21.8564 91.0532 22.7059 90.8 23.5189Z" fill="#FFBFBE"/>
<path d="M93.1514 12.1895C93.4485 11.8793 93.9492 11.8183 94.2182 11.4833C94.3242 11.3514 94.3833 11.1886 94.4693 11.0426C94.8187 10.4494 95.658 10.2078 96.2692 10.5249C96.4988 10.644 96.6937 10.8283 96.9353 10.9214C97.4372 11.1149 97.9896 10.8739 98.5246 10.8181C99.8647 10.6778 101.018 11.6935 101.979 12.6376C102.425 13.0751 102.894 13.5585 102.985 14.1762C103.055 14.6534 102.889 15.1717 103.097 15.6061C103.287 16.0014 103.75 16.2322 103.878 16.6518C103.975 16.9706 103.851 17.3107 103.847 17.6439C103.841 18.1584 104.12 18.6295 104.227 19.1329C104.361 19.7653 104.207 20.4533 103.814 20.9674C103.515 21.3595 103.085 21.6571 102.874 22.1029C102.647 22.5815 102.698 23.1844 102.361 23.5937C102.218 23.7687 102.017 23.8875 101.812 23.9825C101.072 24.3246 100.21 24.3778 99.4248 24.1607C99.2774 24.1521 99.1302 24.1368 98.9853 24.1109C98.5378 24.0308 98.0675 23.8589 97.8227 23.4758C97.6919 23.2713 97.6343 23.019 97.4659 22.844C97.3163 22.6887 97.0962 22.6138 96.955 22.4511C96.6594 22.1104 96.8365 21.5891 96.7971 21.1397C96.7627 20.7495 96.5528 20.3888 96.5343 19.9973C96.5035 19.3572 96.9708 18.6507 96.6027 18.1261C96.4367 17.8897 96.1166 17.7756 95.8368 17.8482C95.5571 17.9207 95.334 18.1715 95.2886 18.457C95.2552 18.6675 95.3104 18.8815 95.308 19.0947C95.3056 19.3079 95.2182 19.5492 95.0163 19.6181C94.744 19.711 94.4759 19.4139 94.4508 19.127C94.4254 18.8403 94.5476 18.5633 94.5941 18.279C94.733 17.4295 94.1946 16.6123 94.1561 15.7524C94.1412 15.4195 94.1881 15.0418 93.9647 14.7943C93.8793 14.6996 93.7632 14.6375 93.6748 14.5459C93.5825 14.4506 93.5297 14.3234 93.5145 14.1918C92.9881 13.5961 92.6405 12.8278 93.1514 12.1895Z" fill="black"/>
<path d="M90.9483 24.7465C91.2448 24.9597 91.7046 24.9898 92.0844 25.0863C92.7108 25.2395 93.2274 25.656 93.7138 26.0859C93.7738 25.9692 93.7836 25.8226 93.7636 25.6894C93.7302 25.4894 93.6436 25.3063 93.5905 25.1096C93.4104 24.4133 93.7371 23.7236 93.9171 23.0604C93.9505 22.9404 94.1936 22.2008 93.9138 22.2408C93.7571 22.2641 93.454 23.1837 93.3841 23.3402C93.2477 23.6367 93.1011 23.9466 92.8377 24.1398C92.4347 24.4396 91.8781 24.3795 91.3851 24.4897C91.2182 24.5264 91.0385 24.613 90.9483 24.7465Z" fill="#F79F9F"/>
<path d="M115.117 46.1722C115.22 46.4286 115.323 46.712 115.236 46.9741C115.175 47.1593 115.03 47.3014 114.896 47.4429C113.887 48.508 113.323 49.9041 112.593 51.1764C111.165 53.6653 109.081 55.7022 107.026 57.7045C106.471 58.2449 105.903 58.7949 105.204 59.1287C105.125 57.9054 105.066 56.6807 105.028 55.4556C105.011 54.9155 105.009 54.3338 105.318 53.8901C105.519 53.6005 105.828 53.4079 106.098 53.181C107.942 51.6311 107.849 48.6507 109.489 46.8861C109.756 46.5988 110.091 46.2764 110.023 45.89C109.992 45.7088 109.873 45.5565 109.758 45.4126C108.957 44.4097 108.155 43.4064 107.353 42.4035C107.312 42.3509 111.566 39.2409 112.354 39.7545C112.964 40.1516 113.476 42.2342 113.769 42.9176C114.233 43.9964 114.682 45.0815 115.117 46.1722Z" fill="#F79F9F"/>
<path d="M108.548 31.4802C109.779 32.6802 110.696 34.1689 111.428 35.7239C112.116 37.1834 112.65 38.7091 113.183 40.2319C113.195 40.2647 113.206 40.3011 113.194 40.3337C113.181 40.3692 113.143 40.3889 113.109 40.4053C112.069 40.9087 111.028 41.4121 109.988 41.9155C109.21 42.2921 108.39 42.705 107.937 43.4407C107.857 43.5691 107.748 43.727 107.6 43.6957C107.481 43.6706 107.427 43.5356 107.393 43.4189C106.993 42.0395 106.797 40.6015 106.813 39.1656C106.823 38.3021 106.908 37.4336 106.788 36.5787C106.617 35.3569 106.034 34.225 105.831 33.008C105.757 32.5637 105.346 29.7296 105.691 29.5576C106.245 29.2806 108.176 31.1174 108.548 31.4802Z" fill="#F0C66C"/>
<path d="M76.1815 40.4908C77.3409 40.8674 78.6003 40.6407 79.7964 40.4108C80.7193 40.2344 81.639 40.0576 82.5619 39.8811C82.8016 39.8346 83.0883 39.7411 83.125 39.5014C83.1417 39.4046 83.1083 39.3115 83.0784 39.2216C82.7153 38.2154 82.1722 37.156 82.4786 36.1331C82.5884 35.7667 82.8016 35.4434 83.0184 35.1269C84.3312 33.2079 85.8737 31.4418 87.6031 29.8859C89.2157 28.43 90.545 26.6574 92.5141 25.6413C92.5374 25.105 91.7945 24.8315 91.298 25.0415C90.8015 25.2514 90.4784 25.7279 90.0819 26.0942C89.9287 26.2376 89.6988 26.3707 89.5253 26.2576C89.3987 26.1775 89.3689 26.0044 89.382 25.8545C89.3853 25.8312 89.3853 25.8079 89.3922 25.7846C89.482 25.2015 90.0084 24.785 90.4351 24.3619C90.8815 23.9221 91.2613 23.2324 90.9215 22.7093C90.8749 22.6394 90.8182 22.5725 90.7414 22.5426C90.7349 22.5394 90.7313 22.5394 90.7247 22.5394C90.3948 22.4193 90.1882 22.9024 89.9183 23.1425C89.4817 23.5256 88.812 23.2225 88.2325 23.2124C87.5562 23.2058 86.9396 23.6354 86.5165 24.1651C86.0935 24.6948 85.817 25.3212 85.4638 25.9011C84.5041 27.4871 83.0217 28.6764 81.5389 29.7892C79.8131 31.082 78.0139 32.3414 76.6978 34.0505C76.4413 34.3837 76.2048 34.7301 75.968 35.08C75.6148 35.5965 75.2649 36.1095 74.9152 36.626C74.6788 36.9727 74.4387 37.3292 74.3354 37.7356C74.0326 38.9182 75.0221 40.1143 76.1815 40.4908Z" fill="#FFBFBE"/>
<path d="M89.3593 25.6577C89.3626 25.701 89.3659 25.7476 89.3859 25.7843C89.4757 25.2012 90.0021 24.7847 90.4288 24.3616C90.8752 23.9218 91.255 23.2321 90.9152 22.709C90.8686 22.6391 90.8119 22.5722 90.7351 22.5423C90.7286 22.5391 90.725 22.5391 90.7184 22.5391C90.5718 22.5391 90.4351 22.5958 90.3386 22.7122C90.0356 23.072 90.3052 23.645 90.1189 24.0782C90.029 24.2849 89.8424 24.4315 89.6991 24.6046C89.4593 24.8981 89.336 25.2812 89.3593 25.6577Z" fill="#F79F9F"/>
<path d="M87.8825 28.983C87.569 28.9955 87.2564 28.9423 86.9428 28.9379C86.0014 28.9238 85.1003 29.3484 84.344 29.9094C83.5877 30.4705 82.9455 31.168 82.2516 31.8045C80.9315 33.0153 79.4139 34.0098 77.7768 34.7366C77.337 34.9319 76.8885 35.108 76.4349 35.2695C77.2698 35.0635 78.1118 34.8566 78.9711 34.8256C79.244 34.8157 79.5181 34.8235 79.7895 34.7924C80.3189 34.7315 80.8199 34.524 81.3006 34.2941C82.5469 33.6984 83.7137 32.9361 84.7602 32.0347C85.2165 31.6415 85.6518 31.2208 86.1468 30.8777C86.8545 30.3875 87.6615 30.0671 88.3841 29.6016C88.5635 29.4861 89.2858 29.1012 89.1064 28.8199C88.981 28.6226 88.1243 28.9731 87.8825 28.983Z" fill="#F79F9F"/>
<path d="M85.6677 61.3407C86.2475 62.2571 87.7201 61.9406 88.5863 62.5903C88.9094 62.8301 89.1261 63.1934 89.4492 63.4266C89.9024 63.7565 90.4921 63.7966 91.0185 63.9796C92.0749 64.3427 92.8545 65.259 93.8873 65.6854C94.7134 66.0252 95.6396 66.0219 96.536 66.0153C98.2618 66.0019 99.9878 65.9854 101.714 65.972C103.153 65.9586 104.796 65.852 105.682 64.7159C106.748 63.3466 106.075 61.4106 105.848 59.6783C105.842 59.6317 105.839 59.5884 105.832 59.5451C105.625 57.7659 106.022 55.9768 106.191 54.1942C106.308 53.0014 106.318 51.7987 106.461 50.6059C106.685 48.7703 107.214 46.9943 107.781 45.2285C107.971 44.6355 108.167 44.0422 108.354 43.4493C109.1 41.0938 109.753 38.6583 109.633 36.1893C109.516 33.7204 108.517 31.1848 106.514 29.7322C105.628 29.0891 104.556 28.6529 103.559 28.1563C102.466 27.6099 101.463 26.9868 100.887 25.9307C100.761 25.6942 100.654 25.441 100.474 25.2443C99.9974 24.7277 99.3244 24.7546 98.6848 24.8146C98.555 24.8245 98.4215 24.8379 98.2952 24.8481C97.2591 24.9281 96.2362 25.0813 95.23 25.3512C94.8069 25.4676 94.3671 25.6077 94.0572 25.9176C93.8007 26.1708 93.6508 26.5106 93.4275 26.7939C92.3947 28.11 90.3554 27.6968 88.7463 28.1999C88.623 28.2366 88.4997 28.2799 88.3833 28.3298C88.3334 28.3531 88.2832 28.3731 88.2334 28.3997C88.0868 28.4764 87.9503 28.5761 87.8601 28.7129C87.727 28.9228 87.7201 29.1894 87.727 29.4393C87.7437 29.9526 87.7936 30.4754 87.8601 30.9985C87.8601 30.9985 87.8601 30.9985 87.8601 31.0018C87.8667 31.0684 87.8769 31.1317 87.8834 31.1983C88.1468 33.2507 88.5531 35.3195 87.6102 37.1024C87.277 37.7255 86.7906 38.2785 86.6106 38.9616C86.4938 39.4047 86.5139 39.8678 86.5371 40.3243C86.6437 42.6398 86.7503 44.9556 86.8638 47.2678C86.8772 47.6109 86.8936 47.951 86.9104 48.294C86.9704 49.5967 87.0304 50.9027 86.9238 52.2021C86.9038 52.452 86.8772 52.6987 86.8438 52.9486C86.7339 53.8249 86.5571 54.6944 86.3872 55.5608C86.1173 56.9301 85.8441 58.2997 85.5709 59.6723C85.4611 60.2312 85.3613 60.8576 85.6677 61.3407Z" fill="#F0C66C"/>
<path d="M108.667 32.5065C108.723 32.5065 108.778 32.4781 108.81 32.4268C108.858 32.3482 108.833 32.2455 108.754 32.1978C108.652 32.1351 108.547 32.075 108.442 32.0174C106.553 30.9748 104.652 30.4317 102.63 30.3573L102.608 30.3564L102.587 30.3612C101.85 30.5284 101.068 30.3352 100.311 30.1483L100.093 30.0946C98.4366 29.6912 96.9786 29.5344 95.635 29.6153C94.4443 29.6867 93.2649 29.9521 92.1243 30.2086C91.0217 30.4567 89.8814 30.7132 88.7438 30.7897C88.6521 30.7959 88.5826 30.8753 88.5888 30.9673C88.5951 31.0593 88.6707 31.1271 88.7665 31.1223C89.9298 31.044 91.0826 30.7846 92.1975 30.5338C93.3252 30.28 94.4912 30.0178 95.655 29.948C96.9649 29.87 98.3906 30.0229 100.014 30.4185L100.231 30.472C101.018 30.6669 101.832 30.8682 102.639 30.6908C104.599 30.7664 106.445 31.2957 108.281 32.3091C108.382 32.3644 108.482 32.4217 108.581 32.482C108.607 32.4987 108.638 32.5065 108.667 32.5065Z" fill="#F0C66C"/>
<path d="M95.9297 26.6949C97.1258 26.7382 98.3219 26.7815 99.5181 26.8248C99.7945 26.835 100.071 26.8448 100.328 26.9383C100.778 27.0983 101.101 27.4814 101.394 27.8579C101.541 28.0478 101.711 28.2544 101.947 28.2944C102.127 28.3243 102.307 28.2478 102.484 28.201C102.767 28.1209 103.067 28.1078 103.357 28.1609C103.417 28.1744 103.483 28.1875 103.543 28.1642C103.546 28.1609 103.553 28.1609 103.557 28.1544C102.464 27.608 101.461 26.9848 100.885 25.9288C100.758 25.6923 100.651 25.4391 100.471 25.2423C99.9949 24.7258 99.3219 24.7527 98.6823 24.8127C98.7223 25.2158 98.9155 25.6156 98.6689 26.0321C98.4223 26.4552 97.8759 26.5919 97.3862 26.6018C96.8959 26.6119 96.3928 26.5352 95.9297 26.6949Z" fill="#F0C66C"/>
<path d="M86.9124 48.2933C86.9724 49.596 87.0324 50.902 86.9258 52.2014C86.9058 52.4513 86.8793 52.698 86.8458 52.9479C86.8524 52.9679 86.8593 52.9879 86.8691 53.0079C87.5054 52.8478 87.9554 52.265 88.1784 51.6485C88.4017 51.0355 88.4516 50.369 88.5848 49.7292C88.6782 49.2828 88.818 48.8463 88.8714 48.393C88.9413 47.8401 88.8881 47.2802 88.858 46.724C88.8179 45.9742 88.8245 45.2212 88.8714 44.4718C88.878 44.3619 88.8881 44.2452 88.9547 44.1586C89.0813 43.9821 89.3545 43.9985 89.551 44.0986C89.7441 44.1953 89.9042 44.3583 90.1108 44.4285C90.2574 43.7654 89.551 43.2225 89.4345 42.5561C89.3912 42.2963 89.4378 42.0297 89.4844 41.77C89.6576 40.8238 89.8343 39.8641 90.284 39.0147C90.7471 38.1416 91.4735 37.442 92.1865 36.7589C91.5001 36.8688 90.814 36.9822 90.1275 37.0921C89.9743 37.1154 89.7844 37.1288 89.6979 36.999C89.6444 36.9189 89.6546 36.8189 89.6611 36.7258C89.7379 35.9829 89.851 35.2364 89.8677 34.4867C89.891 33.2706 89.6546 32.0643 89.4214 30.8685C89.3414 30.4687 89.3214 29.5557 88.7651 29.5557C88.142 29.5557 88.0888 30.4054 87.9786 30.8351C87.9488 30.9551 87.9153 31.0784 87.8855 31.1982C88.1488 33.2506 88.5552 35.3194 87.6123 37.1023C87.2791 37.7254 86.7927 38.2784 86.6126 38.9615C86.4959 39.4046 86.5159 39.8677 86.5392 40.3242C86.6458 42.6397 86.7524 44.9555 86.8658 47.2677C86.879 47.6102 86.8957 47.95 86.9124 48.2933Z" fill="#F0C66C"/>
<path d="M85.8406 29.9392C85.0213 30.5826 84.2002 31.2279 83.4585 31.9594C83.2101 32.2045 82.9665 32.4622 82.6637 32.6354C82.4747 32.7434 82.2675 32.8154 82.0645 32.8942C81.0642 33.2824 80.1422 33.8443 79.2268 34.4032C79.1623 34.4427 79.0942 34.4859 79.0634 34.5546C79.0231 34.6448 79.0587 34.7496 79.0954 34.8413C79.8075 36.6163 80.9979 38.197 82.507 39.3722C82.979 39.7401 83.5711 40.0843 84.1453 39.9153C84.7385 39.7407 85.104 39.0668 85.7134 38.9611C85.9346 38.9225 86.1619 38.9661 86.3864 38.9557C86.799 38.9363 87.1848 38.7341 87.5061 38.4744C88.8419 37.3935 89.1154 35.4677 89.024 33.7514C88.9799 32.9241 88.8751 32.1012 88.8327 31.2738C88.7962 30.5617 89.0034 29.7236 88.8488 29.0336C88.5263 27.5959 86.4103 29.4916 85.8406 29.9392Z" fill="#F0C66C"/>
<path d="M104.275 56.9984C104.172 57.6048 104.341 58.2247 104.508 58.8177C104.531 58.9076 104.558 58.9977 104.615 59.0676C104.685 59.1509 104.795 59.1942 104.898 59.2375C105.225 59.3674 105.541 59.5173 105.851 59.6773C105.844 59.6307 105.841 59.5874 105.834 59.5441C105.627 57.7649 106.024 55.9758 106.194 54.1933C106.311 53.0005 106.32 51.7978 106.464 50.605C106.687 48.7693 107.217 46.9933 107.783 45.2275C107.7 45.3843 107.627 45.5342 107.56 45.6408C107.077 46.4338 106.49 47.1701 105.827 47.8198C105.364 48.2698 104.861 48.686 104.491 49.2124C103.745 50.2885 103.585 51.7945 102.532 52.5708C103.775 52.5442 104.458 51.0648 105.601 50.5649C105.121 51.1612 104.821 51.8942 104.748 52.6541C104.648 53.6603 104.934 54.6931 104.684 55.6727C104.572 56.1221 104.348 56.5419 104.275 56.9984Z" fill="#F0C66C"/>
<path d="M37.7123 28.9509H81.2102C83.5648 28.9509 85.4736 27.042 85.4736 24.6874V4.26342C85.4736 1.90882 83.5648 0 81.2102 0H37.712C35.3574 0 33.4486 1.90882 33.4486 4.26342V24.6874C33.4489 27.042 35.3577 28.9509 37.7123 28.9509Z" fill="#F0F0F0"/>
<path d="M73.4492 23.9249V20.9391C69.7991 20.9391 66.8291 17.9695 66.8291 14.3193H63.8433C63.8433 19.6158 68.1524 23.9249 73.4492 23.9249Z" fill="white"/>
<path d="M73.4452 23.9266C78.7417 23.9266 83.0508 19.6175 83.0508 14.321C83.0508 12.3963 82.4832 10.5389 81.4095 8.94922L78.9355 10.6207C79.6744 11.7147 80.0653 12.9941 80.0653 14.321C80.0653 17.9714 77.0956 20.9408 73.4455 20.9408V23.9266H73.4452Z" fill="#0172D0"/>
<path d="M63.8439 14.3198H66.8296C66.8296 10.6696 69.7993 7.69996 73.4498 7.69996C75.6524 7.69996 77.7048 8.79157 78.94 10.6195L81.4141 8.94802C79.6229 6.29694 76.6457 4.71387 73.4498 4.71387C68.153 4.71417 63.8439 9.02326 63.8439 14.3198Z" fill="#945DDC"/>
<path d="M57.9217 10.4514C57.1774 10.4514 56.574 9.84801 56.574 9.10365C56.574 8.35928 57.1774 7.75586 57.9217 7.75586C58.6661 7.75586 59.2695 8.35928 59.2695 9.10365C59.2695 9.84801 58.6661 10.4514 57.9217 10.4514Z" fill="#945DDC"/>
<path d="M57.9217 16.1975C57.1774 16.1975 56.574 15.5941 56.574 14.8497C56.574 14.1054 57.1774 13.502 57.9217 13.502C58.6661 13.502 59.2695 14.1054 59.2695 14.8497C59.2695 15.5941 58.6661 16.1975 57.9217 16.1975Z" fill="white"/>
<path d="M56.574 20.5978C56.574 19.8534 57.1774 19.25 57.9217 19.25C58.6661 19.25 59.2695 19.8534 59.2695 20.5978C59.2695 21.3421 58.6661 21.9456 57.9217 21.9456C57.1774 21.9456 56.574 21.3421 56.574 20.5978Z" fill="#0172D0"/>
<path d="M36.56 8.9181H52.8388C53.2111 8.9181 53.5127 8.61624 53.5127 8.24421C53.5127 7.87218 53.2108 7.57031 52.8388 7.57031H36.56C36.1876 7.57031 35.8861 7.87218 35.8861 8.24421C35.8858 8.61653 36.1876 8.9181 36.56 8.9181Z" fill="white"/>
<path d="M36.559 12.2218H52.8378C53.2102 12.2218 53.5117 11.9199 53.5117 11.5479C53.5117 11.1756 53.2099 10.874 52.8378 10.874H36.559C36.1867 10.874 35.8851 11.1756 35.8851 11.5479C35.8848 11.9199 36.1867 12.2218 36.559 12.2218Z" fill="#0172D0"/>
<path d="M36.559 15.5236H52.8378C53.2102 15.5236 53.5117 15.222 53.5117 14.8497C53.5117 14.4773 53.2099 14.1758 52.8378 14.1758H36.559C36.1867 14.1758 35.8851 14.4773 35.8851 14.8497C35.8848 15.222 36.1867 15.5236 36.559 15.5236Z" fill="#945DDC"/>
<path d="M36.56 18.8273H52.8388C53.2111 18.8273 53.5127 18.5257 53.5127 18.1534C53.5127 17.7811 53.2108 17.4795 52.8388 17.4795H36.56C36.1876 17.4795 35.8861 17.7811 35.8861 18.1534C35.8858 18.5254 36.1876 18.8273 36.56 18.8273Z" fill="#0172D0"/>
<path d="M36.559 22.13H52.8378C53.2102 22.13 53.5117 21.8284 53.5117 21.4561C53.5117 21.0838 53.2099 20.7822 52.8378 20.7822H36.559C36.1867 20.7822 35.8851 21.0838 35.8851 21.4561C35.8848 21.8284 36.1867 22.13 36.559 22.13Z" fill="#945DDC"/>
<path d="M36.4587 25.5363H58.6986C59.0139 25.5363 59.2695 25.2807 59.2695 24.9654C59.2695 24.6501 59.0139 24.3945 58.6986 24.3945H36.4587C36.1434 24.3945 35.8875 24.6501 35.8875 24.9654C35.8875 25.2807 36.1434 25.5363 36.4587 25.5363Z" fill="#0172D0"/>
<path d="M36.4587 5.61638H58.6986C59.0139 5.61638 59.2695 5.36079 59.2695 5.04549C59.2695 4.73019 59.0139 4.47461 58.6986 4.47461H36.4587C36.1434 4.47461 35.8875 4.73019 35.8875 5.04549C35.8875 5.36049 36.1434 5.61638 36.4587 5.61638Z" fill="#0172D0"/>
<path d="M72.5965 17.8942C70.622 17.4255 69.4014 15.4448 69.8701 13.4704C70.3389 11.4959 72.3195 10.2752 74.294 10.744C76.2685 11.2128 77.4891 13.1934 77.0204 15.1679C76.5516 17.1424 74.571 18.363 72.5965 17.8942Z" fill="#F3FAFF"/>
</svg>
