<svg width="50" height="42" viewBox="0 0 50 42" fill="none" xmlns="http://www.w3.org/2000/svg">
<path d="M8.7342 28.6106C10.0363 27.2503 9.88838 24.9955 8.40371 23.5743C6.91904 22.1531 4.65988 22.1038 3.35774 23.4641C2.0556 24.8245 2.20356 27.0793 3.68823 28.5005C5.1729 29.9217 7.43206 29.971 8.7342 28.6106Z" fill="#81B594"/>
<g opacity="0.8">
<path d="M8.7342 28.6106C10.0363 27.2503 9.88838 24.9955 8.40371 23.5743C6.91904 22.1531 4.65988 22.1038 3.35774 23.4641C2.0556 24.8245 2.20356 27.0793 3.68823 28.5005C5.1729 29.9217 7.43206 29.971 8.7342 28.6106Z" fill="white"/>
</g>
<path d="M4.38553 23.8021C4.34231 23.8021 4.29978 23.7824 4.27195 23.7451C4.22547 23.6824 4.23861 23.5939 4.3012 23.5474C4.74959 23.2146 5.3144 23.0386 5.93458 23.0386C5.93529 23.0386 5.936 23.0386 5.9367 23.0386C6.01468 23.0387 6.07783 23.1019 6.07783 23.18C6.07783 23.258 6.01454 23.3211 5.93656 23.3211C5.93656 23.3211 5.93529 23.3211 5.93458 23.3211C5.37543 23.3211 4.86897 23.4778 4.46959 23.7742C4.44445 23.7931 4.41492 23.8021 4.38553 23.8021Z" fill="#81B594"/>
<path d="M5.05379 28.6628C5.03133 28.6628 5.00858 28.6574 4.98725 28.646C4.11151 28.1771 3.49867 27.3437 3.30611 26.3598C3.13263 25.474 3.33931 24.5971 3.87304 23.9538C3.92277 23.894 4.01191 23.8855 4.07195 23.9353C4.13199 23.985 4.14018 24.0741 4.09046 24.1342C3.61112 24.7118 3.42634 25.5032 3.58343 26.3054C3.7596 27.2058 4.32002 27.968 5.12061 28.3968C5.18941 28.4335 5.21541 28.5193 5.17854 28.5881C5.15296 28.6358 5.10423 28.6628 5.05379 28.6628Z" fill="#81B594"/>
<path d="M6.46817 29.0309C6.16344 29.0309 5.85053 28.9813 5.53747 28.8804C5.4633 28.8566 5.42247 28.777 5.4462 28.7027C5.47022 28.6285 5.55004 28.5874 5.62407 28.6116C6.49289 28.8913 7.36087 28.7358 8.00408 28.184C8.65986 27.6215 8.96473 26.745 8.81964 25.8391C8.80721 25.7621 8.85976 25.6897 8.93676 25.6772C9.01333 25.6644 9.08622 25.7172 9.09866 25.7943C9.25942 26.7979 8.91896 27.7713 8.18801 28.3983C7.7019 28.8154 7.10304 29.0309 6.46817 29.0309Z" fill="#81B594"/>
<path d="M8.84417 25.4804C8.78441 25.4804 8.72903 25.4422 8.70968 25.3823C8.44931 24.5733 7.83789 23.8922 7.07431 23.5605C7.00269 23.5294 6.96991 23.4462 7.00099 23.3746C7.03193 23.3031 7.11486 23.27 7.18677 23.3014C8.0238 23.665 8.69371 24.4107 8.97866 25.2959C9.00253 25.3701 8.96171 25.4497 8.8874 25.4736C8.87299 25.4781 8.85858 25.4804 8.84417 25.4804Z" fill="#81B594"/>
<path d="M6.61684 23.4011C6.60611 23.4011 6.59509 23.3998 6.58421 23.3973C6.37174 23.347 6.15361 23.3214 5.93605 23.3211C5.85807 23.3211 5.79478 23.2577 5.79492 23.1797C5.79506 23.1017 5.85821 23.0386 5.93619 23.0386C6.17551 23.0387 6.41567 23.067 6.64934 23.1222C6.7252 23.1403 6.77224 23.2163 6.75416 23.2923C6.7389 23.3573 6.68084 23.4011 6.61684 23.4011Z" fill="#81B594"/>
<path d="M4.12595 26.7757C4.06846 26.7757 4.01435 26.7402 3.99344 26.6832C3.72813 25.9618 3.8184 25.2008 4.24109 24.5952C4.64598 24.015 5.29088 23.6821 6.0101 23.6821H6.01052C6.08865 23.6821 6.1518 23.7454 6.1518 23.8234C6.1518 23.9014 6.08851 23.9647 6.01052 23.9647H6.0101C5.38441 23.9647 4.82412 24.2534 4.47264 24.7569C4.10363 25.2857 4.02565 25.9522 4.25847 26.5857C4.28531 26.659 4.24787 26.7401 4.17455 26.7671C4.15859 26.7729 4.14206 26.7757 4.12595 26.7757Z" fill="#81B594"/>
<path d="M6.36608 28.389C6.36565 28.389 6.36509 28.389 6.36466 28.389C5.54444 28.3807 4.71347 27.9109 4.24742 27.1923C4.2049 27.1269 4.22354 27.0393 4.28909 26.9969C4.3545 26.9544 4.44195 26.9732 4.48447 27.0386C4.90038 27.6799 5.63951 28.099 6.36749 28.1064C6.44561 28.1073 6.50819 28.1711 6.50735 28.2491C6.5065 28.3268 6.44349 28.389 6.36608 28.389Z" fill="#81B594"/>
<path d="M6.89435 28.3273C6.83106 28.3273 6.77342 28.2844 6.75732 28.2202C6.73853 28.1445 6.78458 28.0678 6.86031 28.049C8.00616 27.7636 8.30284 26.762 8.20875 25.9911C8.08598 24.9851 7.29133 23.9661 6.01027 23.9647C5.93215 23.9647 5.869 23.9012 5.86914 23.8233C5.86928 23.7453 5.93243 23.6821 6.01041 23.6821H6.01055C7.45577 23.6837 8.35129 24.8277 8.48917 25.9569C8.63158 27.1228 8.01888 28.0518 6.9284 28.3233C6.91724 28.326 6.90565 28.3273 6.89435 28.3273Z" fill="#81B594"/>
<path d="M5.43338 24.7459C5.37998 24.7459 5.32898 24.7155 5.3051 24.6639C5.27233 24.5932 5.30312 24.5092 5.3739 24.4763C5.58468 24.3789 5.82244 24.3271 6.06119 24.3271C6.13931 24.3271 6.20246 24.3904 6.20246 24.4684C6.20246 24.5464 6.13931 24.6097 6.06119 24.6097C5.86313 24.6097 5.66648 24.6522 5.49257 24.7327C5.47336 24.7416 5.45316 24.7459 5.43338 24.7459Z" fill="#81B594"/>
<path d="M6.33971 27.7308C5.62855 27.7308 4.97262 27.2972 4.65787 26.6139C4.36501 25.978 4.45076 25.3119 4.88729 24.8323C4.93985 24.7747 5.02927 24.7704 5.08677 24.8228C5.14441 24.8754 5.14865 24.9647 5.09609 25.0224C4.73853 25.4156 4.67058 25.9663 4.91456 26.4958C5.18962 27.0931 5.77081 27.4669 6.38478 27.4477C6.88389 27.4323 7.29895 27.1595 7.4949 26.718C7.71712 26.2175 7.6171 25.6261 7.23382 25.175C7.18325 25.1155 7.19045 25.0264 7.24993 24.9758C7.30955 24.9255 7.39869 24.9325 7.44898 24.9921C7.90331 25.5268 8.01972 26.232 7.753 26.8327C7.51185 27.3758 7.00341 27.7113 6.3934 27.7301C6.3756 27.7305 6.35765 27.7308 6.33971 27.7308Z" fill="#81B594"/>
<path d="M6.93637 24.8701C6.91024 24.8701 6.8841 24.8629 6.86051 24.8479C6.61653 24.6922 6.34006 24.6098 6.06119 24.6097C5.98307 24.6097 5.91992 24.5464 5.91992 24.4684C5.91992 24.3904 5.98321 24.3271 6.06119 24.3271C6.39403 24.3273 6.72305 24.4249 7.01252 24.6097C7.07835 24.6517 7.09757 24.739 7.05561 24.8048C7.02877 24.847 6.98299 24.8701 6.93637 24.8701Z" fill="#81B594"/>
<path d="M6.27021 27.0942C5.94416 27.0942 5.62898 26.9482 5.40662 26.6839C5.12718 26.3516 5.06248 25.9106 5.23836 25.533C5.40181 25.1818 5.73267 24.972 6.12343 24.9717C6.20141 24.9717 6.2647 25.0348 6.2647 25.113C6.2647 25.1909 6.20156 25.2542 6.12343 25.2542C5.84555 25.2544 5.61047 25.4031 5.49463 25.652C5.36579 25.9289 5.41509 26.2547 5.62305 26.5021C5.83566 26.7548 6.15889 26.8643 6.46743 26.7874C6.72949 26.7223 6.91908 26.5303 6.97431 26.2741C6.9907 26.1978 7.06501 26.1496 7.14229 26.1657C7.21857 26.1821 7.26703 26.2573 7.25064 26.3335C7.1721 26.6977 6.90495 26.9698 6.53566 27.0617C6.44723 27.0834 6.35837 27.0942 6.27021 27.0942Z" fill="#81B594"/>
<path d="M7.08747 25.9757C7.02728 25.9757 6.97162 25.9369 6.95269 25.8765C6.83996 25.5164 6.49101 25.2546 6.12258 25.2542C6.04445 25.2542 5.9813 25.1908 5.98145 25.1128C5.98159 25.0348 6.04474 24.9717 6.12272 24.9717C6.61124 24.9722 7.07376 25.3174 7.22224 25.7922C7.24555 25.8666 7.20401 25.9459 7.12971 25.9693C7.11572 25.9734 7.10145 25.9757 7.08747 25.9757Z" fill="#81B594"/>
<path d="M6.30309 26.5062C6.22695 26.5062 6.16408 26.4455 6.16196 26.3687C6.15984 26.2908 6.22144 26.2258 6.29942 26.2238C6.42798 26.2204 6.44719 26.1284 6.44719 26.0738C6.44719 25.9904 6.3928 25.8648 6.24319 25.8609C6.20236 25.8621 6.16168 25.8794 6.13314 25.9106C6.10432 25.9421 6.09048 25.9848 6.09358 26.0339C6.09825 26.1118 6.03905 26.1787 5.96107 26.1835C5.88337 26.1889 5.81641 26.129 5.81146 26.051C5.80384 25.9254 5.84396 25.8079 5.92476 25.7199C6.00501 25.6322 6.11817 25.582 6.24305 25.5786C6.5619 25.5869 6.72973 25.8401 6.72973 26.0739C6.72973 26.3218 6.55597 26.4996 6.30719 26.5063C6.30563 26.5062 6.30436 26.5062 6.30309 26.5062Z" fill="#81B594"/>
<path d="M9.94465 26.0366C10.1169 28.0045 8.66133 29.5994 6.69341 29.5994C6.64255 29.5994 6.59155 29.598 6.54055 29.5952C8.41382 29.4991 9.77371 27.9423 9.60701 26.0366C9.44045 24.1322 7.80805 22.5754 5.91797 22.4793C5.96854 22.4765 6.01926 22.4751 6.07012 22.4751C8.03818 22.4751 9.77258 24.0701 9.94465 26.0366Z" fill="#81B594"/>
<g opacity="0.4">
<path d="M9.94465 26.0366C10.1169 28.0045 8.66133 29.5994 6.69341 29.5994C6.64255 29.5994 6.59155 29.598 6.54055 29.5952C8.41382 29.4991 9.77371 27.9423 9.60701 26.0366C9.44045 24.1322 7.80805 22.5754 5.91797 22.4793C5.96854 22.4765 6.01926 22.4751 6.07012 22.4751C8.03818 22.4751 9.77258 24.0701 9.94465 26.0366Z" fill="white"/>
</g>
<path d="M5.00453 1.72296C5.00821 1.76534 5.01471 1.80772 5.02262 1.84869C5.07475 2.12134 5.22054 2.36716 5.4203 2.55081C5.65071 2.76272 5.95473 2.8941 6.27824 2.8941H18.2143C18.819 2.8941 19.2763 2.43638 19.2869 1.84869C19.2876 1.80772 19.2867 1.76534 19.2829 1.72296C19.2547 1.40086 19.0976 1.10701 18.8673 0.896514C18.6369 0.684606 18.3329 0.553223 18.0093 0.553223H6.07326C5.42637 0.553223 4.94802 1.07734 5.00453 1.72296Z" fill="#81B594"/>
<path opacity="0.8" d="M5.00453 1.72296C5.00821 1.76534 5.01471 1.80772 5.02262 1.84869C5.07475 2.12134 5.22054 2.36716 5.4203 2.55081C5.65071 2.76272 5.95473 2.8941 6.27824 2.8941H18.2143C18.819 2.8941 19.2763 2.43638 19.2869 1.84869C19.2876 1.80772 19.2867 1.76534 19.2829 1.72296C19.2547 1.40086 19.0976 1.10701 18.8673 0.896514C18.6369 0.684606 18.3329 0.553223 18.0093 0.553223H6.07326C5.42637 0.553223 4.94802 1.07734 5.00453 1.72296Z" fill="white"/>
<path d="M19.2868 1.84869C19.2868 1.88683 19.284 1.92498 19.2783 1.96171C19.2416 1.65656 19.0876 1.37966 18.8672 1.17906C18.637 0.96715 18.3332 0.835767 18.0097 0.835767L5.31641 0.855545C5.50712 0.667653 5.77272 0.553223 6.07362 0.553223H18.0097C18.3332 0.553223 18.637 0.684606 18.8672 0.896514C19.0975 1.10701 19.2557 1.40086 19.284 1.72296C19.2868 1.76534 19.2882 1.80772 19.2868 1.84869Z" fill="#81B594"/>
<path opacity="0.5" d="M19.2868 1.84869C19.2868 1.88683 19.284 1.92498 19.2783 1.96171C19.2416 1.65656 19.0876 1.37966 18.8672 1.17906C18.637 0.96715 18.3332 0.835767 18.0097 0.835767L5.31641 0.855545C5.50712 0.667653 5.77272 0.553223 6.07362 0.553223H18.0097C18.3332 0.553223 18.637 0.684606 18.8672 0.896514C19.0975 1.10701 19.2557 1.40086 19.284 1.72296C19.2868 1.76534 19.2882 1.80772 19.2868 1.84869Z" fill="white"/>
<path d="M17.231 1.11768L17.281 1.6887L17.8126 1.49049L17.9389 1.77233L17.3956 1.95259L17.7856 2.43165L17.5422 2.61205L17.1619 2.11421L16.8739 2.61205L16.6064 2.43165L16.9076 1.95259L16.3379 1.77233L16.4146 1.49219L16.9858 1.68319L16.9363 1.11768H17.231Z" fill="#81B594"/>
<path d="M13.9664 1.11768L14.0164 1.6887L14.548 1.49049L14.6743 1.77233L14.1309 1.95259L14.521 2.43165L14.2776 2.61205L13.8973 2.11421L13.6092 2.61205L13.3418 2.43165L13.643 1.95259L13.0732 1.77233L13.15 1.49219L13.7211 1.68319L13.6717 1.11768H13.9664Z" fill="#81B594"/>
<path d="M10.7027 1.11768L10.7527 1.6887L11.2843 1.49049L11.4106 1.77233L10.8673 1.95259L11.2573 2.43165L11.0139 2.61205L10.6336 2.11421L10.3456 2.61205L10.0781 2.43165L10.3793 1.95259L9.80957 1.77233L9.88628 1.49219L10.4574 1.68319L10.408 1.11768H10.7027Z" fill="#81B594"/>
<path d="M7.43805 1.11768L7.48806 1.6887L8.01966 1.49049L8.14596 1.77233L7.60263 1.95259L7.99268 2.43165L7.74927 2.61205L7.36896 2.11421L7.08091 2.61205L6.81348 2.43165L7.11467 1.95259L6.54492 1.77233L6.62163 1.49219L7.1928 1.68319L7.14335 1.11768H7.43805Z" fill="#81B594"/>
<path d="M15.3501 0H14.7939V0.141272H15.3501V0Z" fill="#81B594"/>
<path d="M17.7436 0H15.9277V0.141272H17.7436V0Z" fill="#81B594"/>
<path opacity="0.8" d="M48.7279 9.77933L48.1498 16.3866C48.1324 16.5858 48.0431 16.7667 47.9083 16.9023C47.7528 17.0647 47.5348 17.1665 47.3017 17.1665H42.7146C42.5451 17.1665 42.3929 17.1128 42.274 17.0195C42.0885 16.8797 41.9801 16.648 42.003 16.3866L42.5811 9.77933C42.6188 9.34845 42.9983 8.99951 43.4292 8.99951H48.0163C48.4472 8.99951 48.7656 9.34845 48.7279 9.77933Z" fill="#81B594"/>
<path opacity="0.8" d="M48.7279 9.77933L48.1498 16.3866C48.1324 16.5858 48.0431 16.7667 47.9083 16.9023C47.7528 17.0647 47.5348 17.1665 47.3017 17.1665H42.7146C42.5451 17.1665 42.3929 17.1128 42.274 17.0195C42.0885 16.8797 41.9801 16.648 42.003 16.3866L42.5811 9.77933C42.6188 9.34845 42.9983 8.99951 43.4292 8.99951H48.0163C48.4472 8.99951 48.7656 9.34845 48.7279 9.77933Z" fill="white"/>
<path d="M43.0047 10.8428C43.0006 10.8428 42.9963 10.8427 42.9922 10.8423C42.9144 10.8355 42.857 10.767 42.8638 10.6893L42.9167 10.085C42.923 10.012 42.984 9.95605 43.0574 9.95605H43.6952C43.7733 9.95605 43.8365 10.0193 43.8365 10.0973C43.8365 10.1753 43.7733 10.2386 43.6952 10.2386H43.1868L43.1452 10.7138C43.1387 10.7874 43.0771 10.8428 43.0047 10.8428Z" fill="#81B594"/>
<path d="M48.1405 10.8428C48.1364 10.8428 48.1321 10.8427 48.128 10.8423C48.0502 10.8355 47.9929 10.767 47.9996 10.6893L48.039 10.2386H47.5553C47.4772 10.2386 47.4141 10.1753 47.4141 10.0973C47.4141 10.0193 47.4772 9.95605 47.5553 9.95605H48.1932C48.2327 9.95605 48.2706 9.97273 48.2973 10.0018C48.3241 10.0311 48.3373 10.0701 48.3339 10.1096L48.281 10.7138C48.2746 10.7874 48.2128 10.8428 48.1405 10.8428Z" fill="#81B594"/>
<path d="M43.2431 15.4031H42.6051C42.5655 15.4031 42.5277 15.3865 42.501 15.3572C42.4743 15.3281 42.461 15.289 42.4644 15.2494L42.5174 14.6452C42.5243 14.5675 42.5939 14.5092 42.6704 14.5168C42.7482 14.5236 42.8056 14.5921 42.7988 14.6698L42.7594 15.1204H43.2431C43.3212 15.1204 43.3844 15.1837 43.3844 15.2617C43.3844 15.3398 43.3211 15.4031 43.2431 15.4031Z" fill="#81B594"/>
<path d="M47.742 15.403H47.1042C47.026 15.403 46.9629 15.3397 46.9629 15.2617C46.9629 15.1837 47.026 15.1204 47.1042 15.1204H47.6126L47.6541 14.6452C47.6611 14.5675 47.7321 14.5092 47.8071 14.5168C47.885 14.5236 47.9423 14.5921 47.9355 14.6698L47.8827 15.274C47.8764 15.3469 47.8152 15.403 47.742 15.403Z" fill="#81B594"/>
<path d="M47.2545 13.125C47.5734 11.8883 47.0261 10.6779 46.032 10.4216C45.0379 10.1652 43.9735 10.96 43.6546 12.1967C43.3357 13.4335 43.883 14.6438 44.8771 14.9002C45.8712 15.1565 46.9356 14.3618 47.2545 13.125Z" fill="white"/>
<path d="M46.0092 16.1768H44.1797L44.3397 14.3472H46.1692L46.0092 16.1768Z" fill="white"/>
<path d="M48.1498 16.386C48.1324 16.5852 48.0431 16.7661 47.9083 16.9017C47.7528 17.0641 47.5348 17.1659 47.3017 17.1659H42.7146C42.5451 17.1659 42.3929 17.1122 42.274 17.0189C42.0885 16.8791 41.9801 16.6474 42.003 16.386C42.003 16.386 44.1112 15.7192 44.3712 15.7192C44.6297 15.7192 46 15.7192 46 15.7192L48.1498 16.386Z" fill="white"/>
<path d="M48.986 11.7069L48.7725 14.3022L48.9131 14.3138L49.1267 11.7185L48.986 11.7069Z" fill="#81B594"/>
<path d="M49.1357 10.5205L49.0938 11.0303L49.2344 11.0418L49.2763 10.532L49.1357 10.5205Z" fill="#81B594"/>
<path d="M6.99405 19.4772H1.88819C1.40886 19.4772 0.986172 19.0886 0.944214 18.6091L0.497512 13.5032C0.455554 13.0239 0.810147 12.6353 1.28962 12.6353H6.39548C6.87496 12.6353 7.2975 13.0239 7.33946 13.5032L7.78616 18.6091C7.82812 19.0886 7.47353 19.4772 6.99405 19.4772Z" fill="#81B594"/>
<path opacity="0.8" d="M6.99405 19.4772H1.88819C1.40886 19.4772 0.986172 19.0886 0.944214 18.6091L0.497512 13.5032C0.455554 13.0239 0.810147 12.6353 1.28962 12.6353H6.39548C6.87496 12.6353 7.2975 13.0239 7.33946 13.5032L7.78616 18.6091C7.82812 19.0886 7.47353 19.4772 6.99405 19.4772Z" fill="white"/>
<path d="M0.947266 16.57C0.947266 16.57 2.76106 14.0428 4.09919 14.1077C5.43732 14.1724 7.656 16.5104 7.656 16.5104C7.656 16.5104 4.3823 18.2291 0.947266 16.57Z" fill="white"/>
<path d="M1.0045 16.6112L0.889648 16.5288C0.963534 16.4257 2.69468 14.0356 4.04793 14.0356C4.06615 14.0356 4.08423 14.0361 4.10232 14.0369C5.45316 14.1023 7.61547 16.3654 7.70688 16.4617L7.60445 16.5589C7.58241 16.5357 5.38987 14.2406 4.09539 14.1779C4.07957 14.1772 4.06333 14.1768 4.04722 14.1768C2.76645 14.1771 1.02216 16.5866 1.0045 16.6112Z" fill="#263238"/>
<path d="M0.758268 16.6584C0.484624 16.6584 0.129324 16.5567 0.00345057 16.1695C-0.00855756 16.1323 0.0117855 16.0925 0.0487988 16.0805C0.0858121 16.0688 0.125793 16.0888 0.137801 16.1258C0.299981 16.6257 0.906745 16.5057 0.932457 16.5004C0.969894 16.4929 1.00804 16.5169 1.01595 16.5552C1.024 16.5933 0.999419 16.6307 0.961134 16.6387C0.904484 16.6505 0.834555 16.6584 0.758268 16.6584Z" fill="#263238"/>
<path d="M1.83563 15.574C1.82065 15.574 1.80539 15.5692 1.79254 15.5595C1.77135 15.5431 1.27011 15.1555 1.14212 14.7619C1.13011 14.7249 1.15046 14.685 1.18747 14.6729C1.22448 14.6609 1.26446 14.6813 1.27647 14.7182C1.39076 15.0697 1.87363 15.4435 1.87857 15.4473C1.90951 15.4711 1.9153 15.5154 1.89157 15.5464C1.87773 15.5646 1.85682 15.574 1.83563 15.574Z" fill="#263238"/>
<path d="M2.87481 14.6112C2.87438 14.6112 2.87382 14.6112 2.87325 14.6112C2.83426 14.6103 2.80332 14.5781 2.80417 14.539C2.80615 14.4484 2.58153 13.8571 2.4969 13.6344C2.46144 13.5412 2.43616 13.4744 2.43079 13.4564C2.41949 13.4191 2.44054 13.3797 2.47783 13.3683C2.51597 13.357 2.55468 13.3782 2.56599 13.4155C2.57107 13.4324 2.59537 13.4958 2.62885 13.5843C2.82578 14.1026 2.94742 14.4438 2.9453 14.5421C2.94459 14.5805 2.91309 14.6112 2.87481 14.6112Z" fill="#263238"/>
<path d="M4.09865 14.1768C4.06248 14.1768 4.03154 14.1491 4.02844 14.1124L3.92898 12.9746C3.92559 12.9357 3.95441 12.9014 3.99312 12.898C4.03296 12.893 4.0663 12.9233 4.06969 12.9623L4.16914 14.1001C4.17253 14.1389 4.14371 14.1733 4.10501 14.1766C4.10275 14.1766 4.10077 14.1768 4.09865 14.1768Z" fill="#263238"/>
<path d="M7.86747 16.5816C7.75304 16.5816 7.6687 16.5653 7.66121 16.5638C7.62293 16.5562 7.59835 16.519 7.60583 16.4807C7.6136 16.4424 7.65005 16.4171 7.6889 16.4252C7.69229 16.4258 8.03375 16.4913 8.2458 16.3421C8.33579 16.2787 8.38876 16.187 8.40755 16.062C8.41334 16.0233 8.44979 15.9973 8.4878 16.0027C8.52622 16.0084 8.55292 16.0443 8.54713 16.083C8.52269 16.2463 8.44852 16.3725 8.3266 16.4581C8.18406 16.5583 8.00422 16.5816 7.86747 16.5816Z" fill="#263238"/>
<path d="M6.59898 15.4978C6.57949 15.4978 6.56013 15.4898 6.54615 15.4739C6.52015 15.4448 6.52298 15.4002 6.55208 15.3742C6.55632 15.3705 6.96982 15.0004 7.02195 14.6533C7.02774 14.6146 7.06405 14.5886 7.10219 14.594C7.14076 14.5998 7.16732 14.6358 7.16153 14.6743C7.10191 15.0723 6.66425 15.4635 6.64574 15.48C6.63232 15.4919 6.61565 15.4978 6.59898 15.4978Z" fill="#263238"/>
<path d="M5.40477 14.6771C5.40081 14.6771 5.39686 14.6768 5.3929 14.6761C5.35448 14.6696 5.32848 14.6331 5.33498 14.5946C5.33653 14.5855 5.4901 13.6771 5.51793 13.4912C5.52372 13.4525 5.56017 13.4264 5.59817 13.4319C5.63674 13.4377 5.6633 13.4737 5.65751 13.5123C5.62953 13.6993 5.47583 14.609 5.47427 14.6181C5.46848 14.6526 5.43853 14.6771 5.40477 14.6771Z" fill="#263238"/>
<path d="M5.44667 16.8648C6.03173 16.2536 5.96525 15.2405 5.29819 14.602C4.63113 13.9634 3.61609 13.9413 3.03103 14.5525C2.44597 15.1637 2.51244 16.1768 3.1795 16.8153C3.84656 17.4539 4.86161 17.476 5.44667 16.8648Z" fill="#81B594"/>
<path opacity="0.3" d="M4.89997 15.708C4.90251 15.6727 4.90223 15.6374 4.89898 15.6007C4.86606 15.2249 4.53436 14.9211 4.15857 14.9211C3.7842 14.9211 3.50561 15.2249 3.53853 15.6007C3.54178 15.6374 3.54771 15.6727 3.55774 15.708H2.63806C2.56064 14.8237 3.21431 14.1074 4.09867 14.1074C4.98162 14.1074 5.76201 14.8237 5.83929 15.708H4.89997Z" fill="black"/>
<path opacity="0.7" d="M4.89908 15.6009C4.90233 15.6376 4.90262 15.673 4.90007 15.7083C4.8762 16.0332 4.61668 16.2804 4.27763 16.2804C3.93999 16.2804 3.63724 16.0332 3.55799 15.7083C3.54782 15.673 3.54188 15.6376 3.53877 15.6009C3.50586 15.2251 3.78445 14.9214 4.15882 14.9214C4.53446 14.9214 4.86617 15.2251 4.89908 15.6009Z" fill="black"/>
<path opacity="0.7" d="M5.26822 14.9343C5.29492 15.2403 5.0686 15.4882 4.76275 15.4882C4.45675 15.4882 4.18706 15.2402 4.16036 14.9343C4.13352 14.6283 4.35984 14.3804 4.66584 14.3804C4.97169 14.3802 5.24138 14.6283 5.26822 14.9343Z" fill="white"/>
<path d="M3.08074 12.001H2.52441V12.1422H3.08074V12.001Z" fill="#81B594"/>
<path d="M5.47397 12.001H3.6582V12.1422H5.47397V12.001Z" fill="#81B594"/>
<path d="M9.33845 9.75848C9.5609 9.55017 9.86165 9.44661 10.1653 9.47389C13.4128 9.76593 19.4718 8.20166 23.4317 4.14993C23.7067 3.86858 24.2079 4.02762 24.5231 4.26314C28.9271 7.55464 36.2272 8.23625 38.7614 8.37562C39.2856 8.40445 39.7109 8.8111 39.765 9.33335C42.0696 31.5922 27.5771 39.658 24.5713 41.0817C24.2428 41.2374 23.856 41.2148 23.5473 41.0226C8.56666 31.6914 9.20748 19.5564 9.00029 10.565C8.99326 10.2602 9.11598 9.96686 9.33845 9.75848Z" fill="#81B594"/>
<path opacity="0.61" d="M24.1663 39.4643C24.0994 39.4643 24.0324 39.4455 23.9742 39.4083C18.231 35.737 14.4878 31.3478 12.5306 25.9901C10.7827 21.205 10.6972 16.3325 10.6217 12.0335L10.6114 11.4603C10.6096 11.3647 10.6456 11.2745 10.7125 11.2063C10.78 11.1376 10.8706 11.0997 10.9674 11.0997H10.9675C14.5243 11.0997 19.8628 9.5292 23.7783 6.02067C23.8985 5.91293 24.0764 5.89998 24.2113 5.98942C28.5135 8.84402 34.6503 9.67523 37.9255 9.91662C38.0997 9.92952 38.2373 10.0654 38.2526 10.2397C39.0139 18.9248 37.2074 26.2689 32.8834 32.0683C29.6539 36.3994 25.8245 38.6562 24.3279 39.4254C24.2773 39.4514 24.2217 39.4643 24.1663 39.4643ZM24.2613 39.2957C25.7488 38.5311 29.5553 36.2878 32.7665 31.9811C37.0685 26.2113 38.8654 18.9008 38.1074 10.2525C38.0983 10.1497 38.0174 10.0696 37.9148 10.062C34.6254 9.81955 28.4605 8.98392 24.1307 6.11088C24.0513 6.05819 23.9464 6.06574 23.8756 6.12931C19.9314 9.66355 14.5521 11.2455 10.9706 11.2455H10.9705C10.91 11.2455 10.8564 11.2679 10.8165 11.3085C10.7772 11.3485 10.7562 11.4014 10.7572 11.4576L10.7675 12.0308C10.8428 16.3184 10.9281 21.1779 12.6677 25.9401C14.6134 31.2666 18.3375 35.632 24.0528 39.2855C24.1154 39.3255 24.1953 39.3295 24.2613 39.2957Z" fill="white"/>
<path opacity="0.61" d="M29.4027 18.1603H28.7253C28.3889 18.1603 28.1162 17.8876 28.1162 17.5512V15.2357C28.1162 14.4069 27.4443 13.7349 26.6155 13.7349H22.4178C21.589 13.7349 20.9171 14.4069 20.9171 15.2357V17.5512C20.9171 17.8876 20.6444 18.1603 20.308 18.1603H19.6306C19.2942 18.1603 19.0215 17.8876 19.0215 17.5512V15.2357C19.0215 13.3599 20.5421 11.8394 22.4178 11.8394H26.6155C28.4912 11.8394 30.0118 13.3599 30.0118 15.2357V17.5512C30.0118 17.8876 29.7391 18.1603 29.4027 18.1603Z" fill="white"/>
<path opacity="0.61" d="M30.2426 18.7061H18.7911C18.0894 18.7061 17.5205 19.2749 17.5205 19.9766V28.7652C17.5205 29.4669 18.0894 30.0358 18.7911 30.0358H30.2426C30.9443 30.0358 31.5132 29.4669 31.5132 28.7652V19.9766C31.5132 19.2749 30.9443 18.7061 30.2426 18.7061ZM26.1553 27.2003C26.2264 27.4963 26.002 27.781 25.6976 27.781H23.3361C23.0317 27.781 22.8073 27.4963 22.8784 27.2002L23.4295 24.9065C22.779 24.5177 22.3538 23.7909 22.3973 22.9685C22.4535 21.9033 23.3167 21.0313 24.3813 20.9651C25.6151 20.8885 26.6395 21.8664 26.6395 23.0836C26.6395 23.8584 26.2242 24.5359 25.6043 24.9065L26.1553 27.2003Z" fill="white"/>
</svg>
