<svg width="49" height="43" viewBox="0 0 49 43" fill="none" xmlns="http://www.w3.org/2000/svg">
<path d="M6.8581 33.5335C6.69055 33.4123 6.44206 33.4473 6.30254 33.6122L5.74292 34.4463L3.05716 32.8185C2.88916 32.7165 2.6583 32.7579 2.52648 32.9132L1.60077 34.1001C1.46126 34.2645 1.48365 34.4963 1.65097 34.6177C1.81807 34.7389 2.06679 34.704 2.20676 34.5394L2.89911 33.6275L3.48135 33.9805L2.23932 35.5852L2.25062 35.5868L0.0810787 38.3675C-0.0511967 38.5371 -0.0181853 38.7671 0.155016 38.8812C0.219232 38.9235 0.293849 38.9441 0.368918 38.9443C0.495993 38.9448 0.624878 38.8876 0.707861 38.7811L2.58391 36.3764L2.63772 36.3076C2.72794 36.2038 2.92443 36.0343 3.15823 36.1855L3.69254 36.5313L2.25921 37.343C2.06792 37.4513 1.99738 37.6797 2.10161 37.8529C2.20585 38.0265 2.44553 38.079 2.63659 37.9707L4.60874 36.8539C4.72655 36.7872 4.80387 36.6708 4.8136 36.5448C4.82332 36.4189 4.76431 36.3008 4.6569 36.2314L4.17483 35.9196L4.93977 34.8648L5.58487 35.2558C5.64659 35.2931 5.71669 35.3112 5.78701 35.3114C5.90888 35.3118 6.03234 35.2592 6.11578 35.1606L6.90852 34.051C7.04803 33.8864 7.02542 33.6547 6.8581 33.5335Z" fill="#5EACD6"/>
<path d="M5.09897 33.7062C5.52564 33.7077 5.89398 33.3839 5.92134 32.9826C5.9487 32.5812 5.6249 32.2547 5.198 32.2529C4.77133 32.2514 4.403 32.5751 4.37564 32.9765C4.34828 33.3778 4.6723 33.7043 5.09897 33.7062Z" fill="#5EACD6"/>
<path d="M2.49979 41.3634V41.7213H1.06534V41.4366L1.79749 40.7452C1.96572 40.5851 1.99534 40.4874 1.99534 40.3954C1.99534 40.2461 1.89223 40.1593 1.69167 40.1593C1.52887 40.1593 1.39049 40.2217 1.29847 40.349L0.978516 40.143C1.12481 39.9287 1.39072 39.7905 1.73237 39.7905C2.15543 39.7905 2.43739 40.0074 2.43739 40.3517C2.43739 40.536 2.38583 40.7042 2.12015 40.9509L1.68353 41.3631H2.49979V41.3634Z" fill="#5EACD6"/>
<path d="M2.67676 40.7721C2.67676 40.1457 3.02384 39.7905 3.49031 39.7905C3.95949 39.7905 4.30386 40.1457 4.30386 40.7721C4.30386 41.3986 3.95949 41.7539 3.49031 41.7539C3.02384 41.7539 2.67676 41.3986 2.67676 40.7721ZM3.86181 40.7721C3.86181 40.3409 3.70986 40.162 3.49031 40.162C3.27346 40.162 3.12152 40.3411 3.12152 40.7721C3.12152 41.2033 3.27346 41.3824 3.49031 41.3824C3.70986 41.3824 3.86181 41.2033 3.86181 40.7721Z" fill="#5EACD6"/>
<path d="M40.8115 39.7135C40.8115 39.2681 41.0582 39.0156 41.3898 39.0156C41.7233 39.0156 41.9681 39.2681 41.9681 39.7135C41.9681 40.1588 41.7233 40.4112 41.3898 40.4112C41.0582 40.4112 40.8115 40.1587 40.8115 39.7135ZM41.6539 39.7135C41.6539 39.407 41.5459 39.2797 41.3898 39.2797C41.2355 39.2797 41.1277 39.407 41.1277 39.7135C41.1277 40.0198 41.2357 40.1471 41.3898 40.1471C41.5459 40.1471 41.6539 40.0198 41.6539 39.7135Z" fill="#5EACD6"/>
<path d="M43.2352 39.9619C43.2352 40.2376 43.0097 40.411 42.7244 40.411C42.3524 40.411 42.1211 40.1778 42.1211 39.7422C42.1211 39.2758 42.4025 39.0156 42.8093 39.0156C42.9519 39.0156 43.0907 39.0484 43.1851 39.108L43.0695 39.3375C42.9943 39.2872 42.9075 39.27 42.817 39.27C42.5915 39.27 42.4469 39.403 42.4372 39.6614C42.5163 39.5823 42.6299 39.542 42.7707 39.542C43.0309 39.5417 43.2352 39.7075 43.2352 39.9619ZM42.9326 39.9772C42.9326 39.8538 42.8419 39.7749 42.7032 39.7749C42.5663 39.7749 42.47 39.8596 42.47 39.9772C42.47 40.0929 42.5568 40.1776 42.7071 40.1776C42.8402 40.1776 42.9326 40.1007 42.9326 39.9772Z" fill="#5EACD6"/>
<path d="M43.3594 40.2148C43.3594 40.1029 43.4423 40.0298 43.5465 40.0298C43.6504 40.0298 43.7334 40.1029 43.7334 40.2148C43.7334 40.3247 43.6504 40.4036 43.5465 40.4036C43.4421 40.4036 43.3594 40.3245 43.3594 40.2148Z" fill="#5EACD6"/>
<path d="M44.9016 40.1338V40.3882H43.882V40.1857L44.4024 39.6942C44.522 39.5804 44.5432 39.511 44.5432 39.4454C44.5432 39.3395 44.4699 39.2778 44.3272 39.2778C44.2117 39.2778 44.1133 39.322 44.0477 39.4128L43.8203 39.2662C43.9243 39.114 44.1133 39.0156 44.3562 39.0156C44.6569 39.0156 44.8573 39.1698 44.8573 39.4145C44.8573 39.5455 44.8206 39.6653 44.6318 39.8404L44.3214 40.1334H44.9016V40.1338Z" fill="#5EACD6"/>
<path d="M46.0279 39.9757C46.0279 40.2032 45.8525 40.4113 45.4689 40.4113C45.2799 40.4113 45.0852 40.3594 44.9541 40.2668L45.0756 40.0278C45.1778 40.1051 45.3204 40.1493 45.461 40.1493C45.6172 40.1493 45.7135 40.0857 45.7135 39.9759C45.7135 39.8737 45.6383 39.8102 45.461 39.8102H45.3185V39.604L45.596 39.2898H45.0216V39.0391H45.9662V39.2416L45.6616 39.5884C45.9044 39.6268 46.0279 39.7771 46.0279 39.9757Z" fill="#5EACD6"/>
<path d="M46.1631 40.2148C46.1631 40.1029 46.246 40.0298 46.3502 40.0298C46.4542 40.0298 46.5371 40.1029 46.5371 40.2148C46.5371 40.3247 46.4542 40.4036 46.3502 40.4036C46.246 40.4036 46.1631 40.3245 46.1631 40.2148Z" fill="#5EACD6"/>
<path d="M47.1681 39.0391V40.3885H46.8558V39.2898H46.5859V39.0391H47.1681Z" fill="#5EACD6"/>
<path d="M48.5328 39.9967C48.5328 40.2511 48.3052 40.411 47.9622 40.411C47.621 40.411 47.3955 40.2511 47.3955 39.9967C47.3955 39.8522 47.4707 39.7442 47.5998 39.6786C47.4995 39.617 47.4437 39.5225 47.4437 39.401C47.4437 39.1638 47.6557 39.0156 47.9622 39.0156C48.2726 39.0156 48.4846 39.164 48.4846 39.401C48.4846 39.5225 48.4269 39.617 48.3266 39.6786C48.4576 39.7442 48.5328 39.8522 48.5328 39.9967ZM48.2166 39.9872C48.2166 39.8676 48.1184 39.7943 47.9622 39.7943C47.8079 39.7943 47.7116 39.8676 47.7116 39.9872C47.7116 40.1066 47.8081 40.1818 47.9622 40.1818C48.1183 40.1818 48.2166 40.1066 48.2166 39.9872ZM47.7539 39.4145C47.7539 39.5168 47.8349 39.5802 47.9621 39.5802C48.0913 39.5802 48.174 39.5166 48.174 39.4145C48.174 39.3085 48.0892 39.2448 47.9621 39.2448C47.8369 39.245 47.7539 39.3085 47.7539 39.4145Z" fill="#5EACD6"/>
<path d="M38.1994 40.8587C38.1624 40.8587 38.1256 40.8436 38.099 40.8139L37.1351 39.7395C37.0853 39.684 37.09 39.5989 37.1454 39.5492C37.2009 39.4992 37.2862 39.5042 37.3357 39.5595L38.2995 40.6339C38.3494 40.6893 38.3447 40.7745 38.2893 40.8242C38.2637 40.8473 38.2316 40.8587 38.1994 40.8587Z" fill="#5EACD6"/>
<path d="M37.4396 37.6166V37.4448H36.8895V37.6287C35.8233 37.7822 34.9849 38.6994 35.0002 39.8073C35.0172 41.0368 36.0084 42.0276 37.204 42.0111C38.4189 41.9942 39.4077 41.0225 39.4077 39.8073C39.4078 38.6719 38.5443 37.7348 37.4396 37.6166ZM37.204 41.7415C36.1375 41.7415 35.2697 40.874 35.2697 39.8074C35.2697 38.7409 36.1375 37.8733 37.204 37.8733C38.2704 37.8733 39.1381 38.7409 39.1381 39.8074C39.1381 40.874 38.2706 41.7415 37.204 41.7415Z" fill="#5EACD6"/>
<path d="M37.5306 37H36.7979V37.3722H37.5306V37Z" fill="#5EACD6"/>
<g opacity="0.6">
<path d="M38.1994 40.8587C38.1624 40.8587 38.1256 40.8436 38.099 40.8139L37.1351 39.7395C37.0853 39.684 37.09 39.5989 37.1454 39.5492C37.2009 39.4992 37.2862 39.5042 37.3357 39.5595L38.2995 40.6339C38.3494 40.6893 38.3447 40.7745 38.2893 40.8242C38.2637 40.8473 38.2316 40.8587 38.1994 40.8587Z" fill="#5EACD6"/>
<path d="M37.4396 37.6166V37.4448H36.8895V37.6287C35.8233 37.7822 34.9849 38.6994 35.0002 39.8073C35.0172 41.0368 36.0084 42.0276 37.204 42.0111C38.4189 41.9942 39.4077 41.0225 39.4077 39.8073C39.4078 38.6719 38.5443 37.7348 37.4396 37.6166ZM37.204 41.7415C36.1375 41.7415 35.2697 40.874 35.2697 39.8074C35.2697 38.7409 36.1375 37.8733 37.204 37.8733C38.2704 37.8733 39.1381 38.7409 39.1381 39.8074C39.1381 40.874 38.2706 41.7415 37.204 41.7415Z" fill="#5EACD6"/>
<path d="M37.5306 37H36.7979V37.3722H37.5306V37Z" fill="#5EACD6"/>
</g>
<path d="M34.2424 29.422H38.363C34.8531 33.0784 29.7959 36.6861 24.9912 40.3344L21.7256 42.7286C21.7093 42.7449 21.6767 42.7612 21.6523 42.7775L18.4763 40.1227C14.4207 36.6128 10.1453 32.9482 7.12402 29.3079H13.2399L15.9192 20.1138L19.9177 37.7366L23.6393 28.7134L25.9603 33.7462L28.6965 24.9348L31.7422 33.5345L34.2424 29.422Z" fill="#5EACD6"/>
<path d="M39.2346 27.5007H33.7051L31.9705 30.3591L28.6398 20.9532L25.7895 30.1392L23.5907 25.3671L20.1785 33.6329L16.0253 15.3667L12.5317 27.3867H6.35878C2.57199 22.4924 1.3016 17.6795 6.19592 13.4041C12.3199 8.04556 19.413 13.0376 23.0044 16.2788C26.7912 13.2738 35.1026 7.12287 41.4823 15.1224C44.6868 19.1396 42.7608 23.5103 39.2346 27.5007Z" fill="#5EACD6"/>
<path d="M17.0815 0.120449V6.95702H15.4991V1.39003H14.1318V0.119629H17.0815V0.120449Z" fill="#5EACD6"/>
<path d="M23.3843 5.66553V6.95466H18.218V5.92857L20.8549 3.43824C21.4608 2.86167 21.5683 2.50987 21.5683 2.17761C21.5683 1.64094 21.1969 1.32822 20.4746 1.32822C19.8882 1.32822 19.3898 1.55217 19.0584 2.01229L17.9053 1.26959C18.4322 0.498383 19.3899 0 20.6204 0C22.144 0 23.1595 0.78097 23.1595 2.02125C23.1595 2.68495 22.9739 3.29085 22.017 4.17932L20.4445 5.6639H23.3843V5.66553Z" fill="#5EACD6"/>
<path d="M29.2075 4.80792C29.2075 6.01888 28.3182 7.07348 26.3654 7.07348C25.4175 7.07348 24.4215 6.81044 23.7578 6.34137L24.3832 5.13041C24.9003 5.5213 25.6137 5.74607 26.3271 5.74607C27.1179 5.74607 27.6065 5.41462 27.6065 4.85759C27.6065 4.32011 27.2547 3.96831 26.0144 3.96831H24.266L24.6178 0.119629H28.7881V1.39003H25.9362L25.8287 2.68895H26.3858C28.407 2.68895 29.2075 3.59697 29.2075 4.80792Z" fill="#5EACD6"/>
</svg>
