<svg width="48" height="37" viewBox="0 0 48 37" fill="none" xmlns="http://www.w3.org/2000/svg">
<path d="M0.189734 18.1091L0 18.1313L0.338673 21.0261L0.528407 21.0039L0.189734 18.1091Z" fill="#8C60E2"/>
<path d="M0.653602 22.0789L0.463867 22.1011L0.634656 23.5609L0.824392 23.5387L0.653602 22.0789Z" fill="#8C60E2"/>
<path d="M13.302 12.2089L13.0763 11.5764C12.7565 10.6797 11.8598 10.1226 10.9142 10.2332L1.92834 11.2842C0.807339 11.4153 0.00503853 12.4302 0.136092 13.5512L2.69398 35.4191C2.78385 36.1877 3.47992 36.7381 4.24857 36.6482L36.3987 32.8879C37.1674 32.798 37.7177 32.1019 37.6278 31.3333L35.4168 12.4293C35.327 11.6606 34.6309 11.1103 33.8623 11.2002L15.1931 13.3837C14.366 13.4803 13.5817 12.9932 13.302 12.2089Z" fill="#8C60E2"/>
<path d="M14.2013 2.69712L4.04297 4.72217L6.83285 18.7173L16.9912 16.6922L14.2013 2.69712Z" fill="#8C60E2"/>
<path opacity="0.7" d="M14.2013 2.69712L4.04297 4.72217L6.83285 18.7173L16.9912 16.6922L14.2013 2.69712Z" fill="white"/>
<g opacity="0.4">
<path d="M12.8436 6.06746L6.58597 7.31462C6.2825 7.37517 5.98749 7.17812 5.92695 6.87464C5.8664 6.57117 6.06345 6.27616 6.36693 6.21562L12.6246 4.96845C12.928 4.90791 13.2231 5.10496 13.2836 5.40843C13.3441 5.7119 13.1471 6.00691 12.8436 6.06746Z" fill="#8C60E2"/>
<path d="M13.3046 8.38191L7.04691 9.62908C6.74344 9.68962 6.44843 9.49257 6.38788 9.1891C6.32734 8.88563 6.52439 8.59061 6.82786 8.53007L13.0855 7.2829C13.389 7.22236 13.684 7.41941 13.7445 7.72288C13.8049 8.02654 13.608 8.32155 13.3046 8.38191Z" fill="#8C60E2"/>
<path d="M13.7665 10.6954L7.50883 11.9426C7.20535 12.0031 6.91034 11.806 6.8498 11.5026C6.78925 11.1991 6.98631 10.9041 7.28978 10.8435L13.5474 9.59638C13.8509 9.53584 14.1459 9.73289 14.2065 10.0364C14.2668 10.3398 14.0699 10.6348 13.7665 10.6954Z" fill="#8C60E2"/>
<path d="M14.2274 13.0098L7.96976 14.257C7.66629 14.3175 7.37128 14.1205 7.31074 13.817C7.25019 13.5136 7.44724 13.2185 7.75071 13.158L14.0084 11.9108C14.3118 11.8503 14.6068 12.0473 14.6674 12.3508C14.7277 12.6545 14.5309 12.9495 14.2274 13.0098Z" fill="#8C60E2"/>
<path d="M12.9781 15.6646L8.4307 16.5709C8.12723 16.6314 7.83222 16.4344 7.77167 16.1309C7.71113 15.8275 7.90818 15.5324 8.21165 15.4719L12.759 14.5656C13.0625 14.5051 13.3575 14.7021 13.4181 15.0056C13.4784 15.3091 13.2815 15.6041 12.9781 15.6646Z" fill="#8C60E2"/>
</g>
<path d="M28.6761 0.000202745L18.4131 1.40479L20.3482 15.544L30.6111 14.1394L28.6761 0.000202745Z" fill="#8C60E2"/>
<path opacity="0.7" d="M28.6761 0.000202745L18.4131 1.40479L20.3482 15.544L30.6111 14.1394L28.6761 0.000202745Z" fill="white"/>
<g opacity="0.4">
<path d="M27.1162 3.2794L20.7944 4.14468C20.488 4.18661 20.2054 3.97208 20.1634 3.6656C20.1215 3.35912 20.336 3.07652 20.6425 3.03459L26.9643 2.1693C27.2708 2.12737 27.5534 2.3419 27.5953 2.64838C27.6374 2.95505 27.4229 3.23747 27.1162 3.2794Z" fill="#8C60E2"/>
<path d="M27.4365 5.61661L21.1148 6.4819C20.8083 6.52383 20.5257 6.30929 20.4838 6.00281C20.4418 5.69614 20.6564 5.41373 20.9628 5.3718L27.2846 4.5067C27.5911 4.46477 27.8737 4.67931 27.9156 4.98579C27.9575 5.29208 27.743 5.57468 27.4365 5.61661Z" fill="#8C60E2"/>
<path d="M23.176 8.58164L21.4341 8.82006C21.1276 8.86199 20.845 8.64745 20.8031 8.34097C20.7612 8.0343 20.9757 7.75189 21.2822 7.70996L23.024 7.47154C23.3305 7.42961 23.6131 7.64415 23.655 7.95063C23.697 8.2573 23.4826 8.53971 23.176 8.58164Z" fill="#8C60E2"/>
<path d="M26.5539 8.12022L24.812 8.35863C24.5055 8.40056 24.2229 8.18603 24.181 7.87955C24.1391 7.57307 24.3536 7.29046 24.6601 7.24853L26.402 7.01012C26.7084 6.96819 26.991 7.18273 27.033 7.48921C27.0749 7.79569 26.8604 8.07829 26.5539 8.12022Z" fill="#8C60E2"/>
<path d="M28.0762 10.2931L21.7544 11.1584C21.4479 11.2003 21.1653 10.9857 21.1234 10.6793C21.0815 10.3726 21.296 10.0902 21.6025 10.0483L27.9243 9.18297C28.2309 9.14104 28.5133 9.35558 28.5553 9.66206C28.5974 9.96854 28.3828 10.2509 28.0762 10.2931Z" fill="#8C60E2"/>
<path d="M26.6687 12.8678L22.0747 13.4965C21.7682 13.5385 21.4856 13.3239 21.4437 13.0174C21.4018 12.711 21.6163 12.4284 21.9228 12.3864L26.5168 11.7577C26.8233 11.7157 27.1059 11.9303 27.1478 12.2368C27.1899 12.5432 26.9754 12.8258 26.6687 12.8678Z" fill="#8C60E2"/>
</g>
<path d="M18.9888 2.06379L8.66992 2.96289L9.9086 17.1792L20.2275 16.2801L18.9888 2.06379Z" fill="#8C60E2"/>
<path opacity="0.8" d="M18.9888 2.06379L8.66992 2.96289L9.9086 17.1792L20.2275 16.2801L18.9888 2.06379Z" fill="white"/>
<g opacity="0.4">
<path d="M17.2731 5.26299L10.9165 5.81691C10.6084 5.84379 10.3367 5.61572 10.3098 5.30736C10.2829 4.99919 10.511 4.72749 10.8193 4.7006L17.1759 4.14668C17.484 4.1198 17.7557 4.34787 17.7826 4.65623C17.8093 4.96459 17.5812 5.2361 17.2731 5.26299Z" fill="#8C60E2"/>
<path d="M17.4782 7.61474L11.1216 8.16866C10.8134 8.19555 10.5417 7.96747 10.5148 7.65911C10.488 7.35094 10.716 7.07924 11.0244 7.05236L17.3809 6.49825C17.6891 6.47136 17.9608 6.69943 17.9877 7.00779C18.0146 7.31616 17.7865 7.58785 17.4782 7.61474Z" fill="#8C60E2"/>
<path d="M17.6832 9.96562L11.3267 10.5195C11.0185 10.5464 10.7468 10.3184 10.7199 10.01C10.693 9.70163 10.9211 9.43013 11.2295 9.40324L17.586 8.84932C17.8942 8.82243 18.1659 9.05051 18.1928 9.35887C18.2197 9.66704 17.9914 9.93874 17.6832 9.96562Z" fill="#8C60E2"/>
<path d="M17.8873 12.3157L11.5308 12.8696C11.2224 12.8965 10.9509 12.6685 10.924 12.3601C10.8971 12.0519 11.1252 11.7802 11.4336 11.7533L17.7901 11.1994C18.0983 11.1725 18.37 11.4006 18.3969 11.709C18.4236 12.0171 18.1955 12.2888 17.8873 12.3157Z" fill="#8C60E2"/>
<path d="M16.3551 14.8182L11.7359 15.2207C11.4277 15.2476 11.156 15.0195 11.1291 14.7112C11.1022 14.403 11.3303 14.1313 11.6387 14.1044L16.2579 13.7019C16.566 13.675 16.8377 13.903 16.8646 14.2114C16.8913 14.5196 16.6632 14.7913 16.3551 14.8182Z" fill="#8C60E2"/>
</g>
<path d="M31.5646 1.3728L21.2188 1.87207L21.9066 16.1255L32.2524 15.6262L31.5646 1.3728Z" fill="#8C60E2"/>
<path opacity="0.8" d="M31.5646 1.3728L21.2188 1.87207L21.9066 16.1255L32.2524 15.6262L31.5646 1.3728Z" fill="white"/>
<g opacity="0.4">
<path d="M29.7272 4.50278L23.3539 4.81039C23.0448 4.82524 22.7821 4.58683 22.7673 4.27772C22.7524 3.96861 22.9908 3.70593 23.2997 3.69108L29.673 3.38347C29.9821 3.36862 30.2446 3.60703 30.2597 3.91615C30.2747 4.22507 30.0361 4.48774 29.7272 4.50278Z" fill="#8C60E2"/>
<path d="M29.8405 6.86069L23.4672 7.1683C23.1581 7.18315 22.8956 6.94474 22.8805 6.63563C22.8657 6.32651 23.1041 6.06384 23.4132 6.04899L29.7865 5.74138C30.0956 5.72653 30.3583 5.96494 30.3731 6.27406C30.388 6.58298 30.1496 6.84565 29.8405 6.86069Z" fill="#8C60E2"/>
<path d="M25.3376 9.44077L23.5814 9.52557C23.2723 9.54042 23.0097 9.30201 22.9948 8.99289C22.9799 8.68378 23.2184 8.4213 23.5273 8.40626L25.2834 8.32146C25.5925 8.3066 25.8552 8.54502 25.8701 8.85413C25.8851 9.16325 25.6467 9.42592 25.3376 9.44077Z" fill="#8C60E2"/>
<path d="M28.7429 9.27524L26.9867 9.36004C26.6776 9.37489 26.4149 9.13648 26.4001 8.82737C26.3852 8.51825 26.6236 8.25577 26.9327 8.24073L28.6889 8.15593C28.998 8.14108 29.2607 8.37949 29.2755 8.6886C29.2904 8.99772 29.052 9.2602 28.7429 9.27524Z" fill="#8C60E2"/>
<path d="M30.068 11.5741L23.6947 11.8817C23.3856 11.8965 23.1231 11.6581 23.1081 11.349C23.0932 11.0399 23.3316 10.7772 23.6408 10.7624L30.014 10.4548C30.3231 10.4399 30.5858 10.6783 30.6007 10.9874C30.6155 11.2965 30.3771 11.559 30.068 11.5741Z" fill="#8C60E2"/>
<path d="M28.4404 14.0145L23.809 14.2381C23.4999 14.2529 23.2372 14.0145 23.2223 13.7054C23.2075 13.3963 23.4459 13.1336 23.755 13.1187L28.3864 12.8952C28.6955 12.8803 28.9582 13.1188 28.9731 13.4279C28.9877 13.737 28.7493 13.9996 28.4404 14.0145Z" fill="#8C60E2"/>
</g>
<path d="M16.1716 12.6129L16.0069 11.9941C15.7734 11.1168 14.9378 10.5736 13.9922 10.6841L5.00634 11.735C3.88534 11.8661 2.99786 12.8618 3.024 13.9592L3.53392 35.3648C3.55179 36.1173 4.18956 36.6543 4.95821 36.5644L37.1084 32.8041C37.877 32.7142 38.4856 32.0313 38.4678 31.2789L38.027 12.7746C38.0092 12.0221 37.3714 11.4851 36.6028 11.575L17.9336 13.7585C17.1067 13.8552 16.3758 13.38 16.1716 12.6129Z" fill="#8C60E2"/>
<path opacity="0.3" d="M16.1716 12.6129L16.0069 11.9941C15.7734 11.1168 14.9378 10.5736 13.9922 10.6841L5.00634 11.735C3.88534 11.8661 2.99786 12.8618 3.024 13.9592L3.53392 35.3648C3.55179 36.1173 4.18956 36.6543 4.95821 36.5644L37.1084 32.8041C37.877 32.7142 38.4856 32.0313 38.4678 31.2789L38.027 12.7746C38.0092 12.0221 37.3714 11.4851 36.6028 11.575L17.9336 13.7585C17.1067 13.8552 16.3758 13.38 16.1716 12.6129Z" fill="black"/>
<path d="M46.8308 22.5768L47.9188 10.7668L45.5965 8.98865L38.5072 8.33545L37.2764 21.6967L46.8308 22.5768Z" fill="#8C60E2"/>
<path opacity="0.8" d="M46.8308 22.5768L47.9188 10.7668L45.5965 8.98865L38.5072 8.33545L37.2764 21.6967L46.8308 22.5768Z" fill="white"/>
<path d="M47.919 10.765L45.5967 8.98682L46.2055 11.1151L47.919 10.765Z" fill="#8C60E2"/>
<path d="M38.1071 23.7606C39.7061 23.7606 41.0023 22.4644 41.0023 20.8654C41.0023 19.2664 39.7061 17.9702 38.1071 17.9702C36.5081 17.9702 35.2119 19.2664 35.2119 20.8654C35.2119 22.4644 36.5081 23.7606 38.1071 23.7606Z" fill="#8C60E2"/>
<path d="M39.5397 22.6782C40.5403 21.8877 40.7107 20.4357 39.9202 19.435C39.1297 18.4344 37.6777 18.264 36.6771 19.0545C35.6764 19.845 35.5061 21.297 36.2965 22.2977C37.087 23.2983 38.539 23.4687 39.5397 22.6782Z" fill="white"/>
<path d="M39.5341 20.6628L38.5154 20.5434L38.635 19.5245L37.9045 19.439L37.7851 20.4577L36.7662 20.3381L36.6807 21.0684L37.6994 21.188L37.5798 22.2067L38.3101 22.2924L38.4297 21.2737L39.4484 21.3931L39.5341 20.6628Z" fill="#8C60E2"/>
<path opacity="0.4" d="M46.1849 13.214C46.1448 13.6487 45.7601 13.9686 45.3254 13.9285L40.1546 13.4528C39.7198 13.4127 39.4 13.028 39.4399 12.5935C39.4799 12.1588 39.8646 11.839 40.2993 11.8788L45.4702 12.3545C45.9049 12.3946 46.2249 12.7793 46.1849 13.214Z" fill="#8C60E2"/>
<path opacity="0.4" d="M44.4232 15.3476C44.3832 15.7823 43.9985 16.1022 43.5639 16.0621L39.9503 15.7297C39.5158 15.6896 39.1958 15.3049 39.2358 14.8702C39.2759 14.4355 39.6606 14.1157 40.0951 14.1557L43.7087 14.4882C44.1433 14.5282 44.4631 14.9129 44.4232 15.3476Z" fill="#8C60E2"/>
</svg>
