<svg width="55" height="62" viewBox="0 0 55 62" fill="none" xmlns="http://www.w3.org/2000/svg">
<path d="M42.0352 61.3701C28.5673 61.3701 15.0998 61.3701 1.63188 61.3701C7.28826 40.9135 -4.0245 20.4566 1.63188 0C15.0998 0 28.5673 0 42.0352 0C36.3789 20.4569 47.6916 40.9135 42.0352 61.3701Z" fill="#FFC444"/>
<path opacity="0.7" d="M42.0352 61.3701C28.5673 61.3701 15.0998 61.3701 1.63188 61.3701C7.28826 40.9135 -4.0245 20.4566 1.63188 0C15.0998 0 28.5673 0 42.0352 0C36.3789 20.4569 47.6916 40.9135 42.0352 61.3701Z" fill="white"/>
<path d="M37.3367 12.8474C31.2509 12.8474 25.1652 12.8474 19.0797 12.8474C18.9818 12.8474 18.902 12.768 18.9023 12.6697C18.9027 12.5715 18.9831 12.4917 19.0814 12.4917C25.1672 12.4917 31.2526 12.4917 37.3384 12.4917C37.4363 12.4917 37.5164 12.5711 37.5151 12.6697C37.5144 12.768 37.4347 12.8474 37.3367 12.8474Z" fill="#263238"/>
<path d="M37.4264 16.4757C31.3406 16.4757 25.2548 16.4757 19.169 16.4757C19.0707 16.4757 18.9873 16.3959 18.9826 16.2977C18.9785 16.1994 19.0543 16.12 19.1522 16.1196C25.238 16.1196 31.3238 16.1196 37.4092 16.1196C37.5078 16.1196 37.5906 16.199 37.5953 16.2977C37.6007 16.3959 37.5243 16.4757 37.4264 16.4757Z" fill="#263238"/>
<path d="M37.6605 20.1218C26.2148 20.1218 14.7691 20.1218 3.32345 20.1218C3.22518 20.1218 3.13802 20.0421 3.12961 19.9438C3.12086 19.8455 3.19456 19.7661 3.29216 19.7661C14.7379 19.7661 26.1832 19.7661 37.6289 19.7661C37.7272 19.7661 37.8137 19.8455 37.8221 19.9438C37.8312 20.0421 37.7591 20.1218 37.6605 20.1218Z" fill="#263238"/>
<path d="M40.5147 51.2307C29.069 51.2307 17.6233 51.2307 6.17763 51.2307C6.0797 51.2307 6.00331 51.151 6.00802 51.0527C6.01273 50.9544 6.09484 50.8747 6.19345 50.875C17.6388 50.875 29.0848 50.875 40.5305 50.875C40.6285 50.875 40.7052 50.9544 40.7008 51.0527C40.6968 51.151 40.613 51.2307 40.5147 51.2307Z" fill="#263238"/>
<path d="M17.0728 57.4667C13.2128 57.4667 9.35285 57.4667 5.4932 57.4667C5.39527 57.4667 5.3293 57.3873 5.34647 57.289C5.36296 57.1904 5.45685 57.1113 5.55478 57.1113C9.41477 57.1113 13.2748 57.1113 17.1347 57.1113C17.2337 57.1113 17.299 57.1907 17.2821 57.289C17.265 57.3869 17.1711 57.4667 17.0728 57.4667Z" fill="#263238"/>
<path d="M39.947 57.4667C36.087 57.4667 32.2274 57.4667 28.3671 57.4667C28.2685 57.4667 28.2038 57.3873 28.2203 57.289C28.2378 57.1904 28.33 57.1113 28.4287 57.1113C32.2886 57.1113 36.1486 57.1113 40.0083 57.1113C40.1065 57.1113 40.1725 57.1907 40.1557 57.289C40.1392 57.3869 40.045 57.4667 39.947 57.4667Z" fill="#263238"/>
<path d="M12.4401 8.30479C12.4401 9.83128 11.2952 10.7806 9.46516 10.7806H8.08505V12.6692H6.5V5.81885H9.46516C11.2952 5.81885 12.4401 6.7682 12.4401 8.30479ZM10.8352 8.30479C10.8352 7.5513 10.3459 7.11078 9.37699 7.11078H8.08505V9.4887H9.37699C10.3459 9.4887 10.8352 9.04818 10.8352 8.30479Z" fill="#FFC444"/>
<path d="M13.5291 16.5825L11.8754 14.2046L10.251 16.5825H8.43066L10.9651 13.0987L8.55787 9.73242H10.3583L11.9336 11.9539L13.4796 9.73242H15.1922L12.8045 13.0402L15.3585 16.5825H13.5291Z" fill="#FFC444"/>
<path d="M5.49858 22.3824C5.49858 22.76 5.21523 22.9949 4.76259 22.9949H4.42135V23.462H4.0293V21.7676H4.76293C5.21523 21.7676 5.49858 22.0021 5.49858 22.3824ZM5.10148 22.3824C5.10148 22.196 4.98033 22.0873 4.74072 22.0873H4.42135V22.6752H4.74072C4.98033 22.6752 5.10148 22.5662 5.10148 22.3824Z" fill="#263238"/>
<path d="M6.55673 22.1406V22.4893C6.52509 22.4869 6.50086 22.4846 6.47192 22.4846C6.26361 22.4846 6.12563 22.5983 6.12563 22.8477V23.4625H5.74805V22.1601H6.10847V22.3318C6.20101 22.2059 6.35582 22.1406 6.55673 22.1406Z" fill="#263238"/>
<path d="M8.03717 22.918H7.05182C7.08816 23.0802 7.22614 23.1795 7.42469 23.1795C7.56267 23.1795 7.66161 23.1384 7.75146 23.0536L7.95237 23.2714C7.83122 23.4093 7.64983 23.482 7.41493 23.482C6.96466 23.482 6.67188 23.1987 6.67188 22.8113C6.67188 22.4216 6.9697 22.1406 7.36647 22.1406C7.74877 22.1406 8.04424 22.3974 8.04424 22.816C8.04458 22.8453 8.03953 22.8867 8.03717 22.918ZM7.0471 22.6979H7.68853C7.66194 22.5334 7.53844 22.4267 7.36883 22.4267C7.1972 22.4267 7.07369 22.5307 7.0471 22.6979Z" fill="#263238"/>
<path d="M8.16895 23.3414L8.29481 23.0701C8.41091 23.1452 8.58759 23.196 8.74744 23.196C8.92176 23.196 8.98705 23.1499 8.98705 23.0775C8.98705 22.8645 8.20024 23.0822 8.20024 22.562C8.20024 22.3153 8.42303 22.1406 8.80297 22.1406C8.98234 22.1406 9.18055 22.1817 9.30406 22.2544L9.1782 22.5229C9.04998 22.4502 8.92143 22.4263 8.80297 22.4263C8.63369 22.4263 8.561 22.4795 8.561 22.5475C8.561 22.7703 9.34747 22.5546 9.34747 23.0678C9.34747 23.3097 9.12233 23.4817 8.73263 23.4817C8.51254 23.4817 8.28976 23.4211 8.16895 23.3414Z" fill="#263238"/>
<path d="M9.48145 22.8113C9.48145 22.4193 9.78398 22.1406 10.2077 22.1406C10.4813 22.1406 10.6967 22.2591 10.7912 22.4724L10.4984 22.6299C10.4281 22.5064 10.3241 22.4506 10.2053 22.4506C10.0142 22.4506 9.86408 22.5838 9.86408 22.8113C9.86408 23.0388 10.0142 23.1721 10.2053 23.1721C10.3241 23.1721 10.4281 23.1189 10.4984 22.9927L10.7912 23.1526C10.697 23.3609 10.4813 23.482 10.2077 23.482C9.78398 23.4817 9.48145 23.2034 9.48145 22.8113Z" fill="#263238"/>
<path d="M11.8159 22.1406V22.4893C11.7842 22.4869 11.76 22.4846 11.731 22.4846C11.5227 22.4846 11.3848 22.5983 11.3848 22.8477V23.4625H11.0068V22.1601H11.3676V22.3318C11.4601 22.2059 11.6149 22.1406 11.8159 22.1406Z" fill="#263238"/>
<path d="M11.9941 21.7688C11.9941 21.65 12.0884 21.5581 12.229 21.5581C12.3694 21.5581 12.4639 21.6453 12.4639 21.7614C12.4639 21.8872 12.3694 21.9791 12.229 21.9791C12.0884 21.9791 11.9941 21.8872 11.9941 21.7688ZM12.0402 22.1608H12.4178V23.4632H12.0402V22.1608Z" fill="#263238"/>
<path d="M14.186 22.812C14.186 23.2209 13.9027 23.4827 13.5372 23.4827C13.375 23.4827 13.2417 23.4319 13.1452 23.3255V23.9329H12.7676V22.1611H13.1283V22.3112C13.2229 22.1975 13.3632 22.1416 13.5376 22.1416C13.903 22.1413 14.186 22.4028 14.186 22.812ZM13.8038 22.812C13.8038 22.5868 13.6607 22.4512 13.4719 22.4512C13.2831 22.4512 13.1405 22.5868 13.1405 22.812C13.1405 23.0371 13.2831 23.1727 13.4719 23.1727C13.6607 23.1727 13.8038 23.0371 13.8038 22.812Z" fill="#263238"/>
<path d="M15.2764 23.3987C15.199 23.4543 15.0852 23.4812 14.9688 23.4812C14.6615 23.4812 14.4822 23.324 14.4822 23.0141V22.479H14.2812V22.1886H14.4822V21.8716H14.8601V22.1886H15.1842V22.479H14.8601V23.0094C14.8601 23.1208 14.9207 23.181 15.0219 23.181C15.0778 23.181 15.1333 23.1642 15.1744 23.1326L15.2764 23.3987Z" fill="#263238"/>
<path d="M15.4424 21.7688C15.4424 21.65 15.5366 21.5581 15.6773 21.5581C15.8176 21.5581 15.9122 21.6453 15.9122 21.7614C15.9122 21.8872 15.8176 21.9791 15.6773 21.9791C15.5366 21.9791 15.4424 21.8872 15.4424 21.7688ZM15.4885 22.1608H15.8661V23.4632H15.4885V22.1608Z" fill="#263238"/>
<path d="M16.1191 22.8113C16.1191 22.4193 16.4217 22.1406 16.8356 22.1406C17.2495 22.1406 17.5497 22.4189 17.5497 22.8113C17.5497 23.2034 17.2495 23.482 16.8356 23.482C16.4217 23.4817 16.1191 23.2034 16.1191 22.8113ZM17.1671 22.8113C17.1671 22.5862 17.0244 22.4506 16.8353 22.4506C16.6465 22.4506 16.5011 22.5862 16.5011 22.8113C16.5011 23.0365 16.6461 23.1721 16.8353 23.1721C17.0244 23.1721 17.1671 23.0365 17.1671 22.8113Z" fill="#263238"/>
<path d="M19.1311 22.7168V23.4625H18.7535V22.775C18.7535 22.5643 18.6566 22.4677 18.4897 22.4677C18.308 22.4677 18.1774 22.5791 18.1774 22.8187V23.4625H17.7998V22.1601H18.1602V22.3126C18.2619 22.2012 18.4146 22.1406 18.5913 22.1406C18.8986 22.1406 19.1311 22.32 19.1311 22.7168Z" fill="#263238"/>
<path d="M19.3789 22.3756C19.3789 22.2353 19.4829 22.1431 19.6138 22.1431C19.7444 22.1431 19.8487 22.2353 19.8487 22.3756C19.8487 22.5136 19.7444 22.6129 19.6138 22.6129C19.4829 22.6129 19.3789 22.5136 19.3789 22.3756ZM19.3789 23.2445C19.3789 23.1039 19.4829 23.012 19.6138 23.012C19.7444 23.012 19.8487 23.1039 19.8487 23.2445C19.8487 23.3825 19.7444 23.4818 19.6138 23.4818C19.4829 23.4818 19.3789 23.3825 19.3789 23.2445Z" fill="#263238"/>
<path d="M44.9168 49.5429L38.3677 47.4139C37.1838 47.0289 36.5294 45.7369 36.9065 44.528L44.0554 21.601C44.4325 20.3921 45.6978 19.7239 46.8818 20.1089L53.4308 22.2379C54.6148 22.623 55.2691 23.9149 54.8921 25.1238L47.7431 48.0509C47.366 49.2598 46.1007 49.928 44.9168 49.5429Z" fill="black"/>
<path opacity="0.8" d="M54.9936 24.4962C54.99 24.703 54.9568 24.9136 54.8905 25.1242L47.7427 48.0497C47.7169 48.1287 47.6912 48.2039 47.658 48.2791C47.2014 49.3432 46.023 49.9035 44.9182 49.5425L38.3669 47.4143C37.2033 47.0382 36.5514 45.7786 36.8902 44.5829L41.0147 31.3585L44.0565 21.6009C44.4321 20.3939 45.6989 19.7246 46.881 20.1081L53.4322 22.2364C53.5795 22.2853 53.7158 22.3454 53.8447 22.4206C54.5816 22.838 55.0235 23.6464 54.9936 24.4962Z" fill="white"/>
<g opacity="0.6">
<path opacity="0.5" d="M39.1514 37.3329L42.1213 27.81L50.5389 21.2959L53.8447 22.4202C54.5812 22.8376 55.0232 23.646 54.9937 24.4958L39.1514 37.3329Z" fill="white"/>
</g>
<path opacity="0.5" d="M43.3135 23.9796L44.0551 21.601C44.4322 20.3921 45.6976 19.7239 46.8815 20.1089L47.8618 20.4278L43.3135 23.9796Z" fill="white"/>
<path d="M47.8224 23.8865C47.6784 24.3486 47.1945 24.6039 46.7419 24.4569C46.2894 24.3099 46.0393 23.8158 46.1833 23.3537C46.3273 22.8916 46.8112 22.6363 47.2638 22.7833C47.7163 22.9303 47.9664 23.4244 47.8224 23.8865Z" fill="#FFC444"/>
<path d="M46.1827 29.1458C46.0388 29.6079 45.5549 29.8632 45.1023 29.7162C44.6497 29.5692 44.3997 29.0751 44.5436 28.613C44.6876 28.1508 45.1715 27.8955 45.6241 28.0425C46.0767 28.1896 46.3267 28.6837 46.1827 29.1458Z" fill="#FFC444"/>
<path d="M44.5421 34.4051C44.3981 34.8672 43.9142 35.1225 43.4617 34.9755C43.0091 34.8284 42.759 34.3344 42.903 33.8722C43.047 33.4101 43.5309 33.1548 43.9835 33.3018C44.4361 33.4488 44.6861 33.9429 44.5421 34.4051Z" fill="#FFC444"/>
<path d="M42.9026 39.6624C42.7586 40.1245 42.2747 40.3798 41.8222 40.2328C41.3696 40.0858 41.1192 39.5917 41.2635 39.1296C41.4079 38.6674 41.8914 38.4121 42.344 38.5592C42.7966 38.7062 43.0466 39.2003 42.9026 39.6624Z" fill="#FFC444"/>
<path d="M41.2628 44.9236C41.1188 45.3857 40.635 45.641 40.1824 45.494C39.7298 45.347 39.4797 44.8529 39.6237 44.3908C39.7677 43.9287 40.2516 43.6734 40.7042 43.8204C41.1568 43.9674 41.4068 44.4615 41.2628 44.9236Z" fill="#FFC444"/>
<path d="M51.963 25.2317C51.819 25.6938 51.3351 25.9491 50.8826 25.8021C50.43 25.6551 50.1799 25.161 50.3239 24.6989C50.4679 24.2368 50.9518 23.9815 51.4044 24.1285C51.857 24.2755 52.1074 24.7696 51.963 25.2317Z" fill="#FFC444"/>
<path d="M50.3234 30.491C50.1794 30.9531 49.6955 31.2084 49.2429 31.0614C48.7903 30.9144 48.5403 30.4203 48.6843 29.9582C48.8283 29.4961 49.3121 29.2407 49.7647 29.3878C50.2173 29.5348 50.4677 30.0285 50.3234 30.491Z" fill="#FFC444"/>
<path d="M48.6827 35.7503C48.5388 36.2124 48.0549 36.4681 47.6023 36.3207C47.1497 36.1737 46.8997 35.6796 47.0436 35.2175C47.1876 34.7553 47.6715 34.5 48.1241 34.647C48.5767 34.7944 48.8267 35.2881 48.6827 35.7503Z" fill="#FFC444"/>
<path d="M47.0431 41.0095C46.8991 41.4717 46.4152 41.727 45.9626 41.58C45.5101 41.4329 45.26 40.9389 45.404 40.4767C45.548 40.0146 46.0319 39.7593 46.4845 39.9063C46.937 40.0533 47.1871 40.5474 47.0431 41.0095Z" fill="#FFC444"/>
<path d="M45.4035 46.269C45.2595 46.7311 44.7756 46.9864 44.323 46.8394C43.8704 46.6924 43.6204 46.1983 43.7643 45.7362C43.9083 45.274 44.3922 45.0183 44.8448 45.1657C45.2974 45.3128 45.5474 45.8068 45.4035 46.269Z" fill="#FFC444"/>
<g opacity="0.4">
<path d="M47.8224 23.8865C47.6784 24.3486 47.1945 24.6039 46.7419 24.4569C46.2894 24.3099 46.0393 23.8158 46.1833 23.3537C46.3273 22.8916 46.8112 22.6363 47.2638 22.7833C47.7163 22.9303 47.9664 23.4244 47.8224 23.8865Z" fill="white"/>
<path d="M46.1827 29.1458C46.0388 29.6079 45.5549 29.8632 45.1023 29.7162C44.6497 29.5692 44.3997 29.0751 44.5436 28.613C44.6876 28.1508 45.1715 27.8955 45.6241 28.0425C46.0767 28.1896 46.3267 28.6837 46.1827 29.1458Z" fill="white"/>
<path d="M44.5421 34.4051C44.3981 34.8672 43.9142 35.1225 43.4617 34.9755C43.0091 34.8284 42.759 34.3344 42.903 33.8722C43.047 33.4101 43.5309 33.1548 43.9835 33.3018C44.4361 33.4488 44.6861 33.9429 44.5421 34.4051Z" fill="white"/>
<path d="M42.9026 39.6624C42.7586 40.1245 42.2747 40.3798 41.8222 40.2328C41.3696 40.0858 41.1192 39.5917 41.2635 39.1296C41.4079 38.6674 41.8914 38.4121 42.344 38.5592C42.7966 38.7062 43.0466 39.2003 42.9026 39.6624Z" fill="white"/>
<path d="M41.2628 44.9236C41.1188 45.3857 40.635 45.641 40.1824 45.494C39.7298 45.347 39.4797 44.8529 39.6237 44.3908C39.7677 43.9287 40.2516 43.6734 40.7042 43.8204C41.1568 43.9674 41.4068 44.4615 41.2628 44.9236Z" fill="white"/>
</g>
<g opacity="0.4">
<path d="M51.963 25.2317C51.819 25.6938 51.3351 25.9491 50.8826 25.8021C50.43 25.6551 50.1799 25.161 50.3239 24.6989C50.4679 24.2368 50.9518 23.9815 51.4044 24.1285C51.857 24.2755 52.1074 24.7696 51.963 25.2317Z" fill="white"/>
<path d="M50.3234 30.491C50.1794 30.9531 49.6955 31.2084 49.2429 31.0614C48.7903 30.9144 48.5403 30.4203 48.6843 29.9582C48.8283 29.4961 49.3121 29.2407 49.7647 29.3878C50.2173 29.5348 50.4677 30.0285 50.3234 30.491Z" fill="white"/>
<path d="M48.6827 35.7503C48.5388 36.2124 48.0549 36.4681 47.6023 36.3207C47.1497 36.1737 46.8997 35.6796 47.0436 35.2175C47.1876 34.7553 47.6715 34.5 48.1241 34.647C48.5767 34.7944 48.8267 35.2881 48.6827 35.7503Z" fill="white"/>
<path d="M47.0431 41.0095C46.8991 41.4717 46.4152 41.727 45.9626 41.58C45.5101 41.4329 45.26 40.9389 45.404 40.4767C45.548 40.0146 46.0319 39.7593 46.4845 39.9063C46.937 40.0533 47.1871 40.5474 47.0431 41.0095Z" fill="white"/>
<path d="M45.4035 46.269C45.2595 46.7311 44.7756 46.9864 44.323 46.8394C43.8704 46.6924 43.6204 46.1983 43.7643 45.7362C43.9083 45.274 44.3922 45.0183 44.8448 45.1657C45.2974 45.3128 45.5474 45.8068 45.4035 46.269Z" fill="white"/>
</g>
<path opacity="0.7" d="M41.0349 48.575L29.7232 50.9574C28.6402 51.1856 27.5792 50.4738 27.3557 49.368L24.1 33.2509C23.6558 31.0696 24.7138 28.9256 26.5536 27.9322C26.9436 27.719 27.3686 27.5599 27.8245 27.4655L33.6658 26.2333C34.2701 26.1062 34.8747 26.1032 35.4499 26.201C37.3332 26.5368 38.9193 28.0141 39.3317 30.0401L42.5911 46.1572C42.8147 47.2634 42.1179 48.3471 41.0349 48.575Z" fill="white"/>
<path d="M39.4797 30.781L24.2461 33.9907L26.6635 45.9524L41.897 42.7427L39.4797 30.781Z" fill="#FFC444"/>
<path opacity="0.4" d="M39.4797 30.781L24.2461 33.9907L26.6635 45.9524L41.897 42.7427L39.4797 30.781Z" fill="white"/>
<path d="M35.8877 24.6656L25.5372 26.8473L25.2131 25.2439C25.0968 24.6679 25.4595 24.1046 26.0237 23.9858L34.3315 22.2351C34.8957 22.1163 35.4473 22.4866 35.5637 23.0627L35.8877 24.6656Z" fill="#FFC444"/>
<path opacity="0.7" d="M35.4503 26.2C34.8751 26.1022 34.2704 26.1052 33.6661 26.2323L27.8249 27.4645C27.3686 27.5589 26.9436 27.7179 26.554 27.9311L26.3018 26.685L35.1693 24.814L35.4503 26.2Z" fill="white"/>
<path opacity="0.3" d="M26.4019 28.8184C26.3842 28.533 26.013 28.4446 25.876 28.6939C25.5568 29.2756 25.2139 30.1281 25.3373 30.9606C25.5376 32.315 28.3662 47.075 28.7989 49.3322C28.835 49.5195 28.934 49.6868 29.0791 49.8064C29.2724 49.9658 29.528 50.0237 29.7692 49.9624L30.1979 49.8538L26.5094 30.5586C26.5094 30.5586 26.4516 29.6219 26.4019 28.8184Z" fill="white"/>
</svg>
