<svg width="50" height="53" viewBox="0 0 50 53" fill="none" xmlns="http://www.w3.org/2000/svg">
<path d="M6.50841 8.06841C6.82011 7.77653 7.24148 7.63142 7.66686 7.66965C12.2171 8.07885 20.7065 5.88712 26.2549 0.210085C26.6402 -0.184127 27.3424 0.0386852 27.7841 0.368678C33.9546 4.98051 44.1831 5.93556 47.7338 6.13081C48.4682 6.17122 49.0642 6.741 49.1401 7.47271C52.3692 38.6602 32.0632 49.9615 27.8517 51.9563C27.3913 52.1745 26.8494 52.1428 26.4169 51.8735C5.42702 38.7992 6.32488 21.7965 6.03458 9.19835C6.02474 8.77139 6.1967 8.36036 6.50841 8.06841Z" fill="url(#paint0_linear_530_12729)" fill-opacity="0.5"/>
<path d="M27.284 49.6269C27.2023 49.6269 27.1207 49.6039 27.0497 49.5585C19.015 44.4224 13.7787 38.2832 11.0417 30.7902C8.59634 24.0956 8.47654 17.2743 8.37083 11.256L8.35652 10.453C8.35441 10.3366 8.39813 10.2267 8.47962 10.1437C8.56198 10.0598 8.67243 10.0137 8.79065 10.0137C8.79069 10.0137 8.79072 10.0137 8.79076 10.0137C11.4398 10.0137 14.5716 9.39854 17.6134 8.28155C21.0971 7.00232 24.2681 5.1348 26.7835 2.88081C26.9301 2.74948 27.1471 2.73374 27.3112 2.84265C33.3514 6.85049 41.9623 8.01713 46.5576 8.35583C46.7699 8.37149 46.9376 8.53711 46.9561 8.74967C48.0214 20.9023 45.4946 31.1775 39.4458 39.29C34.9291 45.3477 29.5736 48.5037 27.4808 49.5794C27.4191 49.6112 27.3516 49.6269 27.284 49.6269ZM8.79478 10.0885C8.69267 10.0885 8.60115 10.1268 8.53299 10.1962C8.46565 10.2647 8.42956 10.3554 8.43133 10.4517L8.44563 11.2548C8.5512 17.2671 8.67093 24.0818 11.1119 30.7645C13.8432 38.2416 19.0696 44.3685 27.09 49.4955C27.1974 49.5641 27.334 49.5709 27.4466 49.513C29.5348 48.4395 34.8784 45.2904 39.3858 39.2453C45.4233 31.148 47.9452 20.89 46.8816 8.7562C46.8662 8.58045 46.7277 8.44345 46.5521 8.43049C41.9495 8.0913 33.3242 6.92233 27.2698 2.90503C27.1341 2.8149 26.9547 2.82785 26.8334 2.93658C21.3197 7.87705 13.8007 10.0885 8.79486 10.0885C8.79486 10.0885 8.79482 10.0885 8.79478 10.0885Z" fill="white"/>
<path d="M28.4998 19.8255H28.3086V6.34748L28.4998 5.3916V19.8255Z" fill="white"/>
<path d="M29.36 21.1637H27.4482L27.5718 18.0741C27.5829 17.7976 27.8103 17.5791 28.087 17.5791H28.7212C28.998 17.5791 29.2254 17.7976 29.2365 18.0741L29.36 21.1637Z" fill="url(#paint1_linear_530_12729)"/>
<path d="M31.5822 46.1603H25.2256V21.9303C25.2256 21.4014 25.6543 20.9727 26.1832 20.9727H30.6246C31.1535 20.9727 31.5822 21.4014 31.5822 21.9303V46.1603Z" fill="url(#paint2_linear_530_12729)"/>
<path d="M25.7031 46.352V22.0333C25.7031 21.7118 25.9638 21.4512 26.2852 21.4512H30.5218C30.8432 21.4512 31.1039 21.7118 31.1039 22.0333V46.352L25.7031 46.352Z" fill="url(#paint3_linear_530_12729)"/>
<path d="M25.7031 46.352V22.0333C25.7031 21.7118 25.9638 21.4512 26.2852 21.4512H30.5218C30.8432 21.4512 31.1039 21.7118 31.1039 22.0333V46.352L25.7031 46.352Z" fill="#BDD0FB"/>
<path d="M25.7031 31.6538V22.0333C25.7031 21.7118 25.9638 21.4512 26.2852 21.4512H30.5218C30.8432 21.4512 31.1039 21.7118 31.1039 22.0333V31.6538H25.7031Z" fill="url(#paint4_linear_530_12729)"/>
<path d="M28.7618 31.8223H28.0449V52.0871H28.7618V31.8223Z" fill="url(#paint5_linear_530_12729)"/>
<path d="M31.1217 31.1533H25.7031V31.918H31.1217V31.1533Z" fill="url(#paint6_linear_530_12729)"/>
<path d="M32.2754 46.8291H24.5327C24.3216 46.8291 24.1504 46.658 24.1504 46.4468C24.1504 46.2356 24.3216 46.0645 24.5327 46.0645H32.2754C32.4866 46.0645 32.6578 46.2356 32.6578 46.4468C32.6578 46.658 32.4866 46.8291 32.2754 46.8291Z" fill="url(#paint7_linear_530_12729)"/>
<path d="M32.2779 52.4532L24.5308 52.4693C24.3196 52.4693 24.1484 52.2981 24.1484 52.0869C24.1484 51.8758 24.3196 51.7046 24.5308 51.7046H32.2735C32.4846 51.7046 32.6558 51.8758 32.6558 52.0869C32.6558 52.2981 32.489 52.4532 32.2779 52.4532Z" fill="url(#paint8_linear_530_12729)"/>
<path d="M9.54239 27.3589V26.3979H1.7612V27.3589C1.7612 27.9677 1.45791 28.5275 0.969399 28.8908C0.382908 29.327 0.00292969 30.0251 0.00292969 30.8123V50.1905C0.00292969 51.5128 1.07485 52.5847 2.39715 52.5847H8.90644C10.2287 52.5847 11.3007 51.5128 11.3007 50.1905V30.8123C11.3007 30.0251 10.9207 29.327 10.3342 28.8908C9.84568 28.5275 9.54239 27.9677 9.54239 27.3589Z" fill="url(#paint9_linear_530_12729)"/>
<path d="M9.54604 27.3589V26.3979H1.76482V27.3589C1.76482 27.9677 1.4319 28.4907 0.973052 28.8908C0.329665 29.4518 -0.0557964 30.1619 0.006582 30.8123V50.1905C0.006582 51.5128 1.07851 52.5847 2.40081 52.5847H8.91009C10.2324 52.5847 11.3043 51.5128 11.3043 50.1905V30.8123C11.3043 30.0251 10.9243 29.327 10.3378 28.8908C9.84933 28.5275 9.54604 27.9677 9.54604 27.3589Z" fill="#0172D0"/>
<path d="M0.00292969 30.8133V50.1915C0.00292969 51.5138 1.07485 52.5857 2.39715 52.5857H8.90644C10.2287 52.5857 11.3007 51.5138 11.3007 50.1915V30.8133C11.3007 30.7375 11.2961 30.6629 11.2892 30.5889H0.0144203C0.00751021 30.6629 0.00292969 30.7375 0.00292969 30.8133Z" fill="#0172D0"/>
<path d="M0.588867 30.7895V49.6537C0.588867 50.8388 1.54959 51.7996 2.7347 51.7996H8.56872C9.75383 51.7996 10.7146 50.8388 10.7146 49.6537V30.7895C10.7146 30.7215 9.75424 29.5697 9.74808 29.5034H1.42217C1.41601 29.5698 0.588867 30.7215 0.588867 30.7895Z" fill="#BDD0FB"/>
<path d="M11.3006 31.9351H0.00292969V46.5996H11.3006V31.9351Z" fill="#8CC4F6" fill-opacity="0.5"/>
<path d="M9.91052 26.9971H1.39427C1.12204 26.9971 0.901367 26.7764 0.901367 26.5042V23.8987C0.901367 23.6264 1.12204 23.4058 1.39427 23.4058H9.91052C10.1828 23.4058 10.4034 23.6264 10.4034 23.8987V26.5042C10.4034 26.7764 10.1828 26.9971 9.91052 26.9971Z" fill="#FFE9FF"/>
<path d="M10.0091 36.7234H1.29569C1.07791 36.7234 0.901367 36.5469 0.901367 36.3291V33.6761C0.901367 33.4583 1.07791 33.2817 1.29569 33.2817H10.0091C10.2269 33.2817 10.4034 33.4583 10.4034 33.6761V36.3291C10.4034 36.5469 10.2269 36.7234 10.0091 36.7234Z" fill="#0172D0"/>
<path d="M2.53713 36.0481L2.1416 34.1738H2.44741L2.59755 34.9664C2.63969 35.1888 2.67814 35.403 2.70744 35.6365H2.71292C2.74405 35.4113 2.78251 35.1888 2.82465 34.9747L2.98215 34.1738H3.2788L2.8631 36.0481H2.53713Z" fill="white"/>
<path d="M3.59892 35.567L3.511 36.0481H3.22168L3.59892 34.1738H3.96515L4.34787 36.0481H4.04755L3.95235 35.567H3.59892ZM3.91205 35.25L3.83514 34.8523C3.81313 34.7411 3.7912 34.602 3.77291 34.4908H3.76927C3.7509 34.602 3.73261 34.7439 3.71248 34.8523L3.63925 35.25H3.91205Z" fill="white"/>
<path d="M5.3734 35.9947C5.32213 36.0336 5.20677 36.0753 5.05662 36.0753C4.62993 36.0753 4.41016 35.6721 4.41016 35.1382C4.41016 34.4985 4.71048 34.1426 5.08404 34.1426C5.2287 34.1426 5.33858 34.1871 5.388 34.226L5.33122 34.5625C5.27444 34.5264 5.19573 34.493 5.09681 34.493C4.87523 34.493 4.70308 34.696 4.70308 35.1131C4.70308 35.4885 4.84958 35.7249 5.09864 35.7249C5.18288 35.7249 5.27628 35.6971 5.33122 35.6637L5.3734 35.9947Z" fill="white"/>
<path d="M6.40754 35.9947C6.35628 36.0336 6.24091 36.0753 6.09073 36.0753C5.66407 36.0753 5.44434 35.6721 5.44434 35.1382C5.44434 34.4985 5.74466 34.1426 6.11822 34.1426C6.26288 34.1426 6.3728 34.1871 6.42222 34.226L6.36544 34.5625C6.30866 34.5264 6.22994 34.493 6.13106 34.493C5.90949 34.493 5.73734 34.696 5.73734 35.1131C5.73734 35.4885 5.88384 35.7249 6.13286 35.7249C6.2171 35.7249 6.31053 35.6971 6.36544 35.6637L6.40754 35.9947Z" fill="white"/>
<path d="M6.87098 34.1738V36.0481H6.59082V34.1738H6.87098Z" fill="white"/>
<path d="M7.1123 36.0481V34.1738H7.43828L7.69463 34.8607C7.7679 35.0581 7.84113 35.2917 7.89607 35.5031H7.90155C7.88326 35.2556 7.87778 35.0025 7.87778 34.7216V34.1738H8.13413V36.0481H7.84113L7.57742 35.3251C7.50419 35.1249 7.4236 34.883 7.36317 34.6633L7.35769 34.6661C7.36501 34.9135 7.36869 35.1777 7.36869 35.4837V36.0481H7.1123V36.0481Z" fill="white"/>
<path d="M9.11032 35.2556H8.65617V35.7005H9.16342V36.0481H8.37598V34.1738H9.13777V34.5214H8.65617V34.9108H9.11032V35.2556Z" fill="white"/>
<path d="M4.36957 23.9668H2.125V26.361H4.36957V23.9668Z" fill="#0172D0"/>
<path d="M10.7291 40.502H0.927734V41.325H10.7291V40.502Z" fill="#0172D0"/>
<path d="M21.3637 27.3223V26.3613H13.5825V27.3223C13.5825 27.9311 13.2792 28.4909 12.7907 28.8542C12.2042 29.2904 11.8242 29.9885 11.8242 30.7757V50.1538C11.8242 51.4762 12.8961 52.5481 14.2184 52.5481H20.7277C22.05 52.5481 23.122 51.4762 23.122 50.1538V30.7757C23.122 29.9885 22.742 29.2904 22.1555 28.8542C21.667 28.4909 21.3637 27.9311 21.3637 27.3223Z" fill="url(#paint10_linear_530_12729)"/>
<path d="M21.3673 27.3223V26.3613H13.5861V27.3223C13.5861 27.9311 13.2532 28.4541 12.7943 28.8542C12.151 29.4152 11.7655 30.1252 11.8279 30.7757V50.1538C11.8279 51.4762 12.8998 52.5481 14.2221 52.5481H20.7314C22.0537 52.5481 23.1256 51.4762 23.1256 50.1538V30.7757C23.1256 29.9885 22.7456 29.2904 22.1591 28.8542C21.6707 28.4909 21.3673 27.9311 21.3673 27.3223Z" fill="#0172D0"/>
<path d="M11.8242 30.7752V50.1534C11.8242 51.4757 12.8961 52.5477 14.2184 52.5477H20.7277C22.05 52.5477 23.122 51.4757 23.122 50.1534V30.7752C23.122 30.6994 23.1174 30.6248 23.1105 30.5508H11.8357C11.8288 30.6248 11.8242 30.6995 11.8242 30.7752Z" fill="#0172D0"/>
<path d="M12.4102 30.7524V49.6166C12.4102 50.8017 13.3709 51.7625 14.556 51.7625H20.39C21.5751 51.7625 22.5358 50.8017 22.5358 49.6166V30.7524C22.5358 30.6844 21.5755 29.5326 21.5694 29.4663H13.2435C13.2373 29.5326 12.4102 30.6844 12.4102 30.7524Z" fill="#BDD0FB"/>
<path d="M23.122 31.8979H11.8242V46.5625H23.122V31.8979Z" fill="#8CC4F6" fill-opacity="0.5"/>
<path d="M21.7318 26.9605H13.2156C12.9433 26.9605 12.7227 26.7398 12.7227 26.4676V23.862C12.7227 23.5898 12.9433 23.3691 13.2156 23.3691H21.7318C22.004 23.3691 22.2247 23.5898 22.2247 23.862V26.4676C22.2247 26.7398 22.004 26.9605 21.7318 26.9605Z" fill="#FFE9FF"/>
<path d="M21.8304 36.6868H13.117C12.8992 36.6868 12.7227 36.5103 12.7227 36.2925V33.6394C12.7227 33.4217 12.8992 33.2451 13.117 33.2451H21.8304C22.0482 33.2451 22.2247 33.4217 22.2247 33.6394V36.2925C22.2247 36.5103 22.0482 36.6868 21.8304 36.6868Z" fill="#0172D0"/>
<path d="M14.3584 36.009L13.9629 34.1348H14.2687L14.4188 34.9273C14.4609 35.1497 14.4994 35.3639 14.5287 35.5975H14.5342C14.5653 35.3722 14.6038 35.1497 14.6459 34.9356L14.8034 34.1348H15.1001L14.6844 36.009H14.3584Z" fill="white"/>
<path d="M15.4202 35.5279L15.3323 36.009H15.043L15.4202 34.1348H15.7864L16.1692 36.009H15.8688L15.7736 35.5279H15.4202ZM15.7334 35.2109L15.6565 34.8132C15.6345 34.702 15.6125 34.563 15.5942 34.4518H15.5906C15.5722 34.563 15.5539 34.7048 15.5338 34.8132L15.4605 35.2109H15.7334Z" fill="white"/>
<path d="M17.1947 35.9566C17.1434 35.9955 17.0281 36.0372 16.8779 36.0372C16.4512 36.0372 16.2314 35.634 16.2314 35.1001C16.2314 34.4604 16.5318 34.1045 16.9053 34.1045C17.05 34.1045 17.1599 34.149 17.2093 34.1879L17.1525 34.5244C17.0957 34.4883 17.017 34.455 16.9181 34.455C16.6965 34.455 16.5244 34.6579 16.5244 35.075C16.5244 35.4504 16.6709 35.6868 16.9199 35.6868C17.0042 35.6868 17.0976 35.659 17.1525 35.6256L17.1947 35.9566Z" fill="white"/>
<path d="M18.2288 35.9566C18.1776 35.9955 18.0622 36.0372 17.912 36.0372C17.4854 36.0372 17.2656 35.634 17.2656 35.1001C17.2656 34.4604 17.5659 34.1045 17.9395 34.1045C18.0842 34.1045 18.1941 34.149 18.2435 34.1879L18.1867 34.5244C18.1299 34.4883 18.0512 34.455 17.9523 34.455C17.7308 34.455 17.5586 34.6579 17.5586 35.075C17.5586 35.4504 17.7051 35.6868 17.9542 35.6868C18.0384 35.6868 18.1318 35.659 18.1867 35.6256L18.2288 35.9566Z" fill="white"/>
<path d="M18.6923 34.1348V36.009H18.4121V34.1348H18.6923Z" fill="white"/>
<path d="M18.9336 36.009V34.1348H19.2596L19.5159 34.8216C19.5891 35.019 19.6624 35.2526 19.7174 35.464H19.7228C19.7046 35.2165 19.6991 34.9634 19.6991 34.6826V34.1348H19.9554V36.009H19.6624L19.3987 35.2861C19.3255 35.0858 19.2449 34.8439 19.1845 34.6242L19.179 34.627C19.1863 34.8744 19.19 35.1386 19.19 35.4446V36.0091L18.9336 36.009Z" fill="white"/>
<path d="M20.9316 35.2165H20.4775V35.6615H20.9847V36.009H20.1973V34.1348H20.9591V34.4823H20.4775V34.8717H20.9316V35.2165Z" fill="white"/>
<path d="M16.1909 23.9297H13.9463V26.3239H16.1909V23.9297Z" fill="#0172D0"/>
<path d="M22.5513 40.4648H12.75V41.2879H22.5513V40.4648Z" fill="#0172D0"/>
<defs>
<linearGradient id="paint0_linear_530_12729" x1="6.03418" y1="26.0501" x2="49.4864" y2="26.0501" gradientUnits="userSpaceOnUse">
<stop stop-color="#1B7DD0"/>
<stop offset="0.5" stop-color="#2FA3D0"/>
<stop offset="1" stop-color="#44C9D0"/>
</linearGradient>
<linearGradient id="paint1_linear_530_12729" x1="28.11" y1="17.8674" x2="29.4244" y2="27.7261" gradientUnits="userSpaceOnUse">
<stop stop-color="#FE7062"/>
<stop offset="1" stop-color="#FF928E"/>
</linearGradient>
<linearGradient id="paint2_linear_530_12729" x1="28.0409" y1="46.6325" x2="29.1101" y2="9.54072" gradientUnits="userSpaceOnUse">
<stop stop-color="#E1473D"/>
<stop offset="1" stop-color="#E9605A"/>
</linearGradient>
<linearGradient id="paint3_linear_530_12729" x1="28.4035" y1="46.352" x2="28.4035" y2="21.4511" gradientUnits="userSpaceOnUse">
<stop stop-color="#53EAC9"/>
<stop offset="0.9964" stop-color="#45AED8"/>
</linearGradient>
<linearGradient id="paint4_linear_530_12729" x1="39.5424" y1="8.29528" x2="33.8341" y2="17.7591" gradientUnits="userSpaceOnUse">
<stop stop-color="#FE7062"/>
<stop offset="1" stop-color="#FF928E"/>
</linearGradient>
<linearGradient id="paint5_linear_530_12729" x1="28.9061" y1="58.4077" x2="28.0024" y2="28.8315" gradientUnits="userSpaceOnUse">
<stop stop-color="#E1473D"/>
<stop offset="1" stop-color="#E9605A"/>
</linearGradient>
<linearGradient id="paint6_linear_530_12729" x1="25.7031" y1="31.5357" x2="31.1217" y2="31.5357" gradientUnits="userSpaceOnUse">
<stop stop-color="#E1473D"/>
<stop offset="1" stop-color="#E9605A"/>
</linearGradient>
<linearGradient id="paint7_linear_530_12729" x1="24.1504" y1="46.4468" x2="32.6578" y2="46.4468" gradientUnits="userSpaceOnUse">
<stop stop-color="#E1473D"/>
<stop offset="1" stop-color="#E9605A"/>
</linearGradient>
<linearGradient id="paint8_linear_530_12729" x1="28.5955" y1="58.417" x2="27.6918" y2="28.8409" gradientUnits="userSpaceOnUse">
<stop stop-color="#E1473D"/>
<stop offset="1" stop-color="#E9605A"/>
</linearGradient>
<linearGradient id="paint9_linear_530_12729" x1="0.0029372" y1="39.4913" x2="11.3006" y2="39.4913" gradientUnits="userSpaceOnUse">
<stop stop-color="#53EAC9"/>
<stop offset="0.9964" stop-color="#45AED8"/>
</linearGradient>
<linearGradient id="paint10_linear_530_12729" x1="11.8242" y1="39.4547" x2="23.122" y2="39.4547" gradientUnits="userSpaceOnUse">
<stop stop-color="#53EAC9"/>
<stop offset="0.9964" stop-color="#45AED8"/>
</linearGradient>
</defs>
</svg>
