<svg width="43" height="53" viewBox="0 0 43 53" fill="none" xmlns="http://www.w3.org/2000/svg">
<path d="M5.03274 13.4765C4.88808 13.4596 0.670458 13.8748 0.395251 18.3952L1.11701 21.5252C4.52533 20.2599 8.28296 20.3106 11.6558 21.6677L11.7061 21.6878L11.4125 18.1118C11.4125 18.1118 10.3382 14.0984 5.03274 13.4765Z" fill="#263238"/>
<path d="M13.8867 35.2969C13.5471 35.3256 13.3773 35.341 13.0399 35.3697C12.7268 29.967 12.127 24.6613 11.2207 19.327C10.8943 17.5474 9.81375 16.0082 8.42008 15.0798C7.82027 14.6895 7.8776 14.7446 7.42775 14.544C6.77281 14.2661 6.07818 14.1117 5.37913 14.1007C5.37693 14.1007 5.37693 14.1007 5.37473 14.1007C5.37473 14.1029 5.37472 14.1029 5.37693 14.1051C5.37693 14.1051 5.37693 14.1073 5.37473 14.1073C5.066 14.0919 4.51912 14.1669 4.51912 14.1669C3.85536 14.2727 3.25113 14.5109 2.73071 14.8615C2.51681 15.0004 2.00741 15.4812 2.00741 15.4812C1.89054 15.6069 1.77808 15.7392 1.67664 15.8825C0.933492 16.9123 0.682101 18.2134 0.953339 19.5894C1.85526 24.4651 2.47271 29.3187 2.82995 34.2671C2.49035 34.2891 2.32276 34.3002 1.98316 34.3244C1.63033 29.4135 1.01729 24.5952 0.124196 19.7548C-0.195556 18.1406 0.104347 16.608 0.990829 15.3731C1.86408 14.1581 3.24011 13.3377 4.79036 13.2319C8.09812 13.007 11.5404 15.6995 12.0498 19.1484C12.9627 24.518 13.5692 29.8589 13.8867 35.2969Z" fill="#263238"/>
<path opacity="0.3" d="M13.8867 35.2969C13.5471 35.3256 13.3773 35.341 13.0399 35.3697C12.7268 29.967 12.127 24.6613 11.2207 19.327C10.8943 17.5474 9.81375 16.0082 8.42008 15.0798C7.82027 14.6895 7.8776 14.7446 7.42775 14.544C6.77281 14.2661 6.07818 14.1117 5.37913 14.1007C5.37913 14.1007 5.37913 14.1029 5.37693 14.1051C5.37693 14.1051 5.37693 14.1073 5.37473 14.1073C5.066 14.0919 4.51912 14.1669 4.51912 14.1669C3.85536 14.2727 3.25113 14.5109 2.73071 14.8615C2.51681 15.0004 2.00741 15.4812 2.00741 15.4812C1.89054 15.6069 1.77808 15.7392 1.67664 15.8825C0.933492 16.9123 0.682101 18.2134 0.953339 19.5894C1.85526 24.4651 2.47271 29.3187 2.82995 34.2671C2.49035 34.2891 2.32276 34.3002 1.98316 34.3244C1.63033 29.4135 1.01729 24.5952 0.124196 19.7548C-0.195556 18.1406 0.104347 16.608 0.990829 15.3731C1.86408 14.1581 3.24011 13.3377 4.79036 13.2319C8.09812 13.007 11.5404 15.6995 12.0498 19.1484C12.9627 24.518 13.5692 29.8589 13.8867 35.2969Z" fill="white"/>
<path d="M21.4453 34.788H1.96586V34.3348C1.96586 33.4417 2.68982 32.7178 3.58292 32.7178H19.8283C20.7214 32.7178 21.4453 33.4417 21.4453 34.3348V34.788Z" fill="#263238"/>
<path d="M2.62659 51.8035H1.59148L2.43826 34.7881H3.75586L2.62659 51.8035Z" fill="#263238"/>
<path opacity="0.3" d="M2.62659 51.8035H1.59148L2.43826 34.7881H3.75586L2.62659 51.8035Z" fill="white"/>
<path d="M9.54264 51.8035H8.50753L9.07206 34.7881H10.3896L9.54264 51.8035Z" fill="#263238"/>
<path opacity="0.3" d="M9.54264 51.8035H8.50753L9.07206 34.7881H10.3896L9.54264 51.8035Z" fill="white"/>
<path d="M14.9062 51.8035H13.8711L13.0241 34.7881H14.3417L14.9062 51.8035Z" fill="#263238"/>
<path opacity="0.3" d="M14.9062 51.8035H13.8711L13.0241 34.7881H14.3417L14.9062 51.8035Z" fill="white"/>
<path d="M21.8232 51.8035H20.7879L19.6589 34.7881H20.9762L21.8232 51.8035Z" fill="#263238"/>
<path opacity="0.3" d="M21.8232 51.8035H20.7879L19.6589 34.7881H20.9762L21.8232 51.8035Z" fill="white"/>
<path d="M22.2955 35.541H10.7207V34.0353H22.2955V35.541Z" fill="#263238"/>
<path opacity="0.7" d="M22.2955 35.541H10.7207V34.0353H22.2955V35.541Z" fill="white"/>
<path d="M10.7203 35.541H1.11719L1.11719 34.0353H10.7203V35.541Z" fill="#263238"/>
<path opacity="0.4" d="M10.7203 35.541H1.11719L1.11719 34.0353H10.7203V35.541Z" fill="white"/>
<path d="M14.1995 10.7787C16.3039 11.1937 20.4719 12.9863 20.4983 12.8862C20.4983 12.8862 24.0072 12.0562 25.4485 10.4656C25.4485 10.4656 26.8259 10.2953 27.5479 10.1533C27.0241 11.386 26.0053 12.88 24.8712 13.5925C23.4314 14.4971 23.0389 14.7705 21.6135 15.3132C19.8313 15.9915 17.103 15.2709 15.3384 14.5476C14.6868 14.2805 14.0211 13.9416 13.6385 13.3504C13.2556 12.7592 13.616 11.1732 14.1995 10.7787Z" fill="#FF8492"/>
<path opacity="0.7" d="M14.1995 10.7787C16.3039 11.1937 20.4719 12.9863 20.4983 12.8862C20.4983 12.8862 24.0072 12.0562 25.4485 10.4656C25.4485 10.4656 26.8259 10.2953 27.5479 10.1533C27.0241 11.386 26.0053 12.88 24.8712 13.5925C23.4314 14.4971 23.0389 14.7705 21.6135 15.3132C19.8313 15.9915 17.103 15.2709 15.3384 14.5476C14.6868 14.2805 14.0211 13.9416 13.6385 13.3504C13.2556 12.7592 13.616 11.1732 14.1995 10.7787Z" fill="white"/>
<path d="M19.7876 10.6743C21.5346 10.6743 23.2815 10.6743 25.0284 10.6743C25.7621 8.02085 24.2948 5.36736 25.0284 2.71387C23.2815 2.71387 21.5346 2.71387 19.7876 2.71387C19.0539 5.36736 20.5213 8.02085 19.7876 10.6743Z" fill="#FF8492"/>
<g opacity="0.7">
<path d="M19.7876 10.6743C21.5346 10.6743 23.2815 10.6743 25.0284 10.6743C25.7621 8.02085 24.2948 5.36736 25.0284 2.71387C23.2815 2.71387 21.5346 2.71387 19.7876 2.71387C19.0539 5.36736 20.5213 8.02085 19.7876 10.6743Z" fill="white"/>
</g>
<path d="M24.2087 9.26202L25.0518 9.66843C25.1446 9.89027 25.3142 10.2208 25.5577 10.3498C25.8229 10.4888 26.0695 10.605 26.3039 10.6647C26.6805 10.7607 27.0252 10.7104 27.3633 10.3712C27.4799 10.2539 27.5117 10.0771 27.4453 9.92666L26.6408 8.42295C26.5489 8.25094 26.3815 8.13187 26.1886 8.10143L24.865 7.8926C24.6996 7.86835 24.5333 7.93516 24.4328 8.0677L24.0447 8.57687C23.8705 8.80621 23.9507 9.13831 24.2087 9.26202Z" fill="#CE7A63"/>
<path d="M6.56482 23.2255L5.32441 27.7536L12.1419 29.2154L16.2588 27.036L15.1086 23.1377L6.56482 23.2255Z" fill="#FF8492"/>
<path opacity="0.1" d="M6.56482 23.2255L5.32441 27.7536L12.1419 29.2154L16.2588 27.036L15.1086 23.1377L6.56482 23.2255Z" fill="black"/>
<path d="M15.7719 13.3829C15.9254 14.8555 15.8709 15.6789 15.788 16.8755C15.7234 18.4363 15.3835 20.078 14.959 22.6054C14.1039 23.1049 9.78106 22.8987 7.01511 22.5408C7.18292 20.3268 6.90794 17.7955 5.40775 12.8135C5.05999 11.6591 5.83644 10.549 7.07376 10.4317C7.40542 10.3993 7.75715 10.3731 8.11704 10.357C9.37994 10.2729 10.647 10.2729 11.9102 10.357C12.3146 10.3933 12.7512 10.4419 13.1596 10.4943C14.6336 10.6866 15.5009 11.8199 15.7719 13.3829Z" fill="#FF8492"/>
<path d="M15.1093 23.1375C12.3206 23.4455 9.50614 23.44 6.71857 23.1214C6.60964 23.0969 6.54106 22.9888 6.56553 22.8799C6.56752 22.8713 6.56994 22.8629 6.57303 22.8545C6.64183 22.6929 6.71041 22.533 6.77524 22.3714C6.80435 22.2988 6.87735 22.2536 6.95519 22.2603C9.63625 22.5555 12.3416 22.5555 15.0224 22.2603C15.121 22.2477 15.2109 22.3176 15.2235 22.4162C15.2239 22.4201 15.2244 22.4241 15.2246 22.4281C15.2429 22.5959 15.259 22.7617 15.2751 22.9295C15.287 23.0327 15.2129 23.126 15.1097 23.1377L15.1093 23.1375Z" fill="#FF8492"/>
<path d="M12.0156 10.2925C14.0774 12.9394 14.2258 19.4804 13.7012 32.3277C13.6555 33.4471 14.7288 33.3655 15.7813 33.1489C17.3464 32.8268 17.9678 32.9434 17.9678 32.9434C17.9678 32.9434 15.4709 26.3823 15.8753 20.4989C16.2797 14.6153 15.9992 12.536 15.0448 11.4484C14.0906 10.3604 12.0156 10.2925 12.0156 10.2925Z" fill="#FF8492"/>
<path opacity="0.7" d="M12.0156 10.2925C14.0774 12.9394 14.2271 19.4804 13.7025 32.3277C13.6569 33.4471 14.6765 33.326 15.7827 33.1489C17.2224 32.9183 17.9678 32.9434 17.9678 32.9434C17.9678 32.9434 15.4709 26.3823 15.8753 20.4989C16.2797 14.6153 15.9992 12.536 15.0448 11.4484C14.0906 10.3604 12.0156 10.2925 12.0156 10.2925Z" fill="white"/>
<path d="M8.38416 6.08887C8.71384 7.30194 9.11805 9.54615 8.32551 10.3612C8.32551 10.3612 9.37275 11.2022 11.5934 12.0104C12.2562 11.8417 12.1166 10.3612 12.1166 10.3612C10.7296 10.0357 10.6892 9.02683 10.857 8.07838L8.38416 6.08887Z" fill="#CE7A63"/>
<path opacity="0.2" d="M9.39359 6.8999L10.8594 8.07659C10.8175 8.29865 10.795 8.5238 10.7928 8.74983C10.2671 8.67507 9.51091 8.10481 9.41388 7.55903C9.36779 7.34226 9.36095 7.1191 9.39359 6.8999Z" fill="black"/>
<path d="M10.6608 1.62234C12.0968 3.54394 12.7352 6.04329 12.3968 8.41805C13.0927 7.09847 13.7265 7.81735 13.7706 6.32621C13.7928 5.57711 13.4025 2.53529 13.0695 1.86381C12.7366 1.19234 12.0536 0.648317 11.3047 0.678969C11.0373 0.689775 10.7629 0.779525 10.5792 0.974462C10.3955 1.1694 10.5005 1.40778 10.6608 1.62234Z" fill="#263238"/>
<path d="M7.34141 3.63835C7.71144 5.60978 7.82677 6.45084 8.95891 7.3951C10.6512 8.81038 12.9763 8.06635 13.2048 6.05655C13.407 4.24698 12.7659 1.32733 10.7341 0.676356C9.40104 0.189232 7.92556 0.874824 7.43843 2.20785C7.27106 2.66609 7.23733 3.16204 7.34141 3.63835Z" fill="#CE7A63"/>
<path d="M10.7635 4.09068C10.8112 4.25143 10.9356 4.36412 11.0385 4.34118C11.1415 4.31825 11.1894 4.16852 11.1439 4.00754C11.0983 3.84656 10.9717 3.73211 10.8687 3.75483C10.7655 3.77776 10.7177 3.92771 10.7635 4.09068Z" fill="#263238"/>
<path d="M12.4398 3.68653C12.4875 3.84728 12.6098 3.96041 12.7148 3.93726C12.8198 3.9141 12.8656 3.76437 12.8182 3.60383C12.7706 3.44307 12.6482 3.32995 12.5432 3.3531C12.4383 3.37626 12.392 3.52378 12.4398 3.68653Z" fill="#263238"/>
<path d="M12.501 3.37141L12.8525 3.17383C12.8525 3.17383 12.7432 3.52247 12.501 3.37141Z" fill="#263238"/>
<path d="M11.9703 4.07275C12.221 4.41081 12.5139 4.71534 12.8418 4.9793C12.689 5.22386 12.3033 5.21173 12.3033 5.21173L11.9703 4.07275Z" fill="#BA4D3C"/>
<path d="M11.5577 6.01048C11.6503 6.00651 11.742 5.99328 11.8318 5.97123C11.8569 5.96571 11.8726 5.9408 11.8671 5.91566C11.8668 5.91478 11.8666 5.91389 11.8664 5.91301C11.8585 5.88655 11.8311 5.87067 11.804 5.87707C11.3896 5.96902 10.9561 5.86825 10.6249 5.60296C10.6035 5.58687 10.5731 5.59128 10.557 5.61267C10.5409 5.63406 10.5453 5.66471 10.5667 5.68081C10.5667 5.68081 10.5667 5.68081 10.5669 5.68103C10.8452 5.90926 11.198 6.02658 11.5577 6.01048Z" fill="#263238"/>
<path d="M12.1494 0.932202C11.5317 0.0832076 9.85382 -0.148336 8.86943 0.0862951C5.38481 0.916545 6.984 3.81305 4.96671 5.44069C5.55218 6.4919 6.11803 6.26896 6.80075 6.74351C7.20033 7.02115 8.25838 7.8869 8.7369 7.84809C8.71353 6.86171 8.28153 5.72825 8.48198 4.76503C8.68244 3.8018 9.07363 2.86548 9.71512 2.15343C10.3566 1.44094 11.2232 0.889421 12.1494 0.932202Z" fill="#263238"/>
<path opacity="0.2" d="M12.1494 0.932202C11.5317 0.0832076 9.85382 -0.148336 8.86943 0.0862951C5.38481 0.916545 6.984 3.81305 4.96671 5.44069C5.55218 6.4919 6.11803 6.26896 6.80075 6.74351C7.20033 7.02115 8.25838 7.8869 8.7369 7.84809C8.71353 6.86171 8.28153 5.72825 8.48198 4.76503C8.68244 3.8018 9.07363 2.86548 9.71512 2.15343C10.3566 1.44094 11.2232 0.889421 12.1494 0.932202Z" fill="black"/>
<path d="M12.1494 0.932202C11.5317 0.0832076 9.85382 -0.148336 8.86943 0.0862951C5.38481 0.916545 6.984 3.81305 4.96671 5.44069C5.55218 6.4919 6.11803 6.26896 6.80075 6.74351C7.20033 7.02115 8.25838 7.8869 8.7369 7.84809C8.71353 6.86171 8.28153 5.72825 8.48198 4.76503C8.68244 3.8018 9.07363 2.86548 9.71512 2.15343C10.3566 1.44094 11.2232 0.889421 12.1494 0.932202Z" fill="#263238"/>
<path opacity="0.1" d="M12.1494 0.932202C11.5317 0.0832076 9.85382 -0.148336 8.86943 0.0862951C5.38481 0.916545 6.984 3.81305 4.96671 5.44069C5.55218 6.4919 6.11803 6.26896 6.80075 6.74351C7.20033 7.02115 8.25838 7.8869 8.7369 7.84809C8.71353 6.86171 8.28153 5.72825 8.48198 4.76503C8.68244 3.8018 9.07363 2.86548 9.71512 2.15343C10.3566 1.44094 11.2232 0.889421 12.1494 0.932202Z" fill="black"/>
<path d="M7.45872 5.63422C7.6638 5.9639 7.99855 6.19169 8.38071 6.26093C8.84975 6.32555 8.98735 5.77977 8.76882 5.27632C8.56661 4.82338 8.09558 4.24518 7.6649 4.41299C7.23423 4.58081 7.18175 5.20355 7.45872 5.63422Z" fill="#CE7A63"/>
<path d="M10.012 3.44665C10.036 3.4385 10.055 3.41997 10.064 3.39638C10.1454 3.16792 10.3368 2.99614 10.5725 2.93946C10.6212 2.93285 10.6552 2.88786 10.6486 2.83935C10.6481 2.83582 10.6475 2.83229 10.6466 2.82876C10.6336 2.77518 10.5813 2.74078 10.5271 2.75004C10.227 2.81642 9.98197 3.03208 9.87788 3.32118C9.86112 3.37212 9.88802 3.42725 9.93852 3.44533C9.96146 3.4557 9.98814 3.45636 10.012 3.44665Z" fill="#263238"/>
<path d="M12.8108 2.73203C12.8611 2.73004 12.9001 2.68792 12.8984 2.63764C12.8973 2.60875 12.8825 2.58229 12.8587 2.56597C12.6214 2.35009 12.2968 2.25769 11.9812 2.31591C11.9327 2.3287 11.9036 2.37853 11.9166 2.42705C11.9173 2.42903 11.9177 2.43102 11.9184 2.433C11.9352 2.48527 11.9894 2.5157 12.0428 2.50291C12.2931 2.46057 12.5489 2.53621 12.7359 2.70777C12.757 2.72519 12.7837 2.73379 12.8108 2.73203Z" fill="#263238"/>
<path d="M10.8253 3.775L11.1768 3.57764C11.1768 3.57764 11.0672 3.92429 10.8253 3.775Z" fill="#263238"/>
<path d="M11.8498 0.847349C11.9918 1.01627 12.1285 1.19532 12.203 1.40305C12.2776 1.61078 12.2824 1.85357 12.1682 2.04256C12.0678 2.20838 11.8912 2.31225 11.7137 2.38965C11.5331 2.46837 11.3437 2.52703 11.1503 2.5643C11.3642 2.37686 11.4416 2.12768 11.3728 1.85159C11.3617 2.08071 11.1553 2.34092 10.9582 2.45801C10.761 2.57511 10.5368 2.63839 10.3321 2.7416C9.68581 3.06752 8.48266 4.76441 9.37333 8.296C8.5852 8.0036 7.48019 5.23279 7.66498 4.41268C7.84955 3.59258 7.8758 1.48398 9.98197 0.747012C10.5456 0.55009 11.2753 0.684165 11.8498 0.847349Z" fill="#263238"/>
<path d="M22.0344 49.9219L23.9293 50.1051L25.0518 44.7686L22.8175 44.5112L22.0344 49.9219Z" fill="#CE7A63"/>
<path d="M24.7126 49.6643C24.5389 49.4839 24.299 49.3825 24.0489 49.365L22.0164 49.2233C21.9216 49.2129 21.8351 49.2775 21.8179 49.371L21.4265 51.2564C21.3793 51.4719 21.5156 51.6849 21.731 51.7323C21.7357 51.7332 21.7401 51.7343 21.7447 51.735C22.5117 51.9334 22.9942 51.7731 24.166 51.8538C24.8877 51.9045 26.4263 52.1914 27.4107 52.0293C28.3951 51.8673 28.272 50.8886 27.8471 50.8677C26.3418 50.8174 25.103 50.0692 24.7126 49.6643Z" fill="#263238"/>
<g opacity="0.2">
<path d="M25.0527 44.7711L24.3996 47.8747L22.3909 47.4557L22.8162 44.5122L25.0527 44.7711Z" fill="black"/>
</g>
<path d="M13.1781 33.7058C13.2546 33.7058 13.3311 33.7058 13.4099 33.699C13.5373 33.6968 13.6672 33.6873 13.7969 33.6712L23.9387 33.1292C22.302 34.6291 22.0312 46.6626 22.0312 46.6626L22.5181 46.7669L24.7158 47.2375H24.718L25.1213 47.3232C25.1213 47.3232 26.0418 43.3821 27.108 38.8615C27.6458 36.5734 28.3435 34.2064 28.6426 31.9346C28.7259 31.3203 28.7771 30.7105 28.7888 30.1125C28.7934 29.927 28.7934 29.7416 28.7864 29.5561C28.7888 29.5376 28.7864 29.5166 28.7864 29.4981C28.7839 29.4194 28.7771 29.3429 28.7678 29.2686C28.7169 28.8906 28.5614 28.5591 28.325 28.2716C28.2994 28.2414 28.2763 28.2136 28.2507 28.1858C28.2251 28.158 28.1998 28.1302 28.172 28.1047C28.1186 28.0491 28.063 27.9979 28.0028 27.947C27.9424 27.8961 27.88 27.8473 27.815 27.7986C27.7592 27.7591 27.7036 27.7199 27.6434 27.6804C27.5739 27.6363 27.5021 27.5946 27.4277 27.5529C27.3907 27.532 27.3536 27.5113 27.3142 27.4927C27.1982 27.4325 27.08 27.3745 26.9549 27.3212C26.9179 27.3073 26.8831 27.291 26.846 27.2749C26.7973 27.2563 26.7488 27.2378 26.6976 27.2193C26.6535 27.2008 26.6094 27.1844 26.5655 27.1706C26.431 27.1218 26.2918 27.0755 26.1483 27.036C26.1251 27.0292 26.102 27.0221 26.0764 27.0151C26.0693 27.0129 26.0625 27.0105 26.0555 27.0105C22.2094 25.9209 15.6627 26.7624 15.6627 26.7624C15.6627 26.7624 13.9356 25.4827 12.0973 25.2393C12.0115 25.2507 11.9258 25.2602 11.8376 25.2695C11.5756 25.2973 11.3021 25.3275 11.0192 25.3599C11.0078 25.3623 10.9961 25.3623 10.9844 25.3645C8.29825 30.0918 9.96735 33.6712 13.1781 33.7058Z" fill="#FF8492"/>
<g opacity="0.1">
<path d="M13.1781 33.7058C13.2546 33.7058 13.3311 33.7058 13.4099 33.699C13.5373 33.6968 13.6672 33.6873 13.7969 33.6712L23.9387 33.1292C22.302 34.6291 22.0312 46.6626 22.0312 46.6626L22.5181 46.7669L24.7158 47.2375H24.718L25.1213 47.3232C25.1213 47.3232 26.0418 43.3821 27.108 38.8615C27.6458 36.5734 28.3435 34.2064 28.6426 31.9346C28.7259 31.3203 28.7771 30.7105 28.7888 30.1125C28.7934 29.927 28.7934 29.7416 28.7864 29.5561C28.7888 29.5376 28.7864 29.5166 28.7864 29.4981C28.7839 29.4194 28.7771 29.3429 28.7678 29.2686C28.7169 28.8906 28.5614 28.5591 28.325 28.2716C28.2994 28.2414 28.2763 28.2136 28.2507 28.1858C28.2251 28.158 28.1998 28.1302 28.172 28.1047C28.1186 28.0491 28.063 27.9979 28.0028 27.947C27.9424 27.8961 27.88 27.8473 27.815 27.7986C27.7592 27.7591 27.7036 27.7199 27.6434 27.6804C27.5739 27.6363 27.5021 27.5946 27.4277 27.5529C27.3907 27.532 27.3536 27.5113 27.3142 27.4927C27.1982 27.4325 27.08 27.3745 26.9549 27.3212C26.9179 27.3073 26.8831 27.291 26.846 27.2749C26.7973 27.2563 26.7488 27.2378 26.6976 27.2193C26.6535 27.2008 26.6094 27.1844 26.5655 27.1706C26.431 27.1218 26.2918 27.0755 26.1483 27.036C26.1251 27.0292 26.102 27.0221 26.0764 27.0151C26.0693 27.0129 26.0625 27.0105 26.0555 27.0105C22.2094 25.9209 15.6627 26.7624 15.6627 26.7624C15.6627 26.7624 13.9356 25.4827 12.0973 25.2393C12.0115 25.2507 11.9258 25.2602 11.8376 25.2695C11.5756 25.2973 11.3021 25.3275 11.0192 25.3599C11.0078 25.3623 10.9961 25.3623 10.9844 25.3645C8.29825 30.0918 9.96735 33.6712 13.1781 33.7058Z" fill="black"/>
</g>
<path d="M34.5759 40.8624L35.1184 41.6924L36.3262 43.547L38.3477 43.7578L36.8153 40.5378L35.7744 38.3472L34.5759 40.8624Z" fill="#CE7A63"/>
<path d="M37.8356 42.3711L36.1612 43.4155C36.0792 43.4596 36.045 43.5597 36.0829 43.6448L36.9041 45.56C37.002 45.7526 37.2373 45.8291 37.4298 45.7314C37.4336 45.7294 37.4373 45.7276 37.4408 45.7257C38.2199 45.2511 38.571 44.9836 39.5622 44.4032C40.1726 44.0457 41.1788 43.462 42.0203 42.9694C42.8618 42.4768 42.4074 41.6251 42.01 41.755C40.233 42.3427 39.0469 42.4238 38.2488 42.294C38.1066 42.2701 37.9602 42.2975 37.8356 42.3711Z" fill="#263238"/>
<g opacity="0.2">
<path d="M34.5761 40.8624L35.1163 41.6924H35.1185L36.8154 40.5378L35.7746 38.3472L34.5761 40.8624Z" fill="black"/>
</g>
<path d="M12.5262 33.891C12.728 33.8654 12.9459 33.8237 13.1776 33.7635C13.2542 33.745 13.3307 33.7241 13.4094 33.6987C15.271 33.1633 17.951 31.6957 20.4452 30.2513C22.7426 28.9229 24.8755 27.6131 26.0554 27.0684C26.0625 27.0684 26.0693 27.0706 26.0764 27.073C26.102 27.0799 26.1251 27.0869 26.1483 27.094C26.2921 27.1334 26.431 27.1797 26.5655 27.2285C26.6096 27.2424 26.6535 27.2587 26.6976 27.2772C26.7485 27.2957 26.7973 27.3143 26.846 27.3328C26.883 27.3491 26.9179 27.3652 26.9549 27.3791C27.08 27.4325 27.1984 27.4905 27.3142 27.5507C27.3536 27.5692 27.3907 27.5901 27.4277 27.6109C27.502 27.6525 27.5737 27.6944 27.6434 27.7383C27.7036 27.7778 27.7594 27.8171 27.815 27.8565C27.8798 27.9053 27.9424 27.9538 28.0028 28.0049C28.063 28.0559 28.1188 28.1068 28.172 28.1626C28.1998 28.1882 28.2253 28.216 28.2507 28.2438C28.2763 28.2715 28.2994 28.2993 28.325 28.3295C28.5614 28.6169 28.7169 28.9485 28.7678 29.3265C28.7771 29.4006 28.7841 29.4771 28.7863 29.5561C28.7934 29.7415 28.7934 29.927 28.7888 30.1124C28.7795 30.7129 28.7308 31.3273 28.6496 31.9462C28.6474 31.9626 28.645 31.9765 28.6426 31.9926C31.4129 36.9862 34.2922 41.5158 34.2922 41.5158L34.7813 41.1798L36.5455 39.9696L36.8516 39.7585C36.8516 39.7585 33.7775 32.5558 31.661 26.1387C30.8636 23.7207 28.6009 22.084 26.0532 22.1072C20.8325 22.1535 13.9797 25.0398 13.9797 25.0398C13.9797 25.0398 13.1776 25.1232 12.0973 25.2392C12.0115 25.2507 11.9258 25.2601 11.8376 25.2694C11.5756 25.2972 11.3021 25.3274 11.0192 25.3598C11.0077 25.3622 10.9961 25.3622 10.9844 25.3645C10.5378 25.4134 10.0492 25.45 9.57019 25.4842C8.48657 25.5618 7.57252 26.3182 7.28628 27.3663C5.89945 32.4475 9.23567 34.2952 12.5262 33.891Z" fill="#FF8492"/>
<path d="M12.5262 33.891C12.728 33.8654 12.9459 33.8237 13.1776 33.7635C13.2542 33.745 13.3307 33.7241 13.4094 33.6987C15.271 33.1633 17.951 31.6957 20.4452 30.2513C22.7426 28.9229 24.8755 27.6131 26.0554 27.0684C26.0625 27.0684 26.0693 27.0706 26.0764 27.073C26.102 27.0799 26.1251 27.0869 26.1483 27.094C26.2921 27.1334 26.431 27.1797 26.5655 27.2285C26.6096 27.2424 26.6535 27.2587 26.6976 27.2772C26.7485 27.2957 26.7973 27.3143 26.846 27.3328C26.883 27.3491 26.9179 27.3652 26.9549 27.3791C27.08 27.4325 27.1984 27.4905 27.3142 27.5507C27.3536 27.5692 27.3907 27.5901 27.4277 27.6109C27.502 27.6525 27.5737 27.6944 27.6434 27.7383C27.7036 27.7778 27.7594 27.8171 27.815 27.8565C27.8798 27.9053 27.9424 27.9538 28.0028 28.0049C28.063 28.0559 28.1188 28.1068 28.172 28.1626C28.1998 28.1882 28.2253 28.216 28.2507 28.2438C28.2763 28.2715 28.2994 28.2993 28.325 28.3295C28.5614 28.6169 28.7169 28.9485 28.7678 29.3265C28.7771 29.4006 28.7841 29.4771 28.7863 29.5561C28.7934 29.7415 28.7934 29.927 28.7888 30.1124C28.7795 30.7129 28.7308 31.3273 28.6496 31.9462C28.6474 31.9626 28.645 31.9765 28.6426 31.9926C31.4129 36.9862 34.2922 41.5158 34.2922 41.5158L34.7813 41.1798L36.5455 39.9696L36.8516 39.7585C36.8516 39.7585 33.7775 32.5558 31.661 26.1387C30.8636 23.7207 28.6009 22.084 26.0532 22.1072C20.8325 22.1535 13.9797 25.0398 13.9797 25.0398C13.9797 25.0398 13.1776 25.1232 12.0973 25.2392C12.0115 25.2507 11.9258 25.2601 11.8376 25.2694C11.5756 25.2972 11.3021 25.3274 11.0192 25.3598C11.0077 25.3622 10.9961 25.3622 10.9844 25.3645C10.5378 25.4134 10.0492 25.45 9.57019 25.4842C8.48657 25.5618 7.57252 26.3182 7.28628 27.3663C5.89945 32.4475 9.23567 34.2952 12.5262 33.891Z" fill="#FF8492"/>
<path d="M26.0775 27.0132V27.0154C26.1031 27.0224 26.1263 27.0293 26.1494 27.0363C26.1263 27.0271 26.1031 27.02 26.0775 27.0132Z" fill="#FF8492"/>
<path d="M8.23876 10.1709C8.23876 10.1709 9.67433 11.4468 10.103 14.5219C10.7857 19.4825 10.4298 29.0439 10.1729 34.5048C10.1352 35.308 9.32657 35.8374 8.57328 35.5565C6.86846 34.9203 4.08221 35.4178 2.83187 34.3408C2.74279 32.695 5.60445 24.2896 5.32549 19.9385C5.04654 15.5875 4.50671 11.7966 5.06859 10.9776C5.63069 10.1586 8.23876 10.1709 8.23876 10.1709Z" fill="#FF8492"/>
<path opacity="0.7" d="M8.23887 10.1709C8.23887 10.1709 9.67445 11.4468 10.1031 14.5219C10.7859 19.4825 10.3914 29.0439 10.1347 34.5048C10.097 35.308 9.28832 35.8374 8.53503 35.5565C6.82998 34.9203 4.08233 35.4178 2.83199 34.3408C2.7429 32.695 5.60457 24.2896 5.32561 19.9385C5.04666 15.5875 4.50683 11.7966 5.06871 10.9776C5.63081 10.1586 8.23887 10.1709 8.23887 10.1709Z" fill="white"/>
<path d="M8.30235 16.6992C8.34314 16.6968 8.37402 16.6617 8.37159 16.6211C8.37005 16.5951 8.35483 16.572 8.3319 16.5601L8.02515 16.4094C7.43902 16.1276 7.08862 15.5122 7.14573 14.8641L7.39425 11.882C7.43902 11.3355 7.91843 10.9289 8.46487 10.9739C8.83711 11.0046 9.16082 11.2414 9.30218 11.5872L10.4396 14.3531C10.6901 14.9531 10.5435 15.6456 10.0709 16.0926L9.8226 16.3301C9.79525 16.3594 9.79657 16.4055 9.82546 16.4333C9.85501 16.4606 9.90088 16.4593 9.92867 16.4306L10.177 16.1951C10.6914 15.7047 10.8495 14.9476 10.5743 14.2925L9.42787 11.5325C9.18641 10.9507 8.51912 10.6751 7.93761 10.9166C7.54465 11.0797 7.27518 11.448 7.23879 11.8718L6.99026 14.8521C6.92962 15.5622 7.31531 16.2357 7.95856 16.5429L8.2653 16.6915C8.27633 16.6979 8.28934 16.7007 8.30235 16.6992Z" fill="#263238"/>
<path d="M7.27474 12.5352C7.31113 12.5346 7.34134 12.5068 7.34487 12.4706C7.41984 11.9762 7.82096 11.596 8.31867 11.5473C8.72685 11.4847 9.28719 11.5989 9.5249 12.1314C9.53902 12.1698 9.58136 12.1894 9.61951 12.1753C9.65788 12.1612 9.67751 12.1189 9.66339 12.0807C9.66229 12.0779 9.66118 12.0752 9.65986 12.0723C9.30637 11.4317 8.5006 11.1989 7.86 11.5521C7.51797 11.7409 7.27651 12.0708 7.20043 12.4541C7.19602 12.4933 7.22424 12.5288 7.26349 12.5337L7.27474 12.5352Z" fill="#263238"/>
<path d="M8.22663 10.9831C8.26633 10.98 8.29587 10.9456 8.29301 10.9059C8.29301 10.9053 8.29279 10.9044 8.29279 10.9037C8.26103 10.5447 8.29499 9.88848 8.62996 9.70964C8.66568 9.68979 8.67847 9.64481 8.65862 9.6093C8.63878 9.57358 8.59379 9.56079 8.55829 9.58063C8.07448 9.84658 8.1446 10.8083 8.15496 10.9168C8.15761 10.9542 8.18915 10.9831 8.22663 10.9831Z" fill="#263238"/>
<path d="M9.70996 16.4073C9.73224 16.5452 9.82155 16.6444 9.91152 16.629C10.0015 16.6135 10.0573 16.494 10.0352 16.3579C10.0132 16.2219 9.92563 16.1209 9.83544 16.1363C9.74569 16.1515 9.68968 16.2713 9.70996 16.4073Z" fill="#263238"/>
<path d="M8.13671 16.6519C8.157 16.788 8.2483 16.887 8.33827 16.8736C8.42824 16.8601 8.48403 16.7368 8.46198 16.6008C8.43993 16.4647 8.3504 16.3657 8.26043 16.3792C8.17045 16.3926 8.11466 16.5141 8.13671 16.6519Z" fill="#263238"/>
<path d="M12.1134 13.793C12.1886 14.0995 12.4148 14.3094 12.608 14.2596C12.8011 14.2098 12.9123 13.929 12.8382 13.6152C12.7641 13.3015 12.5368 13.0988 12.3436 13.1486C12.1506 13.1985 12.0401 13.4867 12.1134 13.793Z" fill="#263238"/>
<path d="M12.741 13.6873L12.7555 13.6893C12.7959 13.6864 12.8265 13.6516 12.8241 13.6112C12.7482 12.377 12.0126 10.3332 11.2088 9.66371C11.1819 9.63306 11.1351 9.63019 11.1045 9.65709C11.0738 9.684 11.071 9.73075 11.0979 9.76118C11.1027 9.76669 11.1087 9.77154 11.1151 9.77551C11.8913 10.428 12.6049 12.4021 12.6779 13.6172C12.6794 13.6527 12.7059 13.682 12.741 13.6873Z" fill="#263238"/>
<path d="M11.897 13.8242C11.9466 14.0862 12.1409 14.2712 12.3321 14.2361C12.5233 14.2009 12.6404 13.9583 12.593 13.6945C12.5453 13.431 12.3491 13.2476 12.1579 13.2826C11.9667 13.3177 11.8476 13.5602 11.897 13.8242Z" fill="white"/>
<path d="M11.881 13.8484C11.95 14.1727 12.1275 14.4113 12.2752 14.3796C12.423 14.3478 12.4872 14.0585 12.4166 13.7321C12.346 13.4058 12.1701 13.1692 12.0223 13.2011C11.8743 13.2327 11.8104 13.522 11.881 13.8484Z" fill="#263238"/>
<path d="M14.8583 20.8997L19.4574 20.9855C19.6327 20.9888 19.7926 20.8497 19.8142 20.6746L20.687 13.6348C20.7086 13.4597 20.5842 13.3152 20.4087 13.3119L15.8096 13.2261C15.6343 13.2228 15.4746 13.3622 15.4528 13.5371L14.58 20.5769C14.5584 20.752 14.683 20.8964 14.8583 20.8997Z" fill="#263238"/>
<path d="M17.4893 13.8167L18.5906 13.8372C18.8098 13.8414 19.0096 13.6672 19.0367 13.4485L19.1172 12.7999L17.2221 12.7646L17.1416 13.4132C17.1144 13.6319 17.2701 13.8128 17.4893 13.8167Z" fill="#263238"/>
<path opacity="0.7" d="M17.4893 13.8167L18.5906 13.8372C18.8098 13.8414 19.0096 13.6672 19.0367 13.4485L19.1172 12.7999L17.2221 12.7646L17.1416 13.4132C17.1144 13.6319 17.2701 13.8128 17.4893 13.8167Z" fill="white"/>
<path d="M15.5979 13.2452L15.8145 13.2491C15.6391 13.2458 15.4795 13.3852 15.4577 13.5601L14.5848 20.5999C14.5632 20.775 14.6876 20.9194 14.8631 20.9227L14.6466 20.9188C14.4713 20.9154 14.3467 20.771 14.3683 20.5959L15.2411 13.5561C15.2627 13.381 15.4226 13.2419 15.5979 13.2452Z" fill="white"/>
<path opacity="0.2" d="M6.65623 12.0107C6.58676 12.1618 8.07812 18.103 8.07812 18.103L6.94246 18.6029L6.65623 12.0107Z" fill="black"/>
<path d="M4.20881 15.8458C4.46858 18.1782 4.70696 19.0894 4.87279 19.3426C5.7295 22.5026 8.45135 20.9131 8.84233 20.7828C9.52218 20.5587 10.2225 20.0996 10.8726 19.7995C12.134 19.2283 13.3244 18.775 14.5039 18.0503L13.9003 16.746C13.9003 16.746 9.37268 17.7299 8.77838 17.853C8.51993 17.9107 7.2299 18.1216 7.26497 17.4331C7.13177 17.1991 7.01489 13.2042 6.64376 11.6119C6.60209 11.4326 6.52204 11.2657 6.41222 11.1179L6.37495 11.0679C6.12731 10.7342 5.96501 10.7355 5.51207 10.7532C4.52723 10.7918 4.06282 11.5539 3.95763 12.5339C3.86039 13.4408 4.10803 14.939 4.20881 15.8458Z" fill="#FF8492"/>
<g opacity="0.7">
<path d="M4.20881 15.8458C4.46858 18.1782 4.70696 19.0894 4.87279 19.3426C5.7295 22.5026 8.45135 20.9131 8.84233 20.7828C9.52218 20.5587 10.2225 20.0996 10.8726 19.7995C12.134 19.2283 13.3244 18.775 14.5039 18.0503L13.9003 16.746C13.9003 16.746 9.37268 17.7299 8.77838 17.853C8.51993 17.9107 7.2299 18.1216 7.26497 17.4331C7.13177 17.1991 7.01489 13.2042 6.64376 11.6119C6.60209 11.4326 6.52204 11.2657 6.41222 11.1179L6.37495 11.0679C6.12731 10.7342 5.96501 10.7355 5.51207 10.7532C4.52723 10.7918 4.06282 11.5539 3.95763 12.5339C3.86039 13.4408 4.10803 14.939 4.20881 15.8458Z" fill="white"/>
</g>
<path d="M13.8437 16.9005C13.6931 17.572 14.1436 18.2276 14.8235 18.3348C15.3763 18.4219 15.9139 18.3769 15.9139 18.3769L15.9971 16.1382L14.2845 16.472C14.066 16.5157 13.8935 16.6833 13.8437 16.9005Z" fill="#CE7A63"/>
<path d="M15.9971 16.1382L15.9073 18.3817L16.7382 18.432C17.2423 18.4624 17.695 18.1257 17.8108 17.6342L17.8227 17.583C17.9583 17.0066 17.585 16.4337 17.0028 16.3252L15.9971 16.1382Z" fill="#CE7A63"/>
</svg>
