<svg width="43" height="63" viewBox="0 0 43 63" fill="none" xmlns="http://www.w3.org/2000/svg">
<path d="M41.778 63.0002H1.22233C0.547419 63.0002 0 62.5063 0 61.8966V1.40445C0 0.795055 0.547066 0.300781 1.22233 0.300781H41.7777C42.4526 0.300781 43 0.794736 43 1.40445V61.8966C43 62.5063 42.4529 63.0002 41.778 63.0002Z" fill="#8CC4F6"/>
<path d="M33.0963 2.25963H9.90332V0.205683C9.90332 0.0921595 10.0054 0 10.1311 0H32.8688C32.9945 0 33.0966 0.0921595 33.0966 0.205683L33.0963 2.25963Z" fill="#263238"/>
<path opacity="0.9" d="M41.2995 2.25928H1.7002V61.0326H41.2995V2.25928Z" fill="white"/>
<path d="M29.2643 4.96555H22.2976L22.2182 4.74551C22.1164 4.4633 21.8286 4.27388 21.5016 4.27388C21.1745 4.27388 20.8867 4.4633 20.785 4.74551L20.7055 4.96587H13.7385C13.1755 4.96587 12.7178 4.55386 12.7178 4.04747V1.73236C12.7178 1.22597 13.1755 0.813965 13.7385 0.813965H29.264C29.8248 0.813965 30.2811 1.22597 30.2811 1.73236V4.04747C30.2815 4.55355 29.8252 4.96555 29.2643 4.96555ZM22.7857 4.32777H29.2643C29.4356 4.32777 29.5751 4.20181 29.5751 4.04715V1.73204C29.5751 1.57738 29.4356 1.45142 29.2643 1.45142H13.7388C13.5626 1.45142 13.4245 1.57483 13.4245 1.73204V4.04715C13.4245 4.20436 13.5626 4.32777 13.7388 4.32777H20.2174C20.4689 3.90621 20.9573 3.63579 21.5016 3.63579C22.0458 3.63579 22.5339 3.90621 22.7857 4.32777Z" fill="#263238"/>
<g opacity="0.5">
<path d="M29.2643 4.96555H22.2976L22.2182 4.74551C22.1164 4.4633 21.8286 4.27388 21.5016 4.27388C21.1745 4.27388 20.8867 4.4633 20.785 4.74551L20.7055 4.96587H13.7385C13.1755 4.96587 12.7178 4.55386 12.7178 4.04747V1.73236C12.7178 1.22597 13.1755 0.813965 13.7385 0.813965H29.264C29.8248 0.813965 30.2811 1.22597 30.2811 1.73236V4.04747C30.2815 4.55355 29.8252 4.96555 29.2643 4.96555ZM22.7857 4.32777H29.2643C29.4356 4.32777 29.5751 4.20181 29.5751 4.04715V1.73204C29.5751 1.57738 29.4356 1.45142 29.2643 1.45142H13.7388C13.5626 1.45142 13.4245 1.57483 13.4245 1.73204V4.04715C13.4245 4.20436 13.5626 4.32777 13.7388 4.32777H20.2174C20.4689 3.90621 20.9573 3.63579 21.5016 3.63579C22.0458 3.63579 22.5339 3.90621 22.7857 4.32777Z" fill="white"/>
</g>
<path d="M28.1717 1.82969H14.8288C14.636 1.82969 14.4795 1.68842 14.4795 1.51431V0.757273C14.4795 0.583161 14.636 0.441895 14.8288 0.441895H28.1717C28.3645 0.441895 28.521 0.583161 28.521 0.757273V1.51431C28.521 1.68842 28.3645 1.82969 28.1717 1.82969Z" fill="#263238"/>
<path opacity="0.2" d="M28.1717 1.82969H14.8288C14.636 1.82969 14.4795 1.68842 14.4795 1.51431V0.757273C14.4795 0.583161 14.636 0.441895 14.8288 0.441895H28.1717C28.3645 0.441895 28.521 0.583161 28.521 0.757273V1.51431C28.521 1.68842 28.3645 1.82969 28.1717 1.82969Z" fill="white"/>
<path d="M38.2054 51.5136C39.1591 47.8667 36.6579 44.2121 32.6188 43.3509C28.5797 42.4898 24.5322 44.7482 23.5785 48.3951C22.6247 52.0421 25.1259 55.6966 29.165 56.5578C33.2041 57.4189 37.2516 55.1606 38.2054 51.5136Z" fill="#8CC4F6"/>
<path opacity="0.3" d="M30.8908 49.944H38.4057C38.4057 53.6663 35.0134 56.7292 30.8908 56.7292C26.7682 56.7292 23.376 53.6663 23.376 49.944C23.376 46.2216 26.7682 43.1587 30.8908 43.1587C30.9 43.1587 30.9088 43.1587 30.918 43.1587L30.8908 49.944Z" fill="white"/>
<path opacity="0.3" d="M30.8908 49.944L34.946 55.6565C33.7356 56.3568 32.3282 56.7292 30.8908 56.7292C26.7682 56.7292 23.376 53.6663 23.376 49.944C23.376 46.2216 26.7682 43.1587 30.8908 43.1587C30.8996 43.1587 30.9081 43.1587 30.9169 43.1587L30.8908 49.944Z" fill="white"/>
<path opacity="0.3" d="M30.8912 49.944L24.5552 53.593C23.7853 52.503 23.376 51.2367 23.376 49.944C23.376 46.2216 26.7682 43.1587 30.8908 43.1587C30.8996 43.1587 30.9081 43.1587 30.9169 43.1587L30.8912 49.944Z" fill="white"/>
<g opacity="0.5">
<path d="M4.55566 12.7837V28.7994H38.4455V12.7837H4.55566ZM38.1807 15.285H32.3144V13.0229H38.1807V15.285ZM19.4441 15.285H13.4062V13.0229H19.4441V15.285ZM19.709 13.0229H25.7468V15.285H19.709V13.0229ZM19.4441 15.5242V28.5603H13.4062V15.5242H19.4441ZM19.709 15.5242H25.7468V28.5603H19.709V15.5242ZM26.0117 15.5242H32.0496V28.5603H26.0117V15.5242ZM26.0117 15.285V13.0229H32.0496V15.285H26.0117ZM13.1413 13.0229V15.285H4.82054V13.0229H13.1413ZM4.82054 15.5242H13.1413V28.5603H4.82054V15.5242ZM32.3144 28.5603V15.5242H38.1807V28.5603H32.3144Z" fill="black"/>
<path d="M15.3297 17.7623H17.7748C17.9697 17.7623 18.1279 17.6194 18.1279 17.4434C18.1279 17.2674 17.9697 17.1245 17.7748 17.1245H15.3297C15.1348 17.1245 14.9766 17.2674 14.9766 17.4434C14.9766 17.6197 15.1344 17.7623 15.3297 17.7623Z" fill="black"/>
<path d="M21.5006 20.6558H24.1544C24.3493 20.6558 24.5076 20.5133 24.5076 20.337C24.5076 20.1606 24.3493 20.0181 24.1544 20.0181H21.5006C21.3057 20.0181 21.1475 20.1606 21.1475 20.337C21.1475 20.513 21.3057 20.6558 21.5006 20.6558Z" fill="black"/>
<path d="M24.2716 25.8042H21.5006C21.3057 25.8042 21.1475 25.9467 21.1475 26.1231C21.1475 26.2994 21.3057 26.442 21.5006 26.442H24.2716C24.4666 26.442 24.6248 26.2994 24.6248 26.1231C24.6248 25.9467 24.4666 25.8042 24.2716 25.8042Z" fill="black"/>
<path d="M30.4151 22.9106H27.487C27.292 22.9106 27.1338 23.0532 27.1338 23.2295C27.1338 23.4059 27.292 23.5484 27.487 23.5484H30.4151C30.6101 23.5484 30.7683 23.4059 30.7683 23.2295C30.7683 23.0532 30.6101 22.9106 30.4151 22.9106Z" fill="black"/>
<path d="M36.7317 17.1245H33.7682C33.5733 17.1245 33.415 17.2674 33.415 17.4434C33.415 17.6194 33.5733 17.7623 33.7682 17.7623H36.7317C36.9266 17.7623 37.0849 17.6194 37.0849 17.4434C37.0849 17.2674 36.9266 17.1245 36.7317 17.1245Z" fill="black"/>
<path d="M36.3531 25.8042H33.7682C33.5733 25.8042 33.415 25.9467 33.415 26.1231C33.415 26.2994 33.5733 26.442 33.7682 26.442H36.3531C36.548 26.442 36.7063 26.2994 36.7063 26.1231C36.7063 25.9467 36.5484 25.8042 36.3531 25.8042Z" fill="black"/>
<path d="M15.3297 23.5484H17.4255C17.6204 23.5484 17.7786 23.4059 17.7786 23.2295C17.7786 23.0532 17.6204 22.9106 17.4255 22.9106H15.3297C15.1348 22.9106 14.9766 23.0532 14.9766 23.2295C14.9766 23.4056 15.1344 23.5484 15.3297 23.5484Z" fill="black"/>
<path d="M17.7748 25.8042H15.3297C15.1348 25.8042 14.9766 25.9467 14.9766 26.1231C14.9766 26.2994 15.1348 26.442 15.3297 26.442H17.7748C17.9697 26.442 18.1279 26.2994 18.1279 26.1231C18.1279 25.9467 17.9701 25.8042 17.7748 25.8042Z" fill="black"/>
<path d="M6.09439 17.7623H11.683C11.878 17.7623 12.0362 17.6194 12.0362 17.4434C12.0362 17.2674 11.878 17.1245 11.683 17.1245H6.09439C5.89943 17.1245 5.74121 17.2674 5.74121 17.4434C5.74121 17.6197 5.89943 17.7623 6.09439 17.7623Z" fill="black"/>
<path d="M6.09439 20.6558H9.81542C10.0104 20.6558 10.1686 20.5133 10.1686 20.337C10.1686 20.1606 10.0104 20.0181 9.81542 20.0181H6.09439C5.89943 20.0181 5.74121 20.1606 5.74121 20.337C5.74121 20.513 5.89943 20.6558 6.09439 20.6558Z" fill="black"/>
<path d="M11.683 22.9106H6.09439C5.89943 22.9106 5.74121 23.0532 5.74121 23.2295C5.74121 23.4059 5.89943 23.5484 6.09439 23.5484H11.683C11.878 23.5484 12.0362 23.4059 12.0362 23.2295C12.0362 23.0532 11.8783 22.9106 11.683 22.9106Z" fill="black"/>
<path d="M8.88869 25.8042H6.09439C5.89943 25.8042 5.74121 25.9467 5.74121 26.1231C5.74121 26.2994 5.89943 26.442 6.09439 26.442H8.88869C9.08365 26.442 9.24187 26.2994 9.24187 26.1231C9.24187 25.9467 9.084 25.8042 8.88869 25.8042Z" fill="black"/>
</g>
<g opacity="0.5">
<path d="M18.132 9.42586H4.90884C4.71389 9.42586 4.55566 9.283 4.55566 9.10697C4.55566 8.93095 4.71389 8.78809 4.90884 8.78809H18.132C18.327 8.78809 18.4852 8.93095 18.4852 9.10697C18.4852 9.28332 18.327 9.42586 18.132 9.42586Z" fill="black"/>
</g>
<g opacity="0.5">
<path d="M13.4945 11.2164H4.90884C4.71389 11.2164 4.55566 11.0735 4.55566 10.8975C4.55566 10.7215 4.71389 10.5786 4.90884 10.5786H13.4945C13.6895 10.5786 13.8477 10.7215 13.8477 10.8975C13.8477 11.0735 13.6895 11.2164 13.4945 11.2164Z" fill="black"/>
</g>
<g opacity="0.5">
<path d="M21.971 31.564H4.90884C4.71389 31.564 4.55566 31.4215 4.55566 31.2452C4.55566 31.0688 4.71389 30.9263 4.90884 30.9263H21.971C22.166 30.9263 22.3242 31.0688 22.3242 31.2452C22.3242 31.4215 22.1663 31.564 21.971 31.564Z" fill="black"/>
</g>
<path d="M6.66341 44.2056H4.55566V46.1087H6.66341V44.2056Z" fill="#8CC4F6"/>
<g opacity="0.5">
<path d="M18.6591 45.4757H8.19595C8.001 45.4757 7.84277 45.3331 7.84277 45.1568C7.84277 44.9804 8.001 44.8379 8.19595 44.8379H18.6591C18.854 44.8379 19.0123 44.9804 19.0123 45.1568C19.0123 45.3331 18.8544 45.4757 18.6591 45.4757Z" fill="black"/>
</g>
<path d="M6.66341 47.396H4.55566V49.2991H6.66341V47.396Z" fill="#8CC4F6"/>
<g opacity="0.5">
<path d="M18.6591 48.6661H8.19595C8.001 48.6661 7.84277 48.5236 7.84277 48.3472C7.84277 48.1709 8.001 48.0283 8.19595 48.0283H18.6591C18.854 48.0283 19.0123 48.1709 19.0123 48.3472C19.0123 48.5232 18.8544 48.6661 18.6591 48.6661Z" fill="black"/>
</g>
<path d="M6.66341 50.5869H4.55566V52.49H6.66341V50.5869Z" fill="#8CC4F6"/>
<g opacity="0.5">
<path d="M18.6591 51.858H8.19595C8.001 51.858 7.84277 51.7154 7.84277 51.5391C7.84277 51.3628 8.001 51.2202 8.19595 51.2202H18.6591C18.854 51.2202 19.0123 51.3628 19.0123 51.5391C19.0123 51.7154 18.8544 51.858 18.6591 51.858Z" fill="black"/>
</g>
<path d="M6.66341 53.7778H4.55566V55.6809H6.66341V53.7778Z" fill="#8CC4F6"/>
<g opacity="0.5">
<path d="M18.6591 55.0484H8.19595C8.001 55.0484 7.84277 54.9059 7.84277 54.7295C7.84277 54.5532 8.001 54.4106 8.19595 54.4106H18.6591C18.854 54.4106 19.0123 54.5532 19.0123 54.7295C19.0123 54.9059 18.8544 55.0484 18.6591 55.0484Z" fill="black"/>
</g>
<g opacity="0.5">
<path d="M37.9753 34.4141H7.34341C7.14846 34.4141 6.99023 34.2716 6.99023 34.0953C6.99023 33.9189 7.14846 33.7764 7.34341 33.7764H37.9753C38.1702 33.7764 38.3284 33.9189 38.3284 34.0953C38.3284 34.2716 38.1702 34.4141 37.9753 34.4141Z" fill="black"/>
<path d="M38.0143 36.0128H4.90884C4.71389 36.0128 4.55566 35.8702 4.55566 35.6939C4.55566 35.5175 4.71389 35.375 4.90884 35.375H38.0143C38.2093 35.375 38.3675 35.5175 38.3675 35.6939C38.3675 35.8699 38.2093 36.0128 38.0143 36.0128Z" fill="black"/>
<path d="M38.0534 37.6104H4.9479C4.75295 37.6104 4.59473 37.4679 4.59473 37.2915C4.59473 37.1152 4.75295 36.9727 4.9479 36.9727H38.0534C38.2483 36.9727 38.4066 37.1152 38.4066 37.2915C38.4066 37.4679 38.2487 37.6104 38.0534 37.6104Z" fill="black"/>
<path d="M33.1452 39.2086H4.98696C4.79201 39.2086 4.63379 39.066 4.63379 38.8897C4.63379 38.7133 4.79201 38.5708 4.98696 38.5708H33.1452C33.3401 38.5708 33.4984 38.7133 33.4984 38.8897C33.4984 39.066 33.3401 39.2086 33.1452 39.2086Z" fill="black"/>
</g>
<path opacity="0.3" d="M6.66341 47.3965H4.55566V49.2996H6.66341V47.3965Z" fill="white"/>
<path opacity="0.5" d="M6.66341 50.5864H4.55566V52.4895H6.66341V50.5864Z" fill="white"/>
<path opacity="0.7" d="M6.66341 53.7778H4.55566V55.6809H6.66341V53.7778Z" fill="white"/>
</svg>
