<svg width="74" height="50" viewBox="0 0 74 50" fill="none" xmlns="http://www.w3.org/2000/svg">
<path d="M63.173 44.9626L52.7282 45.8235C50.7159 45.9894 48.7595 45.3618 47.2193 44.0565C45.6792 42.7511 44.7397 40.9243 44.5738 38.9123L44.1469 33.7326C43.5192 26.1169 36.8116 20.4319 29.1946 21.0597L15.2732 22.2072C13.0778 22.3881 10.9434 21.7035 9.26303 20.2794C7.5827 18.8552 6.55767 16.862 6.37674 14.667L5.86056 8.40458C5.84534 8.21996 5.98268 8.05798 6.16733 8.04276C6.35198 8.02754 6.51399 8.16485 6.52921 8.34946L7.04539 14.6118C7.38849 18.7744 11.0548 21.8818 15.2181 21.5386L29.1394 20.3912C31.0944 20.23 33.0227 20.4566 34.8706 21.0645C36.6554 21.6517 38.2902 22.5681 39.7297 23.7881C41.1693 25.0082 42.3411 26.4707 43.2127 28.1349C44.1152 29.858 44.6544 31.7228 44.8155 33.6774L45.2425 38.8572C45.5544 42.6418 48.8878 45.467 52.6731 45.155L63.1179 44.2941C63.3025 44.2788 63.4646 44.4162 63.4798 44.6008C63.495 44.7853 63.3577 44.9474 63.173 44.9626Z" fill="#1D3F70"/>
<path d="M61.3715 20.3963C61.2493 23.9851 58.2797 27.0355 55.7475 29.3963C51.4319 33.7376 45.1788 40.0129 40.8516 44.3661C36.5079 40.0472 30.2099 33.7857 25.8756 29.4764C23.3305 27.1335 20.3479 24.0843 20.2057 20.4998C19.3583 14.5271 24.7299 8.62098 30.678 8.82648C34.7459 8.58811 38.1385 11.5871 40.7715 14.5031C40.7822 14.4824 43.2855 11.989 43.3775 11.8833C50.1323 4.81914 62.5543 10.7466 61.3715 20.3963Z" fill="#EB5648"/>
<path d="M61.3714 20.3963C61.2492 23.9851 58.2796 27.0355 55.7475 29.3963C51.4318 33.7376 45.1788 40.0129 40.8515 44.3661L40.7715 14.5031C40.7822 14.4824 43.2855 11.989 43.3775 11.8833C50.1322 4.81914 62.5542 10.7466 61.3714 20.3963Z" fill="#CE3932"/>
<path d="M41.9031 36.9042C41.5463 36.9042 41.2281 36.6796 41.1087 36.3434L34.725 18.371L30.3853 26.9531C30.2419 27.2368 29.9509 27.4156 29.633 27.4156H16.2601C15.7945 27.4156 15.417 27.0383 15.417 26.5728C15.417 26.1073 15.7945 25.7299 16.2601 25.7299H29.1146L34.1083 15.8541C34.2606 15.5531 34.5783 15.3726 34.9142 15.3932C35.2508 15.4146 35.5423 15.6345 35.6551 15.9523L41.8956 33.5215L46.848 19.3142C46.9626 18.9852 47.2679 18.7606 47.6162 18.7492C47.9631 18.7374 48.2839 18.9416 48.42 19.2623L51.1648 25.7299H63.1828C63.6484 25.7299 64.0259 26.1073 64.0259 26.5728C64.0259 27.0383 63.6484 27.4156 63.1828 27.4156H50.6066C50.2683 27.4156 49.9627 27.2134 49.8306 26.902L47.7211 21.9314L42.6991 36.3386C42.5813 36.6764 42.2633 36.9031 41.9055 36.9041C41.9047 36.9042 41.9039 36.9042 41.9031 36.9042Z" fill="white"/>
<path d="M14.1951 14.1928C16.8084 11.58 16.8084 7.34383 14.1951 4.73105C11.5819 2.11826 7.34496 2.11826 4.73171 4.73105C2.11846 7.34383 2.11846 11.58 4.73171 14.1928C7.34496 16.8056 11.5819 16.8056 14.1951 14.1928Z" fill="#1D3F70"/>
<path d="M13.0458 13.044C15.0244 11.0657 15.0244 7.85824 13.0458 5.87995C11.0671 3.90165 7.85911 3.90164 5.88048 5.87992C3.90185 7.8582 3.90186 11.0656 5.88051 13.0439C7.85915 15.0222 11.0672 15.0222 13.0458 13.044Z" fill="#BEDCED"/>
<path d="M8.36894 9.4573L4.39746 9.4412C4.40484 7.62569 5.3666 6.03724 6.80538 5.14844L8.36894 9.4573Z" fill="#2FAC66"/>
<path d="M14.5301 9.48116L10.5586 9.46506L12.1571 5.16895C13.5888 6.06949 14.5375 7.66531 14.5301 9.48116Z" fill="#EB5648"/>
<path d="M10.2931 12.1015C10.2911 12.5677 9.91164 12.9441 9.44536 12.9422C8.97907 12.9403 8.60262 12.5608 8.6045 12.0946C8.60638 11.6284 8.98591 11.252 9.4522 11.2539C9.91849 11.2558 10.2949 11.6353 10.2931 12.1015Z" fill="#103663"/>
<path d="M12.1569 5.1677L10.5585 9.46381L8.36826 9.45476L6.80469 5.1459C7.58328 4.66561 8.50143 4.38957 9.48399 4.3936C10.4665 4.39762 11.3827 4.68103 12.1569 5.1677Z" fill="#F9B233"/>
<path d="M9.07493 11.7633L12.037 8.10547L9.94457 12.3214C9.81696 12.5785 9.50502 12.6835 9.24786 12.5559C8.9907 12.4283 8.88566 12.1164 9.01327 11.8593C9.03018 11.8253 9.05212 11.7918 9.07493 11.7633Z" fill="#103663"/>
<path d="M56.8578 45.1416C56.6727 45.1416 56.5226 44.9917 56.5223 44.8066L56.5195 41.9969C56.5193 41.8117 56.6694 41.6613 56.8547 41.6611C56.8548 41.6611 56.8549 41.6611 56.855 41.6611C57.0401 41.6611 57.1902 41.8111 57.1904 41.9962L57.1933 44.8059C57.1935 44.9911 57.0434 45.1414 56.8581 45.1416C56.858 45.1416 56.8579 45.1416 56.8578 45.1416Z" fill="#1D3F70"/>
<path d="M55.4242 42.4175C55.1928 42.4175 55.0051 42.2301 55.0049 41.9987C55.0046 41.7672 55.1922 41.5793 55.4238 41.579L58.286 41.5762C58.2862 41.5762 58.2863 41.5762 58.2864 41.5762C58.5178 41.5762 58.7055 41.7636 58.7058 41.995C58.706 42.2265 58.5184 42.4144 58.2869 42.4147L55.4246 42.4175C55.4244 42.4175 55.4243 42.4175 55.4242 42.4175Z" fill="#1D3F70"/>
<path d="M58.7169 46.1214L56.3181 46.1237C55.5908 46.1245 55.0007 45.5356 55 44.8085C54.9993 44.0814 55.5882 43.4914 56.3155 43.4907L58.7143 43.4883L58.7169 46.1214Z" fill="#1D3F70"/>
<path d="M71.4616 46.1077L72.4059 46.1067C73.1332 46.106 73.7222 45.516 73.7214 44.7889C73.7207 44.0618 73.1306 43.4729 72.4033 43.4736L71.459 43.4746L71.4616 46.1077Z" fill="#1D3F70"/>
<path d="M72.5905 44.7893C72.5925 46.8862 69.2658 48.5894 65.1598 48.5938C61.8753 48.5971 59.0873 47.5118 58.1021 46.0041C57.8555 45.6272 57.722 45.2237 57.7217 44.8044C57.7197 42.7075 61.0464 41.0044 65.1524 41C67.6462 40.9977 69.8542 41.6225 71.2037 42.5834C72.0759 43.2046 72.5898 43.9663 72.5905 44.7893Z" fill="#23659B"/>
<path d="M71.5841 43.7831C71.5861 45.88 68.2594 47.5832 64.1534 47.5876C61.6596 47.5899 59.4516 46.9647 58.1021 46.0041C57.8555 45.6272 57.722 45.2237 57.7217 44.8044C57.7197 42.7075 61.0464 41.0044 65.1524 41C67.6462 40.9977 69.8542 41.6225 71.2037 42.5834C71.4503 42.9604 71.5838 43.3639 71.5841 43.7831Z" fill="#3A72AA"/>
</svg>
