<svg width="76" height="63" viewBox="0 0 76 63" fill="none" xmlns="http://www.w3.org/2000/svg">
<path d="M47.8101 62.9997C47.5204 60.1157 46.7272 58.1045 46.7272 58.1045H38.5505L38.5487 58.1047L38.5466 58.1045L38.5056 58.1051L38.4645 58.1045L38.4625 58.1047L38.4607 58.1045H30.2466C30.2466 58.1045 29.479 60.1157 29.1982 62.9997H47.8101Z" fill="#0F75BD"/>
<path d="M45.3898 29.4622C44.4491 29.2877 43.5962 29.1886 42.8352 29.1408C41.9709 29.0863 41.2902 28.368 41.2902 27.4811V23.6543H35.6805V27.4819C35.6805 28.3552 35.023 29.0865 34.1719 29.1385C33.5019 29.1795 32.7599 29.2601 31.9491 29.3973L31.8623 37.1984H45.4808L45.3898 29.4622Z" fill="#FFBBA6"/>
<path d="M35.6807 27.0378C36.5437 27.4863 37.4872 27.7509 38.4857 27.7509C39.4841 27.7509 40.4276 27.4863 41.2904 27.038V22.4785H35.6807V27.0378Z" fill="#FEB19E"/>
<path d="M34.7504 18.7471C34.7504 19.9189 33.8866 20.8687 32.8212 20.8687C31.7557 20.8687 30.9053 18.9741 30.9053 17.8023C30.9053 16.6305 31.7431 16.4511 32.8212 16.6256C33.8737 16.7958 34.7504 17.5753 34.7504 18.7471Z" fill="#FFBBA6"/>
<path d="M42.8721 18.7471C42.8721 19.9189 43.7357 20.8687 44.8013 20.8687C45.8667 20.8687 46.7172 18.9741 46.7172 17.8023C46.7172 16.6305 45.8795 16.4511 44.8013 16.6256C43.7489 16.7958 42.8721 17.5753 42.8721 18.7471Z" fill="#FFBBA6"/>
<path d="M44.8007 12.898C44.0703 10.6167 38.8113 10.5381 38.8113 10.5381C38.8113 10.5381 33.5523 10.6167 32.8219 12.898C32.0915 15.1794 32.1645 19.8993 33.2602 22.1806C34.3558 24.462 36.401 26.35 38.8113 26.35C41.2217 26.35 43.2668 24.462 44.3623 22.1806C45.4581 19.8995 45.5311 15.1794 44.8007 12.898Z" fill="#FFBBA6"/>
<path d="M34.234 11.2794C34.5701 11.2439 34.9172 11.2314 35.237 11.3516C35.5568 11.4718 35.847 11.7489 35.9184 12.115C36.0117 12.5936 35.725 13.0514 35.4541 13.438C35.0644 13.9947 34.6747 14.5512 34.2849 15.1079C34.0091 15.5018 33.73 15.9021 33.5602 16.364C33.4169 16.754 33.3565 17.1749 33.3155 17.5937C33.26 18.1602 33.2378 18.7309 33.2495 19.3007C33.2507 19.3607 33.2516 19.4241 33.2256 19.4766C33.196 19.5362 33.1379 19.5701 33.0832 19.6005C32.9156 19.6936 32.7481 19.7866 32.5807 19.8796C32.3656 18.8237 32.113 15.5057 32.0079 15.1251C31.8255 14.4641 31.7013 13.7835 31.6379 13.0958C31.624 12.9445 31.613 12.7899 31.6436 12.6416C31.7141 12.2984 31.9889 12.0564 32.2663 11.8859C32.8662 11.5175 33.5515 11.3516 34.234 11.2794Z" fill="#382040"/>
<path d="M42.232 9.11428C42.1968 9.12402 42.1704 9.13968 42.1556 9.16213C42.0583 9.31057 42.2007 9.79363 42.2277 9.95059C42.2628 10.1545 42.6246 11.4969 42.361 11.5964C42.0522 11.7132 41.7719 11.9824 41.7029 12.3381C41.6128 12.803 41.8898 13.2478 42.1514 13.6233C42.5279 14.1642 42.9045 14.7049 43.281 15.2457C43.5474 15.6283 43.8173 16.0173 43.9812 16.4661C44.1197 16.8449 44.1781 17.2538 44.2177 17.6607C44.2714 18.2111 44.2927 18.7655 44.2815 19.319C44.2804 19.3773 44.2795 19.4389 44.3047 19.4899C44.3333 19.5479 44.3894 19.5807 44.4425 19.6103C44.6042 19.7008 44.7661 19.7911 44.928 19.8814C44.9276 19.8813 44.9374 19.8341 44.9369 19.8367C45.1708 18.6151 45.2363 17.3474 45.3692 16.1088C45.4356 15.4902 45.4163 14.8789 45.5904 14.2843C45.8625 13.3541 46.0862 12.3764 45.9633 11.3914C45.9176 11.0258 45.822 10.6609 45.6328 10.3581C45.3896 9.96869 45.0076 9.70836 44.6053 9.55349C44.203 9.39862 43.777 9.33997 43.3548 9.2822C43.1594 9.25558 42.4783 9.04572 42.232 9.11428Z" fill="#382040"/>
<path d="M43.3023 8.03667C42.538 7.13046 41.7293 6.19127 40.6507 5.76808C39.4003 5.27739 38.0072 5.56406 36.7132 5.9071C35.9926 6.09808 35.256 6.31514 34.6634 6.78742C34.0275 7.29441 33.6171 8.0476 33.0748 8.6635C32.5325 9.2794 31.731 9.78274 30.9655 9.54689C30.897 10.195 30.8618 10.8581 31.0002 11.4937C31.3085 12.909 32.4651 14.0016 33.7662 14.4821C35.0674 14.9625 36.4945 14.9099 37.855 14.6741C39.1969 14.4415 40.5494 14.0162 41.6091 13.1188C42.5236 12.3443 43.1655 11.2609 43.6155 10.1196C43.7747 9.71582 43.9138 9.26924 43.8018 8.84815C43.7187 8.53484 43.5075 8.28 43.3023 8.03667Z" fill="#382040"/>
<path d="M30.261 58.0971C30.699 58.1836 34.5095 59.0599 38.3554 59.1084C42.3959 59.1594 46.4754 58.38 46.7234 58.3477C46.6294 56.6148 46.5677 51.8248 46.6852 49.5755C46.9205 45.0769 48.8733 30.6605 48.8733 30.6605C45.2987 29.0977 45.052 29.2829 42.8624 29.1416C42.4794 30.0538 40.6692 30.746 38.4858 30.746C36.3024 30.746 34.4923 30.0536 34.1093 29.1416C31.9196 29.2831 32.702 29.1416 29.1084 30.3011C29.1084 30.3011 30.0514 45.0769 30.2867 49.5755C30.3992 51.7229 30.3478 56.2153 30.261 58.0971Z" fill="#AE509B"/>
<path d="M25.3478 52.7101C26.5564 52.6993 28.8316 50.8715 28.8745 50.6485C28.9682 50.1605 29.7808 39.969 29.9093 39.3496C30.6264 35.8882 29.6248 30.2645 29.072 30.2705C27.8114 30.2844 25.5145 32.0996 24.4316 35.2658C23.9647 38.8255 22.1782 47.5015 21.8728 49.5056C21.8189 49.8587 22.383 49.3684 22.3781 49.7259C22.3712 50.2137 22.383 50.8104 22.4084 51.4832C22.8948 52.6976 24.1425 52.7208 25.3478 52.7101Z" fill="#BC6EAC"/>
<path d="M50.3884 48.8154L53.3723 48.7636C53.1973 46.7913 53.0425 43.1407 52.8481 39.939C52.7363 38.0975 52.0068 33.4439 51.0964 32.3147C50.0333 30.9961 48.9401 30.2784 48.1297 30.2695C47.5768 30.2635 46.1684 36.6222 46.6171 40.7901C46.6849 41.4197 46.7292 48.7196 47.6683 50.9474C47.8085 51.28 49.1843 52.2258 50.3884 52.7194V48.8154Z" fill="#BC6EAC"/>
<path d="M64.2701 33.9826C64.1063 34.3898 63.85 34.6776 63.4134 34.8285C62.7974 35.0413 62.7586 34.7145 62.8621 34.018C62.9226 33.6106 63.2429 33.0521 63.1316 32.6121C62.9906 32.0549 62.3879 32.2288 62.0608 33.0059C61.8023 33.6205 61.6443 34.1285 61.5927 34.6038C61.48 35.6437 61.5889 36.4374 61.3872 37.4771C61.3212 37.8178 61.2017 38.063 61.038 38.2963C61.0228 38.3181 60.9051 38.4849 60.7178 38.7483C60.8932 39.6091 61.2915 40.4648 61.721 41.2421C62.3032 40.2915 62.8263 39.4402 63.2366 38.8214C63.382 38.7785 63.4559 38.4863 63.5849 38.3852C63.9592 38.0914 64.3076 38.0213 64.7563 37.9094C65.278 37.7793 65.6862 37.5327 66.0485 37.2181C65.1269 36.4988 64.6454 35.2639 64.2701 33.9826Z" fill="#FFBBA6"/>
<path d="M64.1574 39.8491C64.1574 39.8491 61.4396 36.9029 60.2596 36.415C58.3612 38.6695 51.5925 45.4556 49.5772 47.5005C49.1987 47.8847 48.2145 48.9994 47.9434 49.4781C46.7841 51.5254 47.974 53.2989 49.7093 54.115C50.2614 54.3746 51.8257 54.2115 52.7017 53.4437C56.3461 50.2493 63.1085 41.0929 64.1574 39.8491Z" fill="#BC6EAC"/>
<path d="M64.5214 37.2826L64.3984 39.4062L65.27 39.4592L65.3929 37.3356L64.5214 37.2826Z" fill="#AEAEAE"/>
<path d="M64.5217 37.2848L64.4385 38.7227L65.31 38.7756L65.3933 37.3377L64.5217 37.2848Z" fill="#595959"/>
<path d="M63.2315 37.8092C63.4957 37.9976 64.8151 38.1509 64.9277 38.1638V38.1642C64.9277 38.1642 64.9292 38.1642 64.9318 38.1642C64.9342 38.1644 64.9356 38.1646 64.9356 38.1646V38.164C65.0489 38.165 66.3768 38.1723 66.6608 38.0173C66.9578 37.8554 67.871 34.3491 67.0286 31.6683C67.0286 31.6683 66.3459 31.2572 65.3392 31.1942C65.338 31.1939 65.3366 31.1942 65.3354 31.1939C65.334 31.1937 65.3327 31.1937 65.3313 31.1937C64.3245 31.1345 63.599 31.46 63.599 31.46C62.4532 34.0202 62.9553 37.6123 63.2315 37.8092Z" fill="#101418"/>
<path d="M63.5564 37.2754C63.7755 37.4317 64.8697 37.5589 64.9632 37.5695V37.5699C64.9632 37.5699 64.9644 37.5699 64.9664 37.5699C64.9687 37.5701 64.9697 37.5703 64.9697 37.5703V37.5699C65.0635 37.5708 66.165 37.5768 66.4005 37.4483C66.6467 37.314 67.4041 34.4061 66.7056 32.1829C66.7056 32.1829 66.1394 31.842 65.3047 31.7896V31.7894C65.3037 31.7894 65.3026 31.7894 65.3014 31.7894C65.3002 31.7894 65.2992 31.7892 65.2982 31.7892C64.4631 31.7401 63.8615 32.0099 63.8615 32.0099C62.9109 34.1332 63.3274 37.1121 63.5564 37.2754Z" fill="#77DCF0"/>
<path d="M63.8346 34.4932L63.6904 36.9834L66.2887 37.1413L66.4329 34.6511L63.8346 34.4932Z" fill="white"/>
<path d="M64.0321 34.705L63.9111 36.7949L66.0916 36.9274L66.2126 34.8375L64.0321 34.705Z" fill="#FFDB40"/>
<path d="M65.5906 33.7762C65.6054 33.5228 65.8178 33.3296 66.0652 33.3446C66.3124 33.3597 66.501 33.5771 66.4864 33.8305C66.4718 34.084 66.2594 34.2771 66.012 34.2622C65.7646 34.2471 65.5761 34.0295 65.5906 33.7762Z" fill="#3763AA"/>
<path d="M63.8885 33.6745C63.9031 33.421 64.1155 33.2279 64.3629 33.243C64.6103 33.2581 64.7988 33.4755 64.7841 33.729C64.7695 33.9822 64.5571 34.1756 64.3097 34.1604C64.0625 34.1455 63.8737 33.9279 63.8885 33.6745Z" fill="#F81A23"/>
<path d="M64.8512 35.2967L64.5569 35.2766C64.5401 35.2754 64.5257 35.2633 64.5215 35.2465L64.4964 35.1481C64.4897 35.1214 64.5103 35.0959 64.537 35.0978L64.8943 35.1222C64.921 35.1241 64.9382 35.1523 64.9281 35.1777L64.8903 35.272C64.884 35.2878 64.8682 35.2979 64.8512 35.2967Z" fill="#101418"/>
<path d="M65.6092 35.3494L65.3147 35.3293C65.2977 35.3281 65.2835 35.3161 65.2793 35.2993L65.2542 35.2008C65.2475 35.1743 65.2682 35.1486 65.2951 35.1505L65.6521 35.1749C65.679 35.1768 65.696 35.205 65.6859 35.2305L65.6483 35.3248C65.642 35.3407 65.6262 35.3507 65.6092 35.3494Z" fill="#101418"/>
<path d="M64.8124 35.8885L64.5178 35.8684C64.501 35.8672 64.4867 35.8551 64.4824 35.8384L64.4573 35.7399C64.4506 35.7134 64.4713 35.6875 64.4982 35.6896L64.8552 35.714C64.8821 35.7159 64.8991 35.7441 64.889 35.7696L64.8514 35.8639C64.8449 35.8796 64.8291 35.8895 64.8124 35.8885Z" fill="#101418"/>
<path d="M64.5266 35.3164L64.5061 35.618C64.5051 35.6352 64.4932 35.6499 64.4766 35.6542L64.3803 35.6797C64.3542 35.6868 64.3293 35.6654 64.3311 35.6379L64.3558 35.2719C64.3577 35.2445 64.3852 35.2269 64.41 35.2375L64.5019 35.2762C64.5179 35.2829 64.5276 35.299 64.5266 35.3164Z" fill="#101418"/>
<path d="M65.3008 35.3661L65.2803 35.6679C65.2791 35.6851 65.2674 35.6998 65.251 35.7041L65.1547 35.7296C65.1286 35.7365 65.1037 35.7151 65.1056 35.6878L65.1302 35.3218C65.1321 35.2944 65.1596 35.2768 65.1845 35.2872L65.2765 35.3261C65.2921 35.3328 65.3018 35.3489 65.3008 35.3661Z" fill="#101418"/>
<path d="M65.6129 35.3899L65.5939 35.6916C65.5926 35.7088 65.6025 35.7249 65.6183 35.7316L65.7106 35.7699C65.7355 35.7803 65.763 35.7627 65.7648 35.7351L65.7879 35.3691C65.7897 35.3416 65.7646 35.3206 65.7387 35.3275L65.6426 35.3536C65.6258 35.3579 65.6141 35.3727 65.6129 35.3899Z" fill="#101418"/>
<path d="M65.2607 35.9656L65.2405 36.2674C65.2393 36.2846 65.2273 36.2993 65.211 36.3036L65.1147 36.3291C65.0888 36.336 65.0639 36.3148 65.0655 36.2873L65.0902 35.9213C65.092 35.8939 65.1195 35.8763 65.1444 35.8869L65.2362 35.9256C65.252 35.9321 65.2617 35.9482 65.2607 35.9656Z" fill="#101418"/>
<path d="M65.5721 35.9895L65.5528 36.2912C65.5516 36.3084 65.5615 36.3246 65.5773 36.3312L65.6694 36.3695C65.6942 36.3799 65.7218 36.3623 65.7234 36.3347L65.7464 35.9687C65.7481 35.9412 65.7232 35.9202 65.6971 35.9271L65.601 35.953C65.5848 35.9573 65.5729 35.9721 65.5721 35.9895Z" fill="#101418"/>
<path d="M64.8453 35.9368L64.8262 36.2385C64.8252 36.2559 64.8349 36.2719 64.8507 36.2785L64.9428 36.3169C64.9676 36.3272 64.9952 36.3096 64.997 36.282L65.02 35.9161C65.0219 35.8885 64.9968 35.8674 64.9709 35.8744L64.8748 35.9003C64.8582 35.9049 64.8465 35.9196 64.8453 35.9368Z" fill="#101418"/>
<path d="M64.4918 36.2814L64.7862 36.3015C64.8032 36.3025 64.8175 36.3147 64.8216 36.3315L64.8466 36.4301C64.8535 36.4569 64.8327 36.4826 64.806 36.4805L64.4487 36.456C64.422 36.4542 64.4048 36.426 64.4151 36.4005L64.4528 36.3062C64.459 36.2903 64.475 36.2801 64.4918 36.2814Z" fill="#101418"/>
<path d="M65.2495 36.3312L65.5441 36.3513C65.5609 36.3525 65.5752 36.3645 65.5795 36.3813L65.6046 36.4797C65.6113 36.5063 65.5906 36.532 65.5637 36.5301L65.2067 36.5056C65.1798 36.5038 65.1628 36.4756 65.1729 36.4501L65.2105 36.3558C65.217 36.3399 65.2328 36.3299 65.2495 36.3312Z" fill="#101418"/>
<path d="M65.5602 35.7593L65.3124 35.7423C65.2996 35.7414 65.2875 35.7472 65.281 35.7572L65.248 35.808C65.2424 35.8169 65.2416 35.8278 65.246 35.8374L65.2721 35.8919C65.2774 35.9029 65.2887 35.9101 65.3015 35.9112L65.5493 35.9282C65.562 35.929 65.5741 35.9232 65.5806 35.9132L65.6136 35.8627C65.6195 35.8538 65.6201 35.843 65.6154 35.8334L65.5891 35.7787C65.5843 35.7675 65.5729 35.7601 65.5602 35.7593Z" fill="#101418"/>
<path d="M64.9814 36.3841L64.9746 36.4883L65.0763 36.4953L65.0832 36.3911L64.9814 36.3841Z" fill="#101418"/>
<path d="M67.4223 31.6308C67.1534 31.7033 66.5672 31.8821 66.3991 32.1244C66.1094 32.542 66.5662 33.0314 66.9578 33.02C67.2677 33.0111 67.7435 32.8286 67.8961 32.5082C68.0792 32.124 67.7824 31.5336 67.4223 31.6308Z" fill="#FFBBA6"/>
<path d="M67.9379 33.0313C67.6104 33.0298 67.1508 33.1898 66.8949 33.4225C66.5619 33.7253 66.7076 34.2846 67.1366 34.3665C67.4464 34.4255 68.0399 34.2411 68.2616 33.9984C68.5187 33.7174 68.3747 33.0333 67.9379 33.0313Z" fill="#FFBBA6"/>
<path d="M67.9764 34.6283C67.659 34.6283 67.3137 34.5305 67.0351 34.7089C66.7124 34.9157 66.6758 35.4456 67.0359 35.646C67.2619 35.7718 67.9679 35.7519 68.1791 35.5971C68.5109 35.3542 68.4265 34.6283 67.9764 34.6283Z" fill="#FFBBA6"/>
<path d="M67.7125 36.1601C67.4651 36.1601 66.9938 36.0271 66.7806 36.2049C66.4617 36.471 66.7063 36.9248 66.9839 37.0417C67.1924 37.1295 67.63 37.1513 67.807 36.9548C68.0164 36.7225 68.0801 36.1601 67.7125 36.1601Z" fill="#FFBBA6"/>
<path d="M47.9882 51.4834C47.8597 51.4869 47.7503 51.5613 47.642 51.6243C47.5682 51.6674 47.4721 51.7033 47.4165 51.7723C47.2919 51.9267 47.3224 52.1791 47.547 52.187C47.6837 52.1917 47.8383 52.1113 47.955 52.0433C48.0816 51.9694 48.2512 51.8925 48.241 51.7242C48.2315 51.5733 48.1451 51.4851 47.9882 51.4834Z" fill="#F81A23"/>
<path d="M49.8096 55.5072C49.8102 55.4809 49.7912 55.3616 49.7779 55.3338C49.6184 55.0008 47.8457 55.621 47.9378 55.4751C47.9802 55.4076 48.6464 55.3912 49.3524 55.1549C49.7791 55.0122 50.2031 54.7488 50.5614 54.4599C50.7598 54.2999 51.0809 53.9138 50.864 53.6869C50.6607 53.4741 50.3829 53.5564 50.1697 53.6419C49.9363 53.7358 49.1242 54.1795 49.1469 54.1706C49.2304 54.1379 48.086 54.5084 48.086 54.5084C48.0982 54.4398 48.4898 54.3117 48.6003 54.2697C48.7745 54.2036 48.9393 54.1358 49.1095 54.0566C49.4382 53.9035 49.7596 53.7451 50.0667 53.5634C50.37 53.3839 50.6759 53.104 50.9136 52.8308C51.4308 52.2359 50.9526 51.5421 50.3781 51.9383C49.8841 52.2792 49.8699 52.3554 49.1287 52.8746C48.9984 52.9657 48.017 53.5713 48.0158 53.5305C48.0148 53.4896 48.6403 53.1139 48.7836 53.0209C49.0733 52.8325 49.6939 52.3807 50.052 51.7889C50.1742 51.5868 50.3089 51.2702 50.1669 51.0478C50.0803 50.9123 49.9245 50.8617 49.77 50.869C49.4418 50.8845 49.2175 51.2177 48.9804 51.4175C48.6769 51.6732 48.4289 51.8908 48.1182 52.1333C47.7195 52.4444 47.2809 52.6481 46.7766 52.7347C46.342 52.8095 45.9261 52.7171 45.5872 52.4207C45.0928 51.9882 45.3469 51.7864 45.9835 51.5201C46.356 51.3643 46.9884 51.3593 47.2997 51.036C47.6944 50.6261 46.9244 50.1575 46.4205 50.2964C45.7895 50.4703 45.266 50.5059 44.8414 50.7044C43.912 51.1388 43.3029 51.6415 42.3282 51.9976C42.009 52.1142 41.7422 52.135 41.4628 52.1109C41.4369 52.1086 41.2366 52.0908 40.9198 52.061C40.2884 52.6568 39.7756 53.4459 39.3447 54.2224C40.44 54.2469 41.4215 54.2701 42.1506 54.3134C42.2613 54.4193 42.5439 54.3345 42.6948 54.3961C43.133 54.5745 43.3705 54.8449 43.6943 55.1821C44.3376 55.8517 45.0048 56.2087 45.8674 56.3262C46.4913 56.4112 47.0031 56.4408 47.7733 56.382C48.5736 56.3208 49.7971 56.1126 49.8096 55.5072Z" fill="#FFBBA6"/>
<path d="M23.5743 52.9306C23.9218 53.1057 24.3068 53.1927 24.6894 53.2818C29.216 54.3364 39.8019 55.2972 41.7619 55.6499C41.7619 55.6499 42.8367 51.7485 42.6399 50.4608C39.777 49.9479 29.8749 47.0829 27.1275 46.3598C26.6114 46.2241 26.0739 46.2394 25.5338 46.2467C21.7308 46.2971 20.5694 51.4171 23.5743 52.9306Z" fill="#BC6EAC"/>
<path d="M19.4184 10.2021C22.2356 10.2021 24.5194 7.91825 24.5194 5.10103C24.5194 2.28381 22.2356 0 19.4184 0C16.6012 0 14.3174 2.28381 14.3174 5.10103C14.3174 7.91825 16.6012 10.2021 19.4184 10.2021Z" fill="#DAEBFD"/>
<path d="M20.4767 3.11127C20.4072 2.72871 19.4988 2.46582 19.4988 2.46582L18.5945 2.60104L17.6901 2.46582C17.6901 2.46582 16.782 2.72871 16.7125 3.11127C16.643 3.49384 16.7125 7.51689 16.7125 7.51689C16.7125 7.51689 16.7649 8.10817 18.5945 8.10817C20.4241 8.10817 20.4765 7.51689 20.4765 7.51689C20.4765 7.51689 20.5462 3.49406 20.4767 3.11127Z" fill="#6A7490"/>
<path d="M18.6198 3.47652C19.3203 3.47652 19.9664 3.33065 20.4858 3.18366C20.4831 3.15302 20.4804 3.12837 20.4773 3.11127C20.4078 2.72871 19.4995 2.46582 19.4995 2.46582L18.5951 2.60104L17.6908 2.46582C17.6908 2.46582 16.7827 2.72871 16.7132 3.11127C16.7105 3.12549 16.7083 3.14547 16.7061 3.16945C17.2332 3.3251 17.8973 3.47652 18.6198 3.47652Z" fill="#8F97AC"/>
<path opacity="0.32" d="M18.4049 2.57349L17.9462 2.50488C17.7202 2.75267 17.3485 3.18342 17.2732 3.30976C17.2717 3.3122 17.2701 3.3142 17.2686 3.31642C17.5881 3.38836 17.938 3.44542 18.307 3.46718C18.3106 3.32663 18.3867 2.72981 18.4049 2.57349Z" fill="#F0EBE5"/>
<path opacity="0.32" d="M18.6973 2.59693L19.156 2.52832C19.382 2.77611 19.7537 3.20686 19.829 3.3332C19.8305 3.33564 19.8321 3.33764 19.8336 3.33986C19.5141 3.4118 19.1642 3.46886 18.7952 3.49062C18.7916 3.35007 18.7155 2.75346 18.6973 2.59693Z" fill="#F0EBE5"/>
<path d="M18.5948 1.97969L17.6904 1.91797V2.51302C17.6904 2.51302 18.1156 2.64446 18.5948 2.64446C19.0739 2.64446 19.4991 2.51302 19.4991 2.51302V1.91797L18.5948 1.97969Z" fill="#6A7490"/>
<path opacity="0.32" d="M18.4833 1.9756L17.9111 1.93652V2.57154C18.0563 2.60241 18.2604 2.63638 18.4833 2.64548V1.9756Z" fill="#F0EBE5"/>
<path d="M18.5945 1.52876C18.5945 1.52876 17.8254 1.4535 17.4893 1.30273V2.06787C17.4893 2.06787 17.926 2.28235 18.5945 2.28235C19.2631 2.28235 19.6998 2.06787 19.6998 2.06787V1.30273C19.3637 1.4535 18.5945 1.52876 18.5945 1.52876Z" fill="#F81A23"/>
<path opacity="0.32" d="M19.3728 1.40527C19.2191 1.44102 19.0533 1.46944 18.9141 1.48987V2.26677C19.0944 2.24812 19.2493 2.21592 19.3728 2.18284V1.40527Z" fill="#D998D8"/>
<path opacity="0.32" d="M18.4042 1.50688C18.2323 1.48468 17.9734 1.4456 17.7529 1.38965V2.16455C17.9108 2.21118 18.1337 2.2598 18.4042 2.27646V1.50688Z" fill="#AC7F98"/>
<path d="M18.5197 1.08893C18.5197 1.08893 17.7901 1.07916 17.4893 1.30342C17.4893 1.30342 17.7017 1.57962 18.5197 1.57962C19.4871 1.57962 19.6998 1.30342 19.6998 1.30342C19.3988 1.07916 18.5197 1.08893 18.5197 1.08893Z" fill="#F81A23"/>
<path d="M18.5197 1.54353C17.7202 1.54353 17.497 1.29707 17.4893 1.30284C17.4893 1.30284 17.7017 1.60014 18.5197 1.60014C19.4871 1.60014 19.6998 1.30284 19.6998 1.30284C19.6916 1.29685 19.476 1.54353 18.5197 1.54353Z" fill="#C6E8F5"/>
<path d="M18.5946 6.34326C19.2741 6.34326 19.9178 6.27465 20.4959 6.15253C20.505 5.37075 20.5121 4.42222 20.5044 3.78809C19.9242 3.91132 19.2774 3.98037 18.5946 3.98037C17.9119 3.98037 17.2651 3.91109 16.6849 3.78809C16.6772 4.42222 16.6845 5.37075 16.6934 6.15253C17.2715 6.27465 17.9152 6.34326 18.5946 6.34326Z" fill="#F81A23"/>
<path d="M18.5956 4.73027C18.0034 4.73027 17.4421 4.67121 16.9365 4.56641V5.65282C17.4421 5.75762 18.0034 5.81668 18.5956 5.81668C19.1853 5.81668 19.7442 5.75807 20.2482 5.65393V4.56752C19.7442 4.67165 19.1853 4.73027 18.5956 4.73027Z" fill="#FEF7F3"/>
<path d="M18.5958 5.67495C18.0587 5.67495 17.5341 5.62833 17.0367 5.53663L17.0205 5.53374V4.74707L17.0438 4.75151C17.539 4.84277 18.061 4.88917 18.5958 4.88917C19.1283 4.88917 19.6483 4.84321 20.1414 4.7524L20.1647 4.74818V5.53485L20.1485 5.53774C19.653 5.62877 19.1307 5.67495 18.5958 5.67495ZM17.06 5.50066C17.5503 5.59014 18.067 5.63543 18.5958 5.63543C19.1225 5.63543 19.637 5.59036 20.1252 5.50177V4.79547C19.6367 4.88384 19.1223 4.92847 18.5958 4.92847C18.0672 4.92847 17.5505 4.8834 17.06 4.79436V5.50066Z" fill="#7B9090"/>
<path opacity="0.55" d="M19.9664 6.39214C19.4097 6.49205 18.5125 6.6175 18.0154 6.25625C17.1983 5.6623 16.823 4.6163 16.7842 4.50195C16.7837 5.73913 16.8135 7.45102 16.8135 7.45102C16.8135 7.45102 16.8632 8.01054 18.5947 8.01054C20.3263 8.01054 20.3758 7.45102 20.3758 7.45102C20.3758 7.45102 20.3843 6.9601 20.3922 6.31398C20.2317 6.34839 20.0798 6.37171 19.9664 6.39214Z" fill="#D5C8B8"/>
<path opacity="0.32" d="M17.2686 7.92673C17.5006 8.00311 17.8287 8.0644 18.2946 8.08283V3.46606C17.9298 3.44385 17.5845 3.38746 17.2686 3.31641V7.92673Z" fill="#D7CBBB"/>
<path d="M18.6198 3.42865C17.8999 3.42865 16.7078 3.15177 16.7061 3.17087C17.1077 3.34516 17.8975 3.52013 18.6198 3.52013C19.3203 3.52013 20.0379 3.36226 20.4858 3.18485C20.4842 3.16643 19.3181 3.42865 18.6198 3.42865Z" fill="#F6F3EF"/>
<g opacity="0.55">
<path opacity="0.32" d="M19.8346 7.92673C19.6026 8.00311 19.2744 8.0644 18.8086 8.08283V3.46606C19.1734 3.44385 19.5187 3.38746 19.8346 3.31641V7.92673Z" fill="#FDFCFC"/>
</g>
<path d="M22.7664 8.00466C22.7664 8.31196 22.4376 8.56108 22.0321 8.56108C21.6267 8.56108 21.2979 8.31196 21.2979 8.00466C21.2979 7.69736 21.6267 7.44824 22.0321 7.44824C22.4378 7.44824 22.7664 7.69736 22.7664 8.00466Z" fill="#F81A23"/>
<path opacity="0.55" d="M22.2692 8.02237C22.4362 8.02237 22.5716 7.92663 22.5716 7.80855C22.5716 7.69046 22.4362 7.59473 22.2692 7.59473C22.1022 7.59473 21.9668 7.69046 21.9668 7.80855C21.9668 7.92663 22.1022 8.02237 22.2692 8.02237Z" fill="#FFBAB3"/>
<path opacity="0.55" d="M22.2062 8.22933C21.8008 8.22933 21.4719 7.98021 21.4719 7.67291C21.4719 7.66225 21.4733 7.65204 21.4739 7.6416C21.3645 7.73885 21.2979 7.86475 21.2979 8.00263C21.2979 8.30993 21.6267 8.55905 22.0321 8.55905C22.4236 8.55905 22.7426 8.32658 22.7644 8.03394C22.6298 8.15339 22.43 8.22933 22.2062 8.22933Z" fill="#B36652"/>
<path d="M21.2449 8.67458C21.2449 8.98188 20.9163 9.231 20.5106 9.231C20.105 9.231 19.7764 8.98188 19.7764 8.67458C19.7764 8.36729 20.1052 8.11816 20.5106 8.11816C20.9161 8.11816 21.2449 8.36729 21.2449 8.67458Z" fill="#F81A23"/>
<path opacity="0.55" d="M20.7477 8.67666C20.9147 8.67666 21.0501 8.58093 21.0501 8.46284C21.0501 8.34475 20.9147 8.24902 20.7477 8.24902C20.5807 8.24902 20.4453 8.34475 20.4453 8.46284C20.4453 8.58093 20.5807 8.67666 20.7477 8.67666Z" fill="#FFBAB3"/>
<path opacity="0.55" d="M20.6867 8.90218C20.2812 8.90218 19.9524 8.65305 19.9524 8.34576C19.9524 8.3351 19.9537 8.32489 19.9544 8.31445C19.8449 8.4117 19.7783 8.5376 19.7783 8.67526C19.7783 8.98256 20.1072 9.23168 20.5126 9.23168C20.904 9.23168 21.2231 8.99921 21.2449 8.70656C21.1103 8.82624 20.9103 8.90218 20.6867 8.90218Z" fill="#B36652"/>
<path d="M16.0918 33.7692C19.0542 30.8068 19.0542 26.0038 16.0918 23.0413C13.1294 20.0789 8.32635 20.0789 5.36393 23.0413C2.40151 26.0038 2.40151 30.8068 5.36393 33.7692C8.32635 36.7316 13.1294 36.7316 16.0918 33.7692Z" fill="#DAEBFD"/>
<path d="M6.95801 33.3709V23.9553C6.95801 23.8387 7.05259 23.7441 7.16916 23.7441H14.1062C14.2228 23.7441 14.3173 23.8387 14.3173 23.9553V33.3709C14.3173 33.4875 14.2228 33.5821 14.1062 33.5821H7.16916C7.05259 33.5821 6.95801 33.4877 6.95801 33.3709Z" fill="#00BADB"/>
<path d="M13.6854 24.6025H7.58984V32.9342H13.6854V24.6025Z" fill="white"/>
<path d="M13.3529 24.8066H7.92285V26.4082H13.3529V24.8066Z" fill="#F81A23"/>
<path d="M13.0019 30.2012H8.1416V30.4525H13.0019V30.2012Z" fill="#CACACA"/>
<path d="M13.0019 30.6719H8.1416V30.9232H13.0019V30.6719Z" fill="#CACACA"/>
<path d="M13.0019 31.1436H8.1416V31.3949H13.0019V31.1436Z" fill="#CACACA"/>
<path d="M13.0019 31.6123H8.1416V31.8636H13.0019V31.6123Z" fill="#CACACA"/>
<path d="M11.9713 32.083H8.1416V32.3343H11.9713V32.083Z" fill="#CACACA"/>
<path d="M11.2531 23.2082H11.1261V23.2033C11.1261 22.9362 10.9096 22.7197 10.6425 22.7197H10.6327C10.3656 22.7197 10.1491 22.9362 10.1491 23.2033V23.2082H10.0221C9.56385 23.2082 9.19238 23.5797 9.19238 24.0379V24.0464H12.0831V24.0379C12.0831 23.5797 11.7116 23.2082 11.2531 23.2082ZM10.6376 23.4023C10.5455 23.4023 10.4709 23.3277 10.4709 23.2355C10.4709 23.1434 10.5455 23.0688 10.6376 23.0688C10.7298 23.0688 10.8044 23.1434 10.8044 23.2355C10.8044 23.3277 10.7298 23.4023 10.6376 23.4023Z" fill="#382040"/>
<path d="M9.15573 25.4383H8.81313V25.0957H8.47053V25.4383H8.12793V25.7811H8.47053V26.1237H8.81313V25.7811H9.15573V25.4383Z" fill="white"/>
<path d="M12.6955 27.165C12.6955 27.165 11.9208 28.3549 12.7066 28.3476C13.4924 28.3403 12.6955 27.165 12.6955 27.165Z" fill="#F81A14"/>
<path d="M12.9956 28.0065C12.9965 28.0906 12.9317 28.1594 12.8513 28.1601C12.7707 28.1608 12.7048 28.0933 12.7041 28.0091C12.7032 27.925 12.7681 27.8561 12.8484 27.8555C12.9288 27.8546 12.9948 27.9223 12.9956 28.0065Z" fill="#FEE6E5"/>
<path d="M13.1196 29.7159C13.0139 29.6769 12.8829 29.61 12.8016 29.539L12.8522 29.6786H8.16507V27.2795L8.27897 27.3457L8.12777 26.9756L7.97656 27.3457L8.09069 27.2795V29.7532H12.8522L12.8016 29.8929C12.8829 29.8221 13.0141 29.7552 13.1196 29.7159Z" fill="#989898"/>
<path d="M9.04264 28.1582H8.74512V29.6776H9.04264V28.1582Z" fill="#5EC559"/>
<path d="M9.72526 27.7559H9.42773V29.6776H9.72526V27.7559Z" fill="#7BCAE9"/>
<path d="M10.4089 27.4805H10.1113V29.6784H10.4089V27.4805Z" fill="#F81A23"/>
<path d="M11.0924 27.9463H10.7949V29.679H11.0924V27.9463Z" fill="#7BCAE9"/>
<path d="M11.776 28.6641H11.4785V29.6772H11.776V28.6641Z" fill="#5EC559"/>
<mask id="mask0_394_18564" style="mask-type:luminance" maskUnits="userSpaceOnUse" x="55" y="9" width="19" height="18">
<path d="M67.1092 9.63436C62.4426 8.08907 57.4069 10.6193 55.8617 15.2857C54.3164 19.9522 56.8468 24.9878 61.5133 26.5331C66.1799 28.0784 71.2156 25.5482 72.7608 20.8817C74.3061 16.2153 71.7757 11.1796 67.1092 9.63436Z" fill="white"/>
</mask>
<g mask="url(#mask0_394_18564)">
<path d="M73.0945 19.4977C73.8772 14.6444 70.5774 10.0756 65.7242 9.29297C60.8711 8.51032 56.3023 11.8102 55.5197 16.6635C54.737 21.5168 58.0368 26.0856 62.89 26.8683C67.7431 27.6509 72.3119 24.351 73.0945 19.4977Z" fill="#DAEBFD"/>
</g>
<mask id="mask1_394_18564" style="mask-type:luminance" maskUnits="userSpaceOnUse" x="55" y="9" width="19" height="18">
<path d="M73.0945 19.4967C73.8772 14.6435 70.5774 10.0746 65.7242 9.29199C60.8711 8.50935 56.3023 11.8093 55.5197 16.6625C54.737 21.5158 58.0368 26.0847 62.89 26.8673C67.7431 27.6499 72.3119 24.35 73.0945 19.4967Z" fill="white"/>
</mask>
<g mask="url(#mask1_394_18564)">
<path d="M68.7262 16.0534C68.451 15.2124 69.3769 10.5781 69.6005 9.64551L59.4091 9.92705C59.6329 10.8549 60.6667 15.2124 60.3916 16.0534C59.9684 17.347 58.3169 20.6813 58.3311 22.7058C58.3447 24.6497 59.4926 26.8381 60.1101 28.4621H69.0077C69.6252 26.8383 70.7731 24.6499 70.7866 22.7058C70.8008 20.6813 69.1493 17.347 68.7262 16.0534Z" fill="#FFBBA6"/>
<path d="M60.7835 14.0466C60.7251 13.7002 59.8834 10.3013 59.8377 9.92871H59.4091C59.6329 10.8566 60.6667 15.214 60.3916 16.0551C59.9684 17.3487 58.3169 20.683 58.3311 22.7075C58.3447 24.6514 59.4926 26.8398 60.0715 27.6624H61.0044C60.1345 26.1728 59.7941 25.413 59.5073 24.4001C59.0832 22.902 59.0763 21.878 59.3654 20.2971C59.4919 19.6054 59.9036 19.3956 60.1878 18.7384C60.5102 17.9926 60.8655 17.0212 61.1259 16.2345C61.2098 15.9807 61.1312 15.5251 61.0171 15.1212C60.9163 14.7657 60.8455 14.4143 60.7835 14.0466Z" fill="#FEB19E"/>
<path d="M68.726 16.0534C68.4509 15.2124 69.3768 10.5781 69.6003 9.64551H69.1707C69.1254 10.0201 68.3925 13.6985 68.3343 14.0449C68.2724 14.4126 68.2015 14.7639 68.1009 15.1198C67.9868 15.5237 67.9082 15.9793 67.9921 16.2331C68.2526 17.0197 68.6078 17.9909 68.9302 18.7369C69.2142 19.3942 69.6261 19.6038 69.7527 20.2956C70.0417 21.8765 70.0349 22.9005 69.6108 24.3986C69.3241 25.4115 68.9835 26.1713 68.1136 27.661H69.0466C69.6254 26.8383 70.7734 24.65 70.7869 22.706C70.8007 20.6813 69.1492 17.347 68.726 16.0534Z" fill="#FEB19E"/>
<path d="M70.7871 22.706C70.79 22.301 70.7236 21.8445 70.617 21.364C70.6239 21.3627 70.6305 21.3607 70.6372 21.3594C70.4602 20.5938 70.1698 19.7645 69.861 18.9743C68.3023 19.6488 67.0127 20.207 64.5415 20.207C62.3378 20.207 61.0264 19.6561 59.3054 18.8506C58.9786 19.6772 58.6673 20.5538 58.481 21.3594C58.4877 21.3607 58.4943 21.3627 58.5012 21.364C58.3946 21.8443 58.3283 22.301 58.3311 22.706C58.3447 24.6499 59.4926 26.8383 60.1101 28.4622H69.0077C69.6256 26.8385 70.7735 24.6501 70.7871 22.706Z" fill="#0F75BD"/>
<path d="M64.5591 24.2899C64.1743 24.2899 63.3676 23.6709 62.9971 23.5557C63.3046 23.7453 64.234 24.6892 64.3644 24.7309L64.4707 28.4637H64.6472L64.7536 24.7309C64.8839 24.6892 65.8054 23.7924 66.199 23.5759C65.6797 23.6809 64.971 24.2899 64.5591 24.2899Z" fill="#004F83"/>
<path d="M64.7269 17.2702C64.7267 17.4898 64.6514 17.6672 64.5592 17.6672C64.4671 17.6672 64.392 17.4898 64.3916 17.2702C64.3914 17.0497 64.4664 16.8701 64.5592 16.8701C64.6523 16.8699 64.7273 17.0495 64.7269 17.2702Z" fill="#FEB19E"/>
<path d="M68.7136 14.8334C68.7421 14.1795 69.4666 10.2077 69.6013 9.64622L65.95 8.71523C65.0814 8.49386 64.1712 8.51185 63.3113 8.76763L59.4102 9.92798C59.5449 10.4866 60.3587 14.2108 60.3873 14.8645L60.6924 14.9096C63.3015 15.3965 65.9617 15.3878 68.5691 14.8834L68.7136 14.8334Z" fill="#F81A23"/>
</g>
<mask id="mask2_394_18564" style="mask-type:luminance" maskUnits="userSpaceOnUse" x="55" y="9" width="19" height="18">
<path d="M73.0945 19.4967C73.8772 14.6435 70.5774 10.0746 65.7242 9.29199C60.8711 8.50935 56.3023 11.8093 55.5197 16.6625C54.737 21.5158 58.0368 26.0847 62.89 26.8673C67.7431 27.6499 72.3119 24.35 73.0945 19.4967Z" fill="white"/>
</mask>
<g mask="url(#mask2_394_18564)">
<path d="M66.9201 19.308C67.4418 19.308 67.8647 18.8851 67.8647 18.3635C67.8647 17.8418 67.4418 17.4189 66.9201 17.4189C66.3985 17.4189 65.9756 17.8418 65.9756 18.3635C65.9756 18.8851 66.3985 19.308 66.9201 19.308Z" fill="#5E646B"/>
</g>
<mask id="mask3_394_18564" style="mask-type:luminance" maskUnits="userSpaceOnUse" x="55" y="9" width="19" height="18">
<path d="M73.0945 19.4967C73.8772 14.6435 70.5774 10.0746 65.7242 9.29199C60.8711 8.50935 56.3023 11.8093 55.5197 16.6625C54.737 21.5158 58.0368 26.0847 62.89 26.8673C67.7431 27.6499 72.3119 24.35 73.0945 19.4967Z" fill="white"/>
</mask>
<g mask="url(#mask3_394_18564)">
<path d="M67.5494 18.3631C67.5494 18.7108 67.2674 18.9928 66.9197 18.9928C66.572 18.9928 66.29 18.7108 66.29 18.3631C66.29 18.0154 66.572 17.7334 66.9197 17.7334C67.2674 17.7334 67.5494 18.0154 67.5494 18.3631Z" fill="#868B90"/>
</g>
<mask id="mask4_394_18564" style="mask-type:luminance" maskUnits="userSpaceOnUse" x="55" y="9" width="19" height="18">
<path d="M73.0945 19.4967C73.8772 14.6435 70.5774 10.0746 65.7242 9.29199C60.8711 8.50935 56.3023 11.8093 55.5197 16.6625C54.737 21.5158 58.0368 26.0847 62.89 26.8673C67.7431 27.6499 72.3119 24.35 73.0945 19.4967Z" fill="white"/>
</mask>
<g mask="url(#mask4_394_18564)">
<path d="M63.93 19.2796C62.7512 19.2796 61.4159 18.9143 60.2608 17.684C60.2022 17.6216 60.2051 17.5235 60.2677 17.4649C60.3299 17.406 60.4283 17.4096 60.4869 17.4718C63.1457 20.3043 66.7325 18.317 66.8846 18.2309C66.9581 18.1876 67.0529 18.2149 67.0957 18.2891C67.1381 18.3634 67.112 18.458 67.0378 18.5004C67.014 18.5138 65.6363 19.2796 63.93 19.2796Z" fill="#5E646B"/>
</g>
<mask id="mask5_394_18564" style="mask-type:luminance" maskUnits="userSpaceOnUse" x="55" y="9" width="19" height="18">
<path d="M73.0945 19.4967C73.8772 14.6435 70.5774 10.0746 65.7242 9.29199C60.8711 8.50935 56.3023 11.8093 55.5197 16.6625C54.737 21.5158 58.0368 26.0847 62.89 26.8673C67.7431 27.6499 72.3119 24.35 73.0945 19.4967Z" fill="white"/>
</mask>
<g mask="url(#mask5_394_18564)">
<path d="M61.3046 18.0787H57.8268C57.6463 18.0787 57.5 17.925 57.5 17.7354V15.8872C57.5 15.6976 57.6463 15.5439 57.8268 15.5439H61.3046C61.4851 15.5439 61.6316 15.6976 61.6316 15.8872V17.7354C61.6314 17.925 61.4851 18.0787 61.3046 18.0787Z" fill="#5E646B"/>
<path d="M61.1586 15.9424H57.9727V17.676H61.1586V15.9424Z" fill="#0FC4BD"/>
<path d="M61.0834 16.0439H58.0469V17.5782H61.0834V16.0439Z" fill="#EEEEEF"/>
<path d="M60.5631 17.3835C60.5183 17.3668 60.463 17.3386 60.4286 17.3086L60.4499 17.3677H58.4647V16.3514L58.5129 16.3794L58.4489 16.2227L58.3848 16.3794L58.4332 16.3514V17.3992H60.4499L60.4286 17.4585C60.4628 17.4283 60.5183 17.4001 60.5631 17.3835Z" fill="#989898"/>
<path d="M58.6347 17.2287L58.5605 17.2057C58.5972 17.0871 58.6765 16.9221 58.7628 16.84C58.8199 16.7865 58.8774 16.7665 58.9329 16.778C59.0219 16.7982 59.0772 16.8977 59.1079 16.9776C59.1214 17.0132 59.1498 17.0727 59.1869 17.0727H59.1874C59.238 17.072 59.3144 16.9761 59.3543 16.8633C59.3612 16.8435 59.3683 16.82 59.3763 16.7942C59.4174 16.6579 59.4795 16.4521 59.6352 16.4359C59.8328 16.4154 59.8679 16.6412 59.8903 16.8064C59.8999 16.8746 59.9085 16.9392 59.9258 16.9743C59.9476 17.0183 59.9698 17.0442 59.9878 17.0471C60.0109 17.0531 60.0575 17.0112 60.0879 16.9805C60.1672 16.8999 60.2385 16.858 60.3724 16.8806L60.359 16.957C60.2662 16.9408 60.218 16.9585 60.1432 17.0345C60.0926 17.0862 60.0377 17.1328 59.9758 17.1235C59.9294 17.1162 59.8916 17.0795 59.8561 17.0085C59.8332 16.9621 59.8235 16.8915 59.8135 16.8167C59.7882 16.6313 59.7655 16.4991 59.643 16.5129C59.5388 16.5238 59.4855 16.6999 59.4505 16.8164C59.442 16.8437 59.4347 16.8684 59.4274 16.8888C59.3956 16.9785 59.305 17.1484 59.1885 17.1497C59.188 17.1497 59.1876 17.1499 59.1869 17.1499C59.1234 17.1499 59.0723 17.1011 59.0357 17.0049C59.0024 16.9183 58.9587 16.8631 58.9158 16.8535C58.8878 16.8466 58.8534 16.8608 58.8163 16.8964C58.7431 16.9656 58.6696 17.116 58.6347 17.2287Z" fill="#F81A23"/>
</g>
</svg>
