<svg width="60" height="59" viewBox="0 0 60 59" fill="none" xmlns="http://www.w3.org/2000/svg">
<path d="M45.9752 13.2006L46.2553 4.03834C46.2615 3.83399 46.0975 3.66504 45.8932 3.66504H33.226C33.0259 3.66504 32.8638 3.8272 32.8638 4.0273V14.8578C32.8638 16.8599 31.771 18.7149 29.9988 19.6467C23.5853 23.0192 19.1788 29.6928 19.0395 37.4089C18.8311 48.9525 28.3072 58.4493 39.8513 58.2651C51.0094 58.087 60 48.9864 60 37.7858C60 30.2023 55.8782 23.5824 49.753 20.0421C47.3281 18.6405 45.8896 16.0001 45.9752 13.2006Z" fill="url(#paint0_linear_394_18720)"/>
<path opacity="0.35" d="M39.5206 56.8512C34.384 56.8508 29.5579 54.8168 25.9311 51.1237C22.3067 47.433 20.3617 42.5712 20.4543 37.4336C20.5799 30.4779 24.4894 24.1423 30.657 20.899C32.8909 19.7244 34.2788 17.4093 34.2788 14.857V5.08008H44.8061L44.5592 13.1566C44.457 16.5014 46.1754 19.6093 49.0437 21.2672C51.8924 22.9137 54.2816 25.2821 55.9531 28.1164C57.6738 31.034 58.5834 34.3774 58.5834 37.7852C58.5834 42.824 56.6362 47.5756 53.1005 51.1647C49.5687 54.75 44.8551 56.7686 39.8279 56.8489C39.7254 56.8506 39.6242 56.8513 39.5221 56.8513C39.5216 56.8512 39.521 56.8512 39.5206 56.8512Z" fill="#DADADA"/>
<path d="M46.2624 4.70414H32.6803C31.583 4.70414 30.6934 3.81455 30.6934 2.71721C30.6934 1.6613 31.5192 0.789827 32.5735 0.733195L46.1557 0.00292476C47.2933 -0.0582379 48.2493 0.847687 48.2493 1.98693V2.71711C48.2493 3.81454 47.3597 4.70414 46.2624 4.70414Z" fill="url(#paint1_linear_394_18720)"/>
<path d="M55.9531 28.1168C54.2816 25.2826 51.8923 22.9142 49.0437 21.2677C46.1754 19.6098 44.4571 16.502 44.5592 13.157L44.5868 12.2539H34.2788V14.8575C34.2788 17.4097 32.8909 19.7248 30.657 20.8995C24.4893 24.1428 20.5799 30.4784 20.4543 37.4341C20.3617 42.5717 22.3067 47.4335 25.9311 51.1243C29.5579 54.8173 34.384 56.8514 39.5206 56.8517C39.521 56.8517 39.5216 56.8517 39.5222 56.8517C39.6243 56.8517 39.7255 56.8509 39.828 56.8493C44.8551 56.7691 49.5688 54.7505 53.1006 51.1651C56.6362 47.576 58.5834 42.8244 58.5834 37.7855C58.5834 34.3779 57.6739 31.0344 55.9531 28.1168Z" fill="url(#paint2_linear_394_18720)"/>
<path d="M54.002 27.9125C54.0147 28.3373 53.9979 28.7596 53.9705 29.1827C53.9432 29.6055 53.9014 30.028 53.8406 30.4483C53.7205 31.2888 53.5506 32.1275 53.2941 32.9462C53.1655 33.3553 53.0168 33.7595 52.8506 34.1587C52.6783 34.5553 52.4879 34.9463 52.2695 35.3255C51.8272 36.0788 51.273 36.7876 50.5808 37.3681L50.452 37.4776L50.3159 37.5787C50.2241 37.6452 50.136 37.7152 50.0404 37.7787C49.8434 37.8993 49.6494 38.0296 49.4393 38.1251L49.284 38.2022L49.2063 38.2405L49.1264 38.2725L48.8061 38.3996C48.6992 38.4428 48.5892 38.4702 48.4804 38.5056C48.3712 38.5383 48.2622 38.5749 48.1516 38.5972C47.2692 38.8115 46.3728 38.8771 45.4968 38.8513C44.6193 38.8267 43.7557 38.7296 42.9055 38.5963C42.0559 38.4589 41.2193 38.2858 40.3907 38.1023C38.7363 37.7315 37.1082 37.3005 35.5059 36.9989C35.1055 36.9239 34.7078 36.8625 34.3154 36.8178L34.0221 36.7871L33.7329 36.768C33.6374 36.76 33.5389 36.757 33.4405 36.7543C33.3424 36.7519 33.2435 36.7458 33.1463 36.7476C32.3646 36.741 31.599 36.8192 30.8959 37.0256C30.5462 37.1323 30.2115 37.2657 29.8987 37.4345C29.5878 37.6061 29.2918 37.8021 29.0227 38.0378C28.4769 38.5001 28.0315 39.1058 27.65 39.7779C27.4637 40.1169 27.2922 40.4728 27.1345 40.84L27.0199 41.1186C26.981 41.2115 26.9434 41.3052 26.9099 41.401L26.8019 41.6864C26.7665 41.7821 26.7351 41.8795 26.7015 41.9762C26.6316 42.1692 26.569 42.3659 26.5062 42.5632C26.4374 42.7594 26.3854 42.9605 26.3196 43.1598L26.1396 43.7645C26.0803 43.9673 26.0237 44.1715 25.9565 44.3757L25.9562 44.3768C25.9486 44.3997 25.9239 44.4121 25.9008 44.4042C25.8841 44.3986 25.873 44.3839 25.871 44.3674C25.8454 44.1536 25.8283 43.9393 25.8124 43.7243C25.8036 43.5099 25.7928 43.2944 25.792 43.0792C25.7913 42.6485 25.8065 42.2158 25.8516 41.7833C25.8903 41.35 25.9664 40.9185 26.0564 40.4859C26.16 40.0565 26.2804 39.6255 26.4471 39.2046C26.6119 38.7825 26.8193 38.3716 27.0651 37.975C27.1288 37.877 27.1958 37.781 27.2615 37.684L27.477 37.4034C27.6278 37.2212 27.7833 37.04 27.9588 36.8769C28.6457 36.2076 29.5224 35.7272 30.4261 35.4672C31.3324 35.2062 32.2534 35.125 33.1472 35.136C33.2597 35.1348 33.3704 35.1418 33.4819 35.1451C33.5931 35.149 33.7043 35.1525 33.8179 35.1628L34.1565 35.1904L34.489 35.2298C34.9303 35.2863 35.3623 35.36 35.7867 35.4457C36.6366 35.6152 37.4648 35.8194 38.2824 36.0341L40.7177 36.6699C41.5245 36.8768 42.3294 37.0708 43.1345 37.2285C43.9387 37.3875 44.7437 37.5132 45.5429 37.5689C46.3418 37.6286 47.1348 37.611 47.8894 37.4678C47.9854 37.4544 48.0762 37.4277 48.1688 37.4054C48.2602 37.3806 48.3558 37.3646 48.4447 37.3339L48.7137 37.246L48.7811 37.2242L48.8456 37.1966L48.9747 37.1417C49.1516 37.0758 49.3101 36.9793 49.4762 36.8935C49.5578 36.8464 49.6368 36.7904 49.7177 36.7394L49.8386 36.6612L49.9539 36.5743C50.2686 36.3516 50.5529 36.083 50.8252 35.8009C51.0976 35.5175 51.3364 35.1994 51.5704 34.8755C51.7981 34.5465 52.0047 34.1995 52.1968 33.8421C52.3832 33.4814 52.5559 33.1112 52.7107 32.7313C52.862 32.3502 53.0032 31.963 53.1319 31.5701C53.2579 31.1763 53.37 30.7767 53.4691 30.3729C53.6649 29.5652 53.825 28.7416 53.9162 27.9093L53.9163 27.9081C53.9188 27.8845 53.94 27.8676 53.9636 27.8704C53.9854 27.8732 54.0015 27.8914 54.002 27.9125Z" fill="url(#paint3_linear_394_18720)"/>
<path d="M42.7802 38.0287C42.7758 38.0228 42.7716 38.0166 42.7677 38.0101L40.3438 33.996C40.2822 33.894 40.3143 33.762 40.4154 33.7012C40.5166 33.6404 40.6484 33.6741 40.7102 33.7758L43.134 37.7899C43.1956 37.8919 43.1635 38.024 43.0625 38.0848C42.9677 38.1417 42.8459 38.1159 42.7802 38.0287Z" fill="url(#paint4_linear_394_18720)"/>
<path d="M45.4607 38.3438C45.4575 38.3395 45.4543 38.3351 45.4513 38.3304L41.1508 31.6398C41.0863 31.5395 41.1146 31.4066 41.214 31.343C41.3134 31.2794 41.4457 31.3094 41.5107 31.4093L45.8112 38.0999C45.8757 38.2003 45.8474 38.3332 45.748 38.3968C45.6532 38.4575 45.528 38.4332 45.4607 38.3438Z" fill="url(#paint5_linear_394_18720)"/>
<path d="M41.5417 29.1014C41.4677 29.0031 41.4835 28.866 41.5774 28.7948C41.6714 28.7235 41.808 28.7455 41.8826 28.8437L48.5842 37.6816C48.5844 37.6818 48.5845 37.6821 48.5846 37.6823C48.6586 37.7807 48.6427 37.9177 48.549 37.9889C48.455 38.0602 48.3183 38.0382 48.2437 37.9399L41.5422 29.102C41.542 29.1019 41.5418 29.1016 41.5417 29.1014Z" fill="url(#paint6_linear_394_18720)"/>
<path d="M42.5886 27.3503C42.5182 27.2567 42.5345 27.1241 42.6261 27.0521C42.7188 26.9792 42.8538 26.9962 42.9273 27.0899L50.5241 36.7709C50.5987 36.8645 50.5821 36.9998 50.4892 37.0726C50.3965 37.1455 50.2616 37.1285 50.188 37.0348L42.5912 27.3538C42.5904 27.3527 42.5895 27.3515 42.5886 27.3503Z" fill="url(#paint7_linear_394_18720)"/>
<path d="M51.4646 35.6519C51.4637 35.6506 51.4627 35.6494 51.4619 35.6481L44.3555 25.7831C44.2858 25.6863 44.307 25.552 44.4027 25.4831C44.4985 25.4142 44.6332 25.4373 44.7023 25.5334L51.8087 35.3984C51.8783 35.4952 51.8572 35.6295 51.7615 35.6984C51.6669 35.7665 51.535 35.7454 51.4646 35.6519Z" fill="url(#paint8_linear_394_18720)"/>
<path d="M52.5822 33.6144C52.5809 33.6126 52.5796 33.6109 52.5782 33.609L46.4667 24.9657C46.3979 24.8684 46.4202 24.7342 46.5166 24.6662C46.6131 24.5981 46.7442 24.6204 46.8158 24.7192L52.9274 33.3626C52.9962 33.4599 52.9739 33.594 52.8775 33.6621C52.7829 33.7289 52.6522 33.7073 52.5822 33.6144Z" fill="url(#paint9_linear_394_18720)"/>
<path d="M53.1215 31.3932C53.1185 31.3893 53.1157 31.3851 53.1129 31.3809L48.8633 24.7962C48.8003 24.6987 48.8296 24.5676 48.9286 24.5034C49.0276 24.4391 49.1595 24.4672 49.2217 24.5636L53.4714 31.1483C53.5344 31.2458 53.5051 31.3769 53.4061 31.4411C53.3113 31.5025 53.1872 31.4805 53.1215 31.3932Z" fill="url(#paint10_linear_394_18720)"/>
<path d="M33.5016 36.1208C33.4391 36.0377 33.4435 35.9199 33.5169 35.8429C33.5983 35.7575 33.734 35.7552 33.82 35.8378L39.6136 41.4033C39.6997 41.4856 39.7032 41.6221 39.6216 41.7075C39.5401 41.7929 39.4044 41.7951 39.3184 41.7126L33.5248 36.147C33.5163 36.1388 33.5085 36.13 33.5016 36.1208Z" fill="url(#paint11_linear_394_18720)"/>
<path d="M31.6277 36.1414C31.5591 36.0504 31.5723 35.9212 31.6596 35.8477C31.7498 35.7716 31.8851 35.784 31.9619 35.8753L38.7971 44.0086C38.8753 44.1001 38.8628 44.2355 38.7725 44.3115C38.6823 44.3875 38.547 44.3752 38.4702 44.2839L31.635 36.1506C31.6325 36.1477 31.63 36.1445 31.6277 36.1414Z" fill="url(#paint12_linear_394_18720)"/>
<path d="M29.6922 36.6716C29.6217 36.578 29.638 36.4453 29.7297 36.3734C29.8226 36.3005 29.9575 36.3175 30.031 36.4113L37.8874 46.4321C37.9627 46.5267 37.9453 46.6609 37.8525 46.7338C37.7596 46.8067 37.6247 46.7897 37.5512 46.6958L29.6948 36.6751C29.6939 36.674 29.693 36.6728 29.6922 36.6716Z" fill="url(#paint13_linear_394_18720)"/>
<path d="M35.7838 48.5107C35.7829 48.5096 35.7822 48.5085 35.7813 48.5074C35.7813 48.5074 33.8498 45.8396 31.9217 43.1681C30.8023 41.617 29.9115 40.3799 29.274 39.491C28.9135 38.9884 28.6138 38.5689 28.4051 38.2741C28.3002 38.1259 28.2181 38.009 28.1627 37.9289C28.0626 37.784 27.9763 37.6589 28.1044 37.5301C28.1876 37.4465 28.3233 37.4471 28.4076 37.5314C28.4256 37.5492 28.4396 37.5695 28.45 37.5911C28.6943 37.9789 34.0632 45.4058 36.1274 48.2569C36.1974 48.3535 36.1765 48.4879 36.0809 48.557C35.9865 48.6254 35.8544 48.6044 35.7838 48.5107ZM28.4448 37.7888C28.4356 37.8056 28.4238 37.8213 28.4095 37.8356C28.424 37.821 28.4357 37.8053 28.4448 37.7888ZM28.4569 37.6068C28.4652 37.6284 28.47 37.651 28.4711 37.6738C28.47 37.6498 28.465 37.627 28.4569 37.6068Z" fill="url(#paint14_linear_394_18720)"/>
<path d="M33.2968 49.3515C33.2925 49.3457 33.2884 49.3397 33.2846 49.3333L27.0229 39.0239C26.9609 38.9219 26.9927 38.7899 27.0937 38.7288C27.1946 38.6678 27.3267 38.701 27.3886 38.8027L33.6503 49.1123C33.7122 49.2142 33.6805 49.3463 33.5795 49.4073C33.4848 49.4645 33.3627 49.439 33.2968 49.3515Z" fill="url(#paint15_linear_394_18720)"/>
<path d="M30.058 49.7367C30.0486 49.7243 30.0406 49.7109 30.0339 49.6962L26.221 41.3746C26.1713 41.2663 26.2182 41.1389 26.3258 41.0902C26.4333 41.0415 26.5609 41.09 26.6104 41.1982L30.4234 49.5198C30.473 49.6282 30.426 49.7555 30.3185 49.8042C30.2255 49.8463 30.1175 49.8158 30.058 49.7367Z" fill="url(#paint16_linear_394_18720)"/>
<path d="M52.4423 25.4594C51.5909 25.2582 50.7311 25.1325 49.8797 25.0812C49.0287 25.0306 48.1828 25.0578 47.371 25.201C46.9655 25.2723 46.5681 25.3698 46.1864 25.5013C45.8053 25.6347 45.4368 25.7938 45.0901 25.9888C44.7441 26.1849 44.4164 26.4096 44.116 26.6681C43.8138 26.9241 43.5345 27.2086 43.2834 27.5198C42.7767 28.1385 42.3736 28.8542 42.0679 29.62C41.9875 29.8095 41.9216 30.0065 41.8509 30.201C41.7887 30.3995 41.7218 30.596 41.6677 30.7982C41.5501 31.1986 41.4592 31.6095 41.3765 32.0228C41.3403 32.2309 41.2978 32.4374 41.2692 32.6476L41.2219 32.9618L41.1781 33.2852L41.0056 34.5822L40.6636 37.183C40.4241 38.9182 40.1812 40.6628 39.7753 42.3942C39.5724 43.2589 39.3264 44.1212 38.9925 44.9599C38.6601 45.7975 38.2194 46.6091 37.6368 47.3206C37.0528 48.03 36.3154 48.6171 35.4975 49.0179C34.6784 49.4198 33.7979 49.6479 32.9185 49.7737C32.0374 49.9037 31.1506 49.9185 30.2718 49.8901C29.8322 49.8732 29.3936 49.8452 28.957 49.7999C28.5201 49.7594 28.0852 49.7036 27.6515 49.6419C27.628 49.6385 27.6115 49.6167 27.6146 49.5932C27.6176 49.5711 27.6373 49.5552 27.6592 49.5563C28.5311 49.6016 29.4027 49.62 30.2692 49.5918C30.7024 49.5774 31.1338 49.5469 31.5625 49.5027C31.9907 49.4558 32.4153 49.3914 32.8338 49.3078C33.6695 49.1388 34.4821 48.8735 35.2052 48.4643C35.9307 48.0607 36.5595 47.5131 37.0527 46.8549C37.5474 46.196 37.9069 45.4371 38.1953 44.6471C38.4813 43.8547 38.6901 43.0258 38.8586 42.1844C39.028 41.3428 39.1552 40.4877 39.2739 39.6286C39.3921 38.7694 39.4941 37.9047 39.5927 37.0378L39.8916 34.4324C39.9416 33.9973 39.9935 33.5624 40.048 33.1274L40.0889 32.8006L40.1358 32.4661C40.1641 32.2429 40.207 32.0207 40.2438 31.798C40.3279 31.3538 40.4216 30.9102 40.5453 30.4716C40.6016 30.2512 40.6754 30.0345 40.743 29.8165C40.8201 29.6008 40.8926 29.3837 40.9814 29.1712C41.3196 28.3177 41.7742 27.4934 42.3693 26.7638C42.6689 26.4016 43.0024 26.0634 43.37 25.7647C43.7392 25.4688 44.1364 25.205 44.5593 24.9942C45.4048 24.57 46.3286 24.3325 47.2467 24.2629C48.1664 24.1913 49.081 24.2732 49.9601 24.4654C50.3999 24.5621 50.8318 24.6852 51.2522 24.8375C51.6726 24.9898 52.0838 25.1615 52.4747 25.38C52.4956 25.3917 52.5033 25.4181 52.4919 25.4389C52.4824 25.4562 52.4629 25.4642 52.4446 25.4599L52.4423 25.4594Z" fill="url(#paint17_linear_394_18720)"/>
<g opacity="0.74">
<path d="M29.0546 7.86219L25.1689 14.0273L25.4085 14.1783L29.2941 8.01317L29.0546 7.86219Z" fill="#DADADA"/>
<path d="M37.4412 20.3554H29.1719V20.0722H37.2738L40.601 14.0322L40.849 14.1688L37.4412 20.3554Z" fill="#DADADA"/>
<path d="M29.1476 9.15261C29.8057 9.15261 30.3391 8.61914 30.3391 7.96107C30.3391 7.303 29.8057 6.76953 29.1476 6.76953C28.4895 6.76953 27.9561 7.303 27.9561 7.96107C27.9561 8.61914 28.4895 9.15261 29.1476 9.15261Z" fill="#DADADA"/>
<path d="M37.3322 21.4329C37.9902 21.4329 38.5237 20.8994 38.5237 20.2413C38.5237 19.5833 37.9902 19.0498 37.3322 19.0498C36.6741 19.0498 36.1406 19.5833 36.1406 20.2413C36.1406 20.8994 36.6741 21.4329 37.3322 21.4329Z" fill="#DADADA"/>
<path d="M41.8518 15.2269C42.4587 14.62 42.4587 13.6359 41.8518 13.0289C41.2448 12.4219 40.2607 12.4219 39.6537 13.0289C39.0467 13.6359 39.0467 14.62 39.6537 15.227C40.2607 15.8339 41.2448 15.8339 41.8518 15.2269Z" fill="#DADADA"/>
<path d="M25.5266 26.1068H17.1795L13.2041 19.8522L17.176 13.5501L25.5272 13.0215L28.9704 19.8548L25.5266 26.1068ZM17.3349 25.8236H25.3592L28.6504 19.8489L25.3586 13.3159L17.3384 13.8235L13.5393 19.8516L17.3349 25.8236Z" fill="#DADADA"/>
<path d="M25.4172 15.0083C26.1326 15.0083 26.7124 14.4284 26.7124 13.7131C26.7124 12.9978 26.1326 12.418 25.4172 12.418C24.7019 12.418 24.1221 12.9978 24.1221 13.7131C24.1221 14.4284 24.7019 15.0083 25.4172 15.0083Z" fill="#DADADA"/>
<path d="M17.2312 26.769C17.6604 26.769 18.0083 26.4211 18.0083 25.9919C18.0083 25.5628 17.6604 25.2148 17.2312 25.2148C16.802 25.2148 16.4541 25.5628 16.4541 25.9919C16.4541 26.4211 16.802 26.769 17.2312 26.769Z" fill="#DADADA"/>
<path d="M25.4171 27.1829C26.0752 27.1829 26.6087 26.6494 26.6087 25.9913C26.6087 25.3333 26.0752 24.7998 25.4171 24.7998C24.7591 24.7998 24.2256 25.3333 24.2256 25.9913C24.2256 26.6494 24.7591 27.1829 25.4171 27.1829Z" fill="#DADADA"/>
<path d="M30.3498 20.2384C30.5484 19.4033 30.0324 18.5652 29.1973 18.3666C28.3621 18.168 27.5241 18.684 27.3255 19.5191C27.1268 20.3542 27.6428 21.1923 28.478 21.3909C29.3131 21.5895 30.1511 21.0736 30.3498 20.2384Z" fill="#DADADA"/>
<path d="M13.5547 19.9934H5.21171L1.23633 13.7388L5.20831 7.43668L13.5574 6.9082L17.2644 13.8988L13.5547 19.9934ZM5.36716 19.7103H13.3955L16.9387 13.8891L13.3928 7.20241L5.37056 7.71002L1.5714 13.7382L5.36716 19.7103Z" fill="#DADADA"/>
<path d="M6.42308 7.87355C6.57509 7.23324 6.17926 6.59095 5.53896 6.43893C4.89866 6.28692 4.25636 6.68275 4.10435 7.32305C3.95233 7.96335 4.34817 8.60565 4.98847 8.75767C5.62877 8.90968 6.27107 8.51385 6.42308 7.87355Z" fill="#DADADA"/>
<path d="M13.4495 8.89308C14.1648 8.89308 14.7446 8.31322 14.7446 7.59791C14.7446 6.8826 14.1648 6.30273 13.4495 6.30273C12.7342 6.30273 12.1543 6.8826 12.1543 7.59791C12.1543 8.31322 12.7342 8.89308 13.4495 8.89308Z" fill="url(#paint18_linear_394_18720)"/>
<path d="M5.26341 20.6548C5.69259 20.6548 6.0405 20.3068 6.0405 19.8777C6.0405 19.4485 5.69259 19.1006 5.26341 19.1006C4.83424 19.1006 4.48633 19.4485 4.48633 19.8777C4.48633 20.3068 4.83424 20.6548 5.26341 20.6548Z" fill="#DADADA"/>
<path d="M13.4494 21.0696C14.1074 21.0696 14.6409 20.5361 14.6409 19.8781C14.6409 19.22 14.1074 18.6865 13.4494 18.6865C12.7913 18.6865 12.2578 19.22 12.2578 19.8781C12.2578 20.5361 12.7913 21.0696 13.4494 21.0696Z" fill="#DADADA"/>
<path d="M2.59088 14.0327C2.73974 13.3916 2.34075 12.7513 1.69973 12.6025C1.05871 12.4536 0.418381 12.8526 0.269526 13.4936C0.120671 14.1346 0.519654 14.775 1.16068 14.9238C1.8017 15.0727 2.44203 14.6737 2.59088 14.0327Z" fill="#DADADA"/>
<path d="M17.968 14.8637C18.5749 14.2567 18.5749 13.2726 17.968 12.6656C17.361 12.0587 16.3769 12.0587 15.7699 12.6656C15.1629 13.2726 15.1629 14.2567 15.7699 14.8637C16.3769 15.4706 17.361 15.4706 17.968 14.8637Z" fill="#DADADA"/>
</g>
<defs>
<linearGradient id="paint0_linear_394_18720" x1="27.9057" y1="56.519" x2="42.063" y2="31.319" gradientUnits="userSpaceOnUse">
<stop stop-color="#53EAC9"/>
<stop offset="0.9964" stop-color="#45AED8"/>
</linearGradient>
<linearGradient id="paint1_linear_394_18720" x1="39.552" y1="0.13635" x2="39.4104" y2="4.66669" gradientUnits="userSpaceOnUse">
<stop stop-color="#53EAC9"/>
<stop offset="0.9964" stop-color="#45AED8"/>
</linearGradient>
<linearGradient id="paint2_linear_394_18720" x1="26.4402" y1="54.3255" x2="47.393" y2="27.0019" gradientUnits="userSpaceOnUse">
<stop stop-color="#A737D5"/>
<stop offset="1" stop-color="#EF497A"/>
</linearGradient>
<linearGradient id="paint3_linear_394_18720" x1="63.3613" y1="37.4696" x2="3.15081" y2="34.6629" gradientUnits="userSpaceOnUse">
<stop stop-color="#FDF53F"/>
<stop offset="0.6645" stop-color="#E57A58"/>
<stop offset="1" stop-color="#D93C65"/>
</linearGradient>
<linearGradient id="paint4_linear_394_18720" x1="40.2065" y1="33.8569" x2="43.2711" y2="37.9292" gradientUnits="userSpaceOnUse">
<stop stop-color="#FDF53F"/>
<stop offset="0.6645" stop-color="#E57A58"/>
<stop offset="1" stop-color="#D93C65"/>
</linearGradient>
<linearGradient id="paint5_linear_394_18720" x1="40.9663" y1="31.5286" x2="45.9954" y2="38.2113" gradientUnits="userSpaceOnUse">
<stop stop-color="#FDF53F"/>
<stop offset="0.6645" stop-color="#E57A58"/>
<stop offset="1" stop-color="#D93C65"/>
</linearGradient>
<linearGradient id="paint6_linear_394_18720" x1="41.5939" y1="28.7824" x2="48.532" y2="38.0017" gradientUnits="userSpaceOnUse">
<stop stop-color="#FDF53F"/>
<stop offset="0.6645" stop-color="#E57A58"/>
<stop offset="1" stop-color="#D93C65"/>
</linearGradient>
<linearGradient id="paint7_linear_394_18720" x1="42.7287" y1="26.9748" x2="50.3864" y2="37.1503" gradientUnits="userSpaceOnUse">
<stop stop-color="#FDF53F"/>
<stop offset="0.6645" stop-color="#E57A58"/>
<stop offset="1" stop-color="#D93C65"/>
</linearGradient>
<linearGradient id="paint8_linear_394_18720" x1="44.2975" y1="25.5623" x2="51.8663" y2="35.6196" gradientUnits="userSpaceOnUse">
<stop stop-color="#FDF53F"/>
<stop offset="0.6645" stop-color="#E57A58"/>
<stop offset="1" stop-color="#D93C65"/>
</linearGradient>
<linearGradient id="paint9_linear_394_18720" x1="46.3859" y1="24.7645" x2="53.008" y2="33.564" gradientUnits="userSpaceOnUse">
<stop stop-color="#FDF53F"/>
<stop offset="0.6645" stop-color="#E57A58"/>
<stop offset="1" stop-color="#D93C65"/>
</linearGradient>
<linearGradient id="paint10_linear_394_18720" x1="48.6907" y1="24.6816" x2="53.6436" y2="31.263" gradientUnits="userSpaceOnUse">
<stop stop-color="#FDF53F"/>
<stop offset="0.6645" stop-color="#E57A58"/>
<stop offset="1" stop-color="#D93C65"/>
</linearGradient>
<linearGradient id="paint11_linear_394_18720" x1="36.8015" y1="32.4746" x2="35.272" y2="64.9918" gradientUnits="userSpaceOnUse">
<stop stop-color="#FDF53F"/>
<stop offset="0.6645" stop-color="#E57A58"/>
<stop offset="1" stop-color="#D93C65"/>
</linearGradient>
<linearGradient id="paint12_linear_394_18720" x1="35.4991" y1="32.4126" x2="33.9695" y2="64.9301" gradientUnits="userSpaceOnUse">
<stop stop-color="#FDF53F"/>
<stop offset="0.6645" stop-color="#E57A58"/>
<stop offset="1" stop-color="#D93C65"/>
</linearGradient>
<linearGradient id="paint13_linear_394_18720" x1="34.1309" y1="32.3484" x2="32.6013" y2="64.866" gradientUnits="userSpaceOnUse">
<stop stop-color="#FDF53F"/>
<stop offset="0.6645" stop-color="#E57A58"/>
<stop offset="1" stop-color="#D93C65"/>
</linearGradient>
<linearGradient id="paint14_linear_394_18720" x1="31.8076" y1="31.6962" x2="32.7057" y2="65.9687" gradientUnits="userSpaceOnUse">
<stop stop-color="#FDF53F"/>
<stop offset="0.6645" stop-color="#E57A58"/>
<stop offset="1" stop-color="#D93C65"/>
</linearGradient>
<linearGradient id="paint15_linear_394_18720" x1="30.7745" y1="32.1912" x2="29.2449" y2="64.7091" gradientUnits="userSpaceOnUse">
<stop stop-color="#FDF53F"/>
<stop offset="0.6645" stop-color="#E57A58"/>
<stop offset="1" stop-color="#D93C65"/>
</linearGradient>
<linearGradient id="paint16_linear_394_18720" x1="28.8143" y1="32.0991" x2="27.2847" y2="64.6172" gradientUnits="userSpaceOnUse">
<stop stop-color="#FDF53F"/>
<stop offset="0.6645" stop-color="#E57A58"/>
<stop offset="1" stop-color="#D93C65"/>
</linearGradient>
<linearGradient id="paint17_linear_394_18720" x1="36.9001" y1="36.7832" x2="71.9043" y2="41.072" gradientUnits="userSpaceOnUse">
<stop stop-color="#FDF53F"/>
<stop offset="0.6645" stop-color="#E57A58"/>
<stop offset="1" stop-color="#D93C65"/>
</linearGradient>
<linearGradient id="paint18_linear_394_18720" x1="14.9299" y1="5.44601" x2="8.24707" y2="15.1595" gradientUnits="userSpaceOnUse">
<stop stop-color="#FDF53F"/>
<stop offset="0.6645" stop-color="#E57A58"/>
<stop offset="1" stop-color="#D93C65"/>
</linearGradient>
</defs>
</svg>
