<svg width="85" height="67" viewBox="0 0 85 67" fill="none" xmlns="http://www.w3.org/2000/svg">
<path fill-rule="evenodd" clip-rule="evenodd" d="M52.1742 21.833L52.018 21.3818L52.8183 18.7381L45.273 8.58189C45.273 8.58189 45.064 8.30008 44.939 8.24349C44.8136 8.18728 43.7363 7.894 43.7363 7.05946C43.7363 6.22492 43.7363 0.676431 43.7363 0.428457C43.7363 0.180483 44.0826 0 44.2182 0C44.3543 0 44.3543 0.496137 44.3543 0.789419C44.3543 0.789419 44.5994 0.708579 44.5994 0.969713C44.5994 1.23085 44.8341 2.46414 44.8967 2.91515C44.9595 3.36636 46.2226 6.4227 46.3896 6.73835C46.5565 7.05401 55.0266 15.4898 55.6949 16.1439C56.3631 16.7979 56.8429 17.4973 56.8015 18.1737C56.7598 18.8503 55.8066 25.3689 55.8066 25.3689L52.1742 21.833Z" fill="#E6AD83"/>
<path fill-rule="evenodd" clip-rule="evenodd" d="M46.0836 28.1561C44.4724 27.4597 42.9139 27.4597 41.3027 28.1561L41.5819 28.9H45.8042L46.0836 28.1561Z" fill="#ADB3D9"/>
<path fill-rule="evenodd" clip-rule="evenodd" d="M45.7124 24.0576L45.6545 25.4152C45.6545 25.4152 45.6545 28.1965 45.6545 28.6189C45.6545 28.8231 45.8448 29.1175 46.1807 29.3739C45.8867 29.6928 45.3394 30.2594 44.7814 30.6973H42.6893C42.131 30.2594 41.5841 29.6928 41.29 29.3739C41.6258 29.1177 41.8161 28.8231 41.8161 28.6189C41.8161 28.1965 41.8161 25.4152 41.8161 25.4152L41.7582 24.0576C41.7582 24.0576 42.7314 24.2323 43.7354 24.4784C44.7393 24.2323 45.7124 24.0576 45.7124 24.0576Z" fill="#E6AD83"/>
<path fill-rule="evenodd" clip-rule="evenodd" d="M44.3443 30.9447L43.9604 31.0004H43.7361H43.6937H43.6512H43.4269L43.043 30.9447L40.7809 28.8041L37.352 28.6943C37.352 28.6943 36.2755 33.9659 36.2755 38.1132L36.3819 39.9193C36.4137 40.4102 36.4458 40.8829 36.478 41.3378L36.4973 42.2602C36.4973 42.2602 36.1563 49.4918 36.237 49.8028C36.3174 50.113 36.9692 50.8537 36.9692 50.8537C36.9435 51.05 36.9154 51.2588 36.8856 51.4781C38.0587 51.9695 40.2389 52.6019 43.6514 52.5728L43.6938 52.573L43.7363 52.5728C47.1486 52.6019 49.329 51.9695 50.5019 51.4781C50.4721 51.2588 50.4439 51.05 50.4185 50.8537C50.4185 50.8537 51.0703 50.1132 51.1507 49.8028C51.2312 49.4918 50.8902 42.2602 50.8902 42.2602L50.9093 41.3378C50.9415 40.8829 50.9736 40.4102 51.0054 39.9193L51.112 38.1132C51.112 33.9657 50.0355 28.6943 50.0355 28.6943L46.6064 28.8041L44.3443 30.9447Z" fill="#E3A030"/>
<path fill-rule="evenodd" clip-rule="evenodd" d="M44.255 30.5908L43.9079 30.641H43.4785L43.1313 30.5908L41.7585 29.2913L41.5532 29.3549L41.1133 29.9333C41.1133 29.9333 42.1148 32.255 42.1738 32.3334C42.2325 32.4118 42.337 32.4511 42.487 32.2681C42.6374 32.085 43.1112 31.4876 43.1112 31.4876C43.1112 31.4876 43.2479 31.343 43.3121 31.506C43.3764 31.6688 44.0845 31.2213 44.0845 31.2213L44.1347 31.3783C44.1347 31.3783 44.2426 31.2475 44.349 31.4174C44.4552 31.5872 44.9792 32.3172 45.0153 32.3499C45.0512 32.3824 45.2112 32.4904 45.3223 32.2617C45.4238 32.0531 46.6153 29.3786 46.8231 28.9117L46.2995 28.6562L44.255 30.5908Z" fill="#EFD37E"/>
<path fill-rule="evenodd" clip-rule="evenodd" d="M44.255 30.5883L43.9079 30.6385H43.4786L43.1313 30.5883L42.9948 30.459L42.7061 30.9579C42.7061 30.9579 43.3503 31.167 43.3503 31.7331C43.3503 32.2991 43.3503 52.1034 43.3503 52.1034L43.6929 52.9537L44.0354 52.1034C44.0354 52.1034 44.0354 32.2991 44.0354 31.7331C44.0354 31.167 44.6799 30.9579 44.6799 30.9579L44.3913 30.459L44.255 30.5883Z" fill="#EFD37E"/>
<path fill-rule="evenodd" clip-rule="evenodd" d="M43.271 30.4215L43.4788 30.3867C43.4788 30.3867 43.5196 30.4305 43.5254 30.5053C43.5312 30.5802 43.5361 30.8003 43.5361 30.8003C43.4603 30.8276 43.0528 30.9107 43.0657 30.8528C43.0689 30.8396 43.271 30.4215 43.271 30.4215Z" fill="#EFD37E"/>
<path fill-rule="evenodd" clip-rule="evenodd" d="M44.1155 30.4215L43.9079 30.3867C43.9079 30.3867 43.8671 30.4305 43.8611 30.5053C43.8553 30.5802 43.8506 30.8003 43.8506 30.8003C43.9264 30.8603 44.3336 30.9107 44.3208 30.8528C44.318 30.8396 44.1155 30.4215 44.1155 30.4215Z" fill="#EFD37E"/>
<path fill-rule="evenodd" clip-rule="evenodd" d="M46.0838 28.1579C46.1069 28.1778 46.3643 28.6292 46.4977 28.8457C46.4977 28.8457 46.6188 29.0242 46.5301 29.3235C46.4406 29.6229 45.2748 32.082 45.2748 32.082C45.2748 32.082 45.1921 32.2127 45.0584 32.0852C44.9244 31.9579 43.9082 30.3875 43.9082 30.3875L45.8354 28.3553C45.9256 28.2404 46.0608 28.1375 46.0838 28.1579Z" fill="white"/>
<path fill-rule="evenodd" clip-rule="evenodd" d="M41.3031 28.158C41.2871 28.1657 41.0228 28.6293 40.8889 28.8459C40.8889 28.8459 40.7678 29.0243 40.857 29.3236C40.9464 29.6231 42.1121 32.0821 42.1121 32.0821C42.1121 32.0821 42.195 32.2128 42.3286 32.0853C42.4625 31.9581 43.4788 30.3877 43.4788 30.3877L41.5514 28.3554C41.4228 28.2037 41.3191 28.1501 41.3031 28.158Z" fill="white"/>
<path fill-rule="evenodd" clip-rule="evenodd" d="M37.8951 37.6836H41.6974C41.7475 37.6836 41.7881 37.724 41.7881 37.7742V38.0173C41.7881 38.0673 41.7475 38.1079 41.6974 38.1079H37.8951C37.8451 38.1079 37.8047 38.0671 37.8047 38.0173V37.7742C37.8047 37.724 37.8451 37.6836 37.8951 37.6836Z" fill="#EFD37E"/>
<path fill-rule="evenodd" clip-rule="evenodd" d="M59.1535 49.1064C59.1535 49.1064 46.8909 51.589 43.5208 51.589C40.1503 51.589 27.8877 49.1064 27.8877 49.1064L28.4953 51.5142L43.5208 55.8762L58.5464 51.5142L59.1535 49.1064Z" fill="#17152D"/>
<path fill-rule="evenodd" clip-rule="evenodd" d="M32.1893 58.9659L32.8498 58.8811C32.8498 58.8811 33.7223 58.642 33.9964 58.5548C34.2707 58.4675 35.0308 58.6298 35.2801 59.9007C35.5294 61.1721 34.8687 61.434 34.1334 61.6209C33.3982 61.8078 31.5163 62.3689 31.5163 62.3689C31.5163 62.3689 30.5815 60.362 32.1893 58.9659Z" fill="#DE9273"/>
<path fill-rule="evenodd" clip-rule="evenodd" d="M31.5172 61.9187C31.5172 61.9187 31.673 61.8877 32.0219 61.8877C32.3709 61.8877 32.3897 62.1116 32.4269 62.2987C32.4643 62.4855 32.6202 62.9719 32.0406 63.2024C31.461 63.4327 28.0091 64.6607 28.0091 64.6607L27.373 64.3302C27.373 64.3302 29.2675 62.5854 31.5172 61.9187Z" fill="#EFD37E"/>
<path fill-rule="evenodd" clip-rule="evenodd" d="M30.7787 57.0801C30.7787 57.0801 31.6477 57.4414 32.707 58.3139C32.707 58.3139 32.9749 58.5756 32.8255 58.9556C32.6758 59.3357 31.1991 59.9714 31.7225 62.0903C31.7225 62.0903 31.8471 62.4267 31.4858 62.5511C31.1243 62.6759 28.644 63.6603 28.3326 63.8726C28.0209 64.0843 28.0335 64.3336 28.0085 64.6577C27.9835 64.982 27.4849 64.9068 26.5876 65.8541C25.6903 66.8013 24.7783 67.2998 24.0672 66.8073C24.0672 66.8073 23.746 66.6888 23.6463 66.3025C23.5467 65.916 23.8456 64.6699 23.8456 64.6699L27.6968 59.0736L30.7787 57.0801Z" fill="#E3A030"/>
<path fill-rule="evenodd" clip-rule="evenodd" d="M30.7789 57.0819C30.7789 57.0819 29.0837 59.1383 28.6352 59.7243C28.1866 60.3099 27.4761 60.4723 26.7907 61.2072C26.105 61.9427 24.5597 63.9492 24.0735 64.996C23.5875 66.0428 23.8618 66.6412 24.0673 66.8095C24.0673 66.8095 23.6902 66.9155 23.6123 66.8875C23.5345 66.8597 23.2788 66.2579 23.2414 65.6973C23.204 65.1364 24.0763 63.2421 24.9486 62.0703C25.8212 60.8991 26.8307 59.964 27.7281 58.8051C28.6254 57.6461 29.2362 56.7175 29.5103 56.4681C29.7844 56.2188 29.9153 56.2312 30.0461 56.2438C30.177 56.2562 30.713 56.7798 30.7752 56.867C30.838 56.9541 30.7789 57.0819 30.7789 57.0819Z" fill="white"/>
<path fill-rule="evenodd" clip-rule="evenodd" d="M23.8184 66.8679C23.7302 66.8855 23.645 66.8972 23.6123 66.8855C23.5345 66.8577 23.2788 66.2559 23.2414 65.6953C23.204 65.1345 24.0763 63.2402 24.9486 62.0684C25.8212 60.8971 26.8307 59.962 27.7281 58.8032C28.6254 57.6441 29.2362 56.7156 29.5103 56.4661C29.7844 56.2168 29.9153 56.2292 30.0461 56.2418C30.0839 56.2456 30.1553 56.2916 30.239 56.3573C30.239 56.3573 29.9027 56.2574 29.2732 57.0799C28.6438 57.9026 27.4951 59.5366 25.9766 61.168C24.4583 62.7993 23.5337 64.7696 23.4217 65.6673C23.3878 65.939 23.5608 66.3823 23.8184 66.8679Z" fill="#A5A7A9"/>
<path fill-rule="evenodd" clip-rule="evenodd" d="M33.2856 58.4574C33.2856 58.4574 57.0156 49.8078 58.2118 49.3587C59.4084 48.9101 61.1038 48.8105 61.577 50.281C62.0508 51.7516 62.3749 55.1416 57.9381 56.3882C53.5007 57.6343 34.5317 61.8969 33.8837 61.9965C33.2356 62.0962 33.0254 59.319 33.0807 58.8195C33.0807 58.8195 33.1296 58.5506 33.2856 58.4574Z" fill="#1E1850"/>
<path fill-rule="evenodd" clip-rule="evenodd" d="M54.8506 58.9659L54.19 58.8811C54.19 58.8811 53.3175 58.642 53.0436 58.5548C52.7689 58.4675 52.009 58.6298 51.7597 59.9007C51.5102 61.1721 52.1711 61.434 52.9063 61.6209C53.6416 61.8078 55.5237 62.3689 55.5237 62.3689C55.5237 62.3689 56.4586 60.362 54.8506 58.9659Z" fill="#DE9273"/>
<path fill-rule="evenodd" clip-rule="evenodd" d="M55.5233 61.9187C55.5233 61.9187 55.3676 61.8877 55.0185 61.8877C54.6696 61.8877 54.6508 62.1116 54.6136 62.2987C54.5762 62.4855 54.4203 62.9719 54.9999 63.2024C55.5795 63.4327 59.0314 64.6607 59.0314 64.6607L59.6674 64.3302C59.6674 64.3302 57.7729 62.5854 55.5233 61.9187Z" fill="#EFD37E"/>
<path fill-rule="evenodd" clip-rule="evenodd" d="M56.2613 57.0801C56.2613 57.0801 55.392 57.4414 54.3326 58.3139C54.3326 58.3139 54.0647 58.5756 54.2144 58.9556C54.3637 59.3357 55.8406 59.9714 55.3172 62.0903C55.3172 62.0903 55.1926 62.4267 55.5541 62.5511C55.9156 62.6759 58.3957 63.6603 58.7072 63.8726C59.0188 64.0843 59.0064 64.3336 59.0314 64.6577C59.0562 64.982 59.5548 64.9068 60.4523 65.8541C61.3498 66.8013 62.2616 67.2998 62.9726 66.8073C62.9726 66.8073 63.2939 66.6888 63.3934 66.3025C63.493 65.916 63.1939 64.6699 63.1939 64.6699L59.3429 59.0736L56.2613 57.0801Z" fill="#E3A030"/>
<path fill-rule="evenodd" clip-rule="evenodd" d="M56.2617 57.0819C56.2617 57.0819 57.9566 59.1383 58.4051 59.7243C58.8541 60.3099 59.5643 60.4723 60.25 61.2072C60.9356 61.9427 62.4806 63.9492 62.9668 64.996C63.4528 66.0428 63.1791 66.6412 62.973 66.8095C62.973 66.8095 63.3499 66.9155 63.428 66.8875C63.5058 66.8597 63.7615 66.2579 63.7989 65.6973C63.8361 65.1364 62.964 63.2421 62.0915 62.0703C61.2189 60.8991 60.2094 59.964 59.3124 58.8051C58.4149 57.6461 57.8043 56.7175 57.53 56.4681C57.2559 56.2188 57.125 56.2312 56.994 56.2438C56.8633 56.2562 56.3272 56.7798 56.2649 56.867C56.2025 56.9541 56.2617 57.0819 56.2617 57.0819Z" fill="white"/>
<path fill-rule="evenodd" clip-rule="evenodd" d="M63.2216 66.8679C63.3098 66.8855 63.3949 66.8972 63.4276 66.8855C63.5055 66.8577 63.7612 66.2559 63.7986 65.6953C63.8358 65.1345 62.9637 63.2402 62.0911 62.0684C61.2186 60.8971 60.2091 59.962 59.3121 58.8032C58.4146 57.6441 57.804 56.7156 57.5297 56.4661C57.2556 56.2168 57.1247 56.2292 56.9937 56.2418C56.9561 56.2456 56.8844 56.2916 56.8008 56.3573C56.8008 56.3573 57.1371 56.2574 57.7665 57.0799C58.3962 57.9026 59.545 59.5366 61.0633 61.168C62.5816 62.7993 63.5062 64.7696 63.6185 65.6673C63.6519 65.939 63.4792 66.3823 63.2216 66.8679Z" fill="#A5A7A9"/>
<path fill-rule="evenodd" clip-rule="evenodd" d="M53.7538 58.4574C53.7538 58.4574 30.0237 49.8078 28.8273 49.3587C27.6308 48.9101 25.9358 48.8105 25.462 50.281C24.9884 51.7516 24.6643 55.1416 29.1014 56.3882C33.5384 57.6343 52.5075 61.8969 53.1556 61.9965C53.8038 62.0962 54.0136 59.319 53.9587 58.8195C53.9587 58.8195 53.9099 58.5506 53.7538 58.4574Z" fill="#28265B"/>
<path fill-rule="evenodd" clip-rule="evenodd" d="M38.8995 21.4183C38.8665 21.4227 38.8337 21.4281 38.8012 21.4349L38.8003 21.4353C38.2026 21.5603 37.7488 22.0848 37.7366 22.7212C37.7227 23.461 38.3111 24.0724 39.0509 24.0863C39.7909 24.1004 40.4022 23.5117 40.4162 22.7721C40.4244 22.342 40.2291 21.9556 39.9189 21.7045C39.9529 22.1 39.8899 22.5898 39.3852 22.6388L39.3998 21.8662C39.4058 21.5535 39.1141 21.4097 38.8995 21.4183Z" fill="#E6AD83"/>
<path fill-rule="evenodd" clip-rule="evenodd" d="M48.5709 21.4183C48.604 21.4227 48.6367 21.4281 48.6691 21.4349L48.67 21.4353C49.2677 21.5603 49.7217 22.0848 49.7337 22.7212C49.7475 23.461 49.1588 24.0724 48.4192 24.0863C47.6793 24.1004 47.0683 23.5117 47.054 22.7721C47.0457 22.342 47.2414 21.9556 47.5512 21.7045C47.5172 22.1 47.58 22.5898 48.0848 22.6388L48.0703 21.8662C48.0645 21.5535 48.3562 21.4097 48.5709 21.4183Z" fill="#E6AD83"/>
<path fill-rule="evenodd" clip-rule="evenodd" d="M43.7355 14.7236C41.2121 14.7236 39.1475 16.7881 39.1475 19.3112V23.4839C39.1475 26.0073 41.2121 28.0717 43.7355 28.0717C46.2582 28.0717 48.3229 26.0073 48.3229 23.4839V19.3112C48.3229 16.7881 46.2582 14.7236 43.7355 14.7236Z" fill="#E6AD83"/>
<path fill-rule="evenodd" clip-rule="evenodd" d="M41.8638 18.0798C41.3698 18.0798 40.4147 18.3139 40.4147 19.3003C40.4147 20.2868 40.2275 21.069 39.5984 21.069C39.5984 21.069 39.5984 21.4103 39.5984 21.843C39.5984 22.2756 39.5561 22.7133 39.148 22.7133C39.148 21.7825 38.8643 21.4168 38.8643 21.4168C38.8643 21.4168 38.8643 20.1717 38.8643 19.0832C38.8643 17.9946 39.1703 16.532 40.5991 15.5284C42.4478 14.2301 45.0243 14.2301 46.8727 15.5284C48.3017 16.532 48.6078 17.9946 48.6078 19.0832C48.6078 20.1717 48.6078 21.4168 48.6078 21.4168C48.6078 21.4168 48.3241 21.7825 48.3241 22.7133C47.9156 22.7133 47.8735 22.2756 47.8735 21.843C47.8735 21.4103 47.8735 21.069 47.8735 21.069C47.2439 21.069 47.057 20.2868 47.057 19.3003C47.057 18.3139 46.1021 18.0798 45.6079 18.0798C44.3601 18.0798 43.112 18.0798 41.8638 18.0798Z" fill="#1E1850"/>
<path fill-rule="evenodd" clip-rule="evenodd" d="M48.7274 28.7344C48.7274 28.7344 49.1547 28.6375 49.3533 28.2766C49.5514 27.916 51.567 21.2453 51.567 21.2453C51.567 21.2453 51.6922 21.1438 51.7862 21.1664C51.8798 21.1889 55.8286 23.8841 57.1234 25.0119C57.1234 25.0119 57.2695 25.1247 57.1653 25.4631C57.0606 25.8013 51.1305 36.8985 51.1305 36.8985C51.1305 36.8985 50.5642 38.1111 50.5149 39.0145C50.5149 39.0145 47.5391 34.8237 47.5391 34.553C47.5389 34.2823 48.7274 28.7344 48.7274 28.7344Z" fill="#E3A030"/>
<path fill-rule="evenodd" clip-rule="evenodd" d="M35.2978 21.833L35.454 21.3818L34.6539 18.7381L42.1991 8.58189C42.1991 8.58189 42.408 8.30008 42.5336 8.24349C42.6586 8.18728 43.7362 7.894 43.7362 7.05946C43.7362 6.22492 43.7362 0.676431 43.7362 0.428457C43.7362 0.180483 43.3899 0 43.254 0C43.1181 0 43.1181 0.496137 43.1181 0.789419C43.1181 0.789419 42.8727 0.708579 42.8727 0.969713C42.8727 1.23085 42.6379 2.46414 42.5755 2.91515C42.5129 3.36636 41.2497 6.4227 41.0824 6.73835C40.9153 7.05401 32.4456 15.4898 31.7773 16.1439C31.1091 16.7979 30.6288 17.4973 30.6705 18.1737C30.7122 18.8503 31.6654 25.3689 31.6654 25.3689L35.2978 21.833Z" fill="#E6AD83"/>
<path fill-rule="evenodd" clip-rule="evenodd" d="M38.7448 28.7344C38.7448 28.7344 38.3174 28.6375 38.1191 28.2766C37.9208 27.916 35.9054 21.2453 35.9054 21.2453C35.9054 21.2453 35.78 21.1438 35.686 21.1664C35.5922 21.1889 31.6436 23.8841 30.349 25.0119C30.349 25.0119 30.2027 25.1247 30.3071 25.4631C30.4114 25.8013 36.3417 36.8985 36.3417 36.8985C36.3417 36.8985 36.9078 38.1111 36.9571 39.0145C36.9571 39.0145 39.9331 34.8237 39.9331 34.553C39.9331 34.2823 38.7448 28.7344 38.7448 28.7344Z" fill="#E3A030"/>
<path fill-rule="evenodd" clip-rule="evenodd" d="M18.4025 21.5684C21.7191 21.5684 24.4241 18.8634 24.4241 15.5471C24.4241 12.2304 21.7191 9.52539 18.4025 9.52539C15.0858 9.52539 12.3809 12.2304 12.3809 15.5471C12.3809 18.8636 15.0858 21.5684 18.4025 21.5684Z" fill="#5293AA"/>
<path d="M20.9128 15.1572H15.9922V15.9316H20.9128V15.1572Z" fill="#FFF58B"/>
<path fill-rule="evenodd" clip-rule="evenodd" d="M15.0841 14.1396C15.3725 14.1396 15.6086 14.3756 15.6086 14.6642V16.4252C15.6086 16.7136 15.3727 16.9497 15.0841 16.9497C14.7955 16.9497 14.5596 16.7136 14.5596 16.4252V14.6642C14.5596 14.3756 14.7953 14.1396 15.0841 14.1396Z" fill="#EFD37E"/>
<path fill-rule="evenodd" clip-rule="evenodd" d="M15.5741 13.5596C15.2857 13.5596 15.0498 13.7955 15.0498 14.0839V17.0064C15.0498 17.2948 15.2857 17.5307 15.5741 17.5307C15.8627 17.5307 16.0987 17.295 16.0987 17.0064V14.0839C16.0985 13.7955 15.8625 13.5596 15.5741 13.5596Z" fill="#FFF58B"/>
<path fill-rule="evenodd" clip-rule="evenodd" d="M16.08 13.1113C16.3686 13.1113 16.6045 13.3473 16.6045 13.6359V17.4574C16.6045 17.7459 16.3686 17.9819 16.0802 17.9819C15.7916 17.9819 15.5557 17.7459 15.5557 17.4574V13.6359C15.5553 13.3475 15.7914 13.1113 16.08 13.1113Z" fill="#E3A030"/>
<path fill-rule="evenodd" clip-rule="evenodd" d="M21.722 14.1396C21.4334 14.1396 21.1973 14.3756 21.1973 14.6642V16.4252C21.1973 16.7136 21.4334 16.9497 21.722 16.9497C22.0104 16.9497 22.2465 16.7136 22.2465 16.4252V14.6642C22.2463 14.3756 22.0104 14.1396 21.722 14.1396Z" fill="#EFD37E"/>
<path fill-rule="evenodd" clip-rule="evenodd" d="M21.2314 13.5596C21.52 13.5596 21.7559 13.7955 21.7559 14.0839V17.0064C21.7559 17.2948 21.52 17.5307 21.2314 17.5307C20.943 17.5307 20.707 17.295 20.707 17.0064V14.0839C20.7068 13.7955 20.943 13.5596 21.2314 13.5596Z" fill="#FFF58B"/>
<path fill-rule="evenodd" clip-rule="evenodd" d="M20.7257 13.1113C20.4371 13.1113 20.2012 13.3473 20.2012 13.6359V17.4574C20.2012 17.7459 20.4371 17.9819 20.7257 17.9819C21.0141 17.9819 21.2502 17.7459 21.2502 17.4574V13.6359C21.2502 13.3475 21.0143 13.1113 20.7257 13.1113Z" fill="#E3A030"/>
<path fill-rule="evenodd" clip-rule="evenodd" d="M63.8121 40.3858C67.5103 40.3858 70.5266 37.3699 70.5266 33.6713C70.5266 29.9733 67.5103 26.957 63.8121 26.957C60.1141 26.957 57.0977 29.9733 57.0977 33.6713C57.0977 37.3699 60.1141 40.3858 63.8121 40.3858Z" fill="#FFF58B"/>
<path fill-rule="evenodd" clip-rule="evenodd" d="M63.6011 30.9096C63.6535 30.4323 63.8699 29.5269 64.1749 29.465C64.3523 29.4291 64.5817 29.5032 64.3927 29.9217C64.2089 30.3298 63.9088 30.9985 63.8885 32.0547C63.8707 33.0019 63.5409 31.4554 63.6011 30.9096Z" fill="#387286"/>
<path fill-rule="evenodd" clip-rule="evenodd" d="M63.7177 31.2786C63.6588 30.4979 62.996 29.8946 62.0381 29.9064C61.0797 29.9183 60.8076 30.0365 60.8076 30.0365C60.8076 30.0365 61.6121 31.9767 63.7177 31.2786Z" fill="#387286"/>
<path fill-rule="evenodd" clip-rule="evenodd" d="M62.9412 37.8887C63.4955 37.9486 63.6408 37.5824 63.8295 37.5824C64.022 37.5824 64.2591 37.9486 64.6951 37.8887C65.7799 37.7398 69.2002 33.057 66.3828 31.5771C65.6789 31.2073 64.5968 31.6965 63.8179 32.2212C63.139 31.7636 62.218 31.258 61.5528 31.5128C58.2688 32.7707 61.6241 37.7467 62.9412 37.8887Z" fill="#D1544B"/>
<path fill-rule="evenodd" clip-rule="evenodd" d="M66.3374 31.5557C66.995 33.0377 66.5891 34.4362 65.7367 35.4817C63.8975 37.7375 61.6101 36.8979 61.6172 36.9069C62.0938 37.4698 62.5899 37.8516 62.9413 37.8894C63.4955 37.9494 63.6409 37.5832 63.8296 37.5832C64.0221 37.5832 64.2592 37.9494 64.6952 37.8894C65.7799 37.7405 69.2002 33.0578 66.3829 31.5778C66.368 31.57 66.353 31.5626 66.3374 31.5557Z" fill="#CC342A"/>
<path fill-rule="evenodd" clip-rule="evenodd" d="M62.2778 32.0757C61.4538 32.0216 60.7055 32.6074 60.6619 33.5075C60.6185 34.4081 61.1065 34.1909 61.237 33.6378C61.3669 33.0845 61.8442 32.6072 62.6359 32.6508C63.4276 32.6941 62.8204 32.1084 62.2778 32.0757ZM61.1526 34.3727C61.3062 34.3727 61.4306 34.4974 61.4306 34.651C61.4306 34.8044 61.3062 34.9286 61.1526 34.9286C60.9994 34.9286 60.8747 34.8046 60.8747 34.651C60.8747 34.4974 60.9992 34.3727 61.1526 34.3727Z" fill="white"/>
<path fill-rule="evenodd" clip-rule="evenodd" d="M63.1107 30.7983C62.661 29.9733 61.7669 30.1658 61.0811 30.1214C61.968 29.9152 62.9558 30.0167 63.4647 30.7811C63.6022 31.0566 63.2491 31.0746 63.1107 30.7983Z" fill="white"/>
<path fill-rule="evenodd" clip-rule="evenodd" d="M6.3411 40.3578C9.83361 40.3578 12.6824 37.5094 12.6824 34.0171C12.6824 30.5246 9.8338 27.6758 6.3411 27.6758C2.84841 27.6758 0 30.5244 0 34.0171C0.000188002 37.5092 2.8486 40.3578 6.3411 40.3578Z" fill="#FFF58B"/>
<path fill-rule="evenodd" clip-rule="evenodd" d="M3.1526 32.1798C3.87189 31.4609 5.04859 31.4609 5.76751 32.1798L6.34073 32.7532L6.91394 32.1798C7.63286 31.4609 8.80956 31.4609 9.52848 32.1798C11.3876 34.039 8.62194 36.2081 6.34073 37.457C4.25899 36.5018 1.29138 34.041 3.1526 32.1798Z" fill="#D1544B"/>
<path fill-rule="evenodd" clip-rule="evenodd" d="M9.44571 32.1035C10.1471 33.9465 8.64463 35.5159 6.96691 36.4257C6.14628 36.8707 5.24425 36.8716 5.25101 36.8759C5.55539 37.0668 5.87969 37.2363 6.17147 37.3783C6.22825 37.4059 6.28465 37.4326 6.3403 37.4584C6.50987 37.3655 6.68209 37.2674 6.85524 37.1647C9.00729 35.8882 11.2486 33.9016 9.52805 32.181C9.50173 32.1543 9.47391 32.1281 9.44571 32.1035Z" fill="#CC342A"/>
<path fill-rule="evenodd" clip-rule="evenodd" d="M7.19176 34.8955C7.19176 34.8366 7.23952 34.7891 7.29798 34.7891C7.35683 34.7891 7.40458 34.8368 7.40458 34.8955C7.40458 35.1604 7.28351 35.3997 7.0878 35.5727C6.89585 35.7419 6.63152 35.8469 6.34087 35.8469C6.04984 35.8469 5.78608 35.7419 5.59375 35.5727C5.39823 35.3997 5.27734 35.1605 5.27734 34.8955C5.27734 34.8366 5.32472 34.7891 5.38375 34.7891C5.44241 34.7891 5.49016 34.8368 5.49016 34.8955C5.49016 35.097 5.5836 35.2807 5.73419 35.4136C5.88835 35.5497 6.10267 35.6339 6.34087 35.6339C6.57869 35.6339 6.79301 35.5497 6.94736 35.4136C7.09833 35.2807 7.19176 35.097 7.19176 34.8955Z" fill="white"/>
<path fill-rule="evenodd" clip-rule="evenodd" d="M5.49014 34.1176C5.49014 34.1767 5.44257 34.2242 5.38354 34.2242C5.32469 34.2242 5.27732 34.1765 5.27732 34.1176C5.27732 34.0437 5.24724 33.9766 5.19873 33.9279C5.15042 33.8796 5.08311 33.8497 5.00923 33.8497C4.93516 33.8497 4.86804 33.8796 4.81934 33.9279C4.77103 33.9766 4.74114 34.0437 4.74114 34.1176C4.74114 34.1767 4.69338 34.2242 4.63473 34.2242C4.57588 34.2242 4.52832 34.1765 4.52832 34.1176C4.52832 33.9853 4.58209 33.8646 4.66913 33.7775C4.75636 33.6907 4.87669 33.6367 5.00923 33.6367C5.14158 33.6367 5.2619 33.6907 5.34876 33.7775L5.34932 33.7781C5.43618 33.8653 5.49014 33.9855 5.49014 34.1176Z" fill="white"/>
<path fill-rule="evenodd" clip-rule="evenodd" d="M8.17549 34.1176C8.17549 34.1767 8.12793 34.2242 8.06927 34.2242C8.01062 34.2242 7.96268 34.1765 7.96268 34.1176C7.96268 34.0437 7.93278 33.9766 7.88466 33.9279C7.83596 33.8796 7.76884 33.8497 7.69477 33.8497C7.62051 33.8497 7.55377 33.8796 7.50508 33.9279C7.45657 33.9766 7.42668 34.0437 7.42668 34.1176C7.42668 34.1767 7.37893 34.2242 7.32046 34.2242C7.26162 34.2242 7.21387 34.1765 7.21387 34.1176C7.21387 33.9853 7.26764 33.8646 7.35487 33.7775C7.44229 33.6907 7.56261 33.6367 7.69496 33.6367C7.8275 33.6367 7.94764 33.6907 8.03449 33.7775L8.03524 33.7781C8.12172 33.8653 8.17549 33.9855 8.17549 34.1176Z" fill="white"/>
<path fill-rule="evenodd" clip-rule="evenodd" d="M4.2894 32.0067C3.63534 31.9636 3.04144 32.4285 3.00704 33.1428C2.97263 33.8573 3.35992 33.6851 3.46332 33.2462C3.56672 32.8074 3.94517 32.4285 4.57347 32.4628C5.20177 32.4972 4.71973 32.0324 4.2894 32.0067ZM3.39658 33.8293C3.51822 33.8293 3.61711 33.928 3.61711 34.05C3.61711 34.1719 3.51822 34.2706 3.39658 34.2706C3.27475 34.2706 3.17605 34.1721 3.17605 34.05C3.17586 33.928 3.27475 33.8293 3.39658 33.8293Z" fill="white"/>
<path d="M84.0967 50.4639C84.1112 46.7556 81.1167 43.7377 77.4084 43.7232C73.7001 43.7088 70.6823 46.7032 70.6678 50.4115C70.6533 54.1198 73.6478 57.1377 77.3561 57.1522C81.0644 57.1666 84.0823 54.1722 84.0967 50.4639Z" fill="#387286"/>
<path fill-rule="evenodd" clip-rule="evenodd" d="M75.1751 46.8965H79.589C79.7345 46.8965 79.8705 47.0076 79.8533 47.1413L79.0141 53.733C78.997 53.8666 78.8949 53.9779 78.7498 53.9779H76.0612C75.9158 53.9779 75.8147 53.8666 75.7968 53.733L74.9108 47.1413C74.8927 47.0076 75.0296 46.8965 75.1751 46.8965Z" fill="white"/>
<path fill-rule="evenodd" clip-rule="evenodd" d="M77.7818 49.8984C76.9563 49.5031 76.2543 49.5459 75.7627 49.8087L76.2573 53.4896H78.5513L79.0018 49.9526C78.5731 50.0492 78.1328 50.0667 77.7818 49.8984Z" fill="#B0DAED"/>
<path fill-rule="evenodd" clip-rule="evenodd" d="M76.1368 50.2578C76.108 50.6431 76.1904 51.44 76.252 51.9149C76.3297 52.5152 76.6521 52.393 76.619 52.0149C76.5927 51.7163 76.5731 50.5492 76.3797 50.1719C76.2671 49.9527 76.1526 50.0475 76.1368 50.2578Z" fill="white"/>
<path fill-rule="evenodd" clip-rule="evenodd" d="M76.7084 52.6401C76.6928 52.4628 76.4032 52.4094 76.3748 52.5871C76.3154 52.9573 76.7403 53.0056 76.7084 52.6401Z" fill="white"/>
</svg>
