<svg width="59" height="62" viewBox="0 0 59 62" fill="none" xmlns="http://www.w3.org/2000/svg">
<path d="M31.993 56.061C32.4958 55.8376 32.9949 55.6449 33.4376 55.3337C33.8202 55.0656 34.1303 54.7033 34.5496 54.4825C34.8705 54.3121 35.2397 54.2847 35.5597 54.1579C35.8806 54.0295 36.1933 53.8883 36.5289 53.7908C36.8639 53.694 37.1386 53.7438 37.3846 53.9778C37.4797 54.0697 37.5579 54.1823 37.6225 54.3052C38.0778 54.7731 38.3052 55.4353 37.9158 55.9985C37.6608 56.3685 37.1672 56.4483 36.7216 56.5108C36.2739 56.5717 35.862 56.6778 35.4463 56.832C34.6638 57.1255 33.8903 57.5054 33.0228 57.5377C32.4879 57.5582 31.185 57.3613 31.3226 56.6697C31.3806 56.3756 31.7154 56.1844 31.993 56.061Z" fill="white"/>
<path d="M33.2792 55.4607C33.3679 55.5109 33.454 55.5663 33.5394 55.617C33.6302 55.6697 33.7224 55.7167 33.8177 55.7632C33.8794 55.7942 33.8923 55.8766 33.8479 55.9297C33.7993 55.9853 33.7213 55.999 33.6573 55.9654C33.5614 55.9171 33.4677 55.8706 33.3768 55.8173C33.2815 55.7627 33.187 55.6973 33.1235 55.6151C33.0904 55.5744 33.0883 55.5248 33.1298 55.483C33.1694 55.4455 33.2322 55.4366 33.2792 55.4607Z" fill="#556EB0"/>
<path d="M33.8567 54.9397C33.9192 54.9316 33.9633 54.9463 34.0121 54.9773C34.0379 54.9956 34.0625 55.0124 34.0888 55.0295C34.1471 55.0657 34.2067 55.0988 34.2702 55.1296C34.3009 55.1445 34.3325 55.1584 34.3637 55.171C34.3663 55.1721 34.3663 55.1721 34.3669 55.1737C34.376 55.1763 34.3845 55.1792 34.3921 55.1834C34.407 55.1889 34.4202 55.1941 34.4354 55.1989C34.5031 55.2243 34.5696 55.2482 34.6389 55.2708C34.7156 55.2958 34.7649 55.3719 34.7308 55.4446C34.698 55.5113 34.6066 55.5636 34.5257 55.5355C34.3787 55.4864 34.2301 55.4326 34.0922 55.3651C34.0281 55.3338 33.9646 55.2984 33.906 55.2574C33.8365 55.2062 33.7312 55.1351 33.7503 55.0418C33.7595 54.9948 33.8002 54.9452 33.8567 54.9397Z" fill="#556EB0"/>
<path d="M34.362 54.5264C34.4153 54.5049 34.4686 54.511 34.5185 54.5288C34.5773 54.549 34.6311 54.5829 34.6857 54.6089C34.7083 54.6189 34.7314 54.6291 34.7532 54.6388C34.7629 54.6425 34.7747 54.6491 34.7837 54.6538C34.7873 54.6538 34.796 54.6585 34.7976 54.6598C34.8522 54.6803 34.9063 54.6992 34.9627 54.7155C34.9924 54.7244 35.0226 54.7307 35.0531 54.7368C35.0636 54.7378 35.0759 54.7404 35.0867 54.7428C35.0956 54.7436 35.1048 54.7446 35.1129 54.7454C35.2004 54.7559 35.2802 54.8166 35.265 54.9019C35.2534 54.9757 35.1707 55.0561 35.0775 55.0437C34.8391 55.0138 34.6238 54.9337 34.4252 54.8239C34.363 54.7885 34.285 54.742 34.2732 54.6706C34.263 54.6139 34.2987 54.5501 34.362 54.5264Z" fill="#556EB0"/>
<path d="M31.5539 43.0663C31.8582 45.0028 32.8428 46.824 33.2832 48.7463C33.5875 50.0757 33.651 51.4324 33.9611 52.7612C34.1811 53.7055 34.3594 54.641 35.6523 54.4593C36.1759 54.3866 36.8279 54.1613 37.097 53.7312C37.3407 53.3418 37.0978 52.6357 37.0366 52.228C36.758 50.3753 37.2472 48.4929 36.6669 46.6565C36.3576 45.6784 35.8522 44.7371 35.6193 43.7419C35.3934 42.7754 35.552 41.9829 36.1071 41.1385C37.056 39.6949 37.9824 37.4722 38.845 35.9477C40.6559 32.7464 41.5269 29.9929 41.6188 27.4819C41.6256 27.4674 41.63 27.4577 41.63 27.4577L41.6012 27.4514C41.5712 27.4147 41.5198 27.4089 41.4809 27.4246L34.0622 25.7694C34.0338 25.7374 34.0092 25.7024 33.975 25.6754C33.9026 25.6174 33.7634 25.6323 33.7253 25.7177C33.0316 27.2708 32.8129 34.9434 32.4104 37.0492C32.2048 38.1255 31.9837 39.1999 31.76 40.2739C31.5678 41.1979 31.4055 42.1216 31.5539 43.0663Z" fill="#B45050"/>
<path d="M34.0627 25.7697C34.0344 25.7376 34.0097 25.7027 33.9755 25.6754C33.9031 25.6174 33.7639 25.6323 33.7258 25.7177C33.0321 27.2708 32.8134 34.9434 32.4109 37.0492C32.2053 38.1255 31.9842 39.1999 31.7605 40.2739C31.5678 41.1978 31.4055 42.1216 31.5538 43.0663C31.8582 45.0028 32.8428 46.824 33.2831 48.7463C33.5875 50.0759 33.651 51.4324 33.9611 52.7613C34.1811 53.7055 34.3594 54.641 35.6523 54.4593C35.6639 54.4577 35.6765 54.4548 35.6883 54.4533C35.2188 52.3842 33.7765 45.9 33.6865 43.9228C33.6087 42.2116 35.7266 31.943 36.9022 26.403L34.0627 25.7697Z" fill="#CE6466"/>
<path d="M37.2214 53.9655L36.7131 52.2656L34.3594 52.7283L34.9444 54.2977L37.2214 53.9655Z" fill="#E2A093"/>
<path d="M36.2998 48.0583C37.024 48.0544 37.7056 48.3028 38.3972 48.4892C39.3966 48.7591 40.4219 48.9899 41.4402 49.1782C43.0972 49.4841 44.8651 49.9677 46.5782 50.0336C46.7559 49.9234 46.9353 49.8152 47.112 49.7031C47.1096 49.6891 47.1067 49.6758 47.1041 49.6624C45.907 48.3548 44.7409 47.0771 43.3937 45.8984C41.9385 44.6255 40.3765 43.4481 39.0213 42.0662C38.9255 41.9688 39.0607 41.8107 39.1623 41.9057C40.5805 43.2301 42.0688 44.4674 43.5318 45.7414C44.8055 46.8502 45.9128 48.0554 47.0314 49.2879C46.6354 47.3081 46.0115 45.3467 45.2816 43.4667C44.768 42.1436 43.9582 40.616 43.9832 39.1626C43.9868 38.967 44.2885 38.9471 44.2896 39.1466C44.2975 40.6449 45.1012 42.1972 45.6316 43.5675C46.2675 45.2105 46.7824 46.919 47.1705 48.6428C47.1755 46.789 47.191 44.935 47.1453 43.081C47.1101 41.6647 46.9725 40.1925 47.2369 38.7903C47.2706 38.6112 47.5463 38.6695 47.5124 38.8483C47.2346 40.3214 47.3955 41.8879 47.4278 43.3782C47.4706 45.3454 47.4378 47.3121 47.4297 49.279C48.2901 47.7361 49.228 46.2303 50.1536 44.7265C51.0731 43.2322 51.9517 41.697 53.0663 40.3366C53.1086 40.2841 53.1839 40.3526 53.1438 40.4046C52.0205 41.8648 51.1385 43.4767 50.1799 45.044C49.3037 46.4768 48.4298 47.916 47.6072 49.3806C48.8153 48.5953 50.0029 47.7776 51.2018 46.9747C52.0951 46.3755 52.8862 45.6193 53.8401 45.1159C54.788 44.6157 55.9386 44.8544 56.8266 44.262C56.9146 44.2032 57.0025 44.3366 56.9175 44.3975C56.1444 44.9529 55.2341 44.7953 54.3755 45.1191C53.378 45.4946 52.6197 46.245 51.776 46.8681C50.3931 47.8887 48.9505 48.8644 47.4838 49.786C47.5515 49.8611 47.6198 49.9357 47.6878 50.0105C48.4689 49.932 49.254 49.7109 50.0339 49.6293C50.9405 49.5337 51.8514 49.5673 52.7552 49.671C54.7969 49.9063 56.5073 51.2604 58.5743 51.424C58.6601 51.4305 58.647 51.5718 58.5625 51.5731C56.6851 51.5967 55.0642 50.4585 53.2869 50.0179C51.4783 49.5694 49.7148 50.0371 47.9349 50.2773C49.2443 51.6889 50.7399 52.9154 52.2374 54.12C53.43 55.0787 54.9342 56.2222 55.3481 57.775C55.3683 57.8509 55.2535 57.8906 55.2312 57.8139C54.7481 56.1636 53.0613 54.9876 51.7747 53.9701C50.3416 52.8369 48.9584 51.6395 47.7059 50.3072C47.6492 50.3141 47.5925 50.3204 47.5355 50.3267C47.9506 52.1353 48.5572 53.8338 49.4373 55.5014C50.2255 56.9952 51.3635 58.5124 51.3906 60.2674C51.3921 60.3719 51.2338 60.3813 51.2273 60.2758C51.1104 58.3419 49.7666 56.9046 49.0022 55.2163C48.5766 54.2779 48.131 53.3483 47.766 52.3837C47.6329 52.0313 47.53 51.6766 47.4423 51.3192C47.4549 52.6116 47.4546 53.8998 47.3018 55.1913C47.0757 57.1026 46.6252 58.9986 46.111 60.85C46.0885 60.9317 45.9601 60.9067 45.9808 60.8227C46.4217 59.0412 46.7882 57.2399 47.0442 55.4224C47.2805 53.7425 47.2115 52.0489 47.181 50.3584C47.1469 50.3608 47.1125 50.3634 47.0781 50.365C46.3353 51.8168 45.7148 53.33 44.8966 54.7455C43.9367 56.406 42.9339 58.0481 42.0344 59.743C41.9561 59.8909 41.7542 59.8053 41.7715 59.6514C41.7776 59.5986 41.7833 59.5456 41.7896 59.4928C41.7967 59.4292 41.8453 59.3988 41.8978 59.3948C42.6666 57.8557 43.577 56.3348 44.4847 54.8794C45.3832 53.4392 46.0703 51.8793 46.8452 50.37C46.7446 50.3708 46.6443 50.3689 46.5443 50.3653C46.226 50.559 45.9081 50.7554 45.5883 50.9429C43.8776 51.9465 42.1063 52.9274 40.2995 53.7485C39.5877 54.0723 38.873 54.3852 38.1827 54.7542C37.6145 55.0577 36.6658 55.5235 36.5579 56.2343C36.5319 56.4063 36.2785 56.3472 36.2969 56.1791C36.4203 55.0493 38.242 54.3947 39.1009 53.9911C40.987 53.1028 42.841 52.1684 44.6693 51.1632C45.1506 50.8986 45.6227 50.6202 46.0911 50.3366C44.804 50.2159 43.5189 49.8123 42.2625 49.6217C41.175 49.4565 40.1149 49.2388 39.0468 48.9739C38.2068 48.7665 37.3052 48.4183 36.4321 48.3947C36.3439 48.5044 36.1317 48.4858 36.1399 48.3133L36.1436 48.2329C36.1467 48.1452 36.2029 48.0583 36.2998 48.0583Z" fill="#415385"/>
<path d="M35.1299 49.5098C34.8285 56.0998 39.9266 61.6858 46.5168 61.9872C53.1069 62.2887 58.6939 57.1914 58.9951 50.6011C59.2965 44.0108 54.1979 38.4233 47.6081 38.1221C41.0181 37.8206 35.4313 42.9195 35.1299 49.5098ZM37.142 49.6017C37.3925 44.1229 42.0374 39.8845 47.5162 40.135C52.9948 40.3854 57.2329 45.0298 56.9824 50.5089C56.7319 55.9872 52.0876 60.2262 46.609 59.9757C41.1299 59.7252 36.8915 55.0803 37.142 49.6017Z" fill="#415385"/>
<path d="M1.41579 45.9075C2.1397 45.9036 2.8216 46.1514 3.51322 46.3384C4.51335 46.608 5.5379 46.8391 6.55668 47.0271C8.21299 47.3333 9.98167 47.8166 11.6947 47.8828C11.8722 47.772 12.0513 47.6641 12.2288 47.552C12.2261 47.5381 12.2227 47.5252 12.2204 47.5113C11.0236 46.2042 9.85721 44.926 8.50996 43.7476C7.05478 42.4744 5.49248 41.2975 4.13761 39.9151C4.04177 39.8177 4.177 39.6596 4.27861 39.7546C5.6965 41.0791 7.18528 42.3166 8.64807 43.5906C9.92154 44.6994 11.0296 45.9049 12.1479 47.1371C11.7514 45.1573 11.1278 43.1957 10.3978 41.3162C9.88373 39.9928 9.07449 38.4652 9.09943 37.0118C9.10258 36.8162 9.40533 36.7965 9.40611 36.9958C9.41373 38.4935 10.2177 40.0461 10.7481 41.4167C11.3838 43.0594 11.8987 44.7679 12.2868 46.4917C12.2918 44.638 12.307 42.7845 12.2616 40.9307C12.2272 39.5136 12.0893 38.0419 12.3532 36.6398C12.3871 36.4609 12.6631 36.5192 12.6287 36.6975C12.3511 38.1705 12.5118 39.7373 12.5444 41.2274C12.5872 43.1949 12.5546 45.1621 12.5459 47.1287C13.4064 45.5853 14.3446 44.0797 15.2701 42.576C16.1894 41.0814 17.0682 39.5464 18.1826 38.1855C18.2251 38.1338 18.3002 38.2015 18.26 38.2538C17.1368 39.7139 16.255 41.3256 15.2964 42.8929C14.4199 44.3258 13.5458 45.7649 12.7237 47.2298C13.9315 46.4442 15.1194 45.6265 16.3183 44.8236C17.2116 44.2252 18.0025 43.4685 18.9566 42.9651C19.9045 42.4649 21.0551 42.7033 21.9429 42.1112C22.0314 42.0522 22.1193 42.1855 22.034 42.247C21.261 42.8018 20.3509 42.6448 19.492 42.968C18.4948 43.3437 17.7365 44.0942 16.8931 44.717C15.5104 45.7384 14.0673 46.7136 12.6006 47.6355C12.6686 47.71 12.7368 47.7849 12.8046 47.8595C13.5855 47.7809 14.3708 47.5601 15.1504 47.4782C16.0573 47.3826 16.9679 47.4165 17.872 47.5205C19.9135 47.7555 21.6238 49.1096 23.6908 49.2726C23.7764 49.2794 23.7635 49.421 23.679 49.422C21.8013 49.4454 20.1807 48.3077 18.4034 47.8665C16.5951 47.4181 14.8314 47.886 13.0511 48.126C14.3608 49.5383 15.8559 50.7645 17.3536 51.969C18.546 52.9276 20.0505 54.0709 20.4641 55.6242C20.4845 55.7001 20.3695 55.7398 20.3472 55.6628C19.8644 54.0128 18.1773 52.8365 16.8907 51.8193C15.4576 50.6858 14.0741 49.4882 12.8222 48.1556C12.7652 48.163 12.7085 48.1688 12.6518 48.1753C13.0666 49.9834 13.6729 51.6828 14.5533 53.3506C15.3413 54.8441 16.479 56.3613 16.5063 58.116C16.5079 58.2208 16.3493 58.23 16.343 58.1244C16.2267 56.1906 14.8828 54.7533 14.1182 53.0652C13.6926 52.1262 13.2468 51.1973 12.8818 50.2323C12.7489 49.8802 12.646 49.5252 12.5583 49.1678C12.5709 50.4602 12.5704 51.7492 12.4175 53.04C12.1917 54.9518 11.7412 56.8476 11.2273 58.6987C11.2045 58.7809 11.0761 58.7554 11.0971 58.6716C11.5374 56.8904 11.9042 55.0886 12.1605 53.2711C12.3965 51.5911 12.3272 49.8975 12.2968 48.2071C12.2626 48.2095 12.2288 48.2126 12.1938 48.2137C11.4513 49.6662 10.8308 51.1786 10.0127 52.5942C9.05269 54.2547 8.04993 55.8976 7.15036 57.5925C7.07185 57.7398 6.86941 57.6547 6.88753 57.5C6.89356 57.4475 6.89908 57.3942 6.90538 57.3417C6.91273 57.2782 6.9613 57.2477 7.01382 57.2435C7.78289 55.7041 8.69297 54.1838 9.60042 52.7281C10.4992 51.2879 11.1858 49.7279 11.9615 48.2184C11.8609 48.2192 11.7606 48.2176 11.66 48.2139C11.3421 48.4082 11.0241 48.6041 10.704 48.7918C8.99361 49.7954 7.2223 50.7758 5.41555 51.5969C4.70345 51.9207 3.98926 52.2339 3.29869 52.6028C2.73101 52.9063 1.78155 53.3719 1.67337 54.0832C1.64712 54.2549 1.39452 54.1958 1.4129 54.0273C1.53631 52.8974 3.35777 52.2428 4.21664 51.8393C6.10296 50.9512 7.95698 50.017 9.78474 49.0116C10.2668 48.7472 10.7387 48.4691 11.2068 48.185C9.91944 48.0643 8.63468 47.6607 7.37801 47.4703C6.29017 47.3049 5.23122 47.0872 4.16282 46.8223C3.32259 46.6146 2.42118 46.267 1.54786 46.2436C1.4599 46.3528 1.24722 46.3347 1.2551 46.1614L1.25877 46.0813C1.26297 45.9947 1.31864 45.9078 1.41579 45.9075Z" fill="#415385"/>
<path d="M9.53391 48.3376C9.47194 49.6951 10.5017 50.8449 11.833 50.9058C13.1647 50.9667 14.2943 49.9156 14.3566 48.5581C14.4185 47.2001 13.3895 46.0498 12.058 45.9888C10.7268 45.9279 9.59614 46.9795 9.53391 48.3376Z" fill="#263A5A"/>
<path d="M0.0127052 47.9005C-0.288727 54.4905 4.81015 60.0764 11.4002 60.3779C17.9905 60.6793 23.577 55.582 23.8784 48.9917C24.1798 42.4014 19.0817 36.8139 12.4914 36.5127C5.90114 36.2113 0.313875 41.3099 0.0127052 47.9005ZM2.02532 47.9926C2.27581 42.5135 6.92018 38.2754 12.3993 38.5258C17.8786 38.7763 22.1168 43.421 21.8663 48.8998C21.6158 54.3781 16.9712 58.6171 11.4921 58.3666C6.013 58.1158 1.77482 53.4709 2.02532 47.9926Z" fill="#415385"/>
<path d="M10.8996 48.4012C10.8728 48.9896 11.3194 49.4888 11.8974 49.5153C12.4748 49.5418 12.9644 49.0855 12.9912 48.4968C13.018 47.9081 12.5722 47.4092 11.9948 47.3829C11.4168 47.3564 10.9264 47.8122 10.8996 48.4012Z" fill="#415385"/>
<path d="M11.5918 48.7614L12.0246 48.9489C12.1876 49.0187 12.3759 48.9434 12.447 48.7811L17.9571 35.9912C18.2089 36.0752 18.4867 35.9581 18.5933 35.7095L18.9032 34.9055L31.2278 49.8083C31.3407 49.9451 31.5431 49.964 31.6796 49.8511L32.0436 49.551C32.1804 49.4378 32.199 49.2353 32.0864 49.0985L20.2467 34.7818L37.927 35.5903L32.7898 51.2262C32.7357 51.2908 32.7068 51.3758 32.7165 51.4664L32.7168 51.4683C32.7018 51.5415 32.7089 51.615 32.741 51.6783L32.7709 51.9354C32.7916 52.1113 32.9502 52.2381 33.1264 52.2174L47.4022 50.7178C47.5784 50.6976 47.7047 50.5387 47.6844 50.3623L47.6304 49.8933C47.6159 49.7665 47.5277 49.6675 47.4143 49.6284L39.2451 35.1486L39.3943 34.6946C39.6227 34.7057 39.8388 34.5644 39.91 34.3362L41.1501 30.3982C41.2352 30.1269 41.085 29.8378 40.8137 29.7533L40.0919 29.5259C39.8207 29.4408 39.5321 29.5913 39.4468 29.8617L38.2072 33.8006C38.1465 33.993 38.2067 34.1934 38.3427 34.3244L38.288 34.4919L19.3955 33.6281L19.85 32.4476C19.954 32.2057 19.8568 31.93 19.6342 31.8014C19.8915 31.0861 20.2097 30.1388 20.4108 29.5404C20.5568 29.1055 20.5944 28.4706 20.2643 27.988C20.0905 27.7349 19.7468 27.4256 19.0972 27.3959L16.8341 27.2925C16.5825 27.2809 16.3678 27.4765 16.3559 27.7299C16.3444 27.9817 16.5405 28.196 16.7921 28.2075L19.0552 28.311C19.3845 28.326 19.4777 28.4614 19.5086 28.5058C19.6205 28.6699 19.6349 28.9748 19.5433 29.2468C19.3598 29.7927 19.0442 30.7332 18.7908 31.4416C18.555 31.3904 18.309 31.5107 18.2105 31.7404L16.9538 35.0029C16.8892 35.1536 16.9039 35.3177 16.9772 35.4514L11.4243 48.3402C11.3532 48.503 11.4283 48.6916 11.5918 48.7614ZM38.7741 36.5804L46.1899 49.7245L34.036 51.0011L38.7741 36.5804Z" fill="#263A5A"/>
<path d="M15.8088 27.5825C15.7812 28.1846 16.2473 28.6953 16.8496 28.7226C17.452 28.7502 17.9629 28.2844 17.9905 27.6823C18.0181 27.0794 17.5517 26.5698 16.9494 26.5422C16.3471 26.5144 15.8363 26.9796 15.8088 27.5825Z" fill="#415385"/>
<path d="M36.6705 30.8454C37.94 30.9034 39.0509 31.7348 40.5962 31.8054C42.1412 31.876 43.8256 30.9854 43.8621 29.9582C43.8867 29.239 43.1106 28.4319 42.3208 28.795C41.5309 29.1579 41.2867 29.5801 40.092 29.5255C38.8973 29.4709 37.4795 29.6914 36.9367 29.7915C36.3942 29.8923 36.5058 30.6165 36.6705 30.8454Z" fill="#415385"/>
<path d="M11.4224 48.4253C11.4091 48.7196 11.632 48.9688 11.9208 48.9819C12.2094 48.995 12.4544 48.7674 12.4677 48.473C12.4811 48.1784 12.2579 47.9287 11.9694 47.9156C11.6808 47.9022 11.4361 48.1306 11.4224 48.4253Z" fill="#415385"/>
<path d="M32.3279 57.7128C32.3327 57.8575 32.5199 57.806 32.941 57.8147C32.941 57.8147 37.1288 58.1749 37.0217 57.5729L37.0117 57.2397C37.0078 57.095 36.887 56.981 36.7426 56.9855L32.5719 57.1105C32.4272 57.1147 32.314 57.2354 32.3185 57.3796L32.3279 57.7128Z" fill="#415385"/>
<path d="M29.0399 45.1337L33.2108 45.008C33.3553 45.0032 33.4753 45.1169 33.48 45.2616L33.4897 45.5953C33.4939 45.7395 33.3799 45.8603 33.2358 45.8645L31.4844 45.9167L34.9215 57.0962L34.5487 57.1598L31.0714 45.9293L29.0656 45.9892C28.9209 45.9939 28.8004 45.8802 28.7962 45.7358L28.7862 45.4021C28.782 45.2571 28.8957 45.1369 29.0399 45.1337Z" fill="#415385"/>
<path d="M46.86 48.357C46.8676 48.3573 46.8747 48.3578 46.8815 48.357L47.0126 48.3507C47.1207 48.3465 47.2045 48.2544 47.1998 48.1459C47.1945 48.0369 47.1037 47.954 46.9944 47.9592L46.8639 47.9653C46.7552 47.9697 46.6717 48.0616 46.677 48.1695C46.682 48.2698 46.7618 48.3499 46.86 48.357Z" fill="#263A5A"/>
<path d="M33.1178 48.9805C33.1254 48.9808 33.1325 48.9813 33.1399 48.9802L33.4043 48.9687C33.4552 48.9661 33.5006 48.9453 33.534 48.9117C33.5702 48.9414 33.6177 48.959 33.6684 48.9566L33.9328 48.9448C33.9835 48.9422 34.0292 48.9209 34.0623 48.887C34.0985 48.9177 34.146 48.9343 34.1964 48.9327L34.4609 48.9209C34.5121 48.9185 34.5575 48.8967 34.5908 48.8637C34.6273 48.8936 34.6746 48.9114 34.7255 48.9088L34.9894 48.8975C35.0406 48.8944 35.086 48.8726 35.1194 48.8395C35.1554 48.87 35.2024 48.8876 35.2536 48.8849L35.5185 48.8726C35.5689 48.8705 35.6146 48.849 35.6482 48.8159C35.6844 48.8453 35.7317 48.8629 35.7829 48.8605L36.0473 48.849C36.0977 48.8461 36.1434 48.8253 36.1768 48.7912C36.2133 48.8214 36.2605 48.8385 36.3115 48.8374L36.5748 48.8251C36.6258 48.8227 36.6714 48.8014 36.7051 48.7681C36.7413 48.798 36.7886 48.8148 36.8398 48.8127L37.1039 48.8009C37.1546 48.7988 37.2003 48.7773 37.2339 48.7442C37.2696 48.7741 37.3174 48.7909 37.368 48.7891L37.6322 48.7773C37.6831 48.7754 37.7286 48.7539 37.7627 48.7203C37.7984 48.7502 37.8454 48.767 37.8966 48.7649L38.1613 48.7531C38.2117 48.7502 38.2574 48.729 38.2905 48.6959C38.327 48.7258 38.3742 48.7431 38.4257 48.741L38.6898 48.7287C38.7408 48.7266 38.7857 48.7051 38.8195 48.6717C38.8558 48.7027 38.9033 48.719 38.954 48.7177L39.2181 48.7056C39.2688 48.7032 39.315 48.682 39.3481 48.6478C39.3846 48.6786 39.4313 48.6951 39.4825 48.693L39.7467 48.6817C39.7976 48.6786 39.8428 48.6575 39.8764 48.6239C39.9129 48.6539 39.9599 48.6715 40.0111 48.6688L40.2752 48.657C40.3262 48.6547 40.3719 48.6331 40.4052 48.5993C40.4415 48.6297 40.4884 48.6468 40.5394 48.6447L40.8041 48.6326C40.8547 48.6308 40.9002 48.6084 40.9338 48.5761C40.9703 48.6058 41.0175 48.6229 41.0685 48.6208L41.3326 48.609C41.3836 48.6058 41.4287 48.5848 41.4626 48.5509C41.4986 48.5817 41.5461 48.599 41.597 48.5969L41.8612 48.5848C41.9121 48.5827 41.9573 48.5612 41.9909 48.5278C42.0269 48.5586 42.0736 48.5748 42.1251 48.5725L42.3897 48.5609C42.4401 48.5591 42.4858 48.5375 42.5194 48.5039C42.5557 48.5347 42.6022 48.5507 42.6536 48.5494L42.918 48.5365C42.9687 48.5347 43.0144 48.5131 43.0475 48.4803C43.0837 48.51 43.131 48.527 43.1824 48.5252L43.4466 48.5134C43.4973 48.5108 43.5429 48.4892 43.576 48.4564C43.6128 48.4858 43.6603 48.5026 43.7107 48.5013L43.9754 48.4892C44.0261 48.4869 44.0715 48.4656 44.1049 48.4315C44.1411 48.4617 44.1889 48.4793 44.2396 48.4769L44.504 48.4648C44.5546 48.4624 44.6003 48.4415 44.6334 48.4071C44.6699 48.438 44.7169 48.4543 44.7678 48.4527L45.0323 48.4409C45.0832 48.4388 45.1289 48.4173 45.1622 48.3839C45.1982 48.4144 45.246 48.4315 45.2964 48.4296L45.5608 48.4176C45.612 48.4152 45.6577 48.3937 45.6905 48.3603C45.727 48.3897 45.774 48.407 45.825 48.4052L46.0894 48.3937C46.14 48.3908 46.1857 48.3695 46.2191 48.3356C46.2553 48.3664 46.3028 48.3832 46.3538 48.3813L46.6179 48.3695C46.7264 48.3643 46.8101 48.2724 46.8049 48.1644C46.7999 48.0557 46.709 47.9728 46.6001 47.9767L46.3357 47.989C46.2847 47.9909 46.2396 48.0127 46.2059 48.0468C46.17 48.0158 46.1227 47.9987 46.0712 48.0008L45.8074 48.0132C45.7556 48.0153 45.7105 48.0366 45.6771 48.0702C45.6409 48.0394 45.5936 48.0224 45.5427 48.0247L45.2785 48.0366C45.2273 48.0392 45.1824 48.0605 45.1486 48.0938C45.1123 48.0641 45.0651 48.0473 45.0144 48.0489L44.7497 48.0605C44.6991 48.0628 44.6536 48.0844 44.62 48.1182C44.584 48.0886 44.5365 48.071 44.4861 48.0731L44.2209 48.0854C44.1708 48.0875 44.1248 48.1088 44.0915 48.1424C44.0555 48.1114 44.0077 48.0946 43.9573 48.0969L43.6923 48.1093C43.6417 48.1106 43.5963 48.1327 43.5632 48.166C43.5264 48.1355 43.4791 48.1185 43.4285 48.1206L43.1643 48.1324C43.1134 48.1348 43.0674 48.1566 43.0346 48.1899C42.9984 48.1597 42.9506 48.1434 42.9002 48.1442L42.6358 48.1563C42.5848 48.1589 42.5394 48.1802 42.5061 48.2141C42.4696 48.1836 42.422 48.1673 42.3716 48.1686L42.1072 48.1807C42.0563 48.1831 42.0106 48.2043 41.9775 48.2382C41.941 48.2078 41.8935 48.1915 41.8431 48.1931L41.5786 48.2049C41.5274 48.2072 41.4818 48.2288 41.4489 48.2618C41.4124 48.2314 41.3654 48.2143 41.3145 48.2172L41.0501 48.229C40.9992 48.2311 40.954 48.2529 40.9204 48.286C40.8839 48.2555 40.8369 48.238 40.7857 48.2411L40.5215 48.2521C40.4703 48.2553 40.4252 48.2768 40.3916 48.3102C40.3551 48.2805 40.3075 48.2634 40.2571 48.2653L39.9927 48.2771C39.9423 48.2794 39.8966 48.3007 39.863 48.3343C39.8265 48.3036 39.7792 48.2873 39.7283 48.2892L39.4639 48.301C39.413 48.3033 39.3675 48.3251 39.3344 48.3585C39.298 48.3275 39.251 48.311 39.2 48.3131L38.9353 48.3251C38.8847 48.3272 38.8392 48.3488 38.8059 48.3826C38.7694 48.3519 38.7224 48.3356 38.6715 48.3375L38.407 48.349C38.3564 48.3522 38.3107 48.3732 38.2771 48.4065C38.2408 48.3769 38.1936 48.3598 38.1424 48.3611L37.879 48.3732C37.8281 48.3753 37.7821 48.3971 37.7488 48.4304C37.7123 48.4007 37.6653 48.3834 37.6149 48.3853L37.3502 48.3973C37.2995 48.3992 37.2538 48.421 37.2205 48.4538C37.1842 48.4239 37.1367 48.407 37.086 48.4086L36.8219 48.4215C36.7712 48.4233 36.7255 48.4451 36.6924 48.4782C36.656 48.4475 36.6089 48.4302 36.5577 48.433L36.2931 48.4449C36.2421 48.4475 36.1972 48.4685 36.1636 48.5026C36.1271 48.4716 36.0801 48.4548 36.0292 48.4569L35.7648 48.4688C35.7136 48.4714 35.6684 48.4929 35.6345 48.5263C35.5986 48.4961 35.5511 48.4795 35.5004 48.4808L35.2362 48.4929C35.1853 48.4953 35.1393 48.5171 35.1063 48.5502C35.0695 48.52 35.0222 48.5034 34.9718 48.505L34.7077 48.5165C34.6562 48.5197 34.6116 48.5407 34.5777 48.574C34.5417 48.5436 34.4942 48.5268 34.443 48.5294L34.1788 48.5415C34.1276 48.5433 34.0825 48.5646 34.0489 48.5985C34.0126 48.568 33.9656 48.5507 33.9144 48.5525L33.6503 48.5649C33.5994 48.567 33.5542 48.5885 33.5206 48.6218C33.4846 48.5916 33.4374 48.5754 33.3861 48.5767L33.1217 48.5888C33.0138 48.5932 32.9298 48.6851 32.9348 48.7936C32.9392 48.8941 33.0196 48.9742 33.1178 48.9805Z" fill="#263A5A"/>
<path d="M32.7228 49.0001C32.7293 49.0003 32.7372 49.0003 32.7446 49.0003L32.8751 48.9943C32.9833 48.989 33.0673 48.8977 33.0618 48.7889C33.0573 48.6813 32.9654 48.5973 32.8572 48.6017L32.7259 48.6083C32.6183 48.6133 32.5345 48.7049 32.5393 48.8134C32.544 48.9139 32.6241 48.9938 32.7228 49.0001Z" fill="#263A5A"/>
<path d="M47.9299 52.0552C47.9367 52.0547 47.9441 52.0542 47.9514 52.0526L48.0801 52.0277C48.1864 52.0069 48.256 51.9043 48.2355 51.7974C48.2148 51.6905 48.1121 51.622 48.0053 51.6422L47.8771 51.6669C47.7703 51.6876 47.7007 51.7911 47.7214 51.8972C47.7406 51.9954 47.8312 52.0634 47.9299 52.0552Z" fill="#263A5A"/>
<path d="M34.4233 54.6673C34.4296 54.667 34.4369 54.6662 34.4445 54.6644L34.7045 54.6145C34.7544 54.6048 34.7961 54.5775 34.8245 54.5389C34.8649 54.5644 34.914 54.5738 34.9641 54.5644L35.2238 54.5142C35.274 54.5048 35.3157 54.4769 35.3441 54.4391C35.3843 54.4635 35.4336 54.4733 35.4838 54.4643L35.7432 54.4142C35.7934 54.4045 35.8354 54.3769 35.8637 54.3388C35.9042 54.3638 35.9533 54.373 36.0029 54.364L36.2631 54.3136C36.3127 54.3042 36.355 54.2766 36.3831 54.2385C36.4233 54.2632 36.4726 54.2734 36.5222 54.2637L36.7825 54.2136C36.8329 54.2033 36.8746 54.176 36.9025 54.1382C36.9429 54.1632 36.9923 54.1731 37.0419 54.1634L37.3018 54.1133C37.3517 54.1043 37.3935 54.0757 37.4221 54.0382C37.4623 54.0634 37.5116 54.0723 37.5612 54.0623L37.8215 54.0132C37.8711 54.0035 37.9134 53.9754 37.9409 53.9376C37.9811 53.962 38.031 53.9723 38.0806 53.9631L38.3406 53.9127C38.3902 53.9032 38.4325 53.8754 38.4608 53.8365C38.5013 53.862 38.5504 53.8717 38.6 53.8625L38.8599 53.8121C38.9098 53.8026 38.9521 53.7748 38.9802 53.7367C39.0204 53.762 39.0697 53.7719 39.1199 53.762L39.3796 53.7121C39.4294 53.7024 39.4712 53.6745 39.4998 53.637C39.54 53.6614 39.5888 53.6714 39.6392 53.6619L39.8989 53.6118C39.9488 53.6031 39.9908 53.5745 40.0192 53.5361C40.0591 53.5619 40.1087 53.5716 40.1591 53.5621L40.418 53.5115C40.4687 53.5023 40.5105 53.4742 40.5386 53.4361C40.579 53.4605 40.6278 53.4713 40.678 53.4613L40.9377 53.4117C40.9878 53.4025 41.0301 53.3739 41.0582 53.3361C41.0983 53.3607 41.1472 53.371 41.1973 53.3613L41.4573 53.3109C41.5077 53.3014 41.5494 53.2738 41.5775 53.2358C41.618 53.2599 41.6666 53.2702 41.7172 53.261L41.9769 53.2108C42.0265 53.2011 42.0686 53.1733 42.0972 53.1357C42.1373 53.1607 42.187 53.1704 42.2371 53.1609L42.4963 53.1113C42.5464 53.1013 42.5884 53.0727 42.6165 53.0349C42.657 53.0598 42.7058 53.0698 42.7562 53.0606L43.0162 53.0107C43.0661 53.0008 43.1083 52.9732 43.1362 52.9351C43.1766 52.9593 43.2254 52.9692 43.2759 52.9603L43.5353 52.9102C43.5857 52.9005 43.6274 52.8726 43.6561 52.8351C43.6962 52.859 43.7451 52.8697 43.7952 52.8603L44.0552 52.8101C44.1053 52.8004 44.1473 52.7728 44.176 52.7345C44.2161 52.7592 44.2652 52.7694 44.3151 52.7602L44.5748 52.7093C44.625 52.6999 44.667 52.672 44.6951 52.6342C44.7355 52.6589 44.7851 52.6691 44.835 52.6594L45.0944 52.6095C45.1446 52.5995 45.1863 52.572 45.2144 52.5339C45.2551 52.5581 45.3042 52.5686 45.3541 52.5596L45.6141 52.5097C45.664 52.4995 45.706 52.4714 45.7341 52.4333C45.7742 52.4583 45.8233 52.4683 45.8735 52.4588L46.1332 52.4087C46.1836 52.3989 46.2253 52.3711 46.254 52.3336C46.2941 52.3577 46.3432 52.3682 46.3934 52.3588L46.6533 52.3089C46.7032 52.2984 46.7447 52.2716 46.7731 52.2333C46.8138 52.2582 46.8629 52.2674 46.9127 52.2587L47.1724 52.2083C47.2226 52.1994 47.2641 52.1708 47.2924 52.1324C47.3329 52.1571 47.3827 52.1674 47.4324 52.1579L47.6921 52.1075C47.7984 52.087 47.8682 51.9841 47.8475 51.8775C47.827 51.7714 47.7244 51.7026 47.6178 51.722L47.3578 51.7722C47.3079 51.7824 47.2659 51.8097 47.2378 51.8483C47.1976 51.8231 47.148 51.8126 47.0981 51.8223L46.8384 51.8727C46.7883 51.8825 46.7465 51.9103 46.7182 51.9478C46.6777 51.924 46.6289 51.9129 46.5788 51.9229L46.3185 51.973C46.2689 51.9828 46.2269 52.0103 46.1986 52.0481C46.1589 52.0243 46.1093 52.014 46.0591 52.0229L45.7994 52.0731C45.7495 52.0831 45.7078 52.1106 45.6794 52.1484C45.6387 52.1235 45.5899 52.1143 45.5395 52.1232L45.2798 52.1739C45.2297 52.1836 45.1876 52.2117 45.1596 52.249C45.1194 52.2249 45.0703 52.2141 45.0201 52.2233L44.7604 52.2732C44.7103 52.2834 44.6683 52.3118 44.6402 52.3496C44.5995 52.3246 44.5509 52.3144 44.5008 52.3238L44.2406 52.3743C44.1907 52.384 44.1486 52.4115 44.1208 52.4501C44.0804 52.4252 44.0305 52.4152 43.9809 52.4249L43.7212 52.4746C43.671 52.4843 43.629 52.5124 43.6012 52.5499C43.5605 52.5258 43.5111 52.5163 43.4615 52.525L43.2016 52.5749C43.1517 52.5848 43.1091 52.6122 43.0816 52.6502C43.0414 52.6261 42.9918 52.6158 42.9419 52.625L42.6822 52.6757C42.632 52.6851 42.5903 52.713 42.5619 52.7511C42.5215 52.7261 42.4729 52.7153 42.4225 52.7253L42.1631 52.776C42.1129 52.7857 42.0709 52.8135 42.0423 52.8511C42.0021 52.8262 41.9528 52.817 41.9031 52.8261L41.6432 52.8758C41.5933 52.8858 41.5515 52.9141 41.5235 52.9511C41.4828 52.9272 41.4334 52.9165 41.3835 52.9264L41.1238 52.9761C41.0739 52.9858 41.0322 53.0141 41.0038 53.0512C40.9636 53.027 40.9135 53.017 40.8639 53.0262L40.6042 53.0772C40.554 53.0866 40.5123 53.1142 40.4845 53.1517C40.444 53.1273 40.3947 53.1171 40.3445 53.1268L40.0853 53.1769C40.0344 53.1869 39.9932 53.2148 39.9651 53.2526C39.9247 53.2279 39.8756 53.2174 39.8251 53.2271L39.5655 53.2772C39.5153 53.2867 39.4736 53.3153 39.4455 53.3521C39.405 53.3279 39.3557 53.3182 39.3058 53.3274L39.0461 53.3773C38.9957 53.387 38.9544 53.4151 38.9258 53.4529C38.8857 53.4282 38.8363 53.4177 38.7864 53.4277L38.5265 53.4771C38.4771 53.4873 38.4348 53.5146 38.4065 53.5535C38.366 53.5283 38.3167 53.5183 38.2665 53.5275L38.0068 53.5779C37.9567 53.5873 37.9152 53.6154 37.8868 53.6535C37.8464 53.6286 37.7973 53.6181 37.7471 53.6286L37.4872 53.6787C37.4373 53.6882 37.3953 53.716 37.3675 53.7535C37.327 53.7294 37.2782 53.7186 37.2275 53.7286L36.9681 53.7788C36.9182 53.7885 36.8759 53.816 36.8476 53.8541C36.8071 53.8292 36.7583 53.8195 36.7084 53.8286L36.4482 53.8788C36.3986 53.8882 36.3566 53.9166 36.3282 53.9544C36.2883 53.9297 36.2387 53.9195 36.1885 53.9289L35.9286 53.9796C35.8789 53.9891 35.8369 54.0164 35.8088 54.0547C35.7687 54.0298 35.719 54.0195 35.6694 54.0293L35.4095 54.0794C35.3593 54.0891 35.3173 54.1167 35.2892 54.1545C35.2488 54.1298 35.1994 54.1198 35.1498 54.1296L34.8896 54.1794C34.84 54.1894 34.7977 54.217 34.7696 54.2548C34.7291 54.2301 34.6803 54.2212 34.6296 54.2299L34.3702 54.2805C34.2639 54.3005 34.194 54.4037 34.2145 54.5103C34.2334 54.6082 34.3245 54.6752 34.4233 54.6673Z" fill="#263A5A"/>
<path d="M34.0341 54.7383C34.0415 54.7375 34.0489 54.7362 34.0562 54.7356L34.1846 54.7104C34.2909 54.6897 34.36 54.5868 34.3395 54.481C34.319 54.3738 34.2164 54.3048 34.1098 54.3247L33.9814 54.3497C33.8748 54.3704 33.8052 54.4728 33.8259 54.5797C33.8454 54.6792 33.9359 54.7461 34.0341 54.7383Z" fill="#263A5A"/>
<path d="M44.6511 49.9472C44.5891 51.3047 45.6176 52.4545 46.9494 52.5154C48.2809 52.5763 49.4105 51.5252 49.4724 50.1675C49.5347 48.8094 48.5057 47.6591 47.1742 47.5982C45.8424 47.5375 44.7131 48.5894 44.6511 49.9472Z" fill="#263A5A"/>
<path d="M46.0158 50.0067C45.9888 50.5951 46.4351 51.0942 47.0128 51.1208C47.5905 51.1473 48.0796 50.6909 48.1064 50.1022C48.1335 49.5135 47.6879 49.0147 47.1102 48.9884C46.5328 48.9619 46.0429 49.418 46.0158 50.0067Z" fill="#415385"/>
<path d="M46.5387 50.0307C46.5253 50.3251 46.7487 50.5742 47.0373 50.5874C47.3258 50.6005 47.5706 50.3729 47.584 50.0785C47.5973 49.7839 47.3747 49.5342 47.0861 49.5211C46.7973 49.5077 46.552 49.7361 46.5387 50.0307Z" fill="#263A5A"/>
<path d="M30.7095 50.4154L31.1325 49.822L32.8849 51.0716L32.9831 48.9219L33.711 48.9552L33.6125 51.1049L35.4707 50.0205L35.8381 50.6501L33.8879 51.7876L35.7262 53.0981L35.3029 53.692L33.5516 52.4422L33.4531 54.5911L32.7253 54.558L32.8237 52.4088L30.9647 53.4935L30.5977 52.8636L32.5475 51.7261L30.7095 50.4154Z" fill="#263A5A"/>
<path d="M29.5507 51.489C29.5357 51.8175 29.7205 52.0674 29.8686 52.268C29.929 52.3492 30.0039 52.4503 30.0183 52.5025C30.0351 52.5629 30.023 52.6884 30.012 52.7992C29.9884 53.0434 29.959 53.348 30.1344 53.6132C30.3113 53.8813 30.6038 53.9742 30.8383 54.0488C30.9433 54.0814 31.0626 54.1197 31.109 54.157C31.1542 54.1932 31.219 54.3043 31.2708 54.3933C31.3963 54.6083 31.5522 54.8741 31.8553 54.9883C31.9319 55.0174 32.0144 55.034 32.1008 55.0382C32.3066 55.0476 32.4988 54.9838 32.6684 54.9281C32.7758 54.8922 32.8979 54.8515 32.9644 54.8544C33.03 54.8573 33.1479 54.909 33.2521 54.9547C33.4162 55.0256 33.6016 55.1064 33.8077 55.1159C33.8939 55.1198 33.9774 55.1109 34.0561 55.0886C34.3691 55.0025 34.5482 54.7517 34.6926 54.5495C34.7525 54.4647 34.8273 54.3607 34.8748 54.3287C34.925 54.2959 35.0471 54.2686 35.1545 54.2457C35.3955 54.1929 35.6951 54.127 35.8957 53.8763C36.0942 53.6284 36.0924 53.3223 36.0916 53.077C36.0911 52.9657 36.0903 52.8397 36.1123 52.7808C36.1318 52.7304 36.2153 52.6362 36.283 52.5611C36.4497 52.3749 36.6561 52.1428 36.6711 51.8143C36.6861 51.4866 36.5017 51.2367 36.3526 51.0363C36.2922 50.9549 36.2174 50.8533 36.2029 50.8016C36.1864 50.7409 36.1987 50.6154 36.2092 50.5043C36.2326 50.2596 36.2623 49.9561 36.0874 49.6904C35.9104 49.4223 35.6182 49.3293 35.3829 49.2553C35.2784 49.2219 35.1589 49.1839 35.1122 49.1461C35.0676 49.1103 35.0027 48.9995 34.9507 48.91C34.8255 48.6963 34.67 48.429 34.366 48.3153C34.2896 48.2861 34.2071 48.2704 34.121 48.2664C33.9149 48.257 33.7229 48.3197 33.553 48.3754C33.4451 48.4111 33.323 48.4523 33.2574 48.4494C33.191 48.4463 33.0733 48.394 32.9696 48.3489C32.8058 48.2777 32.6199 48.1979 32.4143 48.1885C32.3279 48.1845 32.2444 48.1927 32.1654 48.2147C31.8532 48.3006 31.6736 48.5521 31.5291 48.7535C31.4695 48.8381 31.395 48.9423 31.3467 48.9741C31.297 49.0072 31.1747 49.0339 31.0673 49.0578C30.8268 49.1101 30.5272 49.176 30.3263 49.4267C30.1275 49.6754 30.1291 49.9802 30.1304 50.226C30.1312 50.3373 30.1317 50.4634 30.1097 50.5225C30.0905 50.5726 30.0065 50.6671 29.939 50.7425C29.7725 50.9292 29.5656 51.1613 29.5507 51.489ZM30.7721 51.5449C30.8312 50.2538 31.9264 49.2553 33.2175 49.3141C34.5088 49.3732 35.5076 50.4676 35.4485 51.7586C35.3895 53.0497 34.2951 54.0491 33.0037 53.99C31.7127 53.9309 30.7131 52.836 30.7721 51.5449Z" fill="#263A5A"/>
<path d="M31.5934 51.5813C31.5551 52.4194 32.2031 53.1299 33.0415 53.1682C33.8791 53.2066 34.5899 52.5583 34.6282 51.7199C34.6666 50.8818 34.018 50.1718 33.1801 50.1334C32.342 50.0954 31.6317 50.7431 31.5934 51.5813Z" fill="#263A5A"/>
<path d="M32.1202 51.6062C32.0952 52.1536 32.518 52.6163 33.0649 52.6415C33.6116 52.6664 34.0748 52.2442 34.1 51.6967C34.1249 51.1498 33.7022 50.6871 33.1555 50.6622C32.6086 50.637 32.1454 51.0592 32.1202 51.6062Z" fill="#415385"/>
<path d="M32.6636 51.6313C32.6523 51.8789 32.8434 52.0884 33.0908 52.0997C33.3378 52.111 33.5471 51.9198 33.5584 51.6722C33.5697 51.4254 33.3788 51.2159 33.1317 51.2046C32.8841 51.1933 32.6749 51.3844 32.6636 51.6313Z" fill="#263A5A"/>
<path d="M28.6226 44.2418C29.1333 44.0383 29.6393 43.8634 30.0933 43.5691C30.4858 43.3157 30.8093 42.9652 31.2365 42.7601C31.5637 42.6013 31.9334 42.5876 32.2579 42.4729C32.5835 42.3563 32.9012 42.2274 33.2402 42.1426C33.5786 42.058 33.8512 42.1184 34.0883 42.3613C34.1799 42.4563 34.2537 42.5721 34.3138 42.6971C34.7513 43.1821 34.9537 43.8522 34.5436 44.4001C34.2747 44.7604 33.779 44.8221 33.331 44.8675C32.8813 44.9116 32.4656 45.0017 32.0444 45.1411C31.252 45.4053 30.4645 45.7563 29.5965 45.7561C29.0611 45.7569 27.7666 45.5106 27.9302 44.825C27.9987 44.5333 28.3403 44.3547 28.6226 44.2418Z" fill="white"/>
<path d="M29.9292 43.6889C30.0163 43.7419 30.1001 43.8013 30.1831 43.8548C30.2721 43.9102 30.3627 43.9609 30.4562 44.0113C30.5163 44.0441 30.526 44.1274 30.4798 44.1781C30.4291 44.2327 30.3506 44.2427 30.2878 44.2072C30.1938 44.1552 30.1019 44.1056 30.0132 44.0491C29.92 43.9903 29.8276 43.9215 29.7677 43.837C29.7359 43.7955 29.7359 43.7453 29.779 43.7054C29.8199 43.6689 29.8832 43.6626 29.9292 43.6889Z" fill="#556EB0"/>
<path d="M30.5253 43.1886C30.5878 43.1828 30.6316 43.1997 30.6791 43.2325C30.7041 43.2519 30.7282 43.2687 30.754 43.2874C30.8107 43.3257 30.8692 43.3603 30.9312 43.3942C30.9617 43.41 30.9926 43.4249 31.0234 43.4394C31.026 43.4407 31.026 43.4407 31.0263 43.442C31.0357 43.4452 31.0436 43.4478 31.0509 43.4528C31.0656 43.4588 31.0785 43.4646 31.0935 43.4701C31.1602 43.4979 31.2258 43.5242 31.2941 43.5491C31.37 43.5778 31.4164 43.6547 31.3794 43.7269C31.3442 43.7918 31.2508 43.8411 31.1709 43.8096C31.026 43.7553 30.8792 43.6956 30.744 43.6232C30.6812 43.5896 30.619 43.5518 30.562 43.5087C30.4943 43.4549 30.3921 43.38 30.4142 43.2876C30.4257 43.2398 30.4685 43.1926 30.5253 43.1886Z" fill="#556EB0"/>
<path d="M31.0455 42.7951C31.0996 42.7762 31.1526 42.7838 31.2017 42.8035C31.2597 42.826 31.312 42.8618 31.3658 42.8896C31.3881 42.9011 31.4105 42.9119 31.432 42.9224C31.4417 42.9271 31.453 42.934 31.4619 42.9387C31.4656 42.9389 31.474 42.9442 31.4756 42.9453C31.5294 42.9673 31.5827 42.9881 31.6389 43.0062C31.668 43.0164 31.698 43.0238 31.7282 43.0311C31.7384 43.0324 31.7508 43.0358 31.7615 43.0382C31.7702 43.039 31.7796 43.0406 31.7878 43.0424C31.8747 43.055 31.9519 43.1188 31.9335 43.2039C31.9193 43.2777 31.8335 43.3546 31.741 43.3391C31.5037 43.3003 31.2918 43.212 31.0972 43.0949C31.0368 43.0574 30.9604 43.008 30.9512 42.9363C30.9433 42.8791 30.9814 42.8166 31.0455 42.7951Z" fill="#556EB0"/>
<path d="M42.4617 24.507C42.4617 24.507 44.3226 30.6026 29.7107 31.5337C29.7107 31.5337 35.011 39.7708 34.1516 42.0628C34.1516 42.0628 32.3968 43.4416 31.0538 42.5016C29.7107 41.5615 21.7411 33.196 22.4309 29.8936C23.1209 26.5913 33.096 24.0771 33.096 24.0771L42.4617 24.507Z" fill="#CE6466"/>
<path d="M42.4615 24.5044L37.5346 24.2783C37.8526 25.1834 38.7425 28.4934 35.136 29.4182C30.9459 30.4926 27.0244 30.5462 27.0244 30.5462C27.0244 30.5462 34.0361 38.6515 33.8053 42.291C34.0196 42.1621 34.1514 42.0602 34.1514 42.0602C35.0108 39.7682 29.7105 31.5311 29.7105 31.5311C44.3224 30.6 42.4615 24.5044 42.4615 24.5044Z" fill="#B45050"/>
<path d="M25.455 7.56173C25.6979 6.41377 26.3832 5.21276 27.5661 4.8042C27.9392 4.67475 28.3435 4.66031 28.7059 4.78083C28.7308 4.7593 28.7621 4.75221 28.7936 4.77978C28.8057 4.7895 28.8141 4.80263 28.8256 4.81287C28.8256 4.81129 28.8256 4.81076 28.8259 4.80971C28.8306 4.81523 28.8356 4.82337 28.843 4.82888C28.8435 4.83124 28.844 4.83361 28.8461 4.83413C28.9328 4.87247 29.0128 4.92052 29.0927 4.97671C29.1294 4.92078 29.1777 4.9003 29.2334 4.96306C30.1682 6.01229 30.0862 7.39867 29.4311 8.48887C29.5871 8.81 29.7367 9.13716 29.9481 9.42967C30.1204 9.6644 30.3068 9.89048 30.4901 10.1168C30.5407 10.1651 30.5911 10.2132 30.6371 10.262C30.7755 10.4154 30.9055 10.5755 30.9911 10.7525C31.0128 10.7848 31.0423 10.816 31.0654 10.8497C31.0919 10.8864 31.0919 10.971 31.0753 11.0398C31.0845 11.1214 31.0877 11.2065 31.073 11.2979C31.0136 11.6623 30.7547 11.9312 30.4614 12.1412C29.9177 12.5288 28.8889 12.9967 28.41 12.304C28.1156 11.8776 27.9108 11.3819 27.6693 10.9253C27.5356 10.669 27.4148 10.4059 27.2804 10.1512C27.2801 10.147 27.2767 10.1439 27.2754 10.1407C27.1764 10.1659 27.0772 10.1937 26.9755 10.2111C26.3391 10.3132 25.806 9.98474 25.5569 9.40813C25.3098 8.83468 25.3289 8.16197 25.455 7.56173Z" fill="#FDC6B4"/>
<path d="M29.8271 9.24439C29.6769 9.00178 29.5553 8.74341 29.4314 8.48793C29.5023 8.37003 29.565 8.24793 29.622 8.12374C28.8886 7.84147 27.0147 9.05482 25.877 9.87168C26.1576 10.1455 26.5415 10.28 26.9761 10.2101C27.0777 10.1928 27.1769 10.165 27.2759 10.1398C27.2772 10.1427 27.2807 10.1458 27.2809 10.1503C27.4154 10.4052 27.5361 10.6681 27.6698 10.9243C27.6729 10.9301 27.6756 10.9361 27.6787 10.9419C28.4727 10.614 29.4999 10.0505 29.8271 9.24439Z" fill="#FFBA9E"/>
<path d="M30.7051 7.07205C30.4633 11.0474 23.0553 12.0126 24.2666 5.46563C25.0096 0.61777 32.7195 2.31792 30.7051 7.07205Z" fill="#FDC6B4"/>
<path d="M31.699 5.5127C31.699 5.5127 31.3353 7.7737 30.6918 8.0242C29.9665 8.3062 29.8187 7.1648 30.1546 6.69453C30.4901 6.22453 31.699 5.5127 31.699 5.5127Z" fill="#1D2D4F"/>
<path d="M29.2588 6.47133C28.5609 5.93936 28.4629 4.9752 28.5265 4.15624C27.1543 4.81319 24.7323 5.37247 23.7802 3.98504C21.7728 1.05999 25.6576 0.667183 27.8333 1.20335C28.8155 1.43494 29.8411 1.95799 30.2292 2.945C30.2999 3.10438 30.3261 3.12958 30.5005 3.17553C31.076 3.32782 31.5686 3.76448 31.764 4.33059C32.3298 5.73167 30.5651 7.51059 29.2588 6.47133Z" fill="#1D2D4F"/>
<path d="M29.5161 2.2434C28.134 4.0919 24.4028 4.35789 23.8848 1.68359" stroke="#233864" stroke-width="0.9548" stroke-miterlimit="10" stroke-linecap="round" stroke-linejoin="round"/>
<path d="M28.2618 1.48352C27.6025 2.89747 25.3284 2.69503 24.7959 1.23828" stroke="#233864" stroke-width="0.9548" stroke-miterlimit="10" stroke-linecap="round" stroke-linejoin="round"/>
<path d="M31.7365 4.75703C30.5276 2.92847 29.0942 4.68324 29.3731 6.23793" stroke="#233864" stroke-width="0.9548" stroke-miterlimit="10" stroke-linecap="round" stroke-linejoin="round"/>
<path d="M29.6896 4.96633C29.9735 5.0086 30.209 5.23547 30.3101 5.50408C30.4112 5.77269 30.3918 6.07517 30.308 6.34982C30.2497 6.54045 30.1591 6.72504 30.0186 6.86683C29.8784 7.00862 29.6841 7.10366 29.4848 7.09736C29.1238 7.08555 28.8413 6.74027 28.7877 6.38291C28.7097 5.86249 29.0012 4.86366 29.6896 4.96633Z" fill="#FDC6B4"/>
<path d="M29.6244 6.57232C29.5798 6.60409 29.5181 6.61722 29.4693 6.59254C29.411 6.56313 29.3868 6.48961 29.3944 6.42502C29.402 6.36043 29.4346 6.30161 29.464 6.24358C29.4937 6.18555 29.5215 6.12332 29.5184 6.05821C29.5152 5.99099 29.48 5.92981 29.4435 5.87336C29.407 5.8169 29.3674 5.75992 29.3537 5.69402C29.3401 5.62811 29.36 5.54987 29.4188 5.51731C29.4598 5.49473 29.5115 5.49866 29.5535 5.51862C29.5958 5.53858 29.6297 5.57271 29.6586 5.60947C29.751 5.72632 29.7975 5.87257 29.7983 6.02066C29.799 6.1459 29.8132 6.24201 29.7636 6.36148C29.7321 6.43684 29.693 6.52322 29.6244 6.57232Z" fill="#FFBA9E"/>
<path d="M24.2996 7.07225C24.2996 7.07225 23.9123 7.31539 24.0242 7.67512C24.136 8.03484 24.3406 8.17348 24.6496 8.00517C24.9584 7.8366 24.6488 6.91707 24.2996 7.07225Z" fill="#FDC6B4"/>
<path d="M25.4489 18.021C25.2804 17.8889 25.033 17.9516 24.9456 18.147C22.01 24.6997 20.1019 26.1132 18.8587 26.0163C18.4485 25.9842 17.3791 25.7306 16.3876 26.3027C16.0612 26.491 15.8042 26.7339 15.6012 26.9875C15.3966 27.2433 15.6435 27.6075 15.9559 27.5101C17.0472 27.17 17.4434 27.1561 17.4799 27.2876C17.5694 27.6101 17.1756 27.8965 17.659 27.9323C18.1382 27.9677 25.5453 28.3902 28.1364 20.3993C28.1789 20.2681 28.1337 20.1221 28.025 20.037L25.4489 18.021Z" fill="#FDC6B4"/>
<path d="M24.7557 18.5684C24.7439 18.5946 24.7315 18.6217 24.7197 18.6477L27.3809 22.2551C27.6624 21.6935 27.9171 21.0783 28.1366 20.4014C28.1413 20.3869 28.141 20.372 28.1437 20.3573L24.7557 18.5684Z" fill="#FFBA9E"/>
<path d="M24.2939 18.4255C24.2939 18.4255 26.5484 11.6627 29.6743 10.536C33.4314 9.18187 40.1609 13.769 41.892 18.395C42.7039 20.5636 42.9006 22.7369 42.8181 24.5431C42.7065 26.9863 32.7876 24.6227 33.0951 24.0765C33.1668 21.8735 32.2554 18.697 29.7048 18.1571L28.1125 21.2597L24.2939 18.4255Z" fill="white"/>
<path d="M29.2627 15.166C29.2627 15.166 30.3274 16.2591 29.7054 18.1567" stroke="#223241" stroke-width="0.7161" stroke-miterlimit="10" stroke-linecap="round" stroke-linejoin="round"/>
</svg>
