<svg width="225" height="194" viewBox="0 0 225 194" fill="none" xmlns="http://www.w3.org/2000/svg">
<path d="M112.5 187.908C172.192 187.908 220.582 163.819 220.582 134.104C220.582 104.389 172.192 80.3008 112.5 80.3008C52.8079 80.3008 4.41797 104.389 4.41797 134.104C4.41797 163.819 52.8079 187.908 112.5 187.908Z" fill="#F5F5F5"/>
<path d="M81.6227 166.761L77.5214 164.721C77.1897 164.556 77.1893 164.288 77.5214 164.123L107.006 149.445C107.338 149.279 107.423 148.929 107.224 148.647C106.288 147.321 105.925 145.894 106.172 144.446C106.564 142.145 108.522 140.009 111.686 138.434C115.102 136.734 119.62 135.798 124.407 135.798C129.195 135.798 133.713 136.734 137.128 138.434C140.736 140.23 142.723 142.675 142.723 145.319C142.723 147.964 140.736 150.408 137.128 152.205C133.716 153.903 129.201 154.839 124.416 154.839C122.444 154.839 120.516 154.681 118.667 154.369C118.29 154.305 117.718 154.38 117.386 154.545L112.796 156.831C112.464 156.996 111.892 157.07 111.518 156.998L108.42 156.394C108.046 156.321 107.474 156.396 107.142 156.561L106.208 157.026C105.876 157.191 105.593 157.593 105.576 157.923L105.473 159.894C105.456 160.224 105.173 160.626 104.84 160.791L103.665 161.376C103.334 161.541 102.755 161.698 102.374 161.727L99.6357 161.935C99.2541 161.963 98.6736 162.117 98.3388 162.278L97.2098 162.822C96.8754 162.983 96.6441 163.379 96.6936 163.706L96.7643 164.174C96.8138 164.502 96.5847 164.901 96.2531 165.066L92.8479 166.761C92.5163 166.926 91.9367 167.06 91.5533 167.06H82.9173C82.5339 167.06 81.9543 166.926 81.6227 166.761ZM128.93 141.493C127.836 141.493 126.782 141.705 126.039 142.075C125.492 142.347 125.166 142.679 125.166 142.962C125.166 143.246 125.492 143.577 126.039 143.849C126.782 144.219 127.836 144.432 128.93 144.432C130.024 144.432 131.078 144.219 131.821 143.849C132.367 143.577 132.694 143.246 132.694 142.962C132.694 142.679 132.367 142.347 131.821 142.075C131.078 141.705 130.024 141.493 128.93 141.493Z" fill="#E0E0E0"/>
<path d="M40.6584 156.645L10.9989 141.881C9.96391 141.365 9.96391 140.53 10.9989 140.014L68.7915 111.245C69.8265 110.73 71.505 110.73 72.5405 111.245L102.2 126.009C103.235 126.525 103.235 127.36 102.2 127.876L44.4074 156.645C43.3719 157.16 41.6934 157.16 40.6584 156.645Z" fill="#E0E0E0"/>
<path d="M100.89 10.5876L43.4363 39.184C42.2861 39.7602 41.3496 41.1582 41.3496 42.3059V154.021C41.3496 155.169 42.2861 155.636 43.4363 155.06L100.89 126.464C102.04 125.888 102.977 124.49 102.977 123.342V11.6267C102.976 10.479 102.04 10.0115 100.89 10.5876ZM99.9688 113.048C99.9688 114.03 99.1692 114.656 98.1779 115.147L45.9396 141.151C44.9537 141.642 44.1486 141.245 44.1486 140.258V52.7477C44.1486 51.7606 44.9537 50.5656 45.9396 50.0697L98.1779 24.071C99.1692 23.5752 99.9688 23.9763 99.9688 24.9588V113.048Z" fill="#0172D0"/>
<path opacity="0.75" d="M100.89 10.5876L43.4363 39.184C42.2861 39.7602 41.3496 41.1582 41.3496 42.3059V154.021C41.3496 155.169 42.2861 155.636 43.4363 155.06L100.89 126.464C102.04 125.888 102.977 124.49 102.977 123.342V11.6267C102.976 10.479 102.04 10.0115 100.89 10.5876ZM99.9688 113.048C99.9688 114.03 99.1692 114.656 98.1779 115.147L45.9396 141.151C44.9537 141.642 44.1486 141.245 44.1486 140.258V52.7477C44.1486 51.7606 44.9537 50.5656 45.9396 50.0697L98.1779 24.071C99.1692 23.5752 99.9688 23.9763 99.9688 24.9588V113.048Z" fill="white"/>
<path d="M43.1761 155.172C42.0173 155.632 40.3312 155.592 39.2552 155.061L36.8653 153.87C35.7065 153.295 34.7705 151.903 34.7705 150.748V39.0405C34.7705 38.6032 34.9051 38.1395 35.1328 37.6937C35.2052 37.5467 35.288 37.4039 35.3812 37.2611C35.3866 37.2611 35.3866 37.2568 35.3866 37.2568L41.9611 40.5304H41.9665C41.827 40.7446 41.7028 40.9677 41.6042 41.1904C41.444 41.5648 41.3509 41.9485 41.3509 42.3055V154.022C41.35 155.079 42.1469 155.56 43.1761 155.172Z" fill="#0172D0"/>
<path opacity="0.6" d="M43.1761 155.172C42.0173 155.632 40.3312 155.592 39.2552 155.061L36.8653 153.87C35.7065 153.295 34.7705 151.903 34.7705 150.748V39.0405C34.7705 38.6032 34.9051 38.1395 35.1328 37.6937C35.2052 37.5467 35.288 37.4039 35.3812 37.2611C35.3866 37.2611 35.3866 37.2568 35.3866 37.2568L41.9611 40.5304H41.9665C41.827 40.7446 41.7028 40.9677 41.6042 41.1904C41.444 41.5648 41.3509 41.9485 41.3509 42.3055V154.022C41.35 155.079 42.1469 155.56 43.1761 155.172Z" fill="white"/>
<path d="M71.1854 138.082C70.8353 138.082 70.5099 138.011 70.2219 137.867C69.5316 137.524 69.1514 136.814 69.1514 135.87C69.1514 134.002 70.6782 131.722 72.5543 130.789C73.5029 130.316 74.4056 130.245 75.0959 130.589C75.7862 130.932 76.1664 131.642 76.1664 132.586C76.1664 134.454 74.6396 136.734 72.7635 137.668C72.2114 137.944 71.6741 138.082 71.1854 138.082ZM74.1311 130.735C73.7162 130.735 73.2509 130.858 72.7635 131.1C71.0022 131.977 69.5699 134.117 69.5699 135.87C69.5699 136.68 69.8759 137.279 70.4316 137.555C70.986 137.832 71.7407 137.76 72.5547 137.356C74.316 136.479 75.7484 134.339 75.7484 132.586C75.7484 131.776 75.4424 131.178 74.8866 130.901C74.6639 130.79 74.4092 130.735 74.1311 130.735Z" fill="#678898"/>
<path d="M72.1626 27.2947C72.9361 26.9099 73.5634 27.2218 73.5634 27.992C73.5634 28.7622 72.9361 29.6988 72.1626 30.0837C71.389 30.4686 70.7617 30.1566 70.7617 29.3865C70.7617 28.6163 71.389 27.6796 72.1626 27.2947Z" fill="#678898"/>
<path d="M66.7556 34.6404L77.5695 29.2569C78.2148 28.9357 78.7377 29.1638 78.7377 29.7664C78.7377 30.3689 78.2148 31.1178 77.5695 31.439L66.7551 36.8225C66.1098 37.1438 65.5869 36.9157 65.5869 36.3131C65.5874 35.7105 66.1107 34.9617 66.7556 34.6404Z" fill="#678898"/>
<path d="M99.9687 113.048C99.9687 114.031 99.169 114.656 98.1777 115.148L45.9394 141.151C44.9535 141.643 44.1484 141.246 44.1484 140.259V52.7479C44.1484 51.7608 44.9535 50.5658 45.9394 50.0699L98.1777 24.0712C99.169 23.5753 99.9687 23.9765 99.9687 24.9589V113.048Z" fill="#678898"/>
<path d="M102.955 11.3405C102.806 10.4038 101.936 10.0647 100.892 10.5866L43.4344 39.1837C42.8602 39.4693 42.3378 39.9644 41.9602 40.5305L35.3857 37.2569C35.7682 36.6904 36.2857 36.2043 36.8649 35.9187L94.3119 7.3173C95.4603 6.74189 97.3327 6.74189 98.4915 7.3173L100.891 8.50341C101.947 9.03458 102.821 10.2521 102.955 11.3405Z" fill="#0172D0"/>
<path opacity="0.9" d="M102.955 11.3405C102.806 10.4038 101.936 10.0647 100.892 10.5866L43.4344 39.1837C42.8602 39.4693 42.3378 39.9644 41.9602 40.5305L35.3857 37.2569C35.7682 36.6904 36.2857 36.2043 36.8649 35.9187L94.3119 7.3173C95.4603 6.74189 97.3327 6.74189 98.4915 7.3173L100.891 8.50341C101.947 9.03458 102.821 10.2521 102.955 11.3405Z" fill="white"/>
<path d="M54.867 52.131C54.8553 52.1193 54.849 52.0941 54.849 52.0549V51.6832L54.1745 52.0196C54.1376 52.0378 54.1191 52.0208 54.1191 51.968V51.8345C54.1191 51.8043 54.1214 51.7798 54.1254 51.7612C54.1299 51.743 54.1376 51.7189 54.1488 51.6894L54.8661 50.0008C54.8792 49.9702 54.8904 49.9485 54.9003 49.9353C54.9102 49.9213 54.9255 49.9089 54.9471 49.8984L55.0407 49.8522C55.0691 49.8375 55.0893 49.8371 55.1024 49.8507C55.115 49.8639 55.1213 49.8914 55.1213 49.9325V51.2316L55.2702 51.1575C55.2986 51.1435 55.3184 51.1423 55.3296 51.1547C55.3409 51.1683 55.3467 51.1951 55.3467 51.2362V51.3247C55.3467 51.3639 55.3409 51.3945 55.3296 51.4178C55.3184 51.4407 55.2986 51.4597 55.2702 51.4737L55.1213 51.5482V51.9199C55.1213 51.9591 55.1154 51.9905 55.1033 52.0138C55.0911 52.0371 55.07 52.0561 55.0407 52.0712L54.9278 52.1271C54.899 52.141 54.8792 52.1426 54.867 52.131ZM54.8936 51.3441V50.4179L54.404 51.5881L54.8936 51.3441Z" fill="#FAFAFA"/>
<path d="M55.6687 51.507C55.5364 51.3727 55.4707 51.1194 55.4707 50.7473C55.4707 50.3771 55.5373 50.0586 55.6696 49.7916C55.8024 49.5243 55.9887 49.3311 56.2285 49.212C56.3253 49.1635 56.4153 49.1336 56.499 49.1231C56.5827 49.1115 56.652 49.1204 56.7078 49.1495C56.7204 49.1557 56.7267 49.167 56.7267 49.1825C56.7267 49.193 56.724 49.2073 56.7181 49.2255L56.6565 49.4195C56.6479 49.4432 56.6394 49.458 56.6308 49.4622C56.6263 49.4642 56.6169 49.4634 56.6029 49.4595C56.5062 49.425 56.3914 49.4405 56.2582 49.5068C56.0962 49.5876 55.9693 49.7206 55.8766 49.9069C55.7844 50.0939 55.7385 50.329 55.7385 50.6138C55.7385 50.9013 55.783 51.0926 55.873 51.1865C55.9621 51.2812 56.085 51.2897 56.2411 51.2121C56.2978 51.1838 56.3532 51.1496 56.4072 51.1081C56.4612 51.067 56.5053 51.0251 56.5395 50.982V50.3783L56.2587 50.518C56.2303 50.5327 56.2105 50.5331 56.1993 50.5199C56.1876 50.5071 56.1822 50.4803 56.1822 50.4388V50.3539C56.1822 50.3127 56.188 50.2809 56.1993 50.2592C56.2105 50.2371 56.2303 50.2192 56.2587 50.2045L56.7078 49.981C56.7388 49.9655 56.7613 49.9662 56.7748 49.9821C56.7888 49.9981 56.7951 50.0303 56.7951 50.078V50.9393C56.7951 50.9719 56.7928 50.9975 56.7883 51.0158C56.7843 51.0344 56.7748 51.0534 56.7609 51.0736C56.6304 51.2649 56.4526 51.4162 56.2285 51.5279C55.9869 51.6486 55.8006 51.6416 55.6687 51.507Z" fill="#FAFAFA"/>
<path d="M94.9066 29.5039C94.8306 29.4077 94.7361 29.3817 94.6393 29.4298L91.9506 30.763C91.776 30.8495 91.6396 31.1587 91.6396 31.4668V32.7697C91.6396 32.9416 91.681 33.089 91.7566 33.1853C91.789 33.2264 91.8255 33.2551 91.8651 33.2706C91.916 33.2904 91.9695 33.2865 92.024 33.2598L94.7127 31.9266C94.8868 31.8397 95.0237 31.5308 95.0237 31.222V29.9191C95.0241 29.7476 94.9822 29.6001 94.9066 29.5039ZM91.8304 33.0176C91.803 32.9831 91.7872 32.9133 91.7872 32.8271V31.5242C91.7872 31.2973 91.8957 31.0516 92.024 30.988L94.7127 29.6549C94.7442 29.6393 94.7735 29.6362 94.7978 29.6455C94.8113 29.6506 94.8225 29.6595 94.8324 29.6719C94.8598 29.7068 94.8756 29.7763 94.8756 29.862V31.1649C94.8756 31.3927 94.7672 31.6383 94.6389 31.7019L91.9501 33.0351C91.9015 33.0596 91.8583 33.0533 91.8304 33.0176Z" fill="#FAFAFA"/>
<path d="M94.5879 30.05V31.16C94.5879 31.3661 94.4601 31.5562 94.2531 31.6586L92.0643 32.7404C92.0279 32.7582 91.9824 32.7357 91.9824 32.6996V31.5531C91.9824 31.3874 92.0666 31.1996 92.1579 31.1542L94.4871 29.9999C94.5326 29.9778 94.5879 30.0057 94.5879 30.05Z" fill="#FAFAFA"/>
<path d="M95.124 29.878C95.1983 29.84 95.259 30.0258 95.259 30.2935V30.5356C95.259 30.803 95.1978 31.0556 95.1227 31.0994L94.9863 31.1789L94.9895 29.9467C94.9895 29.9467 95.0493 29.916 95.124 29.878Z" fill="#FAFAFA"/>
<path d="M59.531 49.3174C59.531 49.6045 59.356 49.9246 59.1395 50.0321C58.9231 50.1396 58.748 49.9945 58.748 49.7073C58.748 49.4202 58.9231 49.1001 59.1395 48.9926C59.3555 48.8848 59.531 49.0303 59.531 49.3174Z" fill="#FAFAFA"/>
<path d="M59.1386 48.1424C58.744 48.3387 58.4011 48.8032 58.2278 49.3208C58.1927 49.4259 58.2107 49.526 58.2692 49.5578L58.2697 49.5582C58.3439 49.5982 58.4537 49.5151 58.4974 49.3828C58.6189 49.0162 58.861 48.6887 59.1382 48.5506C59.4163 48.4121 59.6579 48.4994 59.779 48.7446C59.8231 48.8338 59.9329 48.8078 60.0076 48.693L60.008 48.6918C60.0665 48.6014 60.0841 48.4842 60.049 48.4144C59.8762 48.0691 59.5333 47.9461 59.1386 48.1424Z" fill="#FAFAFA"/>
<path d="M59.1387 47.3098C58.5524 47.6016 58.0362 48.2659 57.7406 49.0256C57.6969 49.1373 57.7095 49.2498 57.773 49.2847L57.7743 49.2855C57.8463 49.3251 57.9498 49.2479 57.9989 49.1206C58.2383 48.4994 58.6595 47.9566 59.1392 47.718C59.6184 47.4794 60.0414 47.6024 60.2808 47.9849C60.3299 48.0629 60.4334 48.0373 60.5049 47.9264C60.5684 47.829 60.581 47.704 60.5378 47.6354C60.2444 47.1682 59.7264 47.0173 59.1387 47.3098Z" fill="#FAFAFA"/>
<path d="M69.5736 42.9072C69.5614 42.8924 69.5569 42.8723 69.5592 42.8455C69.5619 42.8191 69.5709 42.7939 69.5866 42.7702L70.1487 41.9023C70.1626 41.8817 70.1766 41.8615 70.1914 41.8413C70.2063 41.8215 70.222 41.8072 70.2391 41.7983L70.4412 41.6978C70.4601 41.6885 70.4767 41.6892 70.4907 41.7009C70.5042 41.7121 70.5109 41.7304 70.5109 41.756V43.9777C70.5109 44.0025 70.5042 44.0281 70.4907 44.0529C70.4767 44.0785 70.4605 44.0956 70.4412 44.1049L70.231 44.2093C70.2121 44.2186 70.1959 44.2178 70.182 44.2062C70.1685 44.1949 70.1608 44.1767 70.1608 44.1515V42.4528L69.7932 43.0178C69.7779 43.0414 69.7608 43.0562 69.7423 43.0616C69.7243 43.0674 69.7085 43.0631 69.6946 43.0492L69.5736 42.9072Z" fill="#FAFAFA"/>
<path d="M70.8838 42.2544C70.8717 42.2405 70.8672 42.2195 70.8699 42.1927C70.8721 42.1668 70.8812 42.1415 70.8969 42.1175L71.4594 41.2499C71.4729 41.229 71.4873 41.2088 71.5022 41.1886C71.5166 41.1692 71.5327 41.1548 71.5498 41.1463L71.7515 41.0454C71.7704 41.0361 71.787 41.0369 71.8009 41.0485C71.8144 41.0602 71.8216 41.0784 71.8216 41.1032V43.3249C71.8216 43.3505 71.8149 43.3754 71.8009 43.4006C71.787 43.4258 71.7704 43.4433 71.7515 43.4526L71.5418 43.557C71.5224 43.5667 71.5062 43.5655 71.4923 43.5539C71.4788 43.5426 71.4715 43.5244 71.4715 43.4991V41.8005L71.1039 42.3654C71.0881 42.3891 71.0715 42.4038 71.0531 42.4093C71.0346 42.4151 71.0189 42.4108 71.0054 42.3968L70.8838 42.2544Z" fill="#FAFAFA"/>
<path d="M72.6039 41.3025C72.6228 41.2928 72.6395 41.2939 72.6534 41.3052C72.6669 41.3168 72.6741 41.3351 72.6741 41.3603V41.6974C72.6741 41.7227 72.6669 41.7483 72.6534 41.7731C72.6395 41.7987 72.6228 41.8154 72.6039 41.8251L72.3632 41.945C72.3443 41.9543 72.3276 41.9535 72.3137 41.9419C72.3002 41.9306 72.293 41.912 72.293 41.8872V41.55C72.293 41.5244 72.3002 41.4996 72.3137 41.4743C72.3276 41.4495 72.3438 41.4321 72.3632 41.4227L72.6039 41.3025ZM72.6039 42.506C72.6228 42.4963 72.6395 42.4975 72.6534 42.5088C72.6669 42.5204 72.6741 42.5386 72.6741 42.5639V42.901C72.6741 42.9262 72.6669 42.9519 72.6534 42.9767C72.6395 43.0023 72.6228 43.019 72.6039 43.0287L72.3632 43.1486C72.3443 43.1579 72.3276 43.1571 72.3137 43.1455C72.3002 43.1342 72.293 43.1156 72.293 43.0908V42.7536C72.293 42.728 72.3002 42.7031 72.3137 42.6779C72.3276 42.6531 72.3438 42.6356 72.3632 42.6263L72.6039 42.506Z" fill="#FAFAFA"/>
<path d="M73.9876 42.3398C73.9687 42.3491 73.952 42.3483 73.9381 42.3367C73.9246 42.3254 73.9174 42.3068 73.9174 42.282V41.8656L73.1141 42.2653C73.0952 42.2746 73.0786 42.2738 73.0651 42.2626C73.0511 42.2513 73.0439 42.2327 73.0439 42.2075V41.9634C73.0439 41.9312 73.0498 41.9006 73.0606 41.8707C73.0723 41.8408 73.0853 41.8086 73.1006 41.7737L73.8935 40.0653C73.9282 39.9908 73.9637 39.9443 73.9993 39.9268L74.1964 39.8286C74.2153 39.8193 74.2319 39.8201 74.2459 39.8317C74.2594 39.843 74.2661 39.8612 74.2661 39.8868V41.2623L74.4893 41.1513C74.5082 41.142 74.5249 41.1428 74.5384 41.1544C74.5523 41.1657 74.5591 41.1847 74.5591 41.2095V41.454C74.5591 41.4788 74.5523 41.5044 74.5384 41.5296C74.5249 41.5548 74.5082 41.5719 74.4893 41.5812L74.2661 41.6922V42.1085C74.2661 42.1334 74.2594 42.159 74.2459 42.1838C74.2319 42.2094 74.2153 42.2265 74.1964 42.2358L73.9876 42.3398ZM73.9174 41.4357V40.6997L73.4741 41.6561L73.9174 41.4357Z" fill="#FAFAFA"/>
<path d="M75.0283 39.5075C75.0283 39.4823 75.0355 39.4575 75.0494 39.4318C75.0629 39.4062 75.0796 39.3895 75.0985 39.3798L76.0723 38.8952C76.0916 38.8855 76.1078 38.8867 76.1218 38.898C76.1353 38.9096 76.1429 38.9274 76.1429 38.9531V39.1975C76.1429 39.2223 76.1357 39.2479 76.1218 39.2728C76.1078 39.2984 76.0916 39.3154 76.0723 39.3251L75.3446 39.6871L75.3163 40.1419C75.3626 40.0934 75.409 40.0554 75.4549 40.0282C75.5003 40.001 75.5381 39.9793 75.5674 39.965C75.6641 39.9168 75.7541 39.8893 75.8365 39.8827C75.9193 39.8757 75.9913 39.8908 76.052 39.9285C76.1123 39.9661 76.16 40.0255 76.1942 40.107C76.2289 40.1881 76.246 40.2928 76.246 40.4216C76.246 40.5683 76.2284 40.7025 76.1929 40.8248C76.1573 40.9466 76.1092 41.0568 76.0475 41.155C75.9863 41.2531 75.9143 41.3385 75.8315 41.4103C75.7487 41.4828 75.6605 41.5418 75.5674 41.5883C75.4477 41.6477 75.346 41.6803 75.2605 41.6865C75.175 41.6923 75.1039 41.678 75.0476 41.6427C74.9914 41.6074 74.9491 41.5565 74.9212 41.489C74.8924 41.4219 74.8766 41.3443 74.8735 41.2566C74.8712 41.2302 74.878 41.2046 74.8924 41.1802C74.9072 41.1553 74.9239 41.139 74.9432 41.129L75.1529 41.025C75.17 41.0164 75.1858 41.016 75.1993 41.0238C75.2132 41.0323 75.2227 41.0475 75.2281 41.0696C75.2384 41.1177 75.2546 41.1526 75.2771 41.174C75.2992 41.1961 75.3253 41.2097 75.3545 41.2147C75.3842 41.2197 75.4171 41.2163 75.4531 41.2054C75.4891 41.1941 75.5273 41.1786 75.5669 41.1588C75.6655 41.1099 75.7447 41.0351 75.805 40.9338C75.8653 40.8325 75.8959 40.7204 75.8959 40.5966C75.8959 40.4934 75.8653 40.422 75.805 40.3836C75.7447 40.3448 75.6655 40.3487 75.5669 40.3952C75.5152 40.4212 75.4738 40.4465 75.4441 40.4721C75.4135 40.4977 75.3892 40.5217 75.3703 40.545C75.3514 40.5683 75.3343 40.5889 75.3185 40.6067C75.3028 40.6249 75.283 40.6401 75.2591 40.6517L75.0206 40.7701C75.0017 40.7794 74.9851 40.7786 74.9716 40.7673C74.9576 40.7561 74.9509 40.7375 74.9509 40.7122L75.0283 39.5075Z" fill="#FAFAFA"/>
<path d="M48.4199 55.374V54.6573L49.1399 54.2988V55.0155L48.4199 55.374Z" fill="#FAFAFA"/>
<path d="M49.5 54.8357V53.4021L50.22 53.0439V54.4772L49.5 54.8357Z" fill="#FAFAFA"/>
<path d="M50.5801 54.2985V52.1485L51.3001 51.79V53.9403L50.5801 54.2985Z" fill="#FAFAFA"/>
<path d="M51.6602 53.7606V50.8933L52.3802 50.5352V53.4021L51.6602 53.7606Z" fill="#FAFAFA"/>
<path d="M167.291 72.5435L159.206 68.5184C158.555 68.1944 157.753 68.1944 157.102 68.5184L156.828 68.6549L139.203 77.4288C137.221 78.4155 136 80.2387 136 82.2117V82.2121V93.7779C136 94.6269 136.333 95.2322 136.877 95.5329C137.46 95.8561 144.343 99.2197 144.887 99.5204C145.47 99.8436 146.296 99.8148 147.212 99.3589L164.836 90.5843C166.605 89.704 168.038 87.5634 168.038 85.8026V74.2356C168.036 73.4813 167.783 72.9202 167.291 72.5435Z" fill="#0172D0"/>
<path opacity="0.1" d="M144.905 99.5294C144.9 99.5275 144.893 99.5232 144.888 99.5209C144.343 99.219 137.462 95.857 136.878 95.5342C136.333 95.2323 136 94.6267 136 93.7789V82.2114C136 81.2275 136.306 80.2796 136.855 79.4551L144.945 83.4825C144.368 84.3454 144.011 85.3209 144.011 86.1985V97.766C144.01 98.6238 144.351 99.2342 144.905 99.5294Z" fill="black"/>
<path d="M168.038 74.2357V85.8027C168.038 87.5635 166.604 89.7041 164.836 90.5844L147.212 99.3591C145.443 100.239 144.01 99.5259 144.01 97.7652V86.1981C144.01 84.4374 145.443 82.2968 147.212 81.4164L164.836 72.6418C166.605 71.7614 168.038 72.4749 168.038 74.2357Z" fill="#0172D0"/>
<path opacity="0.5" d="M159.207 68.5185L167.064 72.4311C166.49 72.1634 165.704 72.2099 164.836 72.6414L147.213 81.4164C146.325 81.8564 145.524 82.6149 144.945 83.4821L136.855 79.4546C136.855 79.4527 136.858 79.4527 136.858 79.4504C137.412 78.6236 138.213 77.9224 139.204 77.4293L156.827 68.6543L157.103 68.5185C157.429 68.3571 157.791 68.2764 158.153 68.2764C158.518 68.276 158.881 68.3571 159.207 68.5185Z" fill="white"/>
<path d="M157.741 89.7473L154.307 91.4568L154.839 86.1009C154.428 85.9135 154.167 85.4529 154.167 84.7914C154.167 83.6119 154.999 82.2418 156.025 81.7312C157.05 81.2206 157.882 81.7626 157.882 82.9422C157.882 83.6037 157.62 84.325 157.209 84.9214L157.741 89.7473Z" fill="#678898"/>
<path d="M157.742 89.7473L154.631 88.1992L154.308 91.4569L157.742 89.7473Z" fill="#87ABBD"/>
<path d="M156.024 81.7312C155.353 82.0653 154.767 82.768 154.44 83.5436L157.209 84.9217V84.921C157.62 84.325 157.882 83.6033 157.882 82.9418C157.882 81.7627 157.05 81.2206 156.024 81.7312Z" fill="#87ABBD"/>
<path d="M159.531 72.403C159.531 72.4022 159.532 72.4015 159.532 72.4007H159.531V60.6699C159.531 58.3198 158.501 56.4593 156.705 55.5654C154.991 54.7122 152.871 54.8278 150.735 55.8909C146.813 57.8437 143.74 62.6084 143.74 66.7382V78.5105H143.739C143.739 78.7398 143.917 78.9688 144.268 79.1437C144.97 79.4937 146.11 79.4937 146.813 79.1437C147.164 78.9688 147.342 78.7398 147.342 78.5105V66.7382C147.342 63.7176 149.721 59.9816 152.536 58.5798C153.496 58.1017 154.359 57.983 154.905 58.2542C155.547 58.5739 155.93 59.4768 155.93 60.6699V72.4007C155.93 72.4011 155.93 72.4015 155.93 72.4019V72.4061H155.931C155.934 72.6335 156.11 72.8605 156.459 73.0339C157.161 73.3839 158.3 73.3839 159.003 73.0339C159.352 72.8605 159.528 72.6335 159.531 72.4061L159.531 72.403Z" fill="#87ABBD"/>
<path opacity="0.7" d="M75.0162 49.4867L121.249 26.4768C121.781 26.2118 122.212 26.4267 122.212 26.9563V42.8907C122.212 43.4203 121.781 44.0644 121.249 44.3294L75.0162 67.3409C74.4843 67.6059 74.0527 67.391 74.0527 66.8614V50.9254C74.0527 50.3954 74.4843 49.7513 75.0162 49.4867Z" fill="#0172D0"/>
<path opacity="0.3" d="M74.3363 50.1077L71.8806 48.8809C71.7051 49.1416 71.5967 49.4357 71.5967 49.7011V65.6362C71.5967 65.897 71.7033 66.0813 71.8725 66.1694C72.0503 66.2613 74.1527 67.2977 74.3174 67.3896C74.1527 67.2977 74.055 67.1134 74.055 66.8604V50.9252C74.055 50.661 74.1626 50.3681 74.3363 50.1077Z" fill="#0172D0"/>
<path opacity="0.5" d="M121.891 26.4C121.548 26.2196 119.637 25.2756 119.481 25.1949C119.308 25.1068 119.063 25.1142 118.792 25.2484L72.5616 48.2619C72.2952 48.3938 72.0545 48.6208 71.8799 48.8804L74.3355 50.1072C74.5097 49.8465 74.75 49.6187 75.015 49.486L121.249 26.4765C121.495 26.3542 121.721 26.3348 121.891 26.4Z" fill="#0172D0"/>
<path d="M81.535 53.9595C81.265 53.9595 81.0134 53.9036 80.7857 53.7911C80.2606 53.5296 79.9717 53.012 79.9717 52.3338C79.9717 51.0926 80.9486 49.6329 82.1965 49.0117V49.011C82.8751 48.6719 83.5379 48.6296 84.0667 48.8911C84.5918 49.1526 84.8807 49.6706 84.8807 50.3484C84.8807 51.5896 83.9038 53.0489 82.6568 53.6701C82.2694 53.8625 81.8882 53.9595 81.535 53.9595Z" fill="white"/>
<path d="M85.8579 54.4438C85.0281 54.0294 83.9728 54.0989 82.8838 54.6409L81.6571 55.2493C79.5268 56.3128 77.8564 58.8077 77.8564 60.9285V62.7494L87.1854 58.1104V56.8572C87.1854 55.7421 86.7052 54.864 85.8579 54.4438Z" fill="white"/>
<path opacity="0.7" d="M90.4922 47.0673C90.4922 48.265 91.5317 48.7182 92.8137 48.0799C97.5221 45.736 109.885 39.5816 114.593 37.2377C115.876 36.5994 116.915 35.111 116.915 33.9133C116.915 32.7155 115.875 32.2623 114.593 32.9006L92.8133 43.7425C91.5317 44.3815 90.4922 45.8699 90.4922 47.0673Z" fill="white"/>
<path d="M92.7183 45.2358L114.69 34.2985C115.117 34.0859 115.464 34.2368 115.463 34.6361C115.463 35.0353 115.117 35.5312 114.689 35.7442L92.7183 46.6819C92.2908 46.8945 91.9443 46.7436 91.9443 46.3444C91.9443 45.9447 92.2908 45.4489 92.7183 45.2358Z" fill="#678898"/>
<path opacity="0.7" d="M90.4922 54.2938C90.4922 55.4916 91.5317 55.9448 92.8137 55.3065C97.5221 52.9626 109.885 46.8081 114.593 44.4642C115.876 43.826 116.915 42.3376 116.915 41.1398C116.915 39.9421 115.875 39.4889 114.593 40.1272L92.8133 50.969C91.5317 51.6081 90.4922 53.0965 90.4922 54.2938Z" fill="white"/>
<path d="M94.1223 51.7652C94.5233 51.5657 94.8482 51.7271 94.8482 52.1264C94.8482 52.5256 94.5233 53.011 94.1223 53.2105C93.7214 53.4099 93.3965 53.2485 93.3965 52.8492C93.3965 52.45 93.7214 51.9646 94.1223 51.7652Z" fill="#678898"/>
<path d="M96.4124 50.6257C96.8133 50.4259 97.1382 50.5877 97.1382 50.9869C97.1382 51.3862 96.8133 51.8715 96.4124 52.071C96.0114 52.2704 95.6865 52.1086 95.6865 51.7097C95.6865 51.3109 96.0114 50.8251 96.4124 50.6257Z" fill="#678898"/>
<path d="M98.7034 49.4851C99.1043 49.2852 99.4292 49.447 99.4292 49.8463C99.4292 50.2455 99.1043 50.7309 98.7034 50.9304C98.3024 51.1298 97.9775 50.968 97.9775 50.5691C97.9775 50.1703 98.3024 49.6849 98.7034 49.4851Z" fill="#678898"/>
<path d="M100.993 48.3444C101.394 48.1446 101.719 48.3064 101.719 48.7057C101.719 49.1049 101.394 49.5903 100.993 49.7897C100.592 49.9895 100.268 49.8277 100.268 49.4285C100.268 49.0292 100.592 48.5442 100.993 48.3444Z" fill="#678898"/>
<path d="M103.284 47.2045C103.685 47.0051 104.01 47.1669 104.01 47.5658C104.01 47.965 103.685 48.4504 103.284 48.6498C102.883 48.8497 102.559 48.6879 102.559 48.2886C102.559 47.8894 102.883 47.404 103.284 47.2045Z" fill="#678898"/>
<path d="M105.574 46.0642C105.975 45.8643 106.3 46.0261 106.3 46.4254C106.3 46.8246 105.975 47.31 105.574 47.5095C105.174 47.7089 104.849 47.5471 104.849 47.1482C104.849 46.749 105.174 46.2636 105.574 46.0642Z" fill="#678898"/>
<path d="M107.866 44.9243C108.266 44.7248 108.591 44.8866 108.591 45.2855C108.591 45.6847 108.266 46.1701 107.866 46.3696C107.465 46.5694 107.14 46.4076 107.14 46.0083C107.14 45.6095 107.465 45.1237 107.866 44.9243Z" fill="#678898"/>
<path d="M110.157 43.7839C110.557 43.5841 110.882 43.7459 110.882 44.1451C110.882 44.5444 110.557 45.0297 110.157 45.2292C109.756 45.429 109.431 45.2672 109.431 44.868C109.43 44.4691 109.756 43.9837 110.157 43.7839Z" fill="#678898"/>
<path d="M112.447 42.6433C112.848 42.4434 113.172 42.6052 113.172 43.0045C113.172 43.4037 112.848 43.8891 112.447 44.0886C112.046 44.288 111.721 44.1262 111.721 43.7273C111.721 43.3285 112.046 42.8431 112.447 42.6433Z" fill="#678898"/>
<path d="M114.738 41.5034C115.139 41.3039 115.463 41.4657 115.463 41.8646C115.463 42.2635 115.139 42.7492 114.738 42.9487C114.337 43.1485 114.012 42.9867 114.012 42.5874C114.012 42.1882 114.337 41.7028 114.738 41.5034Z" fill="#678898"/>
<path d="M117.486 55.352C117.486 55.1824 117.418 55.0633 117.31 55.0028C117.31 55.0028 117.294 54.9915 117.265 54.9803L116.339 54.5143C116.339 54.5143 116.339 54.5139 116.338 54.5139L116.336 54.5127C116.22 54.4565 116.061 54.4654 115.886 54.5527L97.3743 63.7568L96.8352 61.8824C96.7861 61.7408 96.6885 61.6383 96.5679 61.577L96.5715 61.5759L95.608 61.0936L95.6085 61.0971C95.4415 61.0117 95.2278 61.0078 95.0221 61.1103L87.1462 65.0298C86.7925 65.206 86.5059 65.634 86.5059 65.9859L86.5068 88.6299C86.5068 88.7987 86.5711 88.919 86.6787 88.9795L87.67 89.475C87.7843 89.5247 87.9369 89.5134 88.1061 89.4292L116.857 75.1171C117.211 74.9409 117.497 74.513 117.497 74.161L117.486 55.352Z" fill="#0172D0"/>
<path opacity="0.2" d="M96.5547 61.5685C96.3891 61.4893 96.1821 61.492 95.981 61.5914L88.106 65.5106C87.9314 65.5998 87.7716 65.7503 87.6537 65.9238L86.6943 65.4419C86.8095 65.2684 86.9693 65.1156 87.1466 65.0287L95.0216 61.1095C95.2286 61.0074 95.4414 61.0125 95.607 61.0967V61.094L96.5547 61.5685Z" fill="black"/>
<path opacity="0.2" d="M117.265 54.98C117.152 54.9393 117.005 54.9544 116.845 55.0335L98.315 64.2513C97.9599 64.427 97.5788 64.297 97.4604 63.9579L97.374 63.7566L115.886 54.5516C115.986 54.5008 116.084 54.4775 116.17 54.4775C116.232 54.4775 116.288 54.4903 116.335 54.5132H116.338L117.265 54.98Z" fill="black"/>
<path d="M117.486 55.3534L117.497 74.1621C117.497 74.5152 117.211 74.9431 116.856 75.1189L88.0319 89.4671C87.7804 89.5924 87.4658 89.4357 87.4658 89.185V66.4676C87.4658 66.2923 87.5369 66.0963 87.6526 65.9252C87.7709 65.7518 87.9316 65.6009 88.1044 65.5132L95.9803 61.5924C96.1814 61.4947 96.3898 61.4904 96.5554 61.5699L96.572 61.5781H96.5675C96.6881 61.6394 96.7853 61.741 96.8348 61.8842L97.3748 63.7575L97.4599 63.9596C97.5782 64.2983 97.9589 64.4287 98.314 64.2533L116.845 55.0352C117.003 54.9557 117.153 54.9413 117.264 54.9821L117.29 54.9945C117.295 54.9964 117.299 54.9984 117.304 55.0007L117.311 55.0046C117.417 55.0635 117.486 55.1842 117.486 55.3534Z" fill="#0172D0"/>
<path opacity="0.3" d="M117.486 55.3534L117.497 74.1621C117.497 74.5152 117.211 74.9431 116.856 75.1189L88.0319 89.4671C87.7804 89.5924 87.4658 89.4357 87.4658 89.185V66.4676C87.4658 66.2923 87.5369 66.0963 87.6526 65.9252C87.7709 65.7518 87.9316 65.6009 88.1044 65.5132L95.9803 61.5924C96.1814 61.4947 96.3898 61.4904 96.5554 61.5699L96.572 61.5781H96.5675C96.6881 61.6394 96.7853 61.741 96.8348 61.8842L97.3748 63.7575L97.4599 63.9596C97.5782 64.2983 97.9589 64.4287 98.314 64.2533L116.845 55.0352C117.003 54.9557 117.153 54.9413 117.264 54.9821L117.29 54.9945C117.295 54.9964 117.299 54.9984 117.304 55.0007L117.311 55.0046C117.417 55.0635 117.486 55.1842 117.486 55.3534Z" fill="black"/>
<path opacity="0.5" d="M87.6984 89.484C87.6889 89.4821 87.6795 89.4798 87.67 89.4759L86.6787 88.98C86.572 88.9187 86.5059 88.7984 86.5059 88.6293V65.9848C86.5059 65.8075 86.5792 65.6154 86.6953 65.4424L87.6534 65.9239V65.9258C87.5377 66.0969 87.4666 66.2929 87.4666 66.4683V89.1841C87.4666 89.3246 87.5661 89.4371 87.6984 89.484Z" fill="black"/>
<path d="M81.3372 72.932C81.3372 72.7625 81.2697 72.6434 81.1617 72.5828C81.1617 72.5828 81.146 72.5716 81.1163 72.5603L80.1906 72.0943C80.1906 72.0943 80.1902 72.094 80.1897 72.094L80.1875 72.0928C80.0718 72.0365 79.913 72.0455 79.7375 72.1328L61.2258 81.3369L60.6867 79.4625C60.6377 79.3209 60.54 79.2184 60.4194 79.1571L60.423 79.1559L59.4596 78.6737L59.46 78.6772C59.2931 78.5918 59.0793 78.5879 58.8737 78.6903L50.9978 82.6099C50.6441 82.7861 50.3574 83.214 50.3574 83.566L50.3583 106.21C50.3583 106.379 50.4227 106.499 50.5302 106.56L51.5216 107.055C51.6359 107.105 51.7884 107.094 51.9576 107.009L80.7086 92.6972C81.0623 92.521 81.3489 92.093 81.3489 91.7411L81.3372 72.932Z" fill="#0172D0"/>
<path opacity="0.2" d="M60.4063 79.1486C60.2407 79.0694 60.0337 79.0721 59.8325 79.1715L51.9575 83.0906C51.7829 83.1799 51.6232 83.3304 51.5053 83.5039L50.5459 83.022C50.6611 82.8485 50.8208 82.6957 50.9981 82.6087L58.8731 78.6896C59.0801 78.5875 59.293 78.5926 59.4586 78.6767V78.674L60.4063 79.1486Z" fill="black"/>
<path opacity="0.2" d="M81.1165 72.5601C81.004 72.5193 80.8564 72.5345 80.6966 72.6136L62.1665 81.8313C61.8115 82.0071 61.4303 81.8771 61.312 81.538L61.2256 81.3366L79.7372 72.1317C79.8376 72.0809 79.9352 72.0576 80.0212 72.0576C80.0833 72.0576 80.1395 72.0704 80.1868 72.0933H80.1899L81.1165 72.5601Z" fill="black"/>
<path d="M81.3373 72.9335L81.3486 91.7422C81.3486 92.0952 81.0624 92.5232 80.7073 92.699L51.8835 107.047C51.6319 107.173 51.3174 107.016 51.3174 106.765V84.0477C51.3174 83.8724 51.3885 83.6764 51.5041 83.5053C51.6225 83.3319 51.7831 83.1809 51.9559 83.0932L59.8318 79.1725C60.033 79.0747 60.2413 79.0705 60.4069 79.15L60.4236 79.1581H60.4191C60.5397 79.2195 60.6369 79.3211 60.6864 79.4643L61.2264 81.3375L61.3114 81.5397C61.4298 81.8784 61.8105 82.0088 62.1655 81.8334L80.6965 72.6153C80.8549 72.5358 81.0043 72.5214 81.1155 72.5621L81.1416 72.5746C81.1461 72.5765 81.151 72.5784 81.1555 72.5808L81.1627 72.5847C81.2689 72.6436 81.3373 72.7643 81.3373 72.9335Z" fill="#0172D0"/>
<path opacity="0.3" d="M81.3373 72.9335L81.3486 91.7422C81.3486 92.0952 81.0624 92.5232 80.7073 92.699L51.8835 107.047C51.6319 107.173 51.3174 107.016 51.3174 106.765V84.0477C51.3174 83.8724 51.3885 83.6764 51.5041 83.5053C51.6225 83.3319 51.7831 83.1809 51.9559 83.0932L59.8318 79.1725C60.033 79.0747 60.2413 79.0705 60.4069 79.15L60.4236 79.1581H60.4191C60.5397 79.2195 60.6369 79.3211 60.6864 79.4643L61.2264 81.3375L61.3114 81.5397C61.4298 81.8784 61.8105 82.0088 62.1655 81.8334L80.6965 72.6153C80.8549 72.5358 81.0043 72.5214 81.1155 72.5621L81.1416 72.5746C81.1461 72.5765 81.151 72.5784 81.1555 72.5808L81.1627 72.5847C81.2689 72.6436 81.3373 72.7643 81.3373 72.9335Z" fill="black"/>
<path opacity="0.5" d="M51.5499 107.064C51.5405 107.062 51.531 107.06 51.5216 107.056L50.5302 106.56C50.4236 106.499 50.3574 106.379 50.3574 106.209V83.5649C50.3574 83.3876 50.4308 83.1955 50.5469 83.0225L51.5049 83.504V83.5059C51.3893 83.677 51.3182 83.873 51.3182 84.0483V106.764C51.3182 106.905 51.4176 107.017 51.5499 107.064Z" fill="black"/>
<path d="M81.3372 101.57C81.3372 101.4 81.2697 101.281 81.1617 101.221C81.1617 101.221 81.146 101.209 81.1163 101.198L80.1906 100.732C80.1906 100.732 80.1902 100.732 80.1897 100.732L80.1875 100.73C80.0718 100.674 79.913 100.683 79.7375 100.77L61.2258 109.975L60.6867 108.1C60.6377 107.959 60.54 107.856 60.4194 107.795L60.423 107.794L59.4596 107.311L59.46 107.315C59.2931 107.229 59.0793 107.226 58.8737 107.328L50.9978 111.248C50.6441 111.424 50.3574 111.852 50.3574 112.204L50.3583 134.848C50.3583 135.017 50.4227 135.137 50.5302 135.197L51.5216 135.693C51.6359 135.742 51.7884 135.731 51.9576 135.647L80.7086 121.335C81.0623 121.159 81.3489 120.731 81.3489 120.379L81.3372 101.57Z" fill="#0172D0"/>
<path opacity="0.2" d="M60.4063 107.786C60.2407 107.707 60.0337 107.71 59.8325 107.809L51.9575 111.728C51.7829 111.818 51.6232 111.968 51.5053 112.142L50.5459 111.66C50.6611 111.486 50.8208 111.333 50.9981 111.246L58.8731 107.327C59.0801 107.225 59.293 107.23 59.4586 107.314V107.312L60.4063 107.786Z" fill="black"/>
<path opacity="0.2" d="M81.1165 101.198C81.004 101.157 80.8564 101.172 80.6966 101.251L62.1665 110.469C61.8115 110.645 61.4303 110.515 61.312 110.176L61.2256 109.974L79.7372 100.769C79.8376 100.719 79.9352 100.695 80.0212 100.695C80.0833 100.695 80.1395 100.708 80.1868 100.731H80.1899L81.1165 101.198Z" fill="black"/>
<path d="M81.3373 101.571L81.3486 120.38C81.3486 120.733 81.0624 121.161 80.7073 121.337L51.8835 135.685C51.6319 135.81 51.3174 135.653 51.3174 135.403V112.685C51.3174 112.51 51.3885 112.314 51.5041 112.143C51.6225 111.97 51.7831 111.819 51.9559 111.731L59.8318 107.81C60.033 107.712 60.2413 107.708 60.4069 107.788L60.4236 107.796H60.4191C60.5397 107.857 60.6369 107.959 60.6864 108.102L61.2264 109.975L61.3114 110.177C61.4298 110.516 61.8105 110.646 62.1655 110.471L80.6965 101.253C80.8549 101.173 81.0043 101.159 81.1155 101.2L81.1416 101.212C81.1461 101.214 81.151 101.216 81.1555 101.218L81.1627 101.222C81.2689 101.281 81.3373 101.402 81.3373 101.571Z" fill="#0172D0"/>
<path opacity="0.3" d="M81.3373 101.571L81.3486 120.38C81.3486 120.733 81.0624 121.161 80.7073 121.337L51.8835 135.685C51.6319 135.81 51.3174 135.653 51.3174 135.403V112.685C51.3174 112.51 51.3885 112.314 51.5041 112.143C51.6225 111.97 51.7831 111.819 51.9559 111.731L59.8318 107.81C60.033 107.712 60.2413 107.708 60.4069 107.788L60.4236 107.796H60.4191C60.5397 107.857 60.6369 107.959 60.6864 108.102L61.2264 109.975L61.3114 110.177C61.4298 110.516 61.8105 110.646 62.1655 110.471L80.6965 101.253C80.8549 101.173 81.0043 101.159 81.1155 101.2L81.1416 101.212C81.1461 101.214 81.151 101.216 81.1555 101.218L81.1627 101.222C81.2689 101.281 81.3373 101.402 81.3373 101.571Z" fill="black"/>
<path opacity="0.5" d="M51.5499 135.702C51.5405 135.7 51.531 135.698 51.5216 135.694L50.5302 135.198C50.4236 135.136 50.3574 135.016 50.3574 134.847V112.203C50.3574 112.025 50.4308 111.833 50.5469 111.66L51.5049 112.142V112.144C51.3893 112.315 51.3182 112.511 51.3182 112.686V135.402C51.3182 135.542 51.4176 135.655 51.5499 135.702Z" fill="black"/>
<path d="M49.3242 59.3669V77.999C49.3242 78.2493 49.5281 78.5535 49.7792 78.6788L50.577 79.0757C50.8286 79.2006 51.2358 79.2006 51.4874 79.0757L66.7919 71.4853C67.0434 71.3599 67.2468 71.0557 67.2468 70.8055V52.1733C67.2468 51.9231 67.043 51.6189 66.7919 51.4936L65.994 51.0966C65.7425 50.9717 65.3352 50.9717 65.0837 51.0966L49.7792 58.6871C49.5281 58.812 49.3242 59.1166 49.3242 59.3669Z" fill="#EBEBEB"/>
<path d="M67.2438 52.1091C67.2123 51.9062 67.0211 51.8317 66.792 51.9458L51.4884 59.5366C51.3624 59.5983 51.2486 59.7069 51.1649 59.8303L49.458 58.9802C49.5422 58.8568 49.6556 58.7501 49.7798 58.6865L65.0856 51.0957C65.3358 50.9707 65.7435 50.9707 65.996 51.0957L66.7929 51.4926C67.0229 51.6067 67.2141 51.8732 67.2438 52.1091Z" fill="#F5F5F5"/>
<path d="M51.4082 79.1062C51.3997 79.1116 51.3893 79.1136 51.3808 79.1151C51.3641 79.1225 51.3452 79.1279 51.3263 79.1314C51.3241 79.1334 51.3223 79.1334 51.32 79.1334C51.2908 79.1407 51.2588 79.1477 51.2273 79.1532C51.0446 79.1823 50.8426 79.1695 50.6788 79.1151C50.6432 79.1043 50.6095 79.0899 50.578 79.0752L49.7792 78.6783C49.529 78.5533 49.3252 78.2487 49.3252 77.9985V59.3656C49.3252 59.2406 49.3756 59.1029 49.4575 58.9795L51.1643 59.8296C51.0824 59.953 51.032 60.0907 51.032 60.2157V78.8486C51.032 78.9374 51.0572 79.0081 51.1013 79.0554C51.158 79.1151 51.2444 79.1404 51.3452 79.1225C51.3659 79.1186 51.3871 79.1132 51.4082 79.1062Z" fill="#E0E0E0"/>
<path d="M62.7651 66.9563C62.2084 66.9563 61.7467 66.8481 61.3669 66.6296C61.2999 66.5908 61.2814 66.5128 61.3264 66.4546C61.3714 66.3964 61.4623 66.3813 61.5294 66.4193C62.0203 66.7018 62.6836 66.7728 63.5544 66.6374C63.6354 66.6242 63.7105 66.6707 63.7249 66.739C63.7393 66.8077 63.6862 66.8733 63.607 66.8857C63.3046 66.933 63.0247 66.9563 62.7651 66.9563Z" fill="#678898"/>
<path d="M61.1986 66.3163C61.1586 66.3163 61.1181 66.3019 61.0897 66.274C60.5749 65.777 60.5214 65.0246 60.4647 64.2277C60.4552 64.0934 60.4453 63.9568 60.4336 63.8191C60.4003 63.44 60.291 63.1921 60.1083 63.0827C59.9719 63.0012 59.7865 62.9911 59.5422 63.0516C59.4652 63.0707 59.3838 63.0326 59.3613 62.9655C59.3388 62.8984 59.3838 62.8285 59.4612 62.8091C59.791 62.7269 60.0655 62.7498 60.2752 62.8755C60.5376 63.0326 60.6847 63.3353 60.7248 63.8001C60.7369 63.939 60.7468 64.0764 60.7567 64.2122C60.8125 64.9967 60.8607 65.6737 61.3075 66.1056C61.3615 66.1576 61.3561 66.2375 61.2963 66.2837C61.2679 66.3058 61.2333 66.3163 61.1986 66.3163Z" fill="#678898"/>
<path d="M58.4636 68.1256C58.406 68.1256 58.3511 68.0961 58.3281 68.0472C57.8336 67.005 57.5721 63.8607 59.0211 62.9951C59.0864 62.9559 59.1786 62.9691 59.225 63.0269C59.2709 63.0839 59.2542 63.1627 59.1876 63.2027C57.9308 63.9534 58.1274 66.9581 58.5995 67.9514C58.6301 68.0162 58.5941 68.0895 58.5194 68.1159C58.5005 68.1225 58.482 68.1256 58.4636 68.1256Z" fill="#678898"/>
<path d="M61.9007 70.0693C60.4251 70.0693 59.2574 69.5164 58.572 68.4789C58.532 68.4184 58.5563 68.3412 58.6269 68.3067C58.6962 68.2721 58.7862 68.2931 58.8263 68.354C59.5485 69.4466 60.8576 69.9545 62.519 69.7845C62.5995 69.7776 62.672 69.8261 62.6814 69.8951C62.6909 69.9646 62.6337 70.027 62.5532 70.0356C62.3295 70.0581 62.1122 70.0693 61.9007 70.0693Z" fill="#678898"/>
<path d="M62.2263 69.3365C61.2377 69.3365 60.4443 69.0929 59.8616 68.6098C58.9539 67.8575 58.5696 66.5255 58.7204 64.651C58.7492 64.2991 58.9706 63.8467 59.3391 63.6628C59.5367 63.5689 59.7351 63.5666 59.8967 63.6504C60.0762 63.7431 60.1766 63.9224 60.1725 64.1428C60.1478 65.6517 60.4668 66.6283 61.1486 67.128C61.6737 67.5129 62.4216 67.6251 63.4314 67.4703C63.5205 67.4602 63.5876 67.5044 63.6015 67.5727C63.6155 67.6414 63.5624 67.7069 63.4832 67.719C62.3793 67.8877 61.5545 67.757 60.9591 67.3205C60.2067 66.7687 59.8539 65.7281 59.8805 64.1393C59.8827 64.0116 59.8337 63.9123 59.7464 63.8669C59.6748 63.8304 59.5853 63.8339 59.4944 63.8778C59.2469 64.0008 59.039 64.3465 59.0133 64.6689C58.8693 66.4653 59.223 67.7298 60.065 68.4282C60.7022 68.9563 61.6332 69.1681 62.828 69.0552C62.9126 69.051 62.9805 69.0983 62.9895 69.1674C62.9985 69.2364 62.94 69.2989 62.8599 69.3067C62.6399 69.3261 62.4288 69.3365 62.2263 69.3365Z" fill="#678898"/>
<path d="M61.5436 70.9223C60.343 70.9223 59.3746 70.6142 58.6609 70.0043C57.598 69.096 57.13 67.5494 57.2704 65.4084C57.3483 64.2219 57.8572 62.7413 59.0538 62.1461L59.101 62.1233C59.6248 61.8745 60.1162 61.8427 60.5226 62.0321C61.014 62.261 61.3209 62.791 61.3857 63.5247L61.3969 63.6527C61.4608 64.3938 61.527 65.1601 62.0868 65.5388C62.445 65.7809 62.9773 65.8465 63.7131 65.7394C63.8008 65.7278 63.8688 65.7747 63.8818 65.843C63.8953 65.9117 63.8418 65.9769 63.7621 65.9885C62.94 66.1084 62.3329 66.0265 61.9063 65.7379C61.2439 65.2905 61.1701 64.4307 61.1049 63.6718L61.0941 63.5445C61.0365 62.8992 60.7845 62.441 60.3835 62.2544C60.0685 62.1077 59.6739 62.1392 59.2423 62.3444L59.1991 62.3654C58.1029 62.9109 57.6327 64.3535 57.5625 65.4228C57.427 67.4885 57.8658 68.9699 58.867 69.825C59.601 70.4524 60.6432 70.7337 61.9477 70.6585C62.0247 70.6511 62.0976 70.7066 62.1034 70.776C62.1088 70.8455 62.0476 70.9056 61.9666 70.9103C61.8226 70.918 61.6813 70.9223 61.5436 70.9223Z" fill="#678898"/>
<path d="M61.2908 71.8213C60.8016 71.8205 60.2895 71.741 59.7675 71.5842C59.691 71.5613 59.6505 71.4895 59.6771 71.4236C59.7041 71.3576 59.7873 71.3235 59.8638 71.3456C60.3548 71.4926 60.8349 71.5675 61.2912 71.5683C61.3722 71.5683 61.4375 71.6253 61.437 71.6948C61.437 71.765 61.3718 71.8213 61.2908 71.8213Z" fill="#678898"/>
<path d="M59.304 71.4546C59.2842 71.4546 59.2631 71.4512 59.2442 71.4434C58.3365 71.0903 57.6588 70.5471 57.284 69.872C57.2489 69.8091 57.2799 69.7339 57.3528 69.7036C57.4257 69.6741 57.5135 69.6997 57.5481 69.763C57.8973 70.3923 58.5084 70.8804 59.3643 71.2133C59.4381 71.242 59.471 71.3165 59.4381 71.3801C59.4134 71.4271 59.3598 71.4546 59.304 71.4546Z" fill="#678898"/>
<path d="M57.1574 69.4061C57.0971 69.4061 57.0399 69.3735 57.0188 69.3211C56.4491 67.9073 56.0994 65.0104 57.4728 62.8241C57.5115 62.7624 57.5997 62.7399 57.6713 62.7732C57.7424 62.8062 57.7685 62.883 57.7302 62.9443C56.4023 65.0589 56.7429 67.8669 57.296 69.2385C57.3225 69.3044 57.282 69.3762 57.2055 69.3991C57.1893 69.4038 57.1731 69.4061 57.1574 69.4061Z" fill="#678898"/>
<path d="M61.9328 63.5152C61.8581 63.5152 61.7938 63.4659 61.787 63.4007C61.6493 62.1293 61.2511 61.522 60.455 61.3707C59.7049 61.2272 58.7536 61.6866 58.0345 62.5394C57.9872 62.5956 57.895 62.6081 57.8297 62.5673C57.7645 62.5262 57.7501 62.4474 57.7973 62.3908C58.5979 61.4425 59.6396 60.9571 60.5176 61.1243C61.702 61.3498 61.9711 62.3896 62.0782 63.3775C62.0854 63.4469 62.0264 63.5086 61.9459 63.5148C61.9418 63.5148 61.9373 63.5152 61.9328 63.5152Z" fill="#678898"/>
<path d="M63.2029 65.2842C62.9459 65.2842 62.7128 65.2323 62.5189 65.1283C62.1665 64.9397 61.9532 64.5987 61.8839 64.1152C61.874 64.0461 61.9312 63.9833 62.0113 63.9747C62.0927 63.9654 62.1643 64.0155 62.1746 64.0846C62.2322 64.4885 62.3996 64.7678 62.6728 64.9137C62.9504 65.0627 63.3455 65.0712 63.7852 64.9385C63.863 64.9153 63.9454 64.9502 63.9719 65.0158C63.9989 65.0813 63.9584 65.1535 63.8824 65.1768C63.6452 65.2486 63.4153 65.2842 63.2029 65.2842Z" fill="#678898"/>
<path d="M60.6946 72.5055C60.6905 72.5055 60.686 72.5051 60.6815 72.5051C60.4318 72.4857 60.0025 72.4295 59.1614 72.1699C56.6104 71.2697 55.5898 69.4481 55.7423 66.0767C55.8301 64.134 56.9839 61.6376 59.0192 60.6238C59.8634 60.2044 60.6001 60.1225 61.2098 60.3801C61.9375 60.6882 62.4194 61.4692 62.6039 62.6391C62.8064 63.9292 63.1822 64.1542 63.8891 64.1317C63.8909 64.1317 63.8918 64.1317 63.8932 64.1317C63.9724 64.1317 64.0372 64.186 64.0394 64.2543C64.0417 64.3242 63.9782 64.3824 63.8972 64.3843C62.9311 64.4006 62.518 63.9757 62.3137 62.6728C62.1436 61.5903 61.717 60.876 61.0807 60.6067C60.5641 60.3883 59.9197 60.467 59.1655 60.8422C57.2219 61.8099 56.1194 64.2128 56.0348 66.0861C55.8499 70.1686 57.5644 71.333 59.2663 71.9336C60.07 72.1815 60.4741 72.2347 60.7076 72.2529C60.7886 72.2591 60.8476 72.3208 60.8404 72.3903C60.8336 72.4562 60.7697 72.5055 60.6946 72.5055Z" fill="#678898"/>
<path d="M63.8858 63.515C63.0654 63.515 62.8926 62.6001 62.7531 61.8625C62.7333 61.7569 62.7135 61.653 62.6928 61.5544C62.6784 61.4857 62.731 61.4202 62.8107 61.4077C62.8899 61.3938 62.9664 61.4407 62.9808 61.5094C63.0015 61.6095 63.0218 61.715 63.042 61.8221C63.1712 62.5054 63.3259 63.2787 63.9087 63.2624C63.9847 63.2503 64.0572 63.3144 64.0599 63.3842C64.0626 63.454 63.9996 63.5122 63.9186 63.5146C63.9083 63.5146 63.897 63.515 63.8858 63.515Z" fill="#678898"/>
<path d="M62.7111 61.2064C62.6486 61.2064 62.5905 61.1718 62.5712 61.1175C62.276 60.2961 61.7139 59.7801 60.989 59.6637C60.9093 59.6509 60.8571 59.5849 60.8715 59.5162C60.8864 59.4479 60.9606 59.4022 61.0421 59.4154C61.8678 59.5473 62.5266 60.1405 62.8506 61.0426C62.8745 61.1094 62.8313 61.18 62.7543 61.2005C62.7404 61.2044 62.7255 61.2064 62.7111 61.2064Z" fill="#678898"/>
<path d="M57.9161 60.8296C57.8792 60.8296 57.8427 60.8176 57.8139 60.7939C57.7559 60.7454 57.7545 60.6655 57.8112 60.6154C58.6523 59.8689 59.6585 59.4216 60.5729 59.3886C60.6431 59.3797 60.7218 59.4398 60.7254 59.5092C60.7286 59.5787 60.666 59.6377 60.5855 59.6408C59.7579 59.671 58.7994 60.1009 58.0218 60.7912C57.9926 60.8168 57.9543 60.8296 57.9161 60.8296Z" fill="#678898"/>
<path d="M55.4951 64.4043C55.4839 64.4043 55.4717 64.4031 55.46 64.4008C55.3817 64.3841 55.3336 64.3158 55.3529 64.2479C55.6756 63.1211 56.3866 61.9366 57.3037 60.9988C57.3563 60.9456 57.4486 60.939 57.5098 60.9837C57.5714 61.0287 57.5795 61.1082 57.5273 61.1614C56.6386 62.0708 55.9492 63.2178 55.6373 64.3084C55.6211 64.3658 55.5613 64.4043 55.4951 64.4043Z" fill="#678898"/>
<path d="M55.1852 68.1322C55.1123 68.1322 55.0488 68.0852 55.0398 68.0212C54.8922 66.974 54.9359 65.8558 55.1654 64.7876C55.1803 64.7193 55.254 64.6739 55.3359 64.6867C55.4156 64.6995 55.4678 64.7651 55.4534 64.8342C55.2293 65.8775 55.187 66.9693 55.3314 67.9913C55.3413 68.0604 55.2842 68.1233 55.2037 68.1318C55.1974 68.1318 55.1911 68.1322 55.1852 68.1322Z" fill="#678898"/>
<path d="M56.2524 71.1961C56.2024 71.1961 56.1538 71.174 56.1264 71.1344C55.6768 70.4837 55.3227 69.6065 55.1292 68.6636C55.1152 68.5949 55.1683 68.5294 55.248 68.5173C55.3303 68.5061 55.4037 68.5515 55.4176 68.6198C55.6053 69.5331 55.9464 70.3805 56.3779 71.0056C56.4193 71.0653 56.3964 71.1429 56.3271 71.1786C56.3037 71.1903 56.278 71.1961 56.2524 71.1961Z" fill="#678898"/>
<path d="M59.4549 73.3057C59.4364 73.3057 59.4175 73.3026 59.3995 73.2964C58.0666 72.8265 57.1338 72.267 56.5474 71.5861C56.4993 71.5302 56.5128 71.4511 56.5776 71.4096C56.6428 71.3684 56.7337 71.3793 56.7828 71.436C57.3358 72.0789 58.2282 72.6108 59.5107 73.0624C59.5854 73.0888 59.6214 73.1625 59.5908 73.227C59.5674 73.2758 59.5125 73.3057 59.4549 73.3057Z" fill="#678898"/>
<path d="M58.3471 73.8479C58.3287 73.8479 58.3098 73.8448 58.2913 73.8382C55.6273 72.8981 54.2197 70.4863 54.2197 66.8627C54.2197 64.0524 55.7043 60.5154 59.0217 58.9483C60.0679 58.454 61.2789 58.4575 62.2594 58.958C63.4047 59.5427 64.0608 60.7253 64.0608 62.2025C64.0608 62.2723 63.9955 62.3286 63.9145 62.3286C63.8335 62.3286 63.7683 62.2719 63.7683 62.2025C63.7683 60.7964 63.1792 59.7216 62.11 59.1757C61.2195 58.7209 60.1179 58.7186 59.1621 59.1702C55.95 60.6877 54.5118 64.1273 54.5118 66.8627C54.5118 69.3122 55.1868 72.4701 58.402 73.6046C58.4767 73.631 58.5127 73.7047 58.4821 73.7691C58.4596 73.818 58.4047 73.8479 58.3471 73.8479Z" fill="#678898"/>
<path d="M62.4305 68.5653C62.3252 68.5653 62.2221 68.5626 62.1213 68.5575C62.0408 68.5536 61.9791 68.4939 61.9836 68.424C61.9881 68.3546 62.0619 68.3038 62.1384 68.3053C62.4705 68.322 62.8256 68.31 63.2265 68.2685C63.3093 68.2603 63.3795 68.3096 63.3894 68.379C63.3989 68.4481 63.3417 68.511 63.2616 68.5195C62.9633 68.5498 62.6888 68.5653 62.4305 68.5653Z" fill="#678898"/>
<path d="M61.5955 68.5172C61.5861 68.5172 61.5766 68.5165 61.5672 68.5149C60.8544 68.3938 60.2577 68.019 59.9719 67.5127C59.9364 67.4498 59.9665 67.3746 60.0394 67.3439C60.1128 67.3133 60.2001 67.3393 60.2352 67.4021C60.4818 67.8382 61.0002 68.1614 61.6239 68.2674C61.7035 68.2809 61.7548 68.3473 61.7395 68.4156C61.7256 68.4757 61.6644 68.5172 61.5955 68.5172Z" fill="#678898"/>
<path d="M59.8744 67.1956C59.8181 67.1956 59.7641 67.1673 59.7398 67.1195C59.374 66.3924 59.2282 65.41 59.329 64.3535C59.3353 64.2844 59.3978 64.2293 59.4865 64.2383C59.5675 64.2437 59.6269 64.3046 59.6206 64.3744C59.5252 65.3755 59.6665 66.3393 60.0085 67.0191C60.0409 67.0831 60.0062 67.1572 59.9324 67.1851C59.914 67.1921 59.8942 67.1956 59.8744 67.1956Z" fill="#678898"/>
<path d="M62.8376 58.2459C62.8075 58.2459 62.7773 58.2381 62.7512 58.2215C62.1892 57.8661 61.1267 57.6961 60.4279 57.8513C60.3491 57.8699 60.2699 57.8276 60.2497 57.7605C60.2299 57.693 60.2767 57.6243 60.355 57.6069C61.1371 57.4323 62.2904 57.617 62.924 58.0178C62.9893 58.0589 63.0032 58.138 62.9555 58.1943C62.9271 58.2281 62.8826 58.2459 62.8376 58.2459Z" fill="#678898"/>
<path d="M56.6649 59.7945C56.6307 59.7945 56.5965 59.7844 56.5686 59.7634C56.5078 59.7176 56.5015 59.6377 56.5546 59.5853C57.3124 58.8369 58.4653 58.1602 59.6389 57.7757C59.7163 57.7513 59.7991 57.7838 59.8275 57.8486C59.8563 57.9138 59.818 57.9868 59.7424 58.0116C58.612 58.3821 57.5023 59.0324 56.7751 59.751C56.7459 59.7801 56.7054 59.7945 56.6649 59.7945Z" fill="#678898"/>
<path d="M56.761 74.1466C56.7394 74.1466 56.7173 74.1424 56.6962 74.1334C56.2574 73.9472 55.8628 73.6717 55.5226 73.3148C55.4713 73.2608 55.4803 73.1813 55.5424 73.1371C55.6049 73.0932 55.6972 73.1002 55.7485 73.1545C56.0617 73.4835 56.4244 73.7365 56.8249 73.9068C56.8978 73.9375 56.9275 74.0135 56.8915 74.076C56.8667 74.1206 56.815 74.1466 56.761 74.1466Z" fill="#678898"/>
<path d="M55.2577 72.897C55.215 72.897 55.1718 72.8807 55.1434 72.8493C54.7015 72.3709 54.3258 71.7905 54.1134 71.2562C54.0873 71.1902 54.1278 71.1184 54.2043 71.0955C54.2794 71.0734 54.364 71.108 54.3901 71.1739C54.5922 71.6818 54.9504 72.2351 55.372 72.6914C55.4229 72.7461 55.4121 72.8252 55.3486 72.8691C55.3221 72.8881 55.2901 72.897 55.2577 72.897Z" fill="#678898"/>
<path d="M137.622 139.351C130.903 136.006 120.009 136.006 113.289 139.351C110.473 140.752 108.709 141.694 108.256 143.519V145.409C108.259 146.818 108.956 148.226 110.345 149.497L80.1885 162.621V164.509L83.5684 166.191H92.9973L96.7053 164.345V162.56L99.66 161.139L103.772 160.827L105.408 160.013L105.574 156.846L108.612 155.334L113.064 156.202L118.859 153.317C125.098 154.605 132.548 153.989 137.621 151.464C140.99 149.787 142.67 147.588 142.66 145.39V143.52C142.356 141.553 140.642 140.854 137.622 139.351ZM133.424 144.765C131.521 145.713 128.435 145.713 126.531 144.765C124.628 143.818 124.628 142.281 126.531 141.334C128.435 140.386 131.521 140.386 133.424 141.334C135.328 142.282 135.328 143.818 133.424 144.765Z" fill="#0172D0"/>
<path opacity="0.1" d="M137.622 139.351C130.903 136.006 120.009 136.006 113.289 139.351C110.473 140.752 108.709 141.694 108.256 143.519V145.409C108.259 146.818 108.956 148.226 110.345 149.497L80.1885 162.621V164.509L83.5684 166.191H92.9973L96.7053 164.345V162.56L99.66 161.139L103.772 160.827L105.408 160.013L105.574 156.846L108.612 155.334L113.064 156.202L118.859 153.317C125.098 154.605 132.548 153.989 137.621 151.464C140.99 149.787 142.67 147.588 142.66 145.39V143.52C142.356 141.553 140.642 140.854 137.622 139.351ZM133.424 144.765C131.521 145.713 128.435 145.713 126.531 144.765C124.628 143.818 124.628 142.281 126.531 141.334C128.435 140.386 131.521 140.386 133.424 141.334C135.328 142.282 135.328 143.818 133.424 144.765Z" fill="black"/>
<path d="M137.622 137.463C130.903 134.118 120.009 134.118 113.289 137.463C107.768 140.211 106.793 144.36 110.345 147.609L80.1885 162.621L83.5684 164.303H92.9973L96.7053 162.457L96.4546 160.793L99.66 159.251L103.772 158.939L105.408 158.125L105.574 154.958L108.612 153.446L113.064 154.313L118.859 151.429C125.098 152.717 132.548 152.101 137.621 149.575C144.34 146.23 144.34 140.807 137.622 137.463ZM133.424 142.877C131.521 143.825 128.435 143.825 126.531 142.877C124.628 141.93 124.628 140.393 126.531 139.446C128.435 138.498 131.521 138.498 133.424 139.446C135.328 140.394 135.328 141.93 133.424 142.877Z" fill="#0172D0"/>
<path opacity="0.3" d="M125.456 150.112C121.255 150.112 117.341 149.314 114.433 147.868C111.958 146.635 110.538 145.05 110.538 143.519C110.538 141.989 111.958 140.404 114.433 139.171C117.341 137.724 121.255 136.927 125.456 136.927C129.656 136.927 133.57 137.724 136.478 139.171C138.954 140.404 140.374 141.989 140.374 143.519C140.374 145.05 138.954 146.635 136.478 147.868C133.57 149.314 129.656 150.112 125.456 150.112Z" stroke="black" stroke-width="1.3741" stroke-miterlimit="10"/>
<path opacity="0.1" d="M131.647 151.508V153.395C127.537 154.184 122.939 154.158 118.858 153.316V151.429C122.939 152.271 127.537 152.297 131.647 151.508Z" fill="black"/>
<path opacity="0.1" d="M113.064 154.313V156.201L108.612 155.333V153.445L113.064 154.313Z" fill="black"/>
<path opacity="0.1" d="M105.574 154.958V156.846L105.408 160.013V158.125L105.574 154.958Z" fill="black"/>
<path opacity="0.1" d="M103.771 158.939V160.827L99.6592 161.139V159.251L103.771 158.939Z" fill="black"/>
<path opacity="0.1" d="M92.9972 164.303H83.5684V166.191H92.9972V164.303Z" fill="black"/>
<path opacity="0.15" d="M80.1885 162.621V164.509L83.568 166.191V164.303L82.087 163.565V164.38L81.2694 163.973V163.15L80.1885 162.621Z" fill="black"/>
<path d="M81.2695 163.15L82.0872 163.566V164.381L81.2695 163.974V163.15Z" fill="#0172D0"/>
<path opacity="0.15" d="M81.2695 163.15V163.973L112.196 148.577L111.378 148.161L81.2695 163.15Z" fill="black"/>
<path opacity="0.15" d="M111.378 148.161V148.984L112.196 148.577L111.378 148.161Z" fill="black"/>
</svg>
