<svg width="119" height="119" viewBox="0 0 119 119" fill="none" xmlns="http://www.w3.org/2000/svg">
<path opacity="0.4" fill-rule="evenodd" clip-rule="evenodd" d="M21.2819 38.403C20.1653 55.1554 24.6326 58.3195 15.8841 72.466C7.13555 86.6124 16.1804 115.515 49.1784 97.9669C82.1764 80.4188 84.3826 102.248 99.8319 86.0541C115.281 69.8601 100.762 34.6802 73.0282 30.9575C60.9882 29.3415 22.6653 17.6485 21.2819 38.403Z" fill="#CCCCFF"/>
<path fill-rule="evenodd" clip-rule="evenodd" d="M70.4706 15.7822C79.6849 15.7822 88.0274 19.5332 94.0582 25.5641C100.089 31.5946 103.84 39.9418 103.84 49.1515C103.84 58.3705 100.089 66.7176 94.0582 72.7573C88.0274 78.7974 79.68 82.5302 70.4706 82.5302C61.2515 82.5302 52.9048 78.7971 46.8649 72.7573C40.8249 66.7172 37.0918 58.3705 37.0918 49.1515C37.0918 39.942 40.8247 31.5947 46.8649 25.5641C52.9045 19.5332 61.2563 15.7822 70.4706 15.7822Z" fill="#FFBCD8"/>
<path fill-rule="evenodd" clip-rule="evenodd" d="M70.4706 24.7197C77.2144 24.7197 83.3222 27.4718 87.7363 31.8859C92.1507 36.3 94.9025 42.4128 94.9025 49.1517C94.9025 55.9003 92.1506 62.0129 87.7363 66.436C83.3226 70.8591 77.2099 73.5933 70.4706 73.5933C63.7222 73.5933 57.6093 70.8591 53.1862 66.436C48.7631 62.0129 46.0293 55.9002 46.0293 49.1517C46.0293 42.4126 48.7631 36.3 53.1862 31.8859C57.6093 27.4718 63.7267 24.7197 70.4706 24.7197Z" fill="white"/>
<path fill-rule="evenodd" clip-rule="evenodd" d="M70.4707 27.708C82.3189 27.708 91.9145 37.3084 91.9145 49.1519C91.9145 61.0049 82.3144 70.6054 70.4707 70.6054C58.6177 70.6054 49.0176 61.0049 49.0176 49.1519C49.0176 37.3084 58.6224 27.708 70.4707 27.708Z" fill="#FF8CC8"/>
<path fill-rule="evenodd" clip-rule="evenodd" d="M70.4702 36.3994C77.5137 36.3994 83.2223 42.1125 83.2223 49.1512C83.2223 56.1995 77.5093 61.9125 70.4702 61.9125C63.4221 61.9125 57.709 56.1995 57.709 49.1512C57.709 42.1124 63.4267 36.3994 70.4702 36.3994Z" fill="white"/>
<path fill-rule="evenodd" clip-rule="evenodd" d="M70.4704 39.2607C75.9336 39.2607 80.3614 43.6931 80.3614 49.1515C80.3614 54.6195 75.929 59.0519 70.4704 59.0519C65.0027 59.0519 60.5703 54.6195 60.5703 49.1515C60.5703 43.6931 65.0072 39.2607 70.4704 39.2607Z" fill="#E60040"/>
<path fill-rule="evenodd" clip-rule="evenodd" d="M27.7101 87.2578H47.7266C48.3248 87.2578 48.8137 87.7463 48.8137 88.3446V102.738C48.8137 102.781 48.7786 102.816 48.7351 102.816H26.7018C26.6583 102.816 26.623 102.781 26.623 102.738V88.3448C26.623 87.7464 27.1118 87.2578 27.7101 87.2578Z" fill="#15B0F8"/>
<path fill-rule="evenodd" clip-rule="evenodd" d="M39.1564 77.2402H58.2468C59.0994 77.2402 59.797 77.9376 59.797 78.7902V102.704C59.797 102.766 59.7464 102.816 59.6846 102.816H37.7188C37.6571 102.816 37.6064 102.766 37.6064 102.704V78.7902C37.6066 77.9376 38.3041 77.2402 39.1564 77.2402Z" fill="#2DDAFF"/>
<path fill-rule="evenodd" clip-rule="evenodd" d="M53.3146 70.0391H72.4051C73.2577 70.0391 73.9551 70.7364 73.9551 71.589V102.642C73.9551 102.703 73.9047 102.753 73.8431 102.753H51.8766C51.8151 102.753 51.7646 102.703 51.7646 102.642V71.5889C51.7646 70.7363 52.4619 70.0391 53.3146 70.0391Z" fill="#15B0F8"/>
<path fill-rule="evenodd" clip-rule="evenodd" d="M68.2297 61.4805H87.3201C88.1728 61.4805 88.8701 62.1776 88.8701 63.0306V102.705C88.8701 102.766 88.8198 102.817 88.7581 102.817H66.7917C66.7301 102.817 66.6797 102.766 66.6797 102.705V63.0304C66.6797 62.1776 67.377 61.4805 68.2297 61.4805Z" fill="#2DDAFF"/>
<path fill-rule="evenodd" clip-rule="evenodd" d="M33.9743 71.2389L32.1179 70.5469L30.5454 76.2093L27.8398 79.1036L29.0667 80.3616L32.7475 77.3732L34.7923 71.4592L33.9743 71.2389Z" fill="#4A1877"/>
<path fill-rule="evenodd" clip-rule="evenodd" d="M32.1179 70.5472C32.1179 70.5472 31.1743 73.4414 35.0748 73.3157C38.9756 73.1899 39.9194 72.8123 39.9194 72.8123L44.4495 74.8885L45.5661 73.4414L40.171 70.3584L32.1179 70.5472Z" fill="#5E17A9"/>
<path fill-rule="evenodd" clip-rule="evenodd" d="M31.2446 65.7473L32.1185 70.5473L36.1449 70.4531L36.3674 65.5301L38.011 66.6232L39.1402 64.4119C36.2094 63.237 33.217 62.4504 28.9435 63.0451L28.6289 64.9639L31.2446 65.7473Z" fill="#F98AFE"/>
<path fill-rule="evenodd" clip-rule="evenodd" d="M27.3881 79.6553L26.2637 80.5439L28.6311 83.7136C29.9192 82.8604 28.1527 80.5009 27.3881 79.6553Z" fill="#01052D"/>
<path fill-rule="evenodd" clip-rule="evenodd" d="M45.3154 75.273L46.465 76.1296L48.9138 73.0221C47.7564 71.9989 45.9342 74.3158 45.3154 75.273Z" fill="#01052D"/>
<path fill-rule="evenodd" clip-rule="evenodd" d="M34.8113 58.46L35.1819 59.219L36.1528 60.0132L35.5703 60.278C35.9186 60.7687 36.2572 61.1995 36.0838 61.4879C35.6431 62.2205 32.4275 62.4515 32.055 59.792C31.6481 56.8712 34.5195 57.6907 34.8113 58.46Z" fill="#FFCCBC"/>
<path fill-rule="evenodd" clip-rule="evenodd" d="M33.5686 58.3105L34.812 58.4602C34.812 58.4602 37.1513 57.1455 35.2454 55.6631C35.2454 55.6631 35.2275 56.7397 33.4979 56.7046C31.7684 56.6691 31.4155 57.5867 31.4155 57.5867C31.4155 57.5867 30.6037 57.5164 30.8155 58.5927C31.0272 59.6695 31.1662 61.9474 32.7558 61.2585L33.3747 60.7106C33.3747 60.7106 32.0509 60.2164 32.5273 59.334C33.0038 58.4515 33.7804 59.9516 33.7804 59.9516L33.5686 58.3105Z" fill="#01052D"/>
<path fill-rule="evenodd" clip-rule="evenodd" d="M57.7679 70.0389C56.0984 69.022 54.5608 67.8105 53.1861 66.4359C48.7626 62.0127 46.0288 55.9001 46.0288 49.1516C46.0288 47.6328 46.1675 46.1459 46.4332 44.7031C45.923 46.6688 45.6514 48.7302 45.6514 50.854C45.6514 57.603 48.3855 63.7153 52.8086 68.1384C53.4826 68.8124 54.1959 69.4471 54.9444 70.0389H57.7679Z" fill="#FF8CC8"/>
<path d="M45.3504 53.3215L14.3271 63.4482L14.4934 63.9575L45.5166 53.8308L45.3504 53.3215Z" fill="#01052D"/>
<path fill-rule="evenodd" clip-rule="evenodd" d="M48.6812 52.52L47.2422 53.6091L45.8032 54.6979L45.4378 53.5785L45.0723 52.459L46.8769 52.4893L48.6812 52.52Z" fill="#01052D"/>
<path fill-rule="evenodd" clip-rule="evenodd" d="M20.2609 62.0762L14.4949 63.9577L14.3711 65.6267C14.3711 65.6267 19.892 63.9905 20.2609 62.0762Z" fill="#15B0F8"/>
<path fill-rule="evenodd" clip-rule="evenodd" d="M20.0944 61.5663L14.3287 63.448L13.2441 62.1733C13.2441 62.1733 18.6673 60.238 20.0944 61.5663Z" fill="#15B0F8"/>
<path fill-rule="evenodd" clip-rule="evenodd" d="M28.317 59.5744L27.382 62.7935C28.2155 62.8406 28.9435 63.0451 28.9435 63.0451L28.6289 64.964C26.5634 64.3452 25.7617 63.3439 25.7617 63.3439C26.2966 61.5036 27.1994 60.09 27.1994 60.09C27.1994 60.09 26.7981 59.6947 26.8608 58.8765C26.8608 58.8765 27.4559 58.1942 28.6133 58.7871L28.317 59.5744Z" fill="#FFCCBC"/>
<path fill-rule="evenodd" clip-rule="evenodd" d="M39.1404 64.4113L40.9555 65.2769C40.9555 65.2769 42.8432 63.9557 44.0071 62.0367C44.0071 62.0367 43.5984 61.4076 44.1491 60.7783L45.4546 61.0301C45.4546 61.0301 45.376 61.7063 44.5108 61.4705C44.5108 61.4705 44.7471 62.3826 45.848 61.9894C45.848 61.9894 45.4706 62.6344 44.8257 62.5871C44.8257 62.5871 43.379 66.6768 41.6486 67.0544C41.6486 67.0544 40.2137 67.1292 38.291 66.0744L39.1404 64.4113Z" fill="#FFCCBC"/>
<path fill-rule="evenodd" clip-rule="evenodd" d="M33.775 61.8438V61.844L33.2451 62.903V62.9033C33.867 62.9559 34.4625 63.0409 35.0384 63.1524V63.152L35.2205 61.9256L35.2203 61.9253C34.7946 62.0038 34.2728 61.9937 33.775 61.8438Z" fill="#FFCCBC"/>
<path fill-rule="evenodd" clip-rule="evenodd" d="M45.8481 61.9902C47.1504 60.2671 44.5727 60.4174 44.5727 60.4174L44.3311 60.8141L45.4548 61.0308C45.4548 61.0308 45.3762 61.707 44.511 61.4712C44.511 61.4712 44.7473 62.3833 45.8481 61.9902Z" fill="#FFCCBC"/>
<path fill-rule="evenodd" clip-rule="evenodd" d="M45.4545 61.0303C45.4545 61.0303 45.376 61.7064 44.5107 61.4707C44.5107 61.4707 44.7471 62.3827 45.8479 61.9895C44.9514 62.1063 44.9163 61.68 44.9163 61.68C45.5257 61.6132 45.4545 61.0303 45.4545 61.0303Z" fill="#FFAC9C"/>
<path fill-rule="evenodd" clip-rule="evenodd" d="M28.9375 80.2285L27.8405 79.1035L27.3887 79.6551C27.6197 79.9103 27.9419 80.3037 28.2436 80.7519L28.9375 80.2285Z" fill="#FFCCBC"/>
<path fill-rule="evenodd" clip-rule="evenodd" d="M44.6885 74.5794L45.4932 75.0095C45.7245 74.6788 46.0425 74.2682 46.4029 73.8888L45.5668 73.4414L44.6885 74.5794Z" fill="#FFCCBC"/>
<path fill-rule="evenodd" clip-rule="evenodd" d="M35.2209 61.9256C34.7949 62.0042 34.2732 61.9937 33.7754 61.8438C34.169 62.2027 35.0051 62.1013 35.0388 63.152L35.2209 61.9256Z" fill="#FFAC9C"/>
<path fill-rule="evenodd" clip-rule="evenodd" d="M37.6059 102.704V87.2578H35.0195V102.704C35.0195 102.765 35.0699 102.816 35.1315 102.816H37.7123C37.6534 102.813 37.6059 102.764 37.6059 102.704Z" fill="#0131B9"/>
<path fill-rule="evenodd" clip-rule="evenodd" d="M49.1777 77.2402V102.638C49.1777 102.7 49.2283 102.75 49.29 102.75H51.8493C51.8006 102.738 51.7643 102.694 51.7643 102.642V77.2402H49.1777Z" fill="#0131B9"/>
<path fill-rule="evenodd" clip-rule="evenodd" d="M64.0928 72.7532V81.9224V102.704C64.0928 102.72 64.0961 102.736 64.1027 102.75H66.689C66.6826 102.736 66.6791 102.72 66.6791 102.704V82.3176V73.3011V70.2716V70.0391H65.5518H64.0928V72.7532Z" fill="#0131B9"/>
<path fill-rule="evenodd" clip-rule="evenodd" d="M57.332 50.8544C57.332 56.7203 61.2895 61.6615 66.6797 63.154V63.0307C66.6797 62.3869 67.0774 61.8314 67.6393 61.598C61.9539 60.3101 57.7094 55.2268 57.7094 49.1518C57.7094 48.5038 57.7578 47.8666 57.8516 47.2441C57.5131 48.3893 57.332 49.6007 57.332 50.8544Z" fill="#FF6CA8"/>
<path fill-rule="evenodd" clip-rule="evenodd" d="M82.7019 52.7695C81.4505 57.0114 78.0551 60.3333 73.7734 61.4801H77.1551C80.0806 59.5286 82.1557 56.3996 82.7019 52.7695Z" fill="#FF6CA8"/>
<path fill-rule="evenodd" clip-rule="evenodd" d="M94.1219 55.29C93.1534 59.02 91.3253 62.405 88.8701 65.2205V66.4801C91.4945 63.3235 93.3476 59.4944 94.1219 55.29Z" fill="#FF8CC8"/>
<path fill-rule="evenodd" clip-rule="evenodd" d="M70.0933 29.4105C81.9413 29.4105 91.5372 39.011 91.5372 50.8543C91.5372 52.1554 91.4216 53.429 91.2001 54.6658C91.6661 52.9065 91.9142 51.0582 91.9142 49.1519C91.9142 37.3081 82.3187 27.708 70.4704 27.708C59.9206 27.708 51.1492 35.3195 49.3535 45.3489C51.7848 36.1732 60.1488 29.4105 70.0933 29.4105Z" fill="#FF6CA8"/>
<path fill-rule="evenodd" clip-rule="evenodd" d="M80.3617 49.1518C80.3617 43.6934 75.9339 39.2607 70.4707 39.2607C65.4431 39.2607 61.2843 43.0153 60.6533 47.8684C61.9222 43.8671 65.672 40.9633 70.0936 40.9633C75.5565 40.9633 79.9846 45.396 79.9846 50.8543C79.9846 51.2922 79.9562 51.7234 79.9011 52.1459C80.2003 51.2012 80.3617 50.1954 80.3617 49.1518Z" fill="#C40015"/>
</svg>
