<svg width="309" height="298" viewBox="0 0 309 298" fill="none" xmlns="http://www.w3.org/2000/svg">
<path d="M211.268 171.801C211.268 179.783 165.112 186.254 108.174 186.254C51.2366 186.254 5.08105 179.783 5.08105 171.801C5.08105 163.817 51.2366 157.346 108.174 157.346C165.112 157.346 211.268 163.817 211.268 171.801Z" fill="#BCBEC0"/>
<path d="M202.557 171.801C202.557 177.501 160.301 182.124 108.174 182.124C56.0476 182.124 13.7891 177.502 13.7891 171.801C13.7891 166.097 56.0476 161.476 108.174 161.476C160.301 161.476 202.557 166.097 202.557 171.801Z" fill="#C7C8CA"/>
<path d="M20.4915 154.681C20.4915 154.681 7.43742 131.152 0 124.841C3.47362 124.833 16.1206 132.981 24.9807 152.077L20.4915 154.681Z" fill="#579C43"/>
<path d="M0 124.841C0.272618 125.073 0.552459 125.328 0.838618 125.604C5.8649 127.786 11.7578 135.816 15.9572 141.678C19.0688 146.024 20.2893 149.367 20.3543 151.148C20.3859 152.054 20.2451 152.932 19.986 153.78C20.311 154.357 20.4924 154.681 20.4924 154.681L24.9816 152.077C16.1206 132.981 3.47362 124.834 0 124.841Z" fill="#C6D291"/>
<path d="M23.7581 152.816C23.7581 152.816 7.26104 131.334 6.19043 108.773C6.19043 108.773 16.169 131.445 29.5688 150.766L23.7581 152.816Z" fill="#95C947"/>
<path d="M20.9551 144.083C11.7024 131.548 8.69815 114.306 8.68822 114.154C7.0814 110.799 6.19043 108.773 6.19043 108.773C7.26104 131.334 23.7581 152.816 23.7581 152.816L26.8074 151.74C26.3073 150.625 23.3139 147.279 20.9551 144.083Z" fill="#C6D291"/>
<path d="M29.0634 152.305C29.0634 152.305 23.6011 122.848 25.0202 113.199C22.4059 115.486 17.979 124.352 23.045 153.278L29.0634 152.305Z" fill="#95C947"/>
<path d="M25.8408 150.325C25.3209 145.955 24.8216 141.583 24.2791 137.217C23.7429 132.907 23.5949 128.649 23.7817 124.31C23.8521 122.623 23.9289 120.912 24.1293 119.232C24.2367 118.311 24.3902 117.359 24.7919 116.521C24.8108 115.258 24.883 114.135 25.0211 113.198C22.4069 115.485 17.98 124.351 23.046 153.277L26.1495 152.776C26.0403 151.961 25.9374 151.143 25.8408 150.325Z" fill="#C6D291"/>
<path d="M24.0119 153.455C24.0119 153.455 16.9717 128.211 10.7529 113.029C10.7529 113.029 20.634 116.363 28.3801 152.618L24.0119 153.455Z" fill="#579C43"/>
<path d="M10.7539 113.028C10.9335 113.465 11.1132 113.912 11.2937 114.363C12.3779 115.448 13.2472 116.763 14.1878 117.957C15.5301 119.667 16.6197 121.542 17.6723 123.437C19.7837 127.238 21.4221 131.226 22.9044 135.304C24.3848 139.377 26.0214 143.511 26.5667 147.837C26.7788 149.535 26.8321 151.235 26.758 152.929L28.382 152.617C20.635 116.363 10.7539 113.028 10.7539 113.028Z" fill="#C6D291"/>
<path d="M51.2523 160.443C55.3758 172.056 49.7086 184.672 38.5927 188.621C27.4749 192.569 15.1195 186.356 10.995 174.743C6.87055 163.13 12.5387 150.515 23.6546 146.565C34.7724 142.617 47.1287 148.83 51.2523 160.443Z" fill="#FFE0AA"/>
<path d="M21.1853 148.036C21.1853 148.036 3.48683 159.235 17.44 183.798" stroke="#F3CA8F" stroke-width="0.7044" stroke-miterlimit="10" stroke-linecap="round" stroke-linejoin="round"/>
<path d="M26.5586 146.126C26.5586 146.126 47.3083 143.944 51.9753 171.805" stroke="#F3CA8F" stroke-width="0.7044" stroke-miterlimit="10" stroke-linecap="round" stroke-linejoin="round"/>
<path d="M33.1302 189.411C33.1302 189.411 18.4675 175.951 23.1057 147.269C23.1057 147.269 6.65108 165.157 25.6206 188.483" stroke="#F3CA8F" stroke-width="0.7044" stroke-miterlimit="10" stroke-linecap="round" stroke-linejoin="round"/>
<path d="M43.4368 185.749C43.4368 185.749 46.3182 166.057 24.6279 146.728C24.6279 146.728 48.8368 149.983 48.8332 180.049" stroke="#F3CA8F" stroke-width="0.7044" stroke-miterlimit="10" stroke-linecap="round" stroke-linejoin="round"/>
<path d="M38.4883 188.236C38.4883 188.236 30.5688 158.535 23.8418 147.091" stroke="#F3CA8F" stroke-width="0.7044" stroke-miterlimit="10" stroke-linecap="round" stroke-linejoin="round"/>
<path d="M23.6546 146.565C23.577 146.593 23.5021 146.625 23.4253 146.654C24.7298 147.008 26.0116 147.481 27.2691 148.077C31.2365 149.961 34.9232 152.576 37.9337 155.78C43.387 161.582 47.3562 170.614 43.9493 178.436C42.6097 181.511 40.3575 184.064 37.3785 185.624C34.7191 187.016 31.7465 187.814 28.7576 188.065C26.8565 188.226 24.8426 188.178 22.8828 187.855C27.7177 190.072 33.2947 190.503 38.5918 188.621C49.7077 184.673 55.3758 172.057 51.2513 160.443C47.1287 148.83 34.7724 142.617 23.6546 146.565Z" fill="#C0A793"/>
<path d="M19.8997 174.027C20.241 172.868 20.2789 171.65 20.0478 170.463C19.6244 168.276 18.4698 166.283 18.6287 163.992C18.7073 162.866 19.0837 161.871 19.4908 160.831C19.907 159.765 20.3421 158.531 19.9503 157.39C19.6253 156.44 18.8887 155.714 18.1042 155.117C18.023 155.057 17.9372 154.992 17.8479 154.929C13.532 158.048 11.6372 163.921 13.5844 169.404C14.5846 172.222 16.4406 174.479 18.7298 175.966C19.2769 175.464 19.6668 174.809 19.8997 174.027Z" fill="white"/>
<path d="M127.635 112.25C127.635 112.25 136.208 132.496 114.535 151.092C114.535 151.092 108.199 122.285 127.635 112.25Z" fill="#579C43"/>
<path d="M114.582 151.052C136.196 132.466 127.636 112.25 127.636 112.25C127.579 112.28 127.524 112.31 127.468 112.34L114.582 151.052Z" fill="#95C947"/>
<path d="M138.176 123.905C138.176 123.905 138.29 144.909 114.182 151.576C114.182 151.576 118.822 124.195 138.176 123.905Z" fill="#579C43"/>
<path d="M114.233 151.561C138.291 144.879 138.176 123.905 138.176 123.905C138.118 123.905 138.064 123.91 138.006 123.91L114.233 151.561Z" fill="#95C947"/>
<path d="M111.005 114.734C111.005 114.734 98.1828 131.371 113.315 151.287C113.315 151.287 126.22 126.697 111.005 114.734Z" fill="#579C43"/>
<path d="M113.283 151.244C98.2008 131.346 111.005 114.734 111.005 114.734C111.051 114.77 111.091 114.807 111.137 114.841L113.283 151.244Z" fill="#95C947"/>
<path d="M132.223 174.39C127.902 187.373 114.323 194.543 101.894 190.406C89.4657 186.268 82.894 172.391 87.2161 159.407C91.5374 146.425 105.117 139.253 117.544 143.391C129.974 147.529 136.546 161.407 132.223 174.39Z" fill="#392346"/>
<path d="M95.4998 164.864C96.5912 164.081 97.4559 163.042 98.0653 161.847C99.1882 159.642 99.5385 157.108 101.243 155.211C102.08 154.278 103.091 153.663 104.156 153.031C105.249 152.384 106.474 151.6 106.91 150.335C107.273 149.281 107.125 148.144 106.845 147.084C106.816 146.977 106.785 146.862 106.751 146.744C100.841 146.527 95.1712 150.372 93.1311 156.502C92.0821 159.654 92.1661 162.898 93.1518 165.763C93.9742 165.696 94.7632 165.39 95.4998 164.864Z" fill="white"/>
<path d="M117.545 143.392C117.459 143.363 117.371 143.339 117.284 143.312C118.185 144.513 118.984 145.803 119.675 147.183C121.861 151.542 123.302 156.348 123.75 161.211C124.56 170.015 121.865 180.632 113.54 185.151C110.267 186.927 106.554 187.625 102.879 186.955C99.5988 186.356 96.4502 185.024 93.6635 183.204C91.8906 182.044 90.1619 180.627 88.667 179.006C91.3841 184.25 95.9717 188.435 101.893 190.408C114.322 194.545 127.901 187.375 132.223 174.392C136.545 161.407 129.973 147.529 117.545 143.392Z" fill="#773053"/>
<path d="M53.4599 113.407C53.4599 113.407 67.6352 120.538 62.7696 140.235C62.7696 140.235 46.1489 127.48 53.4599 113.407Z" fill="#579C43"/>
<path d="M62.7786 140.193C67.6145 120.529 53.46 113.407 53.46 113.407C53.4392 113.448 53.4193 113.49 53.4004 113.532L62.7786 140.193Z" fill="#95C947"/>
<path d="M70.911 113.009C70.911 113.009 78.2473 127.078 62.7884 140.22C62.7884 140.22 56.7547 120.156 70.911 113.009Z" fill="#579C43"/>
<path d="M62.8203 140.191C78.235 127.059 70.9104 113.009 70.9104 113.009C70.868 113.03 70.8291 113.052 70.7867 113.072L62.8203 140.191Z" fill="#95C947"/>
<path d="M39.3057 124.128C39.3057 124.128 42.3947 139.693 62.6759 140.259C62.6759 140.259 54.8187 120.839 39.3057 124.128Z" fill="#579C43"/>
<path d="M62.6335 140.257C42.3911 139.671 39.3057 124.128 39.3057 124.128C39.3517 124.118 39.3959 124.112 39.4411 124.103L62.6335 140.257Z" fill="#95C947"/>
<path d="M80.7554 151.383C85.4702 164.785 88.5421 197.739 83.7659 199.419C78.9879 201.099 60.5085 173.403 55.7928 160.002C51.0788 146.601 54 136.174 60.3189 133.95C68.6329 131.025 76.0396 137.98 80.7554 151.383Z" fill="#F68746"/>
<path d="M60.3178 133.949C59.5948 134.203 58.9204 134.57 58.2939 135.03C62.3173 134.732 65.967 136.532 68.8493 139.405C70.68 141.228 80.7624 153.971 83.2403 184.556C83.5021 187.779 80.9565 191.341 77.1019 190.729C75.2261 190.432 73.696 189.391 72.267 188.185C71.8391 187.824 71.4085 187.465 70.9797 187.107C76.3626 194.635 81.5432 200.201 83.7639 199.42C88.5401 197.74 85.4682 164.786 80.7534 151.384C76.0394 137.98 68.6327 131.024 60.3178 133.949Z" fill="#F1AC5C"/>
<path d="M53.5 149.16C54.6212 148.143 55.8922 147.554 57.202 147.071C58.5263 146.63 59.8867 146.295 61.3978 146.382L61.4258 146.465L57.4927 147.895L53.5289 149.243L53.5 149.16Z" fill="#F26322"/>
<path d="M60.3398 153.469C61.4962 152.439 62.8033 151.837 64.1466 151.343C65.506 150.889 66.9007 150.541 68.4453 150.617L68.4751 150.7L64.4363 152.167L60.3696 153.552L60.3398 153.469Z" fill="#F26322"/>
<path d="M69.3838 144.729C70.3939 143.752 71.5539 143.201 72.7527 142.757C73.9659 142.355 75.2162 142.058 76.6154 142.185L76.6434 142.268L73.0425 143.581L69.4118 144.813L69.3838 144.729Z" fill="#F26322"/>
<path d="M71.043 153.177C72.3817 152.083 73.8712 151.416 75.3976 150.858C76.9404 150.34 78.5183 149.927 80.2461 149.938L80.2741 150.021L75.6883 151.681L71.0728 153.259L71.043 153.177Z" fill="#F26322"/>
<path d="M55.6768 159.663C56.7826 158.651 58.0391 158.068 59.3336 157.591C60.6426 157.155 61.9885 156.824 63.4843 156.917L63.5123 157L59.6234 158.414L55.7047 159.746L55.6768 159.663Z" fill="#F26322"/>
<path d="M69.25 161.68C70.623 160.575 72.1468 159.897 73.7085 159.325C75.2846 158.796 76.8969 158.371 78.6589 158.37L78.6869 158.453L73.9974 160.149L69.2798 161.763L69.25 161.68Z" fill="#F26322"/>
<path d="M60.4639 170.167C61.7277 169.099 63.144 168.46 64.5965 167.927C66.0634 167.436 67.5682 167.049 69.221 167.086L69.2508 167.169L64.8853 168.751L60.4918 170.25L60.4639 170.167Z" fill="#F26322"/>
<path d="M71.2246 170.365C72.3458 169.347 73.6168 168.758 74.9275 168.275C76.2518 167.834 77.6131 167.498 79.1233 167.585L79.1513 167.668L75.2173 169.099L71.2526 170.448L71.2246 170.365Z" fill="#F26322"/>
<path d="M75.2363 174.163C76.6364 173.048 78.1864 172.361 79.7724 171.781C81.3738 171.243 83.0132 170.809 84.8005 170.799L84.8285 170.882L80.0613 172.605L75.2652 174.246L75.2363 174.163Z" fill="#F26322"/>
<path d="M75.925 178.587C74.691 179.644 73.3072 180.273 71.8836 180.795C70.4465 181.275 68.9723 181.652 67.3493 181.603L67.3213 181.52L71.5938 179.971L75.897 178.503L75.925 178.587Z" fill="#F26322"/>
<path d="M74.8018 184.041C75.8543 183.048 77.0567 182.483 78.298 182.024C79.5536 181.608 80.8454 181.295 82.2879 181.407L82.3159 181.49L78.5877 182.847L74.8297 184.124L74.8018 184.041Z" fill="#F26322"/>
<path d="M80.3963 187.415C79.3989 188.389 78.2488 188.935 77.0636 189.375C75.8621 189.772 74.6244 190.065 73.237 189.935L73.209 189.852L76.7738 188.551L80.3684 187.332L80.3963 187.415Z" fill="#F26322"/>
<path d="M80.7578 193.678C81.4222 192.822 82.2383 192.394 83.0904 192.071C83.9579 191.792 84.8624 191.616 85.915 191.864L85.9448 191.947L83.3802 192.895L80.7876 193.761L80.7578 193.678Z" fill="#F26322"/>
<path d="M64.8901 166.552C65.7802 162.688 63.5649 159.236 62.3021 155.725C61.1583 152.549 59.1534 148.927 59.6869 145.433C60.0137 143.3 61.0058 140.827 62.9737 139.755C61.9401 139.655 60.8776 139.785 59.7898 140.168C55.511 141.674 53.5331 148.733 56.7251 157.807C57.8228 160.927 60.0218 165.189 62.5665 169.395C63.6507 168.674 64.6166 167.743 64.8901 166.552Z" fill="white"/>
<path d="M186.755 157.597C184.847 150.396 182.478 147.483 182.888 137.836C183.324 127.547 181.56 120.582 170.455 118.328C159.838 116.173 155.334 120.521 150.638 130.826C147.126 138.531 146.067 141.335 141.802 146.187C136.924 151.739 132.76 157.561 130.1 170.665C126.881 186.53 137.216 196.337 153.446 199.631C169.679 202.924 183.847 198.854 187.066 182.989C189.171 172.615 189.566 168.205 186.755 157.597Z" fill="#579C43"/>
<path d="M182.857 157.525C181.32 151.163 179.357 148.605 179.794 140.054C180.259 130.933 178.843 124.78 169.528 122.889C160.622 121.08 156.795 124.977 152.747 134.151C149.719 141.011 148.802 143.504 145.172 147.846C141.016 152.812 137.46 158.01 135.098 169.645C132.239 183.732 140.834 192.321 154.45 195.085C168.065 197.849 180.017 194.105 182.876 180.018C184.744 170.808 185.119 166.897 182.857 157.525Z" fill="#95C947"/>
<path d="M175.624 172.862C173.445 183.603 164.696 190.893 156.083 189.144C147.47 187.397 142.255 177.272 144.434 166.532C146.614 155.792 155.364 148.502 163.976 150.25C172.589 151.997 177.805 162.122 175.624 172.862Z" fill="#5F3814"/>
<path d="M150.45 167.671C152.691 167.875 155.13 167.853 156.644 165.9C157.535 164.749 158.201 163.492 158.72 162.136C159.613 159.811 160.241 156.086 162.696 154.801C163.255 154.507 163.819 154.327 164.389 154.223C163.995 154.094 163.592 153.985 163.179 153.901C156.208 152.487 149.133 158.124 146.99 166.606C148.073 167.187 149.256 167.561 150.45 167.671Z" fill="white"/>
<path d="M168.801 152.315C171.133 155.46 172.783 159.082 173.125 162.947C173.753 170.004 171.457 176.981 166.144 181.796C161.482 186.021 154.82 186.35 149.789 182.494C146.348 179.857 145.327 175.949 143.955 172.201C144.237 180.632 149.014 187.712 156.084 189.145C164.697 190.894 173.446 183.603 175.625 172.863C177.358 164.321 174.411 156.174 168.801 152.315Z" fill="#EFD0A6"/>
<path d="M186.754 157.597C184.846 150.396 182.477 147.483 182.887 137.836C183.323 127.547 181.559 120.583 170.454 118.329C168.161 117.864 166.152 117.703 164.366 117.838C164.562 117.948 164.756 118.056 164.939 118.163C167.315 119.546 169.659 121.524 171.08 123.913C174.684 129.974 172.801 136.524 173.076 143.143C173.407 151.156 182.291 163.106 179.177 180.391C178.393 184.745 175.984 187.759 172.501 190.316C165.488 195.465 157.565 194.997 149.465 191.491C143.994 189.123 140.488 185.98 137.202 181.378C133.506 176.205 130.1 170.666 130.1 170.666C126.881 186.53 137.216 196.338 153.446 199.631C169.679 202.924 183.847 198.855 187.066 182.99C189.17 172.616 189.566 168.206 186.754 157.597Z" fill="#6AB12C"/>
<path d="M142.405 150.209C143.537 151.169 145.002 151.24 146.421 150.996C148.824 150.581 150.912 149.425 152.548 147.609C155.973 143.808 157.439 139.144 158.773 134.308C159.782 130.657 161.764 125.609 164.89 122.737C159.109 122.263 155.589 124.975 152.695 131.325C150.27 136.642 150.269 138.935 147.326 142.284C145.401 144.477 143.635 146.732 142.135 149.953C142.223 150.042 142.309 150.129 142.405 150.209Z" fill="white"/>
<path d="M66.4886 56.0305C73.0874 69.2443 80.5249 102.839 75.8145 105.19C71.1051 107.543 48.4543 81.3668 41.8555 68.1539C35.2576 54.9418 36.9195 43.806 43.15 40.6962C51.3475 36.6015 59.8889 42.8166 66.4886 56.0305Z" fill="#F47637"/>
<path d="M50.2708 39.6495C47.9057 39.1945 45.5135 39.5141 43.1493 40.6948C41.3403 41.5975 39.9195 43.1818 38.9707 45.2932C38.9707 45.2932 40.2092 45.2445 45.008 42.8478C49.3762 40.6668 50.2708 39.6495 50.2708 39.6495Z" fill="#95C947"/>
<path d="M63.9185 57.9624C69.8484 69.8349 77.4935 99.5403 73.87 101.35C70.2456 103.159 50.8834 79.1454 44.9535 67.273C39.0254 55.4023 39.7728 45.7704 44.5671 43.3756C50.8744 40.2251 57.9886 46.0918 63.9185 57.9624Z" fill="#F89D67"/>
<path d="M58.6367 60.6018C64.5648 72.4724 75.428 100.571 73.8293 101.369C72.2315 102.168 56.1651 76.5084 50.2352 64.636C44.3071 52.7636 42.5676 44.3747 44.6835 43.3185C47.4639 41.9284 52.7077 48.7303 58.6367 60.6018Z" fill="#F68746"/>
<path d="M43.1502 40.6948C42.438 41.0495 41.7889 41.5144 41.2021 42.0705C45.3149 41.2427 49.3112 42.6266 52.6575 45.2155C54.7825 46.8612 64.7917 57.3994 71.3084 88.6259C71.9963 91.9172 71.8726 97.2197 67.8194 97.0888C65.8443 97.0247 64.131 96.1491 62.5016 95.0893C62.0123 94.7706 61.523 94.4583 61.0338 94.1442C67.5603 101.211 73.6257 106.282 75.8147 105.188C80.5251 102.836 73.0876 69.242 66.4888 56.0282C59.8891 42.8161 51.3477 36.601 43.1502 40.6948Z" fill="#F1AC5C"/>
<path d="M55.2088 72.8554C55.355 68.8898 52.7444 65.5552 50.9877 62.0951C49.4016 58.9672 46.9508 55.4448 46.837 51.8791C46.7675 49.7027 47.2442 47.1363 48.8519 45.9167C47.8941 45.8879 46.9481 46.0919 46.0237 46.5532C42.3867 48.3712 41.8008 55.6389 46.2683 64.5857C47.8038 67.6603 50.5399 71.8155 53.5821 75.8885C54.4451 75.0842 55.1645 74.0768 55.2088 72.8554Z" fill="white"/>
<path d="M156.808 47.3169C148.318 47.3169 141.408 40.4085 141.408 31.9158C141.408 23.4231 148.317 16.5146 156.808 16.5146C165.3 16.5146 172.21 23.4231 172.21 31.9158C172.21 40.4085 165.3 47.3169 156.808 47.3169ZM156.808 19.8574C150.16 19.8574 144.751 25.2673 144.751 31.9158C144.751 38.5651 150.16 43.9733 156.808 43.9733C163.458 43.9733 168.866 38.5651 168.866 31.9158C168.866 25.2682 163.458 19.8574 156.808 19.8574Z" fill="#FFE0AA"/>
<path d="M105.455 89.1089C100.499 84.7344 91.7688 85.7048 89.1546 89.9836C87.9657 91.9326 89.4507 95.1561 92.0369 98.2479C90.0239 100.791 86.2948 105.345 84.1734 106.95C82.3716 108.312 90.3534 115.105 90.9437 112.927C91.7462 109.978 95.914 106.058 98.3721 103.949C101.796 106.252 105.251 107.417 107.06 105.948C112.177 101.791 110.41 93.4834 105.455 89.1089Z" fill="#FFE0AA"/>
<path d="M105.455 89.1086C104.119 87.9306 102.508 87.1434 100.819 86.7002C100.928 86.7841 101.037 86.8672 101.147 86.9448C102.346 87.8015 103.63 88.678 104.624 89.7748C106.163 91.4764 107.414 93.865 107.974 96.101C108.444 97.9714 108.471 100.069 107.429 101.77C106.54 103.222 105.372 104.656 103.547 104.675C101.445 104.696 99.9592 102.764 97.9931 102.328C95.1703 101.704 93.0814 104.735 91.4647 106.582C90.5954 107.574 89.3749 109.32 87.8258 109.077C86.8825 108.929 86.1333 108.338 85.4869 107.656C85.1493 107.301 84.9435 106.887 84.7603 106.464C84.5544 106.645 84.3576 106.812 84.1744 106.95C82.3726 108.312 90.3543 115.105 90.9447 112.927C91.7472 109.977 95.915 106.058 98.3731 103.948C101.797 106.252 105.252 107.416 107.061 105.948C112.177 101.791 110.41 93.4832 105.455 89.1086Z" fill="#DBD17B"/>
<path d="M95.4599 97.1664C95.4599 97.1664 102.064 93.5059 101.334 92.1527C100.625 90.8375 96.3274 88.2178 93.0786 91.4125C92.0044 92.4687 91.4871 94.7345 95.4599 97.1664Z" fill="#FDBF75"/>
<path d="M99.4072 100.65C99.4072 100.65 102.265 94.3812 103.651 94.1997C104.385 94.104 108.18 98.6799 105.412 102.302C104.498 103.498 102.314 104.291 99.4072 100.65Z" fill="#FDBF75"/>
<path d="M96.655 91.2857C97.6624 91.1738 98.5498 91.3715 99.5256 91.6089C100.39 91.8219 101.565 92.1306 102.412 91.672C103.3 91.1909 103.338 90.4417 103.043 89.6617C102.712 89.4099 102.368 89.1734 102.011 88.963C98.3394 86.7938 93.481 87.1052 91.3633 90.1095C93.0784 91.413 94.6374 91.5096 96.655 91.2857Z" fill="white"/>
<path d="M66.8791 8.42346C63.382 12.4929 64.2613 19.5683 67.7629 21.6436C69.3571 22.5888 71.9569 21.3484 74.4393 19.2171C76.5255 20.8231 80.2609 23.8011 81.5852 25.5072C82.7099 26.9543 88.1388 20.4042 86.3641 19.9465C83.962 19.3291 80.7366 15.9864 78.9989 14.0157C80.8314 11.211 81.7404 8.39457 80.5281 6.94211C77.0996 2.83208 70.3771 4.35495 66.8791 8.42346Z" fill="#FFE0AA"/>
<path d="M66.8792 8.42304C65.9368 9.51983 65.3158 10.8351 64.9736 12.2108C65.0404 12.1223 65.1063 12.0321 65.1704 11.9409C65.852 10.9596 66.5498 9.90799 67.4299 9.09104C68.7939 7.82183 70.7203 6.78281 72.5284 6.30257C74.0413 5.90267 75.743 5.85844 77.1349 6.68622C78.3229 7.39124 79.5 8.32464 79.5334 9.80508C79.574 11.5103 78.0205 12.7362 77.6892 14.3376C77.2126 16.635 79.695 18.2978 81.2098 19.5914C82.024 20.2855 83.4548 21.2587 83.2743 22.517C83.1632 23.2852 82.692 23.8991 82.1459 24.4308C81.8615 24.7079 81.5266 24.8785 81.1854 25.0329C81.3343 25.1981 81.4715 25.357 81.5853 25.5041C82.7101 26.9511 88.139 20.4011 86.3642 19.9434C83.9621 19.326 80.7367 15.9832 78.999 14.0126C80.8315 11.2079 81.7406 8.39144 80.5282 6.93898C77.0997 2.83165 70.3772 4.35452 66.8792 8.42304Z" fill="#DBD17B"/>
<path d="M73.5243 16.4487C73.5243 16.4487 70.4831 11.1291 69.3944 11.7357C68.3337 12.3234 66.2539 15.8403 68.8808 18.4446C69.7483 19.304 71.5934 19.6994 73.5243 16.4487Z" fill="#FDBF75"/>
<path d="M76.3105 13.208C76.3105 13.208 71.1904 10.9566 71.0288 9.83277C70.9439 9.23878 74.6171 6.10999 77.5843 8.31712C78.5664 9.0456 79.2326 10.8104 76.3105 13.208Z" fill="#FDBF75"/>
<path d="M68.7385 15.5415C68.6383 14.7264 68.7872 14.0042 68.9714 13.2098C69.1338 12.5057 69.3722 11.5498 68.9903 10.8664C68.5922 10.1496 67.9829 10.128 67.3537 10.3744C67.1506 10.6461 66.9637 10.9278 66.7967 11.2194C65.0744 14.2236 65.3795 18.1639 67.8403 19.8502C68.8802 18.4446 68.9425 17.1781 68.7385 15.5415Z" fill="white"/>
<path d="M184.916 124.294C183.199 124.294 181.703 123.488 180.706 122.028C179.449 120.187 179.106 117.395 179.888 115.388C180.781 113.1 180.086 111.935 179.415 110.804C179.36 110.713 179.307 110.625 179.257 110.538C177.103 106.837 177.549 104.5 178.302 103.191C179.235 101.569 181.161 100.601 183.456 100.601C183.767 100.601 184.079 100.619 184.381 100.656C184.775 100.705 185.139 100.729 185.466 100.729C186.762 100.729 187.274 100.37 187.919 99.9151C188.202 99.7156 188.52 99.4899 188.902 99.303C190.128 98.6946 191.263 98.3877 192.279 98.3877C193.695 98.3877 194.895 98.9717 195.747 100.078C197.225 101.999 197.306 105.193 196.895 106.749C196.269 109.121 197.28 110.84 197.95 111.978L198.049 112.148C200.069 115.613 199.559 117.965 198.777 119.328C197.737 121.139 195.773 121.948 194.288 121.948C194.032 121.948 193.785 121.927 193.553 121.881C193.068 121.786 192.618 121.738 192.216 121.738C191.013 121.738 190.362 122.155 189.606 122.637C189.496 122.708 189.389 122.777 189.281 122.844C187.729 123.805 186.261 124.294 184.916 124.294ZM183.456 103.343C182.452 103.343 181.195 103.663 180.68 104.56C180.127 105.522 180.463 107.156 181.628 109.159C181.674 109.237 181.723 109.319 181.772 109.402C182.54 110.693 183.823 112.851 182.444 116.386C182.048 117.404 182.135 119.259 182.97 120.482C183.462 121.201 184.098 121.55 184.916 121.55C185.742 121.55 186.725 121.201 187.835 120.512C187.932 120.453 188.028 120.39 188.127 120.327C189.005 119.767 190.21 118.996 192.214 118.996C192.794 118.996 193.421 119.061 194.078 119.19C194.12 119.198 194.188 119.208 194.286 119.208C194.846 119.208 195.871 118.876 196.396 117.962C197.001 116.909 196.753 115.377 195.678 113.53L195.584 113.369C194.85 112.122 193.323 109.525 194.241 106.051C194.477 105.16 194.455 102.899 193.573 101.755C193.241 101.323 192.842 101.132 192.278 101.132C191.69 101.132 190.962 101.344 190.119 101.762C189.928 101.856 189.729 101.997 189.498 102.158C188.71 102.713 187.631 103.474 185.465 103.474C185.027 103.474 184.548 103.442 184.045 103.38C183.854 103.355 183.655 103.343 183.456 103.343Z" fill="#EA3E48"/>
<path d="M113.741 39.6984C111.109 39.6984 108.818 38.4662 107.289 36.2275C105.363 33.4093 104.836 29.1286 106.036 26.0522C107.405 22.5461 106.34 20.7569 105.31 19.0273C105.226 18.8865 105.145 18.7511 105.068 18.6184C101.768 12.9485 102.452 9.36741 103.604 7.35979C105.034 4.87463 107.987 3.38967 111.503 3.38967C111.98 3.38967 112.458 3.41946 112.922 3.47723C113.525 3.55126 114.083 3.58917 114.585 3.58917C116.57 3.58917 117.353 3.03852 118.344 2.33982C118.776 2.03561 119.265 1.68987 119.849 1.40281C121.727 0.473017 123.469 0 125.025 0C127.195 0 129.033 0.896388 130.339 2.59258C132.604 5.53451 132.728 10.4308 132.097 12.814C131.138 16.4456 132.688 19.0815 133.712 20.8255L133.867 21.0882C136.962 26.3979 136.181 30.0024 134.98 32.0904C133.385 34.8653 130.376 36.1084 128.101 36.1084C127.709 36.1084 127.33 36.0732 126.974 36.0027C126.233 35.8583 125.543 35.7843 124.925 35.7843C123.082 35.7843 122.084 36.4225 120.926 37.1627C120.758 37.2711 120.592 37.3758 120.427 37.4787C118.051 38.9519 115.801 39.6984 113.741 39.6984ZM111.503 7.59449C109.964 7.59449 108.038 8.08466 107.249 9.45678C106.4 10.9336 106.916 13.4359 108.701 16.5051C108.771 16.6261 108.845 16.7498 108.921 16.878C110.098 18.8531 112.066 22.1624 109.951 27.5814C109.344 29.1413 109.479 31.983 110.759 33.857C111.513 34.9592 112.487 35.4954 113.741 35.4954C115.007 35.4954 116.512 34.9592 118.215 33.9049C118.363 33.8137 118.511 33.7189 118.662 33.6223C120.008 32.7602 121.854 31.5786 124.926 31.5786C125.814 31.5786 126.776 31.6788 127.783 31.8765C127.846 31.89 127.951 31.9035 128.101 31.9035C128.961 31.9035 130.53 31.3953 131.336 29.9952C132.263 28.3812 131.882 26.0314 130.233 23.2041L130.089 22.9577C128.964 21.0467 126.624 17.0693 128.032 11.7406C128.393 10.3757 128.358 6.91114 127.008 5.15718C126.499 4.4991 125.889 4.20391 125.025 4.20391C124.121 4.20391 123.008 4.52799 121.714 5.16891C121.422 5.31334 121.116 5.52819 120.764 5.77734C119.555 6.62679 117.901 7.79219 114.584 7.79219C113.911 7.79219 113.178 7.74434 112.407 7.64956C112.113 7.61345 111.808 7.59449 111.503 7.59449Z" fill="#95C947"/>
<path d="M10.6557 56.8352C10.6557 56.8352 5.29811 52.7405 2.04294 52.6285C2.04294 52.6285 1.91656 51.0226 4.58677 49.998C4.58677 49.998 10.1023 55.0054 11.4537 55.5939L10.6557 56.8352Z" fill="#95C947"/>
<path d="M2.04305 52.6284C2.04305 52.6284 2.02319 51.9135 2.61266 51.2979C2.61266 51.2979 6.54306 53.8173 8.54526 54.7652C10.9763 55.9143 11.4439 55.5884 11.4547 55.5938L10.6558 56.8351C10.6558 56.8351 5.29822 52.7404 2.04305 52.6284Z" fill="#CFD8A6"/>
<path d="M10.0604 59.3346C9.29759 57.8451 8.59438 55.2995 12.6791 54.1061C16.7621 52.9145 21.9617 59.6469 25.6258 63.6423C29.1743 67.5131 39.1854 71.3199 39.4084 72.7254C39.5681 73.74 31.5728 76.4157 20.771 68.4113C17.6928 66.1293 12.3749 63.8536 10.0604 59.3346Z" fill="#EA3E48"/>
<path d="M15.4724 58.3588C16.7922 59.7923 19.0173 60.5714 21.1116 60.4964C18.8386 57.9373 16.024 54.8328 13.7401 55.4999C13.3258 55.6209 12.9872 55.7635 12.7119 55.9206C13.7897 56.2745 14.8179 57.6466 15.4724 58.3588Z" fill="white"/>
<path d="M32.1307 71.3892C28.8159 70.51 25.4208 69.2769 22.5575 67.3595C21.0887 66.3774 19.7139 65.2716 18.3337 64.1694C16.9941 63.0978 15.658 62.0182 14.471 60.7752C13.3607 59.6125 12.3081 58.346 11.5543 56.917C11.214 56.2734 10.9883 55.6126 10.8132 54.9355C8.87328 56.2472 9.44741 58.1338 10.0622 59.3344C12.3758 63.8534 17.6946 66.1291 20.7719 68.4112C31.5746 76.4155 39.569 73.7399 39.4092 72.7252C39.3867 72.5754 39.2449 72.3976 39.0184 72.1963C36.7372 72.5898 34.345 71.9769 32.1307 71.3892Z" fill="#F64D9F"/>
<path d="M194.993 33.8167C194.993 33.8167 200.35 29.7229 203.605 29.6101C203.605 29.6101 203.731 28.0059 201.06 26.9805C201.06 26.9805 195.546 31.9869 194.193 32.5755L194.993 33.8167Z" fill="#95C947"/>
<path d="M203.605 29.61C203.605 29.61 203.626 28.8959 203.034 28.2803C203.034 28.2803 199.104 30.7988 197.102 31.7467C194.671 32.8967 194.205 32.57 194.192 32.5754L194.993 33.8166C194.993 33.8166 200.349 29.7228 203.605 29.61Z" fill="#CFD8A6"/>
<path d="M195.587 36.3144C196.349 34.8267 197.052 32.2802 192.968 31.0877C188.885 29.8952 183.684 36.6294 180.02 40.6239C176.472 44.4948 166.46 48.3015 166.239 49.7061C166.079 50.7216 174.074 53.3964 184.876 45.392C187.954 43.11 193.272 40.8334 195.587 36.3144Z" fill="#EA3E48"/>
<path d="M190.174 35.3402C188.854 36.7737 186.629 37.5545 184.535 37.4787C186.808 34.9186 189.623 31.816 191.907 32.4822C192.32 32.6031 192.659 32.7449 192.936 32.9019C191.856 33.2558 190.83 34.6279 190.174 35.3402Z" fill="white"/>
<path d="M173.516 48.3707C176.832 47.4923 180.227 46.2592 183.09 44.3419C184.558 43.3588 185.933 42.2539 187.314 41.1526C188.654 40.0811 189.99 38.9996 191.177 37.7575C192.287 36.5939 193.341 35.3283 194.095 33.9002C194.434 33.2566 194.661 32.594 194.836 31.917C196.775 33.2277 196.201 35.1153 195.587 36.315C193.272 40.834 187.954 43.1106 184.876 45.3926C174.074 53.397 166.08 50.7222 166.239 49.7067C166.262 49.5577 166.403 49.379 166.63 49.1777C168.909 49.5713 171.303 48.9583 173.516 48.3707Z" fill="#F64D9F"/>
<path d="M133.92 59.4735C133.92 76.6385 122.898 86.5882 106.457 86.5882C90.0209 86.5882 78.8652 76.7234 78.8652 59.5602C78.8652 48.0154 82.4986 40.1393 91.4716 35.3251C102.193 29.5749 112.367 30.4983 120.432 34.8115C128.341 39.0407 133.92 46.1974 133.92 59.4735Z" fill="#EA3E48"/>
<path d="M96.4575 49.7807C96.8005 49.1705 101.366 50.066 100.3 51.9635C99.2812 53.7743 95.9944 50.6058 96.4575 49.7807Z" fill="#FFCD41"/>
<path d="M96.4174 67.5848C96.087 66.9682 99.2889 63.5948 100.318 65.5113C101.302 67.342 96.866 68.418 96.4174 67.5848Z" fill="#FFCD41"/>
<path d="M94.532 61.2504C94.4084 60.5598 98.4994 58.3446 98.884 60.4858C99.2514 62.5313 94.699 62.1802 94.532 61.2504Z" fill="#FFCD41"/>
<path d="M94.8439 55.4101C94.9712 54.7204 99.5814 54.0903 99.1869 56.2298C98.8104 58.2735 94.6742 56.3399 94.8439 55.4101Z" fill="#FFCD41"/>
<path d="M116.376 49.7807C116.033 49.1705 111.467 50.066 112.534 51.9635C113.553 53.7743 116.839 50.6058 116.376 49.7807Z" fill="#FFCD41"/>
<path d="M116.406 66.4863C116.737 65.8689 113.536 62.4945 112.506 64.4101C111.522 66.2426 115.958 67.3186 116.406 66.4863Z" fill="#FFCD41"/>
<path d="M117.985 61.2504C118.109 60.5598 114.019 58.3446 113.633 60.4858C113.265 62.5313 117.818 62.1802 117.985 61.2504Z" fill="#FFCD41"/>
<path d="M118.086 55.4101C117.958 54.7204 113.35 54.0903 113.745 56.2298C114.123 58.2735 118.258 56.3399 118.086 55.4101Z" fill="#FFCD41"/>
<path d="M118.026 37.0614C111.004 33.2321 102.146 32.4124 92.8101 37.5163C84.998 41.7898 81.835 48.7821 81.835 59.0315C81.835 74.271 91.5481 83.0291 105.859 83.0291C120.171 83.0291 129.769 74.1961 129.769 58.9566C129.77 47.169 124.911 40.8148 118.026 37.0614ZM86.7655 59.3854C86.7655 51.4018 89.2787 45.9567 95.483 42.6284C97.6703 41.4539 99.8242 40.6866 101.917 40.2579C102.759 43.4887 103.293 47.3766 103.573 51.5426C101.454 52.8877 99.9929 55.6915 99.9929 58.9403C99.9929 62.2054 101.469 65.0201 103.604 66.3561C103.377 70.4273 102.973 74.364 102.43 77.853C92.9636 76.6 86.7655 70.0211 86.7655 59.3854ZM110.528 77.6463C110.194 74.7034 109.547 71.0132 109.107 66.4021C111.284 65.0851 112.793 62.2433 112.793 58.9394C112.793 55.4902 111.15 52.5392 108.82 51.307C109.016 47.9309 109.4 44.2596 110.046 40.266C111.982 40.6758 113.814 41.3637 115.511 42.2718C120.98 45.1966 124.838 50.1452 124.838 59.3267C124.838 69.4795 119.257 75.9781 110.528 77.6463Z" fill="#FFE0AA"/>
<path d="M120.472 34.8966C116.732 32.8971 112.54 31.6279 108.048 31.4131C108.309 31.5313 108.569 31.6523 108.827 31.7778C113.132 33.8775 117.869 36.4836 121.031 40.1721C123.702 43.2891 125.347 47.0345 126.001 51.0822C126.701 55.417 127.008 60.1562 125.783 64.4234C124.563 68.676 122.23 72.4448 118.796 75.2577C115.191 78.2104 108.108 79.5275 103.566 79.6557C89.217 80.0592 84.7576 73.3367 80.4102 69.7187C83.9741 80.608 93.6114 86.6724 106.498 86.6724C122.938 86.6724 133.96 76.7246 133.96 59.5587C133.96 46.2825 128.381 39.1258 120.472 34.8966Z" fill="#F06060"/>
<path d="M89.4374 60.9498C92.7747 60.0344 94.2804 57.6928 94.2632 54.2589C94.2452 50.5813 93.4941 47.1185 95.1759 43.671C96.047 41.8837 97.4245 40.2245 98.0672 38.3432C98.0817 38.3026 98.0907 38.2602 98.1052 38.2178C96.3593 38.7079 94.5792 39.4175 92.7792 40.3834C86.0919 43.9707 83.3838 49.8402 83.3838 58.4439C83.3838 59.4567 83.4425 60.4298 83.5436 61.3741C85.5214 61.4752 87.5417 61.468 89.4374 60.9498Z" fill="white"/>
<path d="M191.471 179.119C181.683 184.229 179.254 177.025 181.736 177.136C186.246 177.338 188.445 174.235 188.445 174.235C176.267 173.765 178.808 163.966 181.667 165.143C189.737 168.465 189.977 164.704 189.977 164.704C189.218 164.232 186.573 165.294 184.162 160.268C181.75 155.241 185.291 153.231 186.385 154.367C191.635 159.807 194.826 158.295 194.521 156.121C194.218 153.948 194.211 148.126 196.903 147.94C199.593 147.753 200.655 146.032 201.894 145.374C202.851 144.866 204.949 144.841 205.966 146.861C206.716 148.351 206.396 151.064 208.294 152.98C210.193 154.896 206.02 158.394 204.358 159.825C202.694 161.259 204.093 164.5 211.629 163.877C213.201 163.746 214.535 167.591 209.406 169.778C204.277 171.963 202.99 169.418 202.108 169.274C202.108 169.274 199.807 172.256 208.062 175.086C210.986 176.088 206.429 185.129 196.971 177.445C196.971 177.445 196.575 181.229 200.097 184.053C202.032 185.608 195.452 189.417 191.471 179.119Z" fill="#579C43"/>
<path opacity="0.5" d="M189.155 159.752C188.258 159.764 189.512 162.01 190.048 162.645C190.782 163.514 192.491 164.056 193.665 163.977C194.941 163.893 196.125 162.601 196.761 161.425C198.175 158.809 198.881 156.546 199.725 154.306C200.294 152.795 201.12 150.716 200.816 149.163C200.108 149.704 199.239 150.184 198.025 150.317C195.509 150.595 195.323 156.461 195.535 158.642C195.724 160.597 193.313 159.696 189.155 159.752Z" fill="white"/>
<path d="M185.749 194.309L202.177 150.707" stroke="#95C947" stroke-width="0.7762" stroke-miterlimit="10"/>
<path d="M208.06 175.087C199.806 172.257 202.107 169.275 202.107 169.275C202.989 169.418 204.276 171.964 209.404 169.778C214.534 167.592 213.199 163.746 211.628 163.877C204.092 164.5 202.694 161.259 204.356 159.826C206.019 158.394 210.192 154.896 208.293 152.981C206.395 151.065 206.714 148.352 205.965 146.862C205.437 145.813 204.619 145.319 203.82 145.153C203.873 145.34 203.917 145.531 203.957 145.719C204.394 147.779 204.62 149.839 204.44 151.944C204.002 157.082 202.18 161.868 200.375 166.652C199.509 168.95 198.636 171.437 196.781 173.145C195.125 174.67 193.037 175.877 191.037 176.892C188.421 178.22 184.798 178.69 182.203 177.144C182.049 177.144 181.894 177.142 181.735 177.134C179.254 177.023 181.683 184.228 191.47 179.118C195.452 189.416 202.032 185.606 200.095 184.053C196.574 181.228 196.969 177.445 196.969 177.445C206.429 185.13 210.985 176.09 208.06 175.087Z" fill="#CFD8A6"/>
<path d="M57.671 183.738C53.3335 193.892 46.8908 189.856 48.8804 188.37C52.4994 185.669 52.2358 181.877 52.2358 181.877C42.5145 189.226 38.2736 180.034 41.2309 179.133C49.5809 176.591 47.3837 173.531 47.3837 173.531C46.4973 173.646 45.1233 176.143 40.0718 173.781C35.022 171.419 36.4889 167.622 38.0551 167.807C45.5639 168.691 47.075 165.5 45.4619 164.011C43.8505 162.522 40.1584 158.02 42.1218 156.172C44.087 154.323 43.8171 152.318 44.3596 151.027C44.7803 150.027 46.3862 148.678 48.4534 149.598C49.9772 150.275 51.4468 152.577 54.1297 152.857C56.8134 153.137 55.8006 158.487 55.4214 160.649C55.0414 162.811 58.1774 164.432 63.6135 159.176C64.7464 158.08 68.2155 160.211 65.6302 165.151C63.0466 170.091 60.4378 168.937 59.666 169.384C59.666 169.384 59.7734 173.149 67.9547 170.111C70.8515 169.034 73.0523 178.915 60.8657 178.962C60.8657 178.962 62.9545 182.14 67.469 182.094C69.9523 182.069 67.274 189.185 57.671 183.738Z" fill="#579C43"/>
<path opacity="0.5" d="M43.6087 170.219C42.9217 170.796 45.3148 171.74 46.1336 171.892C47.252 172.1 48.9166 171.436 49.7751 170.632C50.7076 169.757 50.8069 168.009 50.5541 166.697C49.9899 163.775 49.1035 161.579 48.3371 159.309C47.8216 157.781 47.1437 155.649 45.9241 154.639C45.7174 155.506 45.35 156.43 44.496 157.3C42.724 159.108 46.296 163.766 47.8415 165.318C49.2289 166.712 46.7916 167.541 43.6087 170.219Z" fill="white"/>
<path d="M62.8634 199.118L47.9561 154.972" stroke="#95C947" stroke-width="0.7762" stroke-miterlimit="10"/>
<path d="M67.9527 170.11C59.7715 173.149 59.664 169.384 59.664 169.384C60.4358 168.937 63.0447 170.09 65.6282 165.151C68.2127 160.21 64.7436 158.08 63.6116 159.176C58.1755 164.431 55.0395 162.81 55.4195 160.649C55.7986 158.487 56.8115 153.137 54.1277 152.857C51.4449 152.576 49.9753 150.275 48.4515 149.597C47.3791 149.121 46.4321 149.256 45.71 149.634C45.8679 149.746 46.0232 149.864 46.1739 149.985C47.8178 151.302 49.2973 152.752 50.4925 154.496C53.4074 158.75 55.0286 163.606 56.6616 168.451C57.4479 170.778 58.3488 173.255 57.9967 175.753C57.6799 177.982 56.8295 180.238 55.925 182.291C54.7398 184.975 52.2356 187.635 49.2486 188.082C49.1294 188.178 49.0085 188.276 48.8803 188.37C46.8907 189.856 53.3342 193.892 57.6709 183.739C67.2748 189.185 69.9522 182.069 67.4689 182.094C62.9544 182.14 60.8655 178.961 60.8655 178.961C73.0512 178.915 70.8495 169.033 67.9527 170.11Z" fill="#CFD8A6"/>
<path d="M143.967 260.502C133.383 267.041 75.5145 263.764 72.4714 260.244C69.8121 257.167 72.3776 251.927 72.3776 251.927H143.971C143.971 251.927 147.437 258.359 143.967 260.502Z" fill="#C7C8CA"/>
<path d="M5.08105 171.801C6.43783 216.841 43.5897 256.803 108.174 256.803C170.233 256.803 209.91 216.841 211.268 171.801C211.268 171.801 210.083 182.467 108.174 182.467C38.057 182.467 5.08105 171.801 5.08105 171.801Z" fill="#DCDDDE"/>
<path d="M48.2095 209.139C51.9557 212.798 57.9145 214.681 62.9733 216.109C65.5343 216.833 68.1512 217.188 70.7835 217.532C73.4836 217.885 76.1962 218.174 78.9188 218.272C85.2585 218.503 91.7029 217.799 97.4433 214.926C101.91 212.691 105.556 209.282 108.075 204.967C110.308 201.146 111.739 197.001 112.954 192.77C105.152 193.003 95.6279 193.064 83.982 192.862C62.4633 192.492 46.6117 190.6 36.0762 188.782C36.3831 191.817 35.9751 197.195 48.2095 209.139Z" fill="#E7E9EB"/>
<path d="M179.385 179.784C176.664 185.388 173.727 190.893 170.902 196.369C167.003 203.919 162.215 210.892 155.888 216.624C149.529 222.388 142.041 227.303 134.161 230.706C115.641 238.706 95.1951 238.961 75.563 235.651C67.2391 234.248 59.2592 232.018 51.9138 227.749C45.2491 223.876 39.3057 218.817 34.3634 212.904C25.1647 201.896 19.2105 188.514 16.1656 174.552C8.73003 172.979 5.08398 171.801 5.08398 171.801C6.44076 216.841 43.5927 256.803 108.177 256.803C170.236 256.803 209.913 216.841 211.271 171.801C211.271 171.801 210.731 176.625 179.385 179.784Z" fill="#B7B9BB"/>
<path d="M177.026 73.1194C175.849 68.8089 173.388 66.331 170.79 64.8524C167.312 62.8709 163.446 62.9079 160.703 64.9472C156.794 67.8521 150.793 77.0435 143.51 83.1458C137.414 88.2533 130.083 88.9791 127.179 95.6239C123.748 103.468 127.017 108.712 134.205 112.571C143.205 117.405 150.662 113.415 156.91 107.562C164.109 100.823 180.066 84.2471 177.026 73.1194Z" fill="#392346"/>
<path d="M146.833 85.2209C147.825 85.9575 149.189 86.2229 150.348 85.7192C152.573 84.7506 153.585 82.2113 154.933 80.367C155.783 79.2035 156.7 78.0272 157.766 77.0514C158.734 76.164 159.869 75.506 161.033 74.912C162.286 74.272 163.446 73.6527 164.403 72.592C164.648 72.3203 164.878 72.0387 165.1 71.7507C164.935 71.6415 164.769 71.5377 164.6 71.442C162.32 70.143 159.784 70.1673 157.984 71.5043C155.422 73.4099 151.489 79.4355 146.713 83.4381C146.429 83.6755 146.141 83.8966 145.853 84.107C146.116 84.5331 146.431 84.9212 146.833 85.2209Z" fill="white"/>
<path d="M177.026 73.1196C177.008 73.0564 176.988 72.996 176.969 72.9346C175.901 74.8005 174.724 76.6086 173.555 78.4077C169.632 84.4396 165.265 90.5112 159.432 94.8523C156.21 97.2472 153.093 99.8344 149.611 101.854C146.355 103.742 142.327 105.531 138.472 105.287C134.794 105.053 131.365 103.007 129.198 100.052C128.306 98.8369 127.287 97.3601 127.108 95.7957C123.802 103.545 127.071 108.742 134.206 112.573C143.206 117.407 150.663 113.417 156.911 107.564C164.109 100.823 180.066 84.2473 177.026 73.1196Z" fill="#773053"/>
<path d="M171.288 65.5498C171.288 65.5498 172.502 60.8133 175.517 59.1234C175.517 59.1234 174.256 57.2864 171.239 57.6195C171.239 57.6195 169.89 62.8859 168.902 64.0991L171.288 65.5498Z" fill="#95C947"/>
<path d="M175.515 59.1232C175.515 59.1232 175.147 58.5861 174.332 58.1465C174.332 58.1465 172.498 60.7364 171.876 61.6761C171.104 62.8406 169.511 63.8931 168.925 64.0646C168.917 64.0755 168.909 64.0881 168.9 64.0989L171.287 65.5496C171.287 65.5496 172.501 60.8131 175.515 59.1232Z" fill="#CFD8A6"/>
<path d="M163.549 63.5657C163.549 63.5657 159.248 66.8931 159.134 69.7583C159.134 69.7583 162.811 67.3227 165.397 67.3932C165.397 67.3932 163.48 70.0011 163.976 72.2642C163.976 72.2642 167.329 69.5669 169.784 69.9225C169.784 69.9225 171.072 72.0647 170.096 74.3359C170.096 74.3359 173.655 73.7248 172.859 69.8684C172.859 69.8684 175.618 73.7157 173.523 77.4972C173.523 77.4972 176.762 75.4805 176.663 71.9545C176.663 71.9545 173.652 61.8577 163.549 63.5657Z" fill="#95C947"/>
<path d="M176.661 71.9554C176.661 71.9554 175.938 69.5316 174.014 67.2613C174.234 68.1676 174.294 69.1724 173.97 69.9884C173.927 70.0976 172.972 69.306 172.476 69.1245C172.271 69.8223 172.053 70.5734 171.375 70.9408C171.287 70.9886 171.035 69.8801 170.987 69.3926C170.955 69.064 170.956 68.2236 170.398 68.2191C170.082 68.2155 169.768 68.2408 169.461 68.3184C168.511 68.5576 166.616 69.3655 166.608 69.2807C166.537 68.6389 166.757 68.0494 167.009 67.4653C167.143 67.1557 167.296 66.8524 167.447 66.5509C167.551 66.3406 167.871 65.9966 167.318 65.9948C167.168 65.9903 167.017 65.9939 166.866 66.0029C165.835 66.0102 164.844 66.0029 163.844 66.2945C163.357 66.4344 161.882 66.6818 161.915 66.6041C162.488 65.2519 163.541 64.3248 164.644 63.4248C164.287 63.4564 163.922 63.5033 163.546 63.5647C163.546 63.5647 159.245 66.8921 159.131 69.7573C159.131 69.7573 162.808 67.3218 165.394 67.3922C165.394 67.3922 163.477 70.0001 163.973 72.2632C163.973 72.2632 167.326 69.5659 169.781 69.9216C169.781 69.9216 171.069 72.0637 170.093 74.3349C170.093 74.3349 173.652 73.7238 172.857 69.8674C172.857 69.8674 175.615 73.7148 173.52 77.4962C173.522 77.498 176.761 75.4814 176.661 71.9554Z" fill="#CFD8A6"/>
<path d="M23.6582 14.9375L22.4521 15.7039L25.256 20.1245L25.599 25.019L26.3916 24.9377L26.555 21.0308L29.6404 22.6665L30.2037 21.7286L26.4548 19.3292L23.6582 14.9375Z" fill="#579C43"/>
<path d="M27.4541 22.4899C26.4981 22.6217 23.6302 23.6779 25.0294 27.7067C25.6875 29.6041 24.8164 31.0467 23.8884 32.1588C22.6264 33.6699 24.653 41.3583 27.427 40.6398C30.3229 39.8869 30.8284 36.7671 31.3078 33.0985C31.5497 31.2335 33.226 29.7423 32.0642 27.7229C30.4673 24.9471 31.7907 21.8869 27.4541 22.4899Z" fill="#95C947"/>
<path d="M30.2273 29.838C28.9066 30.8237 27.6852 31.9648 27.5453 33.7242C27.4668 34.7081 27.8649 35.4131 28.0138 36.2048C28.1754 37.0687 28.5139 38.4877 28.9544 38.5591C29.2884 38.6141 30.2011 35.6262 30.4854 33.4479C30.6777 31.9675 32.0038 30.7831 31.1002 29.1826C30.7942 29.3902 30.5062 29.6313 30.2273 29.838Z" fill="#DCDDDE"/>
<path d="M26.275 31.8369C26.2587 32.681 26.3824 33.5133 26.4745 34.3492C26.571 35.2338 26.6776 36.123 26.8744 36.9941C27.137 38.1523 27.5541 39.4152 28.4261 40.2367C28.1282 40.4064 27.7987 40.5418 27.4286 40.6384C24.6546 41.3578 22.6289 33.6685 23.89 32.1574C24.8171 31.0462 25.6882 29.6027 25.031 27.7053C23.6309 23.6765 26.4997 22.6203 27.4557 22.4885C29.1095 22.2592 29.9382 22.5625 30.4211 23.1791C27.8854 25.2056 26.33 28.7352 26.275 31.8369Z" fill="#DBDCA3"/>
<path d="M29.5228 20.9404C30.4075 20.3889 33.5218 19.2785 35.1485 23.5926C35.9158 25.6237 37.64 26.2195 39.1791 26.5002C41.2743 26.8802 44.9176 34.6679 42.1147 35.9913C39.1908 37.3724 36.61 35.1337 33.6708 32.4175C32.1777 31.0381 29.753 30.9623 29.3197 28.4817C28.7221 25.0676 25.5048 23.4427 29.5228 20.9404Z" fill="#95C947"/>
<path d="M39.3119 33.5927C39.1421 32.9346 38.7549 32.272 38.3757 31.7133C37.984 31.1337 37.4577 30.639 36.8637 30.2671C36.5622 30.0776 36.2598 29.9097 35.8924 29.9115C35.6008 29.9142 35.3119 29.9602 35.0213 29.9647C33.7665 29.981 32.1786 28.6775 31.3373 29.4628C30.8535 29.9142 33.0489 30.8954 33.9859 31.7837C35.8536 33.5575 38.4335 36.1799 39.3489 35.2979C39.7587 34.9043 39.4734 34.2156 39.3119 33.5927Z" fill="#DCDDDE"/>
<path d="M36.9777 27.8854C37.5744 28.5759 38.0492 29.3513 38.552 30.1096C39.0837 30.913 39.6127 31.7228 40.0505 32.5831C40.6355 33.7277 41.1617 35.0637 41.0092 36.3501C41.373 36.2842 41.7413 36.1677 42.115 35.9917C44.9179 34.6683 41.2746 26.8806 39.1794 26.5006C37.6403 26.2198 35.9161 25.6241 35.1488 23.593C33.5212 19.2789 30.4078 20.3884 29.5231 20.9408C27.9912 21.895 27.5128 22.7219 27.5381 23.5695C31.0451 23.4946 34.7832 25.3478 36.9777 27.8854Z" fill="#DBDCA3"/>
<path d="M82.7175 146.829H84.1456V141.593L86.48 137.277L85.7677 136.921L83.5353 140.132L81.8067 137.099L80.8281 137.588L82.7076 141.622L82.7175 146.829Z" fill="#579C43"/>
<path d="M83.5577 138.42C84.4351 138.819 87.4222 139.465 88.3999 135.315C88.8602 133.36 90.3696 132.608 91.7471 132.167C93.6229 131.566 96.0323 123.988 93.3043 123.112C90.4571 122.195 88.3574 124.557 85.9878 127.398C84.7836 128.843 82.5693 129.203 82.4691 131.531C82.33 134.73 79.5732 136.607 83.5577 138.42Z" fill="#95C947"/>
<path d="M85.1542 130.727C86.7962 130.605 88.44 130.295 89.5007 128.885C90.0929 128.096 90.1344 127.287 90.4341 126.538C90.76 125.723 91.2348 124.343 90.9017 124.046C90.6481 123.822 88.2785 125.855 86.8711 127.541C85.9143 128.688 84.1594 128.978 84.0664 130.814C84.4347 130.802 84.8075 130.754 85.1542 130.727Z" fill="#DCDDDE"/>
<path d="M89.5636 131.158C90.0276 130.454 90.3715 129.685 90.7416 128.93C91.1334 128.13 91.5206 127.324 91.8203 126.483C92.2184 125.364 92.5425 124.075 92.2482 122.913C92.5894 122.93 92.9415 122.993 93.3053 123.111C96.0333 123.988 93.6249 131.565 91.7481 132.166C90.3706 132.606 88.8613 133.359 88.4009 135.314C87.4232 139.464 84.4353 138.819 83.5587 138.419C82.0386 137.726 81.5015 137.025 81.4238 136.245C84.6492 135.894 87.8547 133.748 89.5636 131.158Z" fill="#DBDCA3"/>
<path d="M80.9815 138.619C79.9389 138.61 76.7135 137.88 77.6523 133.364C78.0937 131.238 76.9545 129.812 75.8054 128.752C74.2419 127.306 75.3378 118.779 78.4133 119.164C81.6224 119.566 82.6028 122.838 83.6283 126.705C84.15 128.671 86.1568 130.035 85.1918 132.362C83.8684 135.563 85.7144 138.66 80.9815 138.619Z" fill="#95C947"/>
<path d="M79.4951 122.691C79.2865 123.336 79.2568 124.105 79.2784 124.779C79.2992 125.477 79.4779 126.179 79.7803 126.81C79.9347 127.132 80.099 127.435 80.4104 127.632C80.6569 127.785 80.9259 127.901 81.1723 128.053C82.242 128.711 82.8838 130.663 84.0158 130.451C84.6658 130.329 83.337 128.324 83.022 127.071C82.3955 124.574 81.6228 120.978 80.377 121.23C79.8219 121.343 79.691 122.079 79.4951 122.691Z" fill="#DCDDDE"/>
<path d="M78.4077 128.76C78.2741 127.857 78.2886 126.949 78.2705 126.038C78.2515 125.076 78.2398 124.106 78.3292 123.148C78.4501 121.868 78.721 120.457 79.5388 119.452C79.1967 119.313 78.8239 119.214 78.4131 119.163C75.3385 118.778 74.2417 127.305 75.8052 128.751C76.9543 129.812 78.0936 131.238 77.6521 133.363C76.7133 137.879 79.9378 138.61 80.9813 138.618C82.7859 138.634 83.6335 138.191 84.0659 137.463C81.0635 135.646 78.9015 132.079 78.4077 128.76Z" fill="#DBDCA3"/>
<path d="M69.7609 28.8379L68.7751 28.948L69.1795 32.5607L67.9004 35.7183L68.4186 35.9088L69.7112 33.5221L71.1384 35.4827L71.7748 35.0693L70.168 32.4289L69.7609 28.8379Z" fill="#579C43"/>
<path d="M69.8281 34.7052C69.1917 34.4967 67.0793 34.2809 66.7246 37.2211C66.5567 38.6049 65.5736 39.2395 64.6565 39.6502C63.408 40.2072 62.3275 45.6226 64.2782 46.0198C66.3138 46.4332 67.5803 44.6413 68.9976 42.4983C69.7179 41.4096 71.2192 40.9908 71.109 39.3776C70.9583 37.1579 72.7167 35.6512 69.8281 34.7052Z" fill="#95C947"/>
<path d="M69.318 40.1347C68.1941 40.346 67.0838 40.6872 66.46 41.7416C66.1116 42.331 66.145 42.8916 65.996 43.4314C65.8327 44.02 65.6115 45.0085 65.8651 45.1872C66.0574 45.3226 67.537 43.7384 68.3783 42.4655C68.9506 41.5989 70.1386 41.264 70.0628 39.9912C69.8082 40.0291 69.5554 40.0905 69.318 40.1347Z" fill="#DCDDDE"/>
<path d="M66.2427 40.1783C65.9755 40.6992 65.7985 41.2544 65.6008 41.805C65.3932 42.3882 65.1865 42.9749 65.0448 43.577C64.8561 44.3813 64.7315 45.294 65.0249 46.0739C64.7866 46.0893 64.5402 46.0721 64.2802 46.0198C62.3294 45.6235 63.41 40.2081 64.6584 39.6502C65.5756 39.2395 66.5586 38.6049 66.7265 37.2211C67.0813 34.2809 69.1927 34.4967 69.83 34.7052C70.9323 35.0663 71.3556 35.5095 71.4694 36.0403C69.2695 36.5314 67.223 38.2592 66.2427 40.1783Z" fill="#DBDCA3"/>
<path d="M71.5912 34.3695C72.3115 34.2955 74.5927 34.5518 74.293 37.7393C74.1522 39.2414 75.0458 40.1387 75.9215 40.7823C77.1121 41.658 77.012 47.6276 74.859 47.5987C72.614 47.5689 71.6851 45.3844 70.6803 42.7945C70.1694 41.4792 68.679 40.6912 69.1656 39.013C69.8336 36.7012 68.3207 34.7053 71.5912 34.3695Z" fill="#95C947"/>
<path d="M73.8413 45.2463C73.9352 44.786 73.8964 44.2534 73.8296 43.7903C73.7618 43.3091 73.5858 42.8397 73.3258 42.4263C73.1958 42.2169 73.0595 42.0201 72.8284 41.909C72.6461 41.8224 72.4529 41.7628 72.2697 41.6761C71.4816 41.3024 70.8894 40.0061 70.1239 40.2399C69.6843 40.3726 70.7558 41.6545 71.0691 42.4958C71.6928 44.1703 72.5026 46.5932 73.3439 46.3233C73.7185 46.2023 73.7519 45.6851 73.8413 45.2463Z" fill="#DCDDDE"/>
<path d="M74.1249 40.9755C74.2865 41.5885 74.346 42.2167 74.4291 42.8432C74.5167 43.5049 74.5997 44.1729 74.6096 44.8427C74.6259 45.7337 74.5465 46.7294 74.0599 47.485C74.3063 47.5545 74.5708 47.5951 74.8588 47.5987C77.0118 47.6276 77.1119 41.658 75.9213 40.7823C75.0456 40.1387 74.152 39.2414 74.2928 37.7393C74.5925 34.5518 72.3113 34.2955 71.591 34.3695C70.3452 34.4986 69.7937 34.8678 69.5518 35.404C71.7625 36.4277 73.5291 38.7233 74.1249 40.9755Z" fill="#DBDCA3"/>
<path d="M23.5245 98.276H24.5175V94.6399L26.1361 91.6438L25.6423 91.3955L24.0923 93.6261L22.8917 91.5201L22.2129 91.8595L23.5182 94.6606L23.5245 98.276Z" fill="#579C43"/>
<path d="M24.1077 92.4366C24.717 92.7146 26.7923 93.1633 27.4703 90.28C27.7898 88.9232 28.8388 88.4006 29.7956 88.0955C31.0965 87.6775 32.7701 82.4165 30.8753 81.8063C28.8984 81.1699 27.4414 82.8101 25.7948 84.7825C24.9589 85.7854 23.4216 86.0364 23.3512 87.6522C23.2555 89.8756 21.3409 91.1773 24.1077 92.4366Z" fill="#95C947"/>
<path d="M25.2155 87.0954C26.3557 87.0096 27.4967 86.7939 28.2342 85.8153C28.6458 85.2683 28.6747 84.7059 28.8823 84.186C29.1098 83.62 29.4393 82.6622 29.2073 82.4564C29.0313 82.2993 27.3847 83.712 26.408 84.8828C25.7436 85.6799 24.5259 85.8812 24.46 87.1568C24.7172 87.1459 24.9754 87.1143 25.2155 87.0954Z" fill="#DCDDDE"/>
<path d="M28.2778 87.395C28.6001 86.9066 28.8384 86.3731 29.0957 85.8486C29.3674 85.2926 29.6373 84.7329 29.8449 84.1479C30.1221 83.3716 30.3459 82.4761 30.1419 81.6709C30.3793 81.6817 30.6222 81.726 30.8758 81.8063C32.7706 82.4165 31.097 87.6775 29.7962 88.0955C28.8384 88.4006 27.7895 88.9233 27.4708 90.28C26.7929 93.1624 24.7176 92.7137 24.1082 92.4366C23.053 91.9573 22.6801 91.4698 22.626 90.9291C24.8665 90.6826 27.0917 89.1923 28.2778 87.395Z" fill="#DBDCA3"/>
<path d="M22.3191 92.5744C21.5952 92.5681 19.3564 92.0617 20.0064 88.9257C20.3133 87.4498 19.5234 86.4595 18.7254 85.7229C17.6386 84.72 18.4005 78.7982 20.5354 79.0654C22.7642 79.3434 23.4448 81.6165 24.157 84.302C24.5181 85.6678 25.9119 86.6148 25.243 88.2306C24.324 90.4531 25.6059 92.6033 22.3191 92.5744Z" fill="#95C947"/>
<path d="M21.2875 81.5148C21.1448 81.9626 21.1232 82.4952 21.1376 82.9637C21.1521 83.4484 21.2748 83.935 21.487 84.3737C21.5926 84.5967 21.7072 84.8088 21.9239 84.9442C22.0945 85.0517 22.2813 85.1329 22.4529 85.2385C23.1949 85.6953 23.6408 87.0503 24.4271 86.9022C24.8784 86.8174 23.9559 85.4254 23.7374 84.5561C23.3032 82.8211 22.7652 80.3242 21.9013 80.5011C21.514 80.5796 21.4238 81.0888 21.2875 81.5148Z" fill="#DCDDDE"/>
<path d="M20.5328 85.7291C20.4398 85.1036 20.4498 84.4708 20.438 83.8389C20.4236 83.1709 20.4164 82.4992 20.4787 81.8321C20.5617 80.943 20.7513 79.9635 21.3191 79.2667C21.0817 79.1692 20.8217 79.0996 20.5373 79.0644C18.4024 78.7972 17.6405 84.719 18.7274 85.7219C19.5254 86.4576 20.3153 87.4488 20.0083 88.9247C19.3575 92.0607 21.5971 92.5672 22.3211 92.5735C23.574 92.5852 24.1626 92.2783 24.4623 91.7719C22.3771 90.5108 20.8758 88.0338 20.5328 85.7291Z" fill="#DBDCA3"/>
<path d="M143.636 68.0924H144.628V64.4572L146.248 61.4593L145.754 61.2119L144.204 63.4425L143.004 61.3365L142.324 61.6759L143.63 64.477L143.636 68.0924Z" fill="#579C43"/>
<path d="M144.22 62.2529C144.829 62.5309 146.904 62.9796 147.582 60.0963C147.902 58.7396 148.95 58.216 149.907 57.91C151.209 57.4929 152.883 52.2319 150.988 51.6217C149.011 50.9853 147.552 52.6255 145.908 54.5997C145.071 55.6017 143.533 55.8536 143.464 57.4685C143.367 59.691 141.454 60.9936 144.22 62.2529Z" fill="#95C947"/>
<path d="M145.328 56.9126C146.469 56.8259 147.609 56.612 148.346 55.6325C148.758 55.0855 148.786 54.5231 148.995 54.0022C149.221 53.4362 149.552 52.4785 149.32 52.2726C149.144 52.1165 147.496 53.5283 146.519 54.7C145.856 55.4962 144.638 55.6975 144.572 56.9712C144.829 56.9649 145.086 56.9315 145.328 56.9126Z" fill="#DCDDDE"/>
<path d="M148.391 57.2113C148.712 56.722 148.951 56.1885 149.208 55.6641C149.481 55.108 149.75 54.5483 149.957 53.9652C150.233 53.1879 150.459 52.2915 150.254 51.4863C150.491 51.4972 150.735 51.5414 150.988 51.6217C152.883 52.232 151.209 57.493 149.907 57.91C148.949 58.216 147.902 58.7396 147.582 60.0964C146.904 62.9787 144.829 62.5301 144.22 62.2529C143.164 61.7727 142.791 61.2861 142.737 60.7445C144.977 60.4999 147.203 59.0095 148.391 57.2113Z" fill="#DBDCA3"/>
<path d="M142.432 62.3919C141.707 62.3865 139.47 61.8791 140.119 58.744C140.426 57.2663 139.636 56.2778 138.838 55.5394C137.751 54.5374 138.512 48.6147 140.648 48.8828C142.876 49.1618 143.556 51.4339 144.27 54.1195C144.632 55.4844 146.024 56.4331 145.355 58.0472C144.437 60.2696 145.718 62.4199 142.432 62.3919Z" fill="#95C947"/>
<path d="M141.399 51.3322C141.254 51.7809 141.234 52.3135 141.248 52.782C141.263 53.2667 141.387 53.7533 141.597 54.192C141.704 54.4159 141.819 54.6262 142.034 54.7625C142.206 54.8699 142.392 54.9503 142.563 55.0559C143.306 55.5127 143.752 56.8676 144.538 56.7205C144.99 56.6356 144.068 55.2428 143.849 54.3735C143.414 52.6384 142.877 50.1415 142.013 50.3185C141.626 50.397 141.536 50.9061 141.399 51.3322Z" fill="#DCDDDE"/>
<path d="M140.644 55.5457C140.552 54.9201 140.561 54.2882 140.55 53.6563C140.537 52.9883 140.529 52.3158 140.592 51.6487C140.675 50.7604 140.864 49.781 141.432 49.0832C141.193 48.9866 140.936 48.9171 140.65 48.8819C138.514 48.6138 137.753 54.5364 138.84 55.5384C139.638 56.276 140.428 57.2653 140.121 58.7431C139.471 61.8782 141.709 62.3855 142.434 62.3909C143.687 62.4026 144.274 62.0948 144.575 61.5884C142.489 60.3273 140.987 57.8494 140.644 55.5457Z" fill="#DBDCA3"/>
<path d="M181.657 276.853C150.975 278.578 128.153 280.958 95.783 278.641C77.4499 277.33 74.7436 277.116 56.0494 262.345C49.6735 257.309 46.3606 247.565 55.3877 244.612C60.6794 242.882 75.0875 253.253 82.8364 255.844C99.393 261.376 139.48 259.163 139.804 254.684C140.183 249.363 123.042 251.454 114.72 246.69C102.114 239.484 113.2 227.739 127.794 231.773C163.109 241.537 180.907 244.641 180.907 244.641L181.657 276.853Z" fill="#FFB595"/>
<path d="M308.51 245.498L168.056 243.13L168.349 277.352C168.349 277.352 230.433 288.13 308.51 297.803V245.498Z" fill="#FFB595"/>
</svg>
