<svg width="103" height="87" viewBox="0 0 103 87" fill="none" xmlns="http://www.w3.org/2000/svg">
<path d="M88.8709 17.1759C88.8354 16.7698 88.5132 15.2975 89.1624 14.8484C89.5373 14.5891 89.8408 14.6203 90.148 14.8801C90.148 14.8801 90.4198 14.2468 91.3187 14.4282C92.5562 14.6776 92.275 15.6174 92.275 15.6174C92.275 15.6174 92.7079 15.4875 93.1063 15.7487C93.6214 16.0867 93.6367 16.525 93.5505 16.9608C93.4643 17.3965 93.1187 17.4562 93.1187 17.4562C93.1187 17.4562 93.5394 17.6953 93.5199 18.0923C93.484 18.8319 92.6767 18.5005 92.6767 18.5005C92.6767 18.5005 92.7316 19.2157 92.3316 19.5244C91.5522 20.1264 90.7855 19.3654 90.7855 19.3654C90.4217 19.5098 89.6843 18.5902 89.6843 18.5902L88.8709 17.1759Z" fill="#1F1E2F"/>
<path d="M88.2144 22.9496C88.582 22.8944 89.8443 22.7089 90.5055 22.014C92.3619 20.0633 90.9011 17.8266 90.3557 16.8692C89.4974 15.3628 87.9013 15.31 87.9013 15.31L87.7815 15.3022C87.1762 15.1909 85.9636 14.9628 85.0663 15.4749C83.3441 16.4581 82.8316 18.4345 83.7228 19.7739C84.1434 20.4062 86.8219 23.1589 88.2144 22.9496Z" fill="#1F1E2F"/>
<path d="M90.8021 28.0495C90.8032 26.9782 90.7647 26.2523 90.7647 26.2523C90.7647 26.2523 89.2574 25.838 88.8043 24.952C88.1475 23.668 88.9899 20.8604 88.9899 20.8604L85.8418 22.3197C85.8418 22.3197 86.4871 25.0105 84.895 25.7074C84.2396 25.9944 83.9678 26.2728 83.9678 26.2728C83.9678 26.2728 83.5514 27.077 83.5107 28.1759C85.9247 28.3981 88.3676 28.2463 90.8021 28.0495Z" fill="#BD8368"/>
<path d="M84.8257 78.763C84.8257 78.763 84.3844 80.6595 84.3952 81.5387C84.406 82.4179 84.4814 82.515 84.3097 82.8687C84.2317 83.0296 82.1663 83.5887 81.5866 83.638C80.8913 83.6972 80.3682 83.4872 80.3682 83.4872C80.3682 83.4872 82.3058 81.8861 82.4505 80.4312C82.5952 78.9763 82.757 76.4824 82.757 76.4824L84.8257 78.763Z" fill="#BD8368"/>
<path d="M84.6035 84.8241L84.4992 82.4082C84.4992 82.4082 83.5106 83.1523 82.6603 83.3071C81.5842 83.5028 81.1461 82.7371 81.1461 82.7371C81.1461 82.7371 79.5564 83.9663 78.8653 84.5204C77.9894 85.2229 80.0393 84.9573 81.1593 84.8241C82.2793 84.6909 83.2651 84.2803 83.2651 84.2803L83.524 84.8241H84.6035Z" fill="#302D32"/>
<path d="M81.9477 41.4512C81.9477 41.4512 83.4646 42.7842 86.3153 41.9625L86.569 65.7561L85.5117 79.3731C85.5117 79.3731 83.4841 80.4104 82.056 79.2627C82.056 79.2627 81.6851 69.2445 81.593 67.5965C81.4591 65.2001 81.5688 55.8713 81.4248 54.4995C80.6396 47.0318 81.9477 41.4512 81.9477 41.4512Z" fill="#931840"/>
<path d="M91.9816 78.763C92.1916 80.648 92.1049 80.6358 92.2038 81.5387C92.2992 82.4085 92.6546 82.515 92.4831 82.8687C92.4051 83.0296 90.1926 83.5887 89.6129 83.638C88.9176 83.6972 88.3945 83.4872 88.3945 83.4872C88.3945 83.4872 89.8971 82.3214 90.0418 80.8662C90.1865 79.4111 90.1309 76.4824 90.1309 76.4824L91.9816 78.763Z" fill="#BD8368"/>
<path d="M92.6335 84.8241L92.5292 82.4082C92.5292 82.4082 91.0467 83.1331 90.1964 83.2876C89.1204 83.4833 88.9785 82.7436 88.9785 82.7436C88.9785 82.7436 87.751 83.7884 87.1231 84.413C86.5687 84.9643 88.0662 84.9573 89.1862 84.8241C90.3059 84.6909 91.292 84.2803 91.292 84.2803L91.5508 84.8241H92.6335Z" fill="#302D32"/>
<path d="M84.7754 41.9981L92.0484 41.8945C92.2856 43.2421 93.0465 45.0992 93.1458 48.2529C93.2015 50.02 92.7571 53.7214 92.4945 56.5726C92.0533 61.3646 92.3848 65.9897 92.3848 65.9897L92.4834 79.4671C92.4834 79.4671 91.0534 80.3184 89.5628 79.4298C89.5628 79.4298 87.5006 69.4781 87.4086 67.83C87.2747 65.4337 85.3652 56.8497 85.1052 51.6706L84.7754 41.9981Z" fill="#931840"/>
<path d="M84.4286 16.6547C84.293 17.2447 84.2834 18.7896 84.1695 19.9105C84.1126 20.4707 83.866 21.3208 84.2702 22.328C84.5265 22.9667 85.0055 23.7468 85.6622 23.8523C86.2206 23.942 86.7277 23.7311 87.3283 23.3637C88.2742 22.7852 88.7619 21.9074 89.0012 21.2598C89.2406 20.6124 89.269 19.3808 89.1112 18.1117C88.9533 16.8426 88.1869 16.2892 87.2741 16.0606C86.3615 15.8321 84.4286 16.6547 84.4286 16.6547Z" fill="#BD8368"/>
<path d="M87.1838 18.8242C85.9889 17.7285 85.7767 16.795 85.7939 15.7474C85.7939 15.7474 87.0353 15.1935 88.3183 16.084C90.9721 17.9258 89.9865 19.1223 89.7439 20.4196C89.2959 19.3934 88.3857 19.9264 87.1838 18.8242Z" fill="#1F1E2F"/>
<path d="M87.0767 15.7683C86.4913 15.7878 84.783 16.7734 84.3515 17.9354C83.8166 19.3755 83.9465 17.5683 83.9465 17.5683L84.017 16.7663C84.017 16.7663 85.3436 15.3506 86.2966 15.5038C87.2498 15.6572 87.0767 15.7683 87.0767 15.7683Z" fill="#1F1E2F"/>
<path d="M67.8092 27.8179C67.8282 27.8283 70.0052 29.8742 73.2176 31.2911C73.2176 31.2911 74.506 31.0115 75.0434 30.8013C76.7396 30.1382 81.7501 27.7451 81.7501 27.7451C81.7501 27.7451 81.6045 27.9779 82.1144 29.1568C82.6244 30.3358 81.6742 32.0317 81.6742 32.0317C81.6742 32.0317 76.908 33.6487 74.1043 34.2566C73.8358 34.3148 73.1612 34.5577 72.1773 33.9782C69.7492 32.5485 66.8532 28.3751 66.8527 28.3746C66.7644 28.2912 67.6753 27.7463 67.8092 27.8179Z" fill="#BD8368"/>
<path d="M78.709 33.0609C78.8979 33.3641 79.1913 33.3406 79.4222 33.6547C81.5188 33.0204 83.0118 32.6686 83.0118 32.6686C83.0118 32.6686 84.3319 30.0183 84.097 28.654C83.8722 27.3485 83.6568 26.3213 83.6568 26.3213C83.6568 26.3213 79.8248 28.5826 77.1846 29.8412C77.5505 30.9731 78.0823 32.0546 78.709 33.0609Z" fill="#ECB450"/>
<path d="M90.1022 47.032L89.2695 42.1084" stroke="#731332" stroke-miterlimit="10"/>
<path d="M82.5784 41.8291L81.9521 45.7777" stroke="#731332" stroke-miterlimit="10"/>
<path d="M78.301 29.124C77.7366 29.4261 77.1571 29.7232 76.5957 29.9908C76.9617 31.1227 77.4932 32.2042 78.1202 33.2105C78.309 33.5137 78.5207 33.8301 78.7518 34.1439C79.6359 33.8766 80.4759 33.5933 81.1545 33.3545C79.9765 32.1358 79.0186 30.6485 78.301 29.124Z" fill="#EC9550"/>
<path d="M82.2155 31.6342C81.9867 32.2686 82.1087 33.3714 82.8422 34.3676C82.8422 34.3676 82.8599 35.3389 82.7476 36.154C82.6691 36.7229 82.4713 39.408 82.2649 40.0434C81.2983 43.0195 81.5691 43.6527 81.5691 43.6527C81.5691 43.6527 83.1459 44.1683 86.0591 44.5113C89.7493 44.9458 93.5026 44.5113 93.5026 44.5113C93.5026 44.5113 94.1617 43.804 93.2374 42.0331C92.7855 41.1671 92.1473 37.8885 92.2706 36.8157C92.7364 32.7713 93.6783 32.9623 93.734 32.2512C93.8442 30.8419 94.0394 28.6686 93.388 27.7455C92.6636 26.7186 89.1928 25.3867 89.1928 25.3867C89.1928 25.3867 87.9389 25.9707 86.6785 25.9707C85.5705 25.9707 85.0476 25.5838 85.0476 25.5838L83.6559 26.3218C83.6564 26.3218 83.1203 29.1241 82.2155 31.6342Z" fill="#ECB450"/>
<path d="M83.0276 28.6797C82.8415 29.694 82.668 30.3791 82.2155 31.6339C81.9868 32.2684 82.1087 33.3712 82.8422 34.3674C82.8422 34.3674 82.8599 35.3387 82.7476 36.1538" stroke="#EC9550" stroke-miterlimit="10"/>
<path d="M88.3174 40.3301L88.6166 42.1634" stroke="#343B4F" stroke-miterlimit="10"/>
<path d="M85.3271 47.9033C85.3271 47.9033 85.4124 52.566 85.7074 55.178C86.1678 59.2534 87.0717 64.4509 87.0717 64.4509" stroke="#731332" stroke-miterlimit="10"/>
<path d="M51.0981 10.2435C50.9317 10.5018 51.0008 10.8455 51.254 11.0195L61.7087 18.2021C61.7575 18.2397 61.7695 18.3083 61.7361 18.3602L61.4886 18.7445C61.2656 19.0905 60.8067 19.1938 60.4569 18.9766L50.2289 12.6243C49.9654 12.4606 49.6194 12.5386 49.4515 12.7993C49.2835 13.0601 49.3556 13.4072 49.6135 13.5794L59.6266 20.2654C59.9688 20.494 60.0646 20.9546 59.8417 21.3006C59.6188 21.6466 59.1598 21.7499 58.8101 21.5327L48.5821 15.1804C48.3186 15.0167 47.9726 15.0947 47.8046 15.3554C47.6367 15.6162 47.7088 15.9633 47.9667 16.1358L57.9797 22.8218C58.322 23.0503 58.4178 23.5109 58.1949 23.8569L57.9473 24.2412C57.914 24.2931 57.8463 24.3105 57.7918 24.2816L46.9292 17.7326C46.6661 17.574 46.3245 17.6532 46.1582 17.9115L46.1472 17.9287C45.9821 18.185 46.0488 18.526 46.2982 18.7013L57.6687 26.6893C59.1918 27.7592 61.1104 28.1 62.909 27.6202C64.7437 27.1306 66.7015 27.4957 68.2366 28.6138L97.9428 49.4885C99.3026 50.4788 101.215 50.1218 102.126 48.7077C103.037 47.2937 102.571 45.4044 101.107 44.5759L69.9713 25.9209C68.3186 24.9856 67.1767 23.354 66.8636 21.481C66.5569 19.6451 65.4533 18.0391 63.8492 17.0946L51.8744 10.0445C51.6115 9.8897 51.2735 9.97003 51.1084 10.2265L51.0981 10.2435Z" fill="#DEDEDE"/>
<path d="M63.1782 17.3077C62.7359 19.7825 60.7631 20.8651 58.8557 22.2256C58.5722 22.4279 58.299 22.643 58.0289 22.8615C58.0122 22.8481 57.9977 22.8331 57.9796 22.8211L47.9665 16.1351C47.7086 15.9629 47.6365 15.6157 47.8045 15.3548C47.9724 15.094 48.3184 15.0163 48.582 15.1798L58.8099 21.532C59.1594 21.749 59.6187 21.6457 59.8416 21.2999C60.0645 20.9539 59.9687 20.4933 59.6264 20.2647L49.6134 13.5787C49.3555 13.4066 49.2834 13.0592 49.4513 12.7984C49.6192 12.5377 49.9652 12.4599 50.2288 12.6234L60.4568 18.9757C60.8063 19.1927 61.2655 19.0893 61.4884 18.7436L61.736 18.3593C61.7693 18.3074 61.7574 18.2386 61.7085 18.2012L51.2539 11.0186C51.0007 10.8446 50.9316 10.5009 51.0979 10.2426L51.1089 10.2254C51.2741 9.96913 51.6121 9.8888 51.8749 10.0434L63.2539 16.7428C63.2353 16.9323 63.2116 17.1209 63.1782 17.3077Z" fill="#CFCFCF"/>
<path d="M46.1472 17.9282L46.1582 17.911C46.3245 17.6526 46.6661 17.5735 46.9292 17.732L56.9215 23.7566C56.611 23.9987 56.2937 24.2322 55.9582 24.4422C55.6888 24.6109 55.4142 24.7657 55.1354 24.9092L46.2982 18.701C46.0488 18.5255 45.9821 18.1844 46.1472 17.9282Z" fill="#CFCFCF"/>
<path d="M97.8606 48.7261C98.9709 48.9495 100.097 49.0265 101.225 48.9107C101.508 48.8816 101.787 48.8419 102.064 48.7937C101.131 50.1331 99.2737 50.457 97.943 49.4878L96.5332 48.4971C96.9729 48.5619 97.4143 48.6364 97.8606 48.7261Z" fill="#CFCFCF"/>
<path d="M42.1911 10.0195C40.9873 8.58171 42.1852 6.98467 43.7168 5.91285C44.8957 5.08767 46.3485 4.81637 47.4739 4.78771C47.4739 4.78771 47.8657 3.92706 49.245 3.1148C51.2016 1.96265 54.4154 1.4036 55.4835 4.11357C56.5516 6.82353 55.6423 9.62299 51.9641 11.1019C48.2859 12.581 43.374 11.4319 42.1911 10.0195Z" fill="#F15606"/>
<path d="M47.7353 7.80645C46.5136 3.77497 43.7907 2.24981 42.8023 2.04451C42.8023 2.04451 42.5317 0.545188 43.739 0C43.739 0 45.2755 0.962123 46.6033 3.15156C47.9312 5.34101 48.3827 7.48535 48.3827 7.48535L47.7353 7.80645Z" fill="#302213"/>
<path d="M45.3904 9.12302C42.7396 8.05073 40.4579 9.29919 39.5996 11.5542C38.8759 13.4556 39.9557 16.8764 42.729 20.3779C45.5024 23.8793 49.5969 25.8599 52.0198 24.4691C54.4429 23.0783 53.5381 17.5092 53.5381 17.5092L45.3904 9.12302Z" fill="#F86B24"/>
<path d="M53.538 17.5093L45.3902 9.12313C44.92 8.93287 44.4617 8.81707 44.0206 8.76562C42.5823 12.4159 45.3555 16.3421 47.5562 19.0969C48.6447 20.4596 51.1952 22.9201 50.3831 24.912C50.9795 24.8894 51.5334 24.7482 52.0194 24.4692C54.4428 23.0782 53.538 17.5093 53.538 17.5093Z" fill="#CC581E"/>
<path d="M50.8066 6.20516C51.3676 2.81447 55.0432 1.54276 56.5437 2.2021C59.613 3.5511 61.3402 7.10433 62.416 11.0324C63.4916 14.9606 63.5202 17.7476 61.6552 18.7759C59.7901 19.8043 56.9477 19.346 54.8137 16.0462C52.6799 12.7467 50.8066 6.20516 50.8066 6.20516Z" fill="#F07036"/>
<path d="M62.0672 17.1091C58.9236 16.3983 58.3012 12.0194 57.1957 9.56644C56.64 8.33348 55.7516 7.21257 54.8492 6.21873C54.2448 5.55281 53.0417 4.13241 51.9243 3.81836C51.3805 4.44505 50.9666 5.23899 50.8066 6.20582C50.8066 6.20582 52.6797 12.7474 54.8137 16.0469C56.9477 19.3465 59.7901 19.8047 61.6552 18.7766C62.3183 18.4111 62.7378 17.8192 62.9603 17.0367C62.68 17.1479 62.3629 17.176 62.0672 17.1091Z" fill="#D46330"/>
<path d="M44.9352 7.2491C43.4553 9.26777 43.5444 12.8149 47.6846 17.8177C51.8248 22.8202 55.9949 23.4504 57.7479 21.3364C59.5011 19.2221 59.0182 15.1039 56.1516 9.57384C53.8221 5.08009 51.5909 4.10364 49.4277 4.55346C47.2644 5.00328 45.6572 6.26396 44.9352 7.2491Z" fill="#FF9953"/>
<path d="M85.3305 39.6578C85.385 39.6733 86.2296 39.3508 86.286 39.3653C87.7891 39.3846 90.4253 38.1263 92.478 37.2163C92.478 37.2163 91.4144 33.4117 90.7913 31.8048C91.9998 31.2488 92.7846 30.7464 93.8012 29.8857C94.0438 30.5291 94.2491 31.3555 94.4697 32.3761C95.0736 35.169 95.8906 38.3384 95.4685 39.005C94.9587 39.8098 93.8261 40.0735 92.0484 40.3298C88.8217 40.7951 86.5061 41.0949 86.0539 41.1489C86.0497 40.5396 85.2703 40.2678 85.3305 39.6578Z" fill="#BD8368"/>
<path d="M86.6882 39.3538C86.6882 39.3538 85.716 39.1244 85.4801 39.2228C85.2443 39.3214 84.4452 39.3484 84.2136 39.258C84.2136 39.258 83.9655 39.3491 84.0231 39.5721C84.0806 39.795 84.0806 39.795 84.0806 39.795C84.0806 39.795 83.8772 39.9895 83.9587 40.1649C84.04 40.3404 84.1722 40.398 84.1722 40.398C84.1722 40.398 84.0945 40.6937 84.2641 40.8384C84.4337 40.9831 84.5803 40.999 84.5803 40.999C84.5803 40.999 84.5725 41.2304 84.8114 41.3401C85.0503 41.4498 85.3148 41.937 85.9605 41.5278C86.6062 41.1186 87.4756 40.9629 87.4756 40.9629L86.6882 39.3538Z" fill="#BD8368"/>
<path d="M95.0086 32.9666C94.9332 32.4869 94.8446 32.0026 94.7427 31.5264C94.1442 28.7324 93.3883 27.7451 93.3883 27.7451L89.7939 30.4297C90.1324 31.2117 90.5799 32.4707 90.928 33.4885C92.1288 33.593 93.9015 33.3974 95.0086 32.9666Z" fill="#ECB450"/>
<path d="M90.9277 33.4888C90.9277 33.4888 93.8883 33.2179 95.0635 32.5273L95.3618 34.3494C95.3618 34.3494 92.9875 35.1542 91.2439 34.8939L90.9277 33.4888Z" fill="#EC9550"/>
<path d="M90.5635 29.7441C90.5635 29.7441 90.8169 32.3606 91.1331 33.7655" stroke="#EC9550" stroke-miterlimit="10"/>
<path d="M63.8512 24.6199C63.9141 24.4585 64.1246 24.4374 64.2345 24.5473C64.2921 24.6051 64.3832 24.7961 64.5006 25.023C64.421 24.6037 64.3567 24.1219 64.5234 24.024C64.6897 23.9265 64.9157 24.1527 65.0545 24.4458C65.1161 24.2776 65.2633 24.2135 65.3907 24.2471C65.6004 24.3025 65.8494 24.7956 65.8494 24.7956C65.8494 24.7956 65.9899 24.4308 66.4317 24.7458C66.7098 24.944 66.7373 25.4488 67.1347 26.0983C67.3626 26.4708 68.3491 27.25 68.479 27.9554C68.5241 28.2004 69.1226 29.0204 69.6164 29.5825C68.8086 29.5942 68.3024 29.2553 67.4974 29.1634C67.107 28.7787 65.8825 28.1057 65.2058 27.3688C65.1569 27.3158 65.1137 27.2575 65.0747 27.1967C64.8403 26.8845 64.3583 26.2219 64.195 25.8444C63.9766 25.3387 63.7882 24.7813 63.8512 24.6199Z" fill="#BD8368"/>
<path d="M89.2109 19.8264C89.2109 19.8264 89.4397 19.3045 89.727 19.6627C90.0142 20.0209 89.6405 20.6951 89.3208 20.9774C89.0014 21.2597 88.627 21.1533 88.627 21.1533L89.2109 19.8264Z" fill="#BD8368"/>
<path opacity="0.16" d="M47.3854 6.82757C46.0442 6.93069 45.2321 9.79757 46.346 12.6931C47.4596 15.5889 50.2875 19.7467 51.4167 18.8558C52.5458 17.9648 50.773 14.171 50.4296 12.0622C49.65 7.27293 48.3506 6.75311 47.3854 6.82757Z" fill="white"/>
<path opacity="0.16" d="M55.902 3.24787C54.4158 3.35146 56.2019 4.39532 57.5542 6.9768C58.9065 9.55851 60.7546 14.5166 60.8446 11.9925C60.935 9.46831 58.4867 3.0677 55.902 3.24787Z" fill="white"/>
<path d="M3.22949 84.8071C3.22949 83.8755 24.9806 83.1201 51.812 83.1201C78.6434 83.1201 100.395 83.8753 100.395 84.8071C100.395 85.7387 78.6434 86.4941 51.812 86.4941C24.9806 86.4941 3.22949 85.7387 3.22949 84.8071Z" fill="#DDE6CA"/>
<path d="M48.2156 39.0281C44.7361 43.644 45.1014 50.0785 47.3721 52.6238C48.3805 53.7578 49.1897 53.9082 49.6781 54.2765C50.3823 54.8073 51.3799 55.8799 52.1435 56.2987C53.5895 57.0931 55.6664 56.97 57.7697 56.3111C58.3454 56.1289 58.9239 55.9095 59.4895 55.6553C61.7262 54.6589 63.7989 53.1612 64.9461 51.6391C65.8845 50.3942 66.9662 48.3776 66.9223 46.1252C66.8525 42.7204 65.4709 41.4013 63.4292 39.8944C62.8828 39.4897 62.286 39.0718 61.6567 38.5976C61.0229 38.1198 60.4648 37.6599 59.9434 37.2455C58.9639 36.461 58.1107 35.8251 57.1239 35.4801C55.9871 35.0791 54.6693 35.0693 52.7671 35.6694C51.7747 35.9795 50.1572 36.9437 48.9269 38.2072C48.6692 38.4689 48.4296 38.7442 48.2156 39.0281Z" fill="#CC272F"/>
<path d="M66.7041 44.2236C66.5953 44.7124 66.4213 45.2078 66.1721 45.707C64.7646 48.5274 61.5402 50.2806 58.4401 50.3198C54.9925 50.3635 51.7863 48.4083 48.79 46.9493C47.7816 46.4582 46.7443 45.9851 45.6943 45.6516C45.4202 48.5292 46.0945 51.1922 47.3721 52.6241C48.3803 53.7582 49.1897 53.9085 49.6781 54.2768C50.3823 54.8077 51.3799 55.8802 52.1435 56.299C53.5895 57.0934 55.6665 56.9704 57.7697 56.3115C58.3454 56.1292 58.924 55.9098 59.4896 55.6557C61.7262 54.6592 63.7989 53.1616 64.9462 51.6395C65.8846 50.3945 66.9662 48.378 66.9223 46.1256C66.9077 45.4035 66.8307 44.7799 66.7041 44.2236Z" fill="#B8232A"/>
<path d="M60.6938 38.6861C60.4836 39.1232 61.1053 39.6064 61.441 39.7093C62.1537 39.9278 62.3442 39.0349 62.3721 38.9506C62.4534 38.7061 62.5744 37.8299 62.9657 37.2359C63.3941 36.5855 64.2196 35.7697 64.4227 34.9795C64.6041 34.275 63.5297 34.2109 63.4522 34.4904C63.1113 35.7201 62.9037 36.8847 61.978 37.6401C61.3597 38.1449 60.9026 38.2513 60.6938 38.6861Z" fill="#75501B"/>
<path d="M29.0688 33.942C28.6518 33.433 26.8965 27.9006 25.3351 25.903C25.3351 25.903 26.4046 25.196 26.2294 23.637C26.0645 22.1699 24.3627 22.6023 24.1764 22.9549C24.1764 22.9549 25.0302 20.7441 23.8008 19.711C22.8302 18.8954 22.1237 19.7094 22.0847 20.6541C22.0847 20.6541 20.8198 18.1635 19.0682 16.6971C17.3166 15.2306 15.7376 15.6236 16.7982 17.6815C17.8585 19.7392 19.9629 21.3919 19.9629 21.3919C19.9629 21.3919 18.2026 21.1208 18.3189 22.3009C18.4354 23.4813 21.6184 23.9626 21.6184 23.9626C21.6184 23.9626 19.5347 24.5942 20.5276 25.6691C21.5207 26.7439 24.3479 26.3787 24.3479 26.3787C24.3479 26.3787 27.6742 31.645 28.5165 35.4822L29.0688 33.942Z" fill="#8BB43C"/>
<path d="M28.2156 31.4082C28.1919 30.7507 25.8495 25.44 25.6996 22.909C25.6996 22.909 24.4298 23.0861 23.5302 21.8006C22.6836 20.5909 24.2459 19.7899 24.6189 19.9313C24.6189 19.9313 22.5164 18.8376 22.7552 17.2498C22.9439 15.9961 24.0122 16.1394 24.6661 16.8222C24.6661 16.8222 23.9678 14.1177 24.3119 11.8592C24.656 9.60068 26.1001 8.85137 26.6657 11.0963C27.2311 13.3409 26.7458 15.9724 26.7458 15.9724C26.7458 15.9724 27.887 14.6049 28.5801 15.567C29.2733 16.5293 27.2039 18.9955 27.2039 18.9955C27.2039 18.9955 29.1847 18.0911 29.1507 19.5541C29.1166 21.017 26.7543 22.6128 26.7543 22.6128C26.7543 22.6128 27.7423 28.7631 29.648 32.1981L28.2156 31.4082Z" fill="#8BB43C"/>
<path d="M27.589 30.764C27.4612 30.0126 24.2316 23.9474 23.6717 21.0613C23.6717 21.0613 21.8759 21.657 20.6232 20.2868C19.4445 18.9977 21.1597 17.8965 21.6196 18.0154C21.6196 18.0154 18.9818 17.0056 19.0219 15.1558C19.0534 13.6957 20.3312 13.7354 21.2036 14.4429C21.2036 14.4429 19.9723 11.4212 20.0343 8.78997C20.0961 6.15892 21.6805 5.1308 22.6858 7.6404C23.6911 10.15 23.5197 13.2255 23.5197 13.2255C23.5197 13.2255 24.6537 11.5234 25.6147 12.5469C26.5756 13.5703 24.5168 16.6406 24.5168 16.6406C24.5168 16.6406 26.7084 15.3724 26.8902 17.0549C27.072 18.7375 24.537 20.8435 24.537 20.8435C24.537 20.8435 26.6313 27.7846 29.393 31.5039L27.589 30.764Z" fill="#6B8C2A"/>
<path d="M21.627 9.7959C21.627 9.7959 23.2775 24.4413 30.4272 33.7841L28.1786 32.8939C28.1786 32.8939 23.03 25.2218 21.627 9.7959Z" fill="#8BB43C"/>
<mask id="mask0_381_10828" style="mask-type:luminance" maskUnits="userSpaceOnUse" x="22" y="26" width="26" height="53">
<path d="M33.1615 28.1175C35.4595 30.0814 36.8933 36.3745 37.9094 40.3796C39.9746 48.5194 45.594 67.6649 47.0376 76.1011C47.5946 79.356 45.0326 79.371 43.6357 77.1696C42.4027 75.2265 30.2489 51.3146 25.4796 41.7042C23.9819 38.6863 22.103 34.8909 22.8354 31.7405C23.6704 28.1471 29.0105 24.5699 33.1615 28.1175Z" fill="white"/>
</mask>
<g mask="url(#mask0_381_10828)">
<path d="M33.1608 28.1175C35.4588 30.0814 36.8925 36.3745 37.9087 40.3796C40.1613 49.2581 47.4468 68.9345 48.4627 76.2953C48.7375 78.2865 44.5942 79.566 44.2236 79.3564C42.2202 78.2242 30.2479 51.3146 25.4786 41.7042C23.9809 38.6863 22.102 34.8909 22.8344 31.7405C23.6697 28.1471 29.0098 24.5699 33.1608 28.1175Z" fill="#DF7D2E"/>
</g>
<mask id="mask1_381_10828" style="mask-type:luminance" maskUnits="userSpaceOnUse" x="22" y="26" width="26" height="53">
<path d="M33.1615 28.1175C35.4595 30.0814 36.8933 36.3745 37.9094 40.3796C39.9746 48.5194 45.594 67.6649 47.0376 76.1011C47.5946 79.356 45.0326 79.371 43.6357 77.1696C42.4027 75.2265 30.2489 51.3146 25.4796 41.7042C23.9819 38.6863 22.103 34.8909 22.8354 31.7405C23.6704 28.1471 29.0105 24.5699 33.1615 28.1175Z" fill="white"/>
</mask>
<g mask="url(#mask1_381_10828)">
<g opacity="0.18">
<path d="M32.1303 30.6601C36.8942 37.1154 37.4851 46.024 39.5412 53.5983C41.0485 59.151 42.5556 64.7036 44.0629 70.256C41.3996 64.9009 38.8466 59.4899 36.406 54.0273C33.7233 48.0232 30.9175 42.0515 28.6696 35.863C28.0544 34.1684 27.0329 31.3939 28.4735 29.8314C29.7417 28.4563 31.0068 29.1377 32.1303 30.6601Z" fill="#FFC291"/>
</g>
</g>
<mask id="mask2_381_10828" style="mask-type:luminance" maskUnits="userSpaceOnUse" x="22" y="26" width="26" height="53">
<path d="M33.1615 28.1175C35.4595 30.0814 36.8933 36.3745 37.9094 40.3796C39.9746 48.5194 45.594 67.6649 47.0376 76.1011C47.5946 79.356 45.0326 79.371 43.6357 77.1696C42.4027 75.2265 30.2489 51.3146 25.4796 41.7042C23.9819 38.6863 22.103 34.8909 22.8354 31.7405C23.6704 28.1471 29.0105 24.5699 33.1615 28.1175Z" fill="white"/>
</mask>
<g mask="url(#mask2_381_10828)">
<path d="M22.542 36.8922C22.542 36.8922 25.6294 35.0415 29.5604 34.0498" stroke="#B06324" stroke-width="1.4173" stroke-miterlimit="10" stroke-linecap="round" stroke-linejoin="round"/>
</g>
<mask id="mask3_381_10828" style="mask-type:luminance" maskUnits="userSpaceOnUse" x="22" y="26" width="26" height="53">
<path d="M33.1615 28.1175C35.4595 30.0814 36.8933 36.3745 37.9094 40.3796C39.9746 48.5194 45.594 67.6649 47.0376 76.1011C47.5946 79.356 45.0326 79.371 43.6357 77.1696C42.4027 75.2265 30.2489 51.3146 25.4796 41.7042C23.9819 38.6863 22.103 34.8909 22.8354 31.7405C23.6704 28.1471 29.0105 24.5699 33.1615 28.1175Z" fill="white"/>
</mask>
<g mask="url(#mask3_381_10828)">
<path d="M33.4521 36.9976C33.4521 36.9976 35.6219 35.8483 37.7681 35.7148" stroke="#B06324" stroke-width="1.4173" stroke-miterlimit="10" stroke-linecap="round" stroke-linejoin="round"/>
</g>
<mask id="mask4_381_10828" style="mask-type:luminance" maskUnits="userSpaceOnUse" x="22" y="26" width="26" height="53">
<path d="M33.1615 28.1175C35.4595 30.0814 36.8933 36.3745 37.9094 40.3796C39.9746 48.5194 45.594 67.6649 47.0376 76.1011C47.5946 79.356 45.0326 79.371 43.6357 77.1696C42.4027 75.2265 30.2489 51.3146 25.4796 41.7042C23.9819 38.6863 22.103 34.8909 22.8354 31.7405C23.6704 28.1471 29.0105 24.5699 33.1615 28.1175Z" fill="white"/>
</mask>
<g mask="url(#mask4_381_10828)">
<path d="M30.7832 46.4933C30.7832 46.4933 34.7949 44.0945 38.8175 43.5811" stroke="#B06324" stroke-width="1.4173" stroke-miterlimit="10" stroke-linecap="round" stroke-linejoin="round"/>
</g>
<mask id="mask5_381_10828" style="mask-type:luminance" maskUnits="userSpaceOnUse" x="22" y="26" width="26" height="53">
<path d="M33.1615 28.1175C35.4595 30.0814 36.8933 36.3745 37.9094 40.3796C39.9746 48.5194 45.594 67.6649 47.0376 76.1011C47.5946 79.356 45.0326 79.371 43.6357 77.1696C42.4027 75.2265 30.2489 51.3146 25.4796 41.7042C23.9819 38.6863 22.103 34.8909 22.8354 31.7405C23.6704 28.1471 29.0105 24.5699 33.1615 28.1175Z" fill="white"/>
</mask>
<g mask="url(#mask5_381_10828)">
<path d="M28.3418 41.4936C29.1745 41.021 30.1089 40.7072 31.037 40.5059" stroke="#B06324" stroke-width="1.4173" stroke-miterlimit="10" stroke-linecap="round" stroke-linejoin="round"/>
</g>
<path d="M74.1638 53.6292C70.4529 53.1758 68.7917 55.9635 67.3039 55.4689C66.6263 55.2415 65.8831 54.1356 65.0421 53.788C64.0436 53.3762 62.9492 53.7974 62.3141 54.6885C61.1429 56.3311 61.137 59.3636 58.7374 58.8534C57.7456 58.6437 56.9254 57.8028 56.006 57.5742C54.7038 57.2536 53.3964 57.7645 52.8061 59.5823C52.2658 61.2451 52.5352 62.3564 52.6978 63.4381C52.8126 64.2055 52.9348 64.9632 52.6729 65.6069C52.5918 65.8079 52.4713 66.0012 52.302 66.1765C50.8879 67.6446 47.9933 70.5265 47.3467 71.8935C47.3467 71.8935 47.1527 72.6245 47.6638 73.0553C47.8099 73.1777 48.0133 73.2757 48.2945 73.3257C49.5638 73.5491 50.1616 70.8316 51.2727 69.3393C53.8678 65.8596 55.2266 67.4637 56.6268 68.0265C57.8105 68.5024 59.3991 68.8493 61.0717 68.3805C63.528 67.6873 62.2356 65.1206 63.0174 64.1543C63.3194 63.7799 65.0438 64.1895 65.7665 64.2306C68.3511 64.376 69.8377 63.4444 69.3625 61.2759C68.8627 59.0089 70.6815 59.2889 73.3858 58.9112C77.2606 58.3688 77.8718 54.082 74.1638 53.6292Z" fill="#70923C"/>
<path d="M71.2673 56.4541C71.0825 56.4999 59.8797 59.6949 52.6739 65.6072C52.5928 65.8083 52.4723 66.0016 52.303 66.1768C50.8889 67.6449 47.9943 70.5268 47.3477 71.8939C47.3477 71.8939 47.1536 72.6249 47.6648 73.0557C50.6796 68.7327 55.7082 63.9481 61.1552 61.222C68.0328 57.7756 71.2208 56.4806 71.2673 56.4541Z" fill="#5E7535"/>
<path d="M74.8236 43.3899C74.5333 47.2175 71.3044 48.3356 71.5123 49.9324C71.6091 50.6603 72.6027 51.6288 72.7906 52.5449C73.0126 53.6324 72.352 54.6509 71.2985 55.1132C69.3567 55.9656 66.2136 55.3678 66.2504 57.8864C66.2648 58.9269 66.968 59.9205 67.0164 60.8918C67.082 62.2674 66.2847 63.4822 64.2804 63.7148C62.4468 63.9278 61.3506 63.4352 60.263 63.0561C59.4914 62.7876 58.7313 62.5138 58.0109 62.6493C57.7861 62.6909 57.561 62.7738 57.3447 62.9095C55.5339 64.0415 51.9551 66.3827 50.4062 66.762C50.4062 66.762 49.6089 66.8118 49.2674 66.2112C49.1706 66.0397 49.1107 65.8154 49.1166 65.522C49.145 64.1991 52.0833 64.1383 53.8572 63.3164C57.9942 61.3957 56.6104 59.7075 56.3142 58.1854C56.0636 56.8984 56.0295 55.2297 56.858 53.6383C58.0794 51.3025 60.4739 53.1152 61.6355 52.5202C62.0853 52.2905 62.0141 50.4722 62.1196 49.736C62.4982 47.104 63.7681 45.7924 65.9178 46.7028C68.1644 47.6577 68.2468 45.7701 69.192 43.1217C70.5471 39.3272 75.1139 39.5654 74.8236 43.3899Z" fill="#91B056"/>
<path d="M71.3034 45.7451C71.2179 45.9222 65.6129 56.5688 58.011 62.649C57.7862 62.6906 57.5612 62.7735 57.3449 62.9092C55.5341 64.0412 51.9552 66.3824 50.4063 66.7617C50.4063 66.7617 49.6091 66.8115 49.2676 66.2109C54.3643 64.0353 60.3517 59.9233 64.2923 54.9807C69.2716 48.7395 71.2663 45.7865 71.3034 45.7451Z" fill="#70923C"/>
<path d="M37.5819 61.2325C38.1839 63.3282 39.279 65.0822 40.6954 66.4267C43.7251 69.3025 48.239 70.3264 52.6463 68.921C54.3065 68.3918 55.7983 67.5636 57.0416 66.5065C60.2202 63.8201 61.8407 59.6735 60.8382 55.2765C60.2799 52.8336 59.0495 50.7447 57.3991 49.1458C56.7029 48.4766 55.9313 47.8943 55.1085 47.405C53.8067 46.6404 52.6862 45.5846 51.9137 44.2725C51.9085 44.2697 51.9062 44.2617 51.905 44.2577C50.4606 41.8174 48.5399 40.0789 46.5896 39.4614C45.6505 39.1577 44.7043 39.1166 43.7969 39.3773C42.5043 39.7487 41.4654 40.6859 40.7358 42.0039C39.889 43.5335 39.4582 45.5738 39.5167 47.8344C39.5597 49.3605 39.1625 50.8523 38.4646 52.2046C37.082 54.8789 36.6776 58.0851 37.5819 61.2325Z" fill="#F0C72F"/>
<path opacity="0.17" d="M46.0565 44.7043C45.769 46.0974 46.2564 51.8208 48.8381 53.579C51.4201 55.3372 55.8666 56.3414 53.715 51.0342C51.5636 45.7272 46.4305 42.8928 46.0565 44.7043Z" fill="white"/>
<path d="M39.5172 47.8335C39.4657 45.847 39.7927 44.0313 40.4474 42.582C40.721 48.0452 41.4182 48.8875 42.4165 51.239C44.6865 56.5852 47.4446 59.726 50.9316 60.2486C54.9485 60.8506 60.0901 59.6665 61.1203 57.4658C61.2455 61.0249 59.6858 64.2711 57.0416 66.5057C55.7983 67.5627 54.3065 68.3909 52.6463 68.9202C48.239 70.3255 43.7251 69.3016 40.6954 66.4258C39.279 65.0813 38.1842 63.3273 37.5819 61.2316C36.6776 58.0843 37.082 54.878 38.4646 52.2035C39.163 50.8515 39.5602 49.3596 39.5172 47.8335Z" fill="#DBAC2B"/>
<path d="M42.6969 40.0793C42.4404 38.6293 41.7548 35.0385 40.9458 33.1246C40.7581 32.6809 40.8629 32.1463 41.153 32.0953L42.9645 31.7773C43.267 31.7242 43.559 32.233 43.5061 32.7213C43.3351 34.3014 43.1061 37.3611 43.5186 39.9346C43.5855 40.3523 43.4373 40.7121 43.1878 40.7117C42.9725 40.711 42.7608 40.4394 42.6969 40.0793Z" fill="#75501B"/>
<path d="M17.2393 44.8474C17.4773 47.0331 17.9649 48.8488 18.8007 50.887C19.2169 51.902 20.6136 53.9993 19.6811 55.0751C19.0093 55.8501 15.8478 55.5781 14.8397 55.5813C12.4308 55.5893 11.402 54.0566 9.33964 53.2221C8.17551 52.7511 7.13893 53.2141 5.9614 52.962C3.49996 52.4354 4.28239 51.0211 2.93645 49.7435C1.87238 48.7337 -0.0652542 49.3057 0.0016904 47.0582C0.02471 46.2847 0.934687 46.1318 0.983545 45.386C1.0317 44.6527 0.111151 43.9755 0.0719235 43.2532C-0.0565632 40.8967 1.39249 41.3769 2.60454 40.407C2.97098 40.1138 3.3656 39.9095 3.64254 39.6511C4.50577 38.8454 2.82417 38.1851 4.75429 37.7863C5.46813 37.6388 6.32995 38.533 7.19201 38.3803C7.60965 38.3063 7.77478 37.4537 8.19266 37.3003C8.57953 37.1584 11.6717 36.8228 12.0348 37.0013C12.7928 37.3738 12.6004 37.8913 12.9936 38.7418C13.641 40.142 13.808 41.2312 15.1018 42.1924C16.9983 43.602 16.9662 42.3303 17.2393 44.8474Z" fill="#70923C"/>
<path d="M20.3852 39.1964C20.2158 41.2778 22.585 44.4535 21.7459 46.2843C20.9015 48.1273 18.9984 45.5007 17.7217 45.1749C15.3845 44.5785 14.8368 45.092 13.1343 42.6446C11.7641 40.675 10.8048 39.3458 10.6977 37.0189C10.6526 36.0382 10.4473 32.6967 10.9335 31.9128C11.6509 30.7564 12.2015 31.4355 13.1103 31.4146C12.7439 31.4231 15.9814 32.0296 15.4245 31.8221C18.3952 32.9294 20.6795 35.5997 20.3852 39.1964Z" fill="#70923C"/>
<path d="M32.4723 69.3222C34.5635 72.5949 29.1805 71.9356 27.7413 70.7414C24.8326 68.3274 23.5487 64.5971 20.1498 62.8849C18.3585 61.9827 14.6993 62.2709 13.0013 61.1615C11.6436 60.2745 10.8337 58.4701 9.26528 57.9808C7.16675 57.3259 7.65932 57.8901 5.63971 56.4662C4.40511 55.5957 1.68152 53.3093 1.52461 51.5175C1.34139 49.4241 3.0143 49.9237 4.14813 49.2191C4.81194 48.8063 4.52702 47.6814 5.46682 47.4524C6.46489 47.2093 6.83719 48.5414 7.61375 48.6715C8.23152 48.7751 8.21555 48.7739 8.66607 48.7998C9.40552 48.8421 9.8995 48.0622 10.9215 48.1982C12.8547 48.4557 13.4267 50.1678 14.7627 51.2058C16.1855 52.3112 17.9902 52.5325 19.4418 53.8812C21.2982 55.6063 21.39 56.7216 22.1492 58.9392C23.8291 63.847 29.7243 65.0236 32.4723 69.3222Z" fill="#8BB43C"/>
<path d="M25.408 39.6532C25.7153 40.9961 26.4465 41.476 27.1476 42.498C28.8635 44.9989 28.5145 46.3315 28.5495 49.1037C28.6146 54.2535 33.2016 57.5559 34.6722 62.2335C34.8982 62.9523 35.6957 66.1793 34.773 66.666C33.9264 67.1125 32.2989 64.7349 31.6536 64.2297C28.9624 62.1229 27.1437 59.5482 24.5655 57.2911C23.2329 56.1247 22.4279 55.2781 21.8874 53.6754C21.4355 52.3356 21.5701 51.4153 20.6181 50.3597C19.3692 48.975 18.0932 48.7253 17.1708 46.926C16.4046 45.4311 14.909 42.6044 15.037 40.8895C15.1326 39.6072 16.2279 37.943 16.4887 36.6203C16.8426 34.8252 16.7907 32.5897 19.0269 32.554C21.0167 32.5223 21.7756 34.7827 22.9064 36.0493C24.1762 37.4715 24.7978 37.5462 25.408 39.6532Z" fill="#8BB43C"/>
<path d="M24.7882 49.8402C25.2831 51.4462 26.3479 52.7338 26.8661 54.3177C27.2877 55.6071 27.1771 56.8849 27.4467 58.1862C28.0241 60.9718 29.5946 62.8812 31.253 65.1024C24.6236 68.0094 23.3584 59.343 18.4759 57.1287C15.7925 55.9117 13.1596 56.047 11.109 53.5724C9.70242 51.8748 7.84512 49.3974 7.32812 47.2007C6.90038 45.3833 7.21537 45.2119 8.05112 43.9747C8.39383 43.4673 8.81782 43.5068 9.09875 42.865C9.36911 42.2475 8.99328 41.3958 9.18143 40.7303C9.9439 38.034 12.6254 38.9005 14.8273 39.0478C17.9587 39.2573 18.3622 41.5243 20.4713 43.8654C22.4611 46.0737 23.8385 46.7448 24.7882 49.8402Z" fill="#8BB43C"/>
<path d="M27.4384 48.9139C27.9436 51.1324 27.4896 52.4936 28.65 54.606C30.1044 57.2542 31.9535 58.0667 34.01 60.0704C36.8468 62.8343 39.0555 67.4399 34.7187 69.6411C33.9226 68.4117 33.9088 66.5504 33.4439 65.1682C32.8313 63.3459 31.9044 61.787 30.8162 60.2362C28.6944 57.2131 27.4588 55.5165 26.4305 51.8686C24.7991 46.0825 19.3207 46.9556 16.7139 39.8578C17.7732 41.6101 18.9792 43.1183 20.5173 44.4025C21.1595 44.9388 24.1062 46.4768 24.0569 46.929C24.2509 45.1433 19.422 40.4941 18.6181 38.7197C19.9183 40.5648 21.9882 41.8408 23.5138 43.4707C24.435 44.4549 24.3061 45.09 24.8804 46.3777C25.4754 47.7117 26.095 48.9829 26.4197 48.9324C27.2315 48.806 25.5924 43.9553 25.5008 43.8113C26.2045 44.5221 27.0891 45.7978 27.4384 48.9139Z" fill="#D8EB96"/>
<path d="M34.5081 70.2265C30.9654 75.2217 27.6607 70.7644 25.1652 66.883C23.7476 64.6781 22.2112 63.19 19.8531 62.0837C17.7914 61.1164 11.9125 59.571 11.1331 57.0013C13.5175 59.774 21.8924 61.3308 21.9678 62.6434C21.2775 61.064 17.9857 59.4148 15.9501 58.4118C13.4811 57.1953 10.8503 54.4346 9.7334 51.7188C11.0206 53.4086 12.4098 55.249 14.1485 56.4286C16.873 58.2774 19.9167 58.5795 22.1419 61.2956C24.0556 63.6316 25.2723 66.2789 27.5517 68.2867C28.4908 69.114 29.8212 70.4355 31.042 70.6801C32.1505 70.9016 33.5342 69.6334 34.5081 70.2265Z" fill="#D8EB96"/>
<path d="M31.7936 63.5585C32.7865 64.6498 36.1363 68.3839 34.6574 70.1083C33.0996 71.9252 29.867 68.9514 28.7769 67.9101C24.9864 64.2902 22.6196 59.8531 19.2355 55.8322C16.017 52.0081 13.2633 48.3391 10.8799 43.8047C12.4027 46.2222 14.0195 48.6024 15.9334 50.6943C16.9119 51.764 24.3388 61.2537 25.471 60.6963C26.1717 60.3515 21.0151 53.704 20.2968 52.4535C18.6217 49.5375 16.74 46.7895 15.0215 43.8975C16.6576 45.9312 18.2757 48.0121 19.69 50.2243C20.6965 51.7988 21.564 53.4673 22.6008 55.0218C22.6727 55.1296 25.6674 58.7676 25.6965 58.1475C25.7254 57.5358 24.4905 56.4544 23.8007 54.9924C23.3248 53.9838 22.5783 51.636 22.1141 50.6187C21.2145 48.6465 20.7379 47.7962 19.2536 45.728C19.8488 46.4944 22.5604 49.1581 24.1596 53.0409C25.9903 57.4858 29.8769 61.4518 31.7936 63.5585Z" fill="#D8EB96"/>
<path d="M33.9346 49.1917C33.9346 49.1917 34.1089 47.9939 33.998 47.417C33.8871 46.8401 34.0201 46.4199 34.0201 46.4199L34.4401 46.5526C34.4401 46.5526 34.4845 47.3398 34.6242 48.0501C34.764 48.7606 34.7513 49.6718 34.7513 49.6718L33.9346 49.1917Z" fill="#6B4D45"/>
<path d="M31.9722 65.7039C35.4418 66.0839 38.5281 65.0704 40.4305 62.6554C41.4448 61.383 42.1257 59.7082 42.3576 57.6313C43.0056 51.654 38.2091 49.3537 32.8925 48.7744C27.871 48.2243 24.1862 49.4075 23.2525 54.5962C23.1994 54.8934 23.1524 55.2044 23.1184 55.5264C22.4633 61.5066 26.6556 65.1244 31.9722 65.7039Z" fill="#DB4B3F"/>
<path d="M30.9556 63.2069C30.779 63.0105 30.6197 62.8104 30.4729 62.6079C25.9289 60.6588 24.0521 54.8818 25.5284 50.2119C24.4056 51.1517 23.6178 52.5663 23.2525 54.5962C23.1994 54.8933 23.1524 55.2043 23.1184 55.5264C22.4633 61.5068 26.6556 65.1248 31.9722 65.7041C33.6035 65.8828 35.144 65.7414 36.5226 65.3031C34.4924 65.4544 32.5167 64.9435 30.9556 63.2069Z" fill="#C83F38"/>
<path d="M33.5817 48.6138C33.5817 48.6138 31.2741 47.2929 30.1229 47.3578C28.9714 47.4228 26.9734 48.2534 25.9883 47.669C25.9883 47.669 26.4421 49.6259 29.1647 50.0184C31.8872 50.4112 33.5817 48.6138 33.5817 48.6138Z" fill="#70923C"/>
<path d="M33.5821 48.6138C32.1988 48.1433 30.31 48.2566 29.2997 49.4242C28.2892 50.5919 27.7666 52.3453 27.7666 52.3453C27.7666 52.3453 29.8618 52.3611 31.6127 51.4873C33.3636 50.6135 34.4545 50.7326 35.0918 49.9501C35.729 49.1677 33.5821 48.6138 33.5821 48.6138Z" fill="#8BB43C"/>
<path d="M34.533 48.8887C34.533 48.8887 34.4317 50.6894 36.6214 51.5961C38.8111 52.5028 41.7409 51.8693 41.7409 51.8693C41.7409 51.8693 40.1356 49.9774 38.5748 49.4254C37.0141 48.8737 34.533 48.8887 34.533 48.8887Z" fill="#8BB43C"/>
<path d="M56.279 74.6758H25.1641V82.7239C25.1641 83.8362 26.0656 84.7377 27.1778 84.7377H54.2655C55.3777 84.7377 56.2792 83.8362 56.2792 82.7239V74.6758H56.279Z" fill="#CFCFCF"/>
<path d="M11.1338 59.4365C11.8253 72.1048 24.8065 82.205 40.7212 82.205C56.6359 82.205 69.6173 72.1048 70.3086 59.4365H11.1338Z" fill="#DEDEDE"/>
<path d="M66.1889 66.8585C62.5267 71.1404 57.5162 74.0613 52.3474 76.146C45.8117 78.7817 39.0825 79.4958 32.0873 79.0643C29.1331 78.882 26.2324 78.4832 23.4404 77.7296C28.3037 80.5458 34.2709 82.2048 40.7204 82.2048C56.3394 82.2048 69.1317 72.4763 70.2554 60.1396C69.2705 62.5435 67.9445 64.8058 66.1889 66.8585Z" fill="#CFCFCF"/>
</svg>
