<svg width="233" height="167" viewBox="0 0 233 167" fill="none" xmlns="http://www.w3.org/2000/svg">
<path d="M210.562 73.9143C210.562 104.711 185.597 129.679 154.799 129.679C124.001 129.679 99.0361 104.711 99.0361 73.9143C99.0361 43.117 124.002 18.1514 154.799 18.1514C185.597 18.1514 210.562 43.117 210.562 73.9143Z" stroke="white" stroke-width="1.5798" stroke-miterlimit="10" stroke-linecap="round" stroke-linejoin="round" stroke-dasharray="3.16 4.21"/>
<path d="M124.421 105.791C127.208 75.1193 104.604 47.9958 73.9333 45.2086C43.2625 42.4215 16.1395 65.0262 13.3523 95.6976C10.5651 126.369 33.1692 153.493 63.84 156.28C94.5108 159.067 121.634 136.462 124.421 105.791Z" stroke="white" stroke-width="1.5798" stroke-miterlimit="10" stroke-linecap="round" stroke-linejoin="round" stroke-dasharray="3.16 4.21"/>
<path d="M60.8681 57.2196C60.8681 69.3291 51.0532 79.1451 38.9431 79.1451C26.8342 79.1451 17.0176 69.3291 17.0176 57.2196C17.0176 45.1101 26.8342 35.2935 38.9431 35.2935C51.0538 35.2935 60.8681 45.1101 60.8681 57.2196Z" fill="white"/>
<path d="M49.3172 56.459C48.5321 53.3828 47.5349 52.1322 47.7457 48.0228C47.9728 43.6401 47.2484 40.6642 42.5245 39.6605C38.0084 38.7011 36.0723 40.5357 34.0306 44.9094C32.5036 48.1784 32.041 49.3684 30.2047 51.4204C28.1047 53.7679 26.3062 56.232 25.1222 61.8059C23.6877 68.5547 28.0536 72.7734 34.958 74.2416C41.8625 75.7085 47.9157 74.0289 49.3508 67.2812C50.2873 62.8673 50.4741 60.9901 49.3172 56.459Z" fill="#579C43"/>
<path d="M47.6578 56.4129C47.0289 53.696 46.2017 52.5979 46.421 48.9558C46.6541 45.0699 46.0762 42.4418 42.1134 41.5997C38.3248 40.7947 36.6788 42.4394 34.9182 46.3338C33.6015 49.2454 33.2014 50.3038 31.6348 52.1395C29.8453 54.2402 28.3099 56.4406 27.2575 61.3897C25.9852 67.3829 29.614 71.076 35.4054 72.3074C41.1973 73.5377 46.3039 71.9903 47.5785 65.9971C48.4099 62.0799 48.5853 60.4154 47.6578 56.4129Z" fill="#95C947"/>
<path d="M44.5143 62.9204C43.5442 67.4887 39.7874 70.5613 36.1231 69.7822C32.4589 69.0037 30.2765 64.669 31.2472 60.1013C32.2186 55.5324 35.976 52.4598 39.6402 53.2389C43.3039 54.0174 45.4868 58.3521 44.5143 62.9204Z" fill="#5F3814"/>
<path d="M33.8056 60.6089C34.7625 60.7056 35.7999 60.705 36.4529 59.879C36.8374 59.3925 37.1257 58.859 37.3528 58.2836C37.742 57.2954 38.0231 55.7114 39.0756 55.1725C39.3134 55.05 39.5567 54.9743 39.8 54.9335C39.6318 54.8776 39.4606 54.8283 39.2846 54.7917C36.3184 54.1616 33.2818 56.5355 32.3369 60.1433C32.7946 60.3932 33.2986 60.5578 33.8056 60.6089Z" fill="white"/>
<path d="M41.6868 54.1375C42.6689 55.4866 43.3579 57.0364 43.4889 58.6853C43.7292 61.6949 42.7242 64.6587 40.4391 66.6903C38.4364 68.4725 35.5963 68.5867 33.4674 66.9245C32.0113 65.7862 31.5908 64.1169 31.022 62.5142C31.1085 66.1082 33.1172 69.1435 36.1237 69.7821C39.788 70.5612 43.5448 67.4892 44.5149 62.9203C45.2862 59.2867 44.0626 55.8038 41.6868 54.1375Z" fill="#EFD0A6"/>
<path d="M49.3178 56.4591C48.5327 53.3829 47.5355 52.1322 47.7463 48.0228C47.9734 43.6401 47.249 40.6643 42.5251 39.6605C41.5489 39.4526 40.6947 39.3758 39.933 39.4274C40.0153 39.4755 40.0976 39.5223 40.1751 39.568C41.1825 40.1681 42.1731 41.0187 42.7695 42.0435C44.2827 44.6397 43.4531 47.4233 43.5451 50.2454C43.655 53.6628 47.3943 58.7898 45.9995 66.1435C45.6487 67.9955 44.6101 69.2708 43.1156 70.346C40.1066 72.5128 36.7307 72.2833 33.2941 70.7575C30.9718 69.7255 29.4899 68.3739 28.1071 66.3994C26.5537 64.1805 25.1222 61.8065 25.1222 61.8065C23.6877 68.5554 28.0536 72.7741 34.958 74.2422C41.8625 75.7091 47.9157 74.0295 49.3508 67.2819C50.2879 62.8673 50.4747 60.9901 49.3178 56.4591Z" fill="#CFD8A6"/>
<path d="M30.4475 53.1368C30.9257 53.5495 31.5492 53.5867 32.1547 53.4876C33.1813 53.3206 34.0745 52.8352 34.7792 52.0694C36.2551 50.4625 36.896 48.4796 37.4847 46.4252C37.9292 44.873 38.7942 42.7303 40.138 41.5175C37.6751 41.2934 36.1644 42.4347 34.9065 45.1289C33.8517 47.3857 33.8427 48.3618 32.5764 49.7783C31.7468 50.7052 30.9857 51.6597 30.334 53.0275C30.37 53.0653 30.4067 53.1026 30.4475 53.1368Z" fill="white"/>
<path d="M43.2092 108.968C47.0891 120.583 40.8208 133.143 29.205 137.025C17.5905 140.905 5.02928 134.636 1.14876 123.022C-2.73176 111.406 3.53774 98.8452 15.1523 94.9647C26.7674 91.0836 39.328 97.3531 43.2092 108.968Z" fill="white"/>
<path d="M23.2807 125.917C23.2807 125.917 21.6071 123.965 19.1641 123.252C15.7743 122.262 15.5659 117.38 17.3824 115.4C18.9028 113.745 17.5344 111.71 17.7368 109.846C17.9405 107.982 18.2324 105.479 20.8406 104.779C23.4489 104.08 22.7947 103.106 24.0856 101.387C25.8847 98.9947 30.1425 99.939 31.3361 101.984C32.5291 104.03 31.3385 105.629 33.7635 106.35C36.1891 107.071 35.4917 109.497 35.1884 111.005C34.8838 112.513 35.5223 114.52 36.3063 116.125C37.3136 118.187 36.4588 120.957 33.4007 123.042C30.6633 124.906 28.2635 124.952 27.5186 126.189L23.2807 125.917Z" fill="#579C43"/>
<path d="M20.1604 109.789C20.7034 110.587 21.8477 110.035 22.4755 109.621C22.7842 109.418 23.1014 109.191 23.3321 108.897C23.5856 108.577 23.7886 108.222 24.0583 107.908C24.6164 107.255 25.2573 106.683 25.9067 106.122C26.4473 105.655 26.8522 105.266 27.0047 104.546C27.1303 103.959 27.1345 103.343 27.0228 102.753C26.932 102.278 26.7596 101.758 26.4857 101.329C25.9283 101.499 25.4261 101.815 25.0537 102.309C24.0156 103.689 24.5413 104.473 22.4466 105.033C20.3514 105.595 20.1171 107.607 19.9537 109.105C19.9435 109.192 19.9405 109.278 19.9375 109.365C20.0006 109.513 20.0697 109.657 20.1604 109.789Z" fill="white"/>
<path d="M33.7638 106.35C31.3388 105.628 32.5293 104.031 31.3364 101.984C30.8155 101.091 29.7121 100.41 28.483 100.122C28.7419 100.52 28.945 100.953 29.0711 101.412C29.3438 102.398 29.4153 103.424 29.6081 104.426C29.7433 105.135 29.8472 105.912 30.2437 106.532C31.0612 107.813 32.6987 108.425 33.3637 109.829C33.8016 110.749 33.5325 111.687 33.4286 112.648C33.2976 113.865 33.8767 114.974 33.9836 116.175C34.1482 118.032 33.4694 119.878 31.9749 121.036C31.1297 121.692 30.15 122.071 29.1588 122.453C27.9442 122.922 26.7056 123.359 25.4303 123.642C24.3676 123.878 23.3579 124.028 22.2886 123.752C21.3834 123.517 20.5021 123.151 19.5717 123.052C19.5903 123.094 19.5813 123.148 19.523 123.164C19.4125 123.196 19.3025 123.227 19.1914 123.259C21.6194 123.979 23.2816 125.917 23.2816 125.917L27.5207 126.189C28.265 124.951 30.6648 124.906 33.4028 123.042C36.4609 120.957 37.3163 118.187 36.3083 116.124C35.5238 114.52 34.8859 112.512 35.1904 111.005C35.492 109.496 36.1888 107.07 33.7638 106.35Z" fill="#C6D291"/>
<path d="M26.2923 124.911C26.2923 124.911 26.4563 122.345 27.9796 120.307C30.0941 117.478 27.3261 113.451 24.6842 112.961C22.4754 112.552 22.3451 110.103 21.062 108.735C19.7795 107.368 18.0417 105.542 15.5367 106.551C13.0318 107.561 12.9688 106.389 10.9023 105.792C8.0292 104.961 5.19209 108.276 5.46781 110.627C5.74413 112.979 7.65676 113.541 6.15141 115.575C4.64666 117.609 6.6626 119.129 7.81234 120.152C8.96088 121.174 9.65829 123.162 9.99589 124.915C10.4296 127.169 12.7789 128.869 16.475 128.697C19.7831 128.541 21.8471 127.095 23.1843 127.637L26.2923 124.911Z" fill="#579C43"/>
<path d="M19.9748 110.401C20.0192 111.365 18.7752 111.612 18.0237 111.658C17.6561 111.68 17.2656 111.691 16.904 111.596C16.5087 111.492 16.1327 111.33 15.7308 111.241C14.8911 111.053 14.0363 110.982 13.1785 110.924C12.466 110.875 11.9074 110.809 11.3529 110.325C10.9006 109.931 10.5276 109.442 10.2627 108.903C10.0482 108.468 9.87341 107.949 9.83496 107.442C10.3822 107.243 10.9733 107.194 11.568 107.364C13.2277 107.845 13.2776 108.786 15.2893 107.976C17.3029 107.165 18.6989 108.632 19.7303 109.729C19.7898 109.792 19.8444 109.86 19.8979 109.929C19.9381 110.084 19.9688 110.239 19.9748 110.401Z" fill="white"/>
<path d="M21.4281 124.376C19.9239 124.619 18.5273 125.282 17.1193 125.839C16.4501 126.105 15.7707 126.363 15.0679 126.527C14.4606 126.669 13.81 126.788 13.2099 126.553C11.9202 126.048 11.3081 124.57 10.9207 123.343C10.6101 122.351 10.4791 121.295 10.1163 120.323C9.87424 119.675 9.50901 119.187 8.99962 118.726C8.67163 118.43 8.28899 118.129 8.06493 117.74C7.16868 116.168 8.6374 114.619 8.90831 113.11C9.08612 112.118 8.60676 111.189 8.5539 110.202C8.50464 109.24 8.6386 108.276 8.94976 107.365C9.15099 106.778 9.40449 106.215 9.69643 105.675C7.28943 105.879 5.22963 108.606 5.4669 110.627C5.74322 112.979 7.65585 113.541 6.1505 115.575C4.64574 117.609 6.66169 119.129 7.81143 120.152C8.95997 121.174 9.65738 123.162 9.99498 124.915C10.4287 127.169 12.778 128.869 16.4741 128.697C19.7822 128.541 21.8462 127.094 23.1833 127.637L25.3945 125.698C24.3469 124.581 22.9629 124.128 21.4281 124.376Z" fill="#C6D291"/>
<path d="M31.4905 113.912C30.1828 112.699 28.8637 111.056 28.6042 109.54C28.3428 108.024 28.12 105.508 25.5971 105.71C23.0747 105.912 23.6099 103.992 21.7586 102.514C19.9084 101.035 15.5978 101.689 14.7808 104.57C14.1964 106.638 15.1569 107.311 12.9763 108.903C10.7958 110.496 11.4253 112.937 11.9083 114.749C12.3901 116.56 14.3994 117.965 13.5789 120.058C12.5967 122.558 14.5508 127.037 18.0697 126.739C20.2821 126.551 22.6248 127.21 23.0633 127.587C25.5964 129.764 25.7172 134.646 25.7172 134.646L29.7323 133.305C29.7323 133.305 27.2298 129.213 27.762 125.733C27.9206 124.695 29.6187 123.811 31.2749 121.411C33.3761 118.365 33.1749 115.472 31.4905 113.912Z" fill="#95C947"/>
<path d="M31.4899 113.912C30.1822 112.699 28.863 111.056 28.6035 109.54C28.3422 108.024 28.1194 105.508 25.5964 105.71C23.0741 105.912 23.6093 103.992 21.758 102.514C20.246 101.305 17.0941 101.522 15.5455 103.212C15.6795 103.151 15.8188 103.098 15.9606 103.054C16.3589 102.931 16.7697 102.873 17.1698 103.011C17.5525 103.142 17.9015 103.413 18.2192 103.657C18.6415 103.982 19.0734 104.291 19.4627 104.653C19.8826 105.042 20.285 105.465 20.7548 105.791C21.5898 106.37 22.5899 106.613 23.521 106.984C24.2815 107.287 25.2588 107.718 25.6931 108.466C25.9472 108.903 25.895 109.337 25.9755 109.816C26.1028 110.574 26.7035 110.835 27.2207 111.292C28.0052 111.986 28.6113 112.852 29.0637 113.792C29.561 114.825 29.9125 115.924 30.1413 117.046C30.3384 118.012 30.4675 118.971 30.19 119.937C29.9107 120.915 29.3796 121.738 28.7543 122.529C28.3542 123.035 27.9313 123.557 27.6935 124.164C27.5012 124.656 27.3931 125.176 27.2946 125.694C27.1318 126.557 26.6513 129.795 25.0984 128.838C24.547 128.499 24.2244 127.891 23.7811 127.44C22.9996 126.645 21.9177 126.215 20.8593 125.938C18.8956 125.422 16.7433 124.765 14.7544 125.316C15.5701 126.247 16.7001 126.856 18.0679 126.739C20.2802 126.551 22.623 127.211 23.0615 127.588C25.5946 129.764 25.7154 134.647 25.7154 134.647L29.7304 133.305C29.7304 133.305 27.2279 129.213 27.7601 125.734C27.9187 124.696 29.6169 123.811 31.273 121.412C33.3755 118.365 33.1743 115.472 31.4899 113.912Z" fill="#C6D291"/>
<path d="M24.3955 124.936C23.6116 124.692 22.8985 124.406 22.1921 124.119C21.4869 123.83 20.7985 123.536 20.1125 123.244C19.4253 122.953 18.7423 122.664 18.0467 122.379C17.3511 122.089 16.6453 121.817 15.8926 121.482C16.6873 121.252 17.5145 121.251 18.3164 121.353C19.1183 121.463 19.9016 121.689 20.6405 122.003C21.3794 122.319 22.0768 122.723 22.7171 123.203C23.0367 123.445 23.3407 123.706 23.6248 123.992C23.9071 124.279 24.1762 124.583 24.3955 124.936Z" fill="#579C43"/>
<path d="M24.3955 124.936C24.3589 124.522 24.3937 124.116 24.4472 123.716C24.5048 123.317 24.5949 122.924 24.7055 122.538C24.9283 121.769 25.2485 121.027 25.6516 120.33C26.0546 119.634 26.5454 118.982 27.1227 118.412C27.703 117.848 28.3655 117.35 29.1398 117.055C28.7392 117.777 28.3373 118.418 27.9534 119.071C27.5672 119.719 27.1942 120.361 26.8169 121.007C26.4421 121.653 26.0661 122.304 25.6744 122.958C25.2791 123.613 24.8779 124.27 24.3955 124.936Z" fill="#579C43"/>
<path d="M23.1062 120.159C22.3691 119.948 21.7078 119.69 21.05 119.429C20.3988 119.165 19.7639 118.894 19.132 118.622L17.2361 117.806C16.5976 117.528 15.9512 117.265 15.2568 116.933C15.9951 116.699 16.7634 116.692 17.5095 116.781C18.2567 116.878 18.9836 117.088 19.666 117.384C20.3496 117.68 20.9935 118.059 21.581 118.515C21.8729 118.744 22.1523 118.991 22.4112 119.261C22.6683 119.535 22.9116 119.823 23.1062 120.159Z" fill="#579C43"/>
<path d="M23.1057 120.159C23.0576 119.774 23.0804 119.397 23.1207 119.025C23.1633 118.654 23.2384 118.287 23.3333 117.929C23.5304 117.212 23.8157 116.522 24.1845 115.874C24.554 115.227 25.0069 114.623 25.5457 114.096C26.0888 113.576 26.7081 113.12 27.4373 112.864C27.0823 113.546 26.7237 114.144 26.3807 114.751L25.3553 116.543C25.0147 117.14 24.6693 117.739 24.3077 118.341C23.9407 118.943 23.5676 119.547 23.1057 120.159Z" fill="#579C43"/>
<path d="M21.5729 115.569C20.8845 115.336 20.2772 115.063 19.6747 114.79C19.077 114.513 18.4955 114.234 17.9213 113.954C17.3452 113.676 16.7733 113.397 16.1888 113.121C15.6026 112.84 15.0067 112.577 14.3579 112.248C15.0499 112.011 15.7834 112.005 16.4886 112.104C17.1932 112.208 17.8774 112.431 18.5087 112.741C19.1443 113.049 19.7312 113.443 20.2574 113.908C20.5181 114.143 20.7656 114.394 20.9884 114.668C21.2101 114.943 21.4191 115.234 21.5729 115.569Z" fill="#579C43"/>
<path d="M21.5725 115.569C21.5251 115.193 21.5455 114.826 21.5834 114.463C21.6236 114.101 21.6957 113.744 21.7864 113.394C21.9708 112.697 22.2441 112.023 22.5973 111.39C22.9499 110.757 23.386 110.163 23.9069 109.646C24.4313 109.135 25.0362 108.684 25.7528 108.441C25.4122 109.111 25.0734 109.698 24.7496 110.291L23.7741 112.048C23.4473 112.632 23.1133 113.217 22.7607 113.803C22.4009 114.391 22.0339 114.978 21.5725 115.569Z" fill="#579C43"/>
<path d="M15.1854 120.068C15.2418 120.069 15.2983 120.071 15.3554 120.069C15.9465 120.051 16.57 119.769 17.0572 119.445C17.775 118.968 18.2634 118.276 18.2051 117.384C18.1444 116.429 17.7065 115.555 17.3773 114.671C17.1172 113.977 16.8301 113.173 17.0235 112.422C17.2314 111.614 17.7708 110.947 17.9588 110.126C18.1841 109.151 18.0603 108.129 17.7462 107.185C17.5389 106.562 17.2668 105.952 16.8523 105.464C16.6403 105.738 16.4745 106.051 16.3748 106.404C15.8906 108.115 16.6859 108.67 14.882 109.988C13.0781 111.304 13.6007 113.322 13.9984 114.82C14.3979 116.318 16.0588 117.481 15.38 119.21C15.2761 119.474 15.213 119.763 15.1854 120.068Z" fill="white"/>
<path d="M142.131 21.9261C142.131 34.0357 151.946 43.8517 164.056 43.8517C176.165 43.8517 185.981 34.0357 185.981 21.9261C185.981 9.81663 176.165 0 164.056 0C151.946 0 142.131 9.81663 142.131 21.9261Z" fill="white"/>
<path d="M154.462 13.8738C155.963 16.3318 156.905 20.8599 162.449 24.9393C168.154 29.1364 177.279 29.5947 177.59 32.7574C177.972 36.6271 165.942 36.8938 157.272 31.3746C153.095 28.7153 148.452 22.0667 149.994 14.5412C150.426 12.4375 151.857 12.4315 151.699 9.36973L153.295 9.29224C153.296 9.29224 152.214 10.1927 154.462 13.8738Z" fill="#FFCD41"/>
<path d="M166.087 28.126C165.825 28.1723 165.497 28.2354 165.3 28.4174C164.935 28.755 165.329 29.2055 165.652 29.4488C166.211 29.8687 166.869 30.1516 167.498 30.4526C168.271 30.8232 169.084 30.998 169.913 31.1638C170.645 31.3098 171.402 31.4251 172.142 31.38C172.755 31.3428 173.499 31.2671 173.832 30.7091C173.848 30.6814 173.857 30.6532 173.871 30.6256C172.102 29.8326 169.526 29.1472 167.008 28.1128C166.705 28.075 166.398 28.0702 166.087 28.126Z" fill="white"/>
<path d="M176.07 34.8328C176.07 34.8328 177.708 34.3396 177.592 32.7579C177.531 31.9206 176.815 31.3998 176.423 31.1174C176.423 31.1174 176.684 32.2107 176.651 32.9321C176.614 33.7401 176.07 34.8328 176.07 34.8328Z" fill="#5F3814"/>
<path d="M177.593 32.7573C177.974 36.627 165.944 36.8937 157.275 31.3745C153.097 28.7152 148.455 22.0666 149.997 14.5411C150.428 12.4374 151.859 12.4314 151.701 9.36963C151.701 9.36963 150.185 21.7416 158.713 27.891C168.664 35.0658 177.593 32.7573 177.593 32.7573Z" fill="#FFD594"/>
<path d="M154.811 11.519C156.9 13.5686 158.977 17.899 165.407 20.3739C172.022 22.9215 180.997 20.6178 182.113 23.7474C183.478 27.5769 171.868 31.5013 162.036 28.5074C157.298 27.0639 151.084 21.6955 150.646 13.5554C150.524 11.2793 151.912 10.8384 150.973 7.76523L152.502 7.20117C152.502 7.20117 151.683 8.44822 154.811 11.519Z" fill="#FFCD41"/>
<path d="M169.756 22.5184C169.515 22.6451 169.212 22.8097 169.068 23.0548C168.8 23.5101 169.298 23.8495 169.674 23.9991C170.324 24.2568 171.037 24.3463 171.724 24.4622C172.569 24.6046 173.403 24.5367 174.251 24.4532C174.998 24.3805 175.764 24.2676 176.469 23.9973C177.055 23.7732 177.758 23.4705 177.938 22.7995C177.947 22.7665 177.948 22.7358 177.954 22.704C176.033 22.4325 173.357 22.5148 170.647 22.2258C170.343 22.2793 170.043 22.3676 169.756 22.5184Z" fill="white"/>
<path d="M181.169 26.3246C181.169 26.3246 182.632 25.3245 182.114 23.7476C181.839 22.9121 181.009 22.5997 180.556 22.4309C180.556 22.4309 181.091 23.4659 181.245 24.2102C181.416 25.047 181.169 26.3246 181.169 26.3246Z" fill="#5F3814"/>
<path d="M182.113 23.7474C183.478 27.5768 171.869 31.5012 162.036 28.5073C157.298 27.0638 151.084 21.6954 150.647 13.5553C150.525 11.2792 151.913 10.8383 150.974 7.76514C150.974 7.76514 152.679 20.8394 162.538 24.5187C174.04 28.8113 182.113 23.7474 182.113 23.7474Z" fill="#FFD594"/>
<path d="M150.663 12.7925C150.663 12.7925 151.862 11.0949 154.535 11.2631C154.535 11.2631 153.388 10.1038 152.934 8.96963C152.713 8.41579 152.91 6.97651 152.4 6.68517C152.06 6.49115 150.932 7.227 150.932 7.227C151.358 9.8809 150.612 11.2541 150.663 12.7925Z" fill="#5F3814"/>
<path d="M170.7 106.011C166.819 117.625 173.088 130.187 184.704 134.067C196.318 137.948 208.879 131.678 212.76 120.064C216.641 108.448 210.37 95.8878 198.757 92.0067C187.141 88.1261 174.581 94.3957 170.7 106.011Z" fill="white"/>
<path d="M191.139 106.586C191.139 106.586 192.042 98.6625 181.132 95.5359C181.132 95.5359 182.177 105.986 191.139 106.586Z" fill="#579C43"/>
<path d="M181.156 95.5425C192.04 98.6745 191.139 106.586 191.139 106.586C191.114 106.585 191.088 106.582 191.061 106.58L181.156 95.5425Z" fill="#95C947"/>
<path d="M201.786 117.378C201.722 117.307 195.644 110.559 193.347 99.9133C193.32 98.626 193.503 97.269 193.726 95.9661C193.726 95.9661 192.559 95.2134 191.385 97.084C191.385 97.084 192.226 97.8715 192.046 99.9253C191.4 104.252 189.185 114.757 182.662 117.648C182.483 117.726 182.402 117.936 182.481 118.115C182.54 118.247 182.669 118.326 182.805 118.326C182.853 118.326 182.902 118.316 182.949 118.295C189.721 115.294 192.013 104.961 192.712 100.342C195.097 111.016 201.198 117.785 201.263 117.856C201.395 118 201.619 118.01 201.763 117.878C201.908 117.746 201.919 117.523 201.786 117.378Z" fill="#5F3814"/>
<path d="M189.962 122.066C188.72 125.449 184.973 127.184 181.591 125.943C178.208 124.702 176.473 120.954 177.714 117.571C178.549 115.297 179.672 114.216 181.875 114.039C184.521 113.826 184.521 115.359 185.629 115.766C186.978 116.262 188.602 115.518 189.623 116.955C190.69 118.456 190.605 120.311 189.962 122.066Z" fill="#EA3E48"/>
<path d="M179.186 119.354C179.546 119.301 179.862 119.156 180.104 118.878C180.33 118.619 180.486 118.311 180.629 118.001C180.866 117.487 181.074 116.952 181.381 116.474C181.613 116.113 181.913 115.785 182.319 115.621C182.675 115.478 183.057 115.456 183.436 115.487C183.095 115.125 182.692 114.737 181.562 114.827C180.097 114.944 179.351 115.663 178.796 117.176C178.535 117.888 178.472 118.625 178.58 119.326C178.782 119.364 178.987 119.383 179.186 119.354Z" fill="white"/>
<path d="M189.623 116.955C189.063 116.168 188.323 116.035 187.545 115.995C187.618 116.116 187.687 116.239 187.749 116.366C188.192 117.278 189.044 120.138 187.094 122.683C183.983 126.746 178.344 123.152 178.012 122.732C178.003 122.721 177.994 122.709 177.985 122.697C178.7 124.149 179.95 125.342 181.59 125.943C184.973 127.184 188.72 125.449 189.962 122.067C190.605 120.311 190.69 118.456 189.623 116.955Z" fill="#DCB9CA"/>
<path d="M207.992 119.402C208.555 123.133 205.987 126.615 202.256 127.179C198.524 127.744 195.043 125.176 194.479 121.444C194.1 118.935 194.585 117.376 196.52 116.104C198.843 114.576 199.616 115.984 200.838 115.799C202.326 115.574 203.443 114.073 205.106 114.878C206.841 115.72 207.699 117.467 207.992 119.402Z" fill="#EA3E48"/>
<path d="M196.727 122.34C197.031 122.111 197.249 121.818 197.331 121.441C197.406 121.09 197.396 120.727 197.37 120.371C197.329 119.78 197.251 119.183 197.292 118.59C197.324 118.143 197.433 117.689 197.724 117.335C197.979 117.024 198.318 116.811 198.682 116.648C198.187 116.488 197.621 116.335 196.629 116.987C195.343 117.833 195.02 118.868 195.272 120.537C195.391 121.323 195.705 122.031 196.158 122.62C196.361 122.553 196.56 122.466 196.727 122.34Z" fill="white"/>
<path d="M205.105 114.879C204.194 114.438 203.447 114.689 202.712 115.043C202.84 115.117 202.965 115.196 203.086 115.281C203.952 115.895 206.176 118.093 205.668 121.412C204.856 126.711 197.867 126.251 197.351 126.033C197.336 126.026 197.323 126.02 197.309 126.013C198.696 126.988 200.446 127.452 202.255 127.179C205.986 126.615 208.553 123.133 207.991 119.402C207.698 117.467 206.84 115.72 205.105 114.879Z" fill="#DCB9CA"/>
<path d="M189.532 52.4787C185.651 64.0933 191.92 76.6545 203.536 80.535C215.15 84.4155 227.711 78.146 231.592 66.5315C235.473 54.9164 229.203 42.3557 217.589 38.4752C205.973 34.5941 193.413 40.8636 189.532 52.4787Z" fill="white"/>
<path d="M219.505 41.2607C219.505 41.2607 221.38 47.8456 213.701 52.0511C213.701 52.0511 212.9 43.0472 219.505 41.2607Z" fill="#579C43"/>
<path d="M213.719 52.0421C221.377 47.836 219.506 41.2607 219.506 41.2607C219.487 41.2661 219.468 41.2716 219.449 41.277L213.719 52.0421Z" fill="#95C947"/>
<path d="M224.727 46.6871C224.727 46.6871 222.4 53.1266 213.712 52.0531C213.712 52.0531 218.323 44.2783 224.727 46.6871Z" fill="#579C43"/>
<path d="M213.731 52.0556C222.403 53.1171 224.727 46.6872 224.727 46.6872C224.708 46.6806 224.689 46.6746 224.671 46.668L213.731 52.0556Z" fill="#95C947"/>
<path d="M211.966 39.8948C211.966 39.8948 207.923 45.4206 213.667 52.0283C213.667 52.0283 217.541 43.8618 211.966 39.8948Z" fill="#579C43"/>
<path d="M213.654 52.0146C207.93 45.4135 211.965 39.8955 211.965 39.8955C211.982 39.9063 211.997 39.9195 212.013 39.9303L213.654 52.0146Z" fill="#95C947"/>
<path d="M215.414 61.0191C212.534 66.4296 202.963 77.0284 201.034 76.0024C199.106 74.9758 202.507 61.0179 205.387 55.6068C208.267 50.1963 212.432 48.0788 214.983 49.437C218.34 51.2241 218.294 55.6086 215.414 61.0191Z" fill="#F68746"/>
<path d="M214.983 49.4372C214.691 49.2823 214.378 49.1741 214.049 49.1099C215.319 50.3011 215.812 51.9854 215.741 53.7401C215.697 54.8544 214.594 61.778 205.602 71.4949C204.654 72.5197 202.78 72.7516 201.849 71.349C201.396 70.6654 201.28 69.8749 201.245 69.0699C201.235 68.8278 201.224 68.5864 201.212 68.3461C200.393 72.2536 200.138 75.5256 201.035 76.0026C202.963 77.0286 212.533 66.4298 215.414 61.0193C218.294 55.6088 218.34 51.2243 214.983 49.4372Z" fill="#FDC894"/>
<path d="M208.16 51.7136C208.327 51.7202 208.475 51.7635 208.633 51.7869L209.073 51.9203C209.366 52.0104 209.636 52.1443 209.905 52.2795C210.167 52.4279 210.429 52.5768 210.667 52.7697L211.023 53.0604C211.132 53.1775 211.25 53.276 211.349 53.4106L211.332 53.4442L209.728 52.6123L208.143 51.7473L208.16 51.7136Z" fill="#F26322"/>
<path d="M208.79 55.1438C208.961 55.1522 209.112 55.1973 209.273 55.2231L209.724 55.3619C210.025 55.4556 210.301 55.5931 210.577 55.7319C210.846 55.8839 211.115 56.0364 211.36 56.2335L211.727 56.5302C211.839 56.6492 211.96 56.7495 212.063 56.8858L212.045 56.9195L210.401 56.0653L208.773 55.178L208.79 55.1438Z" fill="#F26322"/>
<path d="M214.205 55.4644C214.361 55.465 214.496 55.5022 214.643 55.5202L215.05 55.6355C215.321 55.7136 215.568 55.8356 215.815 55.9593C216.054 56.0957 216.294 56.2326 216.509 56.4141L216.833 56.6874C216.929 56.7991 217.036 56.891 217.124 57.0196L217.107 57.0532L215.638 56.2921L214.187 55.4986L214.205 55.4644Z" fill="#F26322"/>
<path d="M212.008 58.4585C212.196 58.4771 212.366 58.5318 212.546 58.5672L213.052 58.7354C213.389 58.849 213.703 59.0063 214.016 59.1649C214.322 59.3367 214.628 59.5091 214.91 59.7254L215.332 60.051C215.462 60.1801 215.602 60.29 215.723 60.436L215.706 60.4696L213.839 59.4971L211.99 58.4915L212.008 58.4585Z" fill="#F26322"/>
<path d="M205.459 55.4709C205.625 55.477 205.771 55.519 205.927 55.5418L206.363 55.6728C206.653 55.7611 206.92 55.8938 207.186 56.0272C207.445 56.1744 207.704 56.3215 207.938 56.5132L208.29 56.8015C208.397 56.918 208.514 57.0153 208.611 57.1493L208.594 57.1829L207.009 56.3606L205.442 55.5052L205.459 55.4709Z" fill="#F26322"/>
<path d="M208.783 60.3723C208.975 60.3927 209.148 60.4492 209.332 60.4864L209.849 60.6606C210.192 60.7778 210.513 60.9388 210.833 61.101C211.146 61.277 211.459 61.4524 211.748 61.6728L212.181 62.0044C212.314 62.1354 212.458 62.2471 212.582 62.3949L212.565 62.4285L210.656 61.4337L208.765 60.4065L208.783 60.3723Z" fill="#F26322"/>
<path d="M203.52 60.0598C203.702 60.0742 203.864 60.1247 204.036 60.1565L204.521 60.3127C204.843 60.4184 205.141 60.5674 205.439 60.7182C205.73 60.8822 206.021 61.0462 206.288 61.2552L206.688 61.5688C206.811 61.6937 206.943 61.8 207.056 61.9418L207.039 61.9754L205.262 61.051L203.502 60.0935L203.52 60.0598Z" fill="#F26322"/>
<path d="M206.6 63.5342C206.767 63.5408 206.915 63.584 207.073 63.6081L207.513 63.7414C207.806 63.8315 208.077 63.9655 208.345 64.1006C208.607 64.249 208.869 64.398 209.107 64.5914L209.464 64.8822C209.572 64.9993 209.69 65.0978 209.79 65.2324L209.772 65.266L208.168 64.4334L206.582 63.5678L206.6 63.5342Z" fill="#F26322"/>
<path d="M206.566 65.9182C206.761 65.9398 206.937 65.9981 207.123 66.0365L207.648 66.2144C207.997 66.3345 208.323 66.4985 208.648 66.6631C208.965 66.8415 209.284 67.0199 209.578 67.2428L210.018 67.5785C210.155 67.7107 210.301 67.8242 210.428 67.9732L210.41 68.0068L208.47 66.9959L206.549 65.9519L206.566 65.9182Z" fill="#F26322"/>
<path d="M205.362 67.4285C205.184 67.4158 205.024 67.3666 204.856 67.3365L204.38 67.1852C204.065 67.0831 203.772 66.9365 203.48 66.7893C203.195 66.6283 202.91 66.4673 202.649 66.2625L202.259 65.9531C202.139 65.8294 202.009 65.7255 201.899 65.5849L201.916 65.5513L203.657 66.4565L205.379 67.3948L205.362 67.4285Z" fill="#F26322"/>
<path d="M203.301 68.6648C203.462 68.6678 203.601 68.7074 203.753 68.7273L204.173 68.8498C204.452 68.9327 204.708 69.0589 204.963 69.1868C205.211 69.328 205.459 69.4691 205.684 69.6554L206.019 69.9353C206.121 70.0488 206.232 70.1431 206.324 70.2741L206.306 70.3077L204.786 69.5202L203.284 68.699L203.301 68.6648Z" fill="#F26322"/>
<path d="M203.863 71.4269C203.708 71.4269 203.573 71.3902 203.427 71.3734L203.024 71.2599C202.756 71.183 202.511 71.0623 202.267 70.9403C202.03 70.8046 201.793 70.6694 201.58 70.4892L201.26 70.2177C201.165 70.1071 201.058 70.0158 200.972 69.8879L200.989 69.8542L202.443 70.6069L203.88 71.3926L203.863 71.4269Z" fill="#F26322"/>
<path d="M201.98 73.3701C202.101 73.352 202.202 73.3713 202.314 73.3701L202.616 73.4295C202.817 73.4704 202.994 73.5557 203.171 73.6416C203.341 73.7407 203.51 73.8404 203.656 73.9846L203.875 74.202C203.937 74.2945 204.009 74.3684 204.062 74.4783L204.044 74.512L202.994 73.9744L201.962 73.4037L201.98 73.3701Z" fill="#F26322"/>
<path d="M205.962 60.4101C207.449 59.5643 207.899 57.8523 208.645 56.4257C209.32 55.136 209.885 53.4408 211.151 52.5902C211.923 52.0712 212.998 51.6639 213.913 51.9757C213.643 51.6195 213.291 51.3191 212.853 51.0855C211.125 50.1658 208.305 51.5991 206.355 55.2633C205.686 56.523 204.973 58.4663 204.38 60.5026C204.926 60.6354 205.504 60.6702 205.962 60.4101Z" fill="white"/>
<path d="M119.357 19.0302C119.357 24.0953 114.689 28.2107 108.922 28.2107C103.154 28.2107 98.4805 24.0953 98.4805 19.0302C98.4805 13.9603 103.154 9.85571 108.922 9.85571C114.689 9.85571 119.357 13.9603 119.357 19.0302Z" fill="#5F3814"/>
<path d="M99.7422 23.7745C99.7422 23.7745 107.789 14.8012 118.094 23.7745C118.094 23.7745 110.292 28.2107 99.7422 23.7745Z" fill="#F495BF"/>
<path d="M116.455 62.6602H101.381V76.4907H116.455V62.6602Z" fill="#F68F78"/>
<path d="M123.923 51.888C121.452 65.9029 115.348 68.1321 108.427 68.1321C102.205 68.1321 96.479 61.5118 94.9094 53.6835C94.2023 50.158 91.7749 37.5673 91.7749 37.5673C91.7749 28.0955 99.45 21.9263 108.917 21.9263C118.388 21.9263 126.062 28.0961 126.062 37.5673C126.062 37.5673 124.863 46.5538 123.923 51.888Z" fill="#F69583"/>
<path d="M119.805 54.8012C119.805 55.8182 118.305 56.643 116.454 56.643C114.606 56.643 113.107 55.8176 113.107 54.8012C113.107 53.7788 114.606 52.9517 116.454 52.9517C118.305 52.9517 119.805 53.7788 119.805 54.8012Z" fill="#F47F7A"/>
<path d="M104.556 54.8012C104.556 55.8182 103.056 56.643 101.205 56.643C99.3562 56.643 97.8574 55.8176 97.8574 54.8012C97.8574 53.7788 99.3562 52.9517 101.205 52.9517C103.056 52.9517 104.556 53.7788 104.556 54.8012Z" fill="#F47F7A"/>
<path d="M112.854 49.7264C112.853 49.7053 112.853 49.6849 112.853 49.6651C112.853 47.8786 114.235 46.4321 115.94 46.4321C117.645 46.4321 119.027 47.8792 119.027 49.6801" stroke="#5F3814" stroke-width="1.2137" stroke-miterlimit="10" stroke-linecap="round" stroke-linejoin="round"/>
<path d="M99.1705 49.7264C99.1699 49.7053 99.1699 49.6849 99.1699 49.6651C99.1699 47.8786 100.552 46.4321 102.257 46.4321C103.962 46.4321 105.344 47.8792 105.344 49.6801" stroke="#5F3814" stroke-width="1.2137" stroke-miterlimit="10" stroke-linecap="round" stroke-linejoin="round"/>
<path d="M98.0876 45.733C97.929 45.9895 97.7193 45.1744 98.0371 44.6037C98.9261 43.0029 102.86 42.0141 104.34 43.0581C105.331 43.7573 100.26 42.2285 98.0876 45.733Z" fill="#5F3814"/>
<path d="M119.537 45.733C119.696 45.9895 119.905 45.1744 119.588 44.6037C118.698 43.0029 114.764 42.0141 113.285 43.0581C112.294 43.7573 117.364 42.2285 119.537 45.733Z" fill="#5F3814"/>
<path d="M110.358 45.5378C111.109 46.4064 111.524 51.7563 111.182 55.0271C110.957 57.1806 105.175 57.5674 106.545 54.5717C108.262 50.8204 107.472 46.8834 107.967 45.7643C108.304 45.0062 109.553 44.6067 110.358 45.5378Z" fill="#F47F7A"/>
<path d="M115.53 58.3105C108.762 61.9562 103.316 58.3105 103.316 58.3105C103.316 58.3105 103.495 64.7525 109.47 64.7525C115.445 64.7531 115.53 58.3105 115.53 58.3105Z" fill="#EA3E48"/>
<path d="M109.196 62.6217C106.957 62.6764 106.518 63.6585 106.415 64.0033C107.234 64.5698 108.208 64.753 109.471 64.753C111.101 64.753 112.48 64.3139 113.148 63.5684C112.917 63.0999 112.11 62.5508 109.196 62.6217Z" fill="#F495BF"/>
<path d="M104.566 58.9526C104.566 58.9526 104.583 60.2556 105.305 60.4748C106.196 60.7451 109.259 61.6077 113.049 60.6028C113.049 60.6028 113.874 60.4177 114.179 58.9526C114.179 58.9526 109.68 60.6172 104.566 58.9526Z" fill="white"/>
<path d="M126.752 45.6146C126.752 45.6146 125.179 46.2994 123.196 46.2994C123.196 46.2994 118.244 39.3583 119.657 32.1517C119.657 32.1517 111.973 37.9407 104.685 38.184C97.3993 38.4344 94.6985 41.1028 92.7811 46.2087C92.7811 46.2087 89.4766 40.2906 92.1017 32.7722C95.5888 22.7838 104.122 21.6365 109.238 21.6365C117.596 21.6365 128.465 26.9316 126.752 45.6146Z" fill="#5F3814"/>
<path d="M95.9405 47.662C96.2469 49.6335 95.314 51.4164 93.8561 51.6452C92.391 51.8705 90.9589 50.463 90.6484 48.4928C90.3402 46.5255 91.2689 44.7444 92.7298 44.5137C94.1907 44.283 95.6288 45.6941 95.9405 47.662Z" fill="#F69583"/>
<path d="M127.248 48.5269C126.909 50.4924 125.454 51.8836 123.999 51.6349C122.538 51.3808 121.633 49.5865 121.969 47.6216C122.305 45.6597 123.755 44.2691 125.212 44.5178C126.67 44.7659 127.582 46.5626 127.248 48.5269Z" fill="#F69583"/>
<path d="M125.436 51.5376C125.436 52.3383 124.787 52.9877 123.986 52.9877C123.186 52.9877 122.536 52.3383 122.536 51.5376C122.536 50.7363 123.186 50.0869 123.986 50.0869C124.787 50.0869 125.436 50.7363 125.436 51.5376Z" fill="#EA507E"/>
<path d="M95.9981 51.5376C95.9981 52.3383 95.3487 52.9877 94.548 52.9877C93.7466 52.9877 93.0967 52.3383 93.0967 51.5376C93.0967 50.7363 93.7466 50.0869 94.548 50.0869C95.3487 50.0869 95.9981 50.7363 95.9981 51.5376Z" fill="#EA507E"/>
<path d="M77.2213 158.846H138.845L138.227 104.465L142.131 82.7259C142.131 80.1922 135.223 77.122 132.266 76.1693C127.4 74.6039 116.455 72.5296 116.455 72.5296C116.455 72.5296 115.508 75.5139 109.161 75.5139C103.382 75.5139 101.381 72.3909 101.381 72.3909C101.381 72.3909 89.5753 75.3073 85.2984 76.9592C82.1477 78.1762 74.0479 81.125 74.0479 83.0773L77.5235 104.48L77.2213 158.846Z" fill="#EA507E"/>
<path d="M156.302 128.324H139.179C140.399 136.683 142.358 149.443 143.312 154.896C143.757 157.437 144.93 162.451 151.61 162.02C156.796 161.686 158.276 156.701 158.159 154.48C157.835 148.345 156.922 136.507 156.302 128.324Z" fill="#F69583"/>
<path d="M72.5599 158.846C72.5599 158.846 75.0612 131.35 75.7334 127.534H59.3955C58.4542 136.542 57.6992 149.963 56.3428 158.846H72.5599Z" fill="#F69583"/>
<path d="M158.164 130.12C156.769 116.779 154.963 104.655 152.663 97.8227C147.674 83.0059 140.643 80.4451 140.643 80.4451C140.643 80.4451 137.138 84.7082 137.043 106.548C137.007 114.532 138.397 123.998 139.475 130.119H158.164V130.12Z" fill="#EA507E"/>
<path d="M76.5798 130.12C77.6184 124.007 78.8306 115.249 78.7982 107.787C78.7027 85.9475 75.197 81.6843 75.197 81.6843C75.197 81.6843 68.1658 84.2451 63.1776 99.0614C60.9484 105.682 59.1836 117.27 57.8062 130.12H76.5798Z" fill="#EA507E"/>
<path d="M112.135 73.3856C111.312 71.7493 108.51 66.504 108.368 66.5652C108.239 66.6199 111.085 73.8763 111.085 73.8763L110.86 73.9809C110.86 73.9809 107.397 67.5047 107.313 67.5444C107.222 67.5858 109.878 74.4398 109.878 74.4398L109.585 74.5774C109.585 74.5774 106.133 68.0964 106.038 68.1403C105.937 68.1871 108.603 75.0357 108.603 75.0357L108.403 75.13C108.403 75.13 104.717 68.2508 104.633 68.294C104.535 68.3457 106.637 73.9532 107.366 75.649C107.752 76.5453 108.502 78.1725 110.61 78.4038L119.874 98.2395C119.874 98.2395 120.245 98.9664 121 98.6138C121.696 98.2888 121.388 97.5325 121.388 97.5325L112.126 77.6992C113.284 76.0503 112.592 74.2926 112.135 73.3856Z" fill="#DCDDDE"/>
<path d="M111.948 73.003C111.125 71.3667 108.51 66.504 108.369 66.5653C108.24 66.6199 111.086 73.8764 111.086 73.8764L110.86 73.9809C110.86 73.9809 107.397 67.5048 107.313 67.5444C107.223 67.5859 109.878 74.4398 109.878 74.4398L109.586 74.5774C109.586 74.5774 120.993 98.6162 121 98.6132C121.695 98.2882 121.388 97.5319 121.388 97.5319L112.126 77.6986C113.416 75.9398 112.404 73.9106 111.948 73.003Z" fill="#E6E7E8"/>
<path d="M157.295 153.512C157.746 155.718 157.981 161.074 151.217 161.886C149.463 162.096 145.656 163.382 140.897 153.687C135.256 142.191 120.868 106.433 120.868 106.433L129.104 102.698C129.104 102.698 154.424 139.46 157.295 153.512Z" fill="#F68F7E"/>
<path d="M122.32 110.023C117.184 107.146 116.009 105.243 116.009 105.243C112.055 103.307 114.539 100.266 114.539 100.266C111.81 98.3603 113.877 95.9983 113.877 95.9983C111.747 92.5882 115.148 90.9284 115.148 90.9284C111.419 85.9378 115.055 84.1964 116.525 84.9773C123.025 88.4319 127.305 92.6723 127.884 96.1353C128.758 101.37 129.508 103.287 129.508 103.287L122.32 110.023Z" fill="#F68F7E"/>
<path d="M108.901 72.1616C105.845 70.6274 103.643 71.1914 103.285 69.1911C102.942 67.2695 105.635 66.226 107.418 64.433C108.736 63.1102 111.32 64.0425 111.832 65.6326C112.129 66.5552 111.849 67.2052 111.926 67.6353C111.997 68.033 112.538 68.7748 112.553 69.5659C112.586 71.2743 110.16 72.7935 108.901 72.1616Z" fill="#EA3E48"/>
<path d="M108.187 66.1492C108.153 65.9828 108.94 65.4704 109.044 65.9858C109.145 66.4778 108.232 66.3732 108.187 66.1492Z" fill="#FFCD41"/>
<path d="M109.324 66.8567C109.29 66.6915 110.077 66.178 110.182 66.694C110.283 67.1853 109.37 67.0808 109.324 66.8567Z" fill="#FFCD41"/>
<path d="M109.075 64.9952C109.042 64.8294 109.829 64.3164 109.934 64.8312C110.034 65.3244 109.121 65.2186 109.075 64.9952Z" fill="#FFCD41"/>
<path d="M108.518 68.0028C108.484 67.837 109.271 67.3246 109.376 67.8394C109.476 68.332 108.563 68.2268 108.518 68.0028Z" fill="#FFCD41"/>
<path d="M109.466 69.0286C109.433 68.8628 110.22 68.3498 110.324 68.8646C110.425 69.3572 109.512 69.2521 109.466 69.0286Z" fill="#FFCD41"/>
<path d="M108.932 70.3245C108.898 70.1587 109.686 69.6457 109.79 70.1605C109.89 70.6531 108.978 70.5486 108.932 70.3245Z" fill="#FFCD41"/>
<path d="M110.048 70.9151C110.015 70.7493 110.802 70.2363 110.907 70.7511C111.007 71.2443 110.095 71.1386 110.048 70.9151Z" fill="#FFCD41"/>
<path d="M107.054 66.7926C107.021 66.6268 107.808 66.1138 107.913 66.6286C108.014 67.1217 107.1 67.016 107.054 66.7926Z" fill="#FFCD41"/>
<path d="M107.253 65.4161C107.219 65.2503 108.006 64.7373 108.111 65.2527C108.211 65.7447 107.298 65.6396 107.253 65.4161Z" fill="#FFCD41"/>
<path d="M107.229 67.7673C107.195 67.6022 107.983 67.0898 108.087 67.6046C108.188 68.0965 107.275 67.992 107.229 67.7673Z" fill="#FFCD41"/>
<path d="M107.15 68.8804C107.116 68.7147 107.904 68.2016 108.009 68.7164C108.108 69.209 107.197 69.1039 107.15 68.8804Z" fill="#FFCD41"/>
<path d="M108.172 69.632C108.138 69.4669 108.925 68.9527 109.03 69.4681C109.13 69.9606 108.218 69.8561 108.172 69.632Z" fill="#FFCD41"/>
<path d="M107.885 71.0166C107.851 70.8514 108.639 70.339 108.744 70.8532C108.844 71.3457 107.931 71.2412 107.885 71.0166Z" fill="#FFCD41"/>
<path d="M105.815 67.4838C105.782 67.3174 106.568 66.805 106.674 67.3198C106.774 67.8118 105.861 67.7073 105.815 67.4838Z" fill="#FFCD41"/>
<path d="M105.784 68.6814C105.75 68.515 106.538 68.0026 106.642 68.518C106.743 69.0106 105.829 68.9049 105.784 68.6814Z" fill="#FFCD41"/>
<path d="M106.245 69.6042C106.21 69.4384 106.998 68.9248 107.103 69.4408C107.203 69.9327 106.29 69.827 106.245 69.6042Z" fill="#FFCD41"/>
<path d="M106.679 70.5496C106.646 70.3838 107.433 69.8702 107.536 70.385C107.637 70.8782 106.725 70.7731 106.679 70.5496Z" fill="#FFCD41"/>
<path d="M105.827 66.4429C105.794 66.2777 106.581 65.7641 106.686 66.2801C106.786 66.7715 105.873 66.667 105.827 66.4429Z" fill="#FFCD41"/>
<path d="M104.496 67.9715C104.463 67.8057 105.249 67.2927 105.356 67.8075C105.455 68.3007 104.542 68.1956 104.496 67.9715Z" fill="#FFCD41"/>
<path d="M104.14 68.9754C104.106 68.8096 104.893 68.296 104.998 68.8114C105.098 69.3046 104.185 69.1989 104.14 68.9754Z" fill="#FFCD41"/>
<path d="M104.91 69.9305C104.876 69.7647 105.664 69.2517 105.769 69.7665C105.868 70.2591 104.956 70.154 104.91 69.9305Z" fill="#FFCD41"/>
<path d="M112.553 69.5657C112.547 69.2732 112.47 68.9879 112.37 68.7224C112.194 69.2065 111.902 69.6631 111.599 70.0127C111.169 70.5106 110.62 71.02 109.94 71.1186C109.332 71.2075 108.822 70.9942 108.309 70.683C107.569 70.2343 106.818 69.9556 105.974 69.7502C105.316 69.5904 104.685 69.4636 104.375 68.7818C104.126 68.2364 104.071 67.6189 104.235 67.0476C103.561 67.6837 103.136 68.3547 103.285 69.1897C103.643 71.19 105.845 70.626 108.9 72.1602C110.16 72.7933 112.586 71.2741 112.553 69.5657Z" fill="#DCB9CA"/>
<path d="M107.45 65.5069C107.512 65.6199 107.597 65.7214 107.713 65.8055C107.959 65.9863 108.255 66.1124 108.562 66.1443C108.817 66.1707 109.084 66.1503 109.335 66.2079C109.588 66.2662 109.734 66.3942 109.925 66.5569C110.308 66.8801 110.839 66.9913 111.241 66.7336C111.262 66.4885 111.266 66.1953 111.154 65.8463C110.79 64.7158 108.956 64.0544 108.021 64.9939C107.841 65.1741 107.647 65.3441 107.45 65.5069Z" fill="white"/>
<path d="M115.577 67.1492C115.577 67.1492 114.205 69.4139 111.298 67.8911C111.298 67.8911 113.577 65.3844 115.577 67.1492Z" fill="#579C43"/>
<path d="M111.304 67.8941C114.207 69.4096 115.576 67.1492 115.576 67.1492C115.57 67.145 115.564 67.1396 115.559 67.1348L111.304 67.8941Z" fill="#95C947"/>
<path d="M115.288 70.245C115.288 70.245 112.996 71.0673 111.3 67.8944C111.3 67.8944 114.481 67.504 115.288 70.245Z" fill="#579C43"/>
<path d="M111.304 67.9019C112.999 71.0669 115.289 70.2452 115.289 70.2452C115.286 70.2374 115.284 70.2302 115.281 70.2218L111.304 67.9019Z" fill="#95C947"/>
<path d="M114.225 64.2888C114.225 64.2888 111.79 64.311 111.296 67.8738C111.296 67.8738 114.417 67.1397 114.225 64.2888Z" fill="#579C43"/>
<path d="M111.297 67.866C111.792 64.311 114.224 64.2888 114.224 64.2888C114.225 64.2978 114.225 64.305 114.225 64.314L111.297 67.866Z" fill="#95C947"/>
<path d="M65.2098 140.42C63.8672 137.705 62.6874 136.736 62.0705 132.858C61.4116 128.723 60.1471 126.091 55.5391 126.091C51.1342 126.091 49.6919 128.187 48.6533 132.673C47.876 136.027 47.6814 137.229 46.3748 139.508C44.8803 142.116 43.6909 144.772 43.6909 150.209C43.6909 156.791 48.6028 159.863 55.3361 159.863C62.0705 159.863 67.3867 157.094 67.3867 150.513C67.3867 146.209 67.1879 144.419 65.2098 140.42Z" fill="#579C43"/>
<path d="M63.6506 140.706C62.5237 138.295 61.535 137.435 61.0166 133.992C60.4651 130.321 59.4025 127.983 55.5382 127.983C51.8439 127.983 50.6335 129.845 49.7625 133.827C49.1113 136.806 48.9473 137.874 47.851 139.897C46.5974 142.212 45.5996 144.571 45.5996 149.398C45.5996 155.242 49.7198 157.97 55.3682 157.97C61.0166 157.97 65.4774 155.513 65.4774 149.668C65.4774 145.846 65.3098 144.258 63.6506 140.706Z" fill="#95C947"/>
<path d="M62.0092 147.403C62.0092 151.859 59.1121 155.471 55.5385 155.471C51.9655 155.471 49.0684 151.859 49.0684 147.403C49.0684 142.947 51.9655 139.334 55.5385 139.334C59.1121 139.334 62.0092 142.947 62.0092 147.403Z" fill="#5F3814"/>
<path d="M51.5579 147.369C52.4679 147.269 53.4375 147.063 53.882 146.163C54.1439 145.632 54.3067 145.077 54.4058 144.495C54.5734 143.496 54.5223 141.961 55.3964 141.25C55.5952 141.088 55.806 140.971 56.0241 140.884C55.8571 140.864 55.6877 140.853 55.5165 140.853C52.6247 140.853 50.2616 143.671 50.0928 147.225C50.5715 147.368 51.0731 147.423 51.5579 147.369Z" fill="white"/>
<path d="M57.6295 139.767C58.8134 140.831 59.7631 142.141 60.2131 143.653C61.0336 146.415 60.6834 149.38 58.9546 151.728C57.4378 153.789 54.811 154.459 52.4941 153.33C50.91 152.557 50.1874 151.083 49.3374 149.7C50.1315 153.037 52.607 155.471 55.5402 155.471C59.1132 155.471 62.011 151.858 62.011 147.402C62.0104 143.859 60.177 140.851 57.6295 139.767Z" fill="#EFD0A6"/>
<path d="M65.2094 140.42C63.8668 137.705 62.6871 136.736 62.0702 132.858C61.4112 128.723 60.1467 126.091 55.5387 126.091C54.5878 126.091 53.7745 126.189 53.0729 126.388C53.16 126.416 53.2465 126.443 53.3276 126.471C54.386 126.831 55.4805 127.429 56.2398 128.266C58.1656 130.389 57.9451 133.151 58.5897 135.767C59.37 138.933 63.8765 142.977 64.0326 150.116C64.0723 151.915 63.3557 153.31 62.1741 154.61C59.7965 157.228 56.602 157.684 53.0903 156.941C50.7193 156.44 49.068 155.471 47.3866 153.903C45.4962 152.14 43.6899 150.209 43.6899 150.209C43.6899 156.79 48.6019 159.862 55.3351 159.862C62.0696 159.862 67.3857 157.094 67.3857 150.512C67.3863 146.209 67.1875 144.419 65.2094 140.42Z" fill="#CFD8A6"/>
<path d="M46.941 141.062C47.4691 141.352 48.059 141.263 48.6038 141.05C49.5289 140.691 50.2671 140.062 50.7717 139.206C51.8295 137.415 52.0368 135.437 52.1779 133.403C52.2837 131.866 52.6651 129.694 53.6797 128.297C51.3376 128.576 50.1542 129.94 49.5138 132.705C48.9786 135.02 49.1636 135.933 48.2614 137.506C47.6715 138.536 47.1507 139.577 46.8125 140.982C46.8539 141.011 46.8966 141.038 46.941 141.062Z" fill="white"/>
<path d="M77.5444 140.962C76.2012 138.246 75.0214 137.277 74.4057 133.401C73.7462 129.265 72.4805 126.633 67.8737 126.633C63.4688 126.633 62.0259 128.73 60.9879 133.216C60.2112 136.57 60.0153 137.772 58.7088 140.05C57.2143 142.658 56.0249 145.314 56.0249 150.751C56.0249 157.333 60.9362 160.405 67.6713 160.405C74.4057 160.405 79.7219 157.637 79.7219 151.055C79.7213 146.751 79.5219 144.962 77.5444 140.962Z" fill="#579C43"/>
<path d="M77.5447 140.962C76.2016 138.246 75.0218 137.277 74.4061 133.401C73.7465 129.265 72.4808 126.633 67.8741 126.633C66.922 126.633 66.1092 126.731 65.4082 126.93C65.4947 126.957 65.5812 126.985 65.6623 127.013C66.7207 127.372 67.8152 127.971 68.5751 128.807C70.5009 130.931 70.2805 133.693 70.9244 136.308C71.7053 139.474 76.2112 143.518 76.3674 150.657C76.407 152.456 75.691 153.851 74.5106 155.152C72.1324 157.77 68.9367 158.226 65.4262 157.483C63.0553 156.982 61.4045 156.013 59.7226 154.445C57.8322 152.682 56.0259 150.751 56.0259 150.751C56.0259 157.333 60.9372 160.405 67.6722 160.405C74.4067 160.405 79.7229 157.637 79.7229 151.055C79.7217 146.751 79.5223 144.962 77.5447 140.962Z" fill="#CFD8A6"/>
<path d="M59.2738 141.604C59.8031 141.895 60.3917 141.805 60.9378 141.593C61.8629 141.233 62.5999 140.603 63.1063 139.748C64.1635 137.957 64.3702 135.98 64.5119 133.945C64.6183 132.408 65.0003 130.236 66.0125 128.838C63.6716 129.117 62.4876 130.482 61.8484 133.246C61.312 135.561 61.497 136.475 60.5966 138.047C60.0049 139.076 59.4847 140.118 59.1465 141.524C59.1891 141.552 59.23 141.58 59.2738 141.604Z" fill="white"/>
<path d="M151.279 138.93C151.279 138.93 149.715 131.902 151.386 128.886C151.386 128.886 149.353 127.99 146.968 129.856C146.968 129.856 148.695 137.404 148.494 138.951L151.279 138.93Z" fill="#5F3814"/>
<path d="M151.385 128.886C151.385 128.886 150.792 128.626 149.869 128.679C149.869 128.679 149.673 131.838 149.637 132.961C149.596 134.354 148.902 138.457 148.497 138.908C148.496 138.922 148.496 138.938 148.494 138.95L151.279 138.929C151.279 138.929 149.715 131.902 151.385 128.886Z" fill="#C4985C"/>
<path d="M163.063 146.865C163.063 154.533 156.846 160.749 149.179 160.749C141.51 160.749 135.294 154.533 135.294 146.865C135.294 141.707 136.743 138.723 141.016 136.754C146.148 134.389 147.273 137.453 149.785 137.453C152.842 137.453 155.542 134.776 158.639 136.899C161.87 139.117 163.063 142.886 163.063 146.865Z" fill="#EA3E48"/>
<path d="M139.54 149.345C140.221 148.977 140.748 148.455 141.026 147.722C141.286 147.039 141.374 146.308 141.431 145.584C141.526 144.384 141.551 143.162 141.815 141.981C142.014 141.091 142.372 140.214 143.062 139.591C143.669 139.044 144.417 138.717 145.196 138.502C144.252 138.029 143.16 137.549 140.969 138.559C138.128 139.868 137.165 141.851 137.165 145.279C137.165 146.895 137.581 148.412 138.312 149.734C138.741 149.663 139.165 149.549 139.54 149.345Z" fill="white"/>
<path d="M158.639 136.9C156.941 135.735 155.363 136.014 153.78 136.503C154.015 136.692 154.244 136.887 154.459 137.095C156.014 138.593 159.815 143.683 157.786 150.197C154.546 160.597 140.644 157.55 139.673 156.955C139.646 156.938 139.62 156.921 139.594 156.904C142.086 159.284 145.461 160.748 149.179 160.748C156.846 160.748 163.064 154.532 163.064 146.865C163.062 142.886 161.87 139.117 158.639 136.9Z" fill="#DCB9CA"/>
<path d="M156.046 128.468C156.046 128.468 156.77 133.521 150.676 135.858C150.676 135.858 150.987 129.126 156.046 128.468Z" fill="#579C43"/>
<path d="M150.689 135.852C156.769 133.513 156.046 128.468 156.046 128.468C156.031 128.47 156.016 128.472 156 128.475L150.689 135.852Z" fill="#95C947"/>
<path d="M153.16 146.26C153.16 153.928 146.942 160.144 139.275 160.144C131.607 160.144 125.391 153.928 125.391 146.26C125.391 141.103 126.841 138.118 131.115 136.151C136.246 133.786 137.371 136.849 139.882 136.849C142.939 136.849 145.64 134.172 148.736 136.296C151.967 138.513 153.16 142.282 153.16 146.26Z" fill="#EA3E48"/>
<path d="M151.782 146.403C151.782 153.311 146.183 158.91 139.275 158.91C132.367 158.91 126.768 153.311 126.768 146.403C126.768 141.756 128.073 139.068 131.923 137.294C136.546 135.164 137.56 137.924 139.821 137.924C142.575 137.924 145.008 135.512 147.797 137.425C150.708 139.424 151.782 142.819 151.782 146.403Z" fill="#FFE0AA"/>
<path d="M130.449 150.148C131.129 149.779 131.655 149.257 131.935 148.524C132.195 147.84 132.284 147.111 132.341 146.386C132.436 145.186 132.46 143.964 132.724 142.784C132.923 141.893 133.281 141.017 133.973 140.393C134.579 139.847 135.326 139.52 136.105 139.305C135.162 138.833 134.07 138.352 131.878 139.362C129.037 140.672 128.076 142.654 128.076 146.082C128.076 147.698 128.491 149.216 129.221 150.537C129.649 150.466 130.074 150.351 130.449 150.148Z" fill="white"/>
<path d="M139.583 143.433C139.583 143.433 132.433 147.13 134.743 150.802C136.194 153.106 138.671 151.621 139.285 149.894L139.583 143.433Z" fill="#FCBE8C"/>
<path d="M140.149 143.327C140.149 143.327 147.139 147.316 144.679 150.889C143.134 153.132 140.721 151.547 140.179 149.795L140.149 143.327Z" fill="#FCBE8C"/>
<path d="M138.605 146.605C139.119 146.93 138.142 150.851 136.544 149.843C135.017 148.879 137.911 146.168 138.605 146.605Z" fill="#5F3814"/>
<path d="M141.038 146.605C140.523 146.93 141.502 150.851 143.099 149.843C144.626 148.879 141.733 146.168 141.038 146.605Z" fill="#5F3814"/>
<path d="M140.811 159.59H138.378C138.378 159.59 140.117 143.245 138.82 137.446C138.748 137.123 140.992 137.154 140.963 137.36C139.347 149.13 140.811 159.59 140.811 159.59Z" fill="#EA3E48"/>
<path d="M148.736 136.295C147.039 135.131 145.461 135.41 143.878 135.898C144.112 136.088 144.341 136.283 144.556 136.491C146.112 137.989 149.912 143.078 147.883 149.593C144.644 159.993 130.741 156.946 129.77 156.35C129.743 156.334 129.717 156.316 129.691 156.299C132.184 158.679 135.558 160.143 139.275 160.143C146.943 160.143 153.16 153.926 153.16 146.259C153.16 142.282 151.967 138.513 148.736 136.295Z" fill="#EFE5DD"/>
<path d="M121.888 133.937C121.888 133.937 124.709 132.735 128.005 134.01C128.005 134.01 126.991 135.359 124.777 135.359C122.563 135.359 121.979 134.322 121.888 133.937Z" fill="#FDB525"/>
<path d="M129.963 127.093C129.963 127.093 130.553 131.217 125.581 133.125C125.581 133.125 125.833 127.63 129.963 127.093Z" fill="#579C43"/>
<path d="M125.591 133.12C130.553 131.211 129.963 127.093 129.963 127.093C129.951 127.094 129.939 127.096 129.927 127.099L125.591 133.12Z" fill="#95C947"/>
<path d="M126.068 135.465C126.068 135.465 124.792 129.73 126.156 127.267C126.156 127.267 124.495 126.536 122.55 128.058C122.55 128.058 123.959 134.219 123.795 135.482L126.068 135.465Z" fill="#5F3814"/>
<path d="M126.156 127.268C126.156 127.268 125.67 127.055 124.918 127.099C124.918 127.099 124.757 129.678 124.729 130.595C124.695 131.731 124.129 135.08 123.797 135.448C123.797 135.459 123.797 135.472 123.795 135.483L126.068 135.465C126.068 135.465 124.791 129.73 126.156 127.268Z" fill="#C4985C"/>
<path d="M137.922 146.923C137.922 154.182 132.037 160.069 124.777 160.069C117.517 160.069 111.632 154.182 111.632 146.923C111.632 140.198 115.636 133.971 122.199 133.931C123.525 133.923 124.243 134.743 124.777 134.743C125.391 134.743 126.44 133.799 127.508 133.936C133.918 134.759 137.922 140.277 137.922 146.923Z" fill="#FFCD41"/>
<path d="M114.875 148.885C115.742 148.973 116.575 148.891 117.186 148.199C118.623 146.574 119.141 144.517 119.188 142.389C119.221 140.945 119.166 139.377 119.866 138.06C120.183 137.461 120.629 137.032 121.155 136.74C121.006 136.705 120.844 136.684 120.666 136.686C116.143 136.714 113.383 141.006 113.383 145.642C113.383 146.738 113.578 147.79 113.934 148.763C114.247 148.812 114.562 148.853 114.875 148.885Z" fill="white"/>
<path d="M134.415 137.423C135.437 139.685 135.58 142.394 135.346 144.815C135.078 147.565 134.162 150.122 132.404 152.274C130.73 154.328 128.416 156.144 125.763 156.669C122.866 157.242 119.726 156.915 117.006 155.778C115.876 155.306 114.717 154.689 113.689 153.98C116.023 157.639 120.115 160.069 124.777 160.069C132.037 160.069 137.922 154.182 137.922 146.923C137.922 143.19 136.658 139.812 134.415 137.423Z" fill="#FFD594"/>
<path d="M125.83 146.702C125.83 153.962 119.945 159.848 112.685 159.848C105.424 159.848 99.5405 153.963 99.5405 146.702C99.5405 139.978 103.544 133.751 110.104 133.71C111.433 133.702 112.149 134.522 112.684 134.522C113.298 134.522 114.347 133.578 115.415 133.715C121.826 134.538 125.83 140.057 125.83 146.702Z" fill="#FFCD41"/>
<path d="M124.573 146.709C124.573 153.274 119.25 158.597 112.685 158.597C106.119 158.597 100.797 153.274 100.797 146.709C100.797 140.627 104.418 134.996 110.352 134.959C111.553 134.951 112.2 135.693 112.685 135.693C113.24 135.693 114.188 134.84 115.154 134.964C120.953 135.708 124.573 140.699 124.573 146.709Z" fill="#FFDE8E"/>
<path d="M112.071 146.176C112.07 146.169 110.587 135.962 110.549 135.962C106.932 135.985 104.255 138.282 102.87 141.457C104.05 142.066 112.071 146.176 112.071 146.176Z" fill="#FFCD41"/>
<path d="M112.685 146.028C112.804 146.049 114.945 135.967 114.945 135.967C114.061 135.854 113.193 136.635 112.685 136.635C112.347 136.635 111.923 136.243 111.255 136.058L112.685 146.028Z" fill="#FFCD41"/>
<path d="M113.322 146.176C113.322 146.176 121.069 142.339 122.499 141.619C121.202 138.771 118.776 136.677 115.548 136.065C115.526 136.221 113.322 146.176 113.322 146.176Z" fill="#FFCD41"/>
<path d="M113.322 146.691L122.432 151.547C123.156 150.091 123.564 148.451 123.564 146.714C123.564 145.18 123.304 143.719 122.818 142.394C122.74 142.189 113.322 146.691 113.322 146.691Z" fill="#FFCD41"/>
<path d="M112.685 147.584L108.361 156.697C109.687 157.273 111.148 157.594 112.685 157.594C113.63 157.594 114.547 157.473 115.42 157.246L112.685 147.584Z" fill="#FFCD41"/>
<path d="M113.322 147.457C113.505 147.86 115.656 156.079 116.086 157.049C118.659 156.201 120.807 154.421 122.131 152.108C121.417 151.765 114.756 148.474 113.322 147.457Z" fill="#FFCD41"/>
<path d="M112.072 146.775L102.67 141.948C102.106 143.417 101.808 145.047 101.808 146.715C101.808 148.01 102.035 149.252 102.45 150.405L112.072 146.775Z" fill="#FFCD41"/>
<path d="M112.072 147.457C112.072 147.457 102.621 150.847 102.675 150.972C103.674 153.32 105.474 155.243 107.732 156.401L112.072 147.457Z" fill="#FFCD41"/>
<path d="M102.992 148.664C103.859 148.753 104.691 148.671 105.304 147.978C106.74 146.353 107.256 144.296 107.304 142.167C107.338 140.723 107.282 139.155 107.982 137.839C108.3 137.241 108.747 136.81 109.272 136.518C109.125 136.484 108.962 136.463 108.783 136.464C104.261 136.492 101.5 140.784 101.5 145.42C101.5 146.517 101.696 147.567 102.051 148.54C102.364 148.591 102.678 148.632 102.992 148.664Z" fill="white"/>
<path d="M122.322 137.202C123.344 139.465 123.488 142.173 123.253 144.594C122.986 147.344 122.07 149.901 120.312 152.054C118.637 154.106 116.323 155.923 113.669 156.448C110.772 157.021 107.633 156.694 104.914 155.557C103.782 155.084 102.623 154.468 101.598 153.759C103.93 157.418 108.022 159.848 112.684 159.848C119.944 159.848 125.829 153.963 125.829 146.702C125.83 142.969 124.567 139.592 122.322 137.202Z" fill="#FFE7C1"/>
<path d="M96.249 147.505C96.249 155.503 91.1125 160.14 83.4517 160.14C75.7922 160.14 70.5938 155.543 70.5938 147.545C70.5938 142.165 72.2865 138.496 76.4686 136.252C81.464 133.572 86.2053 134.003 89.9633 136.013C93.6492 137.983 96.249 141.319 96.249 147.505Z" fill="#EA3E48"/>
<path d="M78.7902 142.988C78.95 142.704 81.0777 143.121 80.5803 144.004C80.1063 144.849 78.5746 143.372 78.7902 142.988Z" fill="#FFCD41"/>
<path d="M78.7725 151.284C78.617 150.997 80.1103 149.424 80.5897 150.318C81.0486 151.171 78.981 151.672 78.7725 151.284Z" fill="#FFCD41"/>
<path d="M77.8934 148.332C77.8346 148.011 79.7412 146.979 79.9214 147.976C80.0914 148.93 77.9709 148.766 77.8934 148.332Z" fill="#FFCD41"/>
<path d="M78.039 145.611C78.0979 145.291 80.2454 144.996 80.0616 145.993C79.8868 146.946 77.9597 146.044 78.039 145.611Z" fill="#FFCD41"/>
<path d="M88.0726 142.988C87.9134 142.704 85.7863 143.121 86.2837 144.004C86.757 144.849 88.2888 143.372 88.0726 142.988Z" fill="#FFCD41"/>
<path d="M88.0878 150.772C88.2428 150.485 86.7507 148.913 86.2707 149.805C85.8124 150.659 87.8794 151.16 88.0878 150.772Z" fill="#FFCD41"/>
<path d="M88.8239 148.332C88.881 148.011 86.9756 146.979 86.7966 147.976C86.6242 148.93 88.7453 148.766 88.8239 148.332Z" fill="#FFCD41"/>
<path d="M88.8706 145.611C88.8118 145.291 86.6643 144.996 86.8481 145.993C87.0235 146.946 88.9511 146.044 88.8706 145.611Z" fill="#FFCD41"/>
<path d="M88.8412 137.061C85.5698 135.277 81.4412 134.894 77.0915 137.273C73.4507 139.265 71.9766 142.523 71.9766 147.299C71.9766 154.4 76.5028 158.481 83.1718 158.481C89.8414 158.481 94.3136 154.365 94.3136 147.263C94.3136 141.771 92.0507 138.81 88.8412 137.061ZM74.2742 147.463C74.2742 143.743 75.4456 141.205 78.3374 139.654C79.3562 139.108 80.3587 138.749 81.3349 138.55C81.7271 140.056 81.9764 141.867 82.1074 143.809C81.1192 144.435 80.4386 145.742 80.4386 147.256C80.4386 148.778 81.127 150.089 82.1224 150.712C82.0155 152.608 81.8274 154.444 81.5745 156.069C77.1624 155.485 74.2742 152.419 74.2742 147.463ZM85.3475 155.972C85.192 154.602 84.891 152.882 84.685 150.734C85.699 150.12 86.403 148.796 86.403 147.256C86.403 145.649 85.6377 144.274 84.551 143.7C84.6417 142.127 84.8201 140.415 85.1223 138.555C86.0245 138.745 86.8781 139.066 87.6686 139.489C90.218 140.852 92.0141 143.157 92.0141 147.436C92.0147 152.168 89.4155 155.196 85.3475 155.972Z" fill="#FFE0AA"/>
<path d="M89.9825 136.052C88.2399 135.121 86.2864 134.528 84.1936 134.429C84.3149 134.484 84.4363 134.54 84.5564 134.599C86.5627 135.577 88.7697 136.791 90.242 138.51C91.4879 139.964 92.255 141.709 92.5595 143.595C92.8851 145.614 93.0287 147.823 92.458 149.811C91.8885 151.794 90.8019 153.549 89.201 154.861C87.5214 156.237 84.2218 156.85 82.1043 156.909C75.4179 157.098 73.3401 153.965 71.314 152.28C72.9749 157.354 77.4651 160.18 83.4703 160.18C91.1317 160.18 96.2676 155.543 96.2676 147.545C96.2676 141.358 93.6672 138.023 89.9825 136.052Z" fill="#DFD2D2"/>
<path d="M75.5213 148.192C77.0753 147.766 77.7781 146.675 77.7697 145.075C77.7607 143.361 77.4105 141.747 78.1938 140.14C78.5999 139.308 79.2426 138.535 79.5418 137.658C79.5484 137.639 79.5526 137.619 79.5586 137.6C78.7465 137.827 77.9175 138.159 77.0777 138.609C73.9613 140.281 72.6992 143.016 72.6992 147.026C72.6992 147.497 72.7268 147.951 72.7749 148.39C73.6958 148.438 74.6371 148.434 75.5213 148.192Z" fill="white"/>
<path d="M110.537 147.478C110.537 155.476 105.4 160.112 97.7404 160.112C90.0797 160.112 84.8818 155.516 84.8818 147.518C84.8818 142.138 86.5746 138.468 90.7567 136.225C95.7521 133.545 100.493 133.975 104.251 135.986C107.936 137.956 110.537 141.291 110.537 147.478Z" fill="#EA3E48"/>
<path d="M89.2813 148.18C90.8371 147.754 91.5394 146.662 91.531 145.062C91.5219 143.349 91.1723 141.735 91.9556 140.129C92.3617 139.296 93.0039 138.523 93.303 137.646C93.3096 137.628 93.315 137.608 93.321 137.588C92.5077 137.816 91.6769 138.147 90.839 138.597C87.7225 140.269 86.4604 143.004 86.4604 147.013C86.4604 147.485 86.4881 147.938 86.5349 148.378C87.4576 148.426 88.3989 148.423 89.2813 148.18Z" fill="white"/>
<path d="M104.251 135.986C102.508 135.054 100.555 134.462 98.4621 134.362C98.5835 134.417 98.7042 134.473 98.8249 134.532C100.831 135.51 103.038 136.725 104.512 138.444C105.756 139.896 106.524 141.641 106.828 143.528C107.154 145.547 107.297 147.755 106.725 149.745C106.158 151.726 105.07 153.482 103.47 154.793C101.79 156.169 98.4892 156.782 96.3729 156.842C89.6865 157.031 87.6087 153.898 85.5825 152.212C87.2435 157.287 91.7343 160.112 97.7401 160.112C105.4 160.112 110.536 155.476 110.536 147.478C110.537 141.291 107.936 137.956 104.251 135.986Z" fill="#DCB9CA"/>
<path d="M98.6771 134.645C98.6771 134.645 98.4651 130.964 99.9266 128.642C99.9266 128.642 98.3509 127.841 96.374 129.216C96.374 129.216 97.6631 133.395 97.4343 134.615L98.6771 134.645Z" fill="#95C947"/>
<path d="M99.9258 128.642C99.9258 128.642 99.4656 128.408 98.731 128.411C98.731 128.411 98.4931 130.919 98.3562 131.802C98.2757 132.325 97.7813 134.241 97.4383 134.582C97.4365 134.592 97.4365 134.604 97.4341 134.615L98.6769 134.645C98.6769 134.645 98.4643 130.964 99.9258 128.642Z" fill="#CFD8A6"/>
<path d="M101.919 134.993C104.169 135.745 104.857 138.809 104.857 138.809C104.348 138.107 101.794 136.671 101.794 136.671C102.075 138.162 101.165 139.751 101.165 139.751C99.6805 137.468 98.1733 136.536 98.1733 136.536C96.3316 137.206 94.2489 139.575 94.2489 139.575C94.3048 137.934 94.6328 136.607 94.6328 136.607C91.7848 136.871 90.5654 138.162 90.5654 138.162C91.2112 136.201 92.8457 135.276 92.8457 135.276C92.8457 135.276 96.9545 133.33 101.919 134.993Z" fill="#95C947"/>
<path d="M104.857 138.809C104.857 138.809 104.169 135.746 101.919 134.993C101.865 134.975 101.811 134.959 101.758 134.942C102.132 135.394 102.554 135.904 102.634 136.483C102.646 136.565 101.464 135.966 101.15 135.985C100.947 135.997 101.102 138.178 100.893 138.13C100.434 138.025 99.9141 137.455 99.6162 137.133C99.156 136.636 98.2135 135.722 97.7828 135.89C97.1197 136.147 95.4671 137.46 95.4305 137.309C95.3632 137.03 95.1992 135.978 95.1992 135.978C95.1992 135.978 92.6631 136.484 92.6853 136.412C92.7994 136.045 92.913 135.618 92.913 135.245C92.8703 135.264 92.8457 135.276 92.8457 135.276C92.8457 135.276 91.2112 136.201 90.5654 138.162C90.5654 138.162 91.7848 136.871 94.6328 136.608C94.6328 136.608 94.3048 137.935 94.2489 139.575C94.2489 139.575 96.3316 137.206 98.1733 136.536C98.1733 136.536 99.6805 137.469 101.165 139.752C101.165 139.752 102.075 138.162 101.794 136.671C101.794 136.671 104.348 138.108 104.857 138.809Z" fill="#CFD8A6"/>
<path d="M69.113 152.059C65.7461 156.563 66.0212 160.291 62.6807 160.291C59.4699 160.291 58.5605 155.63 56.1727 152.223C54.4114 149.708 56.6671 145.795 59.3906 145.425C60.9699 145.211 61.9412 145.852 62.6597 145.852C63.3246 145.852 64.6816 145.191 65.9671 145.395C68.7417 145.836 70.5 150.203 69.113 152.059Z" fill="#EA3E48"/>
<path d="M59.1729 151.478C58.8953 151.484 58.2922 150.062 59.1566 150.041C59.982 150.021 59.5489 151.468 59.1729 151.478Z" fill="#FFCD41"/>
<path d="M60.6477 149.839C60.3695 149.846 59.7659 148.424 60.6315 148.403C61.4562 148.382 61.0237 149.83 60.6477 149.839Z" fill="#FFCD41"/>
<path d="M57.5607 149.705C57.2826 149.712 56.6801 148.289 57.5445 148.268C58.3699 148.248 57.9362 149.696 57.5607 149.705Z" fill="#FFCD41"/>
<path d="M62.2691 151.478C61.991 151.484 61.3891 150.062 62.2523 150.041C63.0788 150.021 62.6451 151.468 62.2691 151.478Z" fill="#FFCD41"/>
<path d="M64.2035 150.238C63.926 150.245 63.3223 148.822 64.1867 148.801C65.0127 148.781 64.579 150.229 64.2035 150.238Z" fill="#FFCD41"/>
<path d="M66.1468 151.478C65.8687 151.484 65.2662 150.062 66.13 150.041C66.9559 150.021 66.5222 151.468 66.1468 151.478Z" fill="#FFCD41"/>
<path d="M67.4264 149.839C67.1483 149.846 66.5458 148.424 67.4102 148.403C68.2356 148.382 67.8019 149.83 67.4264 149.839Z" fill="#FFCD41"/>
<path d="M59.8866 153.497C59.6085 153.504 59.0048 152.08 59.8698 152.06C60.6957 152.04 60.262 153.487 59.8866 153.497Z" fill="#FFCD41"/>
<path d="M57.7165 152.778C57.4372 152.785 56.8347 151.363 57.6997 151.341C58.525 151.321 58.0907 152.769 57.7165 152.778Z" fill="#FFCD41"/>
<path d="M61.5151 153.497C61.2382 153.504 60.635 152.08 61.4995 152.06C62.3254 152.04 61.8923 153.487 61.5151 153.497Z" fill="#FFCD41"/>
<path d="M63.2957 153.944C63.0169 153.951 62.4144 152.528 63.2788 152.508C64.1042 152.488 63.6705 153.935 63.2957 153.944Z" fill="#FFCD41"/>
<path d="M64.8063 152.508C64.5288 152.515 63.9245 151.091 64.7895 151.071C65.6167 151.051 65.183 152.498 64.8063 152.508Z" fill="#FFCD41"/>
<path d="M66.9659 153.372C66.6884 153.379 66.0859 151.957 66.9503 151.936C67.7751 151.916 67.3426 153.363 66.9659 153.372Z" fill="#FFCD41"/>
<path d="M60.6477 155.703C60.3695 155.708 59.7659 154.286 60.6315 154.266C61.4562 154.246 61.0237 155.693 60.6477 155.703Z" fill="#FFCD41"/>
<path d="M62.5775 156.1C62.2988 156.107 61.6963 154.684 62.5601 154.663C63.3873 154.643 62.953 156.091 62.5775 156.1Z" fill="#FFCD41"/>
<path d="M64.2035 155.62C63.926 155.627 63.3223 154.204 64.1867 154.183C65.0127 154.163 64.579 155.611 64.2035 155.62Z" fill="#FFCD41"/>
<path d="M65.8617 155.19C65.5836 155.196 64.9793 153.774 65.8437 153.753C66.6709 153.734 66.2366 155.181 65.8617 155.19Z" fill="#FFCD41"/>
<path d="M58.966 155.382C58.6884 155.388 58.0847 153.965 58.9503 153.944C59.7757 153.924 59.342 155.373 58.966 155.382Z" fill="#FFCD41"/>
<path d="M61.0557 157.979C60.7776 157.985 60.1757 156.563 61.0389 156.541C61.8655 156.521 61.4318 157.969 61.0557 157.979Z" fill="#FFCD41"/>
<path d="M62.5775 158.846C62.2988 158.853 61.6963 157.431 62.5601 157.41C63.3873 157.39 62.953 158.837 62.5775 158.846Z" fill="#FFCD41"/>
<path d="M64.3454 157.875C64.0678 157.882 63.4641 156.46 64.3297 156.438C65.1551 156.418 64.7214 157.866 64.3454 157.875Z" fill="#FFCD41"/>
<path d="M65.9671 145.395C65.4913 145.319 65.0059 145.363 64.5494 145.447C65.2817 145.873 65.937 146.476 66.4152 147.067C67.097 147.908 67.7625 148.943 67.7265 150.073C67.6935 151.084 67.2015 151.847 66.5509 152.587C65.609 153.657 64.9423 154.792 64.365 156.098C63.9151 157.119 63.5276 158.103 62.3352 158.408C61.3795 158.653 60.3649 158.563 59.4873 158.134C60.3235 159.409 61.2852 160.29 62.68 160.29C66.0205 160.29 65.746 156.561 69.1123 152.058C70.4999 150.202 68.7417 145.836 65.9671 145.395Z" fill="#DCB9CA"/>
<path d="M57.9193 152.484C58.1206 152.416 58.3086 152.307 58.4792 152.145C58.8432 151.799 59.1322 151.355 59.2721 150.869C59.3887 150.463 59.4331 150.025 59.5983 149.635C59.7659 149.245 60.0146 149.044 60.333 148.78C60.9679 148.254 61.3007 147.427 60.9997 146.699C60.6087 146.596 60.1353 146.505 59.5376 146.586C57.6028 146.847 56.0019 149.626 57.2532 151.411C57.4935 151.756 57.7133 152.117 57.9193 152.484Z" fill="white"/>
<path d="M62.9282 139.802C62.9282 139.802 66.1966 142.677 62.8927 146.944C62.8927 146.944 59.4928 142.53 62.9282 139.802Z" fill="#579C43"/>
<path d="M62.8984 146.934C66.1909 142.673 62.9273 139.802 62.9273 139.802C62.9183 139.81 62.9086 139.818 62.8984 139.827V146.934Z" fill="#95C947"/>
<path d="M67.8565 141.164C67.8565 141.164 68.5251 145.114 62.8989 146.941C62.8989 146.941 63.1861 141.679 67.8565 141.164Z" fill="#579C43"/>
<path d="M62.9106 146.937C68.5242 145.108 67.8562 141.163 67.8562 141.163C67.8424 141.165 67.8304 141.167 67.8154 141.168L62.9106 146.937Z" fill="#95C947"/>
<path d="M57.906 141.164C57.906 141.164 57.238 145.114 62.8629 146.941C62.8629 146.941 62.577 141.679 57.906 141.164Z" fill="#579C43"/>
<path d="M62.8509 146.937C57.2386 145.108 57.906 141.163 57.906 141.163C57.9192 141.165 57.9324 141.167 57.9462 141.168L62.8509 146.937Z" fill="#95C947"/>
<path d="M163.062 152.536C160.215 155.722 158.351 153.445 159.266 153.147C160.926 152.604 161.299 151.181 161.299 151.181C156.825 152.672 156.409 148.777 157.605 148.814C160.981 148.915 160.554 147.52 160.554 147.52C160.215 147.453 159.402 148.198 157.842 146.707C156.283 145.216 157.291 144.006 157.842 144.267C160.485 145.521 161.435 144.539 161.028 143.792C160.621 143.047 159.825 140.94 160.774 140.505C161.723 140.07 161.873 139.302 162.231 138.895C162.509 138.58 163.266 138.285 163.91 138.878C164.385 139.315 164.638 140.341 165.587 140.776C166.536 141.211 165.503 143.047 165.096 143.792C164.689 144.539 165.638 145.521 168.282 144.267C168.833 144.006 169.841 145.216 168.282 146.707C166.723 148.199 165.909 147.453 165.571 147.52C165.571 147.52 165.143 148.915 168.52 148.814C169.715 148.778 169.298 152.673 164.824 151.181C164.824 151.181 165.197 152.604 166.859 153.147C167.771 153.445 165.909 155.722 163.062 152.536Z" fill="#579C43"/>
<path opacity="0.5" d="M159.579 145.839C159.256 145.965 160.015 146.608 160.298 146.765C160.682 146.979 161.375 146.942 161.789 146.754C162.239 146.549 162.492 145.919 162.562 145.407C162.717 144.265 162.663 143.351 162.663 142.424C162.663 141.799 162.679 140.935 162.358 140.413C162.174 140.705 161.924 140.998 161.504 141.212C160.631 141.655 161.363 143.805 161.738 144.566C162.073 145.249 161.077 145.251 159.579 145.839Z" fill="white"/>
<path d="M163.062 158.818V140.787" stroke="#95C947" stroke-width="0.4514" stroke-miterlimit="10"/>
<path d="M168.519 148.813C165.142 148.914 165.57 147.52 165.57 147.52C165.909 147.452 166.722 148.197 168.281 146.706C169.84 145.216 168.832 144.006 168.281 144.266C165.637 145.521 164.688 144.539 165.095 143.792C165.502 143.046 166.535 141.21 165.586 140.776C164.637 140.341 164.384 139.315 163.908 138.878C163.575 138.569 163.21 138.502 162.899 138.552C162.943 138.613 162.986 138.675 163.025 138.738C163.466 139.424 163.829 140.139 164.051 140.927C164.593 142.846 164.586 144.828 164.585 146.807C164.584 147.758 164.608 148.777 164.169 149.649C163.778 150.427 163.188 151.149 162.601 151.789C161.835 152.627 160.587 153.291 159.437 153.086C159.381 153.107 159.325 153.127 159.266 153.147C158.351 153.445 160.215 155.722 163.062 152.536C165.909 155.722 167.772 153.445 166.859 153.147C165.197 152.604 164.824 151.181 164.824 151.181C169.297 152.672 169.715 148.777 168.519 148.813Z" fill="#CFD8A6"/>
<path d="M107.708 162.254C102.729 162.254 98.6792 158.204 98.6792 153.226C98.6792 148.248 102.73 144.198 107.708 144.198C112.686 144.198 116.736 148.248 116.736 153.226C116.736 158.204 112.686 162.254 107.708 162.254ZM107.708 145.996C103.72 145.996 100.477 149.24 100.477 153.226C100.477 157.213 103.72 160.456 107.708 160.456C111.694 160.456 114.938 157.214 114.938 153.226C114.938 149.24 111.695 145.996 107.708 145.996Z" fill="#5A3E69"/>
<path d="M107.707 161.392C103.204 161.392 99.5405 157.729 99.5405 153.226C99.5405 148.723 103.204 145.06 107.707 145.06C112.21 145.06 115.874 148.723 115.874 153.226C115.874 157.729 112.21 161.392 107.707 161.392ZM107.707 146.686C104.1 146.686 101.167 149.62 101.167 153.226C101.167 156.832 104.1 159.767 107.707 159.767C111.313 159.767 114.247 156.832 114.247 153.226C114.247 149.62 111.313 146.686 107.707 146.686Z" fill="#FFE0AA"/>
<path d="M92.6815 160.009C93.1488 160.959 88.2357 161.047 88.4465 160.009C88.7968 158.278 88.4465 153.458 88.4465 153.458H92.6815C92.6815 153.458 91.7714 158.164 92.6815 160.009Z" fill="#FED09B"/>
<path d="M96.18 152.556C96.6894 149.506 93.4895 147.134 90.3905 147.134C87.2914 147.134 84.5228 150.184 84.9319 152.499C85.4353 155.349 95.7036 155.411 96.18 152.556Z" fill="#FFE0AA"/>
<path d="M86.1741 151.349C87.2842 151.433 88.0657 150.876 88.9115 150.24C89.335 149.923 89.7861 149.775 90.2877 149.623C90.7322 149.489 91.3413 149.316 91.6008 148.886C91.8724 148.434 91.6909 148.087 91.3509 147.815C91.1353 147.79 90.9184 147.776 90.7028 147.776C88.4766 147.776 86.4474 149.563 85.9717 151.325C86.0396 151.336 86.1068 151.344 86.1741 151.349Z" fill="white"/>
<path d="M94.2952 148.426C93.7702 149.828 92.8193 151.058 91.4869 151.794C90.2297 152.49 88.9964 152.713 87.5812 152.791C86.9522 152.826 86.1473 152.981 85.543 152.733C85.3087 152.637 85.1063 152.504 84.9141 152.356C84.9207 152.404 84.9255 152.452 84.9339 152.499C85.4367 155.35 95.705 155.411 96.182 152.556C96.4601 150.881 95.6215 149.411 94.2952 148.426Z" fill="#F6F5EC"/>
<path d="M192.166 157.094H22.4551V167H192.166V157.094Z" fill="white"/>
</svg>
