<svg width="200" height="219" viewBox="0 0 200 219" fill="none" xmlns="http://www.w3.org/2000/svg">
<path d="M144.832 30.0905C184.812 39.1741 208.815 80.7019 196.258 119.687C196.01 120.473 195.74 121.26 195.47 122.057C177.929 173.024 126.105 156.301 110.16 181.785C94.216 207.268 71.0978 225.586 40.7949 214.434C10.5028 203.281 -18.2035 135.591 14.4835 82.232C40.18 40.2947 93.9571 18.5179 144.832 30.0797L144.832 30.0905Z" fill="#E8FAF7"/>
<path d="M115.666 218.27C93.9483 218.27 76.3422 217.828 76.3422 217.282C76.3422 216.736 93.9483 216.294 115.666 216.294C137.385 216.294 154.991 216.736 154.991 217.282C154.991 217.828 137.385 218.27 115.666 218.27Z" fill="#3B2645"/>
<path d="M115.566 217.282C89.5285 217.282 68.4209 196.18 68.4209 170.149C68.4209 144.118 89.5285 123.016 115.566 123.016C141.603 123.016 162.711 144.118 162.711 170.149C162.711 196.18 141.603 217.282 115.566 217.282Z" fill="#FA9E97"/>
<path d="M123.808 203.084C127.518 203.084 131.228 202.66 134.897 201.773C147.892 198.687 158.861 190.458 165.779 178.579C172.698 166.721 174.723 152.643 171.514 138.949C168.306 125.255 160.224 113.598 148.754 106.095C137.284 98.5927 123.808 96.1726 110.813 99.2583C97.8189 102.344 86.8499 110.573 79.9315 122.452C73.0132 134.31 70.9878 148.388 74.1963 162.082C77.4048 175.776 85.5063 187.433 96.9566 194.936C105.178 200.3 114.423 203.084 123.808 203.084ZM121.843 98.3709C144.563 98.3709 165.458 114.848 171.153 139.05C174.342 152.643 172.316 166.6 165.458 178.378C158.6 190.156 147.711 198.324 134.817 201.39C131.167 202.257 127.478 202.68 123.808 202.68C114.503 202.68 105.339 199.937 97.1772 194.593C85.8071 187.151 77.7858 175.574 74.5773 161.981C71.3888 148.388 73.4142 134.431 80.2724 122.653C87.1306 110.875 98.0195 102.707 110.914 99.6415C114.563 98.7742 118.233 98.3709 121.843 98.3709Z" fill="white"/>
<path d="M139.61 178.761C144.002 178.761 148.012 177.652 151.441 175.393C158.56 170.714 162.29 161.739 161.909 150.102C161.528 138.485 157.136 125.618 149.516 113.86C141.896 102.102 131.97 92.8448 121.542 87.8028C111.114 82.7608 101.429 82.5591 94.3097 87.2179C87.1909 91.8969 83.461 100.872 83.842 112.509C84.223 124.126 88.6146 136.993 96.2348 148.751C103.855 160.509 113.781 169.766 124.209 174.808C129.623 177.45 134.837 178.761 139.61 178.761ZM149.376 113.941L149.255 114.021C156.856 125.739 161.227 138.566 161.608 150.102C161.969 161.638 158.299 170.512 151.281 175.131C136.742 184.67 112.157 172.751 96.4955 148.59C80.834 124.428 79.9316 96.9995 94.4702 87.4801C109.009 77.9406 133.594 89.86 149.255 114.021L149.376 113.941Z" fill="white"/>
<path d="M143.801 160.67C146.689 160.67 149.055 159.803 150.439 157.988C152.284 155.608 152.224 151.978 150.258 147.783C148.313 143.608 144.764 139.373 140.212 135.823L140.132 135.924L140.212 135.823C130.807 128.482 120.078 126.505 116.308 131.406C112.538 136.307 117.131 146.25 126.535 153.591C132.471 158.169 138.908 160.67 143.801 160.67ZM140.051 136.025C144.563 139.534 148.093 143.749 150.018 147.884C151.923 151.978 152.003 155.507 150.218 157.806C146.549 162.586 136.001 160.569 126.696 153.329C117.391 146.089 112.839 136.307 116.529 131.548C120.219 126.788 130.767 128.784 140.051 136.025Z" fill="white"/>
<g opacity="0.3">
<path opacity="0.3" d="M75.62 145.121C73.9155 149.941 73.0532 155.023 73.0733 160.146C73.0733 185.053 93.1465 205.222 117.892 205.222C140.993 205.222 160.004 187.655 162.45 165.087C162.631 166.761 162.711 168.455 162.711 170.149C162.711 196.166 141.595 217.282 115.566 217.282C89.5369 217.282 68.4209 196.186 68.4209 170.169C68.4009 161.295 70.9075 152.603 75.62 145.121Z" fill="#543753"/>
</g>
<path d="M86.2062 37.7103C86.2062 37.7103 89.7225 39.9794 93.0559 45.4783C96.3893 50.9772 99.9463 56.149 99.9463 56.149C99.9463 56.149 101.247 45.0081 100.637 43.5363C100.028 42.0645 97.8324 38.8142 97.3243 37.7103C96.8161 36.6064 94.3974 35.0324 94.3771 34.3987C94.3567 33.765 94.621 31.7821 94.7226 31.7208C94.8242 31.6594 96.0437 32.1092 96.2267 32.7633C96.369 33.2335 96.4706 33.6423 96.4706 33.6423C96.4706 33.6423 98.117 34.5622 98.4015 34.5827C98.6861 34.6031 100.028 33.8876 100.048 33.765C100.068 33.6423 98.93 30.9849 98.5844 30.8418C98.2389 30.6987 96.3283 32.1909 95.9625 32.1909C95.5966 32.1909 94.8242 31.7003 94.7836 31.4141C94.7429 31.128 97.1617 28.634 97.3649 28.6136C97.5682 28.5931 99.6414 28.2252 99.9259 28.4296C100.21 28.634 101.755 29.9832 101.755 29.9832C101.755 29.9832 101.755 25.3428 101.755 24.4025C101.755 23.4622 101.958 20.5594 102.385 20.355C102.812 20.1914 103.28 20.1506 103.727 20.2119C103.93 20.2732 104.052 21.5611 104.052 21.5611C104.052 21.5611 105.129 21.3975 105.414 21.6224C105.698 21.8472 106.288 30.6373 106.288 30.7191C106.288 30.8009 107.812 28.9406 107.995 28.5931C108.178 28.2456 108.808 26.1196 109.093 26.0379C109.377 25.9561 110.19 25.8948 110.292 26.0992C110.394 26.3036 109.743 29.3699 109.703 29.7174C109.662 30.065 107.731 34.1943 107.629 34.828C107.528 35.4617 107.121 40.7766 106.999 41.86C106.877 42.9435 108.239 55.6789 108.544 60.9938C108.849 66.3088 108.585 71.0718 108.259 71.5624C107.934 72.053 105.272 73.7906 103.849 73.0751C102.426 72.3596 98.5031 69.2729 94.7632 65.6751C91.0233 62.0772 86.6127 57.3551 86.6127 57.3551L86.2062 37.7103Z" fill="#FFD3C0"/>
<path d="M99.9668 56.1293C99.9668 56.1293 99.6009 58.9912 99.4587 61.5669C99.4587 61.5669 98.666 59.1343 99.0522 54.7802L99.9668 56.1293Z" fill="#DE835C"/>
<path d="M106.512 33.3767C106.532 33.3767 106.553 33.3767 106.573 33.3562C106.614 33.3153 106.614 33.254 106.573 33.2131C105.963 32.5181 102.488 30.3104 102.345 30.2081C102.305 30.1877 102.244 30.1877 102.203 30.249C102.183 30.2899 102.183 30.3512 102.244 30.3921C102.284 30.4126 105.841 32.6816 106.431 33.3562C106.451 33.3767 106.492 33.3767 106.512 33.3767Z" fill="#472938"/>
<path d="M103.849 29.4515C103.869 29.4515 103.849 29.4515 103.849 29.4515C103.91 29.4515 103.951 29.4107 103.951 29.3493C103.951 29.288 103.707 23.8504 103.768 22.8692C103.829 21.9493 104.113 21.6836 104.113 21.6836C104.154 21.6427 104.154 21.5813 104.134 21.5405C104.093 21.4996 104.032 21.4996 103.991 21.52C103.951 21.5405 103.646 21.8471 103.585 22.8488C103.524 23.8504 103.768 29.1449 103.768 29.3698C103.768 29.4107 103.808 29.4515 103.849 29.4515Z" fill="#472938"/>
<path d="M103.219 37.9762C103.239 37.9558 103.239 37.9762 103.219 37.9762C103.3 37.9558 103.321 37.9149 103.321 37.8536C102.894 35.4414 100.231 33.7447 100.13 33.6834C100.089 33.6629 100.028 33.6629 99.9874 33.7243C99.9671 33.7651 99.9671 33.8265 100.028 33.8673C100.048 33.8878 102.731 35.5845 103.138 37.9149C103.138 37.9353 103.179 37.9762 103.219 37.9762Z" fill="#472938"/>
<path d="M83.9497 215.537C83.8684 215.966 82.9131 217.376 78.0959 217.806C73.2788 218.235 67.3843 216.477 64.4778 216.15C62.0387 215.884 58.9289 214.964 57.9939 214.658C57.8313 214.617 57.7094 214.453 57.7094 214.269C57.7094 213.983 57.7297 213.513 57.75 212.94C61.6932 213.002 67.2624 214.474 73.9495 215.394C78.9903 216.089 82.3846 214.76 83.8684 213.963C83.9497 214.494 83.97 215.005 83.9497 215.537Z" fill="#3B2645"/>
<path d="M58.3602 203.537C60.1285 203.7 60.8602 205.172 61.7139 205.662C62.5676 206.153 65.0879 206.358 64.8644 203.148C64.6408 199.939 67.1002 198.978 67.1002 198.978C67.7709 198.998 69.5799 202.596 72.6491 206.48C75.7182 210.364 83.0761 212.408 83.4013 212.531C83.5842 212.592 83.7265 213.267 83.8281 213.962C82.3444 214.739 78.95 216.088 73.9092 215.393C67.2425 214.473 61.6529 213.001 57.7098 212.94C57.7707 210.834 57.8927 207.237 58.0959 205.703C58.2179 205.111 58.2789 204.334 58.3602 203.537Z" fill="#FF8A00"/>
<path d="M64.864 203.169C65.0672 206.378 62.5672 206.174 61.7135 205.683C60.8598 205.192 60.1078 203.721 58.3598 203.557C58.5224 201.492 58.6444 199.285 58.6444 199.285L67.1201 198.999C67.0998 198.999 64.6607 199.98 64.864 203.169Z" fill="#FFD3C0"/>
<path d="M74.1738 211.1C70.1899 210.732 64.8646 203.864 64.8646 203.864C64.885 203.639 64.885 203.394 64.8646 203.169C64.6614 199.959 67.1005 198.999 67.1005 198.999C67.7712 199.019 69.5802 202.617 72.6493 206.501C73.8282 208.013 75.6778 209.24 77.4868 210.18C76.5518 210.916 75.373 211.243 74.1738 211.1Z" fill="#3B2645"/>
<path d="M98.178 214.31C97.8325 215.394 95.617 215.782 90.7185 215.782C85.8201 215.782 83.4826 207.033 81.4907 205.254C79.4988 203.496 75.3727 197.445 75.3727 196.403C75.3727 196.096 75.9825 195.34 76.8565 194.4C77.7305 196.28 79.6817 200.062 82.5477 202.781C84.9257 205.05 85.0274 212.675 90.9421 214.085C93.7064 214.739 96.2877 214.003 98.239 213.043C98.3203 213.472 98.2796 213.901 98.178 214.31Z" fill="#3B2645"/>
<path d="M82.9135 188.532C85.007 190.781 84.3363 193.52 84.4379 194.624C84.5395 195.728 88.2997 196.014 88.8892 195.769C89.4786 195.523 90.1087 194.603 91.2876 194.624C91.999 194.644 92.6494 194.992 93.0356 195.585C93.3405 199.489 93.8893 204.129 94.1332 205.969C94.5397 209.015 96.2877 209.792 97.1617 210.405C97.7715 210.814 98.178 212.02 98.2593 213.063C96.308 214.023 93.7267 214.759 90.9624 214.105C85.0273 212.715 84.946 205.07 82.5679 202.801C79.702 200.082 77.7508 196.321 76.8768 194.419C78.9906 192.13 82.6492 188.839 82.9135 188.532Z" fill="#FF8A00"/>
<path d="M91.3088 194.604C90.1096 194.583 89.4998 195.503 88.9104 195.748C88.321 195.994 84.5607 195.707 84.4591 194.604C84.3575 193.5 85.0282 190.76 82.9347 188.512C83.3005 188.062 84.5607 185.711 84.5607 185.711L92.9145 189.861C92.7723 190.842 92.8739 193.05 93.0771 195.564C92.6706 194.971 91.9999 194.624 91.3088 194.604Z" fill="#FFD3C0"/>
<path d="M92.2026 208.34C89.2351 207.257 88.9099 195.748 88.9099 195.748C89.4993 195.503 90.1294 194.583 91.3083 194.603C92.0197 194.624 92.6701 194.971 93.0563 195.564C93.3612 199.469 93.91 204.109 94.1539 205.949C94.2555 206.889 94.5807 207.789 95.0889 208.586C94.1132 208.749 93.1173 208.647 92.2026 208.34Z" fill="#3B2645"/>
<path d="M57.1205 81.0889C57.1205 81.0889 46.3886 99.3641 46.3886 108.624C46.3886 117.885 55.6164 148.854 55.779 153.025C55.9416 157.195 52.6692 166.312 53.7058 175.511C54.7424 184.71 58.6449 199.265 58.6449 199.265C58.6449 199.265 63.8889 200.062 67.1207 198.978C67.1207 198.978 67.263 171.627 69.1736 160.445C71.0842 149.263 72.5679 125.571 72.5679 125.571C72.5679 125.571 92.1821 146.892 92.8122 150.428C93.4423 153.965 89.8447 156.295 88.1373 166.966C86.43 177.637 84.5397 185.732 84.5397 185.732C84.5397 185.732 88.4016 190.311 92.8935 189.882C92.8935 189.882 109.621 152.002 108.666 147.055C107.711 142.108 88.3609 105.681 87.6495 101.367C86.9381 97.0541 86.43 91.5757 85.5357 85.9541L57.1205 81.0889Z" fill="#FF8A00"/>
<path d="M70.4127 93.3749C63.6239 92.2301 58.2376 88.1417 54.9652 84.9936C56.2254 82.6223 57.1197 81.1096 57.1197 81.1096L85.5552 85.9544C85.7585 87.2218 85.9414 88.4892 86.104 89.7362C83.482 91.7395 78.1567 94.6832 70.4127 93.3749Z" fill="#3B2645"/>
<g opacity="0.5">
<path opacity="0.5" d="M72.5468 125.571V116.985C72.5468 116.985 75.1079 111.875 75.3518 107.603L74.7623 120.195L80.3315 134.279L72.5468 125.571Z" fill="#543753"/>
</g>
<path d="M85.5356 74.3832C84.9462 77.3064 85.5356 85.9534 85.5356 85.9534C85.5356 85.9534 84.1128 89.1628 76.4704 90.4302C68.828 91.6976 57.1205 81.0882 57.1205 81.0882C58.2181 78.5943 58.401 75.7324 58.3197 73.5246C75.3729 70.8876 85.5356 74.3832 85.5356 74.3832Z" fill="#FFD3C0"/>
<path d="M57.8729 78.7985C58.2591 77.0609 58.4014 75.3029 58.3201 73.5244C60.3729 73.1974 62.3242 72.9725 64.1738 72.809L63.7063 76.9383L57.8729 78.7985Z" fill="#DE835C"/>
<path d="M75.5769 52.7356C64.8044 51.7544 61.532 42.535 60.5563 37.3836L63.4426 36.566L77.5079 35.135L81.6339 36.198C83.8088 43.7411 84.947 53.5738 75.5769 52.7356Z" fill="#FFD3C0"/>
<path d="M52.4662 39.6111L56.7752 38.4254C59.4989 62.0156 54.3768 61.3819 54.3768 61.3819L52.9541 57.641L52.4662 39.6111Z" fill="#FFD3C0"/>
<path d="M57.9546 69.9684C54.3163 66.6976 54.3773 61.3827 54.3773 61.3827C54.3773 61.3827 59.5196 62.0164 56.7757 38.4263L60.5562 37.3837C61.5522 42.5351 64.8246 51.7749 75.5768 52.7357C84.9469 53.5738 83.8087 43.7412 81.6135 36.2185L85.8616 37.3224C85.8616 37.3224 90.8007 53.5329 90.9429 59.3998C91.0446 63.1612 88.8088 68.2512 87.1624 71.4198C76.1256 66.6976 57.9546 69.9684 57.9546 69.9684Z" fill="#FF8A00"/>
<path d="M58.3206 73.525C58.28 72.3189 58.158 71.1333 57.9344 69.9476C57.9344 69.9476 76.1055 66.6769 87.1626 71.399C86.2479 73.1775 85.5366 74.3631 85.5366 74.3631C85.5366 74.3631 75.3738 70.888 58.3206 73.525Z" fill="#3B2645"/>
<path d="M56.7757 38.4056C56.7757 38.4056 54.7838 49.567 62.1011 62.6908L62.9344 71.6036L62.223 91.9434C62.223 91.9434 65.4751 92.8224 67.2028 92.8224C68.9304 92.8224 71.3492 93.6197 71.3492 93.6197L71.6947 90.3285L73.524 90.3694C73.524 90.3694 74.0525 83.6848 71.776 78.2064C69.4996 72.7279 68.402 69.4163 68.0361 63.7743C67.6703 58.1322 68.9304 50.5687 64.7637 39.0598L56.7757 38.4056Z" fill="white"/>
<path d="M52.9337 57.6413L54.1532 53.001L54.3564 61.3618L52.9337 57.6413Z" fill="#DE835C"/>
<path d="M76.5118 89.1839C76.2985 89.1839 76.1256 88.9185 76.1256 88.5911C76.1256 88.2637 76.2985 87.9983 76.5118 87.9983C76.725 87.9983 76.8979 88.2637 76.8979 88.5911C76.8979 88.9185 76.725 89.1839 76.5118 89.1839Z" fill="#DE835C"/>
<path d="M76.8162 28.7156C76.8162 28.7156 76.7349 37.1377 81.2472 48.34C85.7594 59.5422 86.1253 63.4875 85.0684 74.3627C84.0114 85.2379 86.6131 93.9258 86.6131 93.9258C86.6131 93.9258 98.6459 96.4402 103.422 89.9192C103.422 89.9192 97.5279 76.2638 94.8856 59.9511C92.2433 43.6383 85.8611 37.2808 85.8611 37.2808C85.8611 37.2808 84.6415 33.7648 81.8773 34.1327C81.8773 34.1736 79.6414 28.5725 76.8162 28.7156Z" fill="white"/>
<path d="M91.8579 83.112C91.9189 83.112 91.9596 83.0711 91.9596 83.0098C92.7726 67.8009 88.3823 53.982 86.0245 46.5616L85.8619 46.0709C85.8416 46.0096 85.7806 45.9892 85.7399 46.0096C85.679 46.0301 85.6586 46.0914 85.679 46.1323L85.8416 46.6229C88.1993 54.0434 92.5693 67.8213 91.7563 82.9893C91.7563 83.0711 91.7969 83.112 91.8579 83.112Z" fill="#472938"/>
<path d="M84.8037 43.0252H84.824C84.885 43.0047 84.9053 42.9434 84.885 42.9025C83.1979 37.0766 81.9784 34.1738 81.9581 34.1533C81.9377 34.092 81.8768 34.0716 81.8158 34.092C81.7548 34.1125 81.7345 34.1738 81.7548 34.2351C81.7751 34.2556 82.9947 37.1583 84.6614 42.9639C84.7223 42.9843 84.763 43.0252 84.8037 43.0252Z" fill="#472938"/>
<path d="M92.2031 55.5968H92.2234C92.2844 55.5763 92.3047 55.5354 92.3047 55.4741C90.5364 48.5851 86.0037 37.4033 85.9631 37.2807C85.9428 37.2193 85.8818 37.1989 85.8208 37.2193C85.7598 37.2398 85.7395 37.3011 85.7598 37.3624C85.8005 37.4646 90.3331 48.6465 92.1014 55.515C92.1014 55.5559 92.1421 55.5968 92.2031 55.5968Z" fill="#472938"/>
<path d="M71.6736 90.4511C71.7346 90.4511 71.7753 90.4102 71.7753 90.3489C71.7753 90.2876 71.8159 83.4599 70.4947 80.2914C70.4744 80.2301 70.4134 80.2096 70.3524 80.2301C70.2915 80.2505 70.2711 80.3118 70.2915 80.3732C71.5923 83.5008 71.5517 90.2876 71.5517 90.3489C71.572 90.4102 71.6126 90.4511 71.6736 90.4511Z" fill="#472938"/>
<path d="M69.5605 89.286C69.6215 89.286 69.6621 89.2451 69.6621 89.1838C69.6621 89.1225 69.8857 83.4191 68.6662 79.1263C67.4466 74.8743 67.1214 67.6174 67.1214 67.5561C67.1214 67.4947 67.0808 67.4539 67.0198 67.4539C66.9588 67.4539 66.9181 67.4947 66.9181 67.5561C66.9181 67.6378 67.2434 74.8948 68.4629 79.1876C69.6825 83.4396 69.4589 89.1225 69.4589 89.1633C69.4589 89.2247 69.4995 89.286 69.5605 89.286Z" fill="#472938"/>
<path d="M65.414 80.1274C65.4343 80.1274 65.4343 80.1274 65.414 80.1274C65.4953 80.1069 65.5156 80.066 65.5156 80.0047C64.7229 75.8345 65.353 67.2489 65.353 67.1466C65.353 67.0853 65.3124 67.0444 65.2514 67.0444C65.1904 67.0444 65.1498 67.0853 65.1498 67.1466C65.1498 67.2284 64.5197 75.855 65.3124 80.0456C65.3327 80.0865 65.3733 80.1274 65.414 80.1274Z" fill="#472938"/>
<path d="M63.9096 63.651C63.9909 63.6306 64.0112 63.5897 64.0112 63.5284C63.9909 63.4466 62.7307 55.6377 61.5112 52.0399C61.4909 51.9786 61.4299 51.9582 61.3892 51.9786C61.3283 51.9991 61.3079 52.0604 61.3283 52.1013C62.5275 55.6786 63.808 63.4671 63.808 63.5488C63.808 63.6101 63.8486 63.651 63.9096 63.651Z" fill="#472938"/>
<path d="M65.4137 62.7925C65.4543 62.7925 65.495 62.7516 65.5153 62.7107C65.5153 62.6698 66.1861 59.2151 65.3121 52.9803C65.3121 52.9189 65.2511 52.8781 65.1901 52.8985C65.1291 52.8985 65.0885 52.9598 65.1088 53.0212C65.9625 59.2356 65.3121 62.6494 65.3121 62.6903C65.3121 62.7311 65.3527 62.7925 65.4137 62.7925Z" fill="#472938"/>
<path d="M63.5643 22.2148L63.4423 36.5652H77.6499L76.2881 23.7684L63.5643 22.2148Z" fill="#FFD3C0"/>
<path d="M76.2876 23.7684C76.2876 23.7684 74.2144 37.3624 63.5028 29.39L63.5638 22.2148L76.2876 23.7684Z" fill="#DE835C"/>
<path d="M78.5726 21.5897C77.6549 21.3269 77.3345 19.6175 77.857 17.7715C78.3795 15.9256 79.5471 14.6421 80.4648 14.9049C81.3825 15.1676 81.7029 16.8771 81.1804 18.723C80.6579 20.569 79.4904 21.8524 78.5726 21.5897Z" fill="#DE835C"/>
<path d="M63.5434 23.5645C63.5434 23.5645 63.584 27.0601 63.7466 29.3905C63.7466 29.3905 65.4133 34.685 64.6613 39.6115C63.9092 44.538 64.1531 48.1767 65.332 49.9347L64.0109 49.301C64.0109 49.301 57.2425 49.3828 57.3238 39.4684C57.3238 39.4684 53.9091 33.9082 59.0311 27.3871C64.1531 20.8661 61.2669 17.3092 61.2669 17.3092C61.2669 17.3092 63.3808 18.3722 63.5434 23.5645Z" fill="#3B2645"/>
<path d="M61.3082 17.2885C61.3082 17.2885 63.3814 18.3719 63.5643 23.5642C63.5643 23.5642 63.605 27.0598 63.7676 29.3902C62.9546 27.2233 62.2635 25.0156 61.6944 22.7669C62.8529 19.1896 61.3082 17.2885 61.3082 17.2885Z" fill="#3B2645"/>
<path d="M60.4553 18.4179C59.9038 16.5806 60.1972 14.8663 61.1106 14.589C62.0241 14.3117 63.2116 15.5763 63.7631 17.4136C64.3146 19.2509 64.0212 20.9652 63.1078 21.2425C62.1944 21.5199 61.0068 20.2552 60.4553 18.4179Z" fill="#FFD3C0"/>
<path d="M79.7426 8.21251C79.7426 8.21251 80.1085 18.8424 78.706 23.2988C77.3036 27.7551 73.8076 30.5761 71.5108 30.5761C69.214 30.5761 64.7424 28.8999 62.9944 21.7452C61.2464 14.5904 61.4497 5.61636 68.9498 3.26552C76.4499 0.914684 79.7426 5.84122 79.7426 8.21251Z" fill="#FFD3C0"/>
<path d="M62.1412 15.8987C62.1412 15.8987 62.5477 13.0163 64.0924 11.4423C65.6372 9.86825 68.808 8.80526 68.2185 6.29089C68.2185 6.29089 70.2511 7.49697 73.9097 7.49697C77.5683 7.49697 80.0887 10.3589 79.7228 15.2241L80.1903 14.897C80.1903 14.897 81.9383 7.98758 79.8041 4.63508C77.6496 1.28258 72.5682 -0.843399 68.4624 0.321799C64.3567 1.487 59.7428 4.24668 60.1493 9.64339C60.2712 11.3605 60.5151 13.0572 60.881 14.7335C60.881 14.713 62.0599 14.897 62.1412 15.8987Z" fill="#3B2645"/>
<path d="M76.47 16.7367C76.7952 16.7367 77.0594 16.4914 77.0798 16.1643L77.1001 15.7964C77.1001 15.4693 76.8562 15.2035 76.531 15.1831C76.2058 15.1831 75.9415 15.4284 75.9212 15.7555L75.9009 16.1234C75.9009 16.4505 76.1448 16.7367 76.47 16.7367Z" fill="#472938"/>
<path d="M67.384 17.0436C67.7092 17.0027 67.9328 16.6961 67.8718 16.369L67.8108 16.0011C67.7702 15.674 67.4653 15.4491 67.1401 15.5105C66.8149 15.5513 66.5913 15.858 66.6523 16.1851L66.7132 16.553C66.7742 16.8801 67.0791 17.0845 67.384 17.0436Z" fill="#472938"/>
<path d="M78.584 14.2425C78.584 14.2425 78.0352 13.6293 76.7547 13.6088C75.4742 13.5884 75.0677 13.711 74.9864 13.3022C74.905 12.8934 77.649 11.8508 78.584 14.2425Z" fill="#472938"/>
<path d="M65.2304 14.0584C65.2304 14.0584 65.8402 13.4861 67.2223 13.5474C68.6045 13.6087 69.011 13.7518 69.1126 13.3634C69.2143 12.975 66.3077 11.7281 65.2304 14.0584Z" fill="#472938"/>
<path d="M68.8489 23.0945L74.2148 22.9105C74.2148 22.9105 73.9303 26.6105 71.5319 26.5492C69.1334 26.4879 68.8489 23.0945 68.8489 23.0945Z" fill="white"/>
<path d="M71.8567 21.4795C72.2022 21.4795 72.5274 21.3977 72.7917 21.2751C73.0152 21.1524 73.1372 20.9889 73.1982 20.8049C73.3201 20.3347 73.0762 19.19 72.7917 17.759L72.69 17.3093C72.2226 14.9993 73.4827 14.3656 73.5437 14.3452C73.6047 14.3248 73.625 14.243 73.6047 14.1817C73.5844 14.1203 73.5031 14.0999 73.4421 14.1203C73.3811 14.1408 71.9583 14.8563 72.4665 17.3502L72.5681 17.7999C72.8526 19.1491 73.0762 20.3347 72.9746 20.7436C72.9339 20.8662 72.8526 20.9684 72.69 21.0706C72.3039 21.2751 71.6941 21.3159 71.125 21.132C71.064 21.1115 70.9827 21.1524 70.9624 21.2137C70.9421 21.2751 70.9827 21.3568 71.0437 21.3773C71.3079 21.4386 71.5925 21.4795 71.8567 21.4795Z" fill="#472938"/>
<path d="M52.4661 39.6115C52.4661 39.6115 48.2181 39.8159 46.1042 45.9076C43.9904 51.9789 37.3033 69.6409 37.039 72.8912C36.7748 76.1414 37.7708 78.758 42.3847 79.7188C46.3075 80.5365 56.7142 77.4906 57.5679 77.4089C58.4215 77.3271 60.8403 77.2658 61.6533 75.8553C62.4663 74.4448 62.9135 72.053 62.9135 72.053C62.9135 72.053 65.0477 71.2353 65.4135 71.2353C65.7794 71.2353 68.3607 71.3989 68.6046 71.0105C68.8485 70.6221 68.8485 69.8862 68.7672 69.5387C68.7672 69.5387 69.2144 68.721 69.0721 68.2304C69.0721 68.2304 69.5396 67.0447 69.499 66.779C69.4583 66.5132 68.1981 65.7364 67.9339 65.6751C67.6697 65.6138 64.6208 65.4911 64.6208 65.4911C64.6208 65.4911 65.5355 64.3668 65.6981 64.3259C65.8607 64.285 68.0355 64.3668 68.0355 64.3668L68.0762 64.9187C68.0762 64.9187 68.6656 64.4077 68.7672 64.1215C68.8689 63.8353 68.6859 62.9972 68.442 62.895C68.1981 62.7928 65.3119 61.832 64.4379 62.1386C63.5639 62.4453 60.7793 64.1624 60.4134 64.7348C60.0476 65.3071 57.9947 71.0514 57.3443 71.4806C56.6939 71.9099 53.3605 72.3801 48.0352 71.2353L55.6166 51.9585L52.4661 39.6115Z" fill="#FFD3C0"/>
</svg>
