<svg width="206" height="164" viewBox="0 0 206 164" fill="none" xmlns="http://www.w3.org/2000/svg">
<path d="M86.8684 11.5153C86.7588 12.0974 88.6223 24.4733 90.1571 30.2723C91.6918 36.0712 96.9908 52.1189 97.9589 54.5286L105.023 47.2754C105.023 47.2754 99.2562 35.7797 98.7079 32.0912C98.1597 28.4031 95.6384 22.2885 93.7749 18.3089C91.9114 14.3297 90.4862 10.2532 90.4862 10.2532L86.8684 11.5153Z" fill="#FFBF9D"/>
<path d="M88.1121 0C88.1121 0 86.7834 1.61368 86.4984 2.51558C86.2135 3.41747 85.644 6.597 85.6918 7.8787C85.7392 9.16 86.9592 12.6437 86.9592 12.6437L91.3133 12.4867L90.8362 10.7622C90.8362 10.7622 94.8514 8.40079 94.7565 7.40404C94.6617 6.4073 91.4818 1.66151 91.1968 1.42398C90.9118 1.18685 90.2 1.42398 89.8206 1.70894C89.4408 1.9939 88.3492 3.70243 88.3492 3.70243C88.3492 3.70243 88.8636 2.05318 89.0136 1.47181C89.3934 -5.84846e-07 88.1121 0 88.1121 0Z" fill="#FFBF9D"/>
<path d="M131.199 25.8856C133.412 26.3897 135.296 28.1182 135.825 30.1297C136.354 32.1412 135.5 34.3285 133.729 35.5002C134.685 36.2488 134.723 37.7464 133.804 38.4381C132.885 39.1299 131.249 38.8355 130.595 37.86C130.847 38.9725 129.947 40.0775 128.764 40.3547C127.58 40.6315 126.244 40.1879 125.303 39.4083C124.362 38.6286 123.772 37.5567 123.401 36.4659L125.248 27.7196C126.563 26.1284 128.987 25.3815 131.199 25.8856Z" fill="#263238"/>
<path d="M128.542 38.9747C129.752 38.1137 130.169 36.3091 129.46 35.0045C130.228 34.4762 130.357 33.3389 130.004 32.4758C129.65 31.6128 128.932 30.9607 128.237 30.3388C128.416 28.1609 126.562 26.0248 124.381 25.8952C123.798 24.0161 121.617 23.0836 119.65 23.0586C119.17 23.0525 118.678 23.084 118.219 22.9417C117.883 22.8375 117.581 22.6445 117.261 22.4977C115.499 21.6895 113.279 22.4262 112.041 23.9176C111.842 24.156 111.66 24.4156 111.407 24.5942C111.075 24.8289 110.658 24.8992 110.278 25.0427C109.455 25.3526 108.783 26.0399 108.491 26.8694C108.243 27.5738 108.239 28.4009 107.74 28.9569C107.49 29.2358 107.138 29.4148 106.918 29.7174C106.278 30.5939 107.059 31.9284 106.547 32.8846C106.442 33.0797 106.29 33.2448 106.17 33.4309C105.925 33.8115 105.825 34.2829 105.893 34.7305C105.947 35.076 106.096 35.4227 106.014 35.7624C105.952 36.02 105.765 36.2269 105.639 36.4595C105.329 37.029 105.925 39.7731 106.349 40.2637L121.997 45.196C123.259 45.3166 124.555 44.5357 125.037 43.3644C125.117 43.1694 125.187 42.9527 125.36 42.8321C125.507 42.729 125.697 42.7196 125.873 42.6845C127.049 42.4506 127.595 41.1006 127.837 39.926C127.871 39.7617 127.904 39.5928 127.992 39.4498C128.12 39.2417 128.343 39.1161 128.542 38.9747Z" fill="#263238"/>
<path d="M124.04 37.6243C124.934 34.8614 124.167 31.1385 121.823 28.9382C120.346 27.551 118.991 27.1311 118.109 26.7456C116.134 25.8813 114.171 26.3915 114.171 26.3915C113.244 26.3306 109.188 28.2648 108.062 31.3638C106.811 34.8066 105.419 39.0589 105.066 41.7981C104.356 47.306 108.193 49.1605 108.193 49.1605C108.196 49.1527 105.16 57.7506 105.16 57.7506L117.19 56.8102L124.04 37.6243Z" fill="#FFBF9D"/>
<path d="M112.748 43.2861C112.804 43.0236 112.812 42.387 112.688 42.1712C112.441 41.7402 111.861 41.8915 111.387 42.0195C110.914 42.1474 110.555 42.2873 110.555 42.2873L110.601 43.1029C110.711 43.4725 110.845 43.9656 111.196 44.125C111.251 44.1499 111.307 44.172 111.364 44.1904C111.641 44.2808 111.899 44.329 112.181 44.2006C112.462 44.0731 112.679 43.6103 112.748 43.2861Z" fill="#FF9A6C"/>
<path d="M107.925 35.494C107.975 35.6105 108.612 35.4245 109.321 35.6873C110.034 35.94 110.421 36.4977 110.53 36.4392C110.582 36.4147 110.556 36.2286 110.39 35.9797C110.227 35.7327 109.904 35.4326 109.461 35.2716C109.018 35.1113 108.585 35.1371 108.31 35.225C108.03 35.312 107.899 35.4404 107.925 35.494Z" fill="#263238"/>
<path d="M111.243 40.7218C111.258 40.6818 110.83 40.4712 110.126 40.1625C109.946 40.089 109.781 40.0007 109.787 39.8649C109.783 39.7181 109.919 39.5407 110.072 39.3518C110.378 38.954 110.699 38.5374 111.035 38.1004C112.387 36.3138 113.425 34.8219 113.352 34.7683C113.279 34.7144 112.124 36.1191 110.772 37.9062C110.444 38.3481 110.129 38.7692 109.83 39.1723C109.698 39.3625 109.507 39.5661 109.52 39.8719C109.53 40.0252 109.636 40.1654 109.745 40.2325C109.854 40.3036 109.957 40.3363 110.048 40.3686C110.772 40.6249 111.227 40.7623 111.243 40.7218Z" fill="#263238"/>
<path d="M108.198 49.1606C108.198 49.1606 111.694 50.437 115.821 49.3585C115.821 49.3585 112.855 52.5168 107.733 50.4775L108.198 49.1606Z" fill="#FF9A6C"/>
<path d="M110.003 30.9748C110.072 31.1878 110.664 31.2328 111.297 31.4777C111.939 31.7021 112.419 32.0517 112.609 31.9339C112.696 31.8747 112.675 31.6809 112.503 31.4364C112.333 31.1935 111.998 30.9168 111.559 30.7549C111.121 30.5938 110.687 30.588 110.402 30.6637C110.114 30.7381 109.975 30.8734 110.003 30.9748Z" fill="#263238"/>
<path d="M117.468 38.6939C117.356 38.7532 116.976 38.2102 116.257 37.9715C115.543 37.7229 114.893 37.9159 114.844 37.8018C114.819 37.7503 114.956 37.6215 115.241 37.5312C115.522 37.4404 115.962 37.4077 116.408 37.5594C116.855 37.7115 117.175 38.0021 117.335 38.2429C117.5 38.4862 117.522 38.6686 117.468 38.6939Z" fill="#263238"/>
<path d="M119.393 34.1042C119.197 34.2199 118.699 33.8654 118.036 33.6344C117.38 33.383 116.769 33.3319 116.697 33.1181C116.668 33.0163 116.811 32.8826 117.11 32.811C117.404 32.7387 117.852 32.7489 118.306 32.9145C118.759 33.0809 119.106 33.3609 119.281 33.6054C119.46 33.8515 119.481 34.0453 119.393 34.1042Z" fill="#263238"/>
<path d="M121.728 42.363C121.844 41.9713 122.568 41.1802 122.973 41.2338C124.054 41.3765 125.892 42.0065 125.138 44.6361C124.108 48.231 120.712 46.4555 120.734 46.3504C120.753 46.2686 121.327 43.7154 121.728 42.363Z" fill="#FFBF9D"/>
<path d="M122.103 45.3211C122.122 45.3142 122.153 45.3828 122.245 45.4617C122.335 45.5386 122.503 45.622 122.71 45.6057C123.13 45.575 123.622 45.0639 123.826 44.4208C123.929 44.0962 123.949 43.7651 123.907 43.474C123.873 43.1796 123.756 42.947 123.574 42.8587C123.396 42.7602 123.228 42.8358 123.155 42.9241C123.078 43.0108 123.08 43.0893 123.059 43.0901C123.047 43.0962 122.999 43.0079 123.071 42.8677C123.106 42.8002 123.173 42.7274 123.277 42.6829C123.384 42.6375 123.521 42.6379 123.65 42.6906C123.922 42.7896 124.098 43.1158 124.144 43.4355C124.205 43.761 124.189 44.1355 124.074 44.4998C123.844 45.2177 123.279 45.7892 122.716 45.7904C122.444 45.7839 122.255 45.6474 122.17 45.5313C122.084 45.4102 122.088 45.3244 122.103 45.3211Z" fill="#FF9A6C"/>
<path d="M107.252 31.1799C108.11 30.9403 108.754 30.46 108.96 29.5932C109.399 29.8778 110.069 29.4027 110.472 29.0691C110.875 28.7359 111.28 28.6271 111.406 28.1198C111.431 28.0196 111.456 27.9133 111.528 27.8393C111.641 27.7232 111.825 27.7285 111.987 27.7261C112.822 27.7126 113.636 27.2404 114.062 26.522C114.731 27.085 115.543 27.4771 116.401 27.6517C116.614 28.2997 117.175 28.8209 117.838 28.9849C118.499 29.1488 119.24 28.9501 119.731 28.4763C119.816 28.989 120.197 29.4142 120.644 29.6791C121.091 29.944 121.603 30.0728 122.108 30.1983C121.609 31.0986 121.918 32.359 122.776 32.9269C122.892 33.0037 123.028 33.0859 123.051 33.2229C123.076 33.3656 122.966 33.4911 122.879 33.6064C122.324 34.3349 122.563 35.5295 123.356 35.9874C122.635 36.2695 122.386 37.3399 122.908 37.9114C123.015 38.0288 123.158 38.1735 123.093 38.3186C123.069 38.3738 123.018 38.4123 122.969 38.4482C122.598 38.7246 122.217 39.0337 122.054 39.4671C121.892 39.9004 122.045 40.4859 122.482 40.6359C122.188 40.7745 121.892 40.9773 121.795 41.2876C121.698 41.5979 121.92 42.0084 122.244 41.9814C122.382 41.97 124.271 42.1449 124.381 42.0611C125.802 40.9822 124.974 39.0836 125.377 37.3456C125.779 35.6076 125.67 33.7777 125.253 32.043C125.078 31.3152 124.847 30.5953 124.488 29.9391C124.078 29.1909 123.511 28.5429 122.943 27.906C122.203 27.0752 121.436 26.2379 120.469 25.6868C118.668 24.6602 116.45 24.771 114.398 25.0735C113.618 25.1884 112.832 25.3299 112.111 25.6488C111.248 26.0302 110.513 26.6504 109.838 27.3095C108.862 28.2616 107.968 29.3352 107.458 30.5994" fill="#263238"/>
<path d="M106.919 29.7176C106.919 29.7176 106.999 29.5802 107.226 29.3897C107.338 29.2928 107.486 29.1857 107.64 29.0377C107.792 28.8889 107.938 28.6857 108.039 28.4273C108.146 28.171 108.213 27.8676 108.286 27.5356C108.359 27.2049 108.442 26.8365 108.629 26.4792C108.812 26.1227 109.081 25.7764 109.434 25.489C109.611 25.3455 109.809 25.2171 110.025 25.1116C110.242 25.0041 110.479 24.9309 110.717 24.8577C110.953 24.7829 111.195 24.6991 111.401 24.5487C111.607 24.3986 111.769 24.1868 111.94 23.9742C112.283 23.545 112.713 23.1529 113.221 22.8454C113.726 22.5376 114.302 22.2943 114.927 22.1876C115.237 22.123 115.56 22.1144 115.886 22.1185C116.21 22.1427 116.541 22.1848 116.859 22.2907C117.02 22.3373 117.175 22.4072 117.331 22.4718C117.484 22.5441 117.633 22.6247 117.783 22.6999C118.081 22.8565 118.399 22.9607 118.741 22.9845C119.08 23.0163 119.429 22.9934 119.785 23.0094C120.141 23.0163 120.499 23.0646 120.855 23.1308C121.211 23.1979 121.562 23.3046 121.909 23.4321C122.253 23.5658 122.586 23.7355 122.903 23.937C123.527 24.3492 124.08 24.9317 124.356 25.6627C124.382 25.7351 124.409 25.8075 124.436 25.8786L124.386 25.839C125.544 25.9101 126.589 26.5377 127.289 27.377C127.994 28.2163 128.378 29.3014 128.292 30.3435L128.274 30.299C128.647 30.6326 129.015 30.9658 129.335 31.3345C129.654 31.7021 129.927 32.1093 130.089 32.5566C130.248 33.0046 130.283 33.4854 130.189 33.9323C130.098 34.3779 129.854 34.7937 129.488 35.0431L129.502 34.9822C129.862 35.647 129.919 36.4058 129.783 37.0677C129.647 37.7328 129.324 38.324 128.882 38.739C128.777 38.8486 128.654 38.9336 128.539 39.0236C128.419 39.1065 128.3 39.1818 128.197 39.2705C128.094 39.3592 128.012 39.463 127.965 39.5845C127.916 39.7047 127.893 39.8335 127.865 39.9598C127.756 40.4659 127.609 40.9218 127.424 41.3094C127.238 41.6961 127.014 42.0175 126.764 42.2407C126.517 42.4676 126.254 42.5943 126.034 42.6573C125.813 42.7248 125.635 42.7235 125.524 42.7628C125.412 42.7959 125.364 42.8364 125.361 42.8323C125.361 42.8323 125.406 42.7873 125.519 42.7493C125.631 42.7047 125.81 42.7006 126.026 42.6303C126.241 42.5641 126.496 42.4357 126.736 42.2104C126.978 41.9884 127.194 41.6704 127.375 41.2869C127.555 40.9022 127.696 40.4496 127.801 39.9467C127.827 39.8212 127.85 39.6887 127.902 39.5595C127.951 39.4287 128.042 39.311 128.15 39.2177C128.258 39.1233 128.379 39.0464 128.497 38.9639C128.608 38.8755 128.728 38.7921 128.829 38.685C129.257 38.2791 129.569 37.7005 129.699 37.0517C129.829 36.4058 129.77 35.6686 129.42 35.028L129.4 34.9908L129.435 34.9671C129.778 34.732 130.008 34.3403 130.094 33.9135C130.182 33.4858 130.148 33.0214 129.994 32.5921C129.837 32.1616 129.571 31.7651 129.256 31.4045C128.941 31.0426 128.576 30.7127 128.203 30.3799L128.183 30.3623L128.185 30.3358C128.268 29.3251 127.893 28.2683 127.203 27.4494C126.521 26.6305 125.501 26.0209 124.379 25.9526L124.343 25.9493L124.329 25.9121C124.303 25.8435 124.277 25.7735 124.251 25.7036C123.985 24.9984 123.451 24.4338 122.842 24.0311C122.533 23.834 122.207 23.6676 121.869 23.536C121.529 23.4109 121.185 23.3054 120.834 23.2392C120.484 23.1737 120.132 23.1259 119.782 23.1186C119.433 23.1026 119.081 23.1251 118.731 23.092C118.556 23.076 118.382 23.0466 118.214 22.9955C118.046 22.944 117.888 22.8712 117.736 22.7952C117.583 22.7187 117.436 22.6382 117.287 22.5674C117.135 22.5045 116.985 22.4358 116.829 22.3904C116.519 22.2866 116.198 22.2453 115.881 22.2207C115.564 22.2162 115.248 22.2236 114.944 22.2862C114.332 22.3884 113.767 22.6259 113.27 22.926C112.77 23.2261 112.348 23.6083 112.008 24.0298C111.837 24.2404 111.67 24.4583 111.45 24.6169C111.23 24.776 110.979 24.8602 110.74 24.9346C110.5 25.0074 110.269 25.0773 110.058 25.1807C109.847 25.2821 109.653 25.4064 109.48 25.5454C109.132 25.8242 108.867 26.1615 108.685 26.509C108.5 26.8566 108.415 27.2176 108.338 27.5483C108.262 27.8791 108.192 28.1853 108.08 28.4449C107.974 28.707 107.821 28.9138 107.664 29.063C107.504 29.211 107.354 29.3145 107.241 29.4081C107.127 29.4997 107.047 29.5782 106.996 29.6334C106.944 29.6878 106.922 29.7192 106.919 29.7176Z" fill="#AD589B"/>
<path d="M122.932 24.6085C122.924 24.615 122.853 24.5263 122.704 24.3889C122.555 24.2532 122.322 24.07 121.99 23.929C121.662 23.7871 121.231 23.6902 120.761 23.7511C120.294 23.8112 119.793 24.0259 119.4 24.4045C119.288 24.5128 119.183 24.6334 119.102 24.7573C119.023 24.8812 118.975 25.0234 119.016 25.1428L119.067 25.2908L118.935 25.207C118.571 24.9768 118.139 24.931 117.787 25.01C117.43 25.0868 117.158 25.2904 116.982 25.4932C116.804 25.698 116.715 25.9016 116.667 26.0423C116.62 26.1845 116.607 26.2667 116.599 26.2655C116.596 26.2651 116.596 26.2442 116.599 26.2046C116.602 26.1645 116.612 26.1061 116.631 26.0316C116.669 25.8841 116.75 25.6682 116.929 25.4482C117.104 25.2307 117.387 25.0067 117.766 24.918C118.139 24.8276 118.599 24.8693 118.994 25.115L118.912 25.1792C118.854 25.0091 118.922 24.8337 119.007 24.6988C119.097 24.5611 119.203 24.4396 119.322 24.3243C119.735 23.9278 120.26 23.7066 120.748 23.6493C121.241 23.5917 121.688 23.7017 122.023 23.8574C122.361 24.0124 122.593 24.2111 122.735 24.3587C122.806 24.4331 122.857 24.4948 122.888 24.5394C122.92 24.5823 122.935 24.606 122.932 24.6085Z" fill="#AD589B"/>
<path d="M127.527 30.4502C127.53 30.4563 127.474 30.4911 127.364 30.5409C127.254 30.5904 127.09 30.6562 126.874 30.7024C126.66 30.747 126.389 30.7736 126.095 30.7049C125.807 30.6378 125.489 30.4731 125.285 30.1718L125.368 30.1832C125.319 30.2208 125.27 30.2597 125.219 30.2993C125.167 30.3361 125.111 30.3688 125.055 30.4044C124.71 30.599 124.335 30.6902 123.994 30.6959C123.653 30.7053 123.347 30.6415 123.108 30.5495C122.868 30.4575 122.694 30.3402 122.581 30.2531C122.473 30.1603 122.42 30.1027 122.424 30.0978C122.438 30.0777 122.663 30.312 123.135 30.4747C123.369 30.554 123.664 30.6068 123.99 30.592C124.316 30.581 124.673 30.4906 124.999 30.3067C125.051 30.2731 125.104 30.2421 125.154 30.2077C125.202 30.1709 125.249 30.1341 125.295 30.099L125.345 30.0605L125.378 30.1104C125.559 30.3823 125.849 30.5401 126.119 30.6092C126.392 30.6799 126.651 30.664 126.86 30.6301C127.281 30.5532 127.52 30.4314 127.527 30.4502Z" fill="#AD589B"/>
<path d="M128.435 34.3373C128.439 34.3394 128.429 34.3606 128.407 34.4007C128.383 34.4383 128.343 34.4947 128.276 34.5503C128.146 34.6644 127.899 34.7772 127.585 34.7629C127.266 34.7523 126.919 34.5843 126.594 34.348C126.43 34.2286 126.26 34.1072 126.094 33.9567C125.933 33.8083 125.767 33.6141 125.733 33.3586C125.731 33.3365 125.729 33.3144 125.727 33.2944L125.804 33.3451C125.379 33.5127 124.953 33.6415 124.551 33.6681C124.15 33.7004 123.782 33.6149 123.514 33.4731C123.242 33.3336 123.067 33.1489 122.977 33.007C122.93 32.9367 122.902 32.8774 122.887 32.8357C122.871 32.7944 122.865 32.7719 122.868 32.7707C122.878 32.7662 122.914 32.852 123.013 32.9816C123.11 33.1108 123.285 33.278 123.549 33.4019C123.811 33.5283 124.158 33.601 124.544 33.5646C124.929 33.5336 125.342 33.406 125.763 33.2396L125.833 33.2118L125.84 33.2903C125.841 33.3071 125.843 33.3255 125.845 33.3439C125.872 33.5548 126.015 33.7323 126.169 33.8749C126.325 34.018 126.496 34.1435 126.654 34.2629C126.97 34.4996 127.296 34.6628 127.589 34.6828C127.884 34.7061 128.118 34.6125 128.249 34.5152C128.383 34.4187 128.426 34.3304 128.435 34.3373Z" fill="#AD589B"/>
<path d="M111.899 44.232C111.89 44.2013 112.203 44.2218 112.441 43.88C112.663 43.5533 112.776 42.92 112.631 42.3252C112.586 42.1837 112.506 42.0872 112.388 42.0545C112.268 42.0198 112.123 42.0353 111.984 42.0537C111.702 42.0893 111.448 42.1306 111.236 42.1686C110.811 42.2446 110.548 42.3023 110.539 42.2728C110.531 42.2463 110.78 42.1371 111.203 42.0214C111.414 41.9642 111.669 41.9061 111.955 41.8591C112.097 41.8374 112.261 41.8059 112.446 41.8534C112.639 41.8979 112.787 42.0844 112.834 42.2593C112.999 42.9519 112.852 43.5979 112.561 43.9707C112.411 44.1547 112.224 44.2344 112.097 44.2532C111.967 44.2729 111.897 44.2442 111.899 44.232Z" fill="#263238"/>
<path d="M136.57 27.6222C136.543 27.6275 136.547 27.3438 136.336 26.9063C136.134 26.482 135.673 25.874 134.855 25.5997C134.453 25.4636 133.969 25.4517 133.495 25.6075C133.025 25.7657 132.565 26.085 132.245 26.5425C131.931 26.9902 131.725 27.6185 131.977 28.1566C132.088 28.4211 132.363 28.585 132.637 28.5049C132.909 28.4276 133.138 28.1823 133.279 27.9031C133.575 27.3385 133.571 26.6569 133.361 26.0915C133.157 25.5171 132.745 25.0576 132.251 24.7922C131.251 24.2481 130.121 24.3703 129.361 24.7411C128.578 25.1115 128.088 25.65 127.789 26.0269C127.489 26.4116 127.366 26.6557 127.349 26.6459C127.342 26.6426 127.369 26.5797 127.426 26.4627C127.487 26.3483 127.578 26.179 127.722 25.9775C128.006 25.5788 128.489 25.0093 129.296 24.6054C130.082 24.2019 131.269 24.0482 132.345 24.6201C132.878 24.8981 133.336 25.3998 133.558 26.0196C133.787 26.63 133.798 27.372 133.468 28.002C133.307 28.3115 133.056 28.6026 132.692 28.7089C132.511 28.7588 132.308 28.7379 132.144 28.6443C131.977 28.5523 131.861 28.4023 131.789 28.2457C131.646 27.9301 131.626 27.5854 131.7 27.2694C131.773 26.9591 131.91 26.6745 132.085 26.4292C132.436 25.9374 132.932 25.6017 133.441 25.439C133.952 25.2788 134.478 25.3021 134.903 25.4566C135.768 25.769 136.224 26.4227 136.411 26.872C136.606 27.3364 136.57 27.6222 136.57 27.6222Z" fill="#263238"/>
<path d="M105.038 25.7279C105.033 25.7246 105.048 25.6849 105.092 25.6175C105.137 25.5504 105.218 25.4597 105.347 25.373C105.475 25.2871 105.656 25.2107 105.88 25.1919C106.099 25.1698 106.373 25.225 106.601 25.3987C107.071 25.7532 107.271 26.427 107.412 27.106C107.453 27.2794 107.495 27.4568 107.537 27.6371C107.58 27.8146 107.626 28.0096 107.594 28.2328C107.576 28.3432 107.523 28.4609 107.43 28.5456C107.336 28.6298 107.209 28.6727 107.091 28.6731C106.854 28.6743 106.631 28.5668 106.481 28.382C106.189 28.0141 106.206 27.5059 106.414 27.1445C106.629 26.7667 107.042 26.5811 107.415 26.5627C107.795 26.5365 108.155 26.6813 108.407 26.8947C108.661 27.1097 108.826 27.3791 108.92 27.64C109.105 28.1719 109.02 28.6335 108.941 28.9196C108.853 29.2107 108.763 29.353 108.752 29.3481C108.736 29.3416 108.8 29.1878 108.86 28.9C108.914 28.6167 108.968 28.1739 108.779 27.6935C108.685 27.4568 108.526 27.2168 108.295 27.0312C108.065 26.8473 107.757 26.7311 107.428 26.7581C107.105 26.779 106.763 26.9437 106.596 27.2471C106.425 27.5443 106.42 27.9691 106.647 28.2479C106.75 28.3808 106.928 28.4634 107.087 28.4609C107.248 28.4613 107.364 28.355 107.389 28.1964C107.414 28.0374 107.381 27.8542 107.337 27.6751C107.298 27.4969 107.259 27.3219 107.221 27.1506C107.092 26.4674 106.907 25.8358 106.51 25.5173C106.109 25.1955 105.626 25.3104 105.39 25.4433C105.136 25.5856 105.055 25.7418 105.038 25.7279Z" fill="#263238"/>
<path d="M122.419 24.2282C122.396 24.2172 122.551 24.05 122.594 23.6759C122.639 23.3153 122.518 22.7249 122.024 22.2646C121.534 21.8046 120.664 21.6444 119.784 21.8406C119.341 21.9342 118.883 22.0941 118.481 22.3746C118.083 22.6448 117.732 23.0749 117.747 23.5819L117.56 23.5181C117.745 23.2887 117.829 22.9678 117.784 22.6464C117.71 22.0896 117.339 21.5826 116.854 21.3684C116.363 21.1395 115.808 21.135 115.314 21.2319C114.319 21.4408 113.486 21.9481 112.979 22.5209C112.463 23.1011 112.32 23.754 112.323 24.18C112.327 24.615 112.439 24.8427 112.416 24.8488C112.41 24.8513 112.379 24.7977 112.339 24.6874C112.298 24.5774 112.254 24.4069 112.24 24.1824C112.211 23.7409 112.336 23.0475 112.864 22.4232C113.387 21.8071 114.232 21.2715 115.276 21.0397C115.795 20.9326 116.394 20.9281 116.941 21.1791C117.495 21.4248 117.91 21.9849 117.995 22.6203C118.047 22.987 117.949 23.3762 117.723 23.6518L117.542 23.8725L117.535 23.588C117.521 22.976 117.939 22.4915 118.365 22.2078C118.8 21.9097 119.285 21.7478 119.746 21.6562C120.667 21.4624 121.598 21.644 122.121 22.1616C122.64 22.673 122.741 23.3067 122.67 23.6865C122.64 23.8824 122.565 24.0193 122.516 24.1076C122.457 24.1914 122.424 24.2323 122.419 24.2282Z" fill="#263238"/>
<path d="M120 41.7726C119.995 41.7783 119.958 41.753 119.89 41.6986C119.823 41.6438 119.733 41.5531 119.631 41.423C119.435 41.1626 119.199 40.7154 119.18 40.1123C119.148 39.5191 119.428 38.7627 120.084 38.2889C120.404 38.0518 120.803 37.8813 121.239 37.8363C121.455 37.8281 121.68 37.7856 121.929 37.9332C122.052 38.0109 122.116 38.183 122.09 38.32C122.067 38.4582 121.992 38.5841 121.872 38.6634C121.634 38.8134 121.363 38.7762 121.148 38.7031C120.925 38.6266 120.732 38.4892 120.581 38.3245C120.281 37.9921 120.14 37.5518 120.179 37.1409C120.222 36.7308 120.424 36.3788 120.673 36.1257C120.924 35.8706 121.226 35.7075 121.517 35.6298C122.106 35.4732 122.599 35.6077 122.9 35.7259C123.205 35.8526 123.345 35.9728 123.338 35.9818C123.329 35.9978 123.175 35.9029 122.871 35.804C122.573 35.7124 122.097 35.611 121.559 35.7746C121.038 35.9238 120.448 36.4311 120.375 37.1589C120.346 37.5113 120.473 37.8981 120.736 38.1834C120.867 38.3245 121.031 38.4394 121.216 38.5023C121.399 38.5665 121.613 38.5804 121.755 38.4851C121.891 38.3985 121.931 38.1752 121.807 38.1057C121.683 38.0207 121.449 38.0293 121.259 38.0436C120.865 38.0816 120.497 38.2329 120.2 38.4467C119.591 38.876 119.322 39.553 119.33 40.1103C119.33 40.6753 119.531 41.1099 119.699 41.3752C119.875 41.6406 120.013 41.7583 120 41.7726Z" fill="#263238"/>
<path d="M140.412 30.9558C140.403 30.973 140.23 30.8793 139.896 30.7779C139.565 30.6766 139.057 30.5837 138.442 30.6635C138.137 30.7035 137.806 30.789 137.48 30.9448C137.162 31.1001 136.798 31.3053 136.645 31.6496C136.572 31.8184 136.56 32.0241 136.65 32.1803C136.736 32.3364 136.924 32.4325 137.125 32.4419C137.536 32.475 137.899 32.1332 138.177 31.7653C138.466 31.3945 138.697 30.9885 138.771 30.5629C138.845 30.1434 138.751 29.7035 138.501 29.412C138.248 29.1189 137.863 28.9999 137.511 28.9435C137.153 28.8899 136.804 28.8699 136.495 28.867C135.872 28.8564 135.391 29.0506 135.13 29.2767C134.864 29.4983 134.799 29.6945 134.78 29.6831C134.775 29.681 134.783 29.6312 134.825 29.5461C134.867 29.4611 134.943 29.3401 135.075 29.2146C135.331 28.9558 135.846 28.724 136.493 28.7166C136.815 28.71 137.159 28.7207 137.537 28.7689C137.906 28.8213 138.341 28.9382 138.649 29.2832C138.95 29.6279 139.057 30.1259 138.977 30.5981C138.897 31.0744 138.646 31.5102 138.345 31.8957C138.195 32.0887 138.031 32.278 137.827 32.4252C137.627 32.5723 137.368 32.6713 137.112 32.65C136.863 32.6369 136.601 32.5118 136.473 32.2792C136.347 32.047 136.374 31.7812 136.466 31.5719C136.674 31.1406 137.073 30.9452 137.408 30.7849C137.756 30.6275 138.105 30.547 138.426 30.5147C139.07 30.4513 139.592 30.5719 139.924 30.6999C140.092 30.7612 140.215 30.8258 140.296 30.8732C140.375 30.9214 140.415 30.9497 140.412 30.9558Z" fill="#263238"/>
<path d="M149.451 23.5811C149.451 23.5811 139.317 34.2955 136.657 36.6692C134.138 38.9182 123.718 47.9555 123.718 47.9555L127.41 58.5031C127.41 58.5031 137.754 46.7748 139.707 44.1337L148.451 32.528C149.639 30.7586 153.369 25.8039 153.369 25.8039L149.451 23.5811Z" fill="#FFBF9D"/>
<path d="M149.449 23.4906C149.449 23.4906 149.209 21.1827 149.087 20.6545C148.965 20.1263 148.315 18.4603 148.478 17.6066C148.64 16.7534 149.981 15.1683 150.51 14.6401C151.038 14.1119 151.972 13.9492 152.298 14.6401C152.298 14.6401 153.436 14.7215 153.68 15.1683C153.923 15.6152 154.005 15.9811 154.005 15.9811L155.468 15.6965C155.468 15.6965 155.793 16.5498 155.224 17.0375C155.224 17.0375 155.955 17.078 156.077 17.6876C156.199 18.2972 155.955 19.5163 155.793 19.6786C155.63 19.8413 154.777 20.5727 154.777 20.5727C154.777 20.5727 155.264 23.7829 154.898 24.4334C154.532 25.0834 151.928 26.8267 151.928 26.8267L149.449 23.4906Z" fill="#FFBF9D"/>
<path d="M153.274 20.0437C153.459 20.3467 153.98 20.7294 154.311 20.6026C154.643 20.4759 154.881 20.1713 155.01 19.8406C155.139 19.5098 155.174 19.1513 155.207 18.798C155.242 18.4366 155.276 18.0748 155.31 17.7134" fill="#FFBF9D"/>
<path d="M155.311 17.7139C155.34 17.7168 155.343 17.9682 155.324 18.3725C155.314 18.5753 155.301 18.8137 155.277 19.0831C155.251 19.3513 155.209 19.6567 155.077 19.9576C154.944 20.256 154.727 20.5103 154.461 20.642C154.341 20.7143 154.156 20.7393 154.032 20.7004C153.902 20.669 153.797 20.6117 153.707 20.5537C153.352 20.3129 153.25 20.0524 153.274 20.0439C153.301 20.0246 153.442 20.2385 153.785 20.4245C153.954 20.5103 154.175 20.6007 154.37 20.4686C154.582 20.3533 154.765 20.135 154.882 19.8709C155.106 19.3337 155.1 18.7532 155.174 18.3582C155.232 17.9572 155.282 17.711 155.311 17.7139Z" fill="#FF9A6C"/>
<path d="M150.278 17.2337C150.685 17.1585 151.015 16.7832 151.039 16.3702C151 16.6168 150.961 16.8678 150.997 17.1147C151.034 17.3617 151.158 17.6082 151.376 17.73C151.72 17.9226 152.174 17.7357 152.415 17.4246C152.789 16.9426 152.772 16.2746 152.737 15.6658C152.712 15.2263 152.754 14.4536 151.887 14.1809" fill="#FFBF9D"/>
<path d="M151.886 14.1809C151.889 14.1723 151.999 14.178 152.18 14.2635C152.357 14.344 152.607 14.5513 152.719 14.9029C152.778 15.075 152.803 15.2713 152.816 15.4753C152.827 15.676 152.847 15.8919 152.851 16.1233C152.857 16.5734 152.819 17.1446 152.42 17.5796C152.23 17.7746 151.976 17.9025 151.707 17.9115C151.433 17.9262 151.173 17.7607 151.053 17.5518C150.924 17.3453 150.888 17.1127 150.892 16.9099C150.896 16.7051 150.931 16.5223 150.961 16.3579L151.116 16.3747C151.073 16.7995 150.796 17.0477 150.607 17.1495C150.407 17.2545 150.277 17.2447 150.277 17.2337C150.272 17.2149 150.393 17.1936 150.561 17.0755C150.722 16.9622 150.943 16.719 150.96 16.3657L151.116 16.3825C151.076 16.7055 151.005 17.1131 151.22 17.445C151.322 17.6074 151.499 17.7132 151.701 17.703C151.902 17.6953 152.113 17.5914 152.267 17.432C152.597 17.0771 152.654 16.562 152.656 16.1245C152.641 15.6793 152.659 15.2561 152.575 14.9471C152.493 14.6298 152.295 14.4348 152.14 14.3358C151.983 14.234 151.88 14.2001 151.886 14.1809Z" fill="#FF9A6C"/>
<path d="M149.823 19.6728C150.544 18.7166 151.275 17.7501 152.205 16.995C153.134 16.2398 154.298 15.7063 155.495 15.7615C155.631 16.1899 155.442 16.6646 155.148 17.0044C154.853 17.3441 154.464 17.5841 154.105 17.8564C153.747 18.1282 153.403 18.4565 153.265 18.8842C153.083 19.4439 153.287 20.0449 153.401 20.6222C153.647 21.8703 153.456 23.2003 152.869 24.3287" fill="#FFBF9D"/>
<path d="M152.87 24.3291C152.853 24.3209 152.96 24.11 153.099 23.7114C153.235 23.3132 153.4 22.7179 153.424 21.9656C153.436 21.5907 153.415 21.1782 153.333 20.7457C153.26 20.3139 153.093 19.8532 153.096 19.3217C153.1 19.0584 153.168 18.7779 153.313 18.5375C153.456 18.2967 153.654 18.0923 153.869 17.9124C154.297 17.5526 154.806 17.2816 155.142 16.8421C155.38 16.531 155.502 16.1283 155.395 15.7934L155.49 15.8666C154.495 15.8228 153.581 16.1863 152.865 16.6348C152.143 17.0878 151.596 17.6348 151.164 18.1042C150.732 18.578 150.412 18.9832 150.186 19.2575C149.961 19.533 149.835 19.6815 149.823 19.6733C149.813 19.6655 149.919 19.5016 150.126 19.2117C150.333 18.9227 150.637 18.5032 151.059 18.0118C151.483 17.5248 152.026 16.9561 152.765 16.4778C153.496 16.0064 154.445 15.6152 155.5 15.6569L155.573 15.6597L155.596 15.73C155.731 16.1561 155.576 16.6238 155.313 16.9705C154.934 17.4611 154.408 17.7309 154.003 18.0731C153.586 18.4051 153.289 18.8425 153.292 19.3274C153.282 19.8082 153.437 20.2677 153.507 20.7158C153.584 21.1639 153.596 21.5891 153.574 21.9734C153.53 22.7449 153.338 23.3467 153.176 23.7416C153.095 23.9395 153.019 24.0883 152.964 24.1864C152.909 24.2833 152.876 24.3328 152.87 24.3291Z" fill="#FF9A6C"/>
<path d="M99.6678 59.9698L95.8247 51.3426L104.496 45.4602L107.903 52.2837L99.6678 59.9698Z" fill="#945DDC"/>
<path d="M134.291 95.9876C131.764 93.6008 125.593 87.1559 123.72 81.2294C123.592 80.8238 124.042 67.909 124.463 65.6629C124.885 63.4167 128.068 59.4326 128.068 59.4326L123.72 47.9553L118.894 51.8213C118.894 51.8213 116.547 52.715 114.121 53.6905C109.985 54.5286 107.428 51.3319 107.428 51.3319C107.729 51.1635 105.203 52.3237 104.488 53.0139C104.488 53.0139 95.0815 61.9122 95.2218 67.3874C95.362 72.8625 96.7778 73.3952 97.3424 77.5649C97.889 81.6002 99.5575 86.5586 100.048 90.4834C100.511 94.185 102.562 96.6895 102.562 96.6895C102.562 96.6895 103.645 98.748 107.155 98.6078C110.664 98.4676 121.98 96.138 128.157 97.9553C134.334 99.7726 137.267 103.437 137.267 103.437C137.267 103.437 136.818 98.3744 134.291 95.9876Z" fill="#945DDC"/>
<path d="M113.6 77.29C113.601 77.3022 113.395 77.3214 113.022 77.3182C112.649 77.3157 112.108 77.2748 111.452 77.1489C110.145 76.9069 108.351 76.2294 106.808 74.8651C105.265 73.5 104.373 71.8013 103.973 70.5343C103.768 69.8978 103.661 69.3659 103.614 68.9963C103.565 68.6267 103.559 68.4202 103.571 68.419C103.616 68.4112 103.675 69.2408 104.116 70.4857C104.546 71.7224 105.441 73.3708 106.949 74.7057C108.458 76.0393 110.203 76.7253 111.483 77.0017C112.771 77.2875 113.602 77.245 113.6 77.29Z" fill="#263238"/>
<path d="M121.892 64.2515C121.881 64.2605 121.794 64.1673 121.646 63.9895C121.495 63.8141 121.299 63.5422 121.076 63.1926C120.63 62.496 120.123 61.453 119.811 60.2224C119.503 58.9906 119.456 57.832 119.519 57.0069C119.549 56.594 119.593 56.2616 119.643 56.0355C119.689 55.809 119.721 55.6856 119.735 55.688C119.772 55.6942 119.69 56.1974 119.669 57.0139C119.645 57.8295 119.716 58.9624 120.017 60.1705C120.324 61.377 120.798 62.4081 121.205 63.1154C121.611 63.8243 121.922 64.2286 121.892 64.2515Z" fill="#263238"/>
<path d="M96.0142 64.3902C96.0007 64.3848 96.0563 64.2168 96.1687 63.9175C96.2767 63.6162 96.4615 63.1914 96.7035 62.6722C97.1937 61.6383 97.9917 60.2609 99.049 58.8684C100.105 57.4755 101.155 56.2968 101.903 55.4358C102.258 55.0339 102.556 54.6946 102.796 54.4223C103.009 54.1848 103.132 54.0576 103.144 54.0666C103.155 54.076 103.054 54.2207 102.86 54.475C102.668 54.7301 102.379 55.0907 102.018 55.5331C101.299 56.4195 100.268 57.6129 99.2187 58.9968C98.1688 60.3799 97.3597 61.729 96.838 62.7397C96.318 63.7511 96.0489 64.4045 96.0142 64.3902Z" fill="#263238"/>
<path d="M128.053 93.4405C128.051 93.4598 127.793 93.4303 127.328 93.4127C126.862 93.3915 126.187 93.4156 125.365 93.5444C124.543 93.6703 123.583 93.9303 122.545 94.2991C121.507 94.6683 120.393 95.1519 119.221 95.6593C118.047 96.1663 116.907 96.6119 115.838 96.921C114.769 97.228 113.774 97.4059 112.93 97.4373C112.087 97.4725 111.403 97.3977 110.944 97.2942C110.712 97.2558 110.54 97.1904 110.42 97.1597C110.302 97.1242 110.241 97.1021 110.243 97.0951C110.25 97.0391 111.255 97.4026 112.921 97.2873C113.751 97.2374 114.728 97.0473 115.782 96.7333C116.837 96.4173 117.966 95.9696 119.136 95.4643C120.307 94.9573 121.429 94.4769 122.48 94.1147C123.53 93.7529 124.507 93.5043 125.343 93.396C126.178 93.2844 126.864 93.2835 127.332 93.3302C127.567 93.3416 127.747 93.3833 127.869 93.3988C127.991 93.4193 128.055 93.4336 128.053 93.4405Z" fill="#263238"/>
<g opacity="0.3">
<path d="M107.021 74.8218C105.397 73.433 103.931 71.6652 103.761 69.5351L103.642 69.5225C103.117 71.9289 103.989 74.5896 105.839 76.2168C107.688 77.8439 110.136 78.1183 112.456 77.2904C110.376 76.8034 108.645 76.2102 107.021 74.8218Z" fill="black"/>
</g>
<path d="M102.137 95.9229C102.075 95.8252 94.9494 94.2757 90.4485 93.909C85.9476 93.5426 75.3444 93.689 73.3607 96.474C71.3774 99.259 71.606 101.824 72.2928 103.73C72.9793 105.636 79.082 109.154 81.8281 110.839C84.5743 112.525 100.594 113.111 100.594 113.111L107.155 97.3534L102.137 95.9229Z" fill="#945DDC"/>
<path d="M110.988 97.8846C110.604 97.9152 103.95 98.2296 102.119 101.027C100.288 103.824 98.4575 107.251 98.381 109.279C98.305 111.307 99.4489 112.635 101.585 113.335C103.721 114.034 111.349 114.174 114.248 113.754C117.147 113.335 131.288 110.81 134.339 109.482C137.391 108.153 138.211 105.307 136.617 101.248C135.364 98.0551 129.276 97.3907 125.843 96.4115C122.411 95.4324 110.988 97.8846 110.988 97.8846Z" fill="#945DDC"/>
<path d="M81.6782 99.3434C81.6799 99.3286 81.9378 99.3487 82.4031 99.3969C82.6361 99.4182 82.9199 99.4554 83.2486 99.5057C83.5777 99.5523 83.9522 99.6083 84.3631 99.6872C85.1885 99.827 86.1603 100.05 87.2339 100.319C88.3034 100.604 89.4694 100.954 90.6747 101.377C91.8783 101.806 93.0038 102.272 94.0128 102.728C95.0149 103.199 95.9074 103.644 96.631 104.066C96.9982 104.267 97.3199 104.467 97.602 104.643C97.8866 104.815 98.1266 104.971 98.3175 105.106C98.7034 105.371 98.9124 105.523 98.9042 105.535C98.896 105.547 98.6711 105.418 98.2729 105.176C98.0755 105.052 97.8297 104.906 97.5407 104.745C97.2537 104.58 96.9283 104.39 96.5579 104.198C95.8285 103.795 94.9331 103.366 93.9319 102.907C92.9233 102.463 91.8014 102.005 90.6036 101.578C89.404 101.157 88.2454 100.803 87.1832 100.509C86.1174 100.23 85.1533 99.993 84.3344 99.8348C83.9268 99.7465 83.5556 99.6802 83.2294 99.623C82.9035 99.5617 82.6226 99.5126 82.3916 99.4791C81.9309 99.4055 81.6766 99.3577 81.6782 99.3434Z" fill="#263238"/>
<path d="M133.23 104.684C133.219 104.695 133.052 104.549 132.759 104.279C132.47 104.005 132.036 103.624 131.487 103.173C130.939 102.719 130.259 102.214 129.478 101.69C128.692 101.177 127.801 100.65 126.832 100.165C125.858 99.6868 124.9 99.2975 124.014 98.9831C123.125 98.6794 122.31 98.4439 121.617 98.2836C120.925 98.1197 120.36 98.0052 119.967 97.941C119.574 97.8719 119.358 97.827 119.359 97.8122C119.361 97.7975 119.581 97.8151 119.979 97.8588C120.377 97.8981 120.95 97.9905 121.651 98.1364C122.353 98.2791 123.178 98.5011 124.078 98.7975C124.975 99.1046 125.944 99.4917 126.927 99.9738C127.906 100.463 128.801 101 129.588 101.527C130.369 102.064 131.046 102.586 131.584 103.058C132.125 103.527 132.546 103.927 132.818 104.22C133.093 104.509 133.241 104.674 133.23 104.684Z" fill="#263238"/>
<path d="M136.487 103.12C136.484 103.123 136.457 103.104 136.406 103.065C136.346 103.017 136.273 102.959 136.184 102.888C135.977 102.718 135.695 102.487 135.34 102.195C134.603 101.601 133.544 100.723 132.116 99.8181C131.398 99.3728 130.586 98.9256 129.667 98.5543C128.748 98.186 127.722 97.9031 126.62 97.7301C124.415 97.372 121.941 97.4169 119.36 97.4807C116.776 97.5609 114.318 97.7457 112.092 97.9922C110.979 98.1161 109.921 98.2473 108.939 98.3969C107.963 98.5641 107.022 98.7269 106.163 98.6247C105.297 98.5592 104.575 98.2011 103.998 97.8585C103.421 97.4999 102.967 97.1263 102.634 96.7841C102.3 96.4423 102.083 96.1369 101.965 95.9153C101.842 95.6957 101.808 95.5665 101.808 95.5665C101.819 95.5616 101.869 95.6839 102.001 95.8932C102.13 96.1046 102.354 96.3973 102.692 96.7252C103.03 97.0535 103.485 97.4129 104.059 97.7559C104.637 98.085 105.337 98.4206 106.178 98.4746C107.015 98.5646 107.927 98.3986 108.91 98.2228C109.899 98.0645 110.955 97.9272 112.07 97.7972C114.3 97.5396 116.764 97.3483 119.354 97.2677C121.94 97.2044 124.423 97.1635 126.653 97.5363C127.766 97.7166 128.805 98.0098 129.734 98.3904C130.663 98.7739 131.479 99.2334 132.197 99.6905C133.625 100.619 134.672 101.516 135.394 102.132C135.739 102.436 136.012 102.677 136.213 102.854C136.297 102.932 136.365 102.996 136.421 103.048C136.466 103.093 136.489 103.117 136.487 103.12Z" fill="#263238"/>
<path d="M112.616 97.9182C112.617 97.9255 112.529 97.9455 112.362 97.977C112.195 98.0118 111.947 98.0441 111.63 98.1111C110.996 98.2297 110.084 98.4341 108.983 98.7726C106.786 99.4382 103.825 100.758 101.106 102.995C99.7534 104.1 98.6049 105.377 98.0608 106.79C97.5019 108.202 97.6397 109.63 97.9647 110.716C98.2905 111.817 98.7726 112.628 99.1205 113.166C99.4754 113.703 99.7047 113.978 99.6892 113.991C99.6834 113.996 99.6221 113.93 99.5105 113.801C99.3969 113.674 99.2411 113.476 99.0518 113.212C98.6802 112.684 98.1716 111.876 97.8204 110.759C97.647 110.203 97.5191 109.569 97.5031 108.879C97.4831 108.19 97.6029 107.446 97.8772 106.72C98.4304 105.254 99.6037 103.947 100.97 102.83C103.716 100.572 106.717 99.2608 108.939 98.6283C110.053 98.3062 110.975 98.1234 111.615 98.0298C111.935 97.975 112.186 97.9558 112.355 97.9345C112.526 97.9165 112.615 97.9108 112.616 97.9182Z" fill="#263238"/>
<g opacity="0.3">
<path d="M129.367 95.4773C128.511 94.8633 127.364 94.8861 126.316 95.0031C122.9 95.3845 119.843 95.9847 116.586 97.0869C120.935 96.3559 125.284 95.7374 129.29 96.008C129.381 96.0141 129.481 95.9884 129.54 95.9193C129.655 95.7831 129.513 95.5812 129.367 95.4773Z" fill="black"/>
</g>
<path d="M198.932 101.721C198.578 99.9318 197.532 98.3512 196.32 96.9889C192.017 92.1528 185.51 89.6556 179.051 89.23C172.592 88.8044 166.143 90.2762 160.012 92.3515C156.543 93.5257 153.009 94.984 150.563 97.7097C148.116 100.435 147.09 104.756 149.103 107.815L151.815 108.322C151.381 108.34 150.948 108.359 150.514 108.377C164.433 109.04 178.386 108.982 192.298 108.204C194.12 108.102 196.087 107.931 197.462 106.732C198.836 105.533 199.286 103.509 198.932 101.721Z" fill="#E0E0E0"/>
<path d="M181.491 95.3555C181.506 95.3519 181.552 95.4794 181.625 95.7137C181.698 95.948 181.789 96.291 181.888 96.7182C182.086 97.5727 182.294 98.7714 182.39 100.108C182.486 101.446 182.452 102.662 182.378 103.536C182.341 103.973 182.301 104.326 182.261 104.568C182.223 104.81 182.195 104.943 182.181 104.942C182.148 104.938 182.193 104.399 182.228 103.527C182.263 102.655 182.273 101.45 182.178 100.123C182.082 98.7975 181.9 97.6058 181.741 96.7484C181.582 95.8911 181.46 95.3637 181.491 95.3555Z" fill="#263238"/>
<path d="M178.272 95.533C178.271 95.5404 178.185 95.5343 178.022 95.5167C177.837 95.4938 177.602 95.4644 177.312 95.4284C176.698 95.3429 175.806 95.2379 174.702 95.1279C173.599 95.015 172.282 94.9206 170.817 94.8564C169.352 94.8024 167.741 94.7849 166.05 94.8356C164.359 94.894 162.751 95.0159 161.292 95.1639C159.835 95.3225 158.526 95.5012 157.433 95.6851C156.339 95.8658 155.455 96.0285 154.848 96.1532C154.561 96.208 154.328 96.2522 154.145 96.2869C153.984 96.3151 153.899 96.3266 153.897 96.3196C153.895 96.3123 153.978 96.2869 154.136 96.2452C154.317 96.2003 154.547 96.143 154.83 96.0723C155.433 95.9227 156.314 95.737 157.407 95.5367C158.501 95.3335 159.811 95.1385 161.272 94.9688C162.734 94.8094 164.346 94.6814 166.043 94.6226C167.74 94.5715 169.357 94.5956 170.826 94.6602C172.294 94.7354 173.614 94.8454 174.718 94.9778C175.823 95.107 176.713 95.2354 177.325 95.3458C177.612 95.3981 177.845 95.4402 178.029 95.4738C178.19 95.5056 178.273 95.5257 178.272 95.533Z" fill="#263238"/>
<path d="M191.683 95.3816C191.678 95.4127 191.197 95.3652 190.419 95.3006C189.641 95.2356 188.566 95.1633 187.377 95.1391C186.187 95.1163 185.11 95.1461 184.33 95.18C183.551 95.2135 183.068 95.2422 183.064 95.2107C183.062 95.1837 183.54 95.1019 184.32 95.0296C185.1 94.9568 186.184 94.9028 187.381 94.9261C188.578 94.9503 189.658 95.0472 190.435 95.151C191.212 95.2544 191.687 95.355 191.683 95.3816Z" fill="#263238"/>
<path d="M13.1619 163.976H10.0883L8.9043 143.637H14.0765L13.1619 163.976Z" fill="#B56D50"/>
<path d="M73.7947 163.976H70.7211L69.5371 141.004H74.7093L73.7947 163.976Z" fill="#B56D50"/>
<path d="M199.152 163.976H196.079L194.895 137.909H200.067L199.152 163.976Z" fill="#B56D50"/>
<path d="M199.348 137.909H0.176758V115.693C0.176758 111.185 3.83094 107.531 8.33837 107.531H200.267C202.958 107.531 205.14 109.713 205.14 112.404V132.117C205.14 135.316 202.547 137.909 199.348 137.909Z" fill="#E0E0E0"/>
<g opacity="0.3">
<path d="M143.767 137.987L147.21 137.909L144.631 107.751L140.139 107.515L143.767 137.987Z" fill="black"/>
</g>
<path d="M0.0195312 139.801V112.657C0.0195312 108.988 2.99341 106.008 6.67254 105.992L49.5457 105.8C49.5457 105.8 54.8364 100.483 58.6153 100.517C62.3942 100.552 65.4192 91.3338 77.6074 91.3092C91.3893 91.2818 87.9547 95.2488 95.4859 97.8097C103.017 100.371 114.064 94.9544 120.98 100.517C127.896 106.08 138.729 102.89 140.997 107.751C143.264 112.613 143.768 141.004 143.768 141.004L0.0195312 139.801Z" fill="#AD589B"/>
<path d="M0.019075 134.26V139.8C-0.157134 144.712 0.888264 144.917 3.12256 145.791C5.35726 146.666 7.85444 146.061 10.1108 145.251C12.3672 144.442 14.6346 143.42 17.0173 143.477C21.7987 143.592 25.7869 147.989 30.5694 148.042C36.6893 148.109 41.5185 141.096 47.6134 141.683C52.2513 142.13 55.9913 146.955 60.6288 146.505C63.8602 146.191 66.4433 143.349 69.6481 142.813C73.7868 142.121 77.571 145.384 81.7207 146C87.3389 146.834 92.7781 142.743 98.4258 143.317C103.284 143.811 107.408 147.677 112.272 148.082C118.379 148.59 123.996 143.546 130.098 144.104C135.174 144.567 139.539 148.853 144.631 148.698L143.657 136.62L0.019075 134.26Z" fill="#AD589B"/>
<path d="M77.6063 140.839C77.5474 140.839 77.5 133.821 77.5 125.166C77.5 116.508 77.5478 109.491 77.6063 109.491C77.6652 109.491 77.7126 116.508 77.7126 125.166C77.713 133.821 77.6652 140.839 77.6063 140.839Z" fill="#263238"/>
<path d="M80.2394 106.423C80.2394 106.423 80.1761 106.43 80.0522 106.434C79.9189 106.436 79.7366 106.44 79.5027 106.444C79.0092 106.449 78.2991 106.456 77.3894 106.464C75.5439 106.473 72.891 106.484 69.617 106.498C63.0454 106.506 53.9835 106.517 43.9743 106.529C33.9619 106.517 24.8988 106.506 18.3272 106.498C15.0532 106.484 12.4002 106.473 10.5552 106.464C9.6455 106.456 8.93576 106.449 8.44229 106.444C8.20844 106.44 8.02609 106.436 7.89281 106.434C7.76894 106.43 7.70557 106.423 7.70557 106.423C7.70557 106.423 7.76894 106.415 7.89281 106.412C8.02609 106.409 8.20844 106.405 8.44229 106.401C8.93576 106.396 9.64591 106.39 10.5552 106.381C12.4002 106.373 15.0532 106.361 18.3272 106.347C24.8988 106.339 33.9615 106.328 43.9743 106.316C53.9835 106.328 63.0454 106.339 69.617 106.347C72.891 106.361 75.5439 106.373 77.3894 106.381C78.2991 106.39 79.0092 106.396 79.5027 106.401C79.7366 106.405 79.9193 106.409 80.0522 106.412C80.1761 106.416 80.2394 106.423 80.2394 106.423Z" fill="#263238"/>
<path d="M93.4809 98.6018C93.4781 98.6451 92.6522 98.5592 91.3239 98.6373C90.6595 98.6717 89.8729 98.7727 89.0111 98.9399C88.1521 99.1214 87.2196 99.3777 86.2719 99.7375C85.3275 100.107 84.464 100.543 83.7052 100.985C82.9538 101.44 82.3033 101.893 81.7878 102.313C80.7506 103.146 80.1962 103.764 80.1647 103.734C80.1537 103.724 80.2882 103.567 80.5408 103.289C80.6655 103.149 80.8225 102.982 81.0196 102.803C81.2146 102.621 81.4284 102.404 81.6921 102.196C82.2003 101.757 82.8491 101.286 83.6042 100.816C84.3663 100.36 85.2392 99.9125 86.1955 99.5384C87.1554 99.1741 88.1019 98.9198 88.9735 98.7469C89.848 98.5883 90.6452 98.502 91.317 98.4865C91.6522 98.464 91.956 98.4812 92.2225 98.4848C92.4891 98.4857 92.718 98.5041 92.9045 98.5245C93.2773 98.5605 93.4822 98.5875 93.4809 98.6018Z" fill="#263238"/>
<path d="M136.818 107.515C136.818 107.574 129.169 107.538 119.737 107.436C110.302 107.333 102.656 107.201 102.657 107.143C102.657 107.084 110.304 107.12 119.74 107.223C129.171 107.326 136.819 107.456 136.818 107.515Z" fill="#263238"/>
<path d="M140.139 143.827C140.08 143.831 139.49 136.663 138.819 127.819C138.149 118.971 137.654 111.797 137.713 111.793C137.771 111.789 138.362 118.955 139.032 127.803C139.702 136.647 140.197 143.822 140.139 143.827Z" fill="#263238"/>
<path d="M27.0274 126.879C27.0863 126.881 27.0024 130.494 26.8405 134.947C26.6782 139.402 26.4996 143.011 26.4407 143.009C26.3818 143.007 26.4656 139.395 26.6279 134.94C26.7894 130.486 26.9685 126.877 27.0274 126.879Z" fill="#263238"/>
<path d="M33.7205 142.09C33.6616 142.09 33.6138 136.509 33.6138 129.626C33.6138 122.74 33.6616 117.16 33.7205 117.16C33.7793 117.16 33.8268 122.74 33.8268 129.626C33.8272 136.509 33.7793 142.09 33.7205 142.09Z" fill="#263238"/>
<path d="M52.7461 139.53C52.7387 139.531 52.7216 139.463 52.6954 139.333C52.6672 139.178 52.6328 138.99 52.5911 138.762C52.5041 138.266 52.3916 137.546 52.2632 136.655C52.0061 134.873 51.7027 132.402 51.4623 129.664C51.2236 126.926 51.0936 124.44 51.0376 122.64C51.0089 121.74 50.995 121.011 50.9946 120.508C50.9963 120.276 50.9971 120.085 50.9983 119.927C51.0016 119.795 51.0069 119.725 51.0143 119.725C51.0216 119.725 51.0306 119.794 51.0412 119.927C51.051 120.084 51.0629 120.275 51.0776 120.505C51.1054 121.041 51.1426 121.759 51.188 122.633C51.2825 124.43 51.4362 126.91 51.6745 129.646C51.9145 132.379 52.1937 134.849 52.4125 136.635C52.5196 137.503 52.6075 138.218 52.6729 138.75C52.6987 138.98 52.7199 139.17 52.7375 139.326C52.7502 139.459 52.753 139.529 52.7461 139.53Z" fill="#263238"/>
<path d="M59.2039 142.272C59.1969 142.275 59.1638 142.21 59.1062 142.084C59.0407 141.934 58.961 141.751 58.8637 141.528C58.6536 141.045 58.3797 140.333 58.0702 139.443C57.7574 138.555 57.4316 137.48 57.1163 136.274C56.8118 135.066 56.5239 133.725 56.2991 132.303C56.0816 130.881 55.9487 129.516 55.8718 128.272C55.8056 127.027 55.7897 125.904 55.8183 124.962C55.8432 124.02 55.8878 123.259 55.9418 122.735C55.9667 122.493 55.9871 122.294 56.0039 122.132C56.0207 121.994 56.0325 121.922 56.0399 121.923C56.0472 121.924 56.0493 121.997 56.0464 122.135C56.0403 122.298 56.0329 122.498 56.0239 122.74C55.9957 123.265 55.9741 124.025 55.9683 124.964C55.9593 125.903 55.9908 127.021 56.0673 128.259C56.1543 129.497 56.2929 130.855 56.5088 132.271C56.7329 133.685 57.0129 135.02 57.3056 136.226C57.609 137.429 57.9181 138.503 58.212 139.395C58.5023 140.288 58.7537 141.006 58.9402 141.497C59.0223 141.726 59.0902 141.914 59.1454 142.067C59.1904 142.199 59.2108 142.269 59.2039 142.272Z" fill="#263238"/>
<path d="M92.415 121.38C92.4735 121.385 92.1047 126.112 91.5908 131.936C91.0769 137.762 90.6133 142.479 90.5544 142.474C90.496 142.469 90.8647 137.743 91.3786 131.917C91.8926 126.093 92.3566 121.375 92.415 121.38Z" fill="#263238"/>
<path d="M102.82 140.625C102.813 140.627 102.784 140.555 102.736 140.416C102.682 140.254 102.615 140.052 102.534 139.804C102.359 139.272 102.133 138.495 101.877 137.527C101.363 135.593 100.778 132.883 100.395 129.851C100.016 126.816 99.9125 124.046 99.9325 122.045C99.9415 121.044 99.9685 120.234 100.006 119.676C100.024 119.416 100.039 119.204 100.051 119.033C100.063 118.887 100.073 118.81 100.081 118.81C100.088 118.81 100.092 118.888 100.093 119.035C100.092 119.206 100.09 119.419 100.089 119.679C100.077 120.238 100.073 121.046 100.083 122.045C100.102 124.041 100.229 126.8 100.606 129.824C100.988 132.846 101.547 135.551 102.023 137.49C102.26 138.46 102.464 139.243 102.613 139.781C102.68 140.032 102.733 140.238 102.777 140.404C102.812 140.547 102.827 140.623 102.82 140.625Z" fill="#263238"/>
<path d="M125.024 142.089C124.965 142.093 124.661 138.034 124.344 133.024C124.026 128.013 123.817 123.949 123.875 123.945C123.933 123.941 124.238 127.999 124.556 133.011C124.873 138.02 125.083 142.085 125.024 142.089Z" fill="#263238"/>
<path d="M200.543 107.532C200.543 107.59 187.348 107.638 171.076 107.638C154.797 107.638 141.605 107.59 141.605 107.532C141.605 107.473 154.797 107.425 171.076 107.425C187.349 107.425 200.543 107.473 200.543 107.532Z" fill="#263238"/>
<g opacity="0.3">
<path d="M92.0198 98.5787C91.8792 98.2201 91.5705 97.9499 91.1936 97.871C88.7168 97.3522 86.1399 97.25 83.664 97.7598C80.987 98.3113 78.4329 99.6045 76.5662 101.6C76.0903 102.109 75.632 102.731 75.8638 103.479C76.087 104.199 76.8127 104.627 77.5666 104.621C78.6186 104.613 79.4963 104.172 80.3312 103.568L82.6088 101.452C85.6105 99.1069 91.0542 98.3436 92.0219 98.5844C92.0215 98.5824 92.0207 98.5803 92.0198 98.5787Z" fill="black"/>
</g>
</svg>
