<svg width="233" height="163" viewBox="0 0 233 163" fill="none" xmlns="http://www.w3.org/2000/svg">
<path d="M210.562 73.9143C210.562 104.711 185.597 129.679 154.799 129.679C124.001 129.679 99.0359 104.711 99.0359 73.9143C99.0359 43.117 124.002 18.1514 154.799 18.1514C185.597 18.1514 210.562 43.117 210.562 73.9143Z" stroke="white" stroke-width="1.5798" stroke-miterlimit="10" stroke-linecap="round" stroke-linejoin="round" stroke-dasharray="3.16 4.21"/>
<path d="M124.421 105.791C127.208 75.1193 104.604 47.9958 73.9336 45.2086C43.2628 42.4215 16.1398 65.0262 13.3526 95.6976C10.5654 126.369 33.1695 153.493 63.8402 156.28C94.511 159.067 121.634 136.462 124.421 105.791Z" stroke="white" stroke-width="1.5798" stroke-miterlimit="10" stroke-linecap="round" stroke-linejoin="round" stroke-dasharray="3.16 4.21"/>
<path d="M60.8678 57.2196C60.8678 69.3291 51.053 79.1451 38.9429 79.1451C26.834 79.1451 17.0173 69.3291 17.0173 57.2196C17.0173 45.1101 26.834 35.2935 38.9429 35.2935C51.0536 35.2935 60.8678 45.1101 60.8678 57.2196Z" fill="white"/>
<path d="M49.3169 56.459C48.5318 53.3828 47.5347 52.1322 47.7455 48.0228C47.9726 43.6401 47.2481 40.6642 42.5242 39.6605C38.0082 38.7011 36.0721 40.5357 34.0303 44.9094C32.5033 48.1784 32.0408 49.3684 30.2045 51.4204C28.1044 53.7679 26.3059 56.232 25.1219 61.8059C23.6875 68.5547 28.0534 72.7734 34.9578 74.2416C41.8622 75.7085 47.9155 74.0289 49.3506 67.2812C50.2871 62.8673 50.4739 60.9901 49.3169 56.459Z" fill="#579C43"/>
<path d="M47.6573 56.4129C47.0284 53.696 46.2012 52.5979 46.4205 48.9558C46.6536 45.0699 46.0757 42.4418 42.1129 41.5997C38.3243 40.7947 36.6783 42.4394 34.9177 46.3338C33.601 49.2454 33.2009 50.3038 31.6343 52.1395C29.8448 54.2402 28.3094 56.4406 27.257 61.3897C25.9847 67.3829 29.6135 71.076 35.4049 72.3074C41.1968 73.5377 46.3034 71.9903 47.578 65.9971C48.4094 62.0799 48.5848 60.4154 47.6573 56.4129Z" fill="#95C947"/>
<path d="M44.5141 62.9204C43.5439 67.4887 39.7872 70.5613 36.1229 69.7822C32.4586 69.0037 30.2763 64.669 31.247 60.1013C32.2183 55.5324 35.9757 52.4598 39.64 53.2389C43.3036 54.0174 45.4866 58.3521 44.5141 62.9204Z" fill="#5F3814"/>
<path d="M33.8054 60.6089C34.7623 60.7056 35.7997 60.705 36.4527 59.879C36.8371 59.3925 37.1254 58.859 37.3525 58.2836C37.7418 57.2954 38.0229 55.7114 39.0753 55.1725C39.3132 55.05 39.5565 54.9743 39.7998 54.9335C39.6316 54.8776 39.4604 54.8283 39.2844 54.7917C36.3181 54.1616 33.2816 56.5355 32.3367 60.1433C32.7944 60.3932 33.2984 60.5578 33.8054 60.6089Z" fill="white"/>
<path d="M41.6866 54.1375C42.6687 55.4866 43.3577 57.0364 43.4887 58.6853C43.7289 61.6949 42.724 64.6587 40.4389 66.6903C38.4362 68.4725 35.5961 68.5867 33.4672 66.9245C32.0111 65.7862 31.5906 64.1169 31.0217 62.5142C31.1082 66.1082 33.117 69.1435 36.1235 69.7821C39.7877 70.5612 43.5445 67.4892 44.5147 62.9203C45.286 59.2867 44.0623 55.8038 41.6866 54.1375Z" fill="#FFCD41"/>
<path d="M49.3178 56.4591C48.5327 53.3829 47.5355 52.1322 47.7463 48.0228C47.9734 43.6401 47.249 40.6643 42.5251 39.6605C41.5489 39.4526 40.6947 39.3758 39.933 39.4274C40.0153 39.4755 40.0976 39.5223 40.1751 39.568C41.1825 40.1681 42.1731 41.0187 42.7695 42.0435C44.2827 44.6397 43.4531 47.4233 43.5451 50.2454C43.655 53.6628 47.3943 58.7898 45.9995 66.1435C45.6487 67.9955 44.6101 69.2708 43.1156 70.346C40.1066 72.5128 36.7307 72.2833 33.2941 70.7575C30.9718 69.7255 29.4899 68.3739 28.1071 66.3994C26.5537 64.1805 25.1222 61.8065 25.1222 61.8065C23.6877 68.5554 28.0536 72.7741 34.958 74.2422C41.8625 75.7091 47.9157 74.0295 49.3508 67.2819C50.2879 62.8673 50.4747 60.9901 49.3178 56.4591Z" fill="#95C947"/>
<path d="M30.4473 53.1368C30.9254 53.5495 31.549 53.5867 32.1545 53.4876C33.1811 53.3206 34.0743 52.8352 34.7789 52.0694C36.2548 50.4625 36.8958 48.4796 37.4845 46.4252C37.929 44.873 38.794 42.7303 40.1378 41.5175C37.6749 41.2934 36.1641 42.4347 34.9063 45.1289C33.8514 47.3857 33.8424 48.3618 32.5762 49.7783C31.7466 50.7052 30.9855 51.6597 30.3337 53.0275C30.3698 53.0653 30.4064 53.1026 30.4473 53.1368Z" fill="white"/>
<path d="M43.2092 108.968C47.0891 120.583 40.8208 133.143 29.205 137.025C17.5905 140.905 5.02928 134.636 1.14876 123.022C-2.73176 111.406 3.53774 98.8452 15.1523 94.9647C26.7674 91.0836 39.328 97.3531 43.2092 108.968Z" fill="white"/>
<path d="M23.2807 125.917C23.2807 125.917 21.6071 123.965 19.1641 123.252C15.7743 122.262 15.5659 117.38 17.3824 115.4C18.9028 113.745 17.5344 111.71 17.7368 109.846C17.9405 107.982 18.2324 105.479 20.8406 104.779C23.4489 104.08 22.7947 103.106 24.0856 101.387C25.8847 98.9947 30.1425 99.939 31.3361 101.984C32.5291 104.03 31.3385 105.629 33.7635 106.35C36.1891 107.071 35.4917 109.497 35.1884 111.005C34.8838 112.513 35.5223 114.52 36.3063 116.125C37.3136 118.187 36.4588 120.957 33.4007 123.042C30.6633 124.906 28.2635 124.952 27.5186 126.189L23.2807 125.917Z" fill="#579C43"/>
<path d="M20.1606 109.789C20.7036 110.587 21.848 110.035 22.4757 109.621C22.7845 109.418 23.1016 109.191 23.3323 108.897C23.5858 108.577 23.7888 108.222 24.0585 107.908C24.6166 107.255 25.2575 106.683 25.9069 106.122C26.4475 105.655 26.8524 105.266 27.005 104.546C27.1305 103.959 27.1347 103.343 27.023 102.753C26.9323 102.278 26.7599 101.758 26.486 101.329C25.9285 101.499 25.4263 101.815 25.0539 102.309C24.0159 103.689 24.5415 104.473 22.4469 105.033C20.3516 105.595 20.1174 107.607 19.954 109.105C19.9438 109.192 19.9407 109.278 19.9377 109.365C20.0008 109.513 20.0699 109.657 20.1606 109.789Z" fill="white"/>
<path d="M33.7638 106.35C31.3388 105.628 32.5293 104.031 31.3364 101.984C30.8155 101.091 29.7121 100.41 28.483 100.122C28.7419 100.52 28.945 100.953 29.0711 101.412C29.3438 102.398 29.4153 103.424 29.6081 104.426C29.7433 105.135 29.8472 105.912 30.2437 106.532C31.0612 107.813 32.6987 108.425 33.3637 109.829C33.8016 110.749 33.5325 111.687 33.4286 112.648C33.2976 113.865 33.8767 114.974 33.9836 116.175C34.1482 118.032 33.4694 119.878 31.9749 121.036C31.1297 121.692 30.15 122.071 29.1588 122.453C27.9442 122.922 26.7056 123.359 25.4303 123.642C24.3676 123.878 23.3579 124.028 22.2886 123.752C21.3834 123.517 20.5021 123.151 19.5717 123.052C19.5903 123.094 19.5813 123.148 19.523 123.164C19.4125 123.196 19.3025 123.227 19.1914 123.259C21.6194 123.979 23.2816 125.917 23.2816 125.917L27.5207 126.189C28.265 124.951 30.6648 124.906 33.4028 123.042C36.4609 120.957 37.3163 118.187 36.3083 116.124C35.5238 114.52 34.8859 112.512 35.1904 111.005C35.492 109.496 36.1888 107.07 33.7638 106.35Z" fill="#95C947"/>
<path d="M26.2923 124.911C26.2923 124.911 26.4563 122.345 27.9796 120.307C30.0941 117.478 27.3261 113.451 24.6842 112.961C22.4754 112.552 22.3451 110.103 21.062 108.735C19.7795 107.368 18.0417 105.542 15.5367 106.551C13.0318 107.561 12.9688 106.389 10.9023 105.792C8.0292 104.961 5.19209 108.276 5.46781 110.627C5.74413 112.979 7.65676 113.541 6.15141 115.575C4.64666 117.609 6.6626 119.129 7.81234 120.152C8.96088 121.174 9.65829 123.162 9.99589 124.915C10.4296 127.169 12.7789 128.869 16.475 128.697C19.7831 128.541 21.8471 127.095 23.1843 127.637L26.2923 124.911Z" fill="#579C43"/>
<path d="M19.9745 110.401C20.019 111.365 18.7749 111.612 18.0235 111.658C17.6558 111.68 17.2654 111.691 16.9038 111.596C16.5085 111.492 16.1325 111.33 15.7306 111.241C14.8908 111.053 14.036 110.982 13.1782 110.924C12.4658 110.875 11.9071 110.809 11.3527 110.325C10.9004 109.931 10.5273 109.442 10.2624 108.903C10.048 108.468 9.87316 107.949 9.83472 107.442C10.382 107.243 10.973 107.194 11.5677 107.364C13.2275 107.845 13.2773 108.786 15.2891 107.976C17.3026 107.165 18.6986 108.632 19.73 109.729C19.7895 109.792 19.8442 109.86 19.8976 109.929C19.9379 110.084 19.9685 110.239 19.9745 110.401Z" fill="white"/>
<path d="M21.4281 124.376C19.9239 124.619 18.5273 125.282 17.1193 125.839C16.4501 126.105 15.7707 126.363 15.0679 126.527C14.4606 126.669 13.81 126.788 13.2099 126.553C11.9202 126.048 11.3081 124.57 10.9207 123.343C10.6101 122.351 10.4791 121.295 10.1163 120.323C9.87424 119.675 9.50901 119.187 8.99962 118.726C8.67163 118.43 8.28899 118.129 8.06493 117.74C7.16868 116.168 8.6374 114.619 8.90831 113.11C9.08612 112.118 8.60676 111.189 8.5539 110.202C8.50464 109.24 8.6386 108.276 8.94976 107.365C9.15099 106.778 9.40449 106.215 9.69643 105.675C7.28943 105.879 5.22963 108.606 5.4669 110.627C5.74322 112.979 7.65585 113.541 6.1505 115.575C4.64574 117.609 6.66169 119.129 7.81143 120.152C8.95997 121.174 9.65738 123.162 9.99498 124.915C10.4287 127.169 12.778 128.869 16.4741 128.697C19.7822 128.541 21.8462 127.094 23.1833 127.637L25.3945 125.698C24.3469 124.581 22.9629 124.128 21.4281 124.376Z" fill="#95C947"/>
<path d="M31.4903 113.912C30.1825 112.699 28.8634 111.056 28.6039 109.54C28.3426 108.024 28.1197 105.508 25.5968 105.71C23.0745 105.912 23.6097 103.992 21.7583 102.514C19.9082 101.035 15.5976 101.689 14.7806 104.57C14.1961 106.638 15.1566 107.311 12.9761 108.903C10.7956 110.496 11.4251 112.937 11.9081 114.749C12.3898 116.56 14.3992 117.965 13.5786 120.058C12.5965 122.558 14.5505 127.037 18.0694 126.739C20.2818 126.551 22.6245 127.21 23.0631 127.587C25.5962 129.764 25.7169 134.646 25.7169 134.646L29.732 133.305C29.732 133.305 27.2295 129.213 27.7617 125.733C27.9203 124.695 29.6185 123.811 31.2746 121.411C33.3759 118.365 33.1746 115.472 31.4903 113.912Z" fill="#95C947"/>
<path d="M31.4901 113.912C30.1824 112.699 28.8633 111.056 28.6038 109.54C28.3425 108.024 28.1196 105.508 25.5967 105.71C23.0743 105.912 23.6096 103.992 21.7582 102.514C20.2462 101.305 17.0944 101.522 15.5458 103.212C15.6797 103.151 15.8191 103.098 15.9608 103.054C16.3591 102.931 16.77 102.873 17.1701 103.011C17.5527 103.142 17.9017 103.413 18.2195 103.657C18.6418 103.982 19.0737 104.291 19.4629 104.653C19.8828 105.042 20.2853 105.465 20.755 105.791C21.59 106.37 22.5902 106.613 23.5212 106.984C24.2817 107.287 25.2591 107.718 25.6934 108.466C25.9475 108.903 25.8952 109.337 25.9757 109.816C26.1031 110.574 26.7038 110.835 27.221 111.292C28.0055 111.986 28.6116 112.852 29.0639 113.792C29.5613 114.825 29.9127 115.924 30.1416 117.046C30.3386 118.012 30.4677 118.971 30.1902 119.937C29.9109 120.915 29.3799 121.738 28.7545 122.529C28.3545 123.035 27.9316 123.557 27.6937 124.164C27.5015 124.656 27.3934 125.176 27.2948 125.694C27.1321 126.557 26.6515 129.795 25.0987 128.838C24.5472 128.499 24.2247 127.891 23.7814 127.44C22.9998 126.645 21.918 126.215 20.8595 125.938C18.8959 125.422 16.7436 124.765 14.7546 125.316C15.5704 126.247 16.7003 126.856 18.0681 126.739C20.2805 126.551 22.6232 127.211 23.0617 127.588C25.5949 129.764 25.7156 134.647 25.7156 134.647L29.7307 133.305C29.7307 133.305 27.2282 129.213 27.7604 125.734C27.919 124.696 29.6172 123.811 31.2733 121.412C33.3757 118.365 33.1745 115.472 31.4901 113.912Z" fill="#95C947"/>
<path d="M24.395 124.936C23.6111 124.692 22.8981 124.406 22.1916 124.119C21.4864 123.83 20.798 123.536 20.112 123.244C19.4248 122.953 18.7418 122.664 18.0462 122.379C17.3506 122.089 16.6448 121.817 15.8921 121.482C16.6868 121.252 17.514 121.251 18.3159 121.353C19.1178 121.463 19.9012 121.689 20.64 122.003C21.3789 122.319 22.0763 122.723 22.7166 123.203C23.0362 123.445 23.3402 123.706 23.6243 123.992C23.9066 124.279 24.1757 124.583 24.395 124.936Z" fill="#579C43"/>
<path d="M24.395 124.936C24.3584 124.522 24.3932 124.116 24.4467 123.716C24.5043 123.317 24.5944 122.924 24.705 122.538C24.9278 121.769 25.248 121.027 25.6511 120.33C26.0542 119.634 26.5449 118.982 27.1222 118.412C27.7025 117.848 28.365 117.35 29.1393 117.055C28.7387 117.777 28.3368 118.418 27.953 119.071C27.5667 119.719 27.1937 120.361 26.8164 121.007C26.4416 121.653 26.0656 122.304 25.6739 122.958C25.2786 123.613 24.8774 124.27 24.395 124.936Z" fill="#579C43"/>
<path d="M23.1059 120.159C22.3689 119.948 21.7075 119.69 21.0497 119.429C20.3986 119.165 19.7636 118.894 19.1317 118.622L17.2359 117.806C16.5974 117.528 15.951 117.265 15.2566 116.933C15.9949 116.699 16.7631 116.692 17.5092 116.781C18.2565 116.878 18.9833 117.088 19.6657 117.384C20.3493 117.68 20.9933 118.059 21.5808 118.515C21.8727 118.744 22.152 118.991 22.4109 119.261C22.668 119.535 22.9113 119.823 23.1059 120.159Z" fill="#579C43"/>
<path d="M23.1054 120.159C23.0574 119.774 23.0802 119.397 23.1205 119.025C23.1631 118.654 23.2382 118.287 23.3331 117.929C23.5301 117.212 23.8155 116.522 24.1843 115.874C24.5537 115.227 25.0067 114.623 25.5455 114.096C26.0885 113.576 26.7078 113.12 27.4371 112.864C27.0821 113.546 26.7235 114.144 26.3805 114.751L25.3551 116.543C25.0145 117.14 24.6691 117.739 24.3074 118.341C23.9404 118.943 23.5674 119.547 23.1054 120.159Z" fill="#579C43"/>
<path d="M21.5724 115.569C20.884 115.336 20.2767 115.063 19.6742 114.79C19.0765 114.513 18.495 114.234 17.9208 113.954C17.3447 113.676 16.7728 113.397 16.1884 113.121C15.6021 112.84 15.0062 112.577 14.3574 112.248C15.0494 112.011 15.7829 112.005 16.4881 112.104C17.1927 112.208 17.8769 112.431 18.5083 112.741C19.1438 113.049 19.7307 113.443 20.2569 113.908C20.5176 114.143 20.7651 114.394 20.9879 114.668C21.2096 114.943 21.4186 115.234 21.5724 115.569Z" fill="#579C43"/>
<path d="M21.5723 115.569C21.5248 115.193 21.5453 114.826 21.5831 114.463C21.6234 114.101 21.6954 113.744 21.7861 113.394C21.9706 112.697 22.2439 112.023 22.5971 111.39C22.9497 110.757 23.3858 110.163 23.9066 109.646C24.431 109.135 25.0359 108.684 25.7526 108.441C25.412 109.111 25.0732 109.698 24.7494 110.291L23.7739 112.048C23.4471 112.632 23.1131 113.217 22.7605 113.803C22.4007 114.391 22.0336 114.978 21.5723 115.569Z" fill="#579C43"/>
<path d="M15.1851 120.068C15.2416 120.069 15.2981 120.071 15.3551 120.069C15.9462 120.051 16.5697 119.769 17.0569 119.445C17.7747 118.968 18.2631 118.276 18.2048 117.384C18.1442 116.429 17.7063 115.555 17.3771 114.671C17.117 113.977 16.8298 113.173 17.0233 112.422C17.2311 111.614 17.7705 110.947 17.9586 110.126C18.1838 109.151 18.0601 108.129 17.7459 107.185C17.5387 106.562 17.2666 105.952 16.8521 105.464C16.64 105.738 16.4742 106.051 16.3745 106.404C15.8904 108.115 16.6857 108.67 14.8818 109.988C13.0779 111.304 13.6005 113.322 13.9981 114.82C14.3976 116.318 16.0585 117.481 15.3798 119.21C15.2758 119.474 15.2128 119.763 15.1851 120.068Z" fill="white"/>
<path d="M142.131 21.9261C142.131 34.0357 151.946 43.8517 164.056 43.8517C176.165 43.8517 185.981 34.0357 185.981 21.9261C185.981 9.81663 176.165 0 164.056 0C151.946 0 142.131 9.81663 142.131 21.9261Z" fill="white"/>
<path d="M154.463 13.8738C155.964 16.3318 156.906 20.8599 162.45 24.9393C168.155 29.1364 177.28 29.5947 177.592 32.7574C177.973 36.6271 165.943 36.8938 157.273 31.3746C153.096 28.7153 148.453 22.0667 149.995 14.5412C150.427 12.4375 151.858 12.4315 151.7 9.36973L153.296 9.29224C153.297 9.29224 152.215 10.1927 154.463 13.8738Z" fill="#FFCD41"/>
<path d="M166.087 28.126C165.826 28.1723 165.498 28.2354 165.301 28.4174C164.936 28.755 165.329 29.2055 165.652 29.4488C166.212 29.8687 166.87 30.1516 167.499 30.4526C168.271 30.8232 169.084 30.998 169.914 31.1638C170.645 31.3098 171.403 31.4251 172.142 31.38C172.756 31.3428 173.499 31.2671 173.833 30.7091C173.849 30.6814 173.858 30.6532 173.872 30.6256C172.102 29.8326 169.527 29.1472 167.008 28.1128C166.705 28.075 166.398 28.0702 166.087 28.126Z" fill="white"/>
<path d="M176.071 34.8328C176.071 34.8328 177.708 34.3396 177.593 32.7579C177.532 31.9206 176.815 31.3998 176.423 31.1174C176.423 31.1174 176.684 32.2107 176.651 32.9321C176.614 33.7401 176.071 34.8328 176.071 34.8328Z" fill="#5F3814"/>
<path d="M177.593 32.7573C177.974 36.627 165.944 36.8937 157.275 31.3745C153.097 28.7152 148.455 22.0666 149.997 14.5411C150.428 12.4374 151.859 12.4314 151.701 9.36963C151.701 9.36963 150.185 21.7416 158.713 27.891C168.664 35.0658 177.593 32.7573 177.593 32.7573Z" fill="#FFCD41"/>
<path d="M154.811 11.519C156.9 13.5686 158.978 17.899 165.408 20.3739C172.022 22.9215 180.998 20.6178 182.113 23.7474C183.478 27.5769 171.869 31.5013 162.036 28.5074C157.298 27.0639 151.084 21.6955 150.647 13.5554C150.525 11.2793 151.912 10.8384 150.973 7.76523L152.502 7.20117C152.502 7.20117 151.683 8.44822 154.811 11.519Z" fill="#FFCD41"/>
<path d="M169.756 22.5184C169.514 22.6451 169.212 22.8097 169.067 23.0548C168.799 23.5101 169.297 23.8495 169.674 23.9991C170.324 24.2568 171.037 24.3463 171.724 24.4622C172.569 24.6046 173.403 24.5367 174.251 24.4532C174.998 24.3805 175.763 24.2676 176.469 23.9973C177.055 23.7732 177.758 23.4705 177.937 22.7995C177.946 22.7665 177.948 22.7358 177.954 22.704C176.033 22.4325 173.356 22.5148 170.647 22.2258C170.343 22.2793 170.043 22.3676 169.756 22.5184Z" fill="white"/>
<path d="M181.169 26.3246C181.169 26.3246 182.632 25.3245 182.114 23.7476C181.839 22.9121 181.009 22.5997 180.556 22.4309C180.556 22.4309 181.091 23.4659 181.244 24.2102C181.416 25.047 181.169 26.3246 181.169 26.3246Z" fill="#5F3814"/>
<path d="M182.114 23.7474C183.478 27.5768 171.869 31.5012 162.036 28.5073C157.299 27.0638 151.084 21.6954 150.647 13.5553C150.525 11.2792 151.913 10.8383 150.974 7.76514C150.974 7.76514 152.679 20.8394 162.538 24.5187C174.04 28.8113 182.114 23.7474 182.114 23.7474Z" fill="#FFCD41"/>
<path d="M150.663 12.7925C150.663 12.7925 151.862 11.0949 154.536 11.2631C154.536 11.2631 153.388 10.1038 152.934 8.96963C152.714 8.41579 152.91 6.97651 152.4 6.68517C152.061 6.49115 150.932 7.227 150.932 7.227C151.358 9.8809 150.612 11.2541 150.663 12.7925Z" fill="#5F3814"/>
<path d="M170.699 106.011C166.819 117.625 173.088 130.187 184.703 134.067C196.317 137.948 208.879 131.678 212.76 120.064C216.64 108.448 210.37 95.8878 198.757 92.0067C187.141 88.1261 174.58 94.3957 170.699 106.011Z" fill="white"/>
<path d="M191.14 106.586C191.14 106.586 192.042 98.6625 181.133 95.5359C181.133 95.5359 182.178 105.986 191.14 106.586Z" fill="#579C43"/>
<path d="M181.156 95.5425C192.04 98.6745 191.14 106.586 191.14 106.586C191.114 106.585 191.088 106.582 191.062 106.58L181.156 95.5425Z" fill="#95C947"/>
<path d="M201.786 117.378C201.722 117.307 195.644 110.559 193.347 99.9133C193.32 98.626 193.503 97.269 193.726 95.9661C193.726 95.9661 192.559 95.2134 191.386 97.084C191.386 97.084 192.226 97.8715 192.046 99.9253C191.4 104.252 189.185 114.757 182.662 117.648C182.483 117.726 182.402 117.936 182.481 118.115C182.54 118.247 182.669 118.326 182.806 118.326C182.853 118.326 182.902 118.316 182.949 118.295C189.721 115.294 192.013 104.961 192.712 100.342C195.097 111.016 201.198 117.785 201.263 117.856C201.395 118 201.619 118.01 201.763 117.878C201.909 117.746 201.919 117.523 201.786 117.378Z" fill="#5F3814"/>
<path d="M189.963 122.066C188.721 125.449 184.973 127.184 181.591 125.943C178.209 124.702 176.473 120.954 177.715 117.571C178.55 115.297 179.673 114.216 181.876 114.039C184.522 113.826 184.522 115.359 185.629 115.766C186.978 116.262 188.603 115.518 189.624 116.955C190.691 118.456 190.606 120.311 189.963 122.066Z" fill="#EA3E48"/>
<path d="M179.187 119.354C179.546 119.301 179.863 119.156 180.105 118.878C180.33 118.619 180.487 118.311 180.629 118.001C180.867 117.487 181.075 116.952 181.382 116.474C181.614 116.113 181.914 115.785 182.32 115.621C182.675 115.478 183.057 115.456 183.436 115.487C183.096 115.125 182.693 114.737 181.562 114.827C180.098 114.944 179.352 115.663 178.797 117.176C178.535 117.888 178.473 118.625 178.581 119.326C178.783 119.364 178.988 119.383 179.187 119.354Z" fill="white"/>
<path d="M189.623 116.955C189.063 116.168 188.323 116.035 187.545 115.995C187.618 116.116 187.687 116.239 187.749 116.366C188.192 117.278 189.045 120.138 187.095 122.683C183.983 126.746 178.344 123.152 178.012 122.732C178.003 122.721 177.995 122.709 177.986 122.697C178.7 124.149 179.951 125.342 181.591 125.943C184.973 127.184 188.721 125.449 189.962 122.067C190.606 120.311 190.691 118.456 189.623 116.955Z" fill="#EA3E48"/>
<path d="M207.992 119.402C208.555 123.133 205.987 126.615 202.256 127.179C198.524 127.744 195.042 125.176 194.479 121.444C194.099 118.935 194.585 117.376 196.52 116.104C198.843 114.576 199.616 115.984 200.838 115.799C202.326 115.574 203.443 114.073 205.105 114.878C206.841 115.72 207.699 117.467 207.992 119.402Z" fill="#EA3E48"/>
<path d="M196.727 122.34C197.031 122.111 197.249 121.818 197.331 121.441C197.406 121.09 197.396 120.727 197.37 120.371C197.329 119.78 197.251 119.183 197.292 118.59C197.324 118.143 197.433 117.689 197.724 117.335C197.979 117.024 198.318 116.811 198.682 116.648C198.187 116.488 197.621 116.335 196.629 116.987C195.343 117.833 195.02 118.868 195.272 120.537C195.391 121.323 195.705 122.031 196.158 122.62C196.361 122.553 196.56 122.466 196.727 122.34Z" fill="white"/>
<path d="M205.105 114.879C204.194 114.438 203.447 114.689 202.712 115.043C202.84 115.117 202.965 115.196 203.086 115.281C203.953 115.895 206.176 118.093 205.668 121.412C204.856 126.711 197.867 126.251 197.351 126.033C197.336 126.026 197.323 126.02 197.309 126.013C198.696 126.988 200.446 127.452 202.255 127.179C205.987 126.615 208.553 123.133 207.991 119.402C207.698 117.467 206.84 115.72 205.105 114.879Z" fill="#EA3E48"/>
<path d="M189.532 52.4787C185.652 64.0933 191.921 76.6545 203.536 80.535C215.15 84.4155 227.711 78.146 231.593 66.5315C235.473 54.9164 229.204 42.3557 217.589 38.4752C205.973 34.5941 193.413 40.8636 189.532 52.4787Z" fill="white"/>
<path d="M219.505 41.2607C219.505 41.2607 221.38 47.8456 213.701 52.0511C213.701 52.0511 212.9 43.0472 219.505 41.2607Z" fill="#579C43"/>
<path d="M213.719 52.0421C221.377 47.836 219.506 41.2607 219.506 41.2607C219.487 41.2661 219.468 41.2716 219.449 41.277L213.719 52.0421Z" fill="#95C947"/>
<path d="M224.728 46.6871C224.728 46.6871 222.401 53.1266 213.713 52.0531C213.713 52.0531 218.324 44.2783 224.728 46.6871Z" fill="#579C43"/>
<path d="M213.732 52.0556C222.403 53.1171 224.727 46.6872 224.727 46.6872C224.709 46.6806 224.69 46.6746 224.672 46.668L213.732 52.0556Z" fill="#95C947"/>
<path d="M211.967 39.8948C211.967 39.8948 207.924 45.4206 213.668 52.0283C213.668 52.0283 217.542 43.8618 211.967 39.8948Z" fill="#579C43"/>
<path d="M213.655 52.0146C207.931 45.4135 211.966 39.8955 211.966 39.8955C211.983 39.9063 211.998 39.9195 212.014 39.9303L213.655 52.0146Z" fill="#95C947"/>
<path d="M215.414 61.0191C212.534 66.4296 202.963 77.0284 201.035 76.0024C199.106 74.9758 202.508 61.0179 205.387 55.6068C208.268 50.1963 212.432 48.0788 214.983 49.437C218.34 51.2241 218.294 55.6086 215.414 61.0191Z" fill="#F68746"/>
<path d="M214.984 49.4372C214.692 49.2823 214.379 49.1741 214.049 49.1099C215.319 50.3011 215.812 51.9854 215.742 53.7401C215.697 54.8544 214.594 61.778 205.602 71.4949C204.655 72.5197 202.78 72.7516 201.849 71.349C201.396 70.6654 201.28 69.8749 201.246 69.0699C201.235 68.8278 201.224 68.5864 201.213 68.3461C200.393 72.2536 200.138 75.5256 201.035 76.0026C202.963 77.0286 212.533 66.4298 215.414 61.0193C218.295 55.6088 218.34 51.2243 214.984 49.4372Z" fill="#F68342"/>
<path d="M208.16 51.7136C208.327 51.7202 208.474 51.7635 208.632 51.7869L209.073 51.9203C209.366 52.0104 209.636 52.1443 209.905 52.2795C210.167 52.4279 210.428 52.5768 210.666 52.7697L211.023 53.0604C211.131 53.1775 211.25 53.276 211.349 53.4106L211.331 53.4442L209.728 52.6123L208.143 51.7473L208.16 51.7136Z" fill="#F26322"/>
<path d="M208.791 55.1438C208.961 55.1522 209.112 55.1973 209.273 55.2231L209.725 55.3619C210.025 55.4556 210.301 55.5931 210.578 55.7319C210.847 55.8839 211.115 56.0364 211.36 56.2335L211.727 56.5302C211.839 56.6492 211.96 56.7495 212.063 56.8858L212.046 56.9195L210.401 56.0653L208.774 55.178L208.791 55.1438Z" fill="#F26322"/>
<path d="M214.206 55.4644C214.362 55.465 214.497 55.5022 214.644 55.5202L215.051 55.6355C215.322 55.7136 215.569 55.8356 215.816 55.9593C216.055 56.0957 216.295 56.2326 216.51 56.4141L216.834 56.6874C216.93 56.7991 217.037 56.891 217.125 57.0196L217.107 57.0532L215.639 56.2921L214.188 55.4986L214.206 55.4644Z" fill="#F26322"/>
<path d="M212.008 58.4585C212.197 58.4771 212.367 58.5318 212.546 58.5672L213.053 58.7354C213.39 58.849 213.703 59.0063 214.016 59.1649C214.323 59.3367 214.628 59.5091 214.91 59.7254L215.332 60.051C215.463 60.1801 215.603 60.29 215.723 60.436L215.706 60.4696L213.84 59.4971L211.991 58.4915L212.008 58.4585Z" fill="#F26322"/>
<path d="M205.459 55.4709C205.625 55.477 205.771 55.519 205.927 55.5418L206.363 55.6728C206.653 55.7611 206.92 55.8938 207.186 56.0272C207.445 56.1744 207.704 56.3215 207.938 56.5132L208.29 56.8015C208.397 56.918 208.514 57.0153 208.611 57.1493L208.594 57.1829L207.009 56.3606L205.442 55.5052L205.459 55.4709Z" fill="#F26322"/>
<path d="M208.783 60.3723C208.975 60.3927 209.148 60.4492 209.332 60.4864L209.849 60.6606C210.193 60.7778 210.513 60.9388 210.834 61.101C211.147 61.277 211.46 61.4524 211.748 61.6728L212.181 62.0044C212.314 62.1354 212.458 62.2471 212.582 62.3949L212.565 62.4285L210.656 61.4337L208.765 60.4065L208.783 60.3723Z" fill="#F26322"/>
<path d="M203.521 60.0598C203.702 60.0742 203.864 60.1247 204.037 60.1565L204.521 60.3127C204.843 60.4184 205.141 60.5674 205.439 60.7182C205.73 60.8822 206.021 61.0462 206.288 61.2552L206.688 61.5688C206.811 61.6937 206.944 61.8 207.056 61.9418L207.039 61.9754L205.262 61.051L203.503 60.0935L203.521 60.0598Z" fill="#F26322"/>
<path d="M206.6 63.5342C206.767 63.5408 206.915 63.584 207.073 63.6081L207.513 63.7414C207.806 63.8315 208.077 63.9655 208.345 64.1006C208.607 64.249 208.869 64.398 209.107 64.5914L209.464 64.8822C209.572 64.9993 209.69 65.0978 209.79 65.2324L209.772 65.266L208.168 64.4334L206.582 63.5678L206.6 63.5342Z" fill="#F26322"/>
<path d="M206.566 65.9182C206.761 65.9398 206.936 65.9981 207.123 66.0365L207.647 66.2144C207.996 66.3345 208.322 66.4985 208.647 66.6631C208.965 66.8415 209.283 67.0199 209.577 67.2428L210.018 67.5785C210.154 67.7107 210.3 67.8242 210.427 67.9732L210.41 68.0068L208.47 66.9959L206.548 65.9519L206.566 65.9182Z" fill="#F26322"/>
<path d="M205.361 67.4285C205.183 67.4158 205.024 67.3666 204.855 67.3365L204.38 67.1852C204.065 67.0831 203.771 66.9365 203.479 66.7893C203.195 66.6283 202.91 66.4673 202.649 66.2625L202.258 65.9531C202.139 65.8294 202.009 65.7255 201.898 65.5849L201.916 65.5513L203.656 66.4565L205.379 67.3948L205.361 67.4285Z" fill="#F26322"/>
<path d="M203.302 68.6648C203.462 68.6678 203.602 68.7074 203.754 68.7273L204.174 68.8498C204.453 68.9327 204.709 69.0589 204.964 69.1868C205.212 69.328 205.46 69.4691 205.684 69.6554L206.02 69.9353C206.122 70.0488 206.233 70.1431 206.325 70.2741L206.307 70.3077L204.787 69.5202L203.285 68.699L203.302 68.6648Z" fill="#F26322"/>
<path d="M203.863 71.4269C203.708 71.4269 203.573 71.3902 203.427 71.3734L203.024 71.2599C202.756 71.183 202.511 71.0623 202.267 70.9403C202.03 70.8046 201.793 70.6694 201.58 70.4892L201.26 70.2177C201.165 70.1071 201.058 70.0158 200.972 69.8879L200.989 69.8542L202.443 70.6069L203.88 71.3926L203.863 71.4269Z" fill="#F26322"/>
<path d="M201.979 73.3701C202.1 73.352 202.202 73.3713 202.313 73.3701L202.615 73.4295C202.816 73.4704 202.993 73.5557 203.171 73.6416C203.341 73.7407 203.51 73.8404 203.656 73.9846L203.875 74.202C203.936 74.2945 204.008 74.3684 204.061 74.4783L204.044 74.512L202.994 73.9744L201.962 73.4037L201.979 73.3701Z" fill="#F26322"/>
<path d="M205.962 60.4101C207.45 59.5643 207.899 57.8523 208.645 56.4257C209.32 55.136 209.885 53.4408 211.151 52.5902C211.924 52.0712 212.998 51.6639 213.914 51.9757C213.644 51.6195 213.292 51.3191 212.854 51.0855C211.126 50.1658 208.305 51.5991 206.356 55.2633C205.686 56.523 204.973 58.4663 204.381 60.5026C204.926 60.6354 205.504 60.6702 205.962 60.4101Z" fill="white"/>
<path d="M119.357 19.0302C119.357 24.0953 114.689 28.2107 108.922 28.2107C103.154 28.2107 98.4805 24.0953 98.4805 19.0302C98.4805 13.9603 103.154 9.85571 108.922 9.85571C114.689 9.85571 119.357 13.9603 119.357 19.0302Z" fill="#5F3814"/>
<path d="M99.7422 23.7745C99.7422 23.7745 107.789 14.8012 118.094 23.7745C118.094 23.7745 110.292 28.2107 99.7422 23.7745Z" fill="#F495BF"/>
<path d="M116.455 62.6602H101.381V76.4907H116.455V62.6602Z" fill="#FCB189"/>
<path d="M123.923 51.888C121.452 65.9029 115.348 68.1321 108.427 68.1321C102.206 68.1321 96.4792 61.5118 94.9096 53.6835C94.2026 50.158 91.7751 37.5673 91.7751 37.5673C91.7751 28.0955 99.4503 21.9263 108.917 21.9263C118.389 21.9263 126.062 28.0961 126.062 37.5673C126.062 37.5673 124.863 46.5538 123.923 51.888Z" fill="#FFBF9D"/>
<path d="M126.752 45.6146C126.752 45.6146 125.179 46.2994 123.195 46.2994C123.195 46.2994 118.244 39.3583 119.657 32.1517C119.657 32.1517 111.973 37.9407 104.684 38.184C97.399 38.4344 94.6983 41.1028 92.7808 46.2087C92.7808 46.2087 89.4764 40.2906 92.1015 32.7722C95.5885 22.7838 104.122 21.6365 109.238 21.6365C117.596 21.6365 128.465 26.9316 126.752 45.6146Z" fill="#5F3814"/>
<path d="M95.9408 47.662C96.2471 49.6335 95.3143 51.4164 93.8564 51.6452C92.3913 51.8705 90.9592 50.463 90.6486 48.4928C90.3405 46.5255 91.2691 44.7444 92.73 44.5137C94.1909 44.283 95.629 45.6941 95.9408 47.662Z" fill="#FFBF9D"/>
<path d="M127.248 48.5269C126.909 50.4924 125.454 51.8836 123.999 51.6349C122.538 51.3808 121.633 49.5865 121.969 47.6216C122.305 45.6597 123.755 44.2691 125.212 44.5178C126.67 44.7659 127.582 46.5626 127.248 48.5269Z" fill="#FFBF9D"/>
<path d="M125.436 51.5376C125.436 52.3383 124.787 52.9877 123.986 52.9877C123.186 52.9877 122.536 52.3383 122.536 51.5376C122.536 50.7363 123.186 50.0869 123.986 50.0869C124.787 50.0869 125.436 50.7363 125.436 51.5376Z" fill="#EA507E"/>
<path d="M95.9978 51.5376C95.9978 52.3383 95.3485 52.9877 94.5477 52.9877C93.7464 52.9877 93.0964 52.3383 93.0964 51.5376C93.0964 50.7363 93.7464 50.0869 94.5477 50.0869C95.3485 50.0869 95.9978 50.7363 95.9978 51.5376Z" fill="#EA507E"/>
<path d="M77.2213 158.846H138.845L138.227 104.465L142.131 82.7259C142.131 80.1922 135.223 77.122 132.266 76.1693C127.4 74.6039 116.455 72.5296 116.455 72.5296C116.455 72.5296 115.508 75.5139 109.161 75.5139C103.382 75.5139 101.381 72.3909 101.381 72.3909C101.381 72.3909 89.5753 75.3073 85.2984 76.9592C82.1477 78.1762 74.0479 81.125 74.0479 83.0773L77.5235 104.48L77.2213 158.846Z" fill="#EA507E"/>
<path d="M156.302 128.324H139.179C140.399 136.683 142.358 149.443 143.312 154.896C143.757 157.437 144.93 162.451 151.61 162.02C156.796 161.686 158.276 156.701 158.159 154.48C157.835 148.345 156.922 136.507 156.302 128.324Z" fill="#FFBF9D"/>
<path d="M72.5596 158.846C72.5596 158.846 75.0609 131.35 75.7331 127.534H59.3953C58.454 136.542 57.6989 149.963 56.3425 158.846H72.5596Z" fill="#FFBF9D"/>
<path d="M158.164 130.12C156.769 116.779 154.962 104.655 152.662 97.8227C147.674 83.0059 140.643 80.4451 140.643 80.4451C140.643 80.4451 137.138 84.7082 137.042 106.548C137.007 114.532 138.397 123.998 139.475 130.119H158.164V130.12Z" fill="#EA507E"/>
<path d="M76.5798 130.12C77.6184 124.007 78.8306 115.249 78.7982 107.787C78.7027 85.9475 75.197 81.6843 75.197 81.6843C75.197 81.6843 68.1658 84.2451 63.1776 99.0614C60.9484 105.682 59.1836 117.27 57.8062 130.12H76.5798Z" fill="#EA507E"/>
<path d="M112.136 73.3856C111.312 71.7493 108.51 66.504 108.369 66.5652C108.24 66.6199 111.086 73.8763 111.086 73.8763L110.861 73.9809C110.861 73.9809 107.398 67.5047 107.314 67.5444C107.223 67.5858 109.878 74.4398 109.878 74.4398L109.586 74.5774C109.586 74.5774 106.134 68.0964 106.038 68.1403C105.937 68.1871 108.603 75.0357 108.603 75.0357L108.403 75.13C108.403 75.13 104.718 68.2508 104.633 68.294C104.535 68.3457 106.637 73.9532 107.366 75.649C107.752 76.5453 108.503 78.1725 110.611 78.4038L119.874 98.2395C119.874 98.2395 120.245 98.9664 121 98.6138C121.696 98.2888 121.389 97.5325 121.389 97.5325L112.126 77.6992C113.284 76.0503 112.592 74.2926 112.136 73.3856Z" fill="#DCDDDE"/>
<path d="M111.948 73.003C111.125 71.3667 108.51 66.504 108.369 66.5653C108.24 66.6199 111.086 73.8764 111.086 73.8764L110.861 73.9809C110.861 73.9809 107.398 67.5048 107.314 67.5444C107.223 67.5859 109.879 74.4398 109.879 74.4398L109.586 74.5774C109.586 74.5774 120.993 98.6162 121 98.6132C121.696 98.2882 121.388 97.5319 121.388 97.5319L112.126 77.6986C113.416 75.9398 112.404 73.9106 111.948 73.003Z" fill="#E6E7E8"/>
<path d="M157.295 153.512C157.745 155.718 157.98 161.074 151.216 161.886C149.462 162.096 145.655 163.382 140.896 153.687C135.255 142.191 120.867 106.433 120.867 106.433L129.103 102.698C129.103 102.698 154.423 139.46 157.295 153.512Z" fill="#FFBF9D"/>
<path d="M122.319 110.023C117.183 107.146 116.008 105.243 116.008 105.243C112.054 103.307 114.539 100.266 114.539 100.266C111.81 98.3603 113.877 95.9983 113.877 95.9983C111.747 92.5882 115.147 90.9284 115.147 90.9284C111.418 85.9378 115.054 84.1964 116.524 84.9773C123.024 88.4319 127.304 92.6723 127.883 96.1353C128.757 101.37 129.507 103.287 129.507 103.287L122.319 110.023Z" fill="#FFBF9D"/>
<path d="M108.901 72.1616C105.845 70.6274 103.643 71.1914 103.285 69.1911C102.942 67.2695 105.635 66.226 107.418 64.433C108.736 63.1102 111.32 64.0425 111.832 65.6326C112.129 66.5552 111.849 67.2052 111.926 67.6353C111.997 68.033 112.538 68.7748 112.553 69.5659C112.586 71.2743 110.16 72.7935 108.901 72.1616Z" fill="#EA3E48"/>
<path d="M108.187 66.1492C108.153 65.9828 108.94 65.4704 109.044 65.9858C109.145 66.4778 108.232 66.3732 108.187 66.1492Z" fill="#FFCD41"/>
<path d="M109.324 66.8567C109.29 66.6915 110.077 66.178 110.182 66.694C110.283 67.1853 109.37 67.0808 109.324 66.8567Z" fill="#FFCD41"/>
<path d="M109.075 64.9952C109.042 64.8294 109.829 64.3164 109.934 64.8312C110.034 65.3244 109.121 65.2186 109.075 64.9952Z" fill="#FFCD41"/>
<path d="M108.518 68.0028C108.484 67.837 109.271 67.3246 109.376 67.8394C109.475 68.332 108.563 68.2268 108.518 68.0028Z" fill="#FFCD41"/>
<path d="M109.466 69.0286C109.432 68.8628 110.219 68.3498 110.324 68.8646C110.424 69.3572 109.512 69.2521 109.466 69.0286Z" fill="#FFCD41"/>
<path d="M108.932 70.3245C108.898 70.1587 109.685 69.6457 109.79 70.1605C109.89 70.6531 108.978 70.5486 108.932 70.3245Z" fill="#FFCD41"/>
<path d="M110.048 70.9151C110.015 70.7493 110.802 70.2363 110.907 70.7511C111.007 71.2443 110.095 71.1386 110.048 70.9151Z" fill="#FFCD41"/>
<path d="M107.054 66.7926C107.021 66.6268 107.808 66.1138 107.913 66.6286C108.014 67.1217 107.1 67.016 107.054 66.7926Z" fill="#FFCD41"/>
<path d="M107.253 65.4161C107.219 65.2503 108.006 64.7373 108.111 65.2527C108.211 65.7447 107.298 65.6396 107.253 65.4161Z" fill="#FFCD41"/>
<path d="M107.229 67.7673C107.195 67.6022 107.983 67.0898 108.087 67.6046C108.188 68.0965 107.275 67.992 107.229 67.7673Z" fill="#FFCD41"/>
<path d="M107.15 68.8804C107.116 68.7147 107.904 68.2016 108.009 68.7164C108.108 69.209 107.197 69.1039 107.15 68.8804Z" fill="#FFCD41"/>
<path d="M108.172 69.632C108.138 69.4669 108.925 68.9527 109.03 69.4681C109.13 69.9606 108.218 69.8561 108.172 69.632Z" fill="#FFCD41"/>
<path d="M107.886 71.0166C107.851 70.8514 108.639 70.339 108.745 70.8532C108.844 71.3457 107.931 71.2412 107.886 71.0166Z" fill="#FFCD41"/>
<path d="M105.815 67.4838C105.782 67.3174 106.568 66.805 106.674 67.3198C106.774 67.8118 105.861 67.7073 105.815 67.4838Z" fill="#FFCD41"/>
<path d="M105.784 68.6814C105.75 68.515 106.538 68.0026 106.642 68.518C106.743 69.0106 105.829 68.9049 105.784 68.6814Z" fill="#FFCD41"/>
<path d="M106.245 69.6042C106.21 69.4384 106.998 68.9248 107.103 69.4408C107.203 69.9327 106.29 69.827 106.245 69.6042Z" fill="#FFCD41"/>
<path d="M106.679 70.5496C106.645 70.3838 107.432 69.8702 107.536 70.385C107.637 70.8782 106.725 70.7731 106.679 70.5496Z" fill="#FFCD41"/>
<path d="M105.827 66.4429C105.793 66.2777 106.581 65.7641 106.685 66.2801C106.786 66.7715 105.873 66.667 105.827 66.4429Z" fill="#FFCD41"/>
<path d="M104.496 67.9715C104.463 67.8057 105.249 67.2927 105.356 67.8075C105.455 68.3007 104.542 68.1956 104.496 67.9715Z" fill="#FFCD41"/>
<path d="M104.14 68.9754C104.106 68.8096 104.893 68.296 104.998 68.8114C105.098 69.3046 104.185 69.1989 104.14 68.9754Z" fill="#FFCD41"/>
<path d="M104.91 69.9305C104.876 69.7647 105.664 69.2517 105.769 69.7665C105.868 70.2591 104.956 70.154 104.91 69.9305Z" fill="#FFCD41"/>
<path d="M112.553 69.5657C112.547 69.2732 112.47 68.9879 112.37 68.7224C112.194 69.2065 111.902 69.6631 111.599 70.0127C111.169 70.5106 110.62 71.02 109.94 71.1186C109.332 71.2075 108.822 70.9942 108.309 70.683C107.569 70.2343 106.818 69.9556 105.974 69.7502C105.316 69.5904 104.685 69.4636 104.375 68.7818C104.126 68.2364 104.071 67.6189 104.235 67.0476C103.561 67.6837 103.136 68.3547 103.285 69.1897C103.643 71.19 105.845 70.626 108.9 72.1602C110.16 72.7933 112.586 71.2741 112.553 69.5657Z" fill="#EA3E48"/>
<path d="M107.449 65.5069C107.512 65.6199 107.597 65.7214 107.713 65.8055C107.959 65.9863 108.255 66.1124 108.561 66.1443C108.817 66.1707 109.084 66.1503 109.334 66.2079C109.587 66.2662 109.733 66.3942 109.925 66.5569C110.308 66.8801 110.839 66.9913 111.241 66.7336C111.262 66.4885 111.266 66.1953 111.153 65.8463C110.79 64.7158 108.955 64.0544 108.021 64.9939C107.841 65.1741 107.647 65.3441 107.449 65.5069Z" fill="white"/>
<path d="M115.577 67.1492C115.577 67.1492 114.205 69.4139 111.298 67.8911C111.298 67.8911 113.577 65.3844 115.577 67.1492Z" fill="#579C43"/>
<path d="M111.304 67.8941C114.206 69.4096 115.576 67.1492 115.576 67.1492C115.57 67.145 115.564 67.1396 115.558 67.1348L111.304 67.8941Z" fill="#95C947"/>
<path d="M115.288 70.245C115.288 70.245 112.996 71.0673 111.3 67.8944C111.3 67.8944 114.481 67.504 115.288 70.245Z" fill="#579C43"/>
<path d="M111.304 67.9019C112.998 71.0669 115.288 70.2452 115.288 70.2452C115.286 70.2374 115.283 70.2302 115.281 70.2218L111.304 67.9019Z" fill="#95C947"/>
<path d="M114.224 64.2888C114.224 64.2888 111.789 64.311 111.295 67.8738C111.295 67.8738 114.417 67.1397 114.224 64.2888Z" fill="#579C43"/>
<path d="M111.296 67.866C111.792 64.311 114.224 64.2888 114.224 64.2888C114.224 64.2978 114.224 64.305 114.225 64.314L111.296 67.866Z" fill="#95C947"/>
<path d="M65.2091 140.42C63.8665 137.705 62.6867 136.736 62.0698 132.858C61.4108 128.723 60.1464 126.091 55.5384 126.091C51.1335 126.091 49.6912 128.187 48.6526 132.673C47.8753 136.027 47.6806 137.229 46.3741 139.508C44.8796 142.116 43.6902 144.772 43.6902 150.209C43.6902 156.791 48.6021 159.863 55.3354 159.863C62.0698 159.863 67.386 157.094 67.386 150.513C67.386 146.209 67.1872 144.419 65.2091 140.42Z" fill="#579C43"/>
<path d="M63.6502 140.706C62.5232 138.295 61.5345 137.435 61.0161 133.992C60.4646 130.321 59.402 127.983 55.5377 127.983C51.8434 127.983 50.633 129.845 49.762 133.827C49.1108 136.806 48.9468 137.874 47.8505 139.897C46.5969 142.212 45.5991 144.571 45.5991 149.398C45.5991 155.242 49.7193 157.97 55.3677 157.97C61.0161 157.97 65.4769 155.513 65.4769 149.668C65.4769 145.846 65.3093 144.258 63.6502 140.706Z" fill="#95C947"/>
<path d="M62.0087 147.403C62.0087 151.859 59.1116 155.471 55.538 155.471C51.965 155.471 49.0679 151.859 49.0679 147.403C49.0679 142.947 51.965 139.334 55.538 139.334C59.1116 139.334 62.0087 142.947 62.0087 147.403Z" fill="#5F3814"/>
<path d="M51.5574 147.369C52.4675 147.269 53.437 147.063 53.8815 146.163C54.1434 145.632 54.3062 145.077 54.4053 144.495C54.5729 143.496 54.5218 141.961 55.3959 141.25C55.5947 141.088 55.8055 140.971 56.0236 140.884C55.8566 140.864 55.6872 140.853 55.516 140.853C52.6242 140.853 50.2611 143.671 50.0923 147.225C50.571 147.368 51.0726 147.423 51.5574 147.369Z" fill="white"/>
<path d="M57.6285 139.767C58.8125 140.831 59.7622 142.141 60.2121 143.653C61.0326 146.415 60.6824 149.38 58.9536 151.728C57.4369 153.789 54.81 154.459 52.4931 153.33C50.9091 152.557 50.1864 151.083 49.3364 149.7C50.1306 153.037 52.606 155.471 55.5392 155.471C59.1122 155.471 62.01 151.858 62.01 147.402C62.0094 143.859 60.1761 140.851 57.6285 139.767Z" fill="#FFCD41"/>
<path d="M65.2084 140.42C63.8659 137.705 62.6861 136.736 62.0692 132.858C61.4102 128.723 60.1457 126.091 55.5378 126.091C54.5869 126.091 53.7735 126.189 53.0719 126.388C53.159 126.416 53.2455 126.443 53.3266 126.471C54.385 126.831 55.4795 127.429 56.2388 128.266C58.1646 130.389 57.9442 133.151 58.5887 135.767C59.369 138.933 63.8755 142.977 64.0317 150.116C64.0713 151.915 63.3547 153.31 62.1731 154.61C59.7955 157.228 56.601 157.684 53.0893 156.941C50.7184 156.44 49.067 155.471 47.3857 153.903C45.4953 152.14 43.689 150.209 43.689 150.209C43.689 156.79 48.6009 159.862 55.3341 159.862C62.0686 159.862 67.3848 157.094 67.3848 150.512C67.3854 146.209 67.1865 144.419 65.2084 140.42Z" fill="#95C947"/>
<path d="M46.9403 141.062C47.4683 141.352 48.0582 141.263 48.6031 141.05C49.5281 140.691 50.2664 140.062 50.771 139.206C51.8288 137.415 52.0361 135.437 52.1772 133.403C52.2829 131.866 52.6644 129.694 53.679 128.297C51.3368 128.576 50.1535 129.94 49.5131 132.705C48.9779 135.02 49.1629 135.933 48.2607 137.506C47.6708 138.536 47.15 139.577 46.8118 140.982C46.8532 141.011 46.8959 141.038 46.9403 141.062Z" fill="white"/>
<path d="M77.5434 140.962C76.2002 138.246 75.0205 137.277 74.4047 133.401C73.7452 129.265 72.4795 126.633 67.8727 126.633C63.4678 126.633 62.0249 128.73 60.9869 133.216C60.2102 136.57 60.0144 137.772 58.7078 140.05C57.2133 142.658 56.0239 145.314 56.0239 150.751C56.0239 157.333 60.9353 160.405 67.6703 160.405C74.4047 160.405 79.7209 157.637 79.7209 151.055C79.7203 146.751 79.5209 144.962 77.5434 140.962Z" fill="#579C43"/>
<path d="M77.544 140.962C76.2009 138.246 75.0211 137.277 74.4054 133.401C73.7458 129.265 72.4801 126.633 67.8733 126.633C66.9212 126.633 66.1085 126.731 65.4075 126.93C65.494 126.957 65.5805 126.985 65.6616 127.013C66.72 127.372 67.8145 127.971 68.5744 128.807C70.5002 130.931 70.2798 133.693 70.9237 136.308C71.7046 139.474 76.2105 143.518 76.3666 150.657C76.4063 152.456 75.6903 153.851 74.5099 155.152C72.1317 157.77 68.936 158.226 65.4255 157.483C63.0545 156.982 61.4038 156.013 59.7219 154.445C57.8315 152.682 56.0251 150.751 56.0251 150.751C56.0251 157.333 60.9365 160.405 67.6715 160.405C74.406 160.405 79.7222 157.637 79.7222 151.055C79.721 146.751 79.5215 144.962 77.544 140.962Z" fill="#95C947"/>
<path d="M59.2731 141.604C59.8023 141.895 60.391 141.805 60.937 141.593C61.8621 141.233 62.5992 140.603 63.1056 139.748C64.1628 137.957 64.3694 135.98 64.5112 133.945C64.6175 132.408 64.9996 130.236 66.0118 128.838C63.6708 129.117 62.4868 130.482 61.8477 133.246C61.3113 135.561 61.4963 136.475 60.5958 138.047C60.0042 139.076 59.4839 140.118 59.1458 141.524C59.1884 141.552 59.2293 141.58 59.2731 141.604Z" fill="white"/>
<path d="M151.278 138.93C151.278 138.93 149.714 131.902 151.385 128.886C151.385 128.886 149.352 127.99 146.967 129.856C146.967 129.856 148.694 137.404 148.493 138.951L151.278 138.93Z" fill="#5F3814"/>
<path d="M151.385 128.886C151.385 128.886 150.791 128.626 149.869 128.679C149.869 128.679 149.672 131.838 149.637 132.961C149.595 134.354 148.902 138.457 148.497 138.908C148.496 138.922 148.496 138.938 148.493 138.95L151.279 138.929C151.279 138.929 149.715 131.902 151.385 128.886Z" fill="#C4985C"/>
<path d="M163.063 146.865C163.063 154.533 156.845 160.749 149.178 160.749C141.51 160.749 135.293 154.533 135.293 146.865C135.293 141.707 136.742 138.723 141.016 136.754C146.148 134.389 147.273 137.453 149.784 137.453C152.842 137.453 155.542 134.776 158.638 136.899C161.87 139.117 163.063 142.886 163.063 146.865Z" fill="#EA3E48"/>
<path d="M139.54 149.345C140.22 148.977 140.747 148.455 141.025 147.722C141.285 147.039 141.373 146.308 141.431 145.584C141.526 144.384 141.55 143.162 141.815 141.981C142.014 141.091 142.371 140.214 143.062 139.591C143.669 139.044 144.416 138.717 145.196 138.502C144.252 138.029 143.16 137.549 140.968 138.559C138.127 139.868 137.165 141.851 137.165 145.279C137.165 146.895 137.581 148.412 138.311 149.734C138.741 149.663 139.164 149.549 139.54 149.345Z" fill="white"/>
<path d="M158.638 136.9C156.94 135.735 155.363 136.014 153.78 136.503C154.014 136.692 154.244 136.887 154.458 137.095C156.014 138.593 159.814 143.683 157.785 150.197C154.546 160.597 140.644 157.55 139.673 156.955C139.646 156.938 139.62 156.921 139.593 156.904C142.086 159.284 145.46 160.748 149.179 160.748C156.846 160.748 163.063 154.532 163.063 146.865C163.062 142.886 161.869 139.117 158.638 136.9Z" fill="#EA3E48"/>
<path d="M156.046 128.468C156.046 128.468 156.77 133.521 150.675 135.858C150.675 135.858 150.986 129.126 156.046 128.468Z" fill="#579C43"/>
<path d="M150.689 135.852C156.768 133.513 156.045 128.468 156.045 128.468C156.03 128.47 156.016 128.472 156 128.475L150.689 135.852Z" fill="#95C947"/>
<path d="M153.16 146.26C153.16 153.928 146.942 160.144 139.275 160.144C131.606 160.144 125.391 153.928 125.391 146.26C125.391 141.103 126.841 138.118 131.114 136.151C136.246 133.786 137.371 136.849 139.882 136.849C142.939 136.849 145.64 134.172 148.735 136.296C151.966 138.513 153.16 142.282 153.16 146.26Z" fill="#EA3E48"/>
<path d="M151.782 146.403C151.782 153.311 146.182 158.91 139.274 158.91C132.366 158.91 126.768 153.311 126.768 146.403C126.768 141.756 128.073 139.068 131.923 137.294C136.545 135.164 137.56 137.924 139.82 137.924C142.575 137.924 145.008 135.512 147.797 137.425C150.708 139.424 151.782 142.819 151.782 146.403Z" fill="#FFE0AA"/>
<path d="M130.449 150.148C131.129 149.779 131.655 149.257 131.935 148.524C132.195 147.84 132.284 147.111 132.341 146.386C132.436 145.186 132.46 143.964 132.724 142.784C132.923 141.893 133.281 141.017 133.973 140.393C134.579 139.847 135.326 139.52 136.105 139.305C135.162 138.833 134.07 138.352 131.878 139.362C129.037 140.672 128.076 142.654 128.076 146.082C128.076 147.698 128.491 149.216 129.221 150.537C129.649 150.466 130.074 150.351 130.449 150.148Z" fill="white"/>
<path d="M139.583 143.433C139.583 143.433 132.433 147.13 134.743 150.802C136.194 153.106 138.67 151.621 139.285 149.894L139.583 143.433Z" fill="#FCBE8C"/>
<path d="M140.149 143.327C140.149 143.327 147.139 147.316 144.678 150.889C143.133 153.132 140.72 151.547 140.179 149.795L140.149 143.327Z" fill="#FCBE8C"/>
<path d="M138.605 146.605C139.119 146.93 138.142 150.851 136.544 149.843C135.017 148.879 137.911 146.168 138.605 146.605Z" fill="#5F3814"/>
<path d="M141.037 146.605C140.523 146.93 141.502 150.851 143.099 149.843C144.626 148.879 141.732 146.168 141.037 146.605Z" fill="#5F3814"/>
<path d="M140.81 159.59H138.378C138.378 159.59 140.117 143.245 138.82 137.446C138.748 137.123 140.992 137.154 140.962 137.36C139.347 149.13 140.81 159.59 140.81 159.59Z" fill="#EA3E48"/>
<path d="M148.735 136.295C147.038 135.131 145.461 135.41 143.877 135.898C144.112 136.088 144.341 136.283 144.556 136.491C146.112 137.989 149.912 143.078 147.883 149.593C144.643 159.993 130.741 156.946 129.769 156.35C129.742 156.334 129.717 156.316 129.691 156.299C132.184 158.679 135.558 160.143 139.275 160.143C146.943 160.143 153.16 153.926 153.16 146.259C153.16 142.282 151.966 138.513 148.735 136.295Z" fill="#EA3E48"/>
<path d="M121.888 133.937C121.888 133.937 124.709 132.735 128.005 134.01C128.005 134.01 126.991 135.359 124.777 135.359C122.563 135.359 121.979 134.322 121.888 133.937Z" fill="#FDB525"/>
<path d="M129.963 127.093C129.963 127.093 130.553 131.217 125.581 133.125C125.581 133.125 125.833 127.63 129.963 127.093Z" fill="#579C43"/>
<path d="M125.591 133.12C130.553 131.211 129.963 127.093 129.963 127.093C129.951 127.094 129.939 127.096 129.927 127.099L125.591 133.12Z" fill="#95C947"/>
<path d="M126.067 135.465C126.067 135.465 124.791 129.73 126.156 127.267C126.156 127.267 124.495 126.536 122.549 128.058C122.549 128.058 123.958 134.219 123.794 135.482L126.067 135.465Z" fill="#5F3814"/>
<path d="M126.156 127.268C126.156 127.268 125.67 127.055 124.917 127.099C124.917 127.099 124.756 129.678 124.728 130.595C124.694 131.731 124.128 135.08 123.797 135.448C123.796 135.459 123.796 135.472 123.794 135.483L126.067 135.465C126.067 135.465 124.791 129.73 126.156 127.268Z" fill="#C4985C"/>
<path d="M137.922 146.923C137.922 154.182 132.037 160.069 124.777 160.069C117.517 160.069 111.632 154.182 111.632 146.923C111.632 140.198 115.636 133.971 122.198 133.931C123.525 133.923 124.243 134.743 124.777 134.743C125.391 134.743 126.44 133.799 127.507 133.936C133.918 134.759 137.922 140.277 137.922 146.923Z" fill="#FFCD41"/>
<path d="M114.875 148.885C115.742 148.973 116.575 148.891 117.186 148.199C118.623 146.574 119.141 144.517 119.188 142.389C119.221 140.945 119.165 139.377 119.866 138.06C120.183 137.461 120.629 137.032 121.155 136.74C121.005 136.705 120.844 136.684 120.666 136.686C116.143 136.714 113.383 141.006 113.383 145.642C113.383 146.738 113.578 147.79 113.933 148.763C114.247 148.812 114.562 148.853 114.875 148.885Z" fill="white"/>
<path d="M134.415 137.423C135.437 139.685 135.58 142.394 135.346 144.815C135.078 147.565 134.162 150.122 132.404 152.274C130.73 154.328 128.416 156.144 125.763 156.669C122.866 157.242 119.726 156.915 117.006 155.778C115.876 155.306 114.717 154.689 113.689 153.98C116.023 157.639 120.115 160.069 124.777 160.069C132.037 160.069 137.922 154.182 137.922 146.923C137.922 143.19 136.658 139.812 134.415 137.423Z" fill="#FFCD41"/>
<path d="M125.83 146.702C125.83 153.962 119.945 159.848 112.685 159.848C105.424 159.848 99.5405 153.963 99.5405 146.702C99.5405 139.978 103.544 133.751 110.104 133.71C111.433 133.702 112.149 134.522 112.684 134.522C113.298 134.522 114.347 133.578 115.415 133.715C121.826 134.538 125.83 140.057 125.83 146.702Z" fill="#FFCD41"/>
<path d="M124.573 146.709C124.573 153.274 119.25 158.597 112.685 158.597C106.119 158.597 100.797 153.274 100.797 146.709C100.797 140.627 104.418 134.996 110.352 134.959C111.553 134.951 112.2 135.693 112.685 135.693C113.24 135.693 114.188 134.84 115.154 134.964C120.953 135.708 124.573 140.699 124.573 146.709Z" fill="#FFDE8E"/>
<path d="M112.071 146.176C112.069 146.169 110.586 135.962 110.549 135.962C106.932 135.985 104.254 138.282 102.87 141.457C104.05 142.066 112.071 146.176 112.071 146.176Z" fill="#FFCD41"/>
<path d="M112.685 146.028C112.803 146.049 114.945 135.967 114.945 135.967C114.06 135.854 113.193 136.635 112.685 136.635C112.346 136.635 111.922 136.243 111.255 136.058L112.685 146.028Z" fill="#FFCD41"/>
<path d="M113.322 146.176C113.322 146.176 121.069 142.339 122.498 141.619C121.201 138.771 118.776 136.677 115.547 136.065C115.526 136.221 113.322 146.176 113.322 146.176Z" fill="#FFCD41"/>
<path d="M113.322 146.691L122.432 151.547C123.156 150.091 123.563 148.451 123.563 146.714C123.563 145.18 123.304 143.719 122.817 142.394C122.74 142.189 113.322 146.691 113.322 146.691Z" fill="#FFCD41"/>
<path d="M112.685 147.584L108.36 156.697C109.686 157.273 111.147 157.594 112.685 157.594C113.629 157.594 114.546 157.473 115.419 157.246L112.685 147.584Z" fill="#FFCD41"/>
<path d="M113.322 147.457C113.504 147.86 115.655 156.079 116.086 157.049C118.659 156.201 120.806 154.421 122.13 152.108C121.417 151.765 114.755 148.474 113.322 147.457Z" fill="#FFCD41"/>
<path d="M112.071 146.775L102.669 141.948C102.105 143.417 101.807 145.047 101.807 146.715C101.807 148.01 102.034 149.252 102.449 150.405L112.071 146.775Z" fill="#FFCD41"/>
<path d="M112.071 147.457C112.071 147.457 102.62 150.847 102.674 150.972C103.673 153.32 105.473 155.243 107.731 156.401L112.071 147.457Z" fill="#FFCD41"/>
<path d="M102.992 148.664C103.859 148.753 104.691 148.671 105.304 147.978C106.74 146.353 107.256 144.296 107.304 142.167C107.338 140.723 107.282 139.155 107.982 137.839C108.3 137.241 108.747 136.81 109.272 136.518C109.125 136.484 108.962 136.463 108.783 136.464C104.261 136.492 101.5 140.784 101.5 145.42C101.5 146.517 101.696 147.567 102.051 148.54C102.364 148.591 102.678 148.632 102.992 148.664Z" fill="white"/>
<path d="M122.322 137.202C123.344 139.465 123.488 142.173 123.253 144.594C122.986 147.344 122.07 149.901 120.312 152.054C118.637 154.106 116.323 155.923 113.669 156.448C110.772 157.021 107.633 156.694 104.914 155.557C103.782 155.084 102.623 154.468 101.598 153.759C103.93 157.418 108.022 159.848 112.684 159.848C119.944 159.848 125.829 153.963 125.829 146.702C125.83 142.969 124.567 139.592 122.322 137.202Z" fill="#FFE7C1"/>
<path d="M96.2488 147.505C96.2488 155.503 91.1122 160.14 83.4515 160.14C75.792 160.14 70.5935 155.543 70.5935 147.545C70.5935 142.165 72.2863 138.496 76.4683 136.252C81.4638 133.572 86.2051 134.003 89.9631 136.013C93.649 137.983 96.2488 141.319 96.2488 147.505Z" fill="#EA3E48"/>
<path d="M78.7902 142.988C78.95 142.704 81.0777 143.121 80.5803 144.004C80.1063 144.849 78.5746 143.372 78.7902 142.988Z" fill="#FFCD41"/>
<path d="M78.7723 151.284C78.6167 150.997 80.1101 149.424 80.5894 150.318C81.0483 151.171 78.9807 151.672 78.7723 151.284Z" fill="#FFCD41"/>
<path d="M77.8937 148.332C77.8348 148.011 79.7414 146.979 79.9216 147.976C80.0916 148.93 77.9712 148.766 77.8937 148.332Z" fill="#FFCD41"/>
<path d="M78.039 145.611C78.0979 145.291 80.2454 144.996 80.0616 145.993C79.8868 146.946 77.9597 146.044 78.039 145.611Z" fill="#FFCD41"/>
<path d="M88.0721 142.988C87.9129 142.704 85.7858 143.121 86.2832 144.004C86.7565 144.849 88.2883 143.372 88.0721 142.988Z" fill="#FFCD41"/>
<path d="M88.0871 150.772C88.2421 150.485 86.7499 148.913 86.27 149.805C85.8117 150.659 87.8787 151.16 88.0871 150.772Z" fill="#FFCD41"/>
<path d="M88.8235 148.332C88.8805 148.011 86.9751 146.979 86.7961 147.976C86.6237 148.93 88.7448 148.766 88.8235 148.332Z" fill="#FFCD41"/>
<path d="M88.8701 145.611C88.8113 145.291 86.6638 144.996 86.8476 145.993C87.023 146.946 88.9506 146.044 88.8701 145.611Z" fill="#FFCD41"/>
<path d="M88.8412 137.061C85.5698 135.277 81.4412 134.894 77.0915 137.273C73.4507 139.265 71.9766 142.523 71.9766 147.299C71.9766 154.4 76.5028 158.481 83.1718 158.481C89.8414 158.481 94.3136 154.365 94.3136 147.263C94.3136 141.771 92.0507 138.81 88.8412 137.061ZM74.2742 147.463C74.2742 143.743 75.4456 141.205 78.3374 139.654C79.3562 139.108 80.3587 138.749 81.3349 138.55C81.7271 140.056 81.9764 141.867 82.1074 143.809C81.1192 144.435 80.4386 145.742 80.4386 147.256C80.4386 148.778 81.127 150.089 82.1224 150.712C82.0155 152.608 81.8274 154.444 81.5745 156.069C77.1624 155.485 74.2742 152.419 74.2742 147.463ZM85.3475 155.972C85.192 154.602 84.891 152.882 84.685 150.734C85.699 150.12 86.403 148.796 86.403 147.256C86.403 145.649 85.6377 144.274 84.551 143.7C84.6417 142.127 84.8201 140.415 85.1223 138.555C86.0245 138.745 86.8781 139.066 87.6686 139.489C90.218 140.852 92.0141 143.157 92.0141 147.436C92.0147 152.168 89.4155 155.196 85.3475 155.972Z" fill="#FFE0AA"/>
<path d="M89.9823 136.052C88.2396 135.121 86.2862 134.528 84.1933 134.429C84.3147 134.484 84.436 134.54 84.5561 134.599C86.5625 135.577 88.7695 136.791 90.2418 138.51C91.4876 139.964 92.2547 141.709 92.5593 143.595C92.8848 145.614 93.0284 147.823 92.4577 149.811C91.8883 151.794 90.8016 153.549 89.2008 154.861C87.5212 156.237 84.2216 156.85 82.1041 156.909C75.4177 157.098 73.3399 153.965 71.3137 152.28C72.9747 157.354 77.4649 160.18 83.4701 160.18C91.1314 160.18 96.2674 155.543 96.2674 147.545C96.2674 141.358 93.667 138.023 89.9823 136.052Z" fill="#DFD2D2"/>
<path d="M75.5211 148.192C77.0751 147.766 77.7779 146.675 77.7695 145.075C77.7605 143.361 77.4103 141.747 78.1936 140.14C78.5997 139.308 79.2424 138.535 79.5415 137.658C79.5481 137.639 79.5524 137.619 79.5584 137.6C78.7462 137.827 77.9173 138.159 77.0775 138.609C73.961 140.281 72.699 143.016 72.699 147.026C72.699 147.497 72.7266 147.951 72.7747 148.39C73.6955 148.438 74.6368 148.434 75.5211 148.192Z" fill="white"/>
<path d="M110.537 147.478C110.537 155.476 105.4 160.112 97.7407 160.112C90.0799 160.112 84.8821 155.516 84.8821 147.518C84.8821 142.138 86.5749 138.468 90.7569 136.225C95.7523 133.545 100.493 133.975 104.251 135.986C107.936 137.956 110.537 141.291 110.537 147.478Z" fill="#EA3E48"/>
<path d="M89.2816 148.18C90.8374 147.754 91.5396 146.662 91.5312 145.062C91.5222 143.349 91.1726 141.735 91.9559 140.129C92.362 139.296 93.0041 138.523 93.3033 137.646C93.3099 137.628 93.3153 137.608 93.3213 137.588C92.5079 137.816 91.6772 138.147 90.8392 138.597C87.7228 140.269 86.4607 143.004 86.4607 147.013C86.4607 147.485 86.4883 147.938 86.5352 148.378C87.4579 148.426 88.3992 148.423 89.2816 148.18Z" fill="white"/>
<path d="M104.251 135.986C102.508 135.054 100.555 134.462 98.4621 134.362C98.5835 134.417 98.7042 134.473 98.8249 134.532C100.831 135.51 103.038 136.725 104.512 138.444C105.756 139.896 106.524 141.641 106.828 143.528C107.154 145.547 107.297 147.755 106.725 149.745C106.158 151.726 105.07 153.482 103.47 154.793C101.79 156.169 98.4892 156.782 96.3729 156.842C89.6865 157.031 87.6087 153.898 85.5825 152.212C87.2435 157.287 91.7343 160.112 97.7401 160.112C105.4 160.112 110.536 155.476 110.536 147.478C110.537 141.291 107.936 137.956 104.251 135.986Z" fill="#EA3E48"/>
<path d="M98.6769 134.645C98.6769 134.645 98.4648 130.964 99.9263 128.642C99.9263 128.642 98.3507 127.841 96.3738 129.216C96.3738 129.216 97.6629 133.395 97.434 134.615L98.6769 134.645Z" fill="#95C947"/>
<path d="M99.9255 128.642C99.9255 128.642 99.4654 128.408 98.7307 128.411C98.7307 128.411 98.4929 130.919 98.3559 131.802C98.2754 132.325 97.781 134.241 97.438 134.582C97.4362 134.592 97.4362 134.604 97.4338 134.615L98.6767 134.645C98.6767 134.645 98.464 130.964 99.9255 128.642Z" fill="#95C947"/>
<path d="M101.919 134.993C104.169 135.745 104.857 138.809 104.857 138.809C104.348 138.107 101.794 136.671 101.794 136.671C102.075 138.162 101.165 139.751 101.165 139.751C99.6805 137.468 98.1733 136.536 98.1733 136.536C96.3316 137.206 94.2489 139.575 94.2489 139.575C94.3048 137.934 94.6328 136.607 94.6328 136.607C91.7848 136.871 90.5654 138.162 90.5654 138.162C91.2112 136.201 92.8457 135.276 92.8457 135.276C92.8457 135.276 96.9545 133.33 101.919 134.993Z" fill="#95C947"/>
<path d="M104.857 138.809C104.857 138.809 104.169 135.746 101.919 134.993C101.865 134.975 101.811 134.959 101.758 134.942C102.132 135.394 102.554 135.904 102.634 136.483C102.646 136.565 101.464 135.966 101.15 135.985C100.947 135.997 101.102 138.178 100.893 138.13C100.434 138.025 99.9141 137.455 99.6162 137.133C99.156 136.636 98.2135 135.722 97.7828 135.89C97.1197 136.147 95.4671 137.46 95.4305 137.309C95.3632 137.03 95.1992 135.978 95.1992 135.978C95.1992 135.978 92.6631 136.484 92.6853 136.412C92.7994 136.045 92.913 135.618 92.913 135.245C92.8703 135.264 92.8457 135.276 92.8457 135.276C92.8457 135.276 91.2112 136.201 90.5654 138.162C90.5654 138.162 91.7848 136.871 94.6328 136.608C94.6328 136.608 94.3048 137.935 94.2489 139.575C94.2489 139.575 96.3316 137.206 98.1733 136.536C98.1733 136.536 99.6805 137.469 101.165 139.752C101.165 139.752 102.075 138.162 101.794 136.671C101.794 136.671 104.348 138.108 104.857 138.809Z" fill="#95C947"/>
<path d="M69.1122 152.059C65.7453 156.563 66.0204 160.291 62.6799 160.291C59.4692 160.291 58.5597 155.63 56.172 152.223C54.4107 149.708 56.6663 145.795 59.3899 145.425C60.9692 145.211 61.9405 145.852 62.6589 145.852C63.3239 145.852 64.6809 145.191 65.9664 145.395C68.741 145.836 70.4993 150.203 69.1122 152.059Z" fill="#EA3E48"/>
<path d="M59.1721 151.478C58.8946 151.484 58.2915 150.062 59.1559 150.041C59.9813 150.021 59.5482 151.468 59.1721 151.478Z" fill="#FFCD41"/>
<path d="M60.6469 149.839C60.3688 149.846 59.7651 148.424 60.6307 148.403C61.4555 148.382 61.023 149.83 60.6469 149.839Z" fill="#FFCD41"/>
<path d="M57.5602 149.705C57.2821 149.712 56.6796 148.289 57.544 148.268C58.3694 148.248 57.9357 149.696 57.5602 149.705Z" fill="#FFCD41"/>
<path d="M62.2689 151.478C61.9907 151.484 61.3888 150.062 62.252 150.041C63.0786 150.021 62.6449 151.468 62.2689 151.478Z" fill="#FFCD41"/>
<path d="M64.2033 150.238C63.9258 150.245 63.3221 148.822 64.1865 148.801C65.0124 148.781 64.5787 150.229 64.2033 150.238Z" fill="#FFCD41"/>
<path d="M66.1466 151.478C65.8684 151.484 65.2659 150.062 66.1297 150.041C66.9557 150.021 66.522 151.468 66.1466 151.478Z" fill="#FFCD41"/>
<path d="M67.426 149.839C67.1478 149.846 66.5453 148.424 67.4097 148.403C68.2351 148.382 67.8014 149.83 67.426 149.839Z" fill="#FFCD41"/>
<path d="M59.8861 153.497C59.608 153.504 59.0043 152.08 59.8693 152.06C60.6952 152.04 60.2615 153.487 59.8861 153.497Z" fill="#FFCD41"/>
<path d="M57.716 152.778C57.4367 152.785 56.8342 151.363 57.6992 151.341C58.5246 151.321 58.0903 152.769 57.716 152.778Z" fill="#FFCD41"/>
<path d="M61.5143 153.497C61.2374 153.504 60.6343 152.08 61.4987 152.06C62.3247 152.04 61.8916 153.487 61.5143 153.497Z" fill="#FFCD41"/>
<path d="M63.2949 153.944C63.0162 153.951 62.4137 152.528 63.2781 152.508C64.1035 152.488 63.6698 153.935 63.2949 153.944Z" fill="#FFCD41"/>
<path d="M64.8056 152.508C64.5281 152.515 63.9238 151.091 64.7888 151.071C65.616 151.051 65.1822 152.498 64.8056 152.508Z" fill="#FFCD41"/>
<path d="M66.9654 153.372C66.6879 153.379 66.0854 151.957 66.9498 151.936C67.7746 151.916 67.3421 153.363 66.9654 153.372Z" fill="#FFCD41"/>
<path d="M60.6469 155.703C60.3688 155.708 59.7651 154.286 60.6307 154.266C61.4555 154.246 61.023 155.693 60.6469 155.703Z" fill="#FFCD41"/>
<path d="M62.5771 156.1C62.2983 156.107 61.6958 154.684 62.5596 154.663C63.3868 154.643 62.9525 156.091 62.5771 156.1Z" fill="#FFCD41"/>
<path d="M64.2033 155.62C63.9258 155.627 63.3221 154.204 64.1865 154.183C65.0124 154.163 64.5787 155.611 64.2033 155.62Z" fill="#FFCD41"/>
<path d="M65.8612 155.19C65.5831 155.196 64.9788 153.774 65.8432 153.753C66.6704 153.734 66.2361 155.181 65.8612 155.19Z" fill="#FFCD41"/>
<path d="M58.9655 155.382C58.6879 155.388 58.0842 153.965 58.9499 153.944C59.7752 153.924 59.3415 155.373 58.9655 155.382Z" fill="#FFCD41"/>
<path d="M61.055 157.979C60.7769 157.985 60.175 156.563 61.0382 156.541C61.8647 156.521 61.431 157.969 61.055 157.979Z" fill="#FFCD41"/>
<path d="M62.5771 158.846C62.2983 158.853 61.6958 157.431 62.5596 157.41C63.3868 157.39 62.9525 158.837 62.5771 158.846Z" fill="#FFCD41"/>
<path d="M64.3451 157.875C64.0676 157.882 63.4639 156.46 64.3295 156.438C65.1549 156.418 64.7211 157.866 64.3451 157.875Z" fill="#FFCD41"/>
<path d="M65.9663 145.395C65.4906 145.319 65.0052 145.363 64.5487 145.447C65.2809 145.873 65.9363 146.476 66.4144 147.067C67.0962 147.908 67.7618 148.943 67.7258 150.073C67.6927 151.084 67.2008 151.847 66.5502 152.587C65.6083 153.657 64.9415 154.792 64.3643 156.098C63.9143 157.119 63.5269 158.103 62.3345 158.408C61.3788 158.653 60.3642 158.563 59.4866 158.134C60.3227 159.409 61.2845 160.29 62.6793 160.29C66.0198 160.29 65.7453 156.561 69.1116 152.058C70.4992 150.202 68.741 145.836 65.9663 145.395Z" fill="#EA3E48"/>
<path d="M57.9186 152.484C58.1199 152.416 58.3079 152.307 58.4785 152.145C58.8425 151.799 59.1314 151.355 59.2714 150.869C59.3879 150.463 59.4324 150.025 59.5976 149.635C59.7652 149.245 60.0139 149.044 60.3322 148.78C60.9672 148.254 61.3 147.427 60.999 146.699C60.608 146.596 60.1346 146.505 59.5369 146.586C57.602 146.847 56.0012 149.626 57.2524 151.411C57.4927 151.756 57.7126 152.117 57.9186 152.484Z" fill="white"/>
<path d="M62.9272 139.802C62.9272 139.802 66.1956 142.677 62.8918 146.944C62.8918 146.944 59.4918 142.53 62.9272 139.802Z" fill="#579C43"/>
<path d="M62.8977 146.934C66.1901 142.673 62.9265 139.802 62.9265 139.802C62.9175 139.81 62.9079 139.818 62.8977 139.827V146.934Z" fill="#95C947"/>
<path d="M67.8563 141.164C67.8563 141.164 68.5248 145.114 62.8987 146.941C62.8987 146.941 63.1858 141.679 67.8563 141.164Z" fill="#579C43"/>
<path d="M62.9099 146.937C68.5235 145.108 67.8555 141.163 67.8555 141.163C67.8417 141.165 67.8296 141.167 67.8146 141.168L62.9099 146.937Z" fill="#95C947"/>
<path d="M57.9055 141.164C57.9055 141.164 57.2375 145.114 62.8624 146.941C62.8624 146.941 62.5765 141.679 57.9055 141.164Z" fill="#579C43"/>
<path d="M62.8505 146.937C57.2381 145.108 57.9055 141.163 57.9055 141.163C57.9187 141.165 57.9319 141.167 57.9457 141.168L62.8505 146.937Z" fill="#95C947"/>
<path d="M163.062 152.536C160.214 155.722 158.351 153.445 159.265 153.147C160.926 152.604 161.299 151.181 161.299 151.181C156.825 152.672 156.408 148.777 157.605 148.814C160.98 148.915 160.554 147.52 160.554 147.52C160.215 147.453 159.402 148.198 157.842 146.707C156.283 145.216 157.291 144.006 157.842 144.267C160.485 145.521 161.434 144.539 161.028 143.792C160.62 143.047 159.825 140.94 160.774 140.505C161.723 140.07 161.872 139.302 162.231 138.895C162.508 138.58 163.265 138.285 163.909 138.878C164.384 139.315 164.638 140.341 165.586 140.776C166.536 141.211 165.502 143.047 165.096 143.792C164.689 144.539 165.638 145.521 168.282 144.267C168.833 144.006 169.841 145.216 168.282 146.707C166.722 148.199 165.909 147.453 165.571 147.52C165.571 147.52 165.143 148.915 168.52 148.814C169.715 148.778 169.298 152.673 164.824 151.181C164.824 151.181 165.197 152.604 166.859 153.147C167.771 153.445 165.909 155.722 163.062 152.536Z" fill="#579C43"/>
<path opacity="0.5" d="M159.58 145.839C159.256 145.965 160.016 146.608 160.298 146.765C160.682 146.979 161.376 146.942 161.789 146.754C162.239 146.549 162.492 145.919 162.563 145.407C162.717 144.265 162.664 143.351 162.664 142.424C162.664 141.799 162.679 140.935 162.358 140.413C162.174 140.705 161.925 140.998 161.504 141.212C160.631 141.655 161.364 143.805 161.738 144.566C162.074 145.249 161.078 145.251 159.58 145.839Z" fill="white"/>
<path d="M163.061 158.818V140.787" stroke="#95C947" stroke-width="0.4514" stroke-miterlimit="10"/>
<path d="M168.519 148.813C165.142 148.914 165.57 147.52 165.57 147.52C165.909 147.452 166.722 148.197 168.281 146.706C169.84 145.216 168.832 144.006 168.281 144.266C165.637 145.521 164.688 144.539 165.095 143.792C165.502 143.046 166.535 141.21 165.586 140.776C164.637 140.341 164.384 139.315 163.908 138.878C163.575 138.569 163.21 138.502 162.899 138.552C162.943 138.613 162.986 138.675 163.025 138.738C163.466 139.424 163.829 140.139 164.051 140.927C164.593 142.846 164.586 144.828 164.585 146.807C164.584 147.758 164.608 148.777 164.169 149.649C163.778 150.427 163.188 151.149 162.601 151.789C161.835 152.627 160.587 153.291 159.437 153.086C159.381 153.107 159.325 153.127 159.266 153.147C158.351 153.445 160.215 155.722 163.062 152.536C165.909 155.722 167.772 153.445 166.859 153.147C165.197 152.604 164.824 151.181 164.824 151.181C169.297 152.672 169.715 148.777 168.519 148.813Z" fill="#95C947"/>
<path d="M107.707 162.254C102.729 162.254 98.6787 158.204 98.6787 153.226C98.6787 148.248 102.729 144.198 107.707 144.198C112.685 144.198 116.735 148.248 116.735 153.226C116.735 158.204 112.685 162.254 107.707 162.254ZM107.707 145.996C103.719 145.996 100.477 149.24 100.477 153.226C100.477 157.213 103.719 160.456 107.707 160.456C111.693 160.456 114.938 157.214 114.938 153.226C114.938 149.24 111.694 145.996 107.707 145.996Z" fill="#5A3E69"/>
<path d="M107.707 161.392C103.203 161.392 99.5403 157.729 99.5403 153.226C99.5403 148.723 103.204 145.06 107.707 145.06C112.21 145.06 115.873 148.723 115.873 153.226C115.873 157.729 112.21 161.392 107.707 161.392ZM107.707 146.686C104.1 146.686 101.166 149.62 101.166 153.226C101.166 156.832 104.1 159.767 107.707 159.767C111.313 159.767 114.247 156.832 114.247 153.226C114.247 149.62 111.313 146.686 107.707 146.686Z" fill="#FFE0AA"/>
<path d="M92.6815 160.009C93.1488 160.959 88.2357 161.047 88.4465 160.009C88.7968 158.278 88.4465 153.458 88.4465 153.458H92.6815C92.6815 153.458 91.7714 158.164 92.6815 160.009Z" fill="#FED09B"/>
<path d="M96.18 152.556C96.6894 149.506 93.4895 147.134 90.3905 147.134C87.2914 147.134 84.5228 150.184 84.9319 152.499C85.4353 155.349 95.7036 155.411 96.18 152.556Z" fill="#FFE0AA"/>
<path d="M86.1741 151.349C87.2842 151.433 88.0657 150.876 88.9115 150.24C89.335 149.923 89.7861 149.775 90.2877 149.623C90.7322 149.489 91.3413 149.316 91.6008 148.886C91.8724 148.434 91.6909 148.087 91.3509 147.815C91.1353 147.79 90.9184 147.776 90.7028 147.776C88.4766 147.776 86.4474 149.563 85.9717 151.325C86.0396 151.336 86.1068 151.344 86.1741 151.349Z" fill="white"/>
<path d="M94.2949 148.426C93.7699 149.828 92.819 151.058 91.4867 151.794C90.2294 152.49 88.9962 152.713 87.5809 152.791C86.952 152.826 86.1471 152.981 85.5427 152.733C85.3085 152.637 85.106 152.504 84.9138 152.356C84.9204 152.404 84.9252 152.452 84.9336 152.499C85.4364 155.35 95.7048 155.411 96.1817 152.556C96.4599 150.881 95.6213 149.411 94.2949 148.426Z" fill="#F6F5EC"/>
</svg>
