<svg width="200" height="209" viewBox="0 0 200 209" fill="none" xmlns="http://www.w3.org/2000/svg">
<path d="M144.832 13.0905C184.812 22.1741 208.815 63.7019 196.258 102.687C196.01 103.473 195.74 104.26 195.47 105.057C177.929 156.024 126.105 139.301 110.16 164.785C94.216 190.268 71.0978 208.586 40.7949 197.434C10.5028 186.281 -18.2035 118.591 14.4835 65.232C40.18 23.2947 93.9571 1.51788 144.832 13.0797L144.832 13.0905Z" fill="#E8FAF7"/>
<path d="M149.533 75.9278C149.533 75.9278 155.535 85.4063 160.378 87.3306C165.221 89.2549 176.516 81.1857 176.516 81.1857L180.995 79.9409C181.574 79.7263 181.996 79.2256 182.125 78.6247L182.761 75.6846C182.854 75.2553 182.761 74.7975 182.504 74.4398L181.989 73.7173C181.417 72.9161 180.265 72.8303 179.585 73.5313L175.472 77.7591C175.472 77.7591 164.885 82.7881 162.753 80.5776C160.564 78.3028 160.643 78.3958 156.172 72.3724L149.526 75.9135L149.533 75.9278Z" fill="#FDBD9B"/>
<path d="M145.749 61.2986C143.724 62.5148 141.127 68.3521 149.712 78.1597L157.194 72.4439C157.194 72.4439 152.079 57.5001 145.749 61.2915V61.2986Z" fill="#ED715F"/>
<path opacity="0.1" d="M154.999 74.125C153.346 67.5723 151.028 65.0757 151.028 65.0757L149.54 67.1717L146.829 70.9917L147.516 75.4055C148.153 76.2854 148.882 77.2082 149.726 78.1668L155.013 74.1321L154.999 74.125Z" fill="black"/>
<path d="M123.63 140.482C123.308 144.481 121.727 149.438 121.727 149.438C113.207 152.929 92.4399 182.939 92.4399 182.939L95.8093 186.136C95.8093 186.136 123.98 164.325 131.377 155.14C133.537 152.457 135.032 146.698 136.599 143.043C130.483 143.544 126.048 141.677 123.63 140.482Z" fill="#FDBD9B"/>
<path d="M96.5891 185.228L92.7119 181.672C92.5402 181.515 92.2898 181.501 92.1038 181.629L87.9476 184.519C87.5756 184.77 87.4826 185.278 87.733 185.65C87.7688 185.7 87.8045 185.743 87.8474 185.778C89.4856 187.238 90.995 188.468 92.998 190.321C95.3659 192.503 94.5003 192.231 97.2473 194.835C98.9069 196.402 100.967 194.778 100.345 194.034C97.469 190.629 97.4476 188.769 97.2616 186.444C97.1972 185.972 96.954 185.535 96.5891 185.228Z" fill="#263238"/>
<path opacity="0.1" d="M123.63 140.482C123.537 141.626 123.343 142.843 123.107 144.001C125.418 144.967 130.175 146.577 135.404 146.133C135.805 145.024 136.199 143.966 136.592 143.036C130.476 143.536 126.04 141.669 123.622 140.475L123.63 140.482Z" fill="black"/>
<path d="M124.324 118.005C124.431 125.095 123.172 134.823 122.693 140.84C125.111 142.034 131.034 144.538 137.15 144.037C139.318 138.98 141.986 132.37 144.654 122.691C147.308 113.076 146.779 99.363 146.779 99.363L122.6 97.8536C121.655 112.604 124.324 118.012 124.324 118.012V118.005Z" fill="#263238"/>
<path opacity="0.5" d="M146.779 99.363L122.6 97.8536C121.655 112.604 124.324 118.012 124.324 118.012C124.36 120.438 124.238 123.17 124.038 125.953C125.504 129.83 128.48 137.535 131.234 143.701C133.101 144.044 135.119 144.209 137.15 144.044C139.318 138.987 141.986 132.377 144.654 122.698C147.308 113.084 146.779 99.3702 146.779 99.3702V99.363Z" fill="#002A42"/>
<path d="M150.27 151.041C149.855 148.093 146.893 137.392 146.893 137.392C140.97 140.553 136.907 141.576 134.632 141.855C135.705 144.374 137.822 149.503 138.802 151.713C138.802 151.713 137.88 162.222 150.47 203.369L155.52 202.568C155.52 202.568 152.072 163.838 150.262 151.041H150.27Z" fill="#FDBD9B"/>
<path d="M155.055 201.516L149.919 202.639C149.697 202.69 149.533 202.883 149.533 203.112L149.497 208.176C149.497 208.627 149.848 208.992 150.298 208.999C150.356 208.999 150.413 208.999 150.47 208.985C152.602 208.484 154.483 207.962 157.151 207.389C160.299 206.71 159.584 207.261 163.289 206.517C165.521 206.066 165.385 203.448 164.412 203.526C159.97 203.913 158.439 202.861 156.436 201.674C156.007 201.452 155.52 201.402 155.055 201.516Z" fill="#263238"/>
<path opacity="0.1" d="M146.893 137.392C140.97 140.553 136.907 141.576 134.632 141.855C134.925 142.549 135.304 143.444 135.712 144.424C137.872 144.044 142.773 142.886 147.501 139.638C147.136 138.293 146.893 137.392 146.893 137.392Z" fill="black"/>
<path d="M147.63 138.171C147.63 138.171 142.737 119.472 142.859 113.134C142.93 109.392 145.799 98.4474 145.799 98.4474L123.272 95.772C123.272 95.772 116.576 108.198 123.258 118.191C123.258 118.191 128.802 131.375 134.003 142.886C136.277 142.557 141.771 141.462 147.623 138.171H147.63Z" fill="#002A42"/>
<path d="M135.369 44.1586C135.448 46.6767 134.89 49.8672 132.708 51.3981C131.663 52.1277 130.39 52.4997 129.532 53.4869C128.716 54.4169 128.308 55.726 127.8 56.8348C127.629 57.214 128.187 57.543 128.358 57.1639C129.06 55.633 129.546 54.0807 131.005 53.1149C132.307 52.2565 133.588 51.8631 134.496 50.511C135.698 48.7155 136.084 46.2904 136.02 44.1658C136.006 43.7509 135.362 43.7509 135.369 44.1658V44.1586Z" fill="black"/>
<path d="M135.705 40.918C135.705 40.918 136.277 35.6601 128.694 38.543C121.434 41.3043 124.195 45.3389 117.356 49.0374C110.517 52.7358 121.255 55.5328 118.794 58.7806C116.333 62.0283 124.61 62.386 126.892 56.5129C129.174 50.6398 132.328 52.4282 134.446 49.5166C135.698 47.7998 136.249 44.1586 136.249 44.1586L135.705 40.918Z" fill="black"/>
<path d="M137.922 44.7882C137.922 44.7882 136.992 44.5951 136.706 44.7096C136.613 44.7453 136.492 44.8526 136.363 44.9814C136.098 45.2604 135.626 45.1674 135.505 44.8025C135.154 43.7581 134.789 41.8767 135.812 40.1527C135.812 40.1527 136.206 40.8681 136.449 40.9181C136.807 41.004 137.801 40.3101 137.801 40.3101L137.922 44.7954V44.7882Z" fill="#ED715F"/>
<path d="M121.369 96.5445C121.369 96.5445 139.375 99.4345 148.431 99.6205C148.431 99.6205 148.031 92.9176 149.712 86.9444C151.386 80.9711 156.128 75.9278 150.363 63.5807C147.208 56.8277 129.002 55.8977 126.234 62.2001C123.372 68.7241 131.048 72.4083 121.376 96.5445H121.369Z" fill="#ED715F"/>
<path d="M146.113 56.0766L141.235 50.4681C141.485 55.4327 137.658 57.9794 137.658 57.9794C137.658 57.9794 138.158 61.5061 145.684 67.8943C150.37 64.482 147.043 60.3258 147.043 60.3258C147.043 60.3258 144.311 58.5589 146.113 56.0837V56.0766Z" fill="#FDBD9B"/>
<path opacity="0.1" d="M145.727 58.7806C145.405 58.0653 145.348 57.1353 146.114 56.0766L141.235 50.4681C141.271 51.2121 141.213 51.8917 141.092 52.5212C141.435 54.0092 142.487 56.7919 145.72 58.7806H145.727Z" fill="black"/>
<path d="M139.761 42.3632C139.403 47.8786 139.139 50.2035 141.542 53.3583C145.162 58.1083 152.022 57.3357 154.018 52.0492C155.814 47.2777 156.1 39.0296 151.007 36.2039C147.387 34.1509 142.787 35.417 140.734 39.0368C140.155 40.0526 139.818 41.1972 139.761 42.3632Z" fill="#FDBD9B"/>
<path d="M141.099 46.4264C141.099 46.4264 142.859 44.7239 142.93 41.9483C143.002 39.1727 147.358 36.1825 152.917 37.7706C152.917 37.7706 154.519 32.7845 150.556 34.859C150.556 34.859 144.232 30.5383 138.803 36.9264C135.025 41.3688 137.071 46.176 138.667 48.6941C139.153 49.4595 140.312 49.2807 140.548 48.408L141.099 46.4264Z" fill="black"/>
<path d="M137.744 46.3833C137.966 47.4063 138.581 48.3005 139.453 48.8728C140.627 49.6167 141.621 48.6653 141.635 47.3347C141.635 46.1401 141.034 44.3159 139.697 44.087C138.724 43.9511 137.815 44.6307 137.679 45.6036C137.644 45.8611 137.665 46.1258 137.744 46.3762V46.3833Z" fill="#FDBD9B"/>
<path d="M139.432 46.3262C139.432 46.3262 140.483 46.505 140.333 47.671C140.333 47.671 140.054 48.5867 141.106 49.6454C141.106 49.6454 140.891 50.0103 140.512 50.0103C140.512 50.0103 137.393 46.9271 139.425 46.3333L139.432 46.3262Z" fill="#ED715F"/>
<path opacity="0.5" d="M139.432 46.3262C139.432 46.3262 140.483 46.505 140.333 47.671C140.333 47.671 140.054 48.5867 141.106 49.6454C141.106 49.6454 140.891 50.0103 140.512 50.0103C140.512 50.0103 137.393 46.9271 139.425 46.3333L139.432 46.3262Z" fill="#1E1E1E"/>
<path opacity="0.1" d="M134.117 67.229L131.892 66.0415L125.647 68.2949C125.647 68.2949 125.575 68.4809 125.447 68.8171C125.59 72.5441 126.055 77.3156 125.175 83.8969C133.48 73.5528 134.117 67.2218 134.117 67.2218V67.229Z" fill="black"/>
<path d="M129.26 72.494C129.26 72.494 124.91 82.8381 120.454 85.535C115.997 88.2319 103.521 82.1442 103.521 82.1442L98.8927 81.6578C98.2846 81.5361 97.7839 81.1212 97.555 80.5489L96.439 77.7519C96.2745 77.3441 96.2888 76.8791 96.4891 76.4785L96.8754 75.6845C97.3046 74.8046 98.4277 74.5256 99.2146 75.1051L103.972 78.596C103.972 78.596 115.246 81.808 116.984 79.2756C118.773 76.6717 118.701 76.779 122.12 70.0975L129.26 72.494Z" fill="#FDBD9B"/>
<path d="M132.564 59.5389C134.589 60.755 137.186 66.5923 128.601 76.3999L121.119 70.6842C121.119 70.6842 126.241 55.7403 132.564 59.5317V59.5389Z" fill="#ED715F"/>
<path d="M99.5579 78.0309L98.6923 77.9594C102.083 36.7261 96.2672 35.2524 88.899 33.3853C85.1147 32.4268 80.8297 31.3394 77.3388 24.8082C74.091 18.7348 76.5376 12.1535 83.87 7.18886C92.4114 1.40875 105.832 -1.15939 118.894 0.493087C130.097 1.9095 146.264 6.95279 159.691 22.9339C169.534 34.6515 172.61 44.6451 175.086 52.6786C175.314 53.4154 175.536 54.1379 175.758 54.839C180.072 68.5453 179.614 75.9636 179.592 76.2712L178.727 76.2139C178.727 76.1424 179.185 68.6311 174.928 55.1037C174.706 54.3955 174.485 53.6729 174.256 52.9361C171.809 44.9813 168.755 35.0807 159.033 23.4991C136.234 -3.64885 100.402 -2.95495 84.3565 7.90422C77.3245 12.6614 75.0425 18.6704 78.1042 24.3933C81.4163 30.5883 85.3294 31.5826 89.1136 32.5412C92.8836 33.4998 96.4532 34.4011 98.5564 40.4459C100.817 46.9414 101.139 58.8879 99.565 78.0309H99.5579Z" fill="#ED715F"/>
<g opacity="0.3">
<path d="M99.5579 78.0309L98.6923 77.9594C102.083 36.7261 96.2672 35.2524 88.899 33.3853C85.1147 32.4268 80.8297 31.3394 77.3388 24.8082C74.091 18.7348 76.5376 12.1535 83.87 7.18886C92.4114 1.40875 105.832 -1.15939 118.894 0.493087C130.097 1.9095 146.264 6.95279 159.691 22.9339C169.534 34.6515 172.61 44.6451 175.086 52.6786C175.314 53.4154 175.536 54.1379 175.758 54.839C180.072 68.5453 179.614 75.9636 179.592 76.2712L178.727 76.2139C178.727 76.1424 179.185 68.6311 174.928 55.1037C174.706 54.3955 174.485 53.6729 174.256 52.9361C171.809 44.9813 168.755 35.0807 159.033 23.4991C136.234 -3.64885 100.402 -2.95495 84.3565 7.90422C77.3245 12.6614 75.0425 18.6704 78.1042 24.3933C81.4163 30.5883 85.3294 31.5826 89.1136 32.5412C92.8836 33.4998 96.4532 34.4011 98.5564 40.4459C100.817 46.9414 101.139 58.8879 99.565 78.0309H99.5579Z" fill="white"/>
</g>
<path d="M100.574 72.9232H97.6836V83.0599H100.574V72.9232Z" fill="#ED715F"/>
<path opacity="0.1" d="M100.574 72.9232H97.6836V74.6544H100.574V72.9232Z" fill="black"/>
<path opacity="0.1" d="M100.574 81.901H97.6836V83.0599H100.574V81.901Z" fill="black"/>
<path d="M100.581 73.7245H97.6694C97.2258 73.7245 96.8682 73.3668 96.8682 72.9233C96.8682 72.4798 97.2258 72.1221 97.6694 72.1221H100.581C101.024 72.1221 101.382 72.4798 101.382 72.9233C101.382 73.3668 101.024 73.7245 100.581 73.7245Z" fill="#ED715F"/>
<path d="M100.581 84.1973H97.6694C97.2258 84.1973 96.8682 83.8396 96.8682 83.3961C96.8682 82.9525 97.2258 82.5948 97.6694 82.5948H100.581C101.024 82.5948 101.382 82.9525 101.382 83.3961C101.382 83.8396 101.024 84.1973 100.581 84.1973Z" fill="#ED715F"/>
<path d="M180.601 71.1707H177.711V81.3073H180.601V71.1707Z" fill="#ED715F"/>
<path opacity="0.1" d="M180.601 71.1707H177.711V72.9018H180.601V71.1707Z" fill="black"/>
<path opacity="0.1" d="M180.601 80.1412H177.711V81.3001H180.601V80.1412Z" fill="black"/>
<path d="M180.615 71.9719H177.704C177.26 71.9719 176.902 71.6142 176.902 71.1707C176.902 70.7272 177.26 70.3695 177.704 70.3695H180.615C181.059 70.3695 181.416 70.7272 181.416 71.1707C181.416 71.6142 181.059 71.9719 180.615 71.9719Z" fill="#ED715F"/>
<path d="M180.615 82.4376H177.704C177.26 82.4376 176.902 82.0799 176.902 81.6364C176.902 81.1929 177.26 80.8352 177.704 80.8352H180.615C181.059 80.8352 181.416 81.1929 181.416 81.6364C181.416 82.0799 181.059 82.4376 180.615 82.4376Z" fill="#ED715F"/>
<path d="M49.9546 65.7052C49.9546 65.7052 40.2901 70.0403 35.5616 68.259C30.833 66.4778 25.8613 52.0776 25.8613 52.0776L22.7995 48.0215C22.3775 47.4564 22.3775 46.6838 22.8067 46.1258L25.3534 42.8208C25.7182 42.3487 26.269 42.0697 26.8556 42.0411H27.0202C28.1719 41.991 29.1305 42.9281 29.1019 44.0799L28.9874 49.116C28.9874 49.116 36.6131 61.32 39.589 61.1269C42.5649 60.9338 47.4151 58.9021 47.4151 58.9021L49.9546 65.6981V65.7052Z" fill="#FDBD9B"/>
<path d="M59.4261 58.251C59.7695 60.3899 58.6964 65.9912 46.2134 68.0013L44.2891 59.5172C44.2891 59.5172 58.2028 50.5895 59.4332 58.2438L59.4261 58.251Z" fill="#002A42"/>
<path d="M29.4953 43.2428C30.7543 44.8452 32.7215 45.4032 33.8804 44.4875C35.0393 43.5719 34.9534 41.5331 33.6944 39.9378C32.4354 38.3354 30.4681 37.7775 29.3093 38.6931C28.1504 39.6088 28.2362 41.6475 29.4953 43.2428Z" fill="#ED715F"/>
<path opacity="0.2" d="M29.4953 43.2428C28.4867 41.9623 28.2434 40.4172 28.7728 39.3799C29.76 38.8577 31.3982 39.5587 32.5785 41.0538C33.5729 42.32 33.9306 43.7579 33.58 44.6807C32.4068 45.2959 30.6614 44.7093 29.5025 43.2428H29.4953Z" fill="black"/>
<path d="M21.3474 49.6667C21.8911 50.3534 24.5021 49.2017 27.1847 47.0842C29.8673 44.9739 31.5985 42.6991 31.0548 42.0123C30.5112 41.3256 27.9001 42.4773 25.2175 44.5948C22.5349 46.7051 20.8037 48.9799 21.3474 49.6667Z" fill="#ED715F"/>
<path opacity="0.2" d="M24.6739 48.8013C23.0285 49.7527 21.7194 50.1319 21.3475 49.6669C20.9755 49.1947 21.6837 47.9643 23.0357 46.5551C23.3505 46.7911 23.6438 47.0773 23.9084 47.4135C24.259 47.857 24.5022 48.3291 24.6739 48.8013Z" fill="black"/>
<path d="M18.6076 51.8272C19.8666 53.4296 21.8338 53.9875 22.9927 53.0719C24.1516 52.1562 24.0658 50.1174 22.8067 48.5222C21.5477 46.9198 19.5804 46.3618 18.4216 47.2775C17.2627 48.1931 17.3485 50.2319 18.6076 51.8272Z" fill="#ED715F"/>
<path opacity="0.6" d="M56.9794 63.8023C55.6917 64.9468 53.7674 66.0413 50.9561 66.9141C51.0705 58.3083 55.2268 58.2296 55.2268 58.2296L56.0208 58.6803L56.9722 63.7951L56.9794 63.8023Z" fill="black"/>
<path d="M68.7184 130.295L63.8611 145.446C63.8611 145.446 64.9628 151.076 63.8611 158.287C62.7595 165.491 56.5215 203.419 56.5215 203.419L51.8359 203.977C51.8359 203.977 52.5298 155.376 53.5099 144.86C54.4899 134.344 55.6488 126.826 55.6488 126.826L68.7184 130.295Z" fill="#FDBD9B"/>
<path opacity="0.1" d="M55.6491 126.826L68.7188 130.295L65.5855 140.06L54.2041 138.092C54.9624 131.268 55.6491 126.826 55.6491 126.826Z" fill="black"/>
<path d="M78.0898 130.874C78.0898 130.874 83.4479 153.573 103.106 202.804L107.591 201.681C107.591 201.681 98.7924 150.54 93.4129 144.867L90.6945 127.634L78.0898 130.874Z" fill="#FDBD9B"/>
<path opacity="0.1" d="M90.6943 127.634L92.2538 137.534L80.5004 139.659C78.7335 133.707 78.0825 130.867 78.0825 130.867L90.6872 127.627L90.6943 127.634Z" fill="black"/>
<path d="M77.2457 114.128C77.2457 114.128 73.4543 117.626 72.4742 120.459C71.4942 123.292 66.7514 138.557 66.7514 138.557L53.9106 136.247C53.9106 136.247 55.2412 121.904 56.6862 111.724C58.1313 101.545 59.2615 95.5141 59.0899 94.6485L83.3763 92.5955C83.3763 92.5955 88.2622 110.394 77.2457 114.128Z" fill="#ED715F"/>
<path opacity="0.1" d="M73.168 104.07L77.1955 114.178C76.7663 114.586 73.3898 117.819 72.4741 120.466C72.2238 121.188 71.723 122.734 71.1221 124.622C69.3051 114.378 70.3066 103.118 70.3066 103.118L73.168 104.07Z" fill="black"/>
<path d="M70.0063 94.7344C70.0063 94.7344 67.6527 102.882 74.1625 120.23C75.958 125.016 78.8481 137.813 78.8481 137.813L92.769 135.038L89.7573 118.077C89.7573 118.077 90.3725 101.251 85.6297 93.1534L69.9991 94.7344H70.0063Z" fill="#ED715F"/>
<path d="M51.8862 202.89L56.7649 202.804C56.9795 202.804 57.1584 202.947 57.2084 203.154L58.9682 207.811C59.0612 208.219 58.8108 208.62 58.4031 208.713C58.353 208.727 58.2958 208.734 58.2457 208.734C56.2212 208.698 54.4185 208.584 51.9005 208.591C48.9246 208.591 49.6828 208.949 46.1847 208.999C44.0744 209.027 43.6881 206.631 44.5823 206.509C48.6742 205.994 49.0963 204.757 50.6772 203.297C51.0206 203.018 51.4569 202.868 51.9005 202.89H51.8862Z" fill="#263238"/>
<path d="M102.777 201.767L107.527 200.658C107.734 200.615 107.942 200.722 108.035 200.908L110.724 205.1C110.903 205.479 110.739 205.923 110.36 206.102C110.309 206.123 110.259 206.145 110.209 206.152C108.221 206.538 106.439 206.81 103.971 207.339C101.06 207.962 101.875 208.155 98.4631 208.935C96.41 209.4 95.5301 207.139 96.3814 206.839C100.273 205.479 100.43 204.185 101.668 202.425C101.947 202.081 102.34 201.845 102.777 201.774V201.767Z" fill="#263238"/>
<path d="M56.6002 30.5165C56.6002 30.5165 53.2881 30.2447 55.0551 35.1163L57.2154 33.0918L58.6176 30.3806L56.5931 30.5165H56.6002Z" fill="#263238"/>
<path opacity="0.6" d="M56.6002 30.5165C56.6002 30.5165 53.2881 30.2447 55.0551 35.1163L57.2154 33.0918L58.6176 30.3806L56.5931 30.5165H56.6002Z" fill="black"/>
<path d="M86.5021 94.0621C86.5021 94.0621 80.9724 94.5557 58.5459 95.8648C58.5459 95.8648 57.294 90.0776 55.7059 80.1842C53.896 68.9029 51.8286 58.5159 54.4969 55.7117C57.5229 52.5283 71.9589 52.9719 78.5903 52.9862C80.722 52.9862 82.5033 54.61 82.7107 56.7347L86.5021 94.0621Z" fill="#002A42"/>
<path d="M73.5684 52.9575C73.5327 54.4741 72.1949 57.6861 64.6837 63.5234C64.6837 63.5234 58.9322 57.9937 59.5259 53.7587C63.5462 53.0434 69.0259 52.9432 73.5684 52.9575Z" fill="#ED715F"/>
<path d="M64.6482 61.6419C64.6482 61.6419 60.2702 55.8046 61.4577 53.4725C64.498 53.1005 68.0533 52.9861 71.3511 52.9646C71.3511 54.0663 70.6286 56.9492 64.6482 61.6419Z" fill="#FDBD9B"/>
<path d="M64.5266 59.9608L61.6509 54.9747C63.8327 53.4153 63.3105 51.9988 62.1588 49.8742L67.2164 42.692C67.4238 46.233 68.039 51.355 70.9863 53.0075C70.9863 53.0075 71.1151 53.5869 70.6787 54.6886L64.5266 59.968V59.9608Z" fill="#FDBD9B"/>
<path opacity="0.2" d="M62.9597 51.6125C62.7809 51.0831 62.4947 50.5108 62.1514 49.8742L65.3276 45.3602C65.9785 45.5748 67.0874 45.3173 67.488 45.6964C67.5166 45.9254 67.5523 46.1543 67.5881 46.376C67.302 48.1215 65.0772 50.7183 62.9526 51.6053L62.9597 51.6125Z" fill="black"/>
<path d="M69.4766 36.7044C69.684 42.1125 69.8843 44.3945 67.445 47.4205C63.7752 51.9773 57.0865 51.0402 55.2624 45.8109C53.6314 41.0967 53.567 33.0131 58.6246 30.3806C62.2228 28.4634 66.6938 29.8226 68.611 33.4209C69.1547 34.4367 69.448 35.5598 69.4766 36.7044Z" fill="#FDBD9B"/>
<path d="M67.8815 41.4615L66.1288 41.1325C66.1288 41.1325 67.2806 37.1193 66.4579 36.0892C65.6352 35.0591 63.7467 34.2364 63.1315 32.3192C62.5163 30.4021 53.1307 34.172 54.6402 26.2745C54.6402 26.2745 55.3341 28.4062 56.4286 29.2003C56.4286 29.2003 54.8619 23.785 60.828 24.3859C66.7941 24.9868 70.5426 31.2247 70.5426 31.2247C70.5426 31.2247 78.2613 36.2752 70.2779 43.6863C69.677 44.2443 68.7041 44.044 68.3822 43.2929L67.8886 41.4615H67.8815Z" fill="black"/>
<path d="M71.3508 40.6961C71.1076 41.6905 70.4852 42.5561 69.6125 43.0926C68.4393 43.7865 67.495 42.8279 67.5165 41.5331C67.5451 40.3671 68.1818 38.593 69.498 38.3998C70.4566 38.2925 71.3222 38.9793 71.4295 39.9379C71.4581 40.1954 71.4295 40.4529 71.3508 40.6961Z" fill="#FDBD9B"/>
<path d="M69.2766 40.3169C69.2766 40.3169 68.0319 40.5243 68.2036 41.9121C68.2036 41.9121 68.5398 42.9995 67.2808 44.2585C67.2808 44.2585 67.5383 44.6877 67.9818 44.6877C67.9818 44.6877 71.6874 41.0251 69.2766 40.3169Z" fill="#ED715F"/>
<path opacity="0.8" d="M69.2766 40.3169C69.2766 40.3169 68.0319 40.5243 68.2036 41.9121C68.2036 41.9121 68.5398 42.9995 67.2808 44.2585C67.2808 44.2585 67.5383 44.6877 67.9818 44.6877C67.9818 44.6877 71.6874 41.0251 69.2766 40.3169Z" fill="white"/>
<path opacity="0.6" d="M83.0686 60.5617L83.9055 69.5252C79.177 66.1058 78.2041 60.4902 78.2041 60.4902L80.2858 59.9608L83.0686 60.5617Z" fill="black"/>
<path d="M84.5708 62.7077C84.5708 62.7077 95.7304 63.8523 100.237 61.2341C104.744 58.6159 106.854 43.8294 106.854 43.8294L109.1 38.2066C109.487 37.2409 109.122 36.1321 108.228 35.5884L106.175 34.3294C105.745 34.0647 105.238 33.9646 104.744 34.0361L103.979 34.1505C102.863 34.3151 102.061 35.3237 102.161 36.454L102.712 42.9066C102.712 42.9066 99.4717 54.8817 96.4172 55.1893C93.2767 55.504 93.3983 55.4969 85.9014 55.2894L84.578 62.7006L84.5708 62.7077Z" fill="#FDBD9B"/>
<path d="M75.8007 57.5286C75.7149 59.968 77.5033 64.3674 90.5228 63.6879L90.6587 54.2737C90.6587 54.2737 76.094 49.3449 75.8007 57.5286Z" fill="#002A42"/>
<path d="M102.476 35.6886C101.597 37.527 99.801 38.4999 98.4704 37.8632C97.1398 37.2266 96.775 35.2164 97.6549 33.3779C98.5348 31.5395 100.33 30.5666 101.661 31.2032C102.991 31.8399 103.356 33.8501 102.476 35.6886Z" fill="#ED715F"/>
<path opacity="0.2" d="M102.476 35.6886C103.177 34.2221 103.077 32.6627 102.333 31.7613C101.26 31.468 99.815 32.5124 98.9923 34.2293C98.2984 35.6815 98.2698 37.1623 98.8135 37.9921C100.094 38.3355 101.668 37.384 102.476 35.6958V35.6886Z" fill="black"/>
<path d="M111.833 40.1668C111.454 40.9537 108.65 40.4028 105.574 38.9292C102.498 37.4556 100.309 35.6171 100.688 34.8302C101.067 34.0433 103.872 34.5941 106.948 36.0678C110.024 37.5414 112.213 39.3799 111.833 40.1668Z" fill="#ED715F"/>
<path opacity="0.2" d="M108.399 40.0523C110.209 40.6174 111.576 40.6961 111.833 40.1667C112.091 39.623 111.132 38.5786 109.501 37.4984C109.251 37.7989 109.022 38.1422 108.843 38.5285C108.6 39.0364 108.464 39.5515 108.399 40.0523Z" fill="black"/>
<path d="M114.981 41.669C114.101 43.5075 112.305 44.4804 110.975 43.8437C109.644 43.207 109.279 41.1969 110.159 39.3584C111.039 37.5199 112.835 36.547 114.165 37.1837C115.496 37.8204 115.861 39.8305 114.981 41.669Z" fill="#ED715F"/>
</svg>
