<svg width="219" height="176" viewBox="0 0 219 176" fill="none" xmlns="http://www.w3.org/2000/svg">
<path d="M17.907 153.135C-8.54811 117.549 -12.245 61.9298 52.6077 44.9739C93.0733 34.3941 92.0157 -2.38857 149.275 0.122588C207.911 2.694 184.82 73.577 192.428 89.7909C200.036 106.005 219.56 112.51 212.48 153.135C205.4 193.76 153.415 167.879 114.865 167.841C76.5687 167.803 40.7771 183.899 17.907 153.135Z" fill="#EBF3FA"/>
<path d="M139.821 53.8546C139.797 53.7977 139.769 53.7374 139.734 53.6737C139.62 53.2286 138.621 50.8679 138.51 50.6093C138.196 49.8742 137.683 50.265 137.683 50.8141C137.683 50.9837 137.755 52.1956 137.713 52.371C136.865 51.7462 136.342 51.0966 134.154 50.4782C134.154 50.4782 132.485 49.9297 133.288 51.6113C133.824 52.7354 134.463 52.8763 135.245 54.4486C136.026 56.0211 137.471 57.1018 138.763 57.0034L140.15 57.4729L141.552 55.3991L140.65 54.8421C140.276 54.6101 139.994 54.2602 139.821 53.8546Z" fill="#FFB27D"/>
<g filter="url(#filter0_d_611_15257)">
<path d="M137.683 6.37207H55.5305V124.591H137.683V6.37207Z" fill="white"/>
<path d="M114.043 17.0171H76.5979V18.9612H114.043V17.0171Z" fill="#F99746"/>
<path d="M90.4809 21.5288H71.7581V23.473H90.4809V21.5288Z" fill="#F99746"/>
<path d="M120.219 21.5288H92.7393V23.473H120.219V21.5288Z" fill="#F99746"/>
<path d="M114.172 65.3237H73.7725V66.8039H114.172V65.3237Z" fill="#AEC3FF"/>
<path d="M123.683 61.374H95.0762V62.8542H123.683V61.374Z" fill="#AEC3FF"/>
<path d="M92.1288 61.374H64.261V62.8542H92.1288V61.374Z" fill="#AEC3FF"/>
<path d="M120.882 57.4248H96.2717V58.9048H120.882V57.4248Z" fill="#AEC3FF"/>
<path d="M91.6726 57.4248H67.0625V58.9048H91.6726V57.4248Z" fill="#AEC3FF"/>
<path d="M100.565 79.9235H88.6859C88.1469 79.9235 87.7058 79.4825 87.7058 78.9435C87.7058 78.4043 88.1469 77.9634 88.6859 77.9634H100.565C101.104 77.9634 101.545 78.4043 101.545 78.9435C101.546 79.4825 101.104 79.9235 100.565 79.9235Z" fill="#A8C3F7"/>
<path d="M117.137 79.9235H105.258C104.719 79.9235 104.278 79.4825 104.278 78.9435C104.278 78.4043 104.719 77.9634 105.258 77.9634H117.137C117.676 77.9634 118.118 78.4043 118.118 78.9435C118.118 79.4825 117.676 79.9235 117.137 79.9235Z" fill="#A8C3F7"/>
<path d="M102.627 105.951C96.7264 105.951 91.9253 101.15 91.9253 95.2485C91.9253 89.3474 96.7262 84.5464 102.627 84.5464C108.528 84.5464 113.329 89.3473 113.329 95.2485C113.329 101.15 108.528 105.951 102.627 105.951ZM102.627 85.0862C97.0238 85.0862 92.4649 89.6451 92.4649 95.2487C92.4649 100.852 97.0238 105.411 102.627 105.411C108.231 105.411 112.79 100.852 112.79 95.2487C112.79 89.6451 108.231 85.0862 102.627 85.0862Z" fill="#A8C3F7"/>
<path d="M102.627 103.873C97.8725 103.873 94.0042 100.004 94.0042 95.2493C94.0042 90.4943 97.8725 86.626 102.627 86.626C107.382 86.626 111.251 90.4943 111.251 95.2493C111.251 100.004 107.382 103.873 102.627 103.873ZM102.627 87.1656C98.1701 87.1656 94.5438 90.7919 94.5438 95.2493C94.5438 99.7066 98.1701 103.333 102.627 103.333C107.085 103.333 110.711 99.7066 110.711 95.2493C110.711 90.7919 107.085 87.1656 102.627 87.1656Z" fill="#A8C3F7"/>
<path d="M102.741 98.6311C101.621 98.9943 100.528 99.1837 99.6688 99.1121C98.359 99.0029 97.6214 98.3167 97.5924 97.1795C97.5688 96.2772 97.9436 95.4871 98.6776 94.8464C98.6705 94.7848 98.6645 94.7233 98.66 94.6614C98.6118 94.0254 98.7477 93.6025 99.0638 93.4054C99.5753 93.0864 100.335 93.5226 100.367 93.5413L100.197 93.8319C100.027 93.7327 99.5211 93.5147 99.2414 93.6907C99.0002 93.8418 98.9712 94.2581 98.9923 94.5962C99.5896 94.1642 100.37 93.811 101.321 93.5541C102.024 93.3631 102.807 93.2367 103.515 93.1792C103.519 93.1 103.526 93.0291 103.534 92.9712C103.557 92.815 103.612 92.6324 103.765 92.5959C103.823 92.5829 103.936 92.5843 104.036 92.7377C104.101 92.836 104.133 92.9773 104.14 93.1463C104.383 93.1407 104.61 93.1451 104.811 93.1597C104.813 93.1556 104.814 93.1513 104.816 93.1469C104.767 92.7482 104.802 92.2787 104.868 91.9754C104.953 91.5858 105.093 91.389 105.289 91.3698C105.406 91.3591 105.508 91.4223 105.555 91.5348C105.665 91.7987 105.46 92.5122 105.162 93.1968C105.162 93.1979 105.162 93.1992 105.163 93.2004C105.442 93.2475 105.631 93.3247 105.691 93.4327C105.736 93.5138 105.741 93.6393 105.623 93.7483C105.398 93.9558 105.218 93.9037 105.131 93.8539C105.057 93.8115 104.998 93.7399 104.951 93.6474C104.725 94.0927 104.48 94.4734 104.287 94.6347C104.11 94.784 103.954 94.724 103.896 94.6914C103.866 94.6743 103.837 94.6513 103.811 94.6235C103.734 94.8104 103.648 94.9907 103.555 95.1536C103.203 95.7715 102.806 96.0893 102.408 96.0701C102.245 96.0626 102.101 95.9977 101.979 95.88C101.759 96.3569 101.482 96.8103 101.208 97.1492C100.928 97.4941 100.571 97.6207 100.203 97.5054C99.55 97.3016 98.9597 96.3575 98.7386 95.239C98.1808 95.7843 97.9094 96.4303 97.9282 97.1708C97.9533 98.1407 98.5482 98.681 99.6964 98.7767C102.595 99.018 107.676 96.3236 108.061 94.3408C107.748 95.9533 105.337 97.79 102.741 98.6311ZM99.0343 94.9808C99.2108 96.1609 99.8016 97.0278 100.303 97.1845C100.538 97.258 100.755 97.1744 100.946 96.9377C101.273 96.5349 101.554 96.0376 101.756 95.553C101.698 95.4276 101.651 95.2808 101.616 95.1138C101.535 94.7248 101.522 94.1911 101.618 93.8249C101.077 93.9587 100.534 94.1396 100.032 94.3772C99.6467 94.559 99.314 94.7606 99.0343 94.9808ZM102.128 95.5328C102.2 95.6426 102.296 95.7285 102.424 95.7343C102.679 95.7451 102.985 95.4736 103.263 94.9872C103.407 94.7336 103.523 94.463 103.61 94.2032C103.554 93.9922 103.525 93.7459 103.515 93.5192C103.142 93.549 102.736 93.5995 102.317 93.6754C102.535 94.1001 102.409 94.8178 102.128 95.5328ZM103.961 94.2091C104.013 94.3674 104.06 94.3979 104.061 94.3982C104.248 94.2368 104.463 93.8868 104.659 93.4883C104.499 93.4822 104.319 93.4814 104.123 93.4865C104.096 93.7112 104.039 93.9594 103.961 94.2091ZM101.986 93.7768C101.901 93.9553 101.839 94.5267 101.943 95.0349C102.112 94.4773 102.147 93.9952 101.986 93.7768ZM105.298 93.5621C105.299 93.5629 105.3 93.5622 105.3 93.5628C105.299 93.5625 105.299 93.5624 105.298 93.5621ZM105.249 91.8358C105.219 91.9222 105.19 92.0443 105.169 92.1879C105.208 92.0495 105.236 91.9289 105.249 91.8358Z" fill="#A8C3F7"/>
<path d="M116.527 47.3418H71.417V48.8219H116.527V47.3418Z" fill="#AEC3FF"/>
<path d="M127.147 43.3921H95.2048V44.8721H127.147V43.3921Z" fill="#AEC3FF"/>
<path d="M91.9137 43.3921H60.7966V44.8721H91.9137V43.3921Z" fill="#AEC3FF"/>
<path d="M124.019 39.4429H96.5398V40.923H124.019V39.4429Z" fill="#AEC3FF"/>
<path d="M91.4043 39.4429H63.9248V40.923H91.4043V39.4429Z" fill="#AEC3FF"/>
</g>
<path d="M173.376 50.1599C173.376 50.1599 180.283 76.6175 159.284 72.2198C153.614 71.0325 138.51 55.981 138.51 55.981C138.51 55.981 139.964 53.6877 141.753 53.9311C141.753 53.9311 156.345 58.6761 158.679 60.3936C159.971 61.3449 161.447 46.3554 165.917 46.5687C170.387 46.782 173.376 50.1599 173.376 50.1599Z" fill="#91CECF"/>
<path d="M182.839 162.038C182.839 162.038 182.453 168.261 181.249 168.35C181.089 168.362 175.143 168.362 175.143 168.362L167.552 168.318C167.552 168.318 167.602 166.489 169.821 166.102C172.04 165.716 175.753 164.156 177.097 161.224C178.511 158.139 182.839 162.038 182.839 162.038Z" fill="#163560"/>
<path d="M183.276 162.47C183.276 162.47 180.969 163.242 179.167 163.242C177.157 163.242 175.331 162.694 175.331 162.694C175.331 162.694 174.897 158.493 172.506 149.237C171.253 144.385 169.463 138.147 166.916 130.395C159.876 108.972 157.735 96.4389 157.539 95.252C157.529 95.1897 157.525 95.1584 157.525 95.1584L157.548 95.148L179.194 85.644C179.194 85.644 176.518 115.17 179.931 126.504C180.409 128.088 180.819 129.933 181.17 131.933C183.326 144.244 183.276 162.47 183.276 162.47Z" fill="#2B478B"/>
<path d="M181.17 131.933L172.506 149.237C171.253 144.385 169.463 138.147 166.916 130.395C159.876 108.972 157.735 96.4389 157.539 95.252C157.542 95.2166 157.543 95.1835 157.548 95.148L179.194 85.644C179.194 85.644 176.518 115.17 179.931 126.504C180.409 128.088 180.819 129.934 181.17 131.933Z" fill="#233862"/>
<path d="M165.932 162.038C165.932 162.038 165.546 168.261 164.342 168.35C164.182 168.362 158.236 168.362 158.236 168.362L150.646 168.318C150.646 168.318 150.695 166.489 152.914 166.102C155.133 165.716 158.847 164.156 160.191 161.224C161.605 158.139 165.932 162.038 165.932 162.038Z" fill="#163560"/>
<path d="M153.66 86.3394C153.66 86.3394 153.379 105.473 156.689 128.965C160 152.458 158.877 162.43 158.877 162.43C158.877 162.43 161.152 163.167 162.07 163.242C164.408 163.432 166.806 162.693 166.806 162.693C166.806 162.693 171.544 139.192 170.186 127.434C168.827 115.675 176.674 87.085 176.674 87.085L153.66 86.3394Z" fill="#2B478B"/>
<path d="M169.425 40.8106L165.629 44.1435L159.425 43.8701C159.44 43.3703 159.553 41.2913 159.658 39.4081C159.665 39.297 159.672 39.1859 159.677 39.0774C159.768 37.4745 159.848 36.0976 159.848 36.0976L165.143 32.8094L167.117 31.5835C167.116 31.617 167.198 33.3365 167.211 33.5873C167.437 38.0426 169.425 40.8106 169.425 40.8106Z" fill="#FFB27D"/>
<path d="M152.398 87.1673C152.485 97.2661 153.158 120.892 153.653 121.372C158.913 126.45 182.05 119.98 183.277 114.387C184.502 108.793 178.615 42.6624 169.631 40.0215C167.767 39.4746 157.799 42.6966 157.799 42.6966C157.799 42.6966 156.237 46.7859 155.211 51.9962C154.831 53.9267 153.591 67.7007 152.866 76.905C152.675 79.3585 152.519 81.4867 152.427 82.9792C152.389 83.5961 152.381 85.0987 152.398 87.1673Z" fill="#ABDDDA"/>
<path d="M166.798 33.7242C165.855 35.9995 161.491 38.4678 159.658 39.4075C159.665 39.2964 159.672 39.1853 159.677 39.0768C159.769 37.4739 159.848 36.097 159.848 36.097L165.143 32.8088C166.388 32.6156 167.188 32.7876 166.798 33.7242Z" fill="#FCA56B"/>
<path d="M157.891 36.3213C157.891 36.3213 167.471 37.2121 167.934 31.2373C168.397 25.2626 169.945 21.3538 163.848 20.5324C157.75 19.7111 156.384 21.8987 155.744 23.8554C155.105 25.812 155.41 35.9355 157.891 36.3213Z" fill="#FFB27D"/>
<path d="M155.982 23.2391C155.982 23.2391 157.947 29.6588 159.239 29.0869C160.532 28.515 161.714 28.0434 161.935 30.0576C162.157 32.0717 160.765 34.748 165.009 34.2096C169.253 33.6712 172.958 21.6433 171.379 19.8512C166.825 14.6804 149.68 17.0896 155.982 23.2391Z" fill="#163560"/>
<path d="M160.242 40.1671C160.361 40.1172 167.08 37.1031 167.866 37.3625C168.652 37.6219 169.631 40.0219 169.631 40.0219L157.8 42.6967C157.8 42.6967 158.731 40.8035 160.242 40.1671Z" fill="#91CECF"/>
<path d="M152.398 94.4027C170.401 81.3846 171.8 60.75 171.8 60.75C163.235 65.5821 155.101 73.5693 152.462 82.3493C152.271 84.8028 152.519 88.7219 152.427 90.2143C152.389 90.8314 152.381 92.3342 152.398 94.4027Z" fill="#91CECF"/>
<path d="M141.095 87.7413C141.095 87.7413 140.869 87.5615 140.364 87.5205C139.929 87.3745 138.716 86.8403 138.508 86.6514C137.85 86.0541 137.619 86.6901 138.079 87.3243C138.178 87.4617 138.535 87.6958 138.659 87.8269C137.673 88.1992 136.357 88.9671 134.649 90.467C134.649 90.467 133.281 91.5699 135.129 91.8102C136.364 91.971 136.83 91.511 138.575 91.7097C140.319 91.9085 142.011 91.2839 142.631 90.1457L143.779 89.2367L142.801 86.9323L141.095 87.7413Z" fill="#FFB27D"/>
<path d="M164.154 43.1745C164.154 43.1745 183.115 42.2641 165.968 74.1652C163.226 79.2673 143.631 90.3534 143.631 90.3534C143.631 90.3534 141.789 88.3587 142.485 86.6922C142.485 86.6922 155.245 72.1706 156.955 71.5798C158.472 71.0555 158.159 53.3746 159.515 49.1104C160.872 44.8463 164.154 43.1745 164.154 43.1745Z" fill="#ABDDDA"/>
<path d="M141.72 168.025L127.975 168.021L120.704 168.019C117.882 168.017 115.575 165.708 115.575 162.885L115.591 112.094C115.591 109.272 117.9 106.963 120.723 106.965L127.171 106.967L141.739 106.971C144.561 106.971 146.868 109.281 146.868 112.104L146.853 162.895C146.852 165.716 144.543 168.025 141.72 168.025Z" fill="#C0D8FB"/>
<path d="M144.635 153.626L144.271 150.952L143.906 148.278C143.813 147.596 143.449 147.014 142.937 146.625C142.426 146.237 141.768 146.042 141.086 146.135C141.01 146.145 140.936 146.16 140.863 146.177C141.113 145.815 141.255 145.407 141.294 144.993C141.758 146.106 142.978 146.756 144.186 146.467C145.527 146.146 146.36 144.788 146.039 143.448L145.411 140.824L144.783 138.199C144.623 137.53 144.203 136.986 143.656 136.65C143.109 136.315 142.435 136.186 141.765 136.346C140.424 136.667 139.591 138.026 139.911 139.365L140.858 143.319C140.714 143.113 140.538 142.925 140.328 142.765C139.897 142.434 139.389 142.269 138.882 142.255C139.13 141.934 139.294 141.561 139.366 141.17C139.46 140.66 139.394 140.121 139.16 139.634C139.443 138.696 139.161 137.633 138.361 136.973L134.201 133.534C133.139 132.656 131.553 132.807 130.675 133.869C129.863 134.852 129.933 136.281 130.788 137.185C130.567 137.184 130.343 137.21 130.121 137.271L127.517 137.983L124.915 138.695C124.009 138.943 123.355 139.665 123.145 140.52L122.871 139.866L121.832 137.376C121.3 136.105 119.827 135.499 118.555 136.031C117.283 136.562 116.678 138.035 117.209 139.307L118.249 141.797L118.915 143.392C118.032 143.744 117.384 144.584 117.333 145.592L117.197 148.286L117.06 150.982C117.026 151.669 117.276 152.309 117.706 152.786C118.137 153.262 118.747 153.575 119.435 153.61C119.73 153.625 120.014 153.585 120.281 153.504C120.021 154.025 119.949 154.625 120.082 155.197C119.62 155.463 119.238 155.875 119.02 156.403L117.99 158.896L116.959 161.391C116.696 162.027 116.717 162.714 116.963 163.306C117.209 163.899 117.68 164.399 118.317 164.662C119.31 165.073 120.422 164.789 121.114 164.041C121.278 164.426 121.538 164.777 121.893 165.048C122.987 165.886 124.566 165.676 125.404 164.582L127.044 162.439L128.684 160.296C128.907 160.005 129.053 159.679 129.131 159.342C129.701 159.4 130.294 159.265 130.8 158.916L131.229 158.619L130.634 159.397L128.994 161.539C128.157 162.633 128.367 164.213 129.461 165.05C130.555 165.888 132.135 165.678 132.972 164.584L134.612 162.442L136.253 160.298C136.274 160.271 136.291 160.242 136.311 160.213C136.443 160.427 136.606 160.616 136.791 160.778L136.207 161.541C135.369 162.636 135.579 164.215 136.674 165.052C137.768 165.89 139.348 165.68 140.185 164.586L143.466 160.3C143.884 159.754 144.041 159.085 143.956 158.449C143.872 157.812 143.546 157.208 142.999 156.789C142.812 156.646 142.61 156.536 142.401 156.453C142.431 156.45 142.461 156.449 142.492 156.445C143.858 156.26 144.822 154.991 144.635 153.626ZM122.064 151.235L122.11 150.316C122.268 150.583 122.477 150.826 122.738 151.025C122.835 151.1 122.938 151.163 123.043 151.222L121.895 152.013C121.99 151.77 122.05 151.509 122.064 151.235ZM138.942 148.955L139.433 152.55C139.22 152.119 138.891 151.764 138.494 151.52C138.009 151.222 137.425 151.088 136.832 151.172C137.089 151.016 137.322 150.814 137.515 150.562L138.923 148.723C138.926 148.8 138.932 148.877 138.942 148.955ZM133.245 139.243L133.877 139.765L133.227 140.213C133.295 139.901 133.305 139.572 133.245 139.243ZM133.79 147.186C133.726 146.797 133.571 146.434 133.346 146.123C133.532 146.053 133.714 145.962 133.885 145.845L135.859 144.483L133.79 147.186ZM135.428 151.873C134.899 151.431 134.212 151.23 133.54 151.304L133.593 150.629C133.712 150.775 133.848 150.91 134.003 151.029C134.558 151.453 135.237 151.608 135.881 151.515C135.715 151.617 135.564 151.738 135.428 151.873ZM130.382 142.394C129.832 143.222 129.804 144.339 130.401 145.205C130.412 145.221 130.425 145.234 130.436 145.25C130.254 145.32 130.081 145.409 129.921 145.517C130.035 145.16 130.068 144.786 130.02 144.421C129.936 143.785 129.61 143.181 129.063 142.762C129.06 142.76 129.058 142.759 129.055 142.757L130.382 142.394ZM127.889 148.416L128.855 147.154C128.841 147.232 128.83 147.311 128.824 147.391L128.641 149.709C128.279 149.381 127.835 149.173 127.369 149.096L127.889 148.416ZM123.366 159.003L123.65 158.317C123.857 157.816 123.886 157.286 123.77 156.793C123.827 156.76 123.884 156.727 123.94 156.688L128.383 153.624C128.411 153.605 128.437 153.582 128.465 153.562C128.525 153.805 128.621 154.036 128.747 154.247L127.956 154.792C127.424 155.16 127.081 155.7 126.944 156.287C126.109 156.206 125.251 156.541 124.707 157.252L123.366 159.003ZM135.152 155.915L135.29 156.495C135.067 156.395 134.833 156.329 134.596 156.298L135.152 155.915ZM140.442 156.5L140.249 155.693L140.213 155.54C140.484 155.872 140.836 156.132 141.236 156.291C140.963 156.318 140.694 156.387 140.442 156.5ZM125.27 143.596L123.911 145.371L122.271 147.514C122.264 147.524 122.258 147.534 122.25 147.544L122.336 145.845C122.339 145.802 122.336 145.759 122.336 145.716C122.413 145.692 122.49 145.665 122.566 145.633C123.586 145.207 124.175 144.174 124.095 143.126C124.439 143.378 124.843 143.542 125.27 143.596Z" fill="#AFCDFB"/>
<path opacity="0.5" d="M127.975 168.021L120.704 168.019C117.882 168.017 115.575 165.708 115.575 162.885L115.591 112.094C115.591 109.272 117.9 106.963 120.723 106.965L127.171 106.967C127.703 107.88 128.013 108.971 128.012 110.14L127.995 167.508C127.995 167.681 127.989 167.852 127.975 168.021Z" fill="#AFCDFB"/>
<path d="M146.531 109.365L127.009 109.36L115.929 109.355C115.38 109.356 114.932 108.907 114.932 108.357L114.934 103.574C114.934 103.026 115.383 102.577 115.932 102.577L126.996 102.58C126.997 102.58 126.997 102.58 126.998 102.581L146.533 102.586C147.082 102.586 147.531 103.035 147.531 103.584L147.529 108.367C147.529 108.916 147.08 109.366 146.531 109.365Z" fill="#F99746"/>
<path d="M127.009 109.36L115.929 109.355C115.38 109.356 114.932 108.907 114.932 108.357L114.934 103.574C114.934 103.026 115.383 102.577 115.932 102.577L126.996 102.58C126.997 102.58 126.997 102.58 126.998 102.581C127.545 102.582 127.993 103.03 127.993 103.578L127.992 108.361C127.991 108.906 127.551 109.352 127.009 109.36Z" fill="#EF7E29"/>
<path d="M218.434 164.984C218.434 165.909 218.055 166.749 217.445 167.36C216.835 167.97 215.994 168.348 215.069 168.348H199.181C197.331 168.348 195.817 166.834 195.817 164.984C195.817 164.059 196.196 163.218 196.805 162.608C197.415 161.999 198.255 161.62 199.181 161.62H215.069C216.919 161.62 218.434 163.134 218.434 164.984Z" fill="#EF7E29"/>
<path d="M210.237 164.984C210.237 165.909 209.859 166.749 209.25 167.36C208.639 167.97 207.799 168.348 206.874 168.348H199.181C197.331 168.348 195.817 166.834 195.817 164.984C195.817 164.059 196.196 163.218 196.805 162.608C197.415 161.999 198.256 161.62 199.181 161.62H206.874C208.724 161.62 210.237 163.134 210.237 164.984Z" fill="#F99746"/>
<path opacity="0.5" d="M215.338 163.427H200.183C199.921 163.427 199.706 163.213 199.706 162.951V162.843C199.706 162.581 199.921 162.366 200.183 162.366H215.338C215.6 162.366 215.815 162.581 215.815 162.843V162.951C215.815 163.213 215.6 163.427 215.338 163.427Z" fill="#FFE2CC"/>
<path d="M73.4523 76.7574V124.131C73.4523 127.038 71.0743 129.418 68.1661 129.418H40.008C39.2547 129.418 38.5373 129.258 37.8863 128.97C36.0276 128.149 34.7217 126.285 34.7217 124.131V76.7574C34.7217 73.8492 37.1011 71.4712 40.0079 71.4712H68.166C71.0743 71.4712 73.4523 73.8492 73.4523 76.7574Z" fill="#FCECDB"/>
<path d="M60.9789 89.2858C58.0027 88.1683 56.4977 84.8509 57.6147 81.8762C58.7317 78.9015 62.0481 77.3945 65.0243 78.5119C67.9989 79.6289 69.5055 82.9468 68.3885 85.9215C67.2716 88.8964 63.9535 90.4027 60.9789 89.2858Z" fill="#F7E0CB"/>
<path d="M68.3885 85.9215L57.6147 81.8762C58.7317 78.9015 62.0481 77.3945 65.0243 78.5119C67.9989 79.6289 69.5055 82.9468 68.3885 85.9215Z" fill="#EFCBAB"/>
<path d="M41.5338 88.357C39.0711 86.3466 38.7059 82.7221 40.7152 80.2607C42.7245 77.7993 46.3487 77.4316 48.8114 79.4421C51.2728 81.4515 51.6394 85.077 49.63 87.5384C47.6206 89.9998 43.9952 90.3663 41.5338 88.357Z" fill="#F7E0CB"/>
<path d="M49.6299 87.5383L40.7151 80.2607C42.7245 77.7993 46.3486 77.4316 48.8113 79.4421C51.2728 81.4514 51.6393 85.0769 49.6299 87.5383Z" fill="#EFCBAB"/>
<path d="M60.9789 124.387C58.0027 123.269 56.4977 119.952 57.6147 116.977C58.7317 114.003 62.0481 112.496 65.0243 113.613C67.9989 114.73 69.5055 118.048 68.3885 121.023C67.2716 123.997 63.9535 125.504 60.9789 124.387Z" fill="#F7E0CB"/>
<path d="M68.3885 121.413L57.6147 117.368C58.7317 114.393 62.0481 112.886 65.0243 114.004C67.9989 115.121 69.5055 118.439 68.3885 121.413Z" fill="#EFCBAB"/>
<path d="M41.5338 123.458C39.0711 121.447 38.7059 117.823 40.7152 115.361C42.7245 112.9 46.3487 112.532 48.8114 114.543C51.2728 116.552 51.6394 120.178 49.63 122.639C47.6206 125.101 43.9952 125.467 41.5338 123.458Z" fill="#F7E0CB"/>
<path d="M49.6299 123.03L40.7151 115.752C42.7245 113.291 46.3486 112.923 48.8113 114.934C51.2728 116.943 51.6393 120.569 49.6299 123.03Z" fill="#EFCBAB"/>
<path d="M65.4658 107.302C62.5929 108.664 59.1626 107.438 57.8017 104.567C56.4409 101.696 57.6643 98.2644 60.5372 96.9028C63.4084 95.5419 66.8403 96.7669 68.2012 99.6382C69.562 102.509 68.3371 105.941 65.4658 107.302Z" fill="#F7E0CB"/>
<path d="M68.2015 99.6382L57.8022 104.567C56.4414 101.696 57.6648 98.2644 60.5376 96.9028C63.4088 95.5419 66.8408 96.7669 68.2015 99.6382Z" fill="#EFCBAB"/>
<path d="M39.8304 99.9647C41.0118 97.0133 44.3608 95.5801 47.3107 96.7607C50.2606 97.9414 51.6959 101.29 50.5147 104.241C49.334 107.191 45.9843 108.626 43.0344 107.445C40.0844 106.264 38.6497 102.915 39.8304 99.9647Z" fill="#F7E0CB"/>
<path d="M43.0347 107.445L47.311 96.7607C50.2609 97.9415 51.6962 101.29 50.5149 104.241C49.3342 107.191 45.9846 108.626 43.0347 107.445Z" fill="#EFCBAB"/>
<path opacity="0.5" d="M73.4524 83.2407V124.465C73.4524 127.188 71.2764 129.418 68.6152 129.418H42.8491C42.1599 129.418 41.5034 129.268 40.9077 128.998V88.9475C40.9077 87.3096 41.5909 85.8271 42.6801 84.7842C43.0825 84.3984 43.5408 84.0722 44.0418 83.8208C44.7797 83.45 45.6075 83.2407 46.4815 83.2407H73.4524Z" fill="#EFCBAB"/>
<path d="M41.8276 136.167V88.7925C41.8276 85.8851 44.2064 83.5063 47.1138 83.5063H75.2721C78.1795 83.5063 80.5583 85.8851 80.5583 88.7925V136.167C80.5583 139.074 78.1795 141.453 75.2721 141.453H47.1138C44.2064 141.453 41.8276 139.074 41.8276 136.167Z" fill="#FCECDB"/>
<path d="M68.0846 101.322C65.1084 100.204 63.6034 96.887 64.7204 93.9123C65.8374 90.9377 69.1538 89.4306 72.13 90.548C75.1046 91.665 76.6112 94.983 75.4942 97.9576C74.3773 100.932 71.0594 102.439 68.0846 101.322Z" fill="#F7E0CB"/>
<path d="M75.4944 97.9576L64.7207 93.9123C65.8377 90.9377 69.1541 89.4306 72.1303 90.548C75.105 91.665 76.6114 94.9831 75.4944 97.9576Z" fill="#EFCBAB"/>
<path d="M48.6395 100.393C46.1768 98.3823 45.8116 94.7577 47.8209 92.2963C49.8302 89.8349 53.4544 89.4673 55.9172 91.4777C58.3786 93.4871 58.7452 97.1127 56.7359 99.5741C54.7266 102.035 51.1009 102.402 48.6395 100.393Z" fill="#F7E0CB"/>
<path d="M56.7359 99.5739L47.821 92.2963C49.8305 89.8349 53.4546 89.4673 55.9174 91.4777C58.3786 93.487 58.7452 97.1125 56.7359 99.5739Z" fill="#EFCBAB"/>
<path d="M68.0846 136.423C65.1084 135.306 63.6034 131.989 64.7204 129.014C65.8374 126.039 69.1538 124.532 72.13 125.65C75.1046 126.766 76.6112 130.085 75.4942 133.059C74.3773 136.034 71.0594 137.54 68.0846 136.423Z" fill="#F7E0CB"/>
<path d="M75.4944 133.45L64.7207 129.405C65.8377 126.43 69.1541 124.923 72.1303 126.04C75.105 127.157 76.6114 130.475 75.4944 133.45Z" fill="#EFCBAB"/>
<path d="M57.5207 133.391C58.8204 130.491 57.5233 127.087 54.6235 125.787C51.7236 124.487 48.3192 125.784 47.0194 128.684C45.7197 131.584 47.0168 134.988 49.9166 136.288C52.8165 137.588 56.2209 136.291 57.5207 133.391Z" fill="#F7E0CB"/>
<path d="M56.7359 135.066L47.821 127.788C49.8305 125.327 53.4546 124.959 55.9174 126.97C58.3786 128.979 58.7452 132.605 56.7359 135.066Z" fill="#EFCBAB"/>
<path d="M72.5717 119.339C69.699 120.7 66.2685 119.475 64.9076 116.603C63.5469 113.732 64.7702 110.301 67.6431 108.939C70.5143 107.579 73.9462 108.803 75.3071 111.675C76.6679 114.546 75.4429 117.978 72.5717 119.339Z" fill="#F7E0CB"/>
<path d="M75.307 111.675L64.9076 116.603C63.5469 113.732 64.7702 110.301 67.6431 108.939C70.5142 107.579 73.9462 108.803 75.307 111.675Z" fill="#EFCBAB"/>
<path d="M46.9364 112.001C48.1177 109.05 51.4666 107.617 54.4166 108.797C57.3665 109.978 58.8018 113.326 57.6206 116.278C56.4399 119.227 53.0904 120.662 50.1403 119.482C47.1905 118.301 45.7556 114.951 46.9364 112.001Z" fill="#F7E0CB"/>
<path d="M50.1404 119.481L54.4167 108.797C57.3666 109.978 58.8019 113.326 57.6206 116.278C56.4399 119.227 53.0903 120.662 50.1404 119.481Z" fill="#EFCBAB"/>
<path d="M76.1997 102.403H31.9744V168.404H76.1997V102.403Z" fill="#EF7E29"/>
<path d="M82.3601 102.403H38.1348V168.405H82.3601V102.403Z" fill="#F99746"/>
<path d="M38.1347 106.233L36.0152 109.529H31.9744V102.403H38.1342L38.1347 106.233Z" fill="#D8661A"/>
<path d="M34.3566 107.603H28.1968L31.9745 102.403H38.1343L34.3566 107.603Z" fill="#F99746"/>
<path opacity="0.5" d="M60.9444 168.614H38.1348V105.411L60.9444 107.603V168.614Z" fill="#EFCBAB"/>
<path d="M82.3601 107.603L78.7717 109.53H40.2666L38.1348 106.233V102.403L82.3601 107.603Z" fill="#EF7E29"/>
<path d="M85.4838 107.603H41.2585L38.1343 102.403H82.3596L85.4838 107.603Z" fill="#F99746"/>
<path d="M127.368 164.47C127.368 165.489 126.951 166.414 126.279 167.086C125.607 167.758 124.682 168.176 123.663 168.176H106.165C104.127 168.176 102.46 166.507 102.46 164.47C102.46 163.451 102.877 162.525 103.548 161.853C104.22 161.183 105.146 160.766 106.165 160.766H123.663C125.7 160.766 127.368 162.433 127.368 164.47Z" fill="#2B478B"/>
<path d="M118.342 164.47C118.342 165.489 117.925 166.414 117.254 167.086C116.582 167.758 115.656 168.176 114.637 168.176H106.165C104.127 168.176 102.46 166.507 102.46 164.47C102.46 163.451 102.877 162.525 103.548 161.853C104.22 161.183 105.146 160.766 106.165 160.766H114.637C116.675 160.766 118.342 162.433 118.342 164.47Z" fill="#699FF0"/>
<path opacity="0.4" d="M123.959 162.756H107.269C106.98 162.756 106.743 162.519 106.743 162.23V162.112C106.743 161.823 106.98 161.587 107.269 161.587H123.959C124.248 161.587 124.484 161.823 124.484 162.112V162.23C124.484 162.519 124.248 162.756 123.959 162.756Z" fill="#E9F3FE"/>
<path d="M112.437 153.974C112.921 154.94 112.965 156.015 112.647 156.971C112.33 157.928 111.65 158.763 110.685 159.247L94.0994 167.558C92.1684 168.526 89.7961 167.736 88.8283 165.805C88.3444 164.84 88.3 163.764 88.6165 162.808C88.9349 161.853 89.6142 161.018 90.5798 160.534L107.165 152.223C109.096 151.255 111.469 152.043 112.437 153.974Z" fill="#EF7E29"/>
<path d="M103.881 158.262C104.365 159.228 104.409 160.303 104.093 161.259C103.775 162.215 103.096 163.05 102.13 163.534L94.0994 167.558C92.1684 168.526 89.7961 167.737 88.8283 165.806C88.3444 164.84 88.3 163.764 88.6165 162.809C88.9349 161.854 89.6142 161.019 90.5798 160.535L98.6105 156.511C100.542 155.543 102.913 156.331 103.881 158.262Z" fill="#F99746"/>
<path opacity="0.5" d="M108.391 153.969L92.5716 161.897C92.298 162.034 91.9616 161.922 91.8245 161.649L91.7682 161.536C91.6309 161.263 91.7428 160.926 92.0164 160.789L107.836 152.861C108.11 152.724 108.446 152.836 108.583 153.11L108.64 153.222C108.777 153.496 108.665 153.832 108.391 153.969Z" fill="#FFE2CC"/>
<defs>
<filter id="filter0_d_611_15257" x="51.5305" y="6.37207" width="90.1523" height="126.219" filterUnits="userSpaceOnUse" color-interpolation-filters="sRGB">
<feFlood flood-opacity="0" result="BackgroundImageFix"/>
<feColorMatrix in="SourceAlpha" type="matrix" values="0 0 0 0 0 0 0 0 0 0 0 0 0 0 0 0 0 0 127 0" result="hardAlpha"/>
<feOffset dy="4"/>
<feGaussianBlur stdDeviation="2"/>
<feComposite in2="hardAlpha" operator="out"/>
<feColorMatrix type="matrix" values="0 0 0 0 0 0 0 0 0 0 0 0 0 0 0 0 0 0 0.25 0"/>
<feBlend mode="normal" in2="BackgroundImageFix" result="effect1_dropShadow_611_15257"/>
<feBlend mode="normal" in="SourceGraphic" in2="effect1_dropShadow_611_15257" result="shape"/>
</filter>
</defs>
</svg>
