<svg width="95" height="122" viewBox="0 0 95 122" fill="none" xmlns="http://www.w3.org/2000/svg">
<g clip-path="url(#clip0_283_9323)">
<path d="M58.3795 122C46.7419 122 37.3077 121.763 37.3077 121.47C37.3077 121.178 46.7419 120.941 58.3795 120.941C70.017 120.941 79.4512 121.178 79.4512 121.47C79.4512 121.763 70.017 122 58.3795 122Z" fill="#3B2645"/>
<path d="M58.3265 121.47C44.3744 121.47 33.064 110.163 33.064 96.2144C33.064 82.266 44.3744 70.9585 58.3265 70.9585C72.2785 70.9585 83.5889 82.266 83.5889 96.2144C83.5889 110.163 72.2785 121.47 58.3265 121.47Z" fill="#FA9E97"/>
<path d="M62.7425 113.862C64.7304 113.862 66.7183 113.635 68.6847 113.16C75.6477 111.506 81.5254 107.097 85.2326 100.732C88.9397 94.3772 90.025 86.834 88.3058 79.496C86.5865 72.1581 82.2561 65.9117 76.1097 61.8915C69.9634 57.8713 62.7425 56.5744 55.7794 58.2279C48.8164 59.8814 42.9387 64.2906 39.2315 70.6559C35.5244 77.0104 34.4391 84.5537 36.1584 91.8916C37.8776 99.2296 42.2188 105.476 48.3544 109.496C52.76 112.371 57.7136 113.862 62.7425 113.862ZM61.6894 57.7524C73.8639 57.7524 85.0606 66.5817 88.1123 79.5501C89.8209 86.834 88.7356 94.3124 85.0606 100.624C81.3857 106.935 75.551 111.312 68.6417 112.954C66.686 113.419 64.7089 113.646 62.7425 113.646C57.7566 113.646 52.846 112.176 48.4726 109.312C42.3799 105.325 38.0818 99.1215 36.3625 91.8376C34.654 84.5537 35.7393 77.0753 39.4142 70.764C43.0891 64.4527 48.9239 60.0759 55.8332 58.4332C57.7888 57.9685 59.7552 57.7524 61.6894 57.7524Z" fill="white"/>
<path d="M71.2097 100.829C73.563 100.829 75.7121 100.235 77.5495 99.0242C81.3641 96.5169 83.3628 91.7078 83.1586 85.4722C82.9545 79.2474 80.6012 72.3525 76.518 66.0521C72.4347 59.7516 67.1157 54.7912 61.5281 52.0894C55.9405 49.3877 50.7505 49.2796 46.9359 51.776C43.1213 54.2833 41.1226 59.0924 41.3268 65.328C41.531 71.5528 43.8842 78.4477 47.9675 84.7481C52.0507 91.0486 57.3697 96.009 62.9573 98.7108C65.8585 100.126 68.6523 100.829 71.2097 100.829ZM76.4428 66.0953L76.3783 66.1385C80.4508 72.4174 82.7933 79.2906 82.9974 85.4722C83.1909 91.6538 81.2245 96.4089 77.4636 98.8837C69.6732 103.995 56.4993 97.6084 48.1072 84.6617C39.715 71.7149 39.2315 57.0174 47.0219 51.9165C54.8123 46.8048 67.9861 53.1917 76.3783 66.1385L76.4428 66.0953Z" fill="white"/>
<path d="M73.4557 91.1349C75.0031 91.1349 76.271 90.6702 77.0125 89.6976C78.001 88.4224 77.9688 86.4771 76.9157 84.2293C75.8734 81.9922 73.9715 79.7228 71.5323 77.8207L71.4893 77.8748L71.5323 77.8207C66.4927 73.887 60.7439 72.8279 58.7238 75.454C56.7037 78.0801 59.1644 83.408 64.2039 87.3417C67.3846 89.7949 70.8338 91.1349 73.4557 91.1349ZM71.4463 77.9288C73.8641 79.8092 75.7552 82.0679 76.7868 84.2833C77.8076 86.4771 77.8506 88.3684 76.8943 89.6004C74.9278 92.1616 69.2758 91.0809 64.2899 87.2012C59.304 83.3215 56.8648 78.0801 58.842 75.5297C60.8191 72.9792 66.4712 74.0491 71.4463 77.9288Z" fill="white"/>
<g opacity="0.3">
<path opacity="0.3" d="M36.9216 82.8027C36.0083 85.3856 35.5462 88.109 35.557 90.8539C35.557 104.201 46.3131 115.008 59.5729 115.008C71.9516 115.008 82.1382 105.595 83.4492 93.5016C83.5459 94.3986 83.5889 95.3064 83.5889 96.2142C83.5889 110.155 72.274 121.47 58.3265 121.47C44.3789 121.47 33.064 110.166 33.064 96.225C33.0533 91.4699 34.3965 86.8121 36.9216 82.8027Z" fill="#543753"/>
</g>
<path d="M42.5938 25.2476C42.5938 25.2476 44.478 26.4635 46.2642 29.4101C48.0504 32.3566 49.9564 35.1279 49.9564 35.1279C49.9564 35.1279 50.6534 29.1581 50.3267 28.3695C50 27.5808 48.8237 25.8391 48.5514 25.2476C48.2791 24.6561 46.9831 23.8127 46.9722 23.4731C46.9613 23.1336 47.1029 22.071 47.1573 22.0382C47.2118 22.0053 47.8653 22.2463 47.9633 22.5968C48.0395 22.8488 48.094 23.0678 48.094 23.0678C48.094 23.0678 48.9762 23.5607 49.1287 23.5717C49.2811 23.5827 50 23.1993 50.0109 23.1336C50.0217 23.0678 49.4118 21.6438 49.2267 21.5672C49.0415 21.4905 48.0177 22.2901 47.8217 22.2901C47.6256 22.2901 47.2118 22.0272 47.19 21.8739C47.1682 21.7205 48.4643 20.3842 48.5732 20.3732C48.6821 20.3622 49.793 20.1651 49.9455 20.2746C50.098 20.3842 50.9257 21.1071 50.9257 21.1071C50.9257 21.1071 50.9257 18.6206 50.9257 18.1167C50.9257 17.6128 51.0346 16.0574 51.2634 15.9479C51.4921 15.8602 51.7426 15.8383 51.9822 15.8712C52.0911 15.9041 52.1564 16.5941 52.1564 16.5941C52.1564 16.5941 52.7337 16.5065 52.8862 16.627C53.0386 16.7475 53.3545 21.4576 53.3545 21.5014C53.3545 21.5453 54.1713 20.5485 54.2694 20.3622C54.3674 20.176 54.705 19.0368 54.8575 18.993C55.01 18.9492 55.4456 18.9163 55.5001 19.0259C55.5545 19.1354 55.206 20.7785 55.1842 20.9647C55.1625 21.1509 54.1278 23.3636 54.0733 23.7031C54.0189 24.0427 53.801 26.8907 53.7357 27.4712C53.6703 28.0518 54.4001 34.876 54.5634 37.724C54.7268 40.572 54.5852 43.1242 54.411 43.3871C54.2367 43.65 52.8099 44.5811 52.0475 44.1977C51.2851 43.8143 49.1831 42.1603 47.1791 40.2324C45.1751 38.3045 42.8117 35.7742 42.8117 35.7742L42.5938 25.2476Z" fill="#FFD3C0"/>
<path d="M49.9678 35.1172C49.9678 35.1172 49.7717 36.6508 49.6955 38.0309C49.6955 38.0309 49.2707 36.7274 49.4777 34.3943L49.9678 35.1172Z" fill="#DE835C"/>
<path d="M53.4744 22.9253C53.4853 22.9253 53.4962 22.9253 53.5071 22.9144C53.5289 22.8925 53.5289 22.8596 53.5071 22.8377C53.1804 22.4653 51.3179 21.2823 51.2417 21.2275C51.2199 21.2165 51.1872 21.2165 51.1655 21.2494C51.1546 21.2713 51.1546 21.3042 51.1872 21.3261C51.209 21.337 53.115 22.5529 53.4309 22.9144C53.4418 22.9253 53.4635 22.9253 53.4744 22.9253Z" fill="#472938"/>
<path d="M52.0474 20.8222C52.0583 20.8222 52.0474 20.8222 52.0474 20.8222C52.0801 20.8222 52.1019 20.8003 52.1019 20.7674C52.1019 20.7346 51.9712 17.8209 52.0038 17.2951C52.0365 16.8022 52.189 16.6598 52.189 16.6598C52.2108 16.6379 52.2108 16.605 52.1999 16.5831C52.1781 16.5612 52.1454 16.5612 52.1236 16.5721C52.1019 16.5831 51.9385 16.7474 51.9058 17.2841C51.8731 17.8209 52.0038 20.6579 52.0038 20.7784C52.0038 20.8003 52.0256 20.8222 52.0474 20.8222Z" fill="#472938"/>
<path d="M51.7102 25.3901C51.7211 25.3791 51.7211 25.3901 51.7102 25.3901C51.7538 25.3791 51.7646 25.3572 51.7646 25.3244C51.5359 24.0318 50.1092 23.1227 50.0547 23.0898C50.0329 23.0788 50.0003 23.0789 49.9785 23.1117C49.9676 23.1336 49.9676 23.1665 50.0003 23.1884C50.0111 23.1993 51.4488 24.1085 51.6666 25.3572C51.6666 25.3682 51.6884 25.3901 51.7102 25.3901Z" fill="#472938"/>
<path d="M41.3847 120.535C41.3412 120.765 40.8293 121.521 38.248 121.751C35.6668 121.981 32.5083 121.039 30.9508 120.864C29.6438 120.721 27.9775 120.228 27.4765 120.064C27.3893 120.042 27.324 119.954 27.324 119.856C27.324 119.702 27.3349 119.451 27.3458 119.144C29.4587 119.177 32.4429 119.965 36.0262 120.458C38.7273 120.831 40.5461 120.119 41.3412 119.691C41.3847 119.976 41.3956 120.25 41.3847 120.535Z" fill="#3B2645"/>
<path d="M27.6725 114.105C28.62 114.192 29.0121 114.981 29.4695 115.244C29.927 115.507 31.2775 115.616 31.1577 113.897C31.0379 112.177 32.3558 111.662 32.3558 111.662C32.7152 111.673 33.6845 113.601 35.3291 115.682C36.9737 117.763 40.9164 118.859 41.0906 118.924C41.1886 118.957 41.2649 119.319 41.3193 119.691C40.5243 120.107 38.7054 120.83 36.0044 120.458C32.432 119.965 29.4369 119.176 27.3239 119.144C27.3566 118.015 27.422 116.087 27.5309 115.266C27.5962 114.948 27.6289 114.532 27.6725 114.105Z" fill="#FF8A00"/>
<path d="M31.1573 113.908C31.2662 115.628 29.9265 115.518 29.4691 115.255C29.0117 114.992 28.6087 114.204 27.672 114.116C27.7592 113.01 27.8245 111.827 27.8245 111.827L32.3662 111.673C32.3553 111.673 31.0484 112.199 31.1573 113.908Z" fill="#FFD3C0"/>
<path d="M36.1466 118.158C34.0119 117.961 31.1583 114.28 31.1583 114.28C31.1692 114.16 31.1692 114.028 31.1583 113.908C31.0494 112.188 32.3564 111.673 32.3564 111.673C32.7158 111.684 33.6851 113.612 35.3297 115.693C35.9614 116.504 36.9525 117.161 37.9219 117.665C37.4209 118.059 36.7892 118.235 36.1466 118.158Z" fill="#3B2645"/>
<path d="M49.0086 119.878C48.8234 120.458 47.6363 120.666 45.0115 120.666C42.3867 120.666 41.1342 115.978 40.0668 115.025C38.9995 114.083 36.7885 110.841 36.7885 110.282C36.7885 110.118 37.1153 109.713 37.5836 109.209C38.0519 110.216 39.0975 112.243 40.6332 113.7C41.9074 114.916 41.9619 119.001 45.1313 119.757C46.6125 120.108 47.9957 119.713 49.0413 119.199C49.0848 119.429 49.0631 119.659 49.0086 119.878Z" fill="#3B2645"/>
<path d="M40.8298 106.065C41.9516 107.27 41.5922 108.738 41.6466 109.329C41.7011 109.921 43.716 110.074 44.0318 109.943C44.3477 109.811 44.6853 109.318 45.317 109.329C45.6982 109.34 46.0467 109.526 46.2537 109.844C46.417 111.936 46.7111 114.423 46.8418 115.409C47.0596 117.041 47.9963 117.457 48.4646 117.785C48.7913 118.005 49.0092 118.651 49.0527 119.209C48.0072 119.724 46.624 120.119 45.1427 119.768C41.9625 119.023 41.9189 114.927 40.6446 113.711C39.1089 112.254 38.0634 110.238 37.595 109.22C38.7277 107.993 40.6882 106.229 40.8298 106.065Z" fill="#FF8A00"/>
<path d="M45.3278 109.318C44.6853 109.307 44.3585 109.8 44.0427 109.932C43.7268 110.063 41.7119 109.91 41.6574 109.318C41.603 108.727 41.9624 107.259 40.8406 106.054C41.0366 105.813 41.7119 104.553 41.7119 104.553L46.1883 106.777C46.112 107.303 46.1665 108.486 46.2754 109.833C46.0576 109.515 45.6981 109.329 45.3278 109.318Z" fill="#FFD3C0"/>
<path d="M45.8069 116.679C44.2168 116.098 44.0425 109.931 44.0425 109.931C44.3584 109.8 44.696 109.307 45.3277 109.318C45.7089 109.329 46.0574 109.515 46.2644 109.833C46.4277 111.925 46.7218 114.412 46.8525 115.397C46.907 115.901 47.0812 116.383 47.3535 116.81C46.8307 116.898 46.297 116.843 45.8069 116.679Z" fill="#3B2645"/>
<path d="M27.0088 48.4919C27.0088 48.4919 21.2582 58.2846 21.2582 63.2467C21.2582 68.2088 26.2028 84.8037 26.29 87.0383C26.3771 89.2729 24.6236 94.1583 25.179 99.0875C25.7345 104.017 27.8256 111.816 27.8256 111.816C27.8256 111.816 30.6356 112.243 32.3673 111.662C32.3673 111.662 32.4436 97.0062 33.4674 91.0145C34.4912 85.0228 35.2862 72.3274 35.2862 72.3274C35.2862 72.3274 45.7964 83.7522 46.134 85.6472C46.4716 87.5422 44.5439 88.7909 43.629 94.5088C42.7141 100.227 41.7012 104.564 41.7012 104.564C41.7012 104.564 43.7706 107.018 46.1776 106.788C46.1776 106.788 55.1412 86.4906 54.6293 83.8398C54.1174 81.189 43.7488 61.6693 43.3676 59.3581C42.9864 57.0468 42.7141 54.1112 42.2349 51.0989L27.0088 48.4919Z" fill="#FF8A00"/>
<path d="M34.1319 55.0754C30.4942 54.462 27.608 52.2713 25.8545 50.5844C26.5297 49.3138 27.009 48.5032 27.009 48.5032L42.246 51.0992C42.3549 51.7784 42.4529 52.4575 42.54 53.1257C41.1351 54.1991 38.2815 55.7765 34.1319 55.0754Z" fill="#3B2645"/>
<g opacity="0.5">
<path opacity="0.5" d="M35.2749 72.3276V67.727C35.2749 67.727 36.6472 64.9886 36.7779 62.6992L36.4621 69.4467L39.4463 76.9939L35.2749 72.3276Z" fill="#543753"/>
</g>
<path d="M42.2354 44.8987C41.9195 46.4651 42.2354 51.0985 42.2354 51.0985C42.2354 51.0985 41.473 52.8183 37.3778 53.4974C33.2827 54.1766 27.0092 48.4915 27.0092 48.4915C27.5974 47.1552 27.6954 45.6217 27.6518 44.4386C36.7897 43.0256 42.2354 44.8987 42.2354 44.8987Z" fill="#FFD3C0"/>
<path d="M27.4118 47.2646C27.6187 46.3336 27.6949 45.3915 27.6514 44.4386C28.7514 44.2633 29.797 44.1428 30.7881 44.0552L30.5376 46.2678L27.4118 47.2646Z" fill="#DE835C"/>
<path d="M36.8981 33.2991C31.1256 32.7733 29.3721 27.8332 28.8493 25.0728L30.3959 24.6347L37.9327 23.8679L40.1437 24.4375C41.3091 28.4795 41.919 33.7482 36.8981 33.2991Z" fill="#FFD3C0"/>
<path d="M24.5144 26.2664L26.8234 25.6311C28.2828 38.2718 25.5382 37.9322 25.5382 37.9322L24.7758 35.9277L24.5144 26.2664Z" fill="#FFD3C0"/>
<path d="M27.4553 42.5329C25.5058 40.7803 25.5385 37.9323 25.5385 37.9323C25.5385 37.9323 28.294 38.2719 26.8236 25.6313L28.8494 25.0726C29.3831 27.833 31.1366 32.7841 36.8981 33.2989C41.9191 33.748 41.3091 28.4792 40.1329 24.4482L42.4092 25.0397C42.4092 25.0397 45.0558 33.7261 45.132 36.8698C45.1865 38.8853 43.9884 41.6128 43.1062 43.3107C37.1922 40.7803 27.4553 42.5329 27.4553 42.5329Z" fill="#FF8A00"/>
<path d="M27.6516 44.4389C27.6298 43.7927 27.5645 43.1574 27.4447 42.522C27.4447 42.522 37.1816 40.7694 43.1064 43.2998C42.6163 44.2527 42.2351 44.8881 42.2351 44.8881C42.2351 44.8881 36.7895 43.0259 27.6516 44.4389Z" fill="#3B2645"/>
<path d="M26.8242 25.6204C26.8242 25.6204 25.7569 31.6011 29.6777 38.6335L30.1243 43.4093L29.7431 54.3083C29.7431 54.3083 31.4857 54.7793 32.4115 54.7793C33.3372 54.7793 34.6333 55.2065 34.6333 55.2065L34.8185 53.443L35.7987 53.4649C35.7987 53.4649 36.0819 49.883 34.862 46.9474C33.6422 44.0118 33.0541 42.2372 32.858 39.214C32.662 36.1908 33.3372 32.1379 31.1045 25.9709L26.8242 25.6204Z" fill="white"/>
<path d="M24.765 35.9277L25.4184 33.4412L25.5273 37.9213L24.765 35.9277Z" fill="#DE835C"/>
<path d="M37.3995 52.8297C37.2852 52.8297 37.1926 52.6874 37.1926 52.512C37.1926 52.3366 37.2852 52.1943 37.3995 52.1943C37.5138 52.1943 37.6064 52.3366 37.6064 52.512C37.6064 52.6874 37.5138 52.8297 37.3995 52.8297Z" fill="#DE835C"/>
<path d="M37.5625 20.428C37.5625 20.428 37.519 24.9409 39.9369 30.9436C42.3547 36.9463 42.5508 39.0603 41.9844 44.8877C41.4181 50.7152 42.8122 55.3705 42.8122 55.3705C42.8122 55.3705 49.2599 56.7178 51.8193 53.2236C51.8193 53.2236 48.6608 45.9065 47.245 37.1653C45.8291 28.4242 42.4092 25.0176 42.4092 25.0176C42.4092 25.0176 41.7557 23.1335 40.2745 23.3307C40.2745 23.3526 39.0764 20.3513 37.5625 20.428Z" fill="white"/>
<path d="M45.622 49.5759C45.6546 49.5759 45.6764 49.554 45.6764 49.5211C46.1121 41.3715 43.7595 33.9668 42.4962 29.9905L42.409 29.7276C42.3981 29.6948 42.3655 29.6838 42.3437 29.6948C42.311 29.7057 42.3001 29.7386 42.311 29.7605L42.3981 30.0234C43.6615 33.9996 46.0032 41.3825 45.5675 49.5102C45.5675 49.554 45.5893 49.5759 45.622 49.5759Z" fill="#472938"/>
<path d="M41.843 28.0958H41.8539C41.8865 28.0849 41.8974 28.052 41.8865 28.0301C40.9826 24.9083 40.3291 23.3529 40.3182 23.3419C40.3073 23.309 40.2746 23.2981 40.2419 23.309C40.2093 23.32 40.1984 23.3529 40.2093 23.3857C40.2202 23.3967 40.8736 24.9521 41.7667 28.063C41.7994 28.0739 41.8212 28.0958 41.843 28.0958Z" fill="#472938"/>
<path d="M45.8078 34.8323H45.8187C45.8514 34.8213 45.8623 34.7994 45.8623 34.7665C44.9148 31.0751 42.486 25.0834 42.4642 25.0177C42.4533 24.9848 42.4206 24.9739 42.388 24.9848C42.3553 24.9958 42.3444 25.0286 42.3553 25.0615C42.3771 25.1163 44.8058 31.108 45.7534 34.7885C45.7534 34.8104 45.7752 34.8323 45.8078 34.8323Z" fill="#472938"/>
<path d="M34.8068 53.5088C34.8395 53.5088 34.8613 53.4869 34.8613 53.4541C34.8613 53.4212 34.883 49.7626 34.1751 48.0648C34.1642 48.0319 34.1315 48.021 34.0989 48.0319C34.0662 48.0429 34.0553 48.0758 34.0662 48.1086C34.7632 49.7845 34.7415 53.4212 34.7415 53.4541C34.7523 53.4869 34.7741 53.5088 34.8068 53.5088Z" fill="#472938"/>
<path d="M33.6742 52.8842C33.7069 52.8842 33.7287 52.8623 33.7287 52.8294C33.7287 52.7966 33.8485 49.7405 33.195 47.4402C32.5415 45.1618 32.3672 41.2732 32.3672 41.2403C32.3672 41.2075 32.3455 41.1855 32.3128 41.1855C32.2801 41.1855 32.2583 41.2075 32.2583 41.2403C32.2583 41.2841 32.4326 45.1727 33.0861 47.473C33.7396 49.7514 33.6198 52.7966 33.6198 52.8185C33.6198 52.8513 33.6415 52.8842 33.6742 52.8842Z" fill="#472938"/>
<path d="M31.4524 47.9767C31.4633 47.9767 31.4633 47.9767 31.4524 47.9767C31.4959 47.9658 31.5068 47.9439 31.5068 47.911C31.0821 45.6764 31.4197 41.0758 31.4197 41.0211C31.4197 40.9882 31.3979 40.9663 31.3652 40.9663C31.3326 40.9663 31.3108 40.9882 31.3108 41.0211C31.3108 41.0649 30.9732 45.6874 31.3979 47.9329C31.4088 47.9548 31.4306 47.9767 31.4524 47.9767Z" fill="#472938"/>
<path d="M30.6467 39.1479C30.6903 39.1369 30.7012 39.115 30.7012 39.0821C30.6903 39.0383 30.015 34.854 29.3615 32.9261C29.3506 32.8933 29.318 32.8823 29.2962 32.8933C29.2635 32.9042 29.2526 32.9371 29.2635 32.959C29.9061 34.8759 30.5923 39.0493 30.5923 39.0931C30.5923 39.126 30.614 39.1479 30.6467 39.1479Z" fill="#472938"/>
<path d="M31.4524 38.688C31.4742 38.688 31.496 38.6661 31.5069 38.6442C31.5069 38.6223 31.8663 36.7711 31.398 33.4302C31.398 33.3973 31.3653 33.3754 31.3326 33.3864C31.3 33.3864 31.2782 33.4193 31.2891 33.4521C31.7465 36.7821 31.398 38.6114 31.398 38.6333C31.398 38.6552 31.4198 38.688 31.4524 38.688Z" fill="#472938"/>
<path d="M30.4601 16.9446L30.3948 24.6341H38.0078L37.2781 17.7771L30.4601 16.9446Z" fill="#FFD3C0"/>
<path d="M37.2783 17.7771C37.2783 17.7771 36.1674 25.0613 30.4277 20.7894L30.4603 16.9446L37.2783 17.7771Z" fill="#DE835C"/>
<path d="M38.5029 16.6098C38.0112 16.469 37.8395 15.553 38.1195 14.5639C38.3995 13.5747 39.0251 12.887 39.5168 13.0278C40.0086 13.1686 40.1803 14.0846 39.9003 15.0737C39.6203 16.0629 38.9947 16.7506 38.5029 16.6098Z" fill="#DE835C"/>
<path d="M30.4498 17.668C30.4498 17.668 30.4715 19.5411 30.5587 20.7898C30.5587 20.7898 31.4518 23.6269 31.0488 26.2667C30.6458 28.9066 30.7765 30.8564 31.4082 31.7984L30.7003 31.4588C30.7003 31.4588 27.0734 31.5026 27.117 26.1901C27.117 26.1901 25.2873 23.2106 28.0319 19.7164C30.7765 16.2221 29.2299 14.3162 29.2299 14.3162C29.2299 14.3162 30.3626 14.8858 30.4498 17.668Z" fill="#3B2645"/>
<path d="M29.2515 14.3049C29.2515 14.3049 30.3624 14.8855 30.4604 17.6677C30.4604 17.6677 30.4822 19.5408 30.5693 20.7896C30.1337 19.6285 29.7634 18.4455 29.4584 17.2405C30.0792 15.3236 29.2515 14.3049 29.2515 14.3049Z" fill="#3B2645"/>
<path d="M28.795 14.9101C28.4995 13.9256 28.6567 13.007 29.1461 12.8584C29.6356 12.7098 30.2719 13.3874 30.5674 14.3719C30.863 15.3564 30.7058 16.275 30.2163 16.4236C29.7269 16.5722 29.0905 15.8946 28.795 14.9101Z" fill="#FFD3C0"/>
<path d="M39.1303 9.44166C39.1303 9.44166 39.3263 15.1376 38.5748 17.5255C37.8233 19.9135 35.95 21.4251 34.7193 21.4251C33.4886 21.4251 31.0925 20.5269 30.1558 16.6931C29.2192 12.8592 29.3281 8.05053 33.347 6.79084C37.3659 5.53116 39.1303 8.17102 39.1303 9.44166Z" fill="#FFD3C0"/>
<path d="M29.6978 13.5603C29.6978 13.5603 29.9156 12.0158 30.7434 11.1724C31.5711 10.3289 33.2702 9.75934 32.9543 8.41202C32.9543 8.41202 34.0435 9.05829 36.0039 9.05829C37.9643 9.05829 39.3149 10.5918 39.1188 13.1988L39.3693 13.0236C39.3693 13.0236 40.306 9.32118 39.1624 7.52476C38.0079 5.72834 35.2851 4.58915 33.085 5.21352C30.885 5.83788 28.4126 7.31664 28.6305 10.2084C28.6958 11.1286 28.8265 12.0377 29.0225 12.9359C29.0225 12.925 29.6542 13.0236 29.6978 13.5603Z" fill="#3B2645"/>
<path d="M37.3762 14.0092C37.5505 14.0092 37.6921 13.8778 37.703 13.7025L37.7139 13.5054C37.7139 13.3301 37.5832 13.1877 37.4089 13.1768C37.2346 13.1768 37.0931 13.3082 37.0822 13.4835L37.0713 13.6806C37.0713 13.8559 37.202 14.0092 37.3762 14.0092Z" fill="#472938"/>
<path d="M32.5076 14.1736C32.6819 14.1517 32.8017 13.9874 32.769 13.8121L32.7364 13.615C32.7146 13.4397 32.5512 13.3192 32.3769 13.3521C32.2027 13.374 32.0829 13.5383 32.1155 13.7136L32.1482 13.9107C32.1809 14.086 32.3443 14.1955 32.5076 14.1736Z" fill="#472938"/>
<path d="M38.5088 12.6728C38.5088 12.6728 38.2147 12.3442 37.5286 12.3332C36.8424 12.3223 36.6246 12.388 36.581 12.1689C36.5374 11.9498 38.0078 11.3912 38.5088 12.6728Z" fill="#472938"/>
<path d="M31.3539 12.5741C31.3539 12.5741 31.6806 12.2674 32.4212 12.3002C33.1619 12.3331 33.3797 12.4098 33.4342 12.2016C33.4886 11.9935 31.9311 11.3253 31.3539 12.5741Z" fill="#472938"/>
<path d="M33.2926 17.4162L36.168 17.3176C36.168 17.3176 36.0155 19.3003 34.7303 19.2674C33.4451 19.2345 33.2926 17.4162 33.2926 17.4162Z" fill="white"/>
<path d="M34.904 16.5507C35.0891 16.5507 35.2634 16.5069 35.405 16.4412C35.5248 16.3755 35.5901 16.2878 35.6228 16.1893C35.6882 15.9373 35.5575 15.3239 35.405 14.5572L35.3505 14.3162C35.1 13.0784 35.7753 12.7388 35.808 12.7279C35.8406 12.7169 35.8515 12.6731 35.8406 12.6402C35.8298 12.6074 35.7862 12.5964 35.7535 12.6074C35.7208 12.6183 34.9585 13.0017 35.2307 14.3381L35.2852 14.5791C35.4377 15.302 35.5575 15.9373 35.503 16.1564C35.4812 16.2221 35.4377 16.2769 35.3505 16.3317C35.1436 16.4412 34.8169 16.4631 34.5119 16.3645C34.4792 16.3536 34.4357 16.3755 34.4248 16.4083C34.4139 16.4412 34.4357 16.485 34.4683 16.496C34.6099 16.5288 34.7624 16.5507 34.904 16.5507Z" fill="#472938"/>
<path d="M24.5143 26.2664C24.5143 26.2664 22.238 26.3759 21.1053 29.6401C19.9726 32.8934 16.3893 42.3575 16.2478 44.0991C16.1062 45.8408 16.6398 47.2429 19.1122 47.7577C21.2142 48.1958 26.7906 46.5637 27.248 46.5199C27.7054 46.4761 29.0015 46.4432 29.4372 45.6874C29.8728 44.9316 30.1124 43.65 30.1124 43.65C30.1124 43.65 31.256 43.2119 31.4521 43.2119C31.6481 43.2119 33.0313 43.2995 33.162 43.0914C33.2927 42.8832 33.2927 42.4889 33.2491 42.3027C33.2491 42.3027 33.4888 41.8645 33.4125 41.6017C33.4125 41.6017 33.663 40.9663 33.6412 40.8239C33.6195 40.6815 32.9442 40.2653 32.8026 40.2324C32.661 40.1996 31.0273 40.1338 31.0273 40.1338C31.0273 40.1338 31.5174 39.5314 31.6046 39.5095C31.6917 39.4876 32.8571 39.5314 32.8571 39.5314L32.8788 39.8271C32.8788 39.8271 33.1947 39.5533 33.2491 39.3999C33.3036 39.2466 33.2056 38.7975 33.0749 38.7427C32.9442 38.6879 31.3976 38.1731 30.9293 38.3374C30.461 38.5017 28.9688 39.4218 28.7728 39.7286C28.5768 40.0353 27.4767 43.1133 27.1282 43.3433C26.7797 43.5733 24.9935 43.8253 22.14 43.2119L26.2024 32.8824L24.5143 26.2664Z" fill="#FFD3C0"/>
</g>
<defs>
<clipPath id="clip0_283_9323">
<rect width="95" height="122" fill="white" transform="matrix(-1 0 0 1 95 0)"/>
</clipPath>
</defs>
</svg>
