<svg width="71" height="92" viewBox="0 0 71 92" fill="none" xmlns="http://www.w3.org/2000/svg">
<path d="M16.7403 2.96606C16.7403 2.96606 9.99851 4.59154 7.32938 7.72852C4.66024 10.8655 5.57794 18.9509 6.27372 23.6054C6.96949 28.2599 8.83489 31.6248 6.62761 33.2502C4.42032 34.8757 3.62858 33.3702 3.62858 33.3702C3.62858 33.3702 6.6276 38.4806 9.78858 39.1823C12.9496 39.8841 17.3461 35.9254 18.0419 32.4405C18.7377 28.9556 19.2055 23.7193 18.6417 20.1145C18.0779 16.5097 16.9743 15.2861 16.4164 12.8449C15.8586 10.4037 16.3025 6.33697 16.3025 6.33697L16.7403 2.96606Z" fill="#3B2645"/>
<path d="M26.5049 91.1433C13.0225 91.1433 2.09283 81.9834 2.09283 70.684C2.09283 59.3846 13.0225 50.2246 26.5049 50.2246C39.9873 50.2246 50.917 59.3846 50.917 70.684C50.917 81.9834 39.9873 91.1433 26.5049 91.1433Z" fill="#FF8A00"/>
<path d="M47.2104 22.5738L47.7442 22.2199L50.2334 18.4891L48.242 14.4704L43.7675 14.1765L43.2337 14.5364L47.2104 22.5738Z" fill="#393762"/>
<path d="M42.7365 22.2859L47.211 22.5738L49.7002 18.843L47.7148 14.8243L43.2343 14.5364L40.7511 18.2672L42.7365 22.2859Z" fill="#636183"/>
<path d="M31.9637 20.8762C33.0824 22.1103 34.0379 23.4831 34.8068 24.9608C36.3183 27.7199 40.1391 31.5587 40.8468 32.3384C41.1802 32.7577 41.6076 33.0927 42.0944 33.3161C42.7683 31.343 43.3015 29.3246 43.6899 27.2761C44.0438 24.8769 44.5776 20.1624 44.5776 20.1624L43.1561 17.3193C43.1561 17.3193 44.3137 15.0041 44.7576 14.8361C45.2014 14.6682 46.0891 14.9201 47.4207 16.0777C48.7523 17.2353 49.2921 18.387 48.6683 19.8025C48.0445 21.218 46.7129 22.6456 46.8689 24.9548C47.0248 27.2641 46.9528 35.3555 46.1551 38.0186C45.3574 40.6817 45.4413 40.6877 44.3557 40.6877C43.27 40.6877 40.157 39.3502 36.8881 37.6887C34.9734 36.7324 33.3482 35.2831 32.1796 33.4901L31.9637 20.8762Z" fill="#FFD3C0"/>
<path d="M25.2102 19.4585C26.7018 19.205 28.2277 19.2334 29.7087 19.5425C31.916 20.0763 33.0616 21.4859 33.5055 24.047C33.9493 26.6082 35.5328 29.7872 34.4712 32.1864C33.4095 34.5856 32.4438 36.427 32.3539 38.3644C32.3107 40.2135 32.3969 42.0634 32.6118 43.9006C32.7872 44.2678 32.9876 44.6225 33.2116 44.9622C33.2116 44.9622 33.3915 46.3718 37.8061 45.1362C42.2207 43.9006 47.8648 44.2545 53.6889 45.58C59.5131 46.9056 62.6021 47.9793 62.866 49.9046C63.1299 51.83 63.1299 63.8441 62.6021 67.377C62.3052 69.7556 62.3638 72.1652 62.776 74.5267C64.2388 75.5446 65.8074 76.4013 67.4545 77.0818C69.9257 78.0535 71.3352 78.5814 70.8974 79.4811C70.4595 80.3808 68.7801 80.5427 66.6627 80.5427C64.5454 80.5427 61.6304 80.3688 61.6304 80.3688C61.6304 80.3688 64.2755 82.0422 66.0449 83.1879C67.8144 84.3335 69.4818 84.6034 68.6901 85.839C67.8983 87.0746 60.2928 86.7207 58.4514 86.7207C56.61 86.7207 54.4807 86.0129 54.3067 85.2212C54.1328 84.4295 54.8346 81.6883 54.8346 80.6327C54.8346 79.577 55.0985 74.8925 54.0428 72.7752C52.9872 70.6579 51.3917 64.4799 51.4817 62.0987C51.5716 59.7175 51.7456 58.2179 51.7456 58.2179C51.7456 58.2179 41.6089 59.6095 37.6501 61.019C33.6914 62.4286 24.8563 63.5802 20.7056 61.5529C16.555 59.5255 14.8815 57.0483 15.4993 53.5215C16.1171 49.9946 17.7966 47.6974 17.3527 43.5467C16.9089 39.396 16.9149 35.3414 15.8532 33.314C14.7916 31.2867 12.4103 27.6639 12.5903 25.2826C12.7702 22.9014 17.1788 20.4842 19.3861 19.6325C21.5933 18.7807 25.2102 19.4585 25.2102 19.4585Z" fill="#FFD3C0"/>
<path d="M62.8894 50.1173C63.1533 52.0547 63.1533 64.0568 62.6255 67.5897C62.3286 69.9683 62.3873 72.3779 62.7994 74.7393C64.2622 75.7573 65.8309 76.614 67.4779 77.2945C69.9491 78.2662 71.3587 78.794 70.9208 79.6937C70.4829 80.5934 68.8035 80.7554 66.6862 80.7554C64.8868 80.7554 62.5295 80.6294 61.8517 80.5874C61.4259 80.4495 60.5922 80.1556 60.5922 79.9876C60.5922 79.8197 59.8904 73.3898 59.8004 67.1878C59.7104 60.9858 59.0027 53.8241 59.0027 53.8241L59.7944 50.6451C60.5208 49.9629 61.3033 49.3429 62.1337 48.7917C62.5372 49.128 62.8056 49.5988 62.8894 50.1173Z" fill="#FFD3C0"/>
<path d="M60.7721 77.6478C60.7721 77.6478 61.036 77.048 61.4799 75.8844C61.558 75.5823 61.726 75.3111 61.9616 75.1065C62.1972 74.902 62.4894 74.7737 62.7994 74.7388C64.2622 75.7567 65.8309 76.6134 67.4779 77.2939C69.9491 78.2656 71.3587 78.7935 70.9208 79.6932C70.4829 80.5929 68.8035 80.7548 66.6862 80.7548C64.8868 80.7548 62.5295 80.6289 61.8517 80.5869C61.4259 80.4489 60.5922 80.155 60.5922 79.9871C60.5922 79.8911 60.5082 79.0274 60.3882 77.6898L60.7721 77.6478Z" fill="#3B2645"/>
<path d="M26.709 48.0839C28.9819 46.8875 30.9609 45.2015 32.5031 43.1475C32.5511 43.6693 32.593 44.0352 32.617 44.1131C32.7925 44.4803 32.9929 44.835 33.2168 45.1748C33.2168 45.1748 33.3968 46.5843 37.8114 45.3487C42.2259 44.1131 47.8701 44.467 53.6942 45.7926C59.5183 47.1182 62.6073 48.1918 62.8712 50.1172C62.8712 50.2072 62.8712 50.3211 62.9072 50.4531C62.5674 50.9485 62.201 51.425 61.8096 51.8806C61.0411 52.7417 60.079 53.4078 59.0025 53.824C58.7326 55.0596 57.0591 58.9403 54.5879 58.9403C52.1167 58.9403 51.7628 58.4125 51.7628 58.4125C51.7628 58.4125 41.6081 59.8221 37.6494 61.2316C33.6907 62.6411 24.8556 63.7928 20.7049 61.7654C16.5542 59.7381 14.8808 57.2609 15.4986 53.734C15.773 52.379 16.1397 51.0443 16.5962 49.7393C19.2834 49.8833 23.614 49.7933 26.709 48.0839Z" fill="#3B2645"/>
<path d="M32.6111 44.1131C32.7865 44.4803 32.9869 44.835 33.2109 45.1747C33.2109 45.1747 33.3908 46.5843 37.8054 45.3487C42.2199 44.1131 47.8641 44.467 53.6882 45.7925C59.5123 47.1181 62.6013 48.1918 62.8653 50.1171C62.9192 50.507 62.9612 51.3167 62.9912 52.3544C61.8308 53.2179 60.4458 53.7281 59.0025 53.8239C58.3712 52.7337 57.46 51.8319 56.3633 51.2119C55.2666 50.5918 54.0242 50.276 52.7645 50.2971C48.302 50.2971 29.4381 50.645 29.4381 50.645L26.9189 44.9048C26.9189 44.9048 29.9179 42.7875 32.3831 41.408C32.4611 42.7635 32.5691 43.9631 32.6111 44.1131Z" fill="#3B2645"/>
<path d="M17.3168 44.575C17.0889 43.5973 12.5904 38.427 12.1405 36.6275C11.6907 34.8281 10.0412 29.3519 11.5407 26.2029C13.0402 23.0539 14.9176 22.3042 14.9176 22.3042C16.2954 21.2915 17.7946 20.4553 19.3802 19.815C21.5815 18.9333 25.2043 19.641 25.2043 19.641C26.6959 19.3875 28.2218 19.416 29.7028 19.725C31.9101 20.2588 33.0558 21.6684 33.4996 24.2296C33.9435 26.7907 35.5329 29.9997 34.4713 32.3989C33.4096 34.7981 32.4439 36.6395 32.354 38.5769C32.3108 40.4261 32.397 42.276 32.6119 44.1131C32.7873 44.4803 32.9877 44.835 33.2117 45.1748V45.2108C32.5579 46.5603 31.0584 49.4094 29.4089 50.645C27.8606 50.6925 26.3715 51.2514 25.1743 52.2345C23.3749 53.824 21.1976 54.1719 18.8164 54.1719C17.6863 54.1267 16.568 53.9248 15.4934 53.5721C16.0932 50.4291 17.4788 48.2398 17.3828 44.7729C17.3477 44.712 17.3253 44.6447 17.3168 44.575Z" fill="#FF8A00"/>
<path d="M18.2765 14.3387C18.2765 14.3387 16.0632 10.9378 15.7093 8.02873C15.3554 5.11967 15.8833 2.40855 19.0622 0.705103C22.2412 -0.998345 26.9197 0.705103 28.3292 2.40855C29.7388 4.112 29.5648 7.35095 29.9187 8.05872C30.2726 8.76649 31.8621 9.91212 31.6821 10.356C31.5022 10.7998 30.3566 11.4056 30.3566 11.4056L29.7568 14.1407C29.5828 14.9385 29.055 15.9941 28.4372 15.9941C27.5975 15.9066 26.7641 15.7663 25.942 15.5743C25.942 15.5743 25.7681 18.3334 26.2899 19.443C26.9917 20.9425 30.6085 29.9276 29.019 30.8393C27.4295 31.751 20.7057 24.6973 18.7683 23.1978C16.831 21.6983 19.3681 19.8449 19.3681 19.8449C19.3681 19.8449 20.2379 19.8089 19.884 17.6016C19.7287 16.3647 19.1626 15.2156 18.2765 14.3387Z" fill="#FFD3C0"/>
<path d="M58.4751 86.9149C56.6217 86.9149 54.5044 86.2071 54.3305 85.4154C54.1865 84.7796 54.6064 82.9142 54.7863 81.6426C55.1516 81.7735 55.5329 81.8542 55.9199 81.8825C56.867 81.915 57.8144 81.8263 58.739 81.6186C58.76 81.2533 58.8495 80.8951 59.0029 80.5629C59.2669 79.9631 60.5864 79.9631 60.5864 79.9631L62.044 80.5989H61.6481C61.6481 80.5989 64.2932 82.2724 66.0627 83.418C67.8321 84.5636 69.4995 84.8336 68.7078 86.0692C67.916 87.3048 60.3285 86.9149 58.4751 86.9149Z" fill="#3B2645"/>
<path d="M14.5697 8.64018C14.2218 5.73112 15.8833 2.4082 19.0623 0.704749C21.7194 -0.698797 25.4142 0.248896 27.3936 1.57447C26.9979 1.64612 26.6418 1.85932 26.3919 2.17427C25.1143 3.57182 25.7921 6.12699 24.6464 7.29062C23.5008 8.45424 22.907 8.10635 22.907 8.10635C22.907 8.10635 21.6234 6.01303 21.0476 8.10635C20.4718 10.1997 21.2755 11.1054 21.8573 11.3573C22.2713 11.5131 22.6991 11.6296 23.1349 11.7052C23.1349 11.7052 20.0159 14.4583 18.2765 14.3623C18.2765 14.3383 14.9236 11.5552 14.5697 8.64018Z" fill="#3B2645"/>
<path d="M45.6812 23.8333L46.209 23.4734L48.6982 19.7426L46.7129 15.7239L42.2383 15.436L41.7045 15.7899L45.6812 23.8333Z" fill="#393762"/>
<path d="M41.2003 23.5395L45.6809 23.8334L48.1641 20.0966L46.1787 16.0779L41.7042 15.79L39.215 19.5208L41.2003 23.5395Z" fill="#636183"/>
<path d="M10.0652 57.2607C10.6884 55.7933 11.0497 54.2282 11.1329 52.6362C11.1329 51.0107 12.9983 46.818 12.9983 45.8883C12.7458 42.2361 12.2973 38.6 11.6547 34.9959C10.635 31.565 10.719 27.8522 11.5407 26.2027C12.3625 24.5533 15.6674 24.8532 16.5671 27.5523C17.4668 30.2514 17.4128 35.4877 17.4128 35.4877C17.7127 37.839 17.9167 43.0813 18.0126 46.2302C18.0786 49.0313 17.4848 51.8564 16.1412 53.8718C14.2399 56.7268 13.3402 60.4696 12.7583 60.4696C12.1765 60.4696 9.09353 60.0858 9.09353 60.0858C9.09353 60.0858 8.93158 59.7678 10.0652 57.2607Z" fill="#FFD3C0"/>
<path d="M8.40256 63.1452C8.40256 63.1452 7.80276 59.8942 7.93472 59.1924C8.06667 58.4907 10.028 58.9645 10.8438 58.9645C11.6595 58.9645 12.2353 58.8446 12.1214 59.3124C12.0074 59.7803 10.3759 59.9122 10.3759 59.9122L9.77612 60.1401L8.40256 63.1452Z" fill="#FFD3C0"/>
<path d="M4.4146 60.8413H16.3867V62.4668H4.4146V60.8413Z" fill="#636183"/>
<path d="M0.000163555 57.2429H5.23047V65.8441H0.000163555V57.2429Z" fill="#636183"/>
<path d="M16.1584 57.2429H21.3887V65.8441H16.1584V57.2429Z" fill="#636183"/>
<path d="M14.1787 59.5638L13.5249 62.7547C13.482 62.9679 13.3639 63.1585 13.1921 63.2917C13.0203 63.425 12.8063 63.492 12.5892 63.4805C11.7735 63.4325 10.5079 63.3605 9.76415 63.2826C8.60052 63.1686 8.25264 63.5165 8.13267 62.6828C8.07869 62.2629 7.98872 61.4831 7.91075 60.8234C7.89518 60.6789 7.91085 60.5328 7.9567 60.3949C8.00255 60.257 8.0775 60.1306 8.17648 60.0243C8.27545 59.9179 8.39614 59.834 8.53036 59.7784C8.66459 59.7227 8.8092 59.6966 8.95441 59.7017C9.86011 59.7017 10.9997 59.7737 11.2757 59.7737C11.7375 59.7977 13.249 58.5201 14.1787 59.5638Z" fill="#FFD3C0"/>
</svg>
