<svg width="270" height="395" viewBox="0 0 270 395" fill="none" xmlns="http://www.w3.org/2000/svg">
<path d="M72.131 288.849C48.3162 348.759 55.1148 389.236 55.1148 389.236C77.7114 393.366 100.662 395.058 123.612 394.311C152.693 393.366 179.573 384.319 203.938 370.59C204.763 337.312 193.406 307.612 185.31 290.737C133.24 315.952 87.811 297.109 72.131 288.849Z" fill="#FF8A00"/>
<path d="M79.1267 272.72C76.5723 278.227 74.2144 283.616 72.1709 288.848C87.8116 297.109 133.28 315.991 185.311 290.736C180.87 281.492 177.372 276.103 177.372 276.103C177.372 276.103 111.155 204.038 79.1267 272.72Z" fill="#FEF9EF"/>
<path d="M130.843 393.877V373.147L148.841 360.638L136.934 377.277L138.152 393.287L130.843 393.877Z" fill="#543753"/>
<path d="M45.29 142.908C45.29 142.908 43.4823 143.577 43.1679 161.908C42.8535 180.239 41.478 216.704 41.478 216.704C41.478 216.704 24.8549 201.245 23.6366 193.456C22.4184 185.667 22.9292 178.665 22.104 174.378C21.2787 170.09 21.1215 158.368 21.4752 156.165C21.8289 153.962 16.2485 153.608 14.7159 156.873C13.1832 160.138 12.6724 170.995 11.8864 171.388C11.1004 171.781 2.10113 172.607 1.23657 174.574C0.372003 176.541 1.90464 180.121 0.568496 183.11C-0.767647 186.1 0.686391 188.224 0.568496 190.506C0.450601 192.787 -0.0995779 193.653 0.922178 197.114C1.94393 200.576 2.14043 203.487 3.79096 204.038L5.44148 204.588L11.2183 206.555C11.2183 206.555 35.9763 262.374 48.2374 263.593C60.4984 264.813 66.9041 255.057 68.4367 247.19C69.9693 239.323 78.1827 192.197 78.1827 192.197L45.29 142.908Z" fill="#FFD3C0"/>
<path d="M59.2021 181.695L72.7993 223.038L78.1832 192.158L59.2021 181.695Z" fill="#86543D"/>
<path d="M41.4775 216.665C41.4775 216.665 53.0313 226.381 56.8432 234.366C56.8432 234.366 50.6734 218.002 41.7133 210.41L41.4775 216.665Z" fill="#86543D"/>
<path d="M7.36719 203.802C7.36719 203.802 19.4318 203.487 20.4142 202.74C21.3967 201.992 21.436 198.452 20.9251 198.019C20.9251 198.019 21.9075 192.866 21.0037 191.529C21.0037 191.529 21.3574 187.713 20.9644 185.471C20.9644 185.471 22.9686 196.957 22.7328 198.767C22.497 200.576 23.4402 203.644 18.017 204.549C12.5939 205.454 7.36719 203.802 7.36719 203.802Z" fill="#86543D"/>
<path d="M21.004 191.607C20.9647 191.607 20.9647 191.607 20.9254 191.607C20.7289 191.567 20.5717 191.371 20.611 191.174C21.1218 187.988 20.2966 181.812 20.2966 181.773V181.694V181.615C20.6503 180.238 21.3969 176.344 20.3752 175.164C19.4713 174.102 10.7471 173.827 5.44181 173.905C5.24532 173.905 5.04883 173.748 5.04883 173.512C5.04883 173.276 5.20602 173.119 5.44181 173.119C7.79971 173.079 19.5499 173.001 20.9647 174.653C22.3794 176.305 21.279 180.907 21.0826 181.733C21.1611 182.481 21.8685 188.145 21.3576 191.292C21.3576 191.489 21.1611 191.607 21.004 191.607Z" fill="#472938"/>
<path d="M20.6896 182.088C20.6503 182.088 20.6896 182.088 20.6896 182.088L8.03556 181.498C7.79977 181.498 7.64258 181.301 7.64258 181.104C7.64258 180.868 7.79977 180.711 8.03556 180.711L20.6896 181.301C20.9254 181.301 21.0826 181.498 21.0826 181.694C21.0826 181.93 20.8861 182.088 20.6896 182.088Z" fill="#472938"/>
<path d="M20.8857 198.413H8.42814C8.19235 198.413 8.03516 198.255 8.03516 198.019C8.03516 197.783 8.19235 197.626 8.42814 197.626H20.8857C21.1215 197.626 21.2787 197.783 21.2787 198.019C21.2787 198.255 21.1215 198.413 20.8857 198.413Z" fill="#472938"/>
<path d="M21.1214 189.837H6.81681C6.58102 189.837 6.42383 189.68 6.42383 189.444C6.42383 189.208 6.58102 189.05 6.81681 189.05H21.1214C21.3572 189.05 21.5144 189.208 21.5144 189.444C21.5144 189.68 21.3572 189.837 21.1214 189.837Z" fill="#472938"/>
<path d="M234.433 123.751L258.248 122.847C259.269 122.807 260.134 123.594 260.173 124.617L262.02 173.788C262.06 174.811 261.274 175.676 260.252 175.715L236.437 176.62C235.415 176.659 234.551 175.873 234.511 174.85L232.664 125.679C232.625 124.617 233.411 123.791 234.433 123.751Z" fill="#3B2645"/>
<path d="M236.359 175.007C236.202 175.007 236.084 174.889 236.084 174.731L234.237 125.56C234.237 125.482 234.277 125.403 234.316 125.364C234.355 125.324 234.434 125.285 234.512 125.285L258.327 124.38C258.484 124.38 258.602 124.498 258.602 124.656L260.449 173.827C260.449 173.984 260.331 174.102 260.174 174.102L236.359 175.007Z" fill="#FEF9EF"/>
<path d="M160.592 117.654C160.592 117.654 185.586 120.172 190.223 140.47C194.86 160.767 203.427 208.994 203.427 208.994C203.427 208.994 221.661 179.767 223.115 175.125C224.569 170.484 229.285 154.788 229.128 149.438C228.971 144.089 234.197 147.904 234.197 154.277L234.983 175.361C235.023 176.069 235.612 176.62 236.32 176.581H236.359L260.488 174.771C261.313 174.732 261.903 174.024 261.863 173.198V172.922C261.863 172.922 260.134 169.343 260.645 167.691C261.156 166.039 265.282 165.881 265.754 166.275C266.226 166.668 268.78 171.585 268.701 172.922C268.623 174.26 265.636 178.43 263.671 179.059C261.706 179.688 242.136 184.409 238.127 190.467C234.119 196.525 216.592 249.59 202.366 253.681C188.14 257.772 174.268 219.183 171.006 207.893C167.744 196.603 160.592 117.654 160.592 117.654Z" fill="#FFD3C0"/>
<path d="M166.88 180.239C168.413 193.259 169.945 204.195 171.006 207.853C172.539 213.124 176.39 224.414 181.538 234.484L183.11 160.334L166.88 180.239Z" fill="#86543D"/>
<path d="M261.196 152.27C261.196 152.27 269.724 156.637 269.566 158.486C269.409 160.334 267.798 163.639 266.147 163.481C264.497 163.324 261.392 161.672 260.528 159.744C259.663 157.817 259.231 151.641 261.196 152.27Z" fill="#FFD3C0"/>
<path d="M261.628 158.682C261.628 158.682 270.156 163.049 269.999 164.897C269.842 166.746 268.231 170.051 266.58 169.893C264.929 169.736 261.825 168.084 260.96 166.156C260.096 164.229 259.663 158.053 261.628 158.682Z" fill="#FFD3C0"/>
<path d="M261.628 144.481C261.628 144.481 270.156 148.848 269.999 150.696C269.842 152.545 268.231 155.85 266.58 155.692C264.929 155.535 261.825 153.883 260.96 151.955C260.096 150.028 259.663 143.813 261.628 144.481Z" fill="#FFD3C0"/>
<path d="M195.725 224.611C195.646 224.611 195.607 224.611 195.528 224.572C195.332 224.493 195.253 224.218 195.371 224.06L203.073 208.837C203.152 208.64 203.427 208.562 203.584 208.68C203.781 208.758 203.859 209.034 203.741 209.191L196.039 224.414C196 224.532 195.882 224.611 195.725 224.611Z" fill="#472938"/>
<path d="M85.3351 246.207C85.3744 258.991 79.126 272.68 79.126 272.68C79.126 272.68 122.393 296.99 177.332 276.063C177.332 276.063 170.612 258.755 171.477 240.66C127.07 232.399 85.3351 246.207 85.3351 246.207Z" fill="#FFD3C0"/>
<path d="M45.2897 142.909C42.0672 147.747 54.4855 171.821 66.3536 196.171C77.1606 171.979 70.8336 142.594 67.1788 129.967C58.8083 133.193 48.5515 137.952 45.2897 142.909Z" fill="#FFD3C0"/>
<path d="M171.477 240.7C171.556 238.812 171.752 236.924 172.027 235.035C172.184 233.895 172.381 232.675 172.577 231.377C137.327 221.74 95.3561 232.754 83.5273 236.255C84.667 240.149 85.3351 243.532 85.3351 246.207C85.3351 246.207 127.07 232.4 171.477 240.7Z" fill="#FEF9EF"/>
<path d="M66.3544 197.469C66.1972 197.469 66.0793 197.39 66.0007 197.233L57.2371 178.351C57.1586 178.154 57.2371 177.918 57.4336 177.839C57.6301 177.761 57.8659 177.839 57.9445 178.036L66.708 196.918C66.7866 197.115 66.708 197.351 66.5115 197.429C66.4723 197.469 66.3937 197.469 66.3544 197.469Z" fill="#472938"/>
<path d="M133.553 280.823C134.161 280.823 134.654 280.33 134.654 279.722C134.654 279.114 134.161 278.62 133.553 278.62C132.946 278.62 132.453 279.114 132.453 279.722C132.453 280.33 132.946 280.823 133.553 280.823Z" fill="#86543D"/>
<path d="M181.224 162.656C181.224 162.38 181.224 162.105 181.224 161.869C181.224 161.751 181.224 161.594 181.224 161.476C181.224 161.161 181.224 160.885 181.184 160.571C181.184 160.492 181.184 160.413 181.184 160.295C181.184 159.902 181.145 159.548 181.145 159.194V158.958C181.145 158.683 181.106 158.368 181.106 158.093C181.106 157.975 181.106 157.857 181.066 157.739C181.066 157.503 181.027 157.266 181.027 157.07L180.988 156.676C180.988 156.48 180.949 156.244 180.909 156.047C180.909 155.929 180.87 155.811 180.87 155.654C180.831 155.418 180.831 155.221 180.791 154.985C180.791 154.867 180.752 154.788 180.752 154.67C180.713 154.356 180.674 154.041 180.595 153.726C177.53 135.081 160.553 117.615 160.553 117.615C160.553 117.615 167.155 143.853 169.277 146.921C177.019 158.171 181.342 164.937 180.791 173.906C180.831 173.434 180.87 173.001 180.909 172.529C180.909 172.411 180.909 172.293 180.909 172.175C180.949 171.821 180.949 171.467 180.988 171.152C180.988 171.034 180.988 170.877 181.027 170.759C181.027 170.444 181.066 170.13 181.066 169.776L181.106 169.382C181.106 169.028 181.145 168.713 181.145 168.399C181.145 168.281 181.145 168.202 181.145 168.084C181.184 167.219 181.224 166.353 181.224 165.488C181.224 165.37 181.224 165.291 181.224 165.173C181.224 164.858 181.224 164.544 181.224 164.229V163.836C181.224 163.56 181.224 163.285 181.224 163.01V162.656Z" fill="#FFD3C0"/>
<path d="M169.276 146.96C167.154 143.892 160.591 117.654 160.591 117.654H155.6L79.1255 125.836C79.1255 125.836 73.7416 127.41 67.1788 129.927C70.7942 142.555 77.1606 171.978 66.3535 196.131C73.4665 210.765 80.3437 225.477 83.4876 236.255C95.3164 232.714 137.287 221.739 172.538 231.377C174.856 216.508 179.336 192.827 180.79 173.945C181.34 164.976 177.018 158.211 169.276 146.96Z" fill="#FF8A00"/>
<path d="M91.9368 215.485C90.0505 215.485 88.0856 215.249 86.0028 214.738C85.8063 214.698 85.6491 214.462 85.7277 214.266C85.767 214.069 86.0028 213.912 86.1993 213.99C93.666 215.879 99.7179 213.715 106.084 211.473C112.136 209.309 118.385 207.106 126.401 208.011C142.592 209.821 168.961 205.454 169.237 205.415C169.472 205.376 169.669 205.533 169.708 205.73C169.747 205.926 169.59 206.162 169.394 206.202C169.119 206.241 142.632 210.647 126.362 208.837C118.542 207.972 112.372 210.135 106.399 212.26C101.604 213.872 97.0456 215.485 91.9368 215.485Z" fill="#472938"/>
<path d="M152.379 12.7822C152.379 12.7822 172.892 14.8278 166.722 42.1275C160.553 69.4272 166.644 68.2078 171.988 82.6444C177.333 97.081 149.392 87.5222 149.392 87.5222C149.392 87.5222 163.618 108.843 88.0079 99.6379C25.6415 92.0459 67.2584 59.5144 67.2584 59.5144C67.2584 59.5144 48.5131 61.9926 70.9524 42.1668C86.7504 28.2023 95.1602 -23.1323 152.379 12.7822Z" fill="#3B2645"/>
<path d="M138.782 88.3083C138.782 88.3083 132.455 110.534 141.14 114.664C147.82 117.85 155.601 117.654 155.601 117.654C155.601 117.654 152.929 176.58 119.919 177.209C86.908 177.839 79.127 125.836 79.127 125.836C79.127 125.836 92.567 121.115 96.5754 111.871C100.584 102.627 100.78 89.6851 100.78 89.6851L138.782 88.3083Z" fill="#FFD3C0"/>
<path d="M154.64 71.506C158.004 65.6737 157.927 59.3253 154.469 57.3266C151.01 55.3279 145.48 58.4357 142.116 64.268C138.752 70.1003 138.828 76.4486 142.286 78.4474C145.745 80.4461 151.275 77.3383 154.64 71.506Z" fill="#86543D"/>
<path d="M146.406 71.9444C146.288 71.9444 146.209 71.905 146.131 71.8264C145.973 71.669 145.973 71.433 146.131 71.2756L152.065 65.6898C152.222 65.5324 152.458 65.5324 152.615 65.6898C152.772 65.8471 152.772 66.0832 152.615 66.2405L146.681 71.8264C146.602 71.9444 146.524 71.9444 146.406 71.9444Z" fill="#472938"/>
<path d="M92.8073 74.0151C96.6934 73.0949 98.5881 67.0361 97.0392 60.4825C95.4904 53.9289 91.0846 49.3621 87.1985 50.2823C83.3124 51.2025 81.4177 57.2613 82.9665 63.8149C84.5153 70.3685 88.9212 74.9353 92.8073 74.0151Z" fill="#FFD3C0"/>
<path d="M136.816 107.269C135.637 99.3232 138.781 88.2695 138.781 88.2695L100.74 89.6857C100.74 89.6857 100.701 92.5573 100.229 96.5696C100.229 96.6089 119.211 119.621 136.816 107.269Z" fill="#86543D"/>
<path d="M91.7803 65.9654C91.6624 65.9654 91.5445 65.8868 91.4659 65.7688L87.6933 59.9862C87.5754 59.7896 87.6147 59.5535 87.8112 59.4355C88.0077 59.3175 88.2435 59.3568 88.3613 59.5535L92.134 65.336C92.2519 65.5327 92.2126 65.7687 92.0161 65.8868C91.9375 65.9654 91.8589 65.9654 91.7803 65.9654Z" fill="#472938"/>
<path d="M94.2957 24.465C94.2957 24.465 80.7771 97.5135 112.53 105.105C144.283 112.697 155.601 44.5661 154.776 30.4049C153.951 16.2437 99.0115 11.9559 94.2957 24.465Z" fill="#FFD3C0"/>
<path d="M136.541 57.862C137.563 58.0587 138.231 59.0421 138.074 60.0648L137.877 61.2056C137.681 62.2284 136.698 62.8971 135.677 62.7397C134.655 62.5431 133.987 61.5596 134.144 60.5369L134.34 59.3961C134.537 58.3733 135.519 57.6653 136.541 57.862Z" fill="#472938"/>
<path d="M106.95 54.5579C108.011 54.5579 108.836 55.3839 108.836 56.446V57.5868C108.836 58.6095 108.011 59.475 106.95 59.475C105.928 59.475 105.063 58.6489 105.063 57.5868V56.446C105.063 55.3839 105.889 54.5579 106.95 54.5579Z" fill="#472938"/>
<path d="M143.458 55.895C143.458 55.895 142.044 53.7708 137.957 53.0628C133.869 52.3547 132.573 52.5907 132.533 51.2926C132.494 49.9945 141.651 47.9883 143.458 55.895Z" fill="#472938"/>
<path d="M101.016 50.5062C101.016 50.5062 103.059 48.972 107.146 49.6408C111.233 50.3488 112.373 50.9782 112.844 49.7588C113.316 48.5393 105.338 43.6222 101.016 50.5062Z" fill="#472938"/>
<path d="M108.797 78.3567L125.774 80.2842C125.774 80.2842 123.141 91.7705 115.635 90.4331C108.168 89.135 108.797 78.3567 108.797 78.3567Z" fill="white"/>
<path d="M120.037 75.5244C118.858 75.5244 117.561 75.2097 116.382 74.659C116.185 74.5803 116.107 74.3443 116.185 74.1476C116.264 73.951 116.5 73.8723 116.696 73.951C118.425 74.777 120.351 74.9737 121.648 74.4623C122.198 74.2656 122.552 73.9509 122.709 73.5969C123.22 72.3775 123.023 68.6012 122.788 64.2348L122.709 62.7006C122.277 54.6366 127.11 53.1025 127.307 53.0238C127.503 52.9451 127.739 53.0631 127.778 53.2991C127.857 53.4958 127.739 53.7318 127.503 53.7712C127.307 53.8105 123.063 55.2266 123.456 62.6613L123.534 64.1954C123.77 68.8372 124.006 72.5348 123.377 73.9116C123.141 74.4623 122.63 74.9344 121.884 75.2097C121.412 75.4457 120.744 75.5244 120.037 75.5244Z" fill="#472938"/>
<path d="M149.392 65.1001C149.392 65.1001 151.947 45.3924 143.458 34.6141C143.458 34.6141 136.267 48.2246 124.477 43.5042C124.477 43.5042 108.286 57.5474 91.781 53.4564C75.2757 49.3654 81.1312 10.7367 105.064 9.08451C128.997 7.43236 177.687 17.0699 149.392 65.1001Z" fill="#3B2645"/>
</svg>
