<svg width="114" height="177" viewBox="0 0 114 177" fill="none" xmlns="http://www.w3.org/2000/svg">
<path d="M87.3457 19.2515C87.3457 19.2515 81.7473 19.2178 80.6881 27.0719C79.629 34.926 81.1421 38.4074 77.3257 41.9561C73.5094 45.5047 79.7635 47.4893 84.8912 44.1256C90.0357 40.762 87.3457 19.2515 87.3457 19.2515Z" fill="#3B2645"/>
<path d="M87.3451 19.2515C87.3451 19.2515 82.2006 22.0433 82.0998 29.8974C82.0157 36.8433 83.7978 42.2252 81.0742 45.6897C82.3015 45.4543 83.6297 44.9497 84.8906 44.1256C90.0351 40.762 87.3451 19.2515 87.3451 19.2515Z" fill="#3B2645"/>
<path d="M94.0036 37.23L92.2048 44.6805L80.6885 43.7891C80.6885 43.7891 83.6138 39.2146 85.1605 31.2932L94.0036 37.23Z" fill="#FFD3C0"/>
<path d="M87.1777 34.6743L92.9611 41.5866L94.0034 37.2307L87.1777 34.6743Z" fill="#DF845C"/>
<path d="M100.14 21.5229C100.14 21.5229 102.359 24.6343 101.384 27.8465C100.409 31.0588 100.459 31.6138 100.291 32.8079C100.123 33.9852 97.2646 39.3838 95.9029 39.5857C94.5411 39.7875 86.2695 36.5416 84.6388 31.967C83.008 27.3924 93.7677 14.6779 100.14 21.5229Z" fill="#FFD3C0"/>
<path d="M84.6888 33.4801L86.9416 29.8978L87.9672 30.3015C87.9672 30.3015 88.8246 30.066 89.1776 26.8201C89.1776 26.8201 91.7499 25.7269 92.2374 23.2378C92.2374 23.2378 100.845 17.5196 101.635 26.3324C101.635 26.3324 102.93 22.296 99.0463 19.5546C95.1627 16.8132 90.2704 16.0228 87.177 18.3269C84.0836 20.631 79.1576 28.6365 84.6888 33.4801Z" fill="#3B2645"/>
<path d="M87.1068 32.2088C88.0616 31.7518 88.2509 30.1586 87.5296 28.6504C86.8083 27.1421 85.4494 26.29 84.4946 26.747C83.5397 27.204 83.3504 28.7971 84.0717 30.3054C84.7931 31.8136 86.1519 32.6658 87.1068 32.2088Z" fill="#FFD3C0"/>
<path d="M86.7564 30.8047C86.706 30.8047 86.6555 30.7879 86.6219 30.7375L85.5459 29.2575C85.4955 29.1902 85.5123 29.0725 85.5796 29.022C85.6468 28.9716 85.7645 28.9884 85.8149 29.0556L86.8909 30.5357C86.9413 30.6029 86.9245 30.7207 86.8573 30.7711C86.8236 30.7879 86.79 30.8047 86.7564 30.8047Z" fill="#472938"/>
<path d="M93.9355 34.186C93.9355 34.186 95.2973 35.1279 97.4661 35.212C97.4661 35.212 95.1124 35.6997 93.9355 34.186Z" fill="#472938"/>
<path d="M97.4835 33.4126C97.1136 33.4126 96.7605 33.3621 96.4747 33.2107C96.3907 33.1603 96.3571 33.0594 96.4075 32.9921C96.4579 32.908 96.5588 32.8744 96.626 32.9248C97.3322 33.278 98.6939 32.9753 98.8621 32.7735C98.8789 32.6053 98.6267 31.8485 98.4586 31.3607C98.3073 30.9235 98.1728 30.5198 98.1223 30.2339C97.9374 29.4435 98.7444 28.468 98.778 28.4176C98.8452 28.3503 98.9461 28.3335 99.0134 28.4007C99.0806 28.468 99.0974 28.5689 99.0302 28.6362C98.8284 28.8885 98.3241 29.6453 98.4418 30.1667C98.509 30.4357 98.6435 30.8562 98.778 31.2598C99.1142 32.2521 99.2487 32.7062 99.1647 32.908C99.1142 33.0258 98.9966 33.1098 98.7612 33.2107C98.4922 33.3117 97.9878 33.4126 97.4835 33.4126Z" fill="#472938"/>
<path d="M101.181 28.5859C101.181 28.5859 101.668 28.1655 101.214 27.8964C100.76 27.6273 99.9701 27.6946 99.8692 27.9468C99.7683 28.1991 99.7347 28.3505 100.071 28.3673C100.424 28.3841 101.13 28.1991 101.181 28.5859Z" fill="#472938"/>
<path d="M92.2383 27.1899C92.2383 27.1899 93.5664 26.5003 94.5247 26.7862C95.483 27.0721 95.7016 27.4758 96.1723 27.3581C96.6431 27.2235 96.2228 26.4667 95.1804 26.1808C94.1381 25.8949 92.6922 26.3321 92.2383 27.1899Z" fill="#472938"/>
<path d="M94.0201 29.5608C93.8183 29.5271 93.6838 29.3421 93.7006 29.1403L93.7511 28.8544C93.7847 28.6526 93.9696 28.518 94.1714 28.5349C94.3731 28.5685 94.5076 28.7535 94.4908 28.9553L94.4404 29.2412C94.4067 29.443 94.2218 29.5944 94.0201 29.5608Z" fill="#472938"/>
<path d="M99.5167 30.2334C99.3486 30.2166 99.2477 30.0652 99.2645 29.897L99.2981 29.6616C99.3149 29.4934 99.4663 29.3925 99.6344 29.4093C99.8025 29.4261 99.9034 29.5775 99.8866 29.7457L99.8529 29.9811C99.8361 30.1493 99.6848 30.2502 99.5167 30.2334Z" fill="#472938"/>
<path d="M108.326 167.235C109.049 167.84 109.973 168.631 110.713 167.37C110.629 166.562 110.73 164.04 110.73 164.04L104.375 164.393L104.728 167.033C104.728 167.016 107.603 166.63 108.326 167.235Z" fill="#FFD3C0"/>
<path d="M110.226 174.316C111.252 173.946 113.471 171.709 113.925 171.238C113.774 170.498 113.421 169.758 112.95 169.674C112.261 169.573 110.798 168.161 110.714 167.353C109.957 168.632 109.05 167.841 108.327 167.219C107.604 166.613 104.729 167 104.729 167C104.729 167 103.787 171.827 103.687 174.333C105.116 174.434 109.285 174.669 110.226 174.316Z" fill="#3B2645"/>
<path d="M103.873 175.779C104.596 176.401 109.774 176.216 110.312 176.065C110.85 175.913 113.472 173.323 113.859 172.701C114.027 172.432 114.044 171.826 113.909 171.238C113.456 171.709 111.236 173.946 110.211 174.316C109.269 174.652 105.083 174.433 103.671 174.349C103.671 175.106 103.705 175.644 103.873 175.779Z" fill="#E5E5E5"/>
<path d="M68.4149 167.168C70.0457 167.386 70.4492 168.345 70.9536 168.295C71.4579 168.244 72.618 167.235 72.618 167.235C72.618 166.495 73.3577 164.04 73.3577 164.04L66.6497 164.258L65.9268 167.588C65.9436 167.588 66.801 166.949 68.4149 167.168Z" fill="#FFD3C0"/>
<path d="M72.9883 172.213C73.6439 171.961 74.2324 171.406 74.6022 171.036C74.5854 170.43 74.4173 169.741 73.9465 169.471C73.1396 169.017 72.6352 167.235 72.6352 167.235C72.6352 167.235 71.4752 168.227 70.9708 168.294C70.4664 168.361 70.0461 167.403 68.4322 167.167C66.8014 166.949 65.9608 167.588 65.9608 167.588C65.3556 169.337 65.1034 172.045 65.0361 173.609C65.8599 173.777 67.2049 173.979 69.071 173.979C72.4503 173.962 71.9459 172.6 72.9883 172.213Z" fill="#3B2645"/>
<path d="M65.0191 174.77C65.1031 175.039 65.3553 175.779 69.1212 175.779C72.8871 175.779 72.7694 173.912 73.0216 173.307C73.2906 172.684 74.2993 172.297 74.4674 171.995C74.5347 171.86 74.6019 171.473 74.5851 171.036C74.2321 171.406 73.6268 171.961 72.9712 172.213C71.9288 172.6 72.45 173.979 69.0371 173.979C67.171 173.979 65.826 173.777 65.0023 173.609C64.9854 174.248 64.9854 174.703 65.0191 174.77Z" fill="#E5E5E5"/>
<path d="M103.99 76.8879C103.99 76.8879 108.58 87.3824 109.807 95.6738C111.034 103.965 108.411 126.434 108.798 128.352C109.185 130.269 111.337 136.155 111.656 144.06C111.959 151.964 110.731 164.023 110.731 164.023C110.731 164.023 106.999 165.688 104.377 164.376C104.377 164.376 102.342 151.527 101.216 146.128C100.089 140.73 100.089 134.406 98.8453 131.446C97.6012 128.486 94.3733 107.682 93.4487 104.335C93.4487 104.335 90.0358 121.052 86.8751 128.553C83.7145 136.054 82.8402 136.845 81.8819 141.167C80.9236 145.489 74.1652 161.13 73.375 164.04C73.375 164.04 69.7268 165.89 66.667 164.258C66.667 164.258 68.4659 145.153 71.6938 137.585C74.9217 130.017 75.3084 129.815 76.0313 124.298C76.7542 118.782 73.7785 94.6815 81.8483 79.276C81.8315 79.2592 93.146 76.8038 103.99 76.8879Z" fill="#FF8A00"/>
<path d="M93.4473 77.4607C94.187 80.6898 103.955 95.3889 103.955 95.3889L98.2555 77.0234L93.4473 77.4607Z" fill="#543753"/>
<path d="M89.1781 100.148C89.1781 100.148 90.6576 103.646 98.0213 103.158C98.0213 103.158 93.9864 104.05 94.3563 108.809L93.4484 104.353L92.4229 109.062C92.4229 109.062 92.6919 104.386 87.4297 102.772L90.8762 102.872C90.893 102.856 89.195 101.645 89.1781 100.148Z" fill="#543753"/>
<path d="M78.284 44.311C78.284 44.311 75.7958 46.3797 68.4826 57.6142C61.1693 68.8488 63.0523 69.4543 64.2459 71.1025C65.4228 72.7506 74.2828 82.0343 74.9384 82.8752C75.5941 83.7329 78.015 86.2893 79.3096 85.2634C80.6041 84.2375 80.1838 81.2943 81.6296 80.1843C83.0755 79.0575 84.286 77.9307 84.4036 77.3252C84.5213 76.7197 84.2187 76.2152 84.0842 76.2152C83.9497 76.2152 82.4871 77.4766 81.596 77.9138C80.705 78.3511 78.6203 79.8647 78.5867 79.8647C78.553 79.8647 70.6345 67.9238 70.6345 67.9238L79.4441 57.4124L78.284 44.311Z" fill="#FFD3C0"/>
<path d="M78.4522 48.1118C78.4522 48.1118 75.1907 52.0977 76.0649 61.5832L79.4778 57.53L78.4522 48.1118Z" fill="#DF845C"/>
<path d="M69.4749 76.9379L72.7868 71.1356L70.7526 68.041L68.9873 76.4165L69.4749 76.9379Z" fill="#DF845C"/>
<path d="M90.2546 42.3263C92.4066 42.8477 98.0722 46.0095 101.636 52.6359C105.201 59.2622 103.94 60.4395 102.578 62.34L102.057 70.85L104.343 77.9641L81.8486 79.2759C81.8486 79.2759 83.597 71.9432 82.6892 69.6223C81.7813 67.3014 71.9294 54.1831 77.3934 45.4881C80.1674 41.0313 90.2546 42.3263 90.2546 42.3263Z" fill="#FFD3C0"/>
<path d="M102.056 70.8329L102.578 62.3229C103.939 60.4393 105.217 59.2452 101.636 52.6188C100.762 51.0042 99.7699 49.5915 98.7276 48.3638C98.5427 50.9538 98.0047 54.0483 96.7438 57.2606C93.9025 64.5429 82.5039 64.1056 79.4609 63.8534C80.9236 66.6452 82.3358 68.7811 82.6552 69.5884C82.8234 70.0088 82.9074 70.5975 82.9242 71.2702C91.5488 72.0943 102.056 70.8329 102.056 70.8329Z" fill="#FF8A00"/>
<path d="M90.4391 42.3775C90.3718 42.3607 90.3046 42.3439 90.2541 42.3271C90.2541 42.3271 90.1028 42.3102 89.8507 42.2766C86.1688 43.2857 83.2939 45.573 81.3774 49.0375C80.7385 46.7839 80.3855 44.6816 80.604 43.0839C80.5704 43.1007 80.5368 43.1175 80.5031 43.1175C80.4191 43.1512 80.335 43.1848 80.2509 43.2184C79.9483 43.3362 79.6625 43.4707 79.3935 43.6221C77.5106 45.6571 76.8549 49.458 77.4433 54.9744C77.7123 57.4466 78.1831 59.818 78.6034 61.6344C78.6034 61.8026 78.6034 61.9707 78.6034 62.1389C78.6874 62.3071 78.7547 62.4585 78.8387 62.6266C78.8724 62.7107 78.9228 62.7948 78.9564 62.8789C79.1582 63.2826 79.3599 63.6694 79.5617 64.0562C79.4103 63.5012 79.175 62.6435 78.9396 61.6007C78.9396 59.633 79.1077 56.8244 79.8475 53.9485C80.2173 52.4685 80.7049 51.1398 81.2933 49.9289C83.2771 56.3703 87.3457 63.6021 87.5978 64.0394L88.0854 64.8971L87.9173 63.9217C87.9005 63.8207 86.1352 53.8812 87.3625 48.0284C88.1358 44.3453 89.3127 43.0334 90.0524 42.5625C90.2541 42.5121 90.4391 42.4616 90.6408 42.428C90.5736 42.4112 90.5063 42.3943 90.4391 42.3775ZM79.5112 53.8812C78.9228 56.1516 78.7042 58.3885 78.637 60.2048C77.5106 54.8398 76.4682 46.2962 80.2509 43.3193C80.0828 45.018 80.4863 47.1875 81.1588 49.4916C80.4695 50.8034 79.9315 52.2666 79.5112 53.8812ZM87.0094 47.978C86.0007 52.8048 86.9926 60.3562 87.4129 63.0303C86.2361 60.8271 83.109 54.8062 81.5119 49.4916C83.2603 46.1448 85.8326 43.9248 89.2118 42.8148C88.4721 43.5884 87.6146 45.0853 87.0094 47.978Z" fill="#FF8A00"/>
<path d="M91.179 70.3117H82.8234C82.7225 70.3117 82.6553 70.2444 82.6553 70.1435C82.6553 70.0426 82.7225 69.9753 82.8234 69.9753H91.179C91.2799 69.9753 91.3471 70.0426 91.3471 70.1435C91.3471 70.2444 91.2631 70.3117 91.179 70.3117Z" fill="#472938"/>
<path d="M93.7519 78.5695L98.5602 78.2836L96.0888 71.3376C94.912 71.4049 93.6342 71.4722 92.2725 71.5058C92.7264 74.2136 93.2139 76.7195 93.7519 78.5695Z" fill="#DF845C"/>
<path d="M90.3057 55.0574C90.3057 55.0574 90.5915 58.3201 91.0622 62.5415C91.617 62.3228 92.1718 62.0706 92.693 61.7678L90.3057 55.0574Z" fill="#DF845C"/>
<path d="M91.0791 62.5422C91.3985 65.334 91.802 68.5295 92.2896 71.5232C93.6345 71.4895 94.9291 71.4222 96.1059 71.355L92.7099 61.7854C92.1719 62.0713 91.6339 62.3236 91.0791 62.5422Z" fill="#543753"/>
<path d="M82.958 79.192L83.4287 79.1584C83.4287 79.1584 84.1853 78.5025 84.3366 77.6448C84.1348 78.0484 83.6137 78.6034 82.958 79.192Z" fill="#DF845C"/>
<path d="M90.6246 42.428C90.6246 42.428 97.7025 43.8575 98.7112 47.2716C99.7367 50.6857 100.493 70.834 100.493 70.834C100.493 70.834 107.571 90.9317 108.328 93.9926C109.084 97.0536 110.665 101.981 110.765 102.974C110.866 103.966 109.891 106.253 109.555 106.623C109.219 106.993 107.201 107.75 106.747 107.851C106.293 107.952 103.553 106.152 103.688 105.782C103.822 105.412 104.915 104.756 104.915 104.756L105.117 103.394C105.117 103.394 103.15 99.5595 103.284 97.6086C103.419 95.6745 103.116 94.4131 102.46 93.2358C101.805 92.0585 93.9198 74.433 93.1128 71.3553C92.3058 68.2776 89.9689 54.5371 90.0194 51.9471C90.0698 49.3571 90.6246 42.428 90.6246 42.428Z" fill="#FFD3C0"/>
<path d="M46.4423 18.2769L47.8545 26.0805C48.0394 27.1064 48.7456 27.9641 49.7207 28.351L52.8477 29.5787C52.8477 29.5787 49.5525 34.5064 42.9454 35.9023C36.3382 37.2814 32.7236 31.2942 32.7236 31.2942L35.5144 29.2087C36.1365 28.7378 36.4727 27.9978 36.4223 27.2241L35.9179 19.9755L46.4423 18.2769Z" fill="#FFD3C0"/>
<path d="M36.3054 25.4078C36.3054 25.4078 44.2239 30.0833 46.4431 18.2769L35.9355 19.9587L36.3054 25.4078Z" fill="#DF845C"/>
<path d="M48.7181 15.7986C49.0166 14.5329 48.6724 13.3686 47.9494 13.198C47.2265 13.0274 46.3984 13.9151 46.1 15.1807C45.8015 16.4464 46.1457 17.6107 46.8686 17.7813C47.5916 17.9519 48.4196 17.0642 48.7181 15.7986Z" fill="#FFD3C0"/>
<path d="M34.8436 19.2362C35.4869 18.8646 35.4815 17.6505 34.8315 16.5244C34.1816 15.3983 33.1332 14.7865 32.4899 15.1581C31.8467 15.5296 31.8521 16.7437 32.502 17.8699C33.152 18.996 34.2004 19.6077 34.8436 19.2362Z" fill="#DF845C"/>
<path d="M46.9807 16.1903C46.947 16.1903 46.9302 16.1903 46.8966 16.1735C46.8125 16.123 46.7789 16.0221 46.8294 15.9548L47.4178 14.8112C47.4682 14.7271 47.5691 14.6935 47.6363 14.7439C47.7204 14.7944 47.754 14.8953 47.7036 14.9626L47.1152 16.1062C47.0984 16.1567 47.0479 16.1903 46.9807 16.1903Z" fill="#472938"/>
<path d="M34.3215 17.7728C34.2879 17.7728 34.2374 17.7559 34.2038 17.7223L33.0606 16.6628C32.9933 16.5955 32.9933 16.4946 33.0438 16.4273C33.111 16.36 33.2119 16.36 33.2791 16.4105L34.4224 17.47C34.4896 17.5373 34.4896 17.6382 34.4392 17.7055C34.4055 17.7559 34.3551 17.7728 34.3215 17.7728Z" fill="#472938"/>
<path d="M31.8324 10.4725C31.8324 10.4725 34.5896 20.7316 35.6319 22.2116C36.6575 23.6748 39.835 25.037 40.373 25.1211C40.9109 25.2052 43.0461 24.9866 43.5336 24.5661C44.0212 24.1457 46.6439 21.3707 47.0474 19.5711C47.434 17.7716 47.5349 8.26928 45.8705 6.537C44.1893 4.80472 30.9918 6.21745 31.8324 10.4725Z" fill="#FFD3C0"/>
<path d="M40.475 17.7716C40.0547 17.7716 39.315 17.553 39.2141 17.5025C39.0796 17.4353 39.0628 17.4353 39.1133 14.4753C39.1133 14.2734 39.1133 14.1221 39.1133 14.0716C39.0964 13.9371 38.6929 13.2475 38.3399 12.6757C38.2895 12.5916 38.3063 12.4907 38.3903 12.4402C38.4744 12.3898 38.5753 12.4066 38.6257 12.4907C38.9283 12.9784 39.4663 13.8193 39.4663 14.0548C39.4663 14.1052 39.4663 14.2566 39.4663 14.4584C39.4495 15.0639 39.4327 16.7962 39.4495 17.1998C39.6512 17.2671 40.2228 17.4184 40.5087 17.4016C40.744 17.3848 41.1139 17.0989 41.282 16.9307C41.3493 16.8634 41.4501 16.8634 41.5174 16.9307C41.5846 16.998 41.5846 17.0989 41.5174 17.1662C41.4669 17.2166 40.9458 17.7212 40.5255 17.738C40.5087 17.7716 40.4918 17.7716 40.475 17.7716Z" fill="#472938"/>
<path d="M38.3887 19.5544L43.0624 18.9153C43.0624 18.9153 42.7094 21.068 41.045 21.438C39.3806 21.808 38.3887 19.5544 38.3887 19.5544Z" fill="white"/>
<path d="M43.0298 13.5665C42.744 13.6002 42.4918 13.3984 42.4582 13.1124L42.4246 12.7256C42.3909 12.4397 42.5927 12.1874 42.8785 12.1538C43.1643 12.1202 43.4165 12.322 43.4501 12.6079L43.4837 12.9947C43.5342 13.2806 43.3156 13.5329 43.0298 13.5665Z" fill="#472938"/>
<path d="M36.4903 14.7445C36.2045 14.795 35.9355 14.61 35.8851 14.324L35.8178 13.9372C35.7674 13.6513 35.9523 13.3822 36.2382 13.3318C36.524 13.2813 36.793 13.4663 36.8434 13.7522L36.9106 14.139C36.9611 14.425 36.7761 14.694 36.4903 14.7445Z" fill="#472938"/>
<path d="M41.281 11.1962C41.281 11.1962 43.702 10.3385 44.9965 11.0953C44.9965 11.0953 44.7779 10.0358 43.4498 10.0862C42.1216 10.1367 41.2642 10.3217 41.1297 10.6412C40.9952 10.9608 41.281 11.1962 41.281 11.1962Z" fill="#472938"/>
<path d="M37.6832 11.8521C37.6832 11.8521 35.1278 11.6166 34.0686 12.6762C34.0686 12.6762 34.0182 11.583 35.3127 11.3139C36.6072 11.0448 37.4815 11.0112 37.6832 11.2803C37.9018 11.5662 37.6832 11.8521 37.6832 11.8521Z" fill="#472938"/>
<path d="M33.4634 16.174L32.9758 11.9358C32.9758 11.9358 36.9939 12.3563 40.0201 9.29537C43.0463 6.23445 45.1478 7.94991 45.1478 7.94991L47.2493 13.6849L47.7536 13.1636C47.7536 13.1636 47.8713 7.81537 47.7536 7.63037C47.6359 7.44537 46.7449 6.89037 46.7449 6.89037C46.7449 6.89037 46.4591 1.67672 39.9865 0.650804C33.5138 -0.375107 31.799 6.40264 29.916 6.67173L30.6726 7.63037C30.6726 7.63037 30.4204 8.40401 30.4372 9.36264C30.454 10.3213 32.5051 15.1649 32.5051 15.1649L33.4634 16.174Z" fill="#3B2645"/>
<path d="M24.4854 34.0855C24.4854 34.0855 20.669 35.1787 20.8371 43.1337C20.8371 43.1337 17.0544 48.8183 16.6341 55.6129C16.6341 55.6129 7.38746 47.1196 7.06803 46.0769C6.73178 45.0174 6.91672 41.3005 6.69816 40.3924C6.4796 39.4842 5.67262 38.5255 5.7735 37.2474C5.87437 35.9692 6.09293 34.1696 5.97524 33.9846C5.85756 33.7996 4.09229 34.0014 3.78967 35.4646C3.48705 36.9278 3.40299 38.5928 3.40299 38.5928C3.40299 38.5928 0.561747 39.2992 0.208694 39.8205C-0.14436 40.3419 0.0573858 41.721 0.0573858 41.721C0.0573858 41.721 0.124634 46.3628 0.595372 46.8842C1.06611 47.4056 3.31893 48.5492 3.78967 48.8687C4.26041 49.1883 9.57303 61.4151 11.8763 64.1901C14.1795 66.9651 16.3147 67.7388 18.3153 67.0829C20.316 66.427 25.8471 58.9597 27.6292 55.4951C29.4113 52.0306 28.7556 34.4892 24.4854 34.0855Z" fill="#FFD3C0"/>
<path d="M28.4698 45.6398C26.4355 45.1352 25.1074 45.438 25.1074 45.438C25.1074 45.438 27.8141 55.2262 23.6279 61.5835C25.2755 59.3971 26.8222 57.0425 27.6124 55.5121C28.3689 54.0153 28.6884 49.878 28.4698 45.6398Z" fill="#DF845C"/>
<path d="M16.6172 55.6131L18.1975 56.7735L16.6844 54.8899L16.6172 55.6131Z" fill="#DF845C"/>
<path d="M1.38633 39.7358C1.38633 39.7358 4.2612 39.9545 4.41251 40.1227C4.56382 40.2908 4.79919 46.2277 4.2612 46.6313C3.7064 47.0518 0.949219 46.9845 0.949219 46.9845C0.949219 46.9845 4.24439 47.2872 4.59744 47.1359C4.95049 46.9845 5.58935 44.899 5.70704 43.8227C5.82472 42.7463 5.15224 39.904 4.90006 39.8367C4.64788 39.7695 1.38633 39.7358 1.38633 39.7358Z" fill="#DF845C"/>
<path d="M61.0177 158.876C61.1354 155.176 61.522 149.744 61.4548 144.716C61.3539 137.484 60.631 129.344 60.278 126.972C59.9081 124.601 60.7655 113.619 60.7655 113.619L45.5674 115.738C45.9372 116.915 48.6944 127.241 48.8121 131.749C48.9466 136.256 54.4778 157.245 54.6963 158.927C54.73 159.146 54.7468 159.381 54.7804 159.616C56.1758 159.785 58.8489 159.919 61.0177 158.876Z" fill="#FFD3C0"/>
<path d="M56.3107 164.241C56.3107 164.241 56.1426 162.442 58.1601 162.004C60.1775 161.567 61.1022 162.576 61.1022 162.576C60.9845 161.786 60.9845 160.491 61.0349 158.876C58.8662 159.919 56.193 159.784 54.8145 159.616C54.9489 160.928 54.9826 162.492 54.8481 163.77C55.0666 164.342 56.3107 164.241 56.3107 164.241Z" fill="white"/>
<path d="M54.193 171.91C56.345 173.037 55.7229 175.56 58.4129 176.182C60.6489 176.703 64.0449 176.401 65.3731 176.249C65.7261 176.216 66.0119 175.93 66.0792 175.577C66.1128 175.324 66.1464 174.988 66.1296 174.635C64.4484 174.786 60.4976 175.089 58.9172 174.702C56.8998 174.214 56.4122 172.146 55.4035 171.574C54.647 171.153 54.1594 170.598 53.9577 170.346C53.924 170.699 53.8736 171.002 53.8568 171.221C53.7895 171.523 53.9409 171.793 54.193 171.91Z" fill="#3B2645"/>
<path d="M65.3724 172.381C64.9689 171.81 64.3805 170.582 63.7753 169.186C63.4222 170.447 59.3873 169.859 58.8662 169.724C58.345 169.59 56.3275 164.241 56.3275 164.241C56.3275 164.241 55.0834 164.325 54.8481 163.754C54.8145 164.04 54.7808 164.325 54.7304 164.578C54.5286 165.654 54.1588 168.597 53.957 170.346C54.1588 170.599 54.6463 171.137 55.4029 171.574C56.4284 172.146 56.8991 174.215 58.9166 174.702C60.4969 175.089 64.4478 174.786 66.129 174.635C66.0785 173.962 65.9104 173.155 65.3724 172.381Z" fill="#FF8A00"/>
<path d="M58.8499 169.723C59.3711 169.858 63.406 170.446 63.759 169.185C62.4813 166.259 61.0859 162.575 61.0859 162.575C61.0859 162.575 60.1612 161.566 58.1438 162.004C56.1263 162.441 56.2944 164.241 56.2944 164.241C56.2944 164.241 58.3287 169.606 58.8499 169.723Z" fill="#3B2645"/>
<path d="M55.5276 127.499C57.124 127.251 58.3684 126.73 58.3071 126.335C58.2457 125.94 56.9019 125.822 55.3055 126.07C53.7092 126.318 52.4648 126.839 52.5261 127.234C52.5874 127.629 53.9312 127.747 55.5276 127.499Z" fill="#E0855C"/>
<path d="M17.9463 159.162C17.9631 155.446 18.1648 150.047 18.4002 145.018C18.8205 136.088 20.7707 128.234 20.7707 127.275C20.7707 123.474 21.2078 111.685 21.4432 111.97L35.5149 115.385C35.1114 116.545 31.2615 126.3 30.9757 130.807C30.6898 135.314 24.5366 157.766 24.2508 159.431C24.2172 159.65 24.1836 159.869 24.1499 160.121C22.7545 160.222 20.0814 160.272 17.9463 159.162Z" fill="#FFD3C0"/>
<path d="M22.4683 164.678C22.4683 164.678 22.7037 162.879 20.7031 162.374C18.7024 161.87 17.7441 162.845 17.7441 162.845C17.8954 162.055 17.9459 160.76 17.9459 159.145C20.081 160.255 22.7541 160.205 24.1495 160.087C23.9814 161.382 23.8806 162.946 23.9814 164.241C23.6956 164.813 22.4683 164.678 22.4683 164.678Z" fill="white"/>
<path d="M24.3181 172.414C22.1157 173.474 22.6705 176.014 19.9637 176.535C17.7109 176.972 14.3317 176.569 13.0035 176.367C12.6505 176.316 12.3647 176.03 12.331 175.66C12.2974 175.408 12.2806 175.072 12.3142 174.719C13.9954 174.92 17.9295 175.358 19.5266 175.038C21.5609 174.618 22.1157 172.566 23.1412 172.028C23.9146 171.624 24.4189 171.103 24.6375 170.85C24.6711 171.204 24.6879 171.506 24.7047 171.742C24.7384 172.028 24.5702 172.297 24.3181 172.414Z" fill="#3B2645"/>
<path d="M13.1382 172.516C13.5585 171.961 14.1974 170.75 14.8531 169.371C15.1725 170.649 19.2074 170.195 19.7454 170.077C20.2834 169.96 22.469 164.679 22.469 164.679C22.469 164.679 23.6962 164.813 23.9652 164.241C23.982 164.527 24.0157 164.813 24.0493 165.066C24.2174 166.159 24.4864 169.102 24.6377 170.851C24.4192 171.103 23.9148 171.625 23.1414 172.028C22.0991 172.566 21.5611 174.601 19.5268 175.039C17.9465 175.375 13.9957 174.938 12.3145 174.719C12.3649 174.063 12.5834 173.256 13.1382 172.516Z" fill="#FF8A00"/>
<path d="M19.7283 170.078C19.1903 170.195 15.1554 170.649 14.8359 169.371C16.2145 166.478 17.7276 162.846 17.7276 162.846C17.7276 162.846 18.6859 161.87 20.6865 162.375C22.6872 162.879 22.4518 164.679 22.4518 164.679C22.4518 164.679 20.2662 169.96 19.7283 170.078Z" fill="#3B2645"/>
<path d="M27.4832 128.712C27.5577 128.319 26.3315 127.757 24.7443 127.455C23.1572 127.153 21.8101 127.227 21.7356 127.619C21.661 128.011 22.8872 128.574 24.4744 128.876C26.0616 129.177 27.4087 129.104 27.4832 128.712Z" fill="#E0855C"/>
<path d="M58.9157 81.5638C58.9157 81.5638 61.7402 99.4584 60.7651 113.619C60.7651 113.619 55.3011 117.706 42.5408 115.267L40.5738 104.016L37.3458 115.335C37.3458 115.335 24.1147 116.125 20.5674 110.996C20.5674 110.996 22.4671 89.7711 26.4852 81.1938C30.5033 72.6165 57.6044 74.5338 58.9157 81.5638Z" fill="#3B2645"/>
<path d="M40.5755 104.016C40.5755 104.016 38.9952 102.62 38.8271 102.486C38.6589 102.351 37.1963 96.5659 37.1963 96.5659L38.8102 110.206L40.5755 104.016Z" fill="#3B2645"/>
<path d="M47.8044 113.923C44.9632 113.923 42.9121 113.704 42.8617 113.704C42.8112 113.704 42.7776 113.654 42.7944 113.603C42.7944 113.553 42.8448 113.519 42.8953 113.536C43.013 113.553 54.2939 114.747 60.8674 111.434C60.901 111.417 60.9515 111.434 60.9851 111.467C61.0019 111.501 60.9851 111.552 60.9515 111.585C57.1015 113.519 51.7048 113.923 47.8044 113.923Z" fill="white"/>
<path d="M37.8671 113.586C37.8503 113.586 37.8671 113.586 37.8671 113.586C25.6279 112.56 20.7692 109.146 20.7187 109.113C20.6851 109.079 20.6683 109.029 20.7019 108.995C20.7355 108.961 20.786 108.944 20.8196 108.978C20.87 109.012 25.6951 112.392 37.8839 113.418C37.9343 113.418 37.9679 113.468 37.9679 113.502C37.9343 113.553 37.9007 113.586 37.8671 113.586Z" fill="white"/>
<path d="M50.7122 28.7375C50.7122 28.7375 48.1231 33.9344 42.1885 34.3212C36.2538 34.708 33.9506 30.4026 33.9506 30.4026L24.4854 34.1026C24.4854 34.1026 26.2002 40.1908 25.1074 45.4549C25.1074 45.4549 27.6124 54.4022 27.6124 55.529C27.6124 56.6558 29.7139 61.4322 29.8484 62.559C29.9829 63.6858 26.486 81.2104 26.486 81.2104C26.486 81.2104 43.1972 86.1213 47.0808 85.9531C50.9644 85.785 58.9165 81.5636 58.9165 81.5636C58.9165 81.5636 58.1263 66.8813 58.9165 63.2654C59.7067 59.6494 62.6656 49.979 62.6656 49.979C62.6656 49.979 60.1606 37.3148 60.8667 32.2694L50.7122 28.7375Z" fill="#FF8A00"/>
<path d="M60.7498 49.7767C60.6657 49.7767 60.5985 49.7262 60.5817 49.6421C59.1022 43.5876 58.8164 31.7307 58.8164 31.613C58.8164 31.5121 58.8837 31.4448 58.9845 31.4448C59.0854 31.4448 59.1526 31.5121 59.1526 31.613C59.1526 31.7307 59.4385 43.5539 60.9179 49.5749C60.9347 49.659 60.8843 49.7599 60.8002 49.7767C60.7666 49.7767 60.7498 49.7767 60.7498 49.7767Z" fill="#472938"/>
<path d="M25.6627 47.6079C25.629 47.6079 25.5786 47.5911 25.545 47.5743C25.4777 47.507 25.4609 47.4061 25.5282 47.3388C28.4871 43.992 25.7635 33.6824 25.7299 33.5815C25.7131 33.4974 25.7635 33.3965 25.8476 33.3797C25.9317 33.3629 26.0325 33.4133 26.0493 33.4974C26.167 33.9347 28.8401 44.0761 25.7635 47.5575C25.7467 47.5911 25.6963 47.6079 25.6627 47.6079Z" fill="#472938"/>
<path d="M41.2795 36.1533C35.3952 36.1533 32.3522 31.1078 32.3186 31.0405C32.2682 30.9564 32.3018 30.8555 32.3859 30.8051C32.4699 30.7546 32.5708 30.7882 32.6212 30.8723C32.6549 30.9228 35.8323 36.2037 41.9688 35.7833C46.9451 35.4469 49.6351 32.2514 50.5261 31.1919C50.8287 30.8219 50.9128 30.7378 51.0473 30.7714C51.1145 30.7882 51.165 30.8387 51.1818 30.906C51.2154 30.9901 51.165 31.091 51.0641 31.1078C51.0473 31.1078 51.0473 31.1078 51.0305 31.1078C50.98 31.1582 50.8792 31.2928 50.7783 31.4105C49.8704 32.4869 47.1133 35.7664 41.9856 36.1196C41.7502 36.1533 41.5148 36.1533 41.2795 36.1533Z" fill="#472938"/>
<path d="M60.867 32.2688C60.867 32.2688 66.9866 31.9324 68.2811 41.5861C68.2811 41.5861 74.5688 53.527 75.2917 57.3447C76.0147 61.1625 74.7201 66.5443 73.1398 69.3025C71.5595 72.0607 66.2973 80.9743 65.339 82.3366C64.3807 83.6989 64.532 84.052 62.027 84.237C62.027 84.237 60.1777 84.5734 59.8078 84.7416C59.4379 84.9098 57.2019 86.1039 56.748 85.9357C56.2941 85.7843 55.857 85.1789 55.941 85.0611C56.0419 84.9266 58.3788 83.6652 58.3788 83.6652C58.3788 83.6652 54.6129 84.3043 54.2598 84.2875C53.9068 84.2707 53.3856 83.4802 53.3856 83.4802C53.3856 83.4802 52.1583 82.9252 52.007 82.488C51.8557 82.0507 53.2006 81.1761 53.2006 81.1761C53.2006 81.1761 52.3937 80.9743 52.1079 80.5539C51.8221 80.1334 56.8152 77.4593 57.4205 77.4929C58.0257 77.5266 62.1279 78.0479 62.1279 78.0479C62.1279 78.0479 67.575 60.5234 67.6254 59.4302C67.6759 58.337 63.3047 53.7793 62.6322 49.9783C62.6659 49.9783 59.8582 36.7592 60.867 32.2688Z" fill="#FFD3C0"/>
<path d="M53.1495 83.5317C53.0823 83.5317 53.0319 83.4981 52.9982 83.4308C52.9646 83.3467 52.9982 83.2458 53.0823 83.2122L56.8818 81.4799C56.9659 81.4463 57.0668 81.4799 57.1004 81.564C57.134 81.6481 57.1004 81.749 57.0163 81.7827L53.2168 83.5149C53.2 83.5317 53.1832 83.5317 53.1495 83.5317Z" fill="#472938"/>
<path d="M53.2346 81.3622C53.1673 81.3622 53.1169 81.3286 53.0833 81.2782C53.0328 81.1941 53.0665 81.0931 53.1505 81.0427L56.866 79.0581C56.95 79.0077 57.0509 79.0413 57.1013 79.1254C57.1518 79.2095 57.1182 79.3104 57.0341 79.3609L53.3186 81.3454C53.285 81.3454 53.2514 81.3622 53.2346 81.3622Z" fill="#472938"/>
</svg>
