<svg width="175" height="175" viewBox="0 0 175 175" fill="none" xmlns="http://www.w3.org/2000/svg">
<path d="M43.8322 136.235C67.9493 147.73 107.051 147.73 131.168 136.236C155.285 124.74 155.285 106.104 131.168 94.6094C107.051 83.1147 67.949 83.1146 43.8319 94.609C19.7148 106.104 19.7148 124.74 43.8322 136.235Z" fill="#F5F5F5"/>
<path d="M125.399 126.618C128.54 128.115 133.631 128.115 136.772 126.618C139.913 125.122 139.913 122.695 136.772 121.198C133.631 119.701 128.54 119.701 125.399 121.198C122.258 122.695 122.258 125.121 125.399 126.618Z" fill="#EBEBEB"/>
<path d="M41.9839 124.458L44.8273 122.816C44.8273 122.816 47.173 121.092 48.3347 117.891C49.2135 115.469 49.0924 113.626 48.4621 112.703C47.6868 111.567 45.681 111.765 45.6012 114.161C45.4444 118.879 44.0678 122.143 41.9839 124.458Z" fill="#945DDC"/>
<path opacity="0.2" d="M41.9839 124.458L44.8273 122.816C44.8273 122.816 47.173 121.092 48.3347 117.891C49.2135 115.469 49.0924 113.626 48.4621 112.703C47.6868 111.567 45.681 111.765 45.6012 114.161C45.4444 118.879 44.0678 122.143 41.9839 124.458Z" fill="black"/>
<path d="M41.9843 124.633C41.9286 124.633 41.8744 124.607 41.8401 124.557C41.7851 124.478 41.8047 124.369 41.8842 124.314C48.4631 119.762 47.1888 113.419 47.1751 113.356C47.1548 113.261 47.215 113.168 47.3092 113.148C47.4044 113.127 47.4968 113.187 47.5171 113.282C47.5314 113.348 48.8607 119.912 42.0833 124.602C42.0532 124.623 42.0186 124.633 41.9843 124.633Z" fill="white"/>
<path d="M36.2971 127.741C36.2971 127.741 35.3073 126.935 35.5467 125.844C35.7864 124.752 36.4248 123.968 35.3272 122.56C34.2296 121.152 33.9461 119.277 35.2369 118.26C36.2348 117.473 37.7919 118.588 38.3544 116.504C38.7646 114.985 38.6246 111.622 40.5625 110.503C42.5001 109.385 43.7034 111.069 43.4059 113.35C43.1399 115.391 42.7651 117.356 43.0542 117.891C43.6194 118.937 44.591 118.797 44.5469 120.714C44.5056 122.499 42.8179 123.977 42.8179 123.977L36.2971 127.741Z" fill="#945DDC"/>
<path d="M39.549 126.038C39.4615 126.038 39.3863 125.973 39.3754 125.884C38.8746 121.737 40.0681 114.577 41.0554 112.448C41.096 112.361 41.1993 112.322 41.2878 112.363C41.3757 112.404 41.4135 112.508 41.3729 112.595C40.403 114.687 39.2438 121.878 39.723 125.843C39.7345 125.938 39.6659 126.025 39.57 126.037C39.563 126.038 39.556 126.038 39.549 126.038Z" fill="white"/>
<path d="M39.4544 122.809C39.4285 122.809 39.4026 122.803 39.3777 122.791C38.1632 122.198 37.3936 120.089 37.3614 119.999C37.3288 119.908 37.3761 119.808 37.4667 119.775C37.5577 119.742 37.6578 119.789 37.6907 119.881C37.6981 119.901 38.4446 121.945 39.5314 122.477C39.6182 122.519 39.6542 122.624 39.6115 122.711C39.5814 122.773 39.5195 122.809 39.4544 122.809Z" fill="white"/>
<path d="M39.4348 124.207C39.3655 124.207 39.2997 124.166 39.2724 124.097C39.2367 124.007 39.2801 123.906 39.3697 123.87C41.4134 123.051 42.6874 120.616 42.7 120.591C42.7444 120.505 42.8498 120.471 42.9355 120.516C43.0216 120.56 43.0552 120.666 43.0108 120.752C42.9569 120.856 41.6633 123.328 39.4996 124.195C39.4786 124.203 39.4565 124.207 39.4348 124.207Z" fill="white"/>
<path d="M110.881 105.38C110.881 105.38 109.35 102.904 109.202 100.209C109.055 97.5147 109.646 96.3961 110.457 96.0748C111.269 95.7539 111.33 96.7426 111.749 97.3289C112.169 97.9151 113.016 97.5795 113.33 95.757C113.643 93.9349 114.792 90.8465 117.169 90.2571C119.794 89.6068 118.386 92.6861 117.727 93.8877C117.068 95.0892 116.554 96.7255 116.989 97.171C117.423 97.6166 118.097 96.7934 118.743 97.5567C119.524 98.4779 117.098 101.79 115.706 102.594L110.881 105.38Z" fill="#945DDC"/>
<path d="M112.977 104.337C112.974 104.337 112.971 104.337 112.968 104.337C112.872 104.332 112.798 104.25 112.803 104.153C113.188 96.9863 116.686 92.023 116.721 91.9736C116.777 91.8945 116.887 91.877 116.965 91.9334C117.044 91.9894 117.062 92.0989 117.005 92.1773C116.971 92.226 113.531 97.1116 113.152 104.172C113.147 104.265 113.07 104.337 112.977 104.337Z" fill="white"/>
<path d="M113.177 102.271C113.148 102.271 113.119 102.264 113.092 102.249C112.112 101.706 111.569 100.097 111.547 100.028C111.516 99.9367 111.566 99.8376 111.658 99.8072C111.749 99.7757 111.849 99.8268 111.879 99.9181C111.884 99.9335 112.401 101.467 113.262 101.942C113.346 101.989 113.377 102.095 113.33 102.18C113.298 102.238 113.239 102.271 113.177 102.271Z" fill="white"/>
<path d="M113.349 101.211C113.27 101.211 113.199 101.158 113.179 101.079C113.155 100.984 113.212 100.89 113.305 100.866C115.832 100.227 116.707 98.9033 116.715 98.89C116.767 98.8088 116.876 98.7854 116.957 98.8368C117.038 98.8886 117.062 98.9964 117.01 99.0776C116.973 99.1368 116.064 100.529 113.391 101.205C113.377 101.209 113.363 101.211 113.349 101.211Z" fill="white"/>
<path d="M72.8077 99.9371C72.8077 99.9371 69.4515 99.1188 69.2769 92.8345C69.0882 86.0512 70.0994 78.1377 66.1409 77.494C62.1827 76.8504 59.9616 81.7038 60.0124 87.3441C60.0568 92.2962 62.0511 103.041 72.8073 105.147L72.8077 99.9371Z" fill="#945DDC"/>
<path opacity="0.2" d="M72.8077 99.9371C72.8077 99.9371 69.4515 99.1188 69.2769 92.8345C69.0882 86.0512 70.0994 78.1377 66.1409 77.494C62.1827 76.8504 59.9616 81.7038 60.0124 87.3441C60.0568 92.2962 62.0511 103.041 72.8073 105.147L72.8077 99.9371Z" fill="black"/>
<path d="M72.8073 104.501C72.7968 104.501 72.7863 104.5 72.7758 104.498C70.3556 104.057 68.3858 102.725 66.9207 100.54C62.5723 94.0535 63.9422 81.9449 64.3919 79.8299C64.4122 79.735 64.5046 79.6755 64.5995 79.6951C64.694 79.7154 64.7542 79.8082 64.7342 79.9027C64.2894 81.9943 62.9307 93.9604 67.2112 100.346C68.6213 102.449 70.5145 103.73 72.8381 104.153C72.9333 104.171 72.9963 104.262 72.9788 104.357C72.9641 104.442 72.8903 104.501 72.8073 104.501Z" fill="white"/>
<path d="M72.8077 120.634C69.3374 121.105 63.701 121.096 60.4544 118.536C57.2078 115.975 57.883 113.768 59.1321 112.848C60.3809 111.927 61.4656 110.875 59.3173 108.832C57.1686 106.789 53.7152 103.506 52.5987 98.5805C51.4818 93.6556 52.0317 90.5777 54.2293 89.5512C56.3619 88.5554 56.9236 90.1374 58.2288 93.3998C59.5339 96.6625 62.4715 93.8653 64.9831 94.8838C67.4943 95.9019 67.396 97.9183 67.5542 99.6515C67.7127 101.384 68.5419 101.863 69.9639 101.863C71.386 101.863 72.807 102.684 72.8073 104.326L72.8077 120.634Z" fill="#945DDC"/>
<path d="M72.8077 114.917C72.7923 114.917 72.7762 114.915 72.7604 114.91C72.6103 114.868 69.0214 113.824 63.7983 109.025C58.234 103.914 55.6069 96.2508 55.581 96.1742C55.5502 96.0825 55.5992 95.9831 55.6909 95.9523C55.7826 95.9222 55.8817 95.9708 55.9125 96.0618C55.938 96.1381 58.5385 103.718 64.0349 108.768C69.1883 113.501 72.8189 114.563 72.8549 114.573C72.948 114.599 73.0019 114.695 72.976 114.789C72.9543 114.866 72.8843 114.917 72.8077 114.917Z" fill="white"/>
<path d="M65.2519 110.247C65.1819 110.247 65.1157 110.204 65.0888 110.135C63.9656 107.249 63.7112 101.079 63.701 100.818C63.6972 100.721 63.7724 100.64 63.869 100.636C63.9586 100.637 64.0468 100.707 64.0507 100.804C64.0531 100.867 64.3132 107.177 65.415 110.008C65.45 110.098 65.4055 110.2 65.3152 110.235C65.2942 110.243 65.2729 110.247 65.2519 110.247Z" fill="white"/>
<path d="M65.2225 114.398C64.6786 114.398 64.3023 114.356 64.2568 114.35C64.1609 114.339 64.0923 114.252 64.1035 114.155C64.1151 114.06 64.2012 113.988 64.2981 114.002C64.3307 114.006 67.5871 114.374 69.0826 112.848C69.1498 112.779 69.2611 112.779 69.3301 112.846C69.399 112.913 69.4001 113.025 69.3325 113.093C68.2381 114.21 66.3628 114.398 65.2225 114.398Z" fill="white"/>
<path d="M62.7018 48.1229L62.3259 45.9406L60.3785 47.222C60.1835 46.8489 59.933 46.5493 59.6382 46.3232L60.57 43.8028L58.8353 43.415L57.5536 45.8573C57.1291 45.9228 56.6807 46.0659 56.2187 46.292L55.664 44.4514L53.5864 46.0848L53.7225 48.2548C53.3018 48.7228 52.9172 49.2345 52.5738 49.7728L50.8571 49.6881L49.6535 52.3859L51.1276 53.0145C50.9719 53.5948 50.8718 54.1705 50.8364 54.7242L48.965 56.4452L49.3409 58.6274L51.2879 57.3461C51.4829 57.7192 51.7335 58.0188 52.0285 58.2449L51.0965 60.7652L52.8315 61.153L54.6647 59.3656C55.0896 59.3005 54.986 58.5025 55.4481 58.2764L56.0024 60.117L58.0804 58.4836L58.0268 57.6299C58.4472 57.1623 60.0351 56.1298 60.3785 55.5915L60.8097 54.8803L62.0133 52.1825L61.4526 51.1668L60.8303 49.8442L62.7018 48.1229ZM56.3556 55.3154C54.7617 56.5684 54.2763 56.8417 53.9879 55.1677C53.6995 53.4936 54.6318 50.9407 56.2261 49.6877C57.82 48.4344 58.4318 48.3409 58.7198 50.015C59.0079 51.689 57.9495 54.062 56.3556 55.3154Z" fill="#E0E0E0"/>
<path d="M58.8357 43.415L61.1051 44.7237L59.8238 47.166L57.5536 45.857L58.8357 43.415Z" fill="#F5F5F5"/>
<path d="M64.596 47.2494L62.6489 48.5308L60.3788 47.2218L62.3262 45.9404L64.596 47.2494Z" fill="#F5F5F5"/>
<path d="M64.2831 53.4917L62.8093 52.8627L60.5395 51.5537L62.0134 52.1827L64.2831 53.4917Z" fill="#E0E0E0"/>
<path d="M51.0965 60.7655L53.3666 62.0745L54.2983 59.5541L52.0285 58.2451L51.0965 60.7655Z" fill="#E0E0E0"/>
<path d="M58.2731 61.426L56.003 60.117L55.4486 58.2764L57.7183 59.5854L58.2731 61.426Z" fill="#E0E0E0"/>
<path d="M64.9716 49.4315L64.5957 47.2492L62.6486 48.5306C62.4537 48.1575 62.2027 47.8579 61.908 47.6318L62.8401 45.1114L61.1051 44.7236L59.8234 47.1659C59.3989 47.2314 58.9502 47.3745 58.4882 47.6006L57.9334 45.76L55.8558 47.3934L55.992 49.5634C55.5716 50.031 55.1866 50.5431 54.8433 51.0814L53.1265 50.9967L51.9229 53.6945L53.3971 54.3231C53.2413 54.9034 53.1416 55.4791 53.1059 56.0332L51.2344 57.7541L51.6103 59.9364L53.5574 58.655C53.7523 59.0278 54.0029 59.3277 54.2976 59.5538L53.3659 62.0742L55.1009 62.462L56.3826 60.0197C56.8071 59.9546 57.2555 59.8111 57.7175 59.585L58.2722 61.4256L60.3498 59.7922L60.2137 57.6222C60.6344 57.1546 61.019 56.6425 61.3624 56.1042L63.0791 56.1889L64.2824 53.4911L62.8082 52.8625C62.964 52.2822 63.0641 51.7065 63.0991 51.1528L64.9716 49.4315ZM58.6254 56.624C57.0315 57.8773 55.5055 57.5357 55.2171 55.8617C54.9287 54.1876 55.9874 51.8143 57.5813 50.5613C59.1752 49.3079 60.7009 49.6492 60.9893 51.3232C61.2777 52.9976 60.2193 55.3706 58.6254 56.624Z" fill="#EBEBEB"/>
<path d="M57.9337 45.7602L55.664 44.4512L53.5864 46.0846L55.8561 47.3936L57.9337 45.7602Z" fill="#F5F5F5"/>
<path d="M53.5864 46.084L53.7226 48.254L55.992 49.5626L55.8562 47.393L53.5864 46.084Z" fill="#E0E0E0"/>
<path d="M54.8436 51.0822L52.5735 49.7732L50.8571 49.6885L53.1269 50.9975L54.8436 51.0822Z" fill="#F5F5F5"/>
<path d="M50.8571 49.6885L49.6534 52.3863L51.9232 53.6953L53.1268 50.9975L50.8571 49.6885Z" fill="#E0E0E0"/>
<path d="M53.1062 56.0336L50.8364 54.7246L48.965 56.4456L51.2347 57.7546L53.1062 56.0336Z" fill="#F5F5F5"/>
<path d="M51.6106 59.9366L49.3409 58.6276L48.965 56.4453L51.2347 57.7543L51.6106 59.9366Z" fill="#E0E0E0"/>
<path d="M61.1051 44.7237L58.8357 43.415L60.5703 43.8028L62.84 45.1118L61.1051 44.7237Z" fill="#F5F5F5"/>
<path d="M52.5326 38.2254V34.9659L49.9387 36.1352C49.7823 35.5332 49.5443 35.0173 49.238 34.5914L50.8722 31.2961L48.8761 30.1436L46.8395 33.2068C46.3176 33.1546 45.7517 33.2061 45.1521 33.372L44.8676 30.5408L42.0452 32.1704L41.7606 35.3299C41.1611 35.8566 40.5951 36.4586 40.0733 37.1131L38.0366 36.4019L36.0406 39.8589L37.6747 41.2669C37.3688 42.046 37.1305 42.8374 36.974 43.62L34.3802 45.4459V48.7051L36.974 47.5358C37.1305 48.1378 37.3688 48.6537 37.6747 49.0796L36.0406 52.3749L38.0366 53.5271L40.0733 50.4642C40.5951 50.5164 41.1611 50.4646 41.7606 50.299L42.0452 53.1302L44.8676 51.5006L45.1521 48.3411C45.9932 48.0604 46.8934 47.4094 47.4149 46.7549L48.8758 47.2694L50.8718 43.8125L49.6472 42.7572C49.9531 41.9781 49.9856 40.7325 49.938 40.0517L52.5326 38.2254ZM43.4567 46.3629C41.2913 47.6131 39.9452 46.7262 39.9452 44.2258C39.9452 41.7254 41.7347 38.6622 43.9002 37.412C46.0656 36.1618 47.3774 37.0711 47.3774 39.5715C47.3778 42.0723 45.6222 45.1127 43.4567 46.3629Z" fill="#E0E0E0"/>
<path d="M51.1462 31.4526L48.8761 30.1436L46.8398 33.2068L49.1095 34.5154L51.1462 31.4526Z" fill="#F5F5F5"/>
<path d="M54.8023 36.2748L52.5326 34.9658L49.9387 36.1352L52.2085 37.4442L54.8023 36.2748Z" fill="#F5F5F5"/>
<path d="M44.3153 54.439L42.0455 53.13L41.761 50.2988L44.0311 51.6078L44.3153 54.439Z" fill="#E0E0E0"/>
<path d="M36.0413 52.3753L38.311 53.6843L39.9452 50.3891L37.6754 49.0801L36.0413 52.3753Z" fill="#E0E0E0"/>
<path d="M54.8023 39.534V36.2744L52.2085 37.4438C52.052 36.8418 51.8137 36.3259 51.5078 35.8999L53.1419 32.6047L51.1459 31.4521L49.1092 34.5153C48.5877 34.4632 48.0218 34.5146 47.4222 34.6805L47.1377 31.8497L44.3153 33.4793L44.0307 36.6388C43.4312 37.1655 42.8652 37.7675 42.3434 38.422L40.3067 37.7108L38.3107 41.1681L39.9448 42.5762C39.6389 43.3553 39.4006 44.1463 39.2441 44.9289L36.6503 46.7548V50.014L39.2441 48.8447C39.4006 49.4467 39.6389 49.9626 39.9448 50.3885L38.3107 53.6838L40.3067 54.836L42.3434 51.7731C42.8652 51.8249 43.4312 51.7735 44.0307 51.6079L44.3153 54.4391L47.1377 52.8095L47.4222 49.65C48.0218 49.1236 48.5877 48.5213 49.1092 47.8671L51.1459 48.5783L53.1419 45.1214L51.5078 43.7133C51.8137 42.9342 52.052 42.1432 52.2085 41.3606L54.8023 39.534ZM45.7265 47.6715C43.561 48.9217 41.8054 47.9081 41.8054 45.4077C41.8054 42.9073 43.561 39.8665 45.7265 38.6163C47.8919 37.3661 49.6475 38.3797 49.6475 40.8801C49.6475 43.3808 47.8919 46.4213 45.7265 47.6715Z" fill="#EBEBEB"/>
<path d="M40.0739 37.1126L42.3437 38.4216L40.307 37.7104L38.0373 36.4014L40.0739 37.1126Z" fill="#F0F0F0"/>
<path d="M38.0338 36.4027L36.0395 39.8604L38.309 41.1694L40.3033 37.7117L38.0338 36.4027Z" fill="#F5F5F5"/>
<path d="M36.0412 39.8594L38.311 41.1684L39.9451 42.5768L37.6754 41.2674L36.0412 39.8594Z" fill="#E0E0E0"/>
<path d="M36.9751 43.6201L39.2448 44.9291L36.651 46.7551L34.3809 45.4461L36.9751 43.6201Z" fill="#F5F5F5"/>
<path d="M34.3809 45.4463L36.651 46.7553V50.0141L34.3809 48.7055V45.4463Z" fill="#E0E0E0"/>
<path d="M47.138 31.85L44.8679 30.541L42.0455 32.1706L44.3153 33.4796L47.138 31.85Z" fill="#F5F5F5"/>
<path d="M76.2573 125.318L109.166 106.318C109.501 106.125 109.501 105.812 109.166 105.618L106.122 103.857C105.787 103.663 105.245 103.662 104.91 103.856L71.9922 122.856C71.6572 123.049 71.6572 123.362 71.9922 123.556L75.0449 125.318C75.3798 125.511 75.9227 125.511 76.2573 125.318Z" fill="#E0E0E0"/>
<path d="M108.256 32.9687L78.5879 50.0977C77.7511 50.5811 77.0724 51.7564 77.0724 52.7227V123.097C77.0724 124.064 77.7511 124.456 78.5879 123.972L108.257 106.844C109.094 106.36 109.772 105.185 109.772 104.219L109.772 33.8441C109.772 32.8774 109.093 32.4854 108.256 32.9687Z" fill="#455A64"/>
<path d="M78.5879 50.0977L108.256 32.9687C109.005 32.5368 109.625 32.8056 109.748 33.5581C109.635 32.6561 109.013 31.6555 108.256 31.2187L107.023 30.5061C106.185 30.0227 104.828 30.0227 103.991 30.5061L74.3232 47.6351C73.9046 47.8766 73.5259 48.2913 73.2515 48.7663L77.5166 51.2285C77.7906 50.7539 78.1697 50.3395 78.5879 50.0977Z" fill="#37474F"/>
<path d="M72.8076 120.635C72.8076 121.601 73.4859 122.777 74.3231 123.26L75.5572 123.972C76.3139 124.409 77.4924 124.447 78.3306 124.094C77.6166 124.365 77.0724 123.962 77.0724 123.097V52.7227C77.0724 52.2393 77.2421 51.7038 77.5165 51.2289L73.2514 48.7666C72.977 49.2416 72.8076 49.7771 72.8076 50.2604V120.635Z" fill="#263238"/>
<path d="M79.4038 59.4765L107.441 43.2893C107.943 42.9992 108.351 43.2344 108.351 43.8143L108.351 95.8891C108.351 96.469 107.943 97.1743 107.441 97.4641L79.4041 113.652C78.9019 113.941 78.4948 113.706 78.4948 113.127L78.4945 61.0518C78.4941 60.4715 78.9015 59.7663 79.4038 59.4765Z" fill="white"/>
<path d="M93.4223 44.2027C93.128 44.3728 92.8893 44.7862 92.8893 45.1261C92.8893 45.4663 93.1283 45.6038 93.4223 45.4337C93.717 45.264 93.9554 44.8506 93.9554 44.5104C93.9554 44.1705 93.717 44.0326 93.4223 44.2027Z" fill="#37474F"/>
<path d="M93.423 108.059C92.2603 108.73 91.3178 110.362 91.3178 111.705C91.3178 113.047 92.26 113.592 93.423 112.92C94.5854 112.249 95.5279 110.617 95.5279 109.274C95.5276 107.932 94.5854 107.388 93.423 108.059Z" fill="#37474F"/>
<path d="M88.3865 49.6202C87.7978 49.9604 87.3204 50.7871 87.3204 51.4671C87.3204 52.1472 87.7978 52.4226 88.3869 52.0828C88.9759 51.7429 89.453 50.9162 89.453 50.2362C89.453 49.5558 88.9756 49.2803 88.3865 49.6202Z" fill="#37474F"/>
<path d="M90.9937 49.3894C90.9937 49.8426 91.3332 50.0145 91.7514 49.7726L98.7665 45.7228C99.1847 45.4813 99.5242 44.9178 99.5242 44.4645C99.5239 44.0113 99.1847 43.8394 98.7661 44.0813L91.7514 48.1311C91.3332 48.373 90.9937 48.9361 90.9937 49.3894Z" fill="#37474F"/>
<path d="M75.167 61.7297C75.6381 62.0016 76.0199 62.6631 76.0199 63.2074C76.0199 63.7513 75.6381 63.9718 75.167 63.6998C74.6959 63.4279 74.3137 62.7664 74.3137 62.2225C74.3137 61.6786 74.6959 61.4577 75.167 61.7297Z" fill="#37474F"/>
<path d="M75.167 68.3019C75.6381 68.5738 76.0199 69.2353 76.0199 69.7796C76.0199 70.3238 75.6381 70.544 75.167 70.272C74.6959 70.0001 74.3137 69.3386 74.3137 68.7943C74.314 68.2504 74.6959 68.0303 75.167 68.3019Z" fill="#37474F"/>
<path d="M74.9035 61.8618C75.3746 62.1338 75.7568 62.7953 75.7568 63.3392C75.7568 63.8831 75.3749 64.1039 74.9035 63.8316C74.4324 63.5597 74.0505 62.8982 74.0505 62.3543C74.0505 61.81 74.4327 61.5895 74.9035 61.8618Z" fill="#455A64"/>
<path d="M74.9035 68.4339C75.3746 68.7059 75.7568 69.3674 75.7568 69.9116C75.7568 70.4555 75.3749 70.676 74.9035 70.4041C74.4324 70.1321 74.0505 69.4706 74.0505 68.9264C74.0505 68.3821 74.4327 68.162 74.9035 68.4339Z" fill="#455A64"/>
<path d="M114.037 45.4616C114.037 44.8817 113.63 44.6468 113.128 44.9366L109.772 46.8742L85.0906 61.1241C84.5883 61.4143 84.1813 62.1192 84.1813 62.6991L84.1816 114.774C84.1816 115.354 84.5887 115.589 85.0909 115.299L109.781 101.044L113.128 99.1114C113.63 98.8212 114.038 98.116 114.038 97.5364L114.037 45.4616Z" fill="white" stroke="#945DDC" stroke-miterlimit="10"/>
<path d="M84.6846 115.597C84.568 115.597 84.4585 115.569 84.3605 115.513C84.1323 115.381 84.0066 115.118 84.0066 114.773L84.0063 62.6981C84.0063 62.0527 84.4441 61.2943 85.0031 60.9716L109.684 46.7217L109.859 47.0248L85.1781 61.2747C84.7325 61.5319 84.3563 62.1836 84.3563 62.6981L84.3566 114.773C84.3566 114.985 84.4217 115.144 84.5355 115.21C84.6492 115.276 84.8197 115.252 85.0034 115.146L109.693 100.891L109.868 101.194L85.1784 115.449C85.0076 115.548 84.8396 115.597 84.6846 115.597Z" fill="#945DDC" stroke="#945DDC" stroke-miterlimit="10"/>
<path d="M109.868 101.195L109.693 100.892L113.041 98.9598C113.486 98.7022 113.863 98.0502 113.863 97.5364L113.862 45.4616C113.862 45.2495 113.797 45.0903 113.683 45.0245C113.57 44.959 113.4 44.9818 113.215 45.0882L109.859 47.0258L109.684 46.7227L113.04 44.7851C113.339 44.6125 113.63 44.5894 113.858 44.7214C114.086 44.8533 114.212 45.1158 114.212 45.4616L114.213 97.5364C114.213 98.1814 113.775 98.9399 113.216 99.2629L109.868 101.195Z" fill="#945DDC" stroke="#945DDC" stroke-miterlimit="10"/>
<path d="M99.1095 57.5628C102.25 55.7495 104.796 57.2195 104.796 60.8462C104.796 64.4729 102.25 68.8825 99.1095 70.6962C95.9686 72.5096 93.4227 71.0396 93.4227 67.4129C93.4227 63.7862 95.9686 59.3762 99.1095 57.5628Z" fill="#945DDC"/>
<path d="M99.1095 60.417C100.128 59.8287 100.954 60.3057 100.954 61.4821C100.954 62.6588 100.128 64.0896 99.1095 64.6776C98.0907 65.2659 97.2643 64.7889 97.2643 63.6122C97.2643 62.4358 98.0907 61.0054 99.1095 60.417Z" fill="#945DDC"/>
<path d="M102.705 66.6904C102.705 64.7574 101.348 63.9737 99.6742 64.9404L98.6277 65.5445C96.954 66.5109 95.5967 68.8615 95.5967 70.7945V71.3146C96.5645 71.6359 97.7825 71.462 99.1093 70.6955C100.474 69.9076 101.726 68.6291 102.705 67.1384V66.6904Z" fill="#945DDC"/>
<path opacity="0.7" d="M99.1093 60.4161C100.128 59.8277 100.954 60.3048 100.954 61.4811C100.954 62.6578 100.128 64.0886 99.1093 64.6766C98.0905 65.265 97.2641 64.7879 97.2641 63.6112C97.2641 62.4349 98.0905 61.0044 99.1093 60.4161Z" fill="white"/>
<path opacity="0.7" d="M102.705 66.6895C102.705 64.7564 101.348 63.9728 99.6742 64.9395L98.6277 65.5436C96.954 66.5099 95.5967 68.8605 95.5967 70.7936V71.3137C96.5645 71.635 97.7825 71.461 99.1093 70.6945C100.474 69.9067 101.726 68.6281 102.705 67.1375V66.6895Z" fill="white"/>
<path d="M88.1058 78.6933L95.4236 74.4685C95.7586 74.2753 96.0302 74.4321 96.0302 74.8185V75.06C96.0302 75.4467 95.7589 75.9168 95.4236 76.11L88.1058 80.3348C87.7712 80.5284 87.4996 80.3716 87.4996 79.9848V79.7433C87.4996 79.3566 87.7712 78.8865 88.1058 78.6933Z" fill="#945DDC"/>
<path opacity="0.1" d="M88.1058 78.6933L95.4236 74.4685C95.7586 74.2753 96.0302 74.4321 96.0302 74.8185V75.06C96.0302 75.4467 95.7589 75.9168 95.4236 76.11L88.1058 80.3348C87.7712 80.5284 87.4996 80.3716 87.4996 79.9848V79.7433C87.4996 79.3566 87.7712 78.8865 88.1058 78.6933Z" fill="black"/>
<path d="M87.8031 83.7932L109.944 71.0102C110.111 70.9136 110.247 70.9916 110.247 71.1852V73.7685C110.247 73.9617 110.111 74.1969 109.944 74.2935L87.8031 87.0766C87.6358 87.1732 87.5 87.0948 87.5 86.9016V84.3182C87.5 84.125 87.6358 83.8898 87.8031 83.7932Z" fill="#945DDC"/>
<path opacity="0.2" d="M87.8031 83.7932L109.944 71.0102C110.111 70.9136 110.247 70.9916 110.247 71.1852V73.7685C110.247 73.9617 110.111 74.1969 109.944 74.2935L87.8031 87.0766C87.6358 87.1732 87.5 87.0948 87.5 86.9016V84.3182C87.5 84.125 87.6358 83.8898 87.8031 83.7932Z" fill="white"/>
<path d="M88.1058 90.1856L95.4236 85.9607C95.7586 85.7675 96.0302 85.924 96.0302 86.3107V86.5522C96.0302 86.9386 95.7589 87.409 95.4236 87.6022L88.1058 91.8271C87.7712 92.0206 87.4996 91.8635 87.4996 91.4771V91.2356C87.4996 90.8488 87.7712 90.3791 88.1058 90.1856Z" fill="#945DDC"/>
<path opacity="0.1" d="M88.1058 90.1856L95.4236 85.9607C95.7586 85.7675 96.0302 85.924 96.0302 86.3107V86.5522C96.0302 86.9386 95.7589 87.409 95.4236 87.6022L88.1058 91.8271C87.7712 92.0206 87.4996 91.8635 87.4996 91.4771V91.2356C87.4996 90.8488 87.7712 90.3791 88.1058 90.1856Z" fill="black"/>
<path d="M87.8031 95.2853L109.944 82.5023C110.111 82.4057 110.247 82.4841 110.247 82.6773V85.2606C110.247 85.4538 110.111 85.689 109.944 85.7856L87.8031 98.5687C87.6358 98.6653 87.5 98.5872 87.5 98.3937V95.8103C87.5 95.6171 87.6358 95.3823 87.8031 95.2853Z" fill="#945DDC"/>
<path opacity="0.2" d="M87.8031 95.2853L109.944 82.5023C110.111 82.4057 110.247 82.4841 110.247 82.6773V85.2606C110.247 85.4538 110.111 85.689 109.944 85.7856L87.8031 98.5687C87.6358 98.6653 87.5 98.5872 87.5 98.3937V95.8103C87.5 95.6171 87.6358 95.3823 87.8031 95.2853Z" fill="white"/>
<path d="M96.6364 96.7526L105.376 91.707C105.711 91.5134 105.982 91.6702 105.982 92.057V94.761C105.982 95.1474 105.711 95.6178 105.376 95.811L96.6364 100.857C96.3015 101.05 96.0302 100.893 96.0302 100.507V97.8026C96.0302 97.4158 96.3015 96.9458 96.6364 96.7526Z" fill="#945DDC"/>
<path opacity="0.1" d="M96.6364 96.7526L105.376 91.707C105.711 91.5134 105.982 91.6702 105.982 92.057V94.761C105.982 95.1474 105.711 95.6178 105.376 95.811L96.6364 100.857C96.3015 101.05 96.0302 100.893 96.0302 100.507V97.8026C96.0302 97.4158 96.3015 96.9458 96.6364 96.7526Z" fill="black"/>
<path d="M117.356 85.3503C117.356 85.3503 113.056 79.4189 112.794 78.7133C112.596 78.1813 112.808 77.3899 112.857 77.0221C112.906 76.6546 112.977 75.8356 113.038 75.6077C113.145 75.2101 112.63 75.2917 112.341 75.6532C112.044 76.0235 111.95 76.7466 111.802 76.8653C111.655 76.9839 110.506 75.3151 109.907 74.5427C109.307 73.7699 108.933 73.3047 108.568 73.591C108.306 73.7972 108.501 74.2473 108.936 74.9049C109.37 75.5626 109.563 75.8674 109.628 76.0085C109.694 76.1499 109.336 76.1611 109.144 76.4579C108.993 76.6896 109.133 77.0644 108.934 77.2433C108.734 77.4221 108.548 77.7438 108.767 78.1064C109.046 78.568 109.605 79.2281 110.247 79.6733C110.89 80.1189 111.151 80.2753 111.53 80.8815C111.909 81.4874 115.335 87.6726 115.565 88.0436C115.794 88.4149 116.241 89.1709 116.917 89.1923C117.593 89.2143 123.122 84.4536 123.407 84.216C124.318 83.4561 124.605 83.3445 124.762 84.0291C124.812 84.2433 124.844 84.4872 124.878 84.7634C124.988 85.63 125.578 88.7313 125.578 88.7313C125.578 88.7313 128.374 90.0865 130.677 89.4187C132.979 88.7509 133.751 87.7888 133.751 87.7888L132.6 85.9117C132.913 85.1365 134.362 82.0029 134.816 79.8067L127.606 78.6426C127.458 78.6104 127.222 78.5509 126.92 78.4714C126.524 78.3671 125.529 78.0178 124.762 78.6849C122.281 80.8437 117.356 85.3503 117.356 85.3503Z" fill="#FFA8A7"/>
<path d="M131.65 121.728L130.358 123.524C130.358 123.524 130.957 123.875 132.235 123.924C133.392 123.968 133.71 123.588 133.752 123.497C133.948 123.078 133.643 122.322 133.559 121.673L131.65 121.728Z" fill="#37474F"/>
<path d="M130.431 122.662C130.431 122.662 128.864 122.562 127.781 122.425C126.698 122.288 125.841 122.817 126.096 123.264C126.351 123.709 126.947 124.08 127.874 124.392C128.67 124.66 129.623 124.854 130.453 125.103C131.304 125.358 131.848 125.649 132.33 125.483C132.868 125.298 133.098 125.083 133.053 124.692C133.007 124.301 132.618 123.041 132.618 123.041L130.431 122.662Z" fill="#37474F"/>
<path d="M133.752 119.922C133.752 119.922 133.556 121.554 133.541 121.904C133.526 122.254 131.949 122.367 131.65 121.727L131.601 119.732L133.752 119.922Z" fill="#F28F8F"/>
<path d="M132.162 120.927L132.726 123.402C132.726 123.402 132.779 123.703 131.49 123.895C130.201 124.088 128.179 123.221 127.835 123.045C127.491 122.869 127.45 122.518 128.716 122.588C129.982 122.659 130.43 122.661 130.43 122.661L130.019 121.564L132.162 120.927Z" fill="#FFA8A7"/>
<path d="M134.816 79.8066L135.708 79.5605C135.708 79.5605 137.575 85.4636 137.781 86.0324C137.988 86.6008 138.221 87.2073 137.819 87.9108C137.341 88.7484 134.817 92.1189 134.817 92.1189L133.215 90.5509L135.032 87.221L133.425 83.9639L134.816 79.8066Z" fill="#F28F8F"/>
<path d="M125.641 72.133C125.641 72.133 124.926 70.9892 125.678 69.5885C126.565 67.9383 128.548 67.1329 130.908 67.442C131.999 67.5848 133.286 68.4797 133.992 69.8465C134.767 71.3473 134.84 74.3727 135.032 75.5165L125.641 72.133Z" fill="#37474F"/>
<path d="M125.587 72.7783C125.587 72.7783 125.026 73.8458 125.123 73.9431C125.22 74.0401 125.594 74.1188 125.594 74.1188L125.587 72.7783Z" fill="#FFA8A7"/>
<path d="M127.289 69.4038C126.679 69.8014 125.629 70.528 125.583 72.9269C125.536 75.3895 125.884 76.1833 126.248 76.4689C126.493 76.6614 127.931 76.5637 128.548 76.4188C129.165 76.2739 130.94 75.3972 131.579 74.0637C132.33 72.4953 132.178 70.1986 131.06 69.5319C129.487 68.5935 127.805 69.0674 127.289 69.4038Z" fill="#FFA8A7"/>
<path d="M133.752 87.7891C134.831 89.4687 135.857 90.9482 136.076 92.8357C136.538 96.8222 135.022 101.38 134.7 104.327C134.7 104.327 135.718 105.651 135.717 107.207C135.717 108.425 133.752 119.923 133.752 119.923C133.752 119.923 132.323 120.358 131.601 119.733L130.251 98.581L130.962 96.006L133.752 87.7891Z" fill="#945DDC"/>
<path opacity="0.2" d="M133.752 87.7891C134.831 89.4687 135.857 90.9482 136.076 92.8357C136.538 96.8222 135.022 101.38 134.7 104.327C134.7 104.327 135.718 105.651 135.717 107.207C135.717 108.425 133.752 119.923 133.752 119.923C133.752 119.923 132.323 120.358 131.601 119.733L130.251 98.581L130.962 96.006L133.752 87.7891Z" fill="black"/>
<path d="M130.251 98.5813L130.962 96.0063C130.962 96.0063 132.934 95.53 134.817 94.4775C134.817 94.4775 134.087 95.8026 131.997 96.5292L130.908 99.8395L130.815 107.415L130.251 98.5813Z" fill="#945DDC"/>
<path opacity="0.3" d="M130.251 98.5813L130.962 96.0063C130.962 96.0063 132.934 95.53 134.817 94.4775C134.817 94.4775 134.087 95.8026 131.997 96.5292L130.908 99.8395L130.815 107.415L130.251 98.5813Z" fill="black"/>
<path d="M133.752 87.7891C134.329 88.7316 135.71 90.3434 135.416 91.8921C135.06 93.7688 134.051 95.088 130.962 96.0064L128.065 106.498C128.065 106.498 129.574 107.91 130.035 109.252C130.495 110.595 132.162 120.927 132.162 120.927C132.162 120.927 131.647 121.768 130.019 121.564C130.019 121.564 124.346 108.606 123.945 107.772C123.544 106.937 123.285 106.314 123.465 104.954C123.646 103.596 125.578 88.7313 125.578 88.7313L133.752 87.7891Z" fill="#945DDC"/>
<path opacity="0.2" d="M133.752 87.7891C134.329 88.7316 135.71 90.3434 135.416 91.8921C135.06 93.7688 134.051 95.088 130.962 96.0064L128.065 106.498C128.065 106.498 129.574 107.91 130.035 109.252C130.495 110.595 132.162 120.927 132.162 120.927C132.162 120.927 131.647 121.768 130.019 121.564C130.019 121.564 124.346 108.606 123.945 107.772C123.544 106.937 123.285 106.314 123.465 104.954C123.646 103.596 125.578 88.7313 125.578 88.7313L133.752 87.7891Z" fill="black"/>
<path d="M134.817 79.8067L127.606 78.6426C127.459 78.6104 127.22 78.5505 126.919 78.4711L126.919 78.4707C126.919 78.4707 126.611 82.991 124.762 84.0287C124.806 84.2443 124.844 84.4869 124.878 84.763C124.988 85.6296 125.578 88.731 125.578 88.731C125.578 88.731 128.374 90.0862 130.677 89.4184C132.979 88.7506 133.751 87.7884 133.751 87.7884L132.6 85.9114C132.914 85.1368 134.362 82.0029 134.817 79.8067Z" fill="#945DDC"/>
<path opacity="0.7" d="M134.817 79.8067L127.606 78.6426C127.459 78.6104 127.22 78.5505 126.919 78.4711L126.919 78.4707C126.919 78.4707 126.611 82.991 124.762 84.0287C124.806 84.2443 124.844 84.4869 124.878 84.763C124.988 85.6296 125.578 88.731 125.578 88.731C125.578 88.731 128.374 90.0862 130.677 89.4184C132.979 88.7506 133.751 87.7884 133.751 87.7884L132.6 85.9114C132.914 85.1368 134.362 82.0029 134.817 79.8067Z" fill="white"/>
<path d="M132.915 85.1729C132.885 85.2408 130.597 86.4668 129.917 86.6544C130.989 86.6012 131.879 86.3492 132.6 85.911L132.915 85.1729Z" fill="#945DDC"/>
<path d="M127.108 69.5249C127.108 69.5249 126.772 71.8009 127.586 73.1358C127.586 73.1358 127.892 72.23 128.661 72.4029C129.436 72.5772 129.469 73.5835 128.931 74.154C128.393 74.7245 127.794 74.5184 127.794 74.5184C127.794 74.5184 127.673 76.1633 127.608 77.5427C127.545 78.8716 127.175 81.9275 128.727 83.1563C130.279 84.3852 134.169 84.7999 135.992 82.2512C137.006 80.8334 135.659 78.327 135.032 75.5165C134.456 72.9325 134.132 69.1031 131.39 68.4885C128.648 67.8743 127.108 69.5249 127.108 69.5249Z" fill="#37474F"/>
<path d="M137.166 38.4383L136.588 38.7722C136.634 38.5594 136.667 38.3484 136.667 38.145C136.667 36.9743 135.845 36.4997 134.831 37.0852C134.536 37.2553 134.261 37.5017 134.014 37.787C134.014 37.7842 134.014 37.781 134.014 37.7782C134.014 36.2022 132.908 35.5631 131.543 36.3513C130.178 37.1395 129.071 39.0561 129.071 40.6325C129.071 40.7126 129.076 40.7889 129.081 40.8642C128.793 40.8127 128.448 40.8834 128.077 41.0976C127.063 41.6832 126.241 43.1066 126.241 44.2777C126.241 44.4391 126.258 44.5854 126.288 44.7191L125.98 44.8969C125.143 45.3802 124.464 46.3231 124.464 47.0032C124.464 47.6829 125.143 47.8425 125.98 47.3595L137.166 40.9013C138.003 40.4179 138.681 39.475 138.681 38.795C138.681 38.1146 138.003 37.955 137.166 38.4383Z" fill="#EBEBEB"/>
</svg>
