<svg width="138" height="128" viewBox="0 0 138 128" fill="none" xmlns="http://www.w3.org/2000/svg">
<path d="M20.5912 118.026C47.3267 130.769 90.6737 130.769 117.409 118.027C144.145 105.284 144.145 84.6237 117.409 71.881C90.6737 59.1384 47.3263 59.1383 20.5908 71.8807C-6.14475 84.6234 -6.14475 105.284 20.5912 118.026Z" fill="#F5F5F5"/>
<path d="M111.013 107.365C114.495 109.025 120.14 109.025 123.622 107.365C127.104 105.706 127.104 103.015 123.622 101.356C120.14 99.6968 114.495 99.6968 111.013 101.356C107.532 103.015 107.532 105.706 111.013 107.365Z" fill="#EBEBEB"/>
<path d="M18.5422 104.969L21.6943 103.15C21.6943 103.15 24.2947 101.238 25.5824 97.69C26.5567 95.0051 26.4225 92.9623 25.7237 91.9387C24.8642 90.6789 22.6406 90.8989 22.5522 93.5551C22.3783 98.785 20.8523 102.403 18.5422 104.969Z" fill="#945DDC"/>
<path opacity="0.2" d="M18.5422 104.969L21.6943 103.15C21.6943 103.15 24.2947 101.238 25.5824 97.69C26.5567 95.0051 26.4225 92.9623 25.7237 91.9387C24.8642 90.6789 22.6406 90.8989 22.5522 93.5551C22.3783 98.785 20.8523 102.403 18.5422 104.969Z" fill="black"/>
<path d="M18.5425 105.163C18.4808 105.163 18.4207 105.134 18.3827 105.08C18.3218 104.991 18.3435 104.871 18.4316 104.81C25.7248 99.7632 24.3121 92.7322 24.297 92.6616C24.2745 92.5568 24.3412 92.4536 24.4456 92.4311C24.5511 92.4078 24.6535 92.475 24.676 92.5797C24.692 92.6527 26.1656 99.9296 18.6523 105.129C18.619 105.152 18.5806 105.163 18.5425 105.163Z" fill="white"/>
<path d="M12.2379 108.61C12.2379 108.61 11.1406 107.716 11.406 106.507C11.6718 105.297 12.3795 104.427 11.1627 102.867C9.94598 101.306 9.6317 99.2269 11.0626 98.0994C12.1688 97.2275 13.895 98.4633 14.5186 96.1532C14.9733 94.4692 14.8181 90.741 16.9664 89.5005C19.1144 88.2605 20.4484 90.1275 20.1186 92.6565C19.8237 94.9189 19.4081 97.0972 19.7286 97.6904C20.3552 98.8498 21.4323 98.6942 21.3834 100.82C21.3377 102.799 19.4667 104.437 19.4667 104.437L12.2379 108.61Z" fill="#945DDC"/>
<path d="M15.8431 106.722C15.7461 106.722 15.6627 106.65 15.6507 106.551C15.0955 101.954 16.4185 94.016 17.5131 91.6566C17.5581 91.5592 17.6726 91.5161 17.7707 91.5623C17.8681 91.6073 17.91 91.7225 17.865 91.8195C16.7899 94.1382 15.5048 102.11 16.036 106.505C16.0488 106.611 15.9727 106.707 15.8664 106.721C15.8587 106.721 15.8509 106.722 15.8431 106.722Z" fill="white"/>
<path d="M15.738 103.142C15.7093 103.142 15.6806 103.136 15.653 103.123C14.3067 102.465 13.4535 100.126 13.4178 100.027C13.3817 99.9262 13.4341 99.8153 13.5346 99.7788C13.6354 99.7427 13.7464 99.7947 13.7829 99.896C13.791 99.9188 14.6186 102.184 15.8234 102.774C15.9196 102.821 15.9596 102.937 15.9122 103.033C15.8789 103.102 15.8102 103.142 15.738 103.142Z" fill="white"/>
<path d="M15.7163 104.692C15.6395 104.692 15.5666 104.646 15.5363 104.57C15.4967 104.47 15.5448 104.358 15.6442 104.318C17.9097 103.41 19.322 100.71 19.336 100.683C19.3853 100.588 19.5021 100.55 19.5971 100.6C19.6926 100.649 19.7298 100.766 19.6805 100.861C19.6208 100.977 18.1867 103.717 15.7881 104.678C15.7648 104.687 15.7404 104.692 15.7163 104.692Z" fill="white"/>
<path d="M94.9191 83.8202C94.9191 83.8202 93.2223 81.0763 93.0586 78.0887C92.8949 75.1015 93.5506 73.8614 94.45 73.5052C95.3493 73.1494 95.4176 74.2455 95.8821 74.8954C96.3469 75.5453 97.2866 75.1732 97.6339 73.1529C97.9812 71.133 99.255 67.7093 101.89 67.0559C104.8 66.335 103.239 69.7486 102.509 71.0806C101.778 72.4126 101.208 74.2265 101.69 74.7204C102.172 75.2144 102.919 74.3018 103.635 75.148C104.5 76.1692 101.812 79.8409 100.269 80.7317L94.9191 83.8202Z" fill="#945DDC"/>
<path d="M97.2432 82.6652C97.2397 82.6652 97.2362 82.6652 97.2331 82.6648C97.126 82.659 97.0441 82.5678 97.0496 82.4611C97.4768 74.516 101.354 69.0138 101.393 68.9591C101.456 68.8714 101.577 68.852 101.664 68.9145C101.751 68.9766 101.771 69.098 101.708 69.1849C101.67 69.2388 97.8574 74.6549 97.4364 82.4817C97.4314 82.5849 97.346 82.6652 97.2432 82.6652Z" fill="white"/>
<path d="M97.4647 80.3743C97.4329 80.3743 97.4007 80.3665 97.3708 80.3498C96.284 79.7484 95.6822 77.9644 95.6574 77.8884C95.6236 77.7867 95.6787 77.6769 95.7804 77.6432C95.8817 77.6082 95.9922 77.6649 96.0256 77.7662C96.0314 77.7832 96.6049 79.4827 97.5586 80.01C97.6521 80.0619 97.6862 80.1799 97.6343 80.2738C97.5993 80.3382 97.533 80.3743 97.4647 80.3743Z" fill="white"/>
<path d="M97.6549 79.1987C97.568 79.1987 97.4888 79.1405 97.4671 79.0525C97.4407 78.9481 97.5036 78.8429 97.6072 78.8169C100.408 78.1088 101.378 76.641 101.387 76.6263C101.445 76.5363 101.565 76.5103 101.655 76.5673C101.745 76.6247 101.772 76.7442 101.714 76.8343C101.673 76.8998 100.665 78.4437 97.7022 79.1925C97.6867 79.1968 97.6708 79.1987 97.6549 79.1987Z" fill="white"/>
<path d="M52.7125 77.7872C52.7125 77.7872 48.992 76.8801 48.7983 69.9135C48.5892 62.3937 49.7101 53.621 45.3219 52.9075C40.934 52.194 38.4717 57.5744 38.528 63.827C38.5773 69.3168 40.7881 81.2284 52.7121 83.563L52.7125 77.7872Z" fill="#945DDC"/>
<path opacity="0.2" d="M52.7125 77.7872C52.7125 77.7872 48.992 76.8801 48.7983 69.9135C48.5892 62.3937 49.7101 53.621 45.3219 52.9075C40.934 52.194 38.4717 57.5744 38.528 63.827C38.5773 69.3168 40.7881 81.2284 52.7121 83.563L52.7125 77.7872Z" fill="black"/>
<path d="M52.7121 82.8469C52.7004 82.8469 52.6888 82.8457 52.6771 82.8437C49.9941 82.3549 47.8105 80.8789 46.1863 78.4566C41.3658 71.2654 42.8844 57.8422 43.383 55.4975C43.4055 55.3924 43.5079 55.3264 43.6131 55.3481C43.7178 55.3706 43.7846 55.4735 43.7625 55.5782C43.2693 57.8969 41.7631 71.1622 46.5083 78.2409C48.0716 80.5728 50.1703 81.9929 52.7462 82.462C52.8517 82.4814 52.9216 82.5826 52.9022 82.6878C52.8859 82.7813 52.804 82.8469 52.7121 82.8469Z" fill="white"/>
<path d="M52.7125 100.732C48.8655 101.253 42.6171 101.244 39.018 98.4051C35.4189 95.5665 36.1674 93.1198 37.5522 92.0993C38.9366 91.0785 40.139 89.9122 37.7574 87.6474C35.3755 85.3827 31.5471 81.7432 30.3094 76.2833C29.0713 70.8237 29.6808 67.4117 32.1171 66.2736C34.4811 65.1698 35.1039 66.9236 36.5507 70.5401C37.9976 74.157 41.2541 71.0561 44.0384 72.1852C46.8223 73.3139 46.7132 75.5492 46.8886 77.4706C47.0644 79.3915 47.9835 79.9227 49.56 79.9227C51.1364 79.9227 52.7117 80.8326 52.7121 82.6523L52.7125 100.732Z" fill="#945DDC"/>
<path d="M52.7125 94.3929C52.6954 94.3929 52.6775 94.3906 52.6601 94.3859C52.4936 94.3393 48.5151 93.1812 42.725 87.8621C36.5565 82.1957 33.6442 73.7005 33.6155 73.6155C33.5813 73.5138 33.6357 73.4036 33.7373 73.3695C33.839 73.3361 33.9488 73.3901 33.9829 73.4909C34.0112 73.5755 36.8941 81.9788 42.9872 87.5761C48.7002 92.8238 52.7249 94.0006 52.7648 94.0119C52.868 94.041 52.9278 94.1477 52.8991 94.2513C52.875 94.337 52.7974 94.3929 52.7125 94.3929Z" fill="white"/>
<path d="M44.3363 89.216C44.2587 89.216 44.1854 89.1691 44.1555 89.0926C42.9104 85.8928 42.6284 79.0527 42.6171 78.7633C42.6128 78.6566 42.6963 78.5662 42.8033 78.5615C42.9027 78.5627 43.0004 78.6407 43.0047 78.7478C43.0074 78.818 43.2957 85.8125 44.5171 88.9514C44.5559 89.0515 44.5067 89.164 44.4066 89.2028C44.3833 89.2117 44.3596 89.216 44.3363 89.216Z" fill="white"/>
<path d="M44.3038 93.8186C43.7008 93.8186 43.2837 93.7713 43.2333 93.7651C43.127 93.7526 43.0509 93.656 43.0633 93.5493C43.0761 93.4434 43.1716 93.3643 43.2791 93.3798C43.3152 93.3833 46.9251 93.7914 48.583 92.1005C48.6575 92.0233 48.7809 92.0233 48.8573 92.0974C48.9338 92.1723 48.9349 92.2957 48.8601 92.3718C47.6468 93.6099 45.5679 93.8186 44.3038 93.8186Z" fill="white"/>
<path d="M41.5094 20.3479L41.0927 17.9287L38.9339 19.3492C38.7178 18.9356 38.4399 18.6034 38.1133 18.3528L39.1461 15.5588L37.2232 15.1289L35.8023 17.8364C35.3317 17.9089 34.8347 18.0676 34.3225 18.3183L33.7075 16.2778L31.4043 18.0886L31.5553 20.4942C31.0889 21.0129 30.6625 21.5802 30.2819 22.1769L28.3787 22.083L27.0444 25.0737L28.6786 25.7706C28.506 26.4139 28.395 27.0521 28.3558 27.666L26.2812 29.5738L26.6979 31.9929L28.8563 30.5725C29.0725 30.9861 29.3503 31.3182 29.6774 31.5689L28.6441 34.3628L30.5674 34.7927L32.5998 32.8112C33.0708 32.7391 32.956 31.8544 33.4681 31.6038L34.0827 33.6443L36.3863 31.8335L36.3269 30.8871C36.7929 30.3688 38.5532 29.2242 38.9339 28.6274L39.4119 27.839L40.7462 24.8483L40.1246 23.7223L39.4348 22.2561L41.5094 20.3479ZM34.4742 28.3213C32.7072 29.7103 32.1691 30.0134 31.8494 28.1576C31.5297 26.3018 32.5633 23.4717 34.3306 22.0826C36.0976 20.6932 36.7758 20.5896 37.0951 22.4454C37.4145 24.3012 36.2412 26.9319 34.4742 28.3213Z" fill="#E0E0E0"/>
<path d="M37.2236 15.1289L39.7393 16.5796L38.3189 19.2871L35.8023 17.836L37.2236 15.1289Z" fill="#F5F5F5"/>
<path d="M43.6093 19.3798L41.4508 20.8003L38.9343 19.3492L41.0931 17.9287L43.6093 19.3798Z" fill="#F5F5F5"/>
<path d="M43.2624 26.2997L41.6285 25.6025L39.1124 24.1514L40.7462 24.8486L43.2624 26.2997Z" fill="#E0E0E0"/>
<path d="M28.6441 34.3633L31.1607 35.8144L32.1935 33.0205L29.6773 31.5693L28.6441 34.3633Z" fill="#E0E0E0"/>
<path d="M36.5996 35.0951L34.083 33.644L33.4684 31.6035L35.9846 33.0546L36.5996 35.0951Z" fill="#E0E0E0"/>
<path d="M44.0256 21.7991L43.6089 19.3799L41.4505 20.8004C41.2343 20.3867 40.9561 20.0546 40.6294 19.804L41.6627 17.01L39.7394 16.5801L38.3185 19.2875C37.8479 19.3601 37.3505 19.5188 36.8383 19.7694L36.2233 17.7289L33.9201 19.5397L34.0711 21.9453C33.6051 22.4637 33.1783 23.0314 32.7977 23.6281L30.8945 23.5342L29.5602 26.5249L31.1944 27.2218C31.0218 27.8651 30.9112 28.5033 30.8716 29.1175L28.797 31.0253L29.2137 33.4445L31.3722 32.024C31.5883 32.4373 31.8661 32.7698 32.1928 33.0204L31.1599 35.8144L33.0832 36.2443L34.5041 33.5368C34.9747 33.4647 35.4718 33.3056 35.9839 33.0549L36.5989 35.0954L38.9021 33.2846L38.7511 30.879C39.2175 30.3607 39.6439 29.793 40.0246 29.1963L41.9277 29.2902L43.2616 26.2995L41.6274 25.6026C41.8 24.9593 41.911 24.3211 41.9498 23.7072L44.0256 21.7991ZM36.9904 29.7725C35.2234 31.1619 33.5318 30.7832 33.212 28.9274C32.8923 27.0716 34.066 24.4406 35.833 23.0515C37.5999 21.6621 39.2912 22.0404 39.6109 23.8962C39.9307 25.7524 38.7573 28.383 36.9904 29.7725Z" fill="#EBEBEB"/>
<path d="M36.2237 17.7285L33.7075 16.2773L31.4044 18.0881L33.9205 19.5393L36.2237 17.7285Z" fill="#F5F5F5"/>
<path d="M31.4044 18.0879L31.5553 20.4935L34.0711 21.9442L33.9205 19.539L31.4044 18.0879Z" fill="#E0E0E0"/>
<path d="M32.798 23.628L30.2815 22.1769L28.3787 22.083L30.8949 23.5341L32.798 23.628Z" fill="#F5F5F5"/>
<path d="M28.3787 22.083L27.0444 25.0737L29.5606 26.5248L30.8949 23.5341L28.3787 22.083Z" fill="#E0E0E0"/>
<path d="M30.872 29.1171L28.3558 27.666L26.2812 29.5738L28.7974 31.0249L30.872 29.1171Z" fill="#F5F5F5"/>
<path d="M29.2141 33.4445L26.6979 31.9934L26.2812 29.5742L28.7974 31.0253L29.2141 33.4445Z" fill="#E0E0E0"/>
<path d="M39.7394 16.5796L37.2236 15.1289L39.1465 15.5588L41.6627 17.0099L39.7394 16.5796Z" fill="#F5F5F5"/>
<path d="M30.2361 9.37532V5.76188L27.3606 7.05819C27.1872 6.39083 26.9233 5.81892 26.5838 5.34672L28.3954 1.6937L26.1826 0.416016L23.9249 3.81179C23.3464 3.75398 22.719 3.81102 22.0543 3.99493L21.7389 0.856396L18.6101 2.66292L18.2946 6.1654C17.63 6.74934 17.0026 7.4167 16.4241 8.14226L14.1663 7.35384L11.9535 11.1861L13.7651 12.747C13.426 13.6107 13.1618 14.488 12.9883 15.3556L10.1129 17.3798V20.9928L12.9883 19.6965C13.1618 20.3639 13.426 20.9358 13.7651 21.408L11.9535 25.061L14.1663 26.3383L16.4241 22.9429C17.0026 23.0007 17.63 22.9433 18.2946 22.7598L18.6101 25.8983L21.7389 24.0918L22.0543 20.5893C22.9867 20.2781 23.9846 19.5564 24.5627 18.8309L26.1823 19.4012L28.395 15.569L27.0374 14.3991C27.3765 13.5355 27.4126 12.1546 27.3598 11.3999L30.2361 9.37532ZM20.1749 18.3963C17.7743 19.7823 16.2821 18.7991 16.2821 16.0272C16.2821 13.2553 18.2659 9.85955 20.6665 8.47361C23.067 7.08768 24.5212 8.0957 24.5212 10.8676C24.5216 13.6398 22.5754 17.0104 20.1749 18.3963Z" fill="#E0E0E0"/>
<path d="M28.6992 1.86713L26.1826 0.416016L23.9252 3.81179L26.4414 5.26252L28.6992 1.86713Z" fill="#F5F5F5"/>
<path d="M32.7522 7.21308L30.2361 5.76196L27.3606 7.05827L29.8768 8.50939L32.7522 7.21308Z" fill="#F5F5F5"/>
<path d="M21.1266 27.3494L18.6104 25.8983L18.295 22.7598L20.8116 24.2109L21.1266 27.3494Z" fill="#E0E0E0"/>
<path d="M11.9543 25.061L14.4705 26.5121L16.282 22.8591L13.7659 21.408L11.9543 25.061Z" fill="#E0E0E0"/>
<path d="M32.7522 10.8265V7.21305L29.8768 8.50936C29.7033 7.842 29.4391 7.27009 29.1 6.79789L30.9116 3.14487L28.6988 1.86719L26.441 5.26296C25.8629 5.20515 25.2355 5.26219 24.5709 5.4461L24.2554 2.30796L21.1266 4.11448L20.8112 7.61696C20.1465 8.2009 19.5191 8.86826 18.9406 9.59382L16.6828 8.8054L14.4701 12.6381L16.2816 14.199C15.9425 15.0627 15.6783 15.9396 15.5049 16.8071L12.6294 18.8313V22.4444L15.5049 21.1481C15.6783 21.8154 15.9425 22.3873 16.2816 22.8595L14.4701 26.5126L16.6828 27.7899L18.9406 24.3945C19.5191 24.4519 20.1465 24.3949 20.8112 24.2113L21.1266 27.3499L24.2554 25.5433L24.5709 22.0409C25.2355 21.4573 25.8629 20.7896 26.441 20.0644L28.6988 20.8528L30.9116 17.0205L29.1 15.4596C29.4391 14.5959 29.7033 13.719 29.8768 12.8515L32.7522 10.8265ZM22.691 19.8475C20.2905 21.2334 18.3442 20.1098 18.3442 17.3379C18.3442 14.566 20.2905 11.1951 22.691 9.80916C25.0916 8.42322 27.0378 9.54687 27.0378 12.3187C27.0378 15.091 25.0916 18.4616 22.691 19.8475Z" fill="#EBEBEB"/>
<path d="M16.4248 8.14193L18.941 9.59305L16.6832 8.80464L14.1671 7.35352L16.4248 8.14193Z" fill="#F0F0F0"/>
<path d="M14.1631 7.3542L11.9523 11.1873L14.4683 12.6384L16.6791 8.80532L14.1631 7.3542Z" fill="#F5F5F5"/>
<path d="M11.9543 11.1865L14.4705 12.6376L16.282 14.199L13.7659 12.7474L11.9543 11.1865Z" fill="#E0E0E0"/>
<path d="M12.9895 15.3555L15.5057 16.8066L12.6302 18.8308L10.1136 17.3797L12.9895 15.3555Z" fill="#F5F5F5"/>
<path d="M10.1136 17.3799L12.6302 18.831V22.4437L10.1136 20.9929V17.3799Z" fill="#E0E0E0"/>
<path d="M24.2559 2.30756L21.7393 0.856445L18.6105 2.66297L21.1267 4.11409L24.2559 2.30756Z" fill="#F5F5F5"/>
<path d="M56.5367 105.924L93.0184 84.8616C93.3893 84.647 93.3897 84.2998 93.0188 84.0848L89.6439 82.1324C89.273 81.9175 88.6712 81.9171 88.2999 82.1316L51.8085 103.194C51.4372 103.409 51.4372 103.756 51.8085 103.97L55.1927 105.924C55.564 106.138 56.1658 106.138 56.5367 105.924Z" fill="#E0E0E0"/>
<path d="M92.0099 3.54807L59.1203 22.5368C58.1926 23.0726 57.4403 24.3755 57.4403 25.4468V103.462C57.4403 104.534 58.1926 104.968 59.1203 104.432L92.0103 85.4436C92.9384 84.9078 93.6904 83.6049 93.6904 82.5336L93.69 4.51846C93.69 3.44681 92.9376 3.01225 92.0099 3.54807Z" fill="#455A64"/>
<path d="M59.1204 22.5368L92.01 3.5481C92.8399 3.06931 93.5271 3.36729 93.6641 4.20149C93.538 3.20161 92.8485 2.09232 92.01 1.6081L90.6423 0.818131C89.7142 0.282303 88.2096 0.282303 87.2819 0.818131L54.3927 19.8069C53.9286 20.0746 53.5088 20.5344 53.2046 21.0609L57.9328 23.7904C58.2366 23.2643 58.6568 22.8049 59.1204 22.5368Z" fill="#37474F"/>
<path d="M52.7125 100.732C52.7125 101.803 53.4645 103.106 54.3926 103.642L55.7607 104.432C56.5995 104.916 57.9059 104.958 58.8352 104.567C58.0436 104.867 57.4403 104.421 57.4403 103.462V25.4464C57.4403 24.9105 57.6285 24.3169 57.9327 23.7904L53.2045 21.0608C52.9003 21.5873 52.7125 22.1809 52.7125 22.7168V100.732Z" fill="#263238"/>
<path d="M60.0249 32.9345L91.106 14.9898C91.6632 14.6682 92.1144 14.9289 92.1144 15.5718L92.1148 73.3004C92.1148 73.9433 91.6632 74.7252 91.1064 75.0464L60.0253 92.9914C59.4685 93.3127 59.0172 93.052 59.0172 92.4094L59.0168 34.6808C59.0165 34.0375 59.4681 33.2557 60.0249 32.9345Z" fill="white"/>
<path d="M75.5654 16.0022C75.2391 16.1907 74.9745 16.649 74.9745 17.0257C74.9745 17.4028 75.2395 17.5553 75.5654 17.3668C75.8921 17.1786 76.1563 16.7204 76.1563 16.3432C76.1563 15.9665 75.8921 15.8136 75.5654 16.0022Z" fill="#37474F"/>
<path d="M75.5661 86.7904C74.2772 87.5346 73.2323 89.3442 73.2323 90.8326C73.2323 92.3206 74.2768 92.9239 75.5661 92.1797C76.8547 91.4359 77.8996 89.6263 77.8996 88.1379C77.8992 86.65 76.8547 86.0466 75.5661 86.7904Z" fill="#37474F"/>
<path d="M69.9829 22.0076C69.3303 22.3847 68.801 23.3011 68.801 24.055C68.801 24.8089 69.3303 25.1143 69.9833 24.7375C70.6363 24.3608 71.1651 23.4443 71.1651 22.6904C71.1651 21.9362 70.6359 21.6308 69.9829 22.0076Z" fill="#37474F"/>
<path d="M72.873 21.7515C72.873 22.254 73.2494 22.4445 73.7131 22.1764L81.4898 17.6868C81.9534 17.4191 82.3298 16.7944 82.3298 16.292C82.3294 15.7895 81.9534 15.599 81.4894 15.8671L73.7131 20.3567C73.2494 20.6248 72.873 21.2491 72.873 21.7515Z" fill="#37474F"/>
<path d="M55.328 35.432C55.8503 35.7335 56.2736 36.4668 56.2736 37.0702C56.2736 37.6731 55.8503 37.9176 55.328 37.6161C54.8058 37.3146 54.3821 36.5813 54.3821 35.9783C54.3821 35.3754 54.8058 35.1305 55.328 35.432Z" fill="#37474F"/>
<path d="M55.328 42.7171C55.8503 43.0186 56.2736 43.7519 56.2736 44.3552C56.2736 44.9586 55.8503 45.2026 55.328 44.9011C54.8058 44.5997 54.3821 43.8663 54.3821 43.263C54.3825 42.66 54.8058 42.416 55.328 42.7171Z" fill="#37474F"/>
<path d="M55.0359 35.5786C55.5581 35.8801 55.9818 36.6134 55.9818 37.2163C55.9818 37.8193 55.5585 38.0641 55.0359 37.7622C54.5136 37.4608 54.0903 36.7275 54.0903 36.1245C54.0903 35.5212 54.514 35.2767 55.0359 35.5786Z" fill="#455A64"/>
<path d="M55.0359 42.8638C55.5581 43.1653 55.9818 43.8986 55.9818 44.5019C55.9818 45.1049 55.5585 45.3493 55.0359 45.0479C54.5136 44.7464 54.0903 44.0131 54.0903 43.4097C54.0903 42.8064 54.514 42.5623 55.0359 42.8638Z" fill="#455A64"/>
<path d="M98.4185 17.3971C98.4185 16.7542 97.9672 16.4938 97.4101 16.8151L93.6899 18.9631L66.3289 34.7601C65.7722 35.0818 65.3209 35.8632 65.3209 36.5061L65.3213 94.2347C65.3213 94.8776 65.7726 95.138 66.3293 94.8167L93.7 79.0138L97.4105 76.8717C97.9672 76.55 98.4189 75.7682 98.4189 75.1257L98.4185 17.3971Z" fill="white" stroke="#945DDC" stroke-miterlimit="10"/>
<path d="M65.8789 95.1484C65.7497 95.1484 65.6282 95.1174 65.5196 95.0549C65.2666 94.9086 65.1273 94.6172 65.1273 94.2343L65.127 36.5057C65.127 35.7902 65.6123 34.9494 66.232 34.5917L93.593 18.7947L93.787 19.1307L66.426 34.9277C65.9321 35.2129 65.515 35.9354 65.515 36.5057L65.5153 94.2343C65.5153 94.4694 65.5875 94.646 65.7136 94.7189C65.8397 94.7918 66.0287 94.7655 66.2324 94.6483L93.603 78.8454L93.797 79.1811L66.4264 94.9835C66.237 95.0937 66.0508 95.1484 65.8789 95.1484Z" fill="#945DDC" stroke="#945DDC" stroke-miterlimit="10"/>
<path d="M93.7971 79.1813L93.6031 78.8457L97.3135 76.704C97.8075 76.4184 98.225 75.6955 98.225 75.126L98.2246 17.3974C98.2246 17.1622 98.1524 16.9857 98.0263 16.9128C97.901 16.8402 97.7116 16.8654 97.5072 16.9834L93.787 19.1313L93.593 18.7953L97.3132 16.6474C97.6445 16.4561 97.9669 16.4305 98.2203 16.5768C98.4729 16.723 98.6126 17.014 98.6126 17.3974L98.613 75.126C98.613 75.841 98.1276 76.6818 97.5075 77.04L93.7971 79.1813Z" fill="#945DDC" stroke="#945DDC" stroke-miterlimit="10"/>
<path d="M81.87 30.8125C85.3519 28.8022 88.1742 30.4318 88.1742 34.4523C88.1742 38.4727 85.3519 43.3611 81.87 45.3718C78.3881 47.382 75.5658 45.7524 75.5658 41.7319C75.5658 37.7115 78.3881 32.8227 81.87 30.8125Z" fill="#945DDC"/>
<path d="M81.87 33.9769C82.9995 33.3246 83.9151 33.8535 83.9151 35.1575C83.9151 36.462 82.9995 38.0481 81.87 38.7C80.7405 39.3522 79.8245 38.8234 79.8245 37.5189C79.8245 36.2148 80.7405 34.6291 81.87 33.9769Z" fill="#945DDC"/>
<path d="M85.8564 40.9315C85.8564 38.7886 84.3517 37.9198 82.4963 38.9915L81.3362 39.6612C79.4807 40.7325 77.9761 43.3383 77.9761 45.4812V46.0578C79.0489 46.4139 80.3991 46.2211 81.87 45.3714C83.3825 44.498 84.7703 43.0806 85.8564 41.4281V40.9315Z" fill="#945DDC"/>
<path opacity="0.7" d="M81.87 33.9759C82.9995 33.3237 83.9151 33.8525 83.9151 35.1566C83.9151 36.461 82.9995 38.0472 81.87 38.699C80.7405 39.3512 79.8245 38.8224 79.8245 37.5179C79.8245 36.2139 80.7405 34.6281 81.87 33.9759Z" fill="white"/>
<path opacity="0.7" d="M85.8564 40.9305C85.8564 38.7876 84.3517 37.9189 82.4963 38.9905L81.3362 39.6602C79.4807 40.7315 77.9761 43.3373 77.9761 45.4802V46.0568C79.0489 46.413 80.3991 46.2201 81.87 45.3704C83.3825 44.497 84.7703 43.0797 85.8564 41.4272V40.9305Z" fill="white"/>
<path d="M69.6717 54.2376L77.784 49.5541C78.1553 49.3399 78.4564 49.5137 78.4564 49.9421V50.2098C78.4564 50.6386 78.1557 51.1596 77.784 51.3738L69.6717 56.0574C69.3007 56.2719 68.9996 56.0981 68.9996 55.6694V55.4016C68.9996 54.9729 69.3007 54.4518 69.6717 54.2376Z" fill="#945DDC"/>
<path opacity="0.1" d="M69.6717 54.2376L77.784 49.5541C78.1553 49.3399 78.4564 49.5137 78.4564 49.9421V50.2098C78.4564 50.6386 78.1557 51.1596 77.784 51.3738L69.6717 56.0574C69.3007 56.2719 68.9996 56.0981 68.9996 55.6694V55.4016C68.9996 54.9729 69.3007 54.4518 69.6717 54.2376Z" fill="black"/>
<path d="M69.336 59.8912L93.8809 45.7202C94.0664 45.6131 94.2169 45.6997 94.2169 45.9142V48.7781C94.2169 48.9922 94.0664 49.253 93.8809 49.3601L69.336 63.531C69.1505 63.6381 69 63.5512 69 63.337V60.4732C69 60.259 69.1505 59.9983 69.336 59.8912Z" fill="#945DDC"/>
<path opacity="0.2" d="M69.336 59.8912L93.8809 45.7202C94.0664 45.6131 94.2169 45.6997 94.2169 45.9142V48.7781C94.2169 48.9922 94.0664 49.253 93.8809 49.3601L69.336 63.531C69.1505 63.6381 69 63.5512 69 63.337V60.4732C69 60.259 69.1505 59.9983 69.336 59.8912Z" fill="white"/>
<path d="M69.6717 66.9767L77.784 62.2932C78.1553 62.079 78.4564 62.2524 78.4564 62.6812V62.9489C78.4564 63.3773 78.1557 63.8987 77.784 64.1129L69.6717 68.7964C69.3007 69.011 68.9996 68.8368 68.9996 68.4085V68.1407C68.9996 67.712 69.3007 67.1913 69.6717 66.9767Z" fill="#945DDC"/>
<path opacity="0.1" d="M69.6717 66.9767L77.784 62.2932C78.1553 62.079 78.4564 62.2524 78.4564 62.6812V62.9489C78.4564 63.3773 78.1557 63.8987 77.784 64.1129L69.6717 68.7964C69.3007 69.011 68.9996 68.8368 68.9996 68.4085V68.1407C68.9996 67.712 69.3007 67.1913 69.6717 66.9767Z" fill="black"/>
<path d="M69.336 72.6304L93.8809 58.4594C94.0664 58.3523 94.2169 58.4392 94.2169 58.6534V61.5172C94.2169 61.7314 94.0664 61.9922 93.8809 62.0992L69.336 76.2702C69.1505 76.3773 69 76.2907 69 76.0762V73.2124C69 72.9982 69.1505 72.7378 69.336 72.6304Z" fill="#945DDC"/>
<path opacity="0.2" d="M69.336 72.6304L93.8809 58.4594C94.0664 58.3523 94.2169 58.4392 94.2169 58.6534V61.5172C94.2169 61.7314 94.0664 61.9922 93.8809 62.0992L69.336 76.2702C69.1505 76.3773 69 76.2907 69 76.0762V73.2124C69 72.9982 69.1505 72.7378 69.336 72.6304Z" fill="white"/>
<path d="M79.1284 74.2569L88.8168 68.6635C89.1881 68.4489 89.4888 68.6227 89.4888 69.0515V72.0492C89.4888 72.4775 89.1881 72.999 88.8168 73.2132L79.1284 78.807C78.7571 79.0211 78.4564 78.8473 78.4564 78.419V75.4209C78.4564 74.9921 78.7571 74.471 79.1284 74.2569Z" fill="#945DDC"/>
<path opacity="0.1" d="M79.1284 74.2569L88.8168 68.6635C89.1881 68.4489 89.4888 68.6227 89.4888 69.0515V72.0492C89.4888 72.4775 89.1881 72.999 88.8168 73.2132L79.1284 78.807C78.7571 79.0211 78.4564 78.8473 78.4564 78.419V75.4209C78.4564 74.9921 78.7571 74.471 79.1284 74.2569Z" fill="black"/>
<path d="M102.098 61.616C102.098 61.616 97.331 55.0406 97.0404 54.2584C96.8212 53.6686 97.0555 52.7914 97.1099 52.3836C97.1646 51.9762 97.2433 51.0683 97.3108 50.8157C97.4296 50.3749 96.858 50.4653 96.5376 50.8661C96.2093 51.2766 96.1042 52.0782 95.9408 52.2098C95.7779 52.3413 94.5041 50.4913 93.8394 49.635C93.1752 48.7783 92.7596 48.2626 92.3557 48.58C92.0647 48.8085 92.2816 49.3075 92.7631 50.0366C93.2446 50.7656 93.4584 51.1036 93.5309 51.2599C93.6039 51.4167 93.2073 51.4291 92.9936 51.7581C92.8267 52.015 92.9823 52.4305 92.7612 52.6288C92.54 52.8271 92.3336 53.1836 92.5761 53.5856C92.8849 54.0974 93.5046 54.8291 94.2169 55.3227C94.9297 55.8166 95.2184 55.99 95.6386 56.6621C96.0592 57.3337 99.8569 64.1904 100.112 64.6017C100.366 65.0134 100.862 65.8514 101.611 65.8751C102.36 65.8996 108.489 60.622 108.805 60.3585C109.815 59.5162 110.134 59.3924 110.308 60.1513C110.363 60.3888 110.398 60.6592 110.436 60.9654C110.558 61.926 111.212 65.3641 111.212 65.3641C111.212 65.3641 114.312 66.8665 116.864 66.1261C119.417 65.3858 120.273 64.3192 120.273 64.3192L118.996 62.2384C119.344 61.379 120.949 57.9052 121.453 55.4705L113.461 54.18C113.296 54.1443 113.035 54.0784 112.7 53.9903C112.261 53.8747 111.158 53.4874 110.307 54.227C107.558 56.6201 102.098 61.616 102.098 61.616Z" fill="#FFA8A7"/>
<path d="M117.944 101.943L116.511 103.934C116.511 103.934 117.175 104.323 118.592 104.377C119.875 104.426 120.227 104.005 120.274 103.904C120.491 103.44 120.153 102.602 120.06 101.882L117.944 101.943Z" fill="#37474F"/>
<path d="M116.591 102.979C116.591 102.979 114.855 102.868 113.655 102.717C112.454 102.565 111.504 103.152 111.786 103.646C112.069 104.14 112.729 104.551 113.758 104.898C114.639 105.194 115.696 105.41 116.616 105.685C117.559 105.968 118.163 106.29 118.697 106.107C119.293 105.902 119.549 105.663 119.498 105.23C119.448 104.796 119.016 103.399 119.016 103.399L116.591 102.979Z" fill="#37474F"/>
<path d="M120.274 99.9424C120.274 99.9424 120.057 101.751 120.04 102.139C120.023 102.527 118.275 102.652 117.943 101.943L117.889 99.7317L120.274 99.9424Z" fill="#F28F8F"/>
<path d="M118.511 101.056L119.136 103.799C119.136 103.799 119.195 104.134 117.766 104.347C116.337 104.56 114.096 103.599 113.714 103.404C113.333 103.209 113.287 102.82 114.691 102.898C116.094 102.976 116.591 102.978 116.591 102.978L116.136 101.762L118.511 101.056Z" fill="#FFA8A7"/>
<path d="M121.454 55.4703L122.442 55.1975C122.442 55.1975 124.512 61.7415 124.74 62.372C124.969 63.0021 125.227 63.6745 124.782 64.4544C124.252 65.3829 121.454 69.1193 121.454 69.1193L119.678 67.3811L121.693 63.6897L119.911 60.0789L121.454 55.4703Z" fill="#F28F8F"/>
<path d="M111.282 46.9641C111.282 46.9641 110.489 45.6961 111.323 44.1433C112.307 42.3139 114.505 41.4211 117.121 41.7637C118.33 41.922 119.757 42.9141 120.539 44.4293C121.399 46.093 121.479 49.4469 121.693 50.7149L111.282 46.9641Z" fill="#37474F"/>
<path d="M111.222 47.6799C111.222 47.6799 110.6 48.8633 110.708 48.9712C110.816 49.0787 111.23 49.166 111.23 49.166L111.222 47.6799Z" fill="#FFA8A7"/>
<path d="M113.108 43.9381C112.432 44.3789 111.269 45.1844 111.218 47.8438C111.165 50.5737 111.551 51.4537 111.954 51.7703C112.227 51.9837 113.82 51.8755 114.504 51.7148C115.189 51.5542 117.156 50.5823 117.864 49.104C118.697 47.3654 118.529 44.8193 117.289 44.0802C115.545 43.0399 113.68 43.5653 113.108 43.9381Z" fill="#FFA8A7"/>
<path d="M120.274 64.3198C121.47 66.1818 122.608 67.8219 122.85 69.9144C123.362 74.3337 121.681 79.3859 121.325 82.6536C121.325 82.6536 122.454 84.1214 122.453 85.8461C122.452 87.1963 120.274 99.9425 120.274 99.9425C120.274 99.9425 118.69 100.425 117.889 99.7318L116.392 76.2834L117.181 73.4289L120.274 64.3198Z" fill="#945DDC"/>
<path opacity="0.2" d="M120.274 64.3198C121.47 66.1818 122.608 67.8219 122.85 69.9144C123.362 74.3337 121.681 79.3859 121.325 82.6536C121.325 82.6536 122.454 84.1214 122.453 85.8461C122.452 87.1963 120.274 99.9425 120.274 99.9425C120.274 99.9425 118.69 100.425 117.889 99.7318L116.392 76.2834L117.181 73.4289L120.274 64.3198Z" fill="black"/>
<path d="M116.392 76.2837L117.181 73.4292C117.181 73.4292 119.367 72.9011 121.454 71.7344C121.454 71.7344 120.645 73.2033 118.328 74.0088L117.121 77.6785L117.017 86.0764L116.392 76.2837Z" fill="#945DDC"/>
<path opacity="0.3" d="M116.392 76.2837L117.181 73.4292C117.181 73.4292 119.367 72.9011 121.454 71.7344C121.454 71.7344 120.645 73.2033 118.328 74.0088L117.121 77.6785L117.017 86.0764L116.392 76.2837Z" fill="black"/>
<path d="M120.273 64.3198C120.914 65.3647 122.444 67.1514 122.119 68.8683C121.724 70.9488 120.605 72.4112 117.181 73.4293L113.969 85.06C113.969 85.06 115.642 86.6248 116.153 88.1135C116.664 89.6019 118.511 101.056 118.511 101.056C118.511 101.056 117.94 101.988 116.136 101.762C116.136 101.762 109.846 87.3969 109.402 86.4719C108.958 85.5469 108.67 84.8555 108.87 83.3489C109.07 81.8427 111.213 65.3643 111.213 65.3643L120.273 64.3198Z" fill="#945DDC"/>
<path opacity="0.2" d="M120.273 64.3198C120.914 65.3647 122.444 67.1514 122.119 68.8683C121.724 70.9488 120.605 72.4112 117.181 73.4293L113.969 85.06C113.969 85.06 115.642 86.6248 116.153 88.1135C116.664 89.6019 118.511 101.056 118.511 101.056C118.511 101.056 117.94 101.988 116.136 101.762C116.136 101.762 109.846 87.3969 109.402 86.4719C108.958 85.5469 108.67 84.8555 108.87 83.3489C109.07 81.8427 111.213 65.3643 111.213 65.3643L120.273 64.3198Z" fill="black"/>
<path d="M121.454 55.4705L113.461 54.18C113.297 54.1443 113.033 54.078 112.699 53.9899L112.699 53.9895C112.699 53.9895 112.358 59.0005 110.308 60.1509C110.357 60.39 110.398 60.6588 110.437 60.965C110.558 61.9257 111.212 65.3637 111.212 65.3637C111.212 65.3637 114.312 66.8661 116.865 66.1258C119.417 65.3855 120.273 64.3188 120.273 64.3188L118.996 62.238C119.345 61.3794 120.95 57.9052 121.454 55.4705Z" fill="#945DDC"/>
<path opacity="0.7" d="M121.454 55.4705L113.461 54.18C113.297 54.1443 113.033 54.078 112.699 53.9899L112.699 53.9895C112.699 53.9895 112.358 59.0005 110.308 60.1509C110.357 60.39 110.398 60.6588 110.437 60.965C110.558 61.9257 111.212 65.3637 111.212 65.3637C111.212 65.3637 114.312 66.8661 116.865 66.1258C119.417 65.3855 120.273 64.3188 120.273 64.3188L118.996 62.238C119.345 61.3794 120.95 57.9052 121.454 55.4705Z" fill="white"/>
<path d="M119.345 61.4202C119.313 61.4954 116.776 62.8546 116.022 63.0626C117.211 63.0036 118.198 62.7242 118.996 62.2385L119.345 61.4202Z" fill="#945DDC"/>
<path d="M112.909 44.0725C112.909 44.0725 112.536 46.5956 113.438 48.0754C113.438 48.0754 113.777 47.0713 114.63 47.263C115.489 47.4562 115.526 48.5717 114.929 49.2041C114.332 49.8366 113.669 49.6081 113.669 49.6081C113.669 49.6081 113.534 51.4317 113.463 52.9608C113.393 54.434 112.982 57.8216 114.703 59.1839C116.423 60.5462 120.736 61.0059 122.757 58.1805C123.881 56.6087 122.387 53.8303 121.693 50.7146C121.054 47.85 120.694 43.6049 117.655 42.9236C114.615 42.2426 112.909 44.0725 112.909 44.0725Z" fill="#37474F"/>
<path d="M124.058 9.61171L123.418 9.98186C123.469 9.74596 123.505 9.512 123.505 9.28657C123.505 7.98871 122.594 7.46258 121.47 8.1117C121.142 8.30027 120.838 8.57342 120.564 8.88964C120.564 8.88654 120.565 8.88305 120.565 8.87994C120.565 7.13278 119.338 6.42429 117.825 7.29807C116.312 8.17184 115.085 10.2965 115.085 12.0441C115.085 12.1329 115.09 12.2175 115.096 12.3009C114.776 12.2439 114.394 12.3223 113.983 12.5597C112.859 13.2089 111.948 14.7869 111.948 16.0851C111.948 16.264 111.967 16.4262 111.999 16.5744L111.658 16.7715C110.73 17.3073 109.978 18.3526 109.978 19.1065C109.978 19.86 110.73 20.0369 111.658 19.5014L124.058 12.3421C124.986 11.8062 125.738 10.761 125.738 10.0071C125.738 9.25281 124.986 9.07588 124.058 9.61171Z" fill="#EBEBEB"/>
</svg>
