<svg width="305" height="202" viewBox="0 0 305 202" fill="none" xmlns="http://www.w3.org/2000/svg">
<g clip-path="url(#clip0_95_15841)">
<path d="M13.1523 135.944C21.0587 141.909 55.7836 147.117 93.8153 150.77C93.8051 150.834 93.8017 150.901 93.8017 150.965C82.9151 159.012 68.7081 164.721 54.3037 166.99C75.1958 166.99 94.2882 159.446 112.248 152.399L112.18 152.392C111.948 152.374 111.714 152.353 111.482 152.331H111.486L112.18 152.392C130.598 153.893 148.915 155.006 164.558 155.647C164.769 155.654 164.98 155.664 165.191 155.671C148.626 167.424 123.264 178.914 105.668 184.556C105.583 184.584 105.535 184.666 105.556 184.751C105.573 184.822 105.634 184.876 105.706 184.883C105.719 184.883 105.733 184.883 105.743 184.883C127.285 182.233 159.689 170.234 177.588 156.141C200.358 156.945 222.869 157.425 242.877 157.703C229.068 170.217 210.795 182.752 197.143 190.183C197.065 190.226 197.034 190.318 197.068 190.396C197.099 190.464 197.167 190.503 197.238 190.496C197.252 190.496 197.265 190.492 197.276 190.489C214.33 185.022 237.447 171.91 253.376 157.831C282.086 158.151 304.192 158.073 312.003 158.03V132.258C213.881 146.836 111.016 151.503 13.1523 135.944Z" fill="#807BB0"/>
<path d="M4.72876 154.195C6.74959 152.499 8.54588 149.19 10.332 147.234C12.118 145.278 14.0402 143.392 16.3672 142.172C18.6942 140.952 21.4907 140.468 23.9402 141.393C26.3897 142.322 28.3221 144.872 28.0941 147.543C27.9036 149.795 26.3183 151.67 24.5628 153.036C18.963 157.39 10.7742 157.866 4.72876 154.195Z" fill="#65D1CA"/>
<path d="M26.4815 143.157C26.4815 143.157 26.2706 143.367 25.9066 143.734C25.5358 144.104 25.0187 144.598 24.3518 145.174C23.6952 145.761 22.889 146.391 22.0044 147.045C21.1131 147.689 20.1299 148.33 19.1229 148.924C18.1057 149.507 17.0646 150.044 16.0644 150.499C15.0608 150.944 14.1082 151.332 13.2747 151.613C12.4446 151.908 11.7404 152.114 11.2471 152.249C10.7504 152.385 10.468 152.459 10.468 152.459C10.468 152.459 10.7538 152.395 11.2539 152.285C11.754 152.171 12.4684 151.997 13.3121 151.741C14.1593 151.499 15.1322 151.15 16.1631 150.748C17.1905 150.336 18.2621 149.841 19.3168 149.297C20.3646 148.742 21.3852 148.137 22.3208 147.526C23.2462 146.903 24.0967 146.295 24.7907 145.729C25.4915 145.178 26.0665 144.669 26.4475 144.324C26.8285 143.976 27.0497 143.773 27.0497 143.773C27.2198 143.62 27.2334 143.353 27.0837 143.179C26.934 143.004 26.6755 142.99 26.5054 143.147C26.4883 143.15 26.4849 143.154 26.4815 143.157Z" fill="#4AA5A2"/>
<path d="M24.3315 145.498C24.3315 145.498 24.3655 145.975 24.3144 146.658C24.2702 147.352 24.1137 148.277 23.8348 149.169C23.5558 150.062 23.1646 150.916 22.7937 151.51C22.4297 152.111 22.1201 152.463 22.1201 152.463C22.1201 152.463 22.4467 152.129 22.8482 151.549C23.2564 150.973 23.7055 150.133 24.0389 149.244C24.3723 148.351 24.5934 147.416 24.6785 146.697C24.7737 145.971 24.7635 145.498 24.7635 145.498V145.477C24.7601 145.353 24.6615 145.253 24.539 145.253C24.4165 145.256 24.3213 145.36 24.3213 145.484C24.3281 145.491 24.3281 145.495 24.3315 145.498Z" fill="#4AA5A2"/>
<path d="M19.361 148.877C19.361 148.877 19.3236 149.262 19.2079 149.809C19.0956 150.364 18.8915 151.097 18.6159 151.805C18.3404 152.509 17.9899 153.189 17.6565 153.648C17.3299 154.114 17.0408 154.366 17.0408 154.366C17.0408 154.366 17.347 154.139 17.711 153.694C18.0852 153.256 18.4901 152.598 18.8269 151.901C19.1603 151.204 19.429 150.471 19.5855 149.909C19.7488 149.34 19.8169 148.963 19.8169 148.963L19.8203 148.949C19.8441 148.817 19.759 148.693 19.6331 148.671C19.5073 148.646 19.3848 148.735 19.361 148.863C19.3644 148.867 19.3644 148.87 19.361 148.877Z" fill="#4AA5A2"/>
<path d="M14.6866 151.108C14.6866 151.108 14.6049 151.371 14.445 151.737C14.2851 152.111 14.0368 152.591 13.7408 153.046C13.4448 153.502 13.1012 153.925 12.8086 154.206C12.5195 154.491 12.2949 154.647 12.2949 154.647C12.2949 154.647 12.5297 154.508 12.8393 154.242C13.1522 153.978 13.5265 153.573 13.8565 153.135C14.1865 152.694 14.4756 152.221 14.6628 151.848C14.8567 151.474 14.9519 151.214 14.9519 151.214L14.9553 151.204C14.986 151.129 14.9485 151.04 14.8737 151.012C14.7988 150.983 14.7172 151.019 14.6866 151.097C14.69 151.101 14.6866 151.104 14.6866 151.108Z" fill="#4AA5A2"/>
<path d="M24.5491 145.349C24.5491 145.349 24.1681 145.075 23.5183 144.748C22.8787 144.424 21.9874 144.097 21.0688 143.894C20.1502 143.691 19.2113 143.613 18.5104 143.641C17.8096 143.659 17.3503 143.752 17.3503 143.752C17.3503 143.752 17.813 143.688 18.5104 143.713C19.2045 143.727 20.1264 143.862 21.0178 144.114C21.9057 144.367 22.7562 144.741 23.3482 145.089C23.9367 145.427 24.3042 145.726 24.3042 145.726C24.3994 145.804 24.5389 145.786 24.6137 145.69C24.6886 145.591 24.6716 145.448 24.5763 145.374C24.5729 145.37 24.5695 145.37 24.5661 145.367L24.5491 145.349Z" fill="#4AA5A2"/>
<path d="M19.6877 148.7C19.6877 148.7 19.3441 148.543 18.7929 148.365C18.2486 148.184 17.5104 147.999 16.7619 147.892C16.0134 147.789 15.2514 147.764 14.69 147.835C14.1253 147.896 13.7715 148.027 13.7715 148.027C13.7715 148.027 14.1355 147.924 14.6968 147.91C15.2548 147.885 15.9998 147.967 16.7211 148.127C17.4457 148.291 18.1499 148.525 18.6603 148.742C19.1672 148.952 19.4972 149.134 19.4972 149.134C19.6094 149.198 19.7523 149.152 19.8136 149.034C19.8748 148.917 19.8306 148.771 19.7183 148.71C19.7149 148.707 19.7081 148.703 19.7013 148.703L19.6877 148.7Z" fill="#4AA5A2"/>
<path d="M14.8633 151.019C14.8633 151.019 14.6082 150.937 14.1999 150.855C13.7985 150.773 13.2575 150.706 12.7166 150.691C12.1757 150.681 11.6347 150.727 11.2367 150.809C10.8387 150.887 10.5869 150.99 10.5869 150.99C10.5869 150.99 10.8455 150.908 11.2435 150.855C11.6416 150.798 12.1757 150.791 12.7064 150.837C13.2371 150.887 13.761 150.99 14.1421 151.097C14.5231 151.2 14.7715 151.3 14.7715 151.3C14.8463 151.328 14.9279 151.293 14.9586 151.214C14.9858 151.14 14.9518 151.051 14.8769 151.022C14.8735 151.022 14.8701 151.019 14.8667 151.019H14.8633Z" fill="#4AA5A2"/>
<path d="M0.449035 114.121C3.25234 115.921 7.84172 116.785 10.8525 118.186C13.8634 119.588 16.847 121.189 19.2148 123.554C21.5827 125.92 23.2871 129.167 23.1986 132.557C23.1102 135.947 20.9193 139.362 17.7077 140.166C15.0031 140.846 12.1691 139.657 9.86255 138.053C2.50728 132.931 -1.38128 123.053 0.449035 114.121Z" fill="#65D1CA"/>
<path d="M22.1202 136.495C22.1202 136.495 21.7902 136.321 21.2153 136.015C20.6369 135.705 19.8442 135.264 18.8984 134.67C18.4222 134.382 17.9221 134.048 17.3947 133.692C16.864 133.34 16.3265 132.934 15.7617 132.525C14.6527 131.682 13.5062 130.729 12.4039 129.722C11.3152 128.701 10.2674 127.631 9.33184 126.581C8.87597 126.048 8.42349 125.539 8.02545 125.03C7.6206 124.525 7.24298 124.049 6.91298 123.59C6.23596 122.686 5.71205 121.9 5.35823 121.345C5.00442 120.79 4.80029 120.47 4.80029 120.47C4.80029 120.47 4.99421 120.794 5.32761 121.363C5.66442 121.932 6.16452 122.736 6.81091 123.665C7.12731 124.138 7.48792 124.629 7.87916 125.151C8.26019 125.678 8.69906 126.201 9.13793 126.756C10.0429 127.844 11.0601 128.961 12.1249 130.028C13.2034 131.085 14.3261 132.091 15.4215 132.981C15.9795 133.415 16.5068 133.849 17.0341 134.222C17.558 134.603 18.0547 134.962 18.5276 135.272C19.4564 135.905 20.2797 136.399 20.841 136.723C21.4058 137.047 21.729 137.235 21.729 137.235C21.9263 137.349 22.1746 137.278 22.2869 137.075C22.3992 136.872 22.3277 136.616 22.1304 136.502C22.1304 136.502 22.1236 136.499 22.1202 136.495Z" fill="#4AA5A2"/>
<path d="M18.5854 134.759C18.5854 134.759 18.0445 134.99 17.2178 135.204C16.3842 135.428 15.2378 135.599 14.081 135.616C12.9243 135.631 11.7676 135.485 10.9205 135.268C10.4953 135.165 10.1517 135.051 9.91012 134.962C9.67197 134.869 9.53589 134.82 9.53589 134.82C9.53589 134.82 9.66857 134.876 9.90331 134.98C10.1381 135.079 10.4817 135.214 10.9035 135.335C11.7438 135.599 12.9039 135.801 14.0776 135.844C15.2514 135.887 16.4319 135.766 17.2994 135.577C17.7315 135.492 18.1023 135.385 18.3438 135.31C18.5888 135.232 18.7249 135.19 18.7249 135.19L18.7351 135.186C18.8507 135.15 18.9154 135.022 18.8814 134.901C18.8439 134.78 18.7215 134.716 18.6058 134.752C18.599 134.756 18.5922 134.759 18.5854 134.759Z" fill="#4AA5A2"/>
<path d="M12.6148 130.028C12.6148 130.028 12.1521 130.132 11.4615 130.21C10.7641 130.292 9.82509 130.331 8.88612 130.27C7.95056 130.206 7.01499 130.046 6.34478 129.815C6.00798 129.705 5.73581 129.587 5.5487 129.495C5.36499 129.399 5.25952 129.342 5.25952 129.342C5.25952 129.342 5.36158 129.402 5.53849 129.513C5.7188 129.616 5.98416 129.754 6.31756 129.886C6.98097 130.16 7.91653 130.384 8.86231 130.509C9.81148 130.63 10.7709 130.651 11.4887 130.612C12.2133 130.576 12.6828 130.501 12.6828 130.501L12.6964 130.498C12.8223 130.477 12.9108 130.356 12.8904 130.224C12.8699 130.092 12.7509 130.003 12.625 130.025C12.6216 130.025 12.6182 130.025 12.6148 130.028Z" fill="#4AA5A2"/>
<path d="M8.10043 125.155C8.10043 125.155 7.76022 125.159 7.26352 125.109C6.76342 125.063 6.09661 124.942 5.44682 124.76C4.79702 124.575 4.16424 124.319 3.71857 124.074C3.2695 123.832 3.00073 123.615 3.00073 123.615C3.00073 123.615 3.25929 123.846 3.69816 124.113C4.13362 124.387 4.7596 124.678 5.40599 124.902C6.05579 125.123 6.72599 125.279 7.2363 125.358C7.75002 125.44 8.09022 125.454 8.09022 125.454H8.10043C8.17868 125.457 8.24672 125.393 8.25012 125.312C8.25352 125.23 8.19228 125.162 8.11063 125.159C8.10723 125.155 8.10383 125.155 8.10043 125.155Z" fill="#4AA5A2"/>
<path d="M18.7726 134.898C18.7726 134.898 18.8067 134.752 18.8679 134.496C18.9257 134.243 19.0074 133.848 19.0584 133.397C19.1843 132.483 19.2081 131.255 19.0822 130.042C18.9495 128.829 18.6706 127.645 18.3576 126.791C18.2079 126.364 18.0582 126.016 17.9459 125.777C17.8303 125.539 17.7656 125.404 17.7656 125.404C17.7656 125.404 17.8235 125.543 17.9289 125.784C18.0276 126.026 18.1637 126.378 18.2929 126.812C18.5617 127.673 18.7862 128.861 18.8611 130.06C18.9325 131.259 18.8543 132.458 18.691 133.336C18.6161 133.781 18.5311 134.126 18.4596 134.382C18.3882 134.635 18.344 134.78 18.344 134.78C18.31 134.901 18.3746 135.026 18.4937 135.061C18.6093 135.097 18.7318 135.029 18.7692 134.909C18.7726 134.905 18.7726 134.901 18.7726 134.898Z" fill="#4AA5A2"/>
<path d="M12.8802 130.284C12.8802 130.284 12.9278 129.801 12.9176 129.054C12.9142 128.314 12.8359 127.332 12.6658 126.368C12.4923 125.404 12.2202 124.458 11.914 123.796C11.7677 123.462 11.618 123.199 11.5057 123.017C11.3901 122.839 11.322 122.74 11.322 122.74C11.322 122.74 11.3833 122.843 11.4853 123.028C11.584 123.213 11.7167 123.487 11.8425 123.825C12.1045 124.501 12.3188 125.447 12.4311 126.404C12.5434 127.36 12.5604 128.328 12.523 129.047C12.4889 129.758 12.4141 130.242 12.4141 130.242C12.3937 130.373 12.4821 130.494 12.608 130.516C12.7339 130.537 12.8564 130.448 12.8734 130.316C12.8734 130.313 12.8734 130.306 12.8768 130.302L12.8802 130.284Z" fill="#4AA5A2"/>
<path d="M8.23636 125.301C8.23636 125.301 8.22956 124.952 8.16492 124.422C8.10368 123.895 7.9676 123.205 7.76688 122.533C7.56616 121.861 7.29739 121.213 7.04224 120.758C6.79049 120.299 6.57275 120.029 6.57275 120.029C6.57275 120.029 6.77688 120.31 7.00141 120.779C7.23275 121.245 7.4641 121.9 7.62739 122.572C7.79069 123.244 7.88935 123.931 7.92337 124.447C7.9608 124.959 7.94719 125.308 7.94719 125.308C7.94379 125.389 8.00502 125.457 8.08667 125.461C8.16492 125.464 8.23296 125.4 8.23636 125.318C8.23636 125.315 8.23636 125.315 8.23636 125.311V125.301Z" fill="#4AA5A2"/>
<path d="M38.2256 174.635C40.505 173.177 42.7742 170.061 44.846 168.307C46.9213 166.557 49.1258 164.892 51.6467 163.957C54.1677 163.021 57.0662 162.882 59.4205 164.131C61.7747 165.379 63.3805 168.204 62.7885 170.875C62.2884 173.127 60.4275 174.824 58.4645 175.98C52.2013 179.668 43.8458 179.114 38.2256 174.635Z" fill="#65D1CA"/>
<path d="M61.7712 166.258C61.7712 166.258 61.5297 166.443 61.1078 166.767C60.6826 167.09 60.0906 167.528 59.3319 168.026C58.9577 168.282 58.5461 168.538 58.1038 168.805C57.6649 169.079 57.1852 169.339 56.6953 169.616C55.7053 170.15 54.6201 170.672 53.5178 171.146C52.4087 171.604 51.2793 172.014 50.2042 172.344C49.6633 172.497 49.1428 172.661 48.6426 172.782C48.1425 172.91 47.6697 173.024 47.2274 173.113C46.3463 173.305 45.608 173.422 45.0875 173.493C44.567 173.564 44.271 173.607 44.271 173.607C44.271 173.607 44.5704 173.579 45.0909 173.529C45.6114 173.475 46.3599 173.39 47.2478 173.234C47.6935 173.166 48.1732 173.07 48.6801 172.963C49.187 172.864 49.7177 172.721 50.2654 172.59C51.3609 172.298 52.5142 171.935 53.6539 171.519C54.7868 171.089 55.9061 170.605 56.9335 170.103C57.4404 169.84 57.9371 169.598 58.393 169.339C58.8522 169.082 59.2843 168.841 59.6755 168.595C60.458 168.126 61.1078 167.684 61.5399 167.382C61.9753 167.076 62.2237 166.902 62.2237 166.902C62.404 166.777 62.4482 166.528 62.3292 166.347C62.2101 166.166 61.9651 166.123 61.7882 166.247C61.778 166.251 61.7746 166.258 61.7712 166.258Z" fill="#4AA5A2"/>
<path d="M59.2741 168.332C59.2741 168.332 59.2435 168.815 59.0972 169.502C58.9577 170.199 58.6685 171.113 58.2637 171.978C57.8588 172.842 57.3417 173.657 56.8858 174.212C56.4334 174.77 56.0728 175.09 56.0728 175.09C56.0728 175.09 56.4504 174.795 56.9335 174.254C57.4234 173.724 57.9915 172.931 58.4508 172.074C58.9101 171.216 59.2571 170.295 59.4408 169.584C59.6347 168.862 59.6891 168.385 59.6891 168.385L59.6926 168.364C59.7062 168.246 59.6245 168.14 59.5088 168.129C59.3932 168.118 59.2877 168.204 59.2741 168.321C59.2741 168.324 59.2741 168.328 59.2741 168.332Z" fill="#4AA5A2"/>
<path d="M53.7833 171.121C53.7833 171.121 53.6915 171.501 53.4975 172.042C53.307 172.59 52.9974 173.301 52.6198 173.98C52.2422 174.656 51.7931 175.3 51.3916 175.72C50.997 176.147 50.6704 176.367 50.6704 176.367C50.6704 176.367 51.0106 176.175 51.4393 175.77C51.8747 175.375 52.3748 174.759 52.8103 174.098C53.2424 173.436 53.6098 172.728 53.8445 172.181C54.0861 171.626 54.2052 171.252 54.2052 171.252L54.2086 171.238C54.246 171.117 54.1813 170.992 54.0657 170.953C53.95 170.918 53.8241 170.985 53.7867 171.103C53.7867 171.11 53.7833 171.113 53.7833 171.121Z" fill="#4AA5A2"/>
<path d="M48.7381 172.778C48.7381 172.778 48.619 173.035 48.4047 173.387C48.1938 173.742 47.8706 174.198 47.51 174.621C47.1459 175.041 46.7411 175.425 46.4077 175.674C46.0743 175.927 45.8259 176.051 45.8259 176.051C45.8259 176.051 46.0811 175.941 46.4315 175.71C46.7819 175.482 47.2174 175.119 47.612 174.717C48.0033 174.312 48.3605 173.87 48.602 173.515C48.847 173.159 48.9796 172.914 48.9796 172.914L48.983 172.906C49.0205 172.839 48.9967 172.754 48.9286 172.714C48.864 172.679 48.7789 172.704 48.7415 172.771C48.7415 172.775 48.7381 172.775 48.7381 172.778Z" fill="#4AA5A2"/>
<path d="M59.4885 168.218C59.4885 168.218 59.1415 167.891 58.5291 167.482C57.9303 167.073 57.0696 166.624 56.1681 166.301C55.2665 165.981 54.3276 165.778 53.6165 165.714C52.9055 165.643 52.4292 165.675 52.4292 165.675C52.4292 165.675 52.9089 165.668 53.6097 165.778C54.3105 165.881 55.2291 166.134 56.0932 166.496C56.9608 166.863 57.7704 167.347 58.325 167.773C58.8761 168.19 59.2095 168.538 59.2095 168.538C59.2912 168.624 59.4238 168.624 59.5055 168.538C59.5905 168.456 59.5905 168.318 59.5123 168.236C59.5089 168.232 59.5089 168.232 59.5055 168.229L59.4885 168.218Z" fill="#4AA5A2"/>
<path d="M54.1099 170.993C54.1099 170.993 53.7833 170.79 53.2526 170.537C52.7287 170.285 52.0074 170.004 51.2624 169.797C50.5173 169.595 49.7553 169.47 49.1769 169.47C48.5986 169.459 48.2209 169.548 48.2209 169.548C48.2209 169.548 48.6054 169.491 49.1735 169.541C49.7417 169.584 50.4833 169.762 51.1978 170.014C51.9088 170.27 52.5926 170.598 53.0825 170.879C53.569 171.156 53.8786 171.38 53.8786 171.38C53.9772 171.451 54.1167 171.427 54.1882 171.323C54.2596 171.22 54.2392 171.078 54.1371 171.007C54.1337 171.003 54.1303 171 54.1235 171L54.1099 170.993Z" fill="#4AA5A2"/>
<path d="M48.9149 172.718C48.9149 172.718 48.6665 172.6 48.2685 172.465C47.8738 172.33 47.3363 172.191 46.792 172.109C46.2443 172.028 45.6931 172.003 45.2781 172.038C44.8664 172.067 44.5977 172.138 44.5977 172.138C44.5977 172.138 44.8698 172.088 45.2815 172.084C45.6931 172.077 46.2341 172.134 46.7648 172.252C47.2955 172.369 47.8126 172.536 48.1834 172.693C48.5543 172.846 48.7958 172.977 48.7958 172.977C48.8638 173.013 48.9455 172.988 48.9829 172.92C49.0203 172.853 48.9965 172.767 48.9285 172.732C48.9251 172.732 48.9251 172.728 48.9217 172.728L48.9149 172.718Z" fill="#4AA5A2"/>
<path d="M87.5862 191.35C89.9846 189.817 92.3729 186.534 94.557 184.691C96.7411 182.848 99.0613 181.098 101.715 180.113C104.369 179.128 107.42 178.982 109.897 180.298C112.374 181.614 114.064 184.584 113.442 187.394C112.915 189.763 110.958 191.549 108.89 192.766C102.297 196.65 93.5024 196.063 87.5862 191.35Z" fill="#65D1CA"/>
<path d="M112.37 182.535C112.37 182.535 112.115 182.731 111.673 183.073C111.224 183.414 110.601 183.873 109.805 184.399C109.414 184.666 108.975 184.937 108.512 185.221C108.053 185.509 107.546 185.783 107.032 186.075C105.988 186.637 104.848 187.188 103.685 187.686C102.518 188.17 101.327 188.6 100.194 188.949C99.626 189.113 99.0783 189.283 98.551 189.408C98.0237 189.543 97.527 189.664 97.0609 189.757C96.1355 189.956 95.3565 190.08 94.8087 190.158C94.261 190.233 93.948 190.276 93.948 190.276C93.948 190.276 94.261 190.244 94.8121 190.194C95.3599 190.141 96.1457 190.048 97.0813 189.885C97.5508 189.813 98.0543 189.71 98.5884 189.6C99.1225 189.497 99.6805 189.347 100.259 189.209C101.412 188.903 102.627 188.519 103.824 188.081C105.018 187.629 106.192 187.121 107.274 186.591C107.808 186.313 108.332 186.061 108.812 185.787C109.295 185.52 109.751 185.26 110.159 185.004C110.982 184.51 111.669 184.047 112.122 183.727C112.578 183.403 112.84 183.222 112.84 183.222C113.027 183.09 113.078 182.827 112.952 182.639C112.826 182.45 112.571 182.4 112.384 182.535C112.38 182.528 112.374 182.532 112.37 182.535Z" fill="#4AA5A2"/>
<path d="M109.74 184.716C109.74 184.716 109.706 185.225 109.553 185.95C109.407 186.683 109.101 187.643 108.675 188.558C108.25 189.468 107.706 190.325 107.223 190.909C106.747 191.499 106.369 191.834 106.369 191.834C106.369 191.834 106.767 191.521 107.277 190.955C107.794 190.397 108.39 189.561 108.873 188.657C109.356 187.754 109.72 186.786 109.914 186.036C110.118 185.278 110.176 184.773 110.176 184.773L110.179 184.751C110.193 184.627 110.108 184.517 109.985 184.502C109.863 184.488 109.754 184.581 109.74 184.705C109.74 184.709 109.74 184.712 109.74 184.716Z" fill="#4AA5A2"/>
<path d="M103.964 187.65C103.964 187.65 103.865 188.052 103.664 188.622C103.464 189.198 103.137 189.948 102.742 190.663C102.344 191.375 101.871 192.051 101.45 192.495C101.031 192.947 100.691 193.175 100.691 193.175C100.691 193.175 101.048 192.972 101.501 192.549C101.96 192.132 102.484 191.485 102.943 190.788C103.399 190.091 103.783 189.347 104.032 188.767C104.287 188.184 104.413 187.789 104.413 187.789L104.416 187.775C104.457 187.65 104.389 187.515 104.266 187.476C104.144 187.437 104.011 187.508 103.97 187.633C103.964 187.64 103.964 187.647 103.964 187.65Z" fill="#4AA5A2"/>
<path d="M98.6532 189.397C98.6532 189.397 98.5273 189.667 98.3027 190.037C98.0782 190.414 97.7414 190.891 97.3604 191.336C96.9793 191.777 96.5507 192.182 96.2003 192.442C95.8498 192.705 95.5879 192.84 95.5879 192.84C95.5879 192.84 95.8567 192.723 96.2241 192.481C96.5949 192.243 97.0508 191.862 97.4658 191.435C97.8775 191.008 98.2551 190.543 98.5069 190.173C98.7654 189.799 98.9049 189.539 98.9049 189.539L98.9083 189.532C98.9457 189.461 98.9219 189.372 98.8539 189.333C98.7824 189.294 98.6974 189.322 98.6565 189.394C98.6531 189.394 98.6532 189.394 98.6532 189.397Z" fill="#4AA5A2"/>
<path d="M109.968 184.598C109.968 184.598 109.604 184.253 108.958 183.823C108.325 183.389 107.424 182.923 106.475 182.581C105.525 182.244 104.539 182.03 103.787 181.966C103.038 181.891 102.535 181.927 102.535 181.927C102.535 181.927 103.038 181.92 103.777 182.037C104.515 182.144 105.481 182.411 106.393 182.795C107.305 183.183 108.159 183.688 108.744 184.139C109.325 184.577 109.676 184.943 109.676 184.943C109.761 185.032 109.9 185.032 109.989 184.943C110.077 184.854 110.081 184.712 109.996 184.623C109.992 184.62 109.992 184.62 109.989 184.616L109.968 184.598Z" fill="#4AA5A2"/>
<path d="M104.307 187.515C104.307 187.515 103.964 187.302 103.406 187.038C102.855 186.772 102.092 186.476 101.313 186.259C100.531 186.046 99.7246 185.918 99.1156 185.914C98.5067 185.904 98.1086 185.996 98.1086 185.996C98.1086 185.996 98.5135 185.936 99.1088 185.989C99.7076 186.035 100.49 186.22 101.239 186.487C101.987 186.754 102.708 187.099 103.222 187.398C103.732 187.689 104.059 187.924 104.059 187.924C104.164 187.999 104.311 187.974 104.385 187.867C104.46 187.761 104.436 187.611 104.334 187.533C104.331 187.529 104.324 187.526 104.321 187.522L104.307 187.515Z" fill="#4AA5A2"/>
<path d="M98.8401 189.333C98.8401 189.333 98.5781 189.209 98.1597 189.07C97.7446 188.928 97.1799 188.782 96.6049 188.693C96.03 188.608 95.4482 188.583 95.0128 188.618C94.5773 188.65 94.2949 188.721 94.2949 188.721C94.2949 188.721 94.5807 188.668 95.0128 188.664C95.4448 188.657 96.0164 188.718 96.5743 188.839C97.1322 188.96 97.6766 189.138 98.0678 189.305C98.459 189.465 98.7108 189.604 98.7108 189.604C98.7822 189.643 98.8673 189.614 98.9081 189.543C98.9455 189.472 98.9217 189.383 98.8503 189.344C98.8469 189.344 98.8469 189.34 98.8435 189.34L98.8401 189.333Z" fill="#4AA5A2"/>
<path d="M176.87 195.508C179.269 193.975 181.657 190.692 183.841 188.849C186.025 187.007 188.345 185.256 190.999 184.271C193.652 183.286 196.704 183.14 199.181 184.456C201.658 185.772 203.348 188.742 202.726 191.553C202.198 193.922 200.242 195.707 198.174 196.924C191.581 200.805 182.783 200.221 176.87 195.508Z" fill="#65D1CA"/>
<path d="M201.651 186.694C201.651 186.694 201.396 186.889 200.953 187.231C200.504 187.572 199.882 188.031 199.086 188.558C198.694 188.824 198.255 189.095 197.793 189.379C197.333 189.667 196.827 189.941 196.313 190.233C195.268 190.795 194.129 191.346 192.965 191.844C191.798 192.328 190.608 192.759 189.475 193.107C188.907 193.271 188.359 193.442 187.832 193.566C187.304 193.701 186.807 193.822 186.341 193.915C185.416 194.114 184.637 194.238 184.089 194.317C183.541 194.391 183.229 194.434 183.229 194.434C183.229 194.434 183.541 194.402 184.093 194.352C184.64 194.299 185.426 194.206 186.362 194.043C186.831 193.972 187.335 193.868 187.869 193.758C188.403 193.655 188.961 193.506 189.539 193.367C190.693 193.061 191.907 192.677 193.105 192.239C194.299 191.788 195.476 191.279 196.554 190.749C197.089 190.471 197.612 190.219 198.092 189.945C198.575 189.678 199.031 189.418 199.439 189.162C200.263 188.668 200.95 188.205 201.402 187.885C201.858 187.562 202.12 187.38 202.12 187.38C202.307 187.249 202.358 186.985 202.232 186.797C202.107 186.608 201.851 186.559 201.661 186.694C201.661 186.687 201.654 186.69 201.651 186.694Z" fill="#4AA5A2"/>
<path d="M199.021 188.874C199.021 188.874 198.987 189.383 198.834 190.108C198.687 190.841 198.381 191.802 197.956 192.716C197.531 193.626 196.986 194.484 196.503 195.067C196.027 195.658 195.649 195.992 195.649 195.992C195.649 195.992 196.047 195.679 196.558 195.113C197.075 194.555 197.67 193.719 198.153 192.815C198.636 191.912 199 190.944 199.194 190.194C199.398 189.436 199.456 188.931 199.456 188.931L199.46 188.91C199.473 188.785 199.388 188.675 199.266 188.661C199.143 188.646 199.034 188.739 199.021 188.863C199.024 188.863 199.021 188.87 199.021 188.874Z" fill="#4AA5A2"/>
<path d="M193.244 191.809C193.244 191.809 193.146 192.211 192.945 192.78C192.744 193.356 192.418 194.107 192.023 194.822C191.625 195.533 191.152 196.209 190.73 196.653C190.312 197.105 189.972 197.333 189.972 197.333C189.972 197.333 190.329 197.13 190.781 196.707C191.241 196.291 191.765 195.643 192.224 194.946C192.68 194.249 193.064 193.505 193.312 192.926C193.568 192.342 193.694 191.947 193.694 191.947L193.697 191.933C193.738 191.809 193.67 191.673 193.547 191.634C193.425 191.595 193.292 191.666 193.251 191.791C193.248 191.798 193.244 191.801 193.244 191.809Z" fill="#4AA5A2"/>
<path d="M187.934 193.555C187.934 193.555 187.808 193.826 187.583 194.196C187.359 194.573 187.022 195.049 186.641 195.494C186.26 195.935 185.831 196.341 185.481 196.6C185.13 196.863 184.868 196.999 184.868 196.999C184.868 196.999 185.137 196.881 185.505 196.639C185.875 196.401 186.331 196.02 186.746 195.594C187.158 195.167 187.536 194.701 187.787 194.331C188.046 193.957 188.185 193.698 188.185 193.698L188.189 193.69C188.226 193.619 188.202 193.53 188.134 193.491C188.063 193.452 187.978 193.481 187.937 193.552C187.937 193.548 187.934 193.552 187.934 193.555Z" fill="#4AA5A2"/>
<path d="M199.249 188.753C199.249 188.753 198.885 188.408 198.238 187.978C197.606 187.544 196.704 187.078 195.755 186.736C194.806 186.398 193.819 186.185 193.067 186.121C192.319 186.046 191.815 186.082 191.815 186.082C191.815 186.082 192.319 186.075 193.057 186.192C193.795 186.299 194.761 186.565 195.673 186.95C196.585 187.337 197.439 187.843 198.024 188.294C198.606 188.732 198.956 189.098 198.956 189.098C199.041 189.187 199.181 189.187 199.269 189.098C199.358 189.009 199.361 188.867 199.276 188.778C199.273 188.774 199.273 188.774 199.269 188.771L199.249 188.753Z" fill="#4AA5A2"/>
<path d="M193.588 191.673C193.588 191.673 193.244 191.46 192.686 191.197C192.135 190.93 191.373 190.635 190.594 190.418C189.812 190.204 189.005 190.076 188.396 190.073C187.787 190.062 187.389 190.154 187.389 190.154C187.389 190.154 187.794 190.094 188.39 190.147C188.988 190.194 189.771 190.379 190.519 190.645C191.268 190.912 191.989 191.257 192.503 191.556C193.013 191.848 193.34 192.082 193.34 192.082C193.445 192.157 193.591 192.132 193.666 192.026C193.741 191.919 193.717 191.769 193.615 191.691C193.612 191.688 193.605 191.684 193.602 191.68L193.588 191.673Z" fill="#4AA5A2"/>
<path d="M188.121 193.491C188.121 193.491 187.859 193.367 187.44 193.228C187.025 193.086 186.461 192.94 185.886 192.851C185.311 192.766 184.729 192.741 184.294 192.776C183.858 192.808 183.576 192.88 183.576 192.88C183.576 192.88 183.861 192.826 184.294 192.823C184.726 192.816 185.297 192.876 185.855 192.997C186.413 193.118 186.957 193.296 187.349 193.463C187.74 193.623 187.992 193.762 187.992 193.762C188.063 193.801 188.148 193.772 188.189 193.701C188.226 193.63 188.203 193.541 188.131 193.502C188.128 193.502 188.128 193.499 188.124 193.499L188.121 193.491Z" fill="#4AA5A2"/>
<path d="M198.66 165.265C201.208 165.593 204.777 164.717 207.359 164.707C209.941 164.7 212.564 164.835 214.966 165.685C217.368 166.535 219.549 168.196 220.478 170.526C221.406 172.856 220.821 175.869 218.739 177.441C216.984 178.765 214.592 178.864 212.456 178.509C205.648 177.377 199.953 171.91 198.66 165.265Z" fill="#65D1CA"/>
<path d="M220.859 173.49C220.859 173.49 220.569 173.479 220.066 173.454C219.556 173.429 218.858 173.386 218.004 173.287C217.579 173.244 217.12 173.18 216.633 173.105C216.147 173.038 215.64 172.935 215.112 172.839C214.065 172.625 212.959 172.344 211.87 172.017C210.785 171.675 209.713 171.284 208.734 170.875C208.247 170.658 207.771 170.462 207.335 170.242C206.897 170.032 206.481 169.826 206.111 169.623C205.355 169.228 204.75 168.862 204.328 168.602C203.906 168.339 203.668 168.189 203.668 168.189C203.668 168.189 203.903 168.35 204.311 168.631C204.719 168.908 205.315 169.299 206.053 169.726C206.417 169.947 206.825 170.167 207.257 170.398C207.686 170.637 208.155 170.854 208.635 171.092C209.605 171.547 210.666 171.981 211.748 172.373C212.833 172.75 213.939 173.077 214.993 173.337C215.521 173.454 216.031 173.582 216.521 173.671C217.011 173.767 217.474 173.852 217.906 173.913C218.763 174.048 219.505 174.126 220.005 174.169C220.508 174.212 220.797 174.237 220.797 174.237C221.005 174.254 221.192 174.101 221.216 173.899C221.24 173.696 221.093 173.514 220.886 173.5C220.869 173.49 220.862 173.49 220.859 173.49Z" fill="#4AA5A2"/>
<path d="M217.773 173.472C217.773 173.472 217.45 173.803 216.919 174.212C216.388 174.631 215.613 175.115 214.786 175.496C213.959 175.876 213.082 176.15 212.408 176.275C211.734 176.406 211.279 176.417 211.279 176.417C211.279 176.417 211.734 176.431 212.418 176.335C213.102 176.25 214 176.019 214.864 175.677C215.725 175.336 216.545 174.88 217.12 174.478C217.705 174.073 218.042 173.763 218.042 173.763L218.055 173.749C218.137 173.671 218.144 173.546 218.069 173.468C217.994 173.39 217.865 173.386 217.783 173.465C217.777 173.465 217.773 173.468 217.773 173.472Z" fill="#4AA5A2"/>
<path d="M212.078 172.156C212.078 172.156 211.775 172.376 211.302 172.65C210.826 172.931 210.162 173.258 209.468 173.522C208.774 173.781 208.057 173.973 207.505 174.034C206.954 174.105 206.583 174.062 206.583 174.062C206.583 174.062 206.948 174.13 207.509 174.098C208.07 174.076 208.812 173.934 209.533 173.721C210.254 173.504 210.959 173.216 211.469 172.963C211.986 172.711 212.302 172.511 212.302 172.511L212.316 172.504C212.418 172.44 212.449 172.309 212.387 172.213C212.326 172.116 212.194 172.088 212.091 172.152C212.088 172.152 212.085 172.156 212.078 172.156Z" fill="#4AA5A2"/>
<path d="M207.407 170.298C207.407 170.298 207.162 170.412 206.791 170.537C206.417 170.665 205.903 170.8 205.379 170.885C204.855 170.971 204.325 170.999 203.93 170.978C203.535 170.957 203.277 170.9 203.277 170.9C203.277 170.9 203.529 170.974 203.927 171.021C204.321 171.07 204.859 171.07 205.393 171.017C205.927 170.964 206.458 170.857 206.849 170.75C207.247 170.644 207.495 170.544 207.495 170.544L207.502 170.54C207.57 170.512 207.608 170.437 207.58 170.37C207.557 170.302 207.478 170.27 207.41 170.298C207.41 170.295 207.407 170.295 207.407 170.298Z" fill="#4AA5A2"/>
<path d="M217.997 173.521C217.997 173.521 217.95 173.073 217.759 172.408C217.579 171.746 217.235 170.903 216.783 170.124C216.33 169.345 215.776 168.63 215.3 168.154C214.83 167.67 214.463 167.407 214.463 167.407C214.463 167.407 214.813 167.691 215.252 168.196C215.698 168.694 216.201 169.434 216.603 170.224C217.001 171.014 217.29 171.857 217.426 172.501C217.569 173.137 217.593 173.589 217.593 173.589C217.599 173.699 217.695 173.781 217.807 173.77C217.919 173.76 218.004 173.664 217.997 173.553C217.997 173.55 217.997 173.546 217.997 173.543V173.521Z" fill="#4AA5A2"/>
<path d="M212.394 172.262C212.394 172.262 212.286 171.921 212.058 171.416C211.837 170.914 211.49 170.274 211.078 169.676C210.666 169.079 210.19 168.527 209.771 168.175C209.36 167.816 209.033 167.652 209.033 167.652C209.033 167.652 209.346 167.841 209.724 168.225C210.108 168.602 210.534 169.178 210.894 169.794C211.251 170.409 211.544 171.06 211.721 171.562C211.901 172.056 211.986 172.405 211.986 172.405C212.013 172.519 212.129 172.583 212.245 172.554C212.36 172.522 212.432 172.408 212.405 172.294C212.405 172.291 212.401 172.284 212.401 172.28L212.394 172.262Z" fill="#4AA5A2"/>
<path d="M207.573 170.363C207.573 170.363 207.468 170.128 207.26 169.79C207.06 169.452 206.757 169.029 206.413 168.638C206.07 168.246 205.685 167.894 205.366 167.67C205.049 167.442 204.811 167.329 204.811 167.329C204.811 167.329 205.039 167.457 205.338 167.702C205.641 167.944 205.995 168.318 206.308 168.723C206.621 169.129 206.89 169.563 207.063 169.904C207.237 170.238 207.329 170.48 207.329 170.48C207.352 170.548 207.431 170.58 207.499 170.551C207.567 170.523 207.604 170.448 207.577 170.381C207.577 170.377 207.573 170.377 207.573 170.374V170.363Z" fill="#4AA5A2"/>
<path d="M136.565 202C136.256 199.19 134.361 195.604 133.677 192.848C132.99 190.087 132.452 187.249 132.752 184.46C133.051 181.671 134.289 178.903 136.586 177.299C138.882 175.695 142.325 175.531 144.584 177.345C146.489 178.875 147.221 181.408 147.394 183.78C147.945 191.354 143.475 198.877 136.565 202Z" fill="#65D1CA"/>
<path d="M139.716 176.115C139.716 176.115 139.777 176.428 139.886 176.972C139.995 177.523 140.131 178.281 140.243 179.22C140.311 179.686 140.359 180.195 140.406 180.732C140.461 181.269 140.481 181.838 140.515 182.425C140.556 183.603 140.542 184.855 140.468 186.107C140.379 187.355 140.236 188.604 140.046 189.76C139.937 190.336 139.845 190.898 139.723 191.421C139.607 191.948 139.495 192.442 139.369 192.894C139.134 193.805 138.896 194.548 138.722 195.067C138.545 195.587 138.443 195.882 138.443 195.882C138.443 195.882 138.556 195.59 138.756 195.082C138.954 194.569 139.222 193.833 139.495 192.933C139.641 192.485 139.774 191.994 139.913 191.471C140.059 190.952 140.175 190.393 140.308 189.817C140.549 188.661 140.747 187.412 140.886 186.153C141.012 184.894 141.08 183.624 141.087 182.432C141.077 181.835 141.083 181.258 141.049 180.711C141.026 180.163 140.995 179.644 140.947 179.167C140.872 178.214 140.76 177.403 140.675 176.858C140.59 176.31 140.539 175.994 140.539 175.994C140.505 175.766 140.291 175.606 140.059 175.635C139.831 175.663 139.675 175.866 139.709 176.093C139.712 176.101 139.716 176.108 139.716 176.115Z" fill="#4AA5A2"/>
<path d="M140.505 179.419C140.505 179.419 140.951 179.679 141.536 180.138C142.131 180.597 142.863 181.298 143.499 182.084C144.132 182.87 144.662 183.734 144.972 184.421C145.292 185.104 145.424 185.591 145.424 185.591C145.424 185.591 145.319 185.1 145.037 184.396C144.764 183.688 144.278 182.788 143.679 181.956C143.08 181.123 142.369 180.366 141.777 179.857C141.182 179.338 140.753 179.06 140.753 179.06L140.736 179.049C140.631 178.982 140.491 179.007 140.427 179.11C140.362 179.213 140.393 179.348 140.498 179.416C140.498 179.412 140.502 179.416 140.505 179.419Z" fill="#4AA5A2"/>
<path d="M140.566 185.847C140.566 185.847 140.886 186.114 141.308 186.548C141.737 186.982 142.271 187.608 142.737 188.28C143.203 188.953 143.601 189.671 143.808 190.248C144.03 190.82 144.081 191.226 144.081 191.226C144.081 191.226 144.057 190.817 143.876 190.226C143.706 189.632 143.356 188.878 142.934 188.163C142.509 187.448 142.009 186.772 141.6 186.292C141.189 185.805 140.889 185.517 140.889 185.517L140.879 185.506C140.784 185.413 140.631 185.413 140.542 185.506C140.454 185.598 140.457 185.744 140.553 185.837C140.556 185.84 140.563 185.844 140.566 185.847Z" fill="#4AA5A2"/>
<path d="M139.763 191.333C139.763 191.333 139.95 191.564 140.185 191.93C140.423 192.297 140.706 192.809 140.937 193.346C141.165 193.883 141.338 194.441 141.417 194.872C141.498 195.299 141.502 195.59 141.502 195.59C141.502 195.59 141.519 195.302 141.461 194.865C141.41 194.431 141.27 193.855 141.073 193.3C140.872 192.741 140.621 192.204 140.399 191.813C140.178 191.418 140.005 191.176 140.005 191.176L139.998 191.169C139.95 191.101 139.859 191.084 139.791 191.13C139.726 191.172 139.709 191.265 139.756 191.333C139.76 191.325 139.76 191.329 139.763 191.333Z" fill="#4AA5A2"/>
<path d="M140.502 179.163C140.502 179.163 140.025 179.334 139.348 179.707C138.675 180.074 137.848 180.664 137.113 181.351C136.382 182.041 135.749 182.82 135.351 183.453C134.946 184.083 134.756 184.542 134.756 184.542C134.756 184.542 134.977 184.093 135.412 183.492C135.841 182.888 136.511 182.151 137.27 181.518C138.028 180.885 138.869 180.355 139.536 180.042C140.192 179.722 140.679 179.579 140.679 179.579C140.798 179.544 140.859 179.419 140.818 179.302C140.777 179.185 140.651 179.117 140.532 179.153C140.529 179.153 140.526 179.156 140.522 179.156L140.502 179.163Z" fill="#4AA5A2"/>
<path d="M140.6 185.481C140.6 185.481 140.257 185.687 139.763 186.064C139.277 186.434 138.668 186.971 138.124 187.569C137.579 188.166 137.103 188.821 136.827 189.358C136.545 189.891 136.45 190.286 136.45 190.286C136.45 190.286 136.576 189.902 136.892 189.397C137.202 188.888 137.719 188.28 138.297 187.736C138.875 187.192 139.508 186.711 140.008 186.388C140.498 186.064 140.859 185.883 140.859 185.883C140.974 185.826 141.015 185.683 140.951 185.566C140.886 185.452 140.743 185.406 140.627 185.463C140.624 185.466 140.617 185.466 140.614 185.47L140.6 185.481Z" fill="#4AA5A2"/>
<path d="M139.787 191.137C139.787 191.137 139.559 191.311 139.243 191.62C138.927 191.923 138.545 192.36 138.209 192.826C137.872 193.296 137.589 193.801 137.426 194.203C137.259 194.601 137.198 194.882 137.198 194.882C137.198 194.882 137.276 194.605 137.47 194.221C137.658 193.836 137.971 193.356 138.328 192.915C138.688 192.478 139.093 192.072 139.416 191.802C139.736 191.528 139.974 191.368 139.974 191.368C140.039 191.322 140.056 191.233 140.008 191.165C139.961 191.097 139.869 191.08 139.801 191.126C139.797 191.126 139.797 191.129 139.794 191.129L139.787 191.137Z" fill="#4AA5A2"/>
<path d="M232.371 200.883C231.167 198.318 228.217 195.522 226.673 193.128C225.132 190.731 223.703 188.212 223.084 185.473C222.464 182.734 222.743 179.722 224.4 177.473C226.057 175.225 229.265 173.98 231.99 174.98C234.287 175.823 235.804 177.993 236.733 180.188C239.709 187.192 237.906 195.736 232.371 200.883Z" fill="#63D1CA"/>
<path d="M226.982 175.36C226.982 175.36 227.142 175.638 227.421 176.118C227.7 176.605 228.074 177.281 228.489 178.135C228.704 178.558 228.915 179.021 229.132 179.519C229.357 180.009 229.561 180.543 229.782 181.091C230.201 182.194 230.592 183.385 230.929 184.595C231.249 185.808 231.517 187.031 231.711 188.191C231.793 188.771 231.892 189.333 231.943 189.866C232.004 190.4 232.055 190.905 232.082 191.375C232.153 192.31 232.17 193.093 232.174 193.64C232.174 194.188 232.174 194.501 232.174 194.501C232.174 194.501 232.187 194.188 232.211 193.644C232.232 193.096 232.249 192.314 232.218 191.375C232.211 190.905 232.177 190.396 232.14 189.856C232.109 189.315 232.038 188.749 231.98 188.162C231.834 186.992 231.619 185.747 231.344 184.509C231.055 183.275 230.711 182.051 230.33 180.92C230.129 180.358 229.946 179.81 229.738 179.302C229.537 178.789 229.343 178.309 229.143 177.872C228.762 176.993 228.394 176.26 228.139 175.769C227.88 175.275 227.731 174.994 227.731 174.994C227.625 174.791 227.37 174.706 227.163 174.805C226.955 174.905 226.873 175.147 226.979 175.35C226.979 175.35 226.982 175.357 226.982 175.36Z" fill="#4AA5A2"/>
<path d="M228.802 178.242C228.802 178.242 229.309 178.345 230.01 178.594C230.725 178.839 231.643 179.27 232.497 179.814C233.351 180.358 234.13 181.009 234.647 181.564C235.171 182.112 235.453 182.532 235.453 182.532C235.453 182.532 235.195 182.098 234.702 181.522C234.215 180.938 233.46 180.237 232.626 179.64C231.789 179.042 230.871 178.548 230.146 178.256C229.415 177.954 228.918 177.826 228.918 177.826L228.898 177.822C228.775 177.79 228.653 177.861 228.622 177.979C228.591 178.096 228.666 178.217 228.789 178.249C228.792 178.238 228.799 178.242 228.802 178.242Z" fill="#4AA5A2"/>
<path d="M230.935 184.314C230.935 184.314 231.323 184.467 231.864 184.741C232.412 185.018 233.12 185.442 233.78 185.929C234.436 186.42 235.048 186.975 235.433 187.451C235.828 187.921 236.008 188.291 236.008 188.291C236.008 188.291 235.855 187.914 235.494 187.409C235.14 186.9 234.565 186.295 233.933 185.751C233.296 185.21 232.609 184.727 232.065 184.403C231.517 184.072 231.14 183.894 231.14 183.894L231.126 183.887C231.007 183.83 230.861 183.876 230.806 183.994C230.752 184.108 230.803 184.246 230.925 184.303C230.925 184.31 230.932 184.314 230.935 184.314Z" fill="#4AA5A2"/>
<path d="M231.949 189.763C231.949 189.763 232.201 189.923 232.541 190.194C232.885 190.464 233.317 190.863 233.711 191.297C234.103 191.734 234.446 192.207 234.657 192.588C234.875 192.968 234.97 193.242 234.97 193.242C234.97 193.242 234.892 192.961 234.698 192.57C234.511 192.175 234.191 191.674 233.824 191.208C233.456 190.742 233.041 190.311 232.704 190.012C232.368 189.706 232.126 189.532 232.126 189.532L232.119 189.525C232.051 189.475 231.959 189.489 231.912 189.554C231.864 189.618 231.878 189.706 231.946 189.756C231.946 189.76 231.946 189.76 231.949 189.763Z" fill="#4AA5A2"/>
<path d="M228.714 178.004C228.714 178.004 228.32 178.313 227.799 178.886C227.278 179.444 226.687 180.266 226.214 181.152C225.744 182.037 225.394 182.976 225.224 183.702C225.047 184.428 225.009 184.922 225.009 184.922C225.009 184.922 225.074 184.428 225.292 183.72C225.503 183.008 225.901 182.101 226.411 181.262C226.925 180.422 227.551 179.654 228.081 179.142C228.598 178.633 229.014 178.341 229.014 178.341C229.112 178.27 229.133 178.135 229.058 178.036C228.983 177.936 228.84 177.915 228.738 177.986C228.735 177.989 228.731 177.989 228.728 177.993L228.714 178.004Z" fill="#4AA5A2"/>
<path d="M230.85 183.958C230.85 183.958 230.592 184.264 230.248 184.776C229.905 185.281 229.503 185.986 229.18 186.722C228.86 187.458 228.619 188.23 228.534 188.828C228.438 189.422 228.476 189.827 228.476 189.827C228.476 189.827 228.469 189.422 228.608 188.846C228.738 188.266 229.03 187.526 229.401 186.825C229.772 186.128 230.218 185.47 230.585 185.007C230.946 184.548 231.228 184.26 231.228 184.26C231.32 184.168 231.313 184.022 231.214 183.933C231.116 183.844 230.966 183.848 230.874 183.937C230.871 183.94 230.867 183.944 230.864 183.947L230.85 183.958Z" fill="#4AA5A2"/>
<path d="M231.912 189.571C231.912 189.571 231.752 189.809 231.555 190.201C231.354 190.588 231.133 191.122 230.963 191.673C230.796 192.225 230.691 192.794 230.667 193.224C230.636 193.655 230.67 193.943 230.67 193.943C230.67 193.943 230.657 193.655 230.714 193.231C230.765 192.808 230.908 192.253 231.106 191.723C231.306 191.193 231.558 190.684 231.776 190.322C231.99 189.962 232.164 189.731 232.164 189.731C232.211 189.667 232.198 189.578 232.13 189.528C232.062 189.482 231.97 189.493 231.922 189.557C231.919 189.56 231.919 189.56 231.919 189.564L231.912 189.571Z" fill="#4AA5A2"/>
<path d="M125.247 40.2276C125.247 40.2276 128.169 19.3649 112.462 12.6384C96.7579 5.91534 86.351 12.1475 81.9998 18.2017C82.9455 16.8856 87.6744 17.1488 89.042 17.2947C92.4781 17.6575 95.87 18.7958 98.4385 21.1613C104.038 26.3121 103.103 33.9564 99.3367 39.4095L125.247 40.2276Z" fill="#FBF5EB"/>
<path d="M85.0244 17.5756C85.5551 15.1816 83.8949 12.7343 81.3127 12.1083C78.7339 11.4822 76.2096 12.9157 75.6789 15.3132C75.1482 17.7072 76.8084 20.1545 79.3905 20.7806C81.9693 21.4067 84.4936 19.9731 85.0244 17.5756Z" fill="#FA6E5A"/>
<path d="M124.835 29.4459C125.162 31.1925 125.335 32.8572 125.41 34.3299C117.953 31.5233 109.56 31.0929 102.075 33.1062C102.405 31.5375 102.484 29.9404 102.266 28.3716C109.574 26.7531 117.521 27.1302 124.835 29.4459Z" fill="#FA6E5A"/>
<path d="M120.552 19.0377C121.736 20.6491 122.644 22.385 123.335 24.1457C115.99 22.2676 108.189 22.6126 101.296 25.0528C100.66 23.6762 99.7451 22.3707 98.4795 21.1969C105.338 18.5752 113.068 17.8318 120.552 19.0377Z" fill="#FA6E5A"/>
<path d="M89.498 17.3518C93.1791 13.8373 97.8263 11.3011 102.906 9.9458C105.831 10.3122 109.019 11.1623 112.462 12.6386C113 12.8698 113.51 13.1188 114.007 13.382C107.162 12.8591 100.187 14.9151 94.9788 18.8743C93.2607 18.0739 91.393 17.5901 89.498 17.3518Z" fill="#FA6E5A"/>
<path d="M102.984 146.978L100.759 144.854C100.728 143.777 100.667 142.702 100.582 141.635C100.555 141.311 100.283 141.077 99.9766 141.098C99.667 141.126 99.439 141.411 99.4629 141.731C99.5445 142.759 99.6023 143.794 99.633 144.829C99.6296 144.833 99.6228 144.837 99.6194 144.844L97.4999 147.458C97.2991 147.707 97.3298 148.077 97.5645 148.287C97.67 148.38 97.7993 148.426 97.9285 148.426C98.0884 148.426 98.2449 148.355 98.3572 148.219L99.6602 146.612C99.6602 146.953 99.6636 147.298 99.6568 147.64C99.6568 147.654 99.6534 147.672 99.6534 147.686V147.867C99.65 148.191 99.8983 148.454 100.208 148.461C100.211 148.461 100.215 148.461 100.215 148.461C100.521 148.461 100.769 148.205 100.776 147.885C100.783 147.416 100.786 146.946 100.783 146.476L102.222 147.849C102.331 147.953 102.467 148.002 102.6 148.002C102.753 148.002 102.902 147.938 103.015 147.81C103.229 147.568 103.212 147.195 102.984 146.978Z" fill="#6C97A3"/>
<path d="M86.1608 144.876C86.1404 143.239 86.0859 141.55 85.9873 140.326C85.9601 140.002 85.6879 139.768 85.3817 139.789C85.0721 139.817 84.8442 140.102 84.868 140.422C84.9599 141.582 85.0143 143.218 85.0347 144.801C85.0211 144.815 85.0109 144.826 84.9973 144.837L82.8778 147.451C82.6771 147.7 82.7077 148.07 82.9424 148.28C83.0479 148.372 83.1772 148.419 83.3065 148.419C83.4664 148.419 83.6229 148.347 83.7351 148.212L85.0449 146.597C85.0449 146.96 85.0415 147.309 85.0381 147.632C85.0381 147.647 85.0347 147.664 85.0347 147.679V147.86C85.0313 148.184 85.2797 148.447 85.5892 148.454C85.5926 148.454 85.5961 148.454 85.5961 148.454C85.9022 148.454 86.1506 148.198 86.1574 147.878C86.1642 147.444 86.1676 146.971 86.171 146.473L87.6067 147.842C87.7155 147.945 87.8516 147.995 87.9843 147.995C88.1374 147.995 88.2871 147.931 88.3994 147.803C88.6069 147.565 88.5933 147.191 88.3619 146.974L86.1608 144.876Z" fill="#6C97A3"/>
<path d="M147.36 71.7547C147.143 62.161 145.425 54.3567 142.104 47.8862C139.005 41.8462 134.283 37.1045 129.153 34.8848C121.243 31.4628 113.166 30.3281 105.797 31.6016C97.5168 33.0351 90.2296 37.5954 85.8069 44.1121C80.3262 52.1903 79.4314 62.467 78.5707 72.4056L78.4414 73.8712C77.5671 83.7814 76.0464 94.9793 68.9769 102.46C67.0683 104.48 63.1457 107.728 58.3318 106.789C57.352 106.597 56.4505 106.266 55.6476 105.8C55.355 105.629 55.0454 105.43 54.7596 105.224C55.5863 103.022 56.0694 100.71 56.1885 98.3444C56.2463 97.1705 56.2225 95.6659 55.5115 94.4493C55.1713 93.8695 54.5521 93.2932 53.8343 93.4213C53.1709 93.5387 52.698 94.1896 52.4667 95.3066C52.055 97.2844 52.0618 99.3724 52.4598 101.375L50.6908 96.8042C50.4901 96.2848 50.2621 95.6943 49.8164 95.2781C49.3776 94.8691 48.6189 94.6556 48.0848 95.0718C47.6936 95.3777 47.5166 95.922 47.5439 96.7366C47.6051 98.7321 48.3093 100.657 49.4422 102.25C48.391 101.421 47.3057 100.635 46.1932 99.906C45.4516 99.4186 44.4888 98.9171 43.6383 99.3653C43.1042 99.6499 42.7504 100.294 42.7401 101.005C42.7299 101.56 42.9137 102.154 43.2845 102.777C44.2439 104.384 46.0299 105.541 48.1835 105.95C48.8979 106.085 49.6157 106.138 50.3234 106.138C51.2487 106.138 52.1571 106.046 53.0178 105.928C52.5143 113.366 57.7977 121.43 62.547 127.083C63.1866 127.844 63.8602 128.587 64.5508 129.292C70.763 135.641 78.6728 139.81 87.4229 141.347C89.9064 141.784 92.4035 141.998 94.8972 141.998C101.048 141.998 107.162 140.678 112.891 138.085C128.421 131.049 140.842 115.7 144.533 98.974C146.605 89.5796 147.558 80.4199 147.36 71.7547Z" fill="#A2E0C1"/>
<path d="M96.9146 93.1013C94.1352 91.7816 91.1583 92.1159 89.1511 92.6317C85.9294 93.457 82.7178 95.3103 79.6015 98.1418C76.839 100.657 74.4576 103.638 72.1544 106.519C71.6305 107.173 71.0351 107.917 70.7698 108.813C70.5146 109.66 70.5963 110.809 71.3481 111.463C72.0455 112.072 73.0185 112.025 73.7908 111.922C76.0566 111.609 78.2271 110.738 80.1084 109.411C78.3428 111.542 76.5227 114.099 74.8284 116.845C74.4984 117.379 73.818 118.706 74.6277 119.47C75.2639 120.072 76.3968 119.89 77.1793 119.467C80.4929 117.674 83.3744 115.792 86.4227 113.8C86.6438 113.658 86.8649 113.512 87.0861 113.366C86.9908 113.466 86.899 113.566 86.8037 113.665C84.6774 115.913 82.4797 118.236 80.9964 120.947C80.5813 121.704 80.1697 122.515 80.0608 123.415C79.9383 124.436 80.2921 125.418 80.9556 125.916C81.3876 126.24 81.8911 126.354 82.398 126.354C82.8879 126.354 83.3812 126.25 83.8167 126.133C87.6474 125.116 91.4986 122.711 95.2714 118.987C99.5172 114.793 102.018 110.46 102.702 106.117C103.559 100.671 101.072 95.0755 96.9146 93.1013Z" fill="#87C7A7"/>
<path d="M111.676 55.9113C111.275 56.0144 111.026 56.4377 111.125 56.8575C111.4 58.0385 110.958 59.3902 110.053 60.1514C109.148 60.9126 107.787 61.0656 106.746 60.5285C105.705 59.9913 104.994 58.7677 105.022 57.5547C105.032 57.1207 104.702 56.765 104.29 56.7543C103.882 56.7472 103.535 57.0887 103.525 57.5191C103.487 59.3511 104.515 61.1225 106.086 61.9335C106.716 62.2572 107.406 62.4173 108.1 62.4173C109.138 62.4173 110.176 62.0616 110.996 61.3751C112.36 60.2297 112.999 58.2661 112.584 56.4876C112.486 56.0678 112.077 55.8081 111.676 55.9113Z" fill="#3F4553"/>
<path d="M137.076 56.4876C136.977 56.0678 136.572 55.8081 136.171 55.9113C135.769 56.0144 135.521 56.4377 135.62 56.8575C135.895 58.0385 135.453 59.3902 134.548 60.1514C133.643 60.9126 132.282 61.0656 131.241 60.5285C130.2 59.9913 129.489 58.7677 129.516 57.5547C129.527 57.1207 129.197 56.765 128.785 56.7543C128.373 56.7472 128.03 57.0887 128.02 57.5191C127.982 59.3475 129.01 61.1225 130.581 61.9335C131.211 62.2572 131.901 62.4173 132.595 62.4173C133.633 62.4173 134.671 62.0616 135.49 61.3751C136.851 60.2297 137.491 58.2661 137.076 56.4876Z" fill="#3F4553"/>
<path d="M135.668 77.987C135.467 77.4961 135.083 77.0728 134.81 76.7989C134.395 76.3791 133.977 75.963 133.558 75.5468C132.194 74.1915 130.667 72.822 128.755 71.2355C128.585 71.0932 128.397 70.926 128.204 70.7482C127.407 70.0225 126.414 69.1226 125.4 69.1226C125.033 69.1226 124.72 69.3218 124.386 69.5352L124.278 69.6028C123.692 69.9727 123.165 70.428 122.713 70.9616C121.974 71.8224 121.083 73.2026 120.984 74.252C120.981 74.2982 120.978 74.3445 120.978 74.3907C120.978 74.4263 120.978 74.4583 120.981 74.4939C121.046 75.4934 121.852 76.1586 122.566 76.7455C122.709 76.8629 122.845 76.9768 122.971 77.087C123.822 77.8411 124.832 78.7198 125.9 79.5023C127.799 80.8932 129.969 81.9817 132.357 82.7358C132.47 82.7713 132.592 82.7927 132.718 82.7927C132.953 82.7927 133.184 82.7144 133.307 82.4903C133.412 82.2982 133.45 81.971 133.024 81.5086L128.646 76.7313C129.663 77.119 130.673 77.4854 131.711 77.802C132.419 78.019 133.075 78.1897 133.711 78.3249C133.756 78.3356 133.834 78.3569 133.933 78.3889C134.586 78.5846 135.253 78.7589 135.552 78.5668C135.64 78.5099 135.698 78.4281 135.719 78.3249C135.743 78.1933 135.705 78.0795 135.668 77.987Z" fill="#3F4553"/>
<path d="M110.567 67.5499C108.87 66.561 105.651 67.1515 104.301 68.3147C103.984 68.5851 103.46 69.1542 103.488 69.9048C103.505 70.4312 103.814 70.9612 104.331 71.3668C105.09 71.9537 106.124 72.2596 107.179 72.2596C107.941 72.2596 108.71 72.0995 109.39 71.7758C110.006 71.4806 110.499 71.0786 110.85 70.5735C111.265 69.9759 111.442 69.2182 111.312 68.5993C111.22 68.1404 110.962 67.7776 110.567 67.5499Z" fill="#86D1AB"/>
<path d="M139.971 67.8737C139.876 67.4184 139.617 67.0556 139.223 66.8243C137.525 65.8355 134.307 66.4259 132.956 67.5891C132.64 67.8595 132.116 68.4286 132.143 69.1792C132.16 69.7056 132.47 70.2356 132.987 70.6412C133.745 71.2281 134.78 71.534 135.834 71.534C136.596 71.534 137.365 71.3739 138.046 71.0502C138.661 70.755 139.155 70.353 139.505 69.8479C139.924 69.2503 140.101 68.4926 139.971 67.8737Z" fill="#86D1AB"/>
<path d="M115.582 115.835C115.15 116.215 114.605 116.688 114.064 116.884C113.581 117.058 113.489 116.888 113.343 116.447C113.224 116.098 113.194 115.746 113.194 115.376C113.197 114.618 112.071 114.618 112.071 115.376C112.067 116.333 112.34 117.923 113.415 118.172C114.442 118.41 115.657 117.304 116.378 116.667C116.932 116.18 116.133 115.351 115.582 115.835Z" fill="#A6D4E0"/>
<path d="M122.756 116.294C122.324 116.585 121.882 116.856 121.419 117.09C121.086 117.261 120.596 117.556 120.168 117.635C119.974 117.226 119.946 116.425 119.885 116.105C119.746 115.365 118.664 115.678 118.8 116.418C118.96 117.268 118.963 118.947 120.164 118.837C121.209 118.741 122.471 117.887 123.325 117.311C123.93 116.898 123.365 115.881 122.756 116.294Z" fill="#A6D4E0"/>
<path d="M129.625 117.468C129.401 117.621 129.18 117.773 128.955 117.926C128.751 118.065 128.469 118.343 128.234 118.4C128.169 118.414 128.149 118.432 128.145 118.442C128.139 118.435 128.128 118.428 128.108 118.414C128.033 118.364 127.975 118.143 127.945 118.065C127.832 117.766 127.778 117.46 127.761 117.14C127.72 116.39 126.597 116.383 126.638 117.14C126.683 117.944 126.9 119.2 127.71 119.548C128.567 119.915 129.537 118.937 130.197 118.485C130.796 118.069 130.234 117.051 129.625 117.468Z" fill="#A6D4E0"/>
<path d="M115.827 123.091C115.316 123.451 114.806 123.81 114.296 124.166C114.044 124.34 113.843 124.589 113.517 124.319C113.278 124.123 113.258 123.582 113.251 123.301C113.241 122.547 112.118 122.544 112.128 123.301C112.139 124.173 112.523 125.535 113.51 125.685C113.935 125.749 114.296 125.557 114.646 125.332C115.241 124.948 115.813 124.514 116.398 124.105C116.993 123.689 116.432 122.672 115.827 123.091Z" fill="#A6D4E0"/>
<path d="M123.433 124.24C122.852 124.728 122.198 125.279 121.45 125.443C120.423 125.667 120.269 124.984 120.307 124.098C120.338 123.34 119.215 123.344 119.184 124.098C119.137 125.268 119.433 126.449 120.698 126.638C122.059 126.837 123.229 125.909 124.229 125.076C124.794 124.6 123.995 123.771 123.433 124.24Z" fill="#A6D4E0"/>
<path d="M116.67 130.188C116.184 130.586 115.476 130.881 114.85 130.771C114.238 130.664 114.336 129.946 114.411 129.444C114.52 128.704 113.438 128.384 113.326 129.131C113.18 130.12 113.169 131.354 114.21 131.806C115.296 132.279 116.606 131.721 117.463 131.016C118.034 130.554 117.235 129.725 116.67 130.188Z" fill="#A6D4E0"/>
<path d="M116.282 99.3296C115.782 100.041 115.109 100.952 114.17 100.934C113.098 100.916 113.006 99.7031 112.965 98.8423C112.931 98.0882 111.805 98.0846 111.843 98.8423C111.907 100.212 112.231 101.777 113.734 102.069C115.292 102.367 116.418 101.105 117.252 99.9201C117.681 99.3154 116.704 98.7285 116.282 99.3296Z" fill="#A6D4E0"/>
<path d="M124.308 99.4971C123.753 100.194 123.111 100.785 122.328 101.187C121.933 101.389 121.835 101.446 121.396 101.276C120.947 101.101 120.954 101.03 120.828 100.593C120.702 100.155 120.63 99.707 120.569 99.2552C120.467 98.5082 119.385 98.8283 119.484 99.5682C119.651 100.799 119.967 102.674 121.488 102.659C122.866 102.649 124.274 101.368 125.101 100.326C125.56 99.7497 124.771 98.9137 124.308 99.4971Z" fill="#A6D4E0"/>
<path d="M131.619 100.877C131.129 101.333 130.319 102.087 129.639 102.204C128.795 102.35 128.588 100.696 128.53 100.098C128.455 99.3548 127.329 99.3441 127.407 100.098C127.516 101.19 127.832 102.948 128.999 103.36C130.159 103.769 131.622 102.442 132.415 101.71C132.953 101.204 132.156 100.376 131.619 100.877Z" fill="#A6D4E0"/>
<path d="M138.91 101.517C138.552 101.784 138.195 102.054 137.838 102.321C137.593 102.506 137.117 103.015 136.81 103.04C135.872 103.125 135.729 101.268 135.8 100.674C135.892 99.9273 134.766 99.9344 134.677 100.674C134.531 101.88 134.96 103.438 136.062 104.05C137.27 104.719 138.59 103.2 139.478 102.531C140.059 102.097 139.498 101.076 138.91 101.517Z" fill="#A6D4E0"/>
<path d="M115.973 108.02C115.531 108.468 114.289 109.521 113.748 108.792C113.343 108.248 113.278 107.262 113.125 106.615C112.955 105.878 111.87 106.192 112.04 106.928C112.282 107.967 112.414 109.539 113.469 110.069C114.595 110.631 115.983 109.642 116.765 108.856C117.289 108.326 116.493 107.497 115.973 108.02Z" fill="#A6D4E0"/>
<path d="M123.617 108.763C123.172 109.201 122.348 110.343 121.692 110.286C120.787 110.204 120.61 108.941 120.474 108.205C120.338 107.461 119.256 107.778 119.389 108.518C119.61 109.727 120.035 111.097 121.321 111.431C122.607 111.769 123.583 110.403 124.407 109.596C124.941 109.076 124.145 108.248 123.617 108.763Z" fill="#A6D4E0"/>
<path d="M130.758 109.571C130.483 109.855 130.204 110.133 129.915 110.396C129.748 110.549 129.217 111.171 129.003 111.175C128.421 111.186 128.231 109.923 128.248 109.5C128.275 108.742 127.152 108.745 127.125 109.5C127.087 110.528 127.567 111.94 128.591 112.317C129.061 112.488 129.445 112.299 129.819 112C130.432 111.509 131.007 110.972 131.558 110.403C132.068 109.869 131.272 109.041 130.758 109.571Z" fill="#A6D4E0"/>
<path d="M137.688 109.563C137.351 110.012 136.991 110.495 136.487 110.744C135.977 110.997 134.98 110.904 135.232 110.068C135.449 109.346 134.368 109.037 134.146 109.755C133.82 110.837 134.568 111.904 135.616 112.05C136.841 112.22 137.783 111.321 138.484 110.392C138.926 109.809 138.137 108.969 137.688 109.563Z" fill="#A6D4E0"/>
<path d="M84.7354 121.495C84.5959 121.249 84.208 121.089 83.9665 121.285C83.4528 121.701 82.9357 122.114 82.422 122.53C82.1804 122.722 82.0545 123.035 82.2212 123.334C82.3607 123.579 82.7486 123.739 82.9901 123.544C83.5038 123.127 84.0209 122.715 84.5346 122.299C84.7728 122.106 84.9021 121.793 84.7354 121.495Z" fill="#598E9C"/>
<path d="M94.3324 117.034C94.1929 116.781 93.8085 116.635 93.5635 116.824C92.9409 117.304 92.315 117.781 91.6924 118.261C91.4474 118.45 91.3284 118.77 91.4917 119.065C91.6311 119.318 92.0156 119.463 92.2605 119.275C92.8831 118.795 93.5091 118.318 94.1317 117.838C94.3766 117.649 94.4957 117.329 94.3324 117.034Z" fill="#598E9C"/>
<path d="M88.3448 120.847C87.9468 121.253 87.4807 121.534 86.95 121.694C86.256 121.904 86.552 123.035 87.2494 122.828C87.9672 122.611 88.6068 122.224 89.1409 121.679C89.658 121.149 88.8619 120.317 88.3448 120.847Z" fill="#598E9C"/>
<path d="M76.1858 104.993C75.638 105.456 75.0121 105.818 74.3487 106.071C73.6717 106.324 73.9642 107.462 74.648 107.206C75.5054 106.882 76.2742 106.427 76.9819 105.826C77.5432 105.349 76.7437 104.52 76.1858 104.993Z" fill="#598E9C"/>
<path d="M81.3195 100.749C80.6152 101.151 79.9144 101.549 79.2102 101.951C78.574 102.314 79.1421 103.328 79.7783 102.965C80.4825 102.563 81.1834 102.165 81.8876 101.763C82.5204 101.4 81.9556 100.386 81.3195 100.749Z" fill="#598E9C"/>
<path d="M84.0138 104.609C83.939 104.328 83.6056 104.082 83.3232 104.199C82.8333 104.399 82.3434 104.598 81.8501 104.794C81.5677 104.907 81.3704 105.188 81.4588 105.516C81.5337 105.797 81.8671 106.042 82.1495 105.925C82.6394 105.725 83.1293 105.526 83.6226 105.331C83.9049 105.217 84.0989 104.936 84.0138 104.609Z" fill="#598E9C"/>
<path d="M87.2151 96.1002C86.5688 96.5057 85.8952 96.8508 85.1875 97.1247C84.5139 97.3843 84.8065 98.5191 85.4869 98.2594C86.2864 97.9499 87.0518 97.5764 87.7833 97.1175C88.4025 96.7263 87.8411 95.7089 87.2151 96.1002Z" fill="#598E9C"/>
<path d="M90.4236 99.0312C89.5152 99.5328 88.5728 99.9169 87.5862 100.205C86.8888 100.408 87.1848 101.539 87.8856 101.34C88.9641 101.027 90.0017 100.596 90.9917 100.049C91.6313 99.6928 91.0666 98.6791 90.4236 99.0312Z" fill="#598E9C"/>
<path d="M93.5671 94.1543C92.8254 94.4068 92.1178 94.7448 91.4578 95.1752C90.8454 95.5736 91.4068 96.5909 92.0259 96.189C92.6077 95.8119 93.2167 95.5095 93.8699 95.2854C94.5503 95.0507 94.2577 93.916 93.5671 94.1543Z" fill="#598E9C"/>
<path d="M97.8127 97.0108C97.2344 97.1602 96.656 97.3096 96.0777 97.4554C95.3769 97.6368 95.6728 98.768 96.3771 98.5902C96.9554 98.4408 97.5338 98.2914 98.1121 98.1455C98.8129 97.9641 98.5136 96.8294 97.8127 97.0108Z" fill="#598E9C"/>
<path d="M95.0776 102.937C94.3734 103.122 93.6691 103.31 92.9649 103.495C92.2641 103.68 92.5601 104.815 93.2643 104.63C93.9685 104.445 94.6727 104.257 95.377 104.072C96.0744 103.883 95.7784 102.752 95.0776 102.937Z" fill="#598E9C"/>
<path d="M89.0559 105.701C88.3755 106.145 87.6814 106.562 86.9704 106.949C86.3274 107.298 86.8956 108.312 87.5386 107.963C88.2496 107.575 88.9436 107.159 89.624 106.714C90.233 106.316 89.6717 105.299 89.0559 105.701Z" fill="#598E9C"/>
<path d="M83.1022 110.403C82.6498 110.813 82.1327 111.15 81.5781 111.389C81.2957 111.51 81.0984 111.78 81.1869 112.111C81.2583 112.388 81.5951 112.641 81.8775 112.52C82.6226 112.203 83.286 111.784 83.8949 111.236C84.4427 110.741 83.6466 109.913 83.1022 110.403Z" fill="#598E9C"/>
<path d="M78.8395 115.142C78.336 115.487 77.8359 115.832 77.3324 116.177C76.7302 116.589 77.2916 117.607 77.9006 117.19C78.4041 116.845 78.9042 116.5 79.4077 116.155C80.0098 115.743 79.4451 114.725 78.8395 115.142Z" fill="#598E9C"/>
<path d="M91.0798 110.894C90.6239 111.029 90.1647 111.161 89.7088 111.296C89.0148 111.499 89.3073 112.634 90.0082 112.431C90.464 112.296 90.9233 112.164 91.3792 112.029C92.0732 111.823 91.7772 110.688 91.0798 110.894Z" fill="#598E9C"/>
<path d="M96.0402 106.864C95.4313 107.287 94.7917 107.593 94.084 107.792C93.3866 107.992 93.6826 109.123 94.3834 108.927C95.1727 108.703 95.9246 108.354 96.6084 107.881C97.2071 107.465 96.6458 106.444 96.0402 106.864Z" fill="#598E9C"/>
<path d="M100.939 101.35C100.235 101.542 99.5341 101.738 98.8299 101.93C98.1325 102.122 98.4284 103.257 99.1293 103.065L101.239 102.485C101.939 102.289 101.64 101.155 100.939 101.35Z" fill="#598E9C"/>
<path d="M99.5545 108.721L97.5915 110.208C97.0131 110.649 97.5711 111.666 98.1596 111.221L100.123 109.734C100.701 109.297 100.143 108.276 99.5545 108.721Z" fill="#598E9C"/>
<path d="M94.5843 113.331C93.9923 113.715 93.3765 113.989 92.7029 114.167C92.0021 114.355 92.2981 115.486 93.0023 115.301C93.761 115.099 94.4856 114.775 95.149 114.344C95.7648 113.95 95.2035 112.932 94.5843 113.331Z" fill="#598E9C"/>
<path d="M88.0932 115.686C87.4468 116.095 86.7766 116.458 86.0791 116.753C85.7968 116.874 85.6029 117.144 85.6879 117.475C85.7593 117.756 86.0996 118.005 86.3785 117.884C87.1678 117.55 87.9299 117.162 88.6613 116.699C89.2805 116.312 88.7157 115.294 88.0932 115.686Z" fill="#598E9C"/>
<path d="M145.54 93.937C145.241 95.6089 144.904 97.2914 144.533 98.9811C142.499 108.201 137.807 117.002 131.405 124.223C131.367 124.774 131.337 125.325 131.313 125.877C131.279 126.638 131.272 127.378 131.541 128.057C131.793 128.69 132.402 129.348 133.174 129.348C133.204 129.348 133.235 129.348 133.266 129.345C134.116 129.288 134.684 128.484 135.038 127.886C135.729 126.716 136.297 125.407 136.688 124.112C136.688 124.678 136.709 125.247 136.753 125.809C136.824 126.741 137.12 127.303 137.631 127.481C138.022 127.616 138.495 127.474 138.835 127.111C139.131 126.802 139.291 126.392 139.417 126.033C139.849 124.82 140.141 123.518 140.281 122.238C140.301 122.366 140.322 122.494 140.349 122.622C140.519 123.397 141.005 124.134 141.587 124.497C141.989 124.749 142.421 124.817 142.836 124.696C143.451 124.518 143.938 123.956 144.326 122.981C145.016 121.235 145.248 119.385 145.445 117.482C146.088 111.257 146.302 104.932 146.085 98.6751C146.034 97.0993 145.932 95.4666 145.54 93.937Z" fill="#87C7A7"/>
<path d="M137.617 120.712V122.081C137.617 122.839 138.74 122.839 138.74 122.081V120.712C138.74 119.954 137.617 119.954 137.617 120.712Z" fill="#598E9C"/>
<path d="M134.994 121.544V122.718C134.994 123.476 136.117 123.476 136.117 122.718V121.544C136.12 120.787 134.994 120.787 134.994 121.544Z" fill="#598E9C"/>
<path d="M132.84 124.774V125.948C132.84 126.706 133.963 126.706 133.963 125.948V124.774C133.963 124.017 132.84 124.017 132.84 124.774Z" fill="#598E9C"/>
<path d="M144.547 100.294V102.154C144.547 102.912 145.67 102.912 145.67 102.154V100.294C145.673 99.5362 144.547 99.5362 144.547 100.294Z" fill="#598E9C"/>
<path d="M144.36 105.189V107.44C144.36 108.198 145.483 108.198 145.483 107.44V105.189C145.483 104.434 144.36 104.431 144.36 105.189Z" fill="#598E9C"/>
<path d="M143.996 110.578C143.955 111.197 143.914 111.816 143.877 112.438C143.829 113.192 144.952 113.189 144.999 112.438C145.04 111.819 145.081 111.2 145.118 110.578C145.166 109.82 144.043 109.824 143.996 110.578Z" fill="#598E9C"/>
<path d="M143.632 115.276C143.309 115.276 143.094 115.547 143.07 115.863C143.036 116.319 143.002 116.777 142.968 117.233C142.945 117.549 143.244 117.82 143.53 117.82C143.853 117.82 144.067 117.549 144.091 117.233C144.125 116.777 144.159 116.319 144.193 115.863C144.217 115.547 143.918 115.276 143.632 115.276Z" fill="#598E9C"/>
<path d="M142.274 108.543C142.002 108.465 141.635 108.639 141.584 108.952C141.471 109.621 141.424 110.29 141.458 110.965C141.495 111.716 142.621 111.723 142.58 110.965C142.55 110.396 142.57 109.827 142.666 109.265C142.72 108.952 142.587 108.632 142.274 108.543Z" fill="#598E9C"/>
<path d="M140.519 115.864V117.038C140.519 117.795 141.641 117.795 141.641 117.038V115.864C141.645 115.106 140.519 115.106 140.519 115.864Z" fill="#598E9C"/>
<path d="M141.832 120.662V122.131C141.832 122.889 142.954 122.889 142.954 122.131V120.662C142.954 119.904 141.832 119.904 141.832 120.662Z" fill="#598E9C"/>
<path d="M139.018 116.159C138.995 115.842 138.777 115.572 138.457 115.572C138.171 115.572 137.872 115.842 137.896 116.159C137.926 116.568 137.909 116.97 137.828 117.375C137.766 117.685 137.916 118.012 138.219 118.097C138.498 118.179 138.848 117.998 138.91 117.688C139.015 117.18 139.056 116.671 139.018 116.159Z" fill="#598E9C"/>
<path d="M149 93.1367C149.286 94.7268 149.602 96.3239 149.96 97.9318C151.892 106.693 156.349 115.052 162.432 121.914C162.466 122.437 162.496 122.963 162.52 123.483C162.551 124.208 162.557 124.909 162.306 125.553C162.068 126.154 161.486 126.777 160.754 126.777C160.724 126.777 160.697 126.777 160.666 126.773C159.856 126.72 159.319 125.955 158.982 125.386C158.325 124.272 157.788 123.031 157.414 121.8C157.414 122.337 157.393 122.878 157.352 123.412C157.284 124.297 157.002 124.831 156.519 125.002C156.148 125.13 155.699 124.995 155.376 124.653C155.097 124.358 154.944 123.97 154.821 123.629C154.409 122.476 154.134 121.238 153.998 120.022C153.981 120.146 153.957 120.267 153.933 120.388C153.773 121.124 153.311 121.825 152.756 122.17C152.372 122.409 151.963 122.476 151.569 122.359C150.984 122.188 150.521 121.658 150.154 120.73C149.497 119.072 149.276 117.315 149.092 115.508C148.483 109.596 148.279 103.584 148.483 97.6436C148.531 96.1425 148.626 94.5916 149 93.1367Z" fill="#D9A4D1"/>
<path d="M156.526 118.574V119.876C156.526 120.594 155.458 120.594 155.458 119.876V118.574C155.461 117.855 156.526 117.852 156.526 118.574Z" fill="#B98BB2"/>
<path d="M159.019 119.364V120.481C159.019 121.199 157.951 121.199 157.951 120.481V119.364C157.951 118.645 159.019 118.645 159.019 119.364Z" fill="#B98BB2"/>
<path d="M161.064 122.433V123.55C161.064 124.269 159.996 124.269 159.996 123.55V122.433C159.996 121.715 161.064 121.715 161.064 122.433Z" fill="#B98BB2"/>
<path d="M149.943 99.1766V100.945C149.943 101.663 148.875 101.663 148.875 100.945V99.1766C148.875 98.4581 149.943 98.4581 149.943 99.1766Z" fill="#B98BB2"/>
<path d="M150.12 103.826V105.964C150.12 106.682 149.052 106.682 149.052 105.964V103.826C149.055 103.111 150.12 103.107 150.12 103.826Z" fill="#B98BB2"/>
<path d="M150.47 108.944C150.508 109.531 150.545 110.122 150.586 110.709C150.633 111.427 149.565 111.424 149.518 110.709C149.48 110.122 149.443 109.531 149.402 108.944C149.354 108.226 150.423 108.229 150.47 108.944Z" fill="#B98BB2"/>
<path d="M150.814 113.413C151.12 113.413 151.324 113.669 151.348 113.971C151.378 114.405 151.412 114.839 151.443 115.273C151.467 115.575 151.181 115.831 150.909 115.831C150.603 115.831 150.399 115.575 150.375 115.273C150.344 114.839 150.31 114.405 150.28 113.971C150.259 113.669 150.542 113.413 150.814 113.413Z" fill="#B98BB2"/>
<path d="M152.1 107.013C152.358 106.938 152.705 107.105 152.756 107.404C152.862 108.041 152.909 108.674 152.875 109.318C152.838 110.033 151.77 110.036 151.807 109.318C151.834 108.777 151.814 108.237 151.725 107.703C151.678 107.404 151.804 107.098 152.1 107.013Z" fill="#B98BB2"/>
<path d="M153.77 113.967V115.084C153.77 115.803 152.702 115.803 152.702 115.084V113.967C152.702 113.249 153.77 113.249 153.77 113.967Z" fill="#B98BB2"/>
<path d="M152.521 118.528V119.922C152.521 120.64 151.453 120.64 151.453 119.922V118.528C151.457 117.809 152.521 117.805 152.521 118.528Z" fill="#B98BB2"/>
<path d="M155.196 114.248C155.216 113.946 155.427 113.69 155.73 113.69C156.002 113.69 156.284 113.946 156.264 114.248C156.237 114.64 156.25 115.02 156.328 115.404C156.386 115.7 156.247 116.009 155.954 116.091C155.689 116.166 155.359 115.999 155.298 115.7C155.199 115.22 155.158 114.736 155.196 114.248Z" fill="#B98BB2"/>
<path d="M179.554 144.595C179.5 144.385 179.34 144.235 179.153 144.185L178.938 137.292C178.928 136.968 178.663 136.705 178.36 136.723C178.05 136.733 177.806 137.004 177.816 137.327L178.02 143.951L174.904 145.694C174.631 145.847 174.526 146.202 174.672 146.49C174.774 146.69 174.968 146.8 175.169 146.8C175.257 146.8 175.349 146.779 175.434 146.732L177.309 145.683L176.173 147.785C176.019 148.066 176.115 148.426 176.383 148.586C176.472 148.639 176.567 148.66 176.659 148.66C176.856 148.66 177.043 148.554 177.149 148.362L178.653 145.583L179.279 147.952C179.347 148.212 179.575 148.383 179.82 148.383C179.871 148.383 179.918 148.376 179.969 148.362C180.269 148.276 180.442 147.952 180.36 147.639L179.554 144.595Z" fill="#D9A4D1"/>
<path d="M194.595 147.64L193.789 144.591C193.734 144.381 193.574 144.232 193.387 144.182L193.173 137.288C193.163 136.965 192.894 136.701 192.594 136.719C192.285 136.73 192.04 137 192.05 137.324L192.254 143.947L189.138 145.69C188.866 145.843 188.76 146.199 188.907 146.487C189.009 146.686 189.203 146.797 189.403 146.797C189.492 146.797 189.584 146.775 189.669 146.729L191.543 145.68L190.407 147.782C190.254 148.063 190.349 148.422 190.618 148.582C190.706 148.636 190.802 148.657 190.893 148.657C191.091 148.657 191.278 148.55 191.383 148.358L192.887 145.58L193.513 147.949C193.581 148.209 193.809 148.379 194.054 148.379C194.105 148.379 194.153 148.372 194.204 148.358C194.5 148.276 194.676 147.953 194.595 147.64Z" fill="#D9A4D1"/>
<path d="M171.94 42.8599C171.94 42.8599 169.31 24.0817 183.446 18.031C197.582 11.9803 206.947 17.5899 210.86 23.0359C210.009 21.8514 205.753 22.0897 204.522 22.2178C201.429 22.545 198.378 23.5695 196.064 25.6967C191.026 30.3316 191.866 37.2112 195.255 42.12L171.94 42.8599Z" fill="#FBF5EB"/>
<path d="M208.142 22.4773C207.665 20.3217 209.159 18.1198 211.483 17.5578C213.803 16.9957 216.075 18.287 216.552 20.4426C217.028 22.5983 215.534 24.8001 213.211 25.3622C210.887 25.9206 208.618 24.633 208.142 22.4773Z" fill="#FA6E5A"/>
<path d="M172.311 33.1597C172.015 34.7284 171.862 36.2295 171.794 37.5563C178.506 35.0307 186.059 34.643 192.795 36.4571C192.499 35.045 192.427 33.6079 192.625 32.1957C186.045 30.7337 178.891 31.0752 172.311 33.1597Z" fill="#FA6E5A"/>
<path d="M176.166 23.7936C175.101 25.2449 174.281 26.8065 173.662 28.3895C180.272 26.6998 187.294 27.0093 193.496 29.204C194.067 27.9662 194.894 26.7887 196.034 25.7323C189.859 23.3774 182.898 22.7051 176.166 23.7936Z" fill="#FA6E5A"/>
<path d="M204.113 22.2745C200.8 19.1122 196.615 16.8285 192.046 15.6084C189.413 15.9392 186.545 16.704 183.446 18.0308C182.963 18.2371 182.5 18.4648 182.058 18.6996C188.219 18.23 194.496 20.0797 199.184 23.644C200.725 22.9219 202.409 22.4879 204.113 22.2745Z" fill="#FA6E5A"/>
<path d="M237.532 106.561C237.308 106.12 236.767 105.875 236.216 105.96C235.746 106.035 235.341 106.305 234.974 106.586C233.929 107.39 233.014 108.372 232.126 109.325L228.51 113.206C230.208 111.093 231.725 108.824 233.035 106.426C233.8 105.021 234.508 103.499 234.484 101.887C234.474 101.272 234.351 100.785 234.113 100.397C233.8 99.8953 233.28 99.6001 232.776 99.6499C232.13 99.7104 231.677 100.276 231.357 100.763C229.752 103.196 228.976 106.088 228.224 108.888C227.83 110.35 227.425 111.847 226.904 113.284C227.408 111.645 227.857 109.973 228.142 108.269C228.687 105.035 228.568 102.126 227.782 99.6143C227.687 99.3084 227.547 98.974 227.241 98.8318C226.761 98.6077 226.278 99.0025 226.013 99.4116C225.07 100.842 225.132 102.666 225.285 104.569L226.088 114.483C223.206 115.074 220.42 112.666 219.226 111.449C215.623 107.774 215.405 102.094 215.211 97.0852L215.194 96.669C214.902 89.2274 214.582 82.9846 213.956 76.7027C212.619 63.2318 209.792 48.4269 198.97 40.7328C194.955 37.8799 189.822 36.329 184.127 36.2508C176.377 36.1334 169.185 38.8119 163.326 43.9733C157.791 48.8466 153.698 55.6515 151.487 63.6551C149.14 72.1602 148.871 81.1705 148.902 88.0714C148.919 92.1372 149.051 95.4738 149.317 98.5721C149.681 102.809 150.296 106.561 151.201 110.044C154.899 124.269 165.296 135.588 178.333 139.586C182.252 140.788 186.171 141.386 190.033 141.386C196.201 141.386 202.215 139.86 207.815 136.829C217.304 131.7 224.036 124.425 227.391 115.718C231.558 114.967 235.348 112.15 237.325 108.223C237.553 107.778 237.818 107.12 237.532 106.561Z" fill="#ECC6E8"/>
<path d="M214.031 107.269C212.612 103.467 210.894 100.528 208.781 98.2767C206.203 95.5341 203.029 93.8836 199.837 93.6381C196.255 93.3642 192.741 95.0005 190.876 97.8071C188.468 101.435 189.104 106.099 189.699 108.553C191.019 114.014 194.292 119.018 198.681 122.28C199.524 122.906 200.545 123.582 201.726 123.835C202.113 123.917 202.498 123.945 202.869 123.924C203.706 123.874 204.464 123.557 205.012 123.017C206.441 121.604 204.794 118.097 203.719 116.237C203.954 116.432 205.526 117.674 205.777 117.848C206.502 118.346 207.162 118.606 207.795 118.645C208.622 118.698 209.384 118.346 209.785 117.727C210.482 116.656 209.955 115.248 209.421 114.138L207.58 110.912C207.965 111.349 209.122 112.651 209.615 112.953C210.887 113.732 212.837 113.853 213.942 112.544C214.902 111.41 214.932 109.684 214.031 107.269Z" fill="#D9A4D1"/>
<path d="M192.206 73.971C192.135 73.1528 191.628 72.3738 190.849 71.8865C190.247 71.513 189.488 71.3031 188.536 71.2426C187.382 71.1715 186.236 71.3173 185.133 71.6695C184.688 71.8118 184.12 72.0288 183.654 72.4414C183.17 72.8683 182.888 73.4623 182.895 74.0279C182.905 74.8709 183.507 75.5183 184.065 75.842C184.64 76.1729 185.256 76.4432 185.896 76.6424C186.743 76.9056 187.631 77.0372 188.502 77.0372C188.76 77.0372 189.019 77.0266 189.274 77.0017C190.798 76.8594 192.346 75.6073 192.206 73.971Z" fill="#D9A4D1"/>
<path d="M162.52 68.4324C161.986 68.1015 161.316 67.913 160.468 67.8632C159.448 67.7992 158.434 67.9272 157.458 68.2403C157.063 68.3683 156.556 68.5604 156.144 68.9232C155.712 69.3039 155.461 69.8339 155.467 70.339C155.478 71.0931 156.012 71.6729 156.512 71.961C157.022 72.2563 157.566 72.4946 158.131 72.6689C158.88 72.9001 159.666 73.0211 160.438 73.0211C160.666 73.0211 160.897 73.0104 161.122 72.9891C162.482 72.861 163.857 71.7476 163.731 70.2892C163.666 69.56 163.214 68.8663 162.52 68.4324Z" fill="#D9A4D1"/>
<path d="M170.828 59.3011C170.467 59.1873 170.09 59.3972 169.977 59.7707C169.47 61.4923 168.065 62.8939 166.398 63.3456C165.749 63.5199 165.153 63.5235 164.677 63.3527C164.014 63.1144 163.432 62.467 163.156 61.6631C162.904 60.9268 162.877 60.0232 163.075 59.0521C163.153 58.668 162.918 58.2909 162.551 58.2091C162.183 58.1273 161.823 58.3727 161.744 58.7569C161.493 59.9877 161.537 61.158 161.874 62.1433C162.289 63.367 163.173 64.3238 164.238 64.7009C164.619 64.8361 165.024 64.9037 165.456 64.9037C165.864 64.9037 166.293 64.8432 166.739 64.7222C168.855 64.1531 170.634 62.371 171.277 60.1904C171.389 59.8169 171.185 59.4185 170.828 59.3011Z" fill="#3F4553"/>
<path d="M192.394 61.5384C192.366 61.1471 192.043 60.8518 191.666 60.8803C191.291 60.9088 191.009 61.2502 191.036 61.6415C191.104 62.6126 190.597 63.6691 189.743 64.3343C188.957 64.9461 187.869 65.2698 186.685 65.2485C186.045 65.2378 185.583 65.1133 185.273 64.875C184.885 64.5762 184.633 63.9999 184.599 63.3312C184.565 62.6375 184.739 61.9012 184.906 61.1898C184.994 60.8092 184.773 60.4214 184.409 60.329C184.045 60.2365 183.674 60.4677 183.586 60.8483C183.402 61.6238 183.194 62.4988 183.242 63.4059C183.3 64.5122 183.746 65.4655 184.467 66.0204C185.011 66.4401 185.729 66.65 186.661 66.6678C186.705 66.6678 186.753 66.6678 186.797 66.6678C188.233 66.6678 189.563 66.2445 190.556 65.4726C191.788 64.5157 192.492 63.0039 192.394 61.5384Z" fill="#3F4553"/>
<path d="M174.4 77.6491C174.342 77.521 174.291 77.4001 174.244 77.2863C173.88 76.4041 173.424 75.5646 172.883 74.7998C172.032 73.5904 171.124 72.9643 170.188 72.943C169.583 72.9287 169.004 73.1742 168.47 73.441C167.586 73.8821 166.766 74.5259 165.977 75.1448C165.589 75.4472 165.187 75.7638 164.789 76.0413C162.901 77.3716 161.088 78.8585 159.404 80.4628C159.019 80.8292 158.907 81.2169 159.101 81.5015C159.319 81.8181 159.747 81.7434 159.911 81.7149L164.66 80.8754C163.718 81.6473 162.864 82.4797 161.969 83.3547C161.693 83.6215 161.421 83.8919 161.142 84.1587C160.908 84.3863 160.693 84.6424 160.714 84.9768C160.744 85.4357 161.197 85.6776 161.578 85.7452C161.741 85.7736 161.904 85.7878 162.068 85.7878C162.942 85.7878 163.792 85.4108 164.497 85.0978L171.76 81.8643C171.92 81.7932 172.083 81.722 172.247 81.6509C172.832 81.3948 173.437 81.1315 174.002 80.8114C174.373 80.6015 174.618 80.3561 174.757 80.0608C174.771 80.0324 174.785 80.0004 174.795 79.9719C175.091 79.2036 174.71 78.3427 174.4 77.6491Z" fill="#3F4553"/>
<path d="M181.929 119.965C181.912 120.626 181.823 122.366 180.776 122.007C180.218 121.814 179.816 121.128 179.289 120.833C178.653 120.477 178.084 121.491 178.721 121.846C179.66 122.373 180.248 123.557 181.487 123.148C182.796 122.718 183.017 121.199 183.048 119.965C183.072 119.207 181.949 119.207 181.929 119.965Z" fill="#D9A4D1"/>
<path d="M176.594 131.38C176.506 131.785 176.421 132.191 176.332 132.6C176.292 132.799 176.285 133.098 176.186 133.276C176.138 133.365 176.145 133.4 176.155 133.414C176.142 133.411 176.115 133.407 176.057 133.407C175.798 133.414 175.315 133.041 175.094 132.924C174.744 132.739 174.4 132.543 174.056 132.344C173.424 131.974 172.859 132.988 173.488 133.358C174.036 133.678 174.59 133.984 175.159 134.261C175.56 134.46 176.03 134.759 176.496 134.617C176.894 134.496 177.111 134.129 177.23 133.738C177.431 133.08 177.53 132.365 177.673 131.689C177.836 130.956 176.754 130.64 176.594 131.38Z" fill="#D9A4D1"/>
<path d="M183.606 127.52C183.47 126.776 182.388 127.093 182.521 127.833C182.613 128.345 182.847 129.526 182.133 129.718C181.881 129.786 181.599 129.565 181.395 129.444C181.116 129.277 180.84 129.124 180.534 129.017C179.847 128.779 179.551 129.91 180.235 130.152C180.718 130.319 181.106 130.7 181.602 130.839C182.079 130.97 182.558 130.885 182.956 130.579C183.902 129.846 183.8 128.587 183.606 127.52Z" fill="#D9A4D1"/>
<path d="M185.086 134.314C185.025 133.567 183.902 133.56 183.963 134.314C183.991 134.638 184.001 134.958 183.984 135.282C183.967 135.584 183.878 135.88 183.848 136.175C183.759 136.114 183.661 136.05 183.637 136.029C183.372 135.83 183.103 135.631 182.837 135.431C182.249 134.99 181.688 136.008 182.269 136.445C182.848 136.879 183.906 138.049 184.62 137.274C184.906 136.964 184.967 136.42 185.028 136.015C185.113 135.449 185.13 134.887 185.086 134.314Z" fill="#D9A4D1"/>
<path d="M156.134 99.6606C155.821 100.354 155.267 101.713 154.304 101.429C153.607 101.222 153.12 99.995 152.763 99.4116C152.375 98.7784 151.399 99.3654 151.793 100.006C152.409 101.009 153.076 102.556 154.393 102.631C155.787 102.709 156.583 101.407 157.104 100.255C157.414 99.5752 156.444 98.9776 156.134 99.6606Z" fill="#D9A4D1"/>
<path d="M164.653 98.3547C164.248 99.0804 163.745 99.9626 163.03 100.411C162.187 100.941 161.227 99.4254 160.71 98.8634C160.207 98.3156 159.414 99.148 159.914 99.6958C160.707 100.557 161.629 102.09 162.969 101.72C164.184 101.385 165.031 100.005 165.623 98.9523C165.99 98.2943 165.021 97.7038 164.653 98.3547Z" fill="#D9A4D1"/>
<path d="M172.345 97.0317C172.039 97.7111 171.746 98.8174 171.161 99.3118C170.722 99.6818 170.385 99.1446 170.107 98.8067C169.804 98.4368 169.504 98.0668 169.205 97.7004C168.735 97.1242 167.943 97.9565 168.409 98.5328C169.076 99.3545 169.94 100.959 171.185 100.624C172.382 100.301 172.852 98.6431 173.311 97.6257C173.624 96.9463 172.655 96.3487 172.345 97.0317Z" fill="#D9A4D1"/>
<path d="M180.272 96.1424C179.983 96.5657 179.694 96.9854 179.405 97.4087C179.194 97.7147 178.847 98.4972 178.537 98.6751C177.666 99.1766 176.799 97.7431 176.574 97.0708C176.336 96.3629 175.251 96.6653 175.489 97.3838C175.887 98.5719 176.873 99.8774 178.166 100.034C178.738 100.102 179.102 99.8063 179.439 99.3652C180.078 98.5257 180.643 97.6115 181.242 96.74C181.663 96.121 180.691 95.5341 180.272 96.1424Z" fill="#D9A4D1"/>
<path d="M159.496 107.575C159.417 108.329 159.257 109.883 158.223 109.862C157.536 109.848 156.635 108.813 156.117 108.407C155.539 107.952 154.978 108.973 155.549 109.421C156.522 110.182 157.645 111.463 158.972 110.865C160.237 110.296 160.489 108.855 160.622 107.575C160.697 106.824 159.57 106.831 159.496 107.575Z" fill="#D9A4D1"/>
<path d="M169.188 105.807C169.028 106.626 168.732 107.7 168.089 108.258C167.15 109.073 166.293 107.757 165.844 107.045C165.446 106.416 164.473 107.006 164.875 107.639C165.555 108.717 166.562 109.994 167.967 109.642C169.348 109.297 170.025 107.408 170.277 106.12C170.416 105.381 169.331 105.064 169.188 105.807Z" fill="#D9A4D1"/>
<path d="M178.942 104.655C178.602 105.402 178.258 106.359 177.51 106.69C176.907 106.956 176.588 106.654 176.132 106.209C175.815 105.903 175.577 105.551 175.359 105.164C174.992 104.513 174.022 105.103 174.39 105.758C174.982 106.814 176.091 108.112 177.373 108.098C178.721 108.084 179.425 106.323 179.915 105.245C180.221 104.569 179.251 103.972 178.942 104.655Z" fill="#D9A4D1"/>
<path d="M163.017 117.148C162.792 117.539 162.571 117.93 162.347 118.321C162.211 118.56 161.908 119.374 161.676 119.495C160.979 119.855 159.986 118.499 159.635 118.026C159.193 117.429 158.404 118.268 158.839 118.859C159.424 119.648 160.697 121.053 161.785 120.836C162.251 120.744 162.5 120.338 162.728 119.943C163.153 119.214 163.565 118.478 163.983 117.745C164.357 117.091 163.388 116.497 163.017 117.148Z" fill="#D9A4D1"/>
<path d="M170.168 115.066C169.994 115.767 169.443 117.919 168.436 117.763C167.848 117.67 167.273 116.692 166.803 116.326C166.222 115.874 165.66 116.895 166.235 117.339C167.14 118.04 167.77 119.324 169.1 118.837C170.372 118.371 170.95 116.607 171.25 115.379C171.43 114.647 170.348 114.334 170.168 115.066Z" fill="#D9A4D1"/>
<path d="M178.632 112.061C178.279 112.84 177.979 113.939 177.428 114.583C176.993 115.092 176.693 114.86 176.309 114.433C175.982 114.071 175.659 113.704 175.332 113.338C174.839 112.783 174.046 113.615 174.536 114.17C175.264 114.985 176.139 116.461 177.394 116.038C178.646 115.614 179.102 113.761 179.602 112.655C179.912 111.972 178.942 111.374 178.632 112.061Z" fill="#D9A4D1"/>
<path d="M168.549 125.553C168.395 126.062 168.236 126.567 168.072 127.072C168.014 127.253 167.974 127.616 167.848 127.758C167.419 128.249 167.188 127.897 166.926 127.573C166.477 127.026 166.147 126.481 165.432 126.307C164.728 126.133 164.429 127.268 165.133 127.442C165.728 127.588 165.973 128.303 166.395 128.705C166.776 129.067 167.286 129.345 167.817 129.26C168.334 129.178 168.654 128.783 168.848 128.303C169.168 127.52 169.385 126.673 169.634 125.862C169.852 125.144 168.77 124.834 168.549 125.553Z" fill="#D9A4D1"/>
<path d="M175.768 122.771C175.39 123.433 175.417 124.269 175.036 124.902C174.696 125.468 174.176 125.13 173.733 124.849C173.346 124.603 172.958 124.354 172.57 124.109C171.951 123.714 171.386 124.731 172.002 125.123C172.9 125.695 174.114 126.855 175.23 126.289C176.353 125.72 176.19 124.329 176.737 123.362C177.108 122.714 176.139 122.12 175.768 122.771Z" fill="#D9A4D1"/>
<path d="M204.678 114.273C204.301 113.985 203.923 113.697 203.542 113.409C203.297 113.22 202.916 113.366 202.773 113.619C202.607 113.918 202.729 114.234 202.974 114.423C203.352 114.711 203.729 114.999 204.11 115.287C204.355 115.476 204.736 115.33 204.879 115.077C205.049 114.778 204.927 114.462 204.678 114.273Z" fill="#B98BB2"/>
<path d="M208.424 116.262C208.111 115.789 207.744 115.398 207.305 115.053C207.063 114.861 206.675 115.01 206.536 115.263C206.369 115.561 206.495 115.874 206.737 116.066C206.968 116.248 207.281 116.593 207.454 116.853C207.628 117.112 207.948 117.233 208.223 117.062C208.468 116.913 208.598 116.522 208.424 116.262Z" fill="#B98BB2"/>
<path d="M206.308 110.859C205.815 110.396 205.318 109.934 204.825 109.468C204.287 108.963 203.491 109.792 204.029 110.3C204.522 110.763 205.019 111.225 205.512 111.691C206.049 112.193 206.849 111.364 206.308 110.859Z" fill="#B98BB2"/>
<path d="M203.256 96.3809C202.78 96.0572 202.348 95.6517 202.001 95.175C201.817 94.9225 201.518 94.7909 201.232 94.9652C200.994 95.111 200.848 95.513 201.031 95.7691C201.497 96.4129 202.038 96.9536 202.688 97.3947C203.297 97.8109 203.862 96.7935 203.256 96.3809Z" fill="#B98BB2"/>
<path d="M207.886 100.07C207.437 99.5577 207.019 99.017 206.635 98.4479C206.461 98.1882 206.145 98.0673 205.866 98.238C205.621 98.3874 205.488 98.7822 205.665 99.0419C206.104 99.6929 206.577 100.315 207.094 100.902C207.58 101.457 208.373 100.625 207.886 100.07Z" fill="#B98BB2"/>
<path d="M208.601 104.897C208.206 104.363 207.849 103.797 207.519 103.218C207.152 102.567 206.179 103.157 206.55 103.812C206.927 104.48 207.349 105.114 207.805 105.729C207.992 105.982 208.404 105.932 208.601 105.729C208.839 105.476 208.788 105.146 208.601 104.897Z" fill="#B98BB2"/>
<path d="M212.472 106.06C212.054 105.416 211.639 104.768 211.22 104.125C210.819 103.502 209.843 104.089 210.251 104.719C210.669 105.362 211.084 106.01 211.503 106.654C211.908 107.276 212.881 106.689 212.472 106.06Z" fill="#B98BB2"/>
<path d="M212.35 110.588C211.928 109.987 211.479 109.411 210.986 108.87C210.486 108.322 209.693 109.155 210.19 109.702C210.615 110.168 211.013 110.659 211.377 111.182C211.557 111.438 211.864 111.566 212.146 111.392C212.391 111.243 212.53 110.844 212.35 110.588Z" fill="#B98BB2"/>
<path d="M199.834 96.7366L198.524 95.4631C197.993 94.9473 197.197 95.7761 197.728 96.2955C198.163 96.7188 198.602 97.1456 199.038 97.5689C199.569 98.0812 200.365 97.2523 199.834 96.7366Z" fill="#B98BB2"/>
<path d="M203.763 101.247C203.318 100.699 202.875 100.148 202.43 99.6003C202.232 99.3584 201.838 99.3904 201.634 99.6003C201.406 99.8422 201.436 100.187 201.634 100.433L202.967 102.08C203.164 102.322 203.559 102.29 203.763 102.08C203.991 101.841 203.961 101.493 203.763 101.247Z" fill="#B98BB2"/>
<path d="M207.288 107.027C206.825 106.469 206.362 105.907 205.9 105.348C205.427 104.776 204.634 105.608 205.104 106.181C205.566 106.739 206.029 107.301 206.492 107.86C206.965 108.432 207.757 107.596 207.288 107.027Z" fill="#B98BB2"/>
<path d="M196.561 97.8286C196.18 97.2773 195.799 96.7295 195.418 96.1781C195.241 95.922 194.928 95.7975 194.649 95.9682C194.408 96.1176 194.268 96.5125 194.448 96.7721C194.829 97.3235 195.211 97.8713 195.592 98.4227C195.768 98.6788 196.081 98.8033 196.36 98.6325C196.602 98.4831 196.741 98.0847 196.561 97.8286Z" fill="#B98BB2"/>
<path d="M193.897 100.112C193.571 99.6109 193.217 99.1307 192.832 98.6754C192.632 98.4371 192.244 98.462 192.036 98.6754C191.812 98.9102 191.836 99.2694 192.036 99.5078C192.356 99.8884 192.652 100.287 192.924 100.707C193.094 100.97 193.418 101.084 193.693 100.916C193.945 100.763 194.067 100.376 193.897 100.112Z" fill="#B98BB2"/>
<path d="M192.257 103.684C191.785 103.068 191.308 102.453 190.835 101.838C190.645 101.589 190.24 101.631 190.039 101.838C189.805 102.083 189.849 102.421 190.039 102.67C190.512 103.285 190.988 103.901 191.461 104.516C191.652 104.765 192.057 104.722 192.257 104.516C192.492 104.267 192.448 103.929 192.257 103.684Z" fill="#B98BB2"/>
<path d="M192.717 109.19C192.393 108.742 192.07 108.294 191.75 107.842C191.567 107.589 191.264 107.458 190.982 107.632C190.743 107.778 190.597 108.18 190.781 108.436C191.104 108.884 191.427 109.332 191.747 109.784C191.931 110.037 192.234 110.168 192.516 109.994C192.754 109.848 192.9 109.446 192.717 109.19Z" fill="#B98BB2"/>
<path d="M196.718 104.896C196.245 104.484 195.813 104.018 195.452 103.499C195.275 103.242 194.962 103.114 194.683 103.289C194.442 103.438 194.302 103.833 194.482 104.093C194.904 104.697 195.377 105.249 195.925 105.729C196.156 105.932 196.493 105.967 196.721 105.729C196.918 105.519 196.949 105.099 196.718 104.896Z" fill="#B98BB2"/>
<path d="M199.62 102.258C199.303 101.738 198.987 101.219 198.674 100.696C198.286 100.059 197.313 100.65 197.704 101.29C198.021 101.809 198.337 102.329 198.65 102.852C199.035 103.488 200.008 102.898 199.62 102.258Z" fill="#B98BB2"/>
<path d="M197.136 110.649C196.762 110.062 196.384 109.475 196.01 108.888C195.608 108.262 194.635 108.849 195.04 109.482C195.414 110.069 195.792 110.656 196.166 111.243C196.564 111.869 197.537 111.282 197.136 110.649Z" fill="#B98BB2"/>
<path d="M196.265 115.842C196.02 115.511 195.775 115.18 195.53 114.849C195.343 114.597 194.931 114.647 194.734 114.849C194.496 115.098 194.547 115.429 194.734 115.682C194.979 116.013 195.224 116.344 195.469 116.674C195.656 116.927 196.068 116.877 196.265 116.674C196.5 116.425 196.452 116.094 196.265 115.842Z" fill="#B98BB2"/>
<path d="M200.705 109.46L199.684 107.984C199.507 107.728 199.194 107.604 198.915 107.774C198.674 107.924 198.534 108.319 198.715 108.578C199.055 109.069 199.395 109.564 199.735 110.054C199.912 110.311 200.225 110.435 200.504 110.264C200.746 110.115 200.885 109.72 200.705 109.46Z" fill="#B98BB2"/>
<path d="M203.209 106.419C202.821 105.875 202.437 105.327 202.049 104.783C201.868 104.527 201.562 104.399 201.28 104.573C201.038 104.719 200.895 105.121 201.079 105.377C201.467 105.921 201.851 106.469 202.239 107.013C202.42 107.269 202.726 107.397 203.008 107.223C203.246 107.077 203.389 106.675 203.209 106.419Z" fill="#B98BB2"/>
<path d="M200.647 114.383C200.239 114.142 199.895 113.821 199.637 113.412C199.47 113.149 199.14 113.035 198.868 113.203C198.616 113.355 198.497 113.74 198.667 114.006C199.031 114.583 199.507 115.059 200.082 115.401C200.708 115.771 201.276 114.757 200.647 114.383Z" fill="#B98BB2"/>
<path d="M200.368 119.584C199.946 119.211 199.562 118.791 199.245 118.318C199.072 118.058 198.755 117.937 198.477 118.108C198.232 118.258 198.099 118.652 198.276 118.912C198.65 119.467 199.079 119.976 199.575 120.417C199.807 120.623 200.143 120.655 200.371 120.417C200.572 120.203 200.603 119.791 200.368 119.584Z" fill="#B98BB2"/>
<path d="M203.644 120.448C203.695 120.487 203.573 120.388 203.562 120.381C203.508 120.331 203.454 120.278 203.403 120.224C203.314 120.132 203.236 120.032 203.192 119.968C203.015 119.712 202.702 119.588 202.423 119.758C202.178 119.908 202.045 120.303 202.222 120.562C202.464 120.918 202.739 121.206 203.076 121.462C203.321 121.651 203.702 121.505 203.845 121.252C204.012 120.953 203.889 120.637 203.644 120.448Z" fill="#B98BB2"/>
<path d="M147.248 30.2535C145.806 31.4523 144.285 32.5123 142.693 33.4656C143.329 30.2926 144.568 27.2833 145.051 24.0712C145.105 23.7084 144.741 23.2815 144.387 23.5412C142.584 24.8609 140.886 26.298 139.277 27.8738C138.852 28.29 139.498 28.948 139.92 28.5354C141.203 27.2797 142.55 26.113 143.962 25.0245C143.322 28.137 142.115 31.0966 141.632 34.2553C141.57 34.6573 141.928 34.9916 142.295 34.7853C144.275 33.6648 146.126 32.3771 147.888 30.9151C148.347 30.5381 147.701 29.88 147.248 30.2535Z" fill="#DCC272"/>
<path d="M148.068 24.3413C147.531 24.8713 146.993 25.4049 146.456 25.9349C146.034 26.3511 146.677 27.0127 147.099 26.5965L148.711 25.0029C149.133 24.5867 148.49 23.9251 148.068 24.3413Z" fill="#DCC272"/>
<path d="M156.965 19.1482C155.478 20.4359 153.991 21.7271 152.505 23.0148C152.365 19.102 152.222 15.1855 152.083 11.2727C152.069 10.917 151.709 10.6751 151.402 10.8636C149.722 11.9058 148.198 13.0939 146.759 14.4741C146.33 14.8832 146.973 15.5448 147.402 15.1357C148.592 13.9974 149.858 12.9979 151.212 12.105C151.355 16.0641 151.498 20.0233 151.637 23.9824C151.654 24.4199 152.11 24.5729 152.409 24.3132C154.141 22.8121 155.873 21.3074 157.604 19.8063C158.053 19.4221 157.41 18.764 156.965 19.1482Z" fill="#DCC272"/>
<path d="M157.424 11.251L154.821 13.7943C154.396 14.2105 155.039 14.8686 155.464 14.456C156.332 13.6094 157.199 12.7592 158.067 11.9126C158.492 11.4964 157.849 10.8348 157.424 11.251Z" fill="#DCC272"/>
<path d="M169.066 8.8785C166.776 10.5433 164.592 12.3361 162.496 14.2534C162.738 9.63618 163.275 5.05101 163.84 0.465841C163.884 0.0958968 163.429 -0.106861 163.16 0.0567681C161.272 1.23063 159.54 2.57523 157.917 4.12259C157.489 4.53167 158.132 5.1933 158.56 4.78422C159.897 3.51076 161.309 2.39382 162.826 1.3907C162.262 6.02567 161.734 10.6642 161.54 15.3383C161.523 15.7758 162.037 15.9323 162.313 15.6691C164.599 13.517 166.997 11.525 169.525 9.68954C169.998 9.34805 169.545 8.53346 169.066 8.8785Z" fill="#DCC272"/>
</g>
<defs>
<clipPath id="clip0_95_15841">
<rect width="312" height="202" fill="white"/>
</clipPath>
</defs>
</svg>
