<svg width="556" height="1516" viewBox="0 0 556 1516" fill="none" xmlns="http://www.w3.org/2000/svg">
<path opacity="0.3" d="M259 -1.35924e-05C358.276 106.091 435.352 234.729 483.307 374.367C485.722 381.384 488.092 388.764 487.108 396.143C486.124 403.523 480.669 410.82 473.526 411.03C467.255 411.206 462.091 406.208 457.686 401.538C444.294 387.339 430.891 373.152 417.5 358.954C407.64 348.515 393.555 337.224 381.058 343.903C372.842 348.305 369.533 359.269 370.874 368.809C372.216 378.348 377.19 386.837 381.974 395.081C381.974 395.081 534.248 711.182 555.14 827C537.389 708.135 501.975 597.466 451.527 489.32C447.48 480.656 442.495 466.703 441.992 457.07C441.489 447.437 445.737 436.823 454.299 433.227C467.322 427.751 480.379 440.338 489.277 451.676C501.383 467.089 513.489 482.49 525.596 497.902C529.575 502.97 534.281 508.446 540.541 508.855C547.662 509.334 553.732 502.585 555.353 495.322C556.974 488.059 555.252 480.493 553.463 473.277C517.86 329.658 425.526 134.64 311.505 10.8707L259 -1.35924e-05Z" fill="#554872"/>
<path opacity="0.3" d="M3.05176e-05 786C111.644 879.648 198.321 993.198 252.251 1116.46C254.967 1122.65 257.632 1129.17 256.526 1135.68C255.419 1142.19 249.285 1148.63 241.252 1148.82C234.199 1148.97 228.391 1144.56 223.438 1140.44C208.378 1127.91 193.306 1115.38 178.245 1102.85C167.158 1093.64 151.318 1083.67 137.264 1089.57C128.024 1093.45 124.303 1103.13 125.811 1111.55C127.32 1119.97 132.914 1127.46 138.294 1134.74C138.294 1134.74 309.538 1413.77 333.033 1516C313.07 1411.08 273.245 1313.39 216.512 1217.93C211.961 1210.28 206.354 1197.96 205.789 1189.46C205.223 1180.96 210 1171.59 219.629 1168.41C234.275 1163.58 248.958 1174.69 258.964 1184.7C272.579 1198.3 286.193 1211.9 299.808 1225.5C304.283 1229.98 309.576 1234.81 316.615 1235.17C324.623 1235.59 331.449 1229.64 333.272 1223.22C335.095 1216.81 333.159 1210.14 331.147 1203.77C291.109 1076.99 187.271 904.848 59.0464 795.596L3.05176e-05 786Z" fill="#554872"/>
<path opacity="0.3" d="M103.136 741.261C131.682 742.149 106.313 926.077 114.837 897.545C138.373 818.778 210.006 830.43 259.415 884.344C289.255 916.907 339.236 1008.33 363.654 1037.93C369.446 1044.95 376.406 1052 385.215 1053.08C396.302 1054.45 406.641 1045.43 411.046 1034.69C418.662 1016.12 415.787 991.08 413.601 971.604C410.256 941.716 402.523 912.568 394.369 883.789C382.071 840.428 365.394 798.466 345.49 758.352C345.305 757.982 345.128 757.621 344.943 757.26C320.046 707.29 289.381 660.452 253.657 618.287C239.83 601.971 223.968 587.669 206.56 575.691C287.389 661.525 351.483 783.918 385.921 918.209C388.577 928.577 391.099 939.261 391.166 949.874C391.234 960.488 388.426 971.181 382.366 975.951C375.481 981.373 364.907 979.392 358.788 970.636C352.878 962.178 346.129 952.893 340.715 942.772C313.565 891.974 283.497 844.3 251.035 800.56C236.367 780.794 221.043 761.661 203.82 747.606C186.596 733.56 167.187 724.821 148.871 727.382L103.136 741.261Z" fill="#554872"/>
<path opacity="0.3" d="M176.273 405C177.652 404.974 273.284 554.86 332.881 706.26C297.879 642.621 245.2 557.544 132.127 461.149C132.219 461.228 146.021 444.709 147.291 443.204C151.804 437.862 173.256 405.062 176.273 405Z" fill="#554872"/>
</svg>
