<svg width="270" height="238" viewBox="0 0 270 238" fill="none" xmlns="http://www.w3.org/2000/svg">
<path d="M170.212 92.5171C170.26 92.3755 171.431 90.3159 172.941 88.0791C179.967 77.6604 190.384 67.619 202.601 67.996L202.61 67.9194C197.086 67.2956 191.674 68.81 186.923 71.5083C179.086 75.8577 171.449 84.1452 167.271 90.5158L170.212 92.5171Z" fill="url(#paint0_linear_624_12858)"/>
<path d="M200.294 73.9255L201.103 68.1322L196.969 64.1549C196.498 63.702 196.732 62.8845 197.364 62.7718L202.917 61.7815L205.28 56.4671C205.549 55.8618 206.369 55.8399 206.668 56.4301L209.29 61.6115L214.884 62.3041C215.521 62.383 215.795 63.1869 215.347 63.6645L211.415 67.8571L212.51 73.5996C212.635 74.2537 211.983 74.7723 211.408 74.4774L206.355 71.8873L201.438 74.7436C200.877 75.0686 200.202 74.5853 200.294 73.9255Z" fill="url(#paint1_linear_624_12858)"/>
<path d="M88.0654 63.2971L87.3218 66.0568L89.5509 67.9326L88.4985 70.9671L91.4884 72.2324L90.4495 75.7164L93.0592 77.2213L92.6071 80.7371L91.2777 80.5659L91.6155 77.9371L88.8619 76.3492L89.8605 73.0001L86.8207 71.7135L87.982 68.3651L85.8051 66.5332L86.4943 63.9753L84.8135 63.0716L85.4477 61.8896L88.0654 63.2971Z" fill="url(#paint2_linear_624_12858)"/>
<path d="M242.823 117.254L241.358 121.276L235.219 119.395L232.418 124.984L227.615 124.403L227.348 127.079L233.771 127.856L236.426 122.56L242.812 124.516L245.017 118.465L242.823 117.254Z" fill="url(#paint3_linear_624_12858)"/>
<path d="M18.8024 161.445L14.8396 161.826L13.4881 155.85L7.62122 155.73L5.8384 151.415L3.53369 152.27L5.91815 158.042L11.4779 158.156L12.8839 164.373L18.8472 163.799L18.8024 161.445Z" fill="url(#paint4_linear_624_12858)"/>
<path d="M208.734 139.048L211.204 139.863C211.204 139.863 215.119 138.594 215.505 137.796C215.891 136.997 216 135.061 216.557 135.008C217.114 134.955 218.191 135.136 218.447 136.462C218.633 137.424 217.224 140.204 217.445 140.5C217.582 140.686 218.988 141.194 220.022 141.55C220.701 141.783 221.191 142.381 221.296 143.102L221.296 143.105C221.367 143.592 221.09 144.067 220.634 144.243L219.923 144.518L220.15 145.251C220.319 145.797 220.02 146.384 219.48 146.565L218.931 146.749L219.106 147.196C219.333 147.772 219.014 148.425 218.422 148.597L217.942 148.736L217.962 148.865C218.044 149.399 217.71 149.913 217.192 150.049L216.715 150.174L210.137 148.003C209.521 147.799 208.953 147.47 208.47 147.035L206.285 145.882C206.05 145.758 205.942 145.477 206.031 145.222L208.056 139.39C208.154 139.109 208.455 138.956 208.734 139.048Z" fill="url(#paint5_linear_624_12858)"/>
<path d="M57.7175 93.0932C57.6627 92.9382 56.3369 90.6824 54.6249 88.2325C46.6626 76.8217 34.856 65.824 21.01 66.2368L21 66.1529C27.26 65.4697 33.3936 67.1283 38.7781 70.0836C47.6607 74.847 56.3158 83.924 61.0508 90.9013L57.7175 93.0932Z" fill="url(#paint6_linear_624_12858)"/>
<path d="M20.1833 76.1664L19.2728 69.6488L23.9234 65.1745C24.453 64.665 24.1904 63.7454 23.4789 63.6184L17.2322 62.5043L14.5741 56.5255C14.2713 55.8444 13.3484 55.82 13.0125 56.4837L10.0625 62.3128L3.76901 63.092C3.05218 63.1808 2.74442 64.085 3.24833 64.6224L7.6717 69.339L6.44018 75.7994C6.29977 76.5352 7.03246 77.1188 7.67986 76.7868L13.3637 73.8728L18.896 77.0862C19.5265 77.4525 20.2871 76.9087 20.1833 76.1664Z" fill="url(#paint7_linear_624_12858)"/>
<path d="M241.968 170.299L238.44 170L237.959 173.424L234.471 173.291L233.626 176.503L231 176.851L231.168 178.246L234.68 177.78L235.48 174.736L239.109 174.875L239.582 171.507L242.78 171.778L241.968 170.299Z" fill="url(#paint8_linear_624_12858)"/>
<path d="M80.1015 84.4818L79.8763 81.0705L76.4305 81.0546L76.0483 77.703L72.7573 77.3125L72.0278 74.8477L70.6777 75.189L71.6535 78.4856L74.7724 78.8557L75.1698 82.3423L78.559 82.358L78.7629 85.4494L80.1015 84.4818Z" fill="url(#paint9_linear_624_12858)"/>
<path d="M1.71218 191.648L4.45774 192.711L6.60883 190.595L9.60347 192.007L11.2088 189.037L14.6649 190.482L16.476 187.932L20.0254 188.772L19.7122 190.134L17.0581 189.506L15.1472 192.197L11.8249 190.807L10.1926 193.827L6.88806 192.269L4.78744 194.335L2.24252 193.35L1.14308 195L0 194.217L1.71218 191.648Z" fill="url(#paint10_linear_624_12858)"/>
<path d="M165.941 76.0254L165.768 78.492L162.271 78.6115L161.629 82.1823L159.025 82.7616L159.281 84.2712L162.764 83.4965L163.373 80.1124L167.01 79.9881L167.271 76.2761L165.941 76.0254Z" fill="url(#paint11_linear_624_12858)"/>
<path d="M238.22 76.62C242.446 80.673 242.586 87.3841 238.533 91.6096C234.48 95.8353 227.768 95.9753 223.543 91.9223C219.317 87.8693 219.177 81.1582 223.23 76.9325C227.283 72.7069 233.994 72.5669 238.22 76.62Z" fill="#EDFDFC"/>
<path d="M237.642 85.4664L233.38 86.7776L232.044 91.0346C231.936 91.3784 231.481 91.4491 231.274 91.1542L228.711 87.5027L224.253 87.5455C223.893 87.549 223.685 87.1375 223.901 86.8493L226.579 83.2815L225.161 79.051C225.046 78.7092 225.373 78.3842 225.713 78.5011L229.931 79.9475L233.512 77.29C233.802 77.0753 234.212 77.2859 234.206 77.6463L234.135 82.1082L237.767 84.6963C238.06 84.9055 237.986 85.3605 237.642 85.4664Z" fill="url(#paint12_linear_624_12858)"/>
<path d="M266.946 130.241L269.439 130.102C269.709 130.087 269.851 129.763 269.679 129.554L268.09 127.625L268.775 125.17C268.849 124.904 268.593 124.672 268.342 124.778L266.021 125.755L263.951 124.376C263.726 124.227 263.426 124.407 263.443 124.682L263.597 127.214L261.633 128.817C261.421 128.991 261.491 129.334 261.753 129.398L264.169 129.986L265.025 132.356C265.118 132.612 265.462 132.644 265.607 132.409L266.946 130.241Z" fill="url(#paint13_linear_624_12858)"/>
<path d="M149.695 76.6431C149.695 76.6431 150.128 79.7321 150.357 79.6539C150.534 79.5937 150.201 77.9215 150.243 76.0864C150.254 75.6146 150.266 75.1489 150.28 74.7211C150.318 73.5985 150.995 73.2995 151.136 74.4803C151.186 74.8973 151.253 75.5922 151.232 76.0947C151.21 76.6376 151.36 77.143 151.409 77.6018C151.506 78.5131 151.566 79.1788 151.6 79.154C151.644 79.1218 151.787 79.2881 151.813 78.7876C151.845 78.1858 151.639 76.8926 151.751 76.011C151.815 75.5112 151.887 74.4585 151.887 74.4585C151.887 74.4585 152.284 72.8875 152.381 72.8802C152.903 72.8414 152.925 73.9922 152.752 74.6599C152.853 75.1425 152.747 76.248 152.747 76.248C152.747 76.248 153.017 78.5318 153.33 78.496C153.463 78.4809 153.46 77.0592 153.668 75.6641C153.862 74.3687 154.262 73.0922 154.515 73.0918C154.945 73.0916 154.879 74.5531 154.879 74.5531C154.879 74.5531 154.779 75.5745 154.771 75.9159C154.762 76.3168 154.822 77.5182 154.822 77.5182C154.822 77.5182 155.282 81.692 155.576 81.6319C155.87 81.5721 156.505 81.1053 156.567 80.8375C156.63 80.57 156.494 80.0188 156.556 79.7512C156.618 79.4836 156.921 79.1881 157.244 79.2405C157.568 79.2927 157.748 80.7027 157.748 80.7027C157.748 80.7027 157.885 81.8503 157.584 82.59C156.541 85.1529 156.17 84.8741 156.044 85.2064C155.896 85.5994 157.017 91.1091 157.017 91.1091C157.017 91.1091 157.027 91.1404 157.045 91.1985L152.459 92.2408C152.108 89.8455 151.84 87.9709 151.774 87.3927C151.774 87.3927 150.665 85.1405 150.014 83.7025C149.363 82.2644 149.365 80.5986 149.242 80.1644C149.223 80.1004 148.895 78.6292 148.958 76.7052C149.012 75.0474 149.695 76.6431 149.695 76.6431Z" fill="#F8A492"/>
<path d="M179.119 207.042C179.119 207.042 185.373 211.55 186.357 212.895C187.776 214.833 175.763 218.456 177.073 216.188C177.375 215.666 178.24 213.911 178.277 213.738C178.479 212.814 175.931 210.327 175.931 210.327L179.119 207.042Z" fill="#F7A491"/>
<path d="M173.824 219.979L178.071 213.978C178.071 213.978 180.722 213.362 183.444 210.301C183.444 210.301 185.89 211.234 187.394 213.258C187.394 213.258 184.551 216.322 180.171 219.77C180.171 219.77 177.575 222.069 173.986 223.282C170.397 224.494 173.824 219.979 173.824 219.979Z" fill="url(#paint14_linear_624_12858)"/>
<path d="M230.183 95.804C230.183 95.804 228.566 98.4714 228.386 98.3089C228.247 98.1838 229.213 96.7786 229.899 95.0761C230.075 94.6384 230.248 94.2057 230.403 93.8069C230.811 92.7605 230.307 92.2186 229.711 93.2478C229.501 93.6113 229.166 94.2235 228.986 94.6932C228.792 95.2008 228.456 95.6062 228.229 96.0085C227.781 96.8075 227.463 97.3956 227.441 97.3593C227.413 97.3122 227.216 97.4087 227.39 96.9384C227.598 96.373 228.298 95.2661 228.542 94.4116C228.681 93.9271 229.03 92.9314 229.03 92.9314C229.03 92.9314 229.285 91.3313 229.2 91.2866C228.735 91.0446 228.261 92.0935 228.156 92.7751C227.873 93.1787 227.534 94.2364 227.534 94.2364C227.534 94.2364 226.385 96.2283 226.111 96.0718C225.995 96.0054 226.559 94.7004 226.918 93.3363C227.251 92.0698 227.387 90.7389 227.155 90.6386C226.76 90.4687 226.244 91.8379 226.244 91.8379C226.244 91.8379 225.933 92.8157 225.805 93.1326C225.656 93.5046 225.126 94.5845 225.126 94.5845C225.126 94.5845 223.056 98.2381 222.81 98.0669C222.563 97.896 222.164 97.2164 222.213 96.9459C222.261 96.6755 222.603 96.2225 222.652 95.9522C222.7 95.6818 222.539 95.291 222.221 95.2114C221.903 95.1317 221.181 96.3561 221.181 96.3561C221.181 96.3561 220.602 97.3563 220.586 98.1548C220.534 100.921 220.985 100.812 220.969 101.167C220.95 101.586 217.746 106.206 217.746 106.206C217.746 106.206 217.725 106.231 217.685 106.278L221.487 109.045C222.755 106.983 223.741 105.366 224.03 104.86C224.03 104.86 225.938 103.229 227.103 102.164C228.269 101.1 228.925 99.5687 229.209 99.2183C229.251 99.1667 230.133 97.9444 230.835 96.1519C231.44 94.6074 230.183 95.804 230.183 95.804Z" fill="#F8A492"/>
<path d="M188.684 160.703L187.694 165.595L162.827 188.214L180.627 206.228L175.821 211.14C175.821 211.14 149.531 191.835 148.584 189.305C147.125 185.411 167.429 159.611 167.429 159.611L188.684 160.703Z" fill="#473B1E"/>
<path d="M206.995 220.569C206.995 220.569 213.249 225.078 214.233 226.423C215.652 228.361 203.639 231.984 204.95 229.716C205.251 229.194 206.116 227.438 206.154 227.266C206.355 226.342 203.807 223.854 203.807 223.854L206.995 220.569Z" fill="#F7A491"/>
<path d="M201.695 233.529L205.942 227.528C205.942 227.528 208.763 227.021 211.484 223.959C211.484 223.959 213.76 224.784 215.265 226.808C215.265 226.808 212.422 229.872 208.042 233.32C208.042 233.32 205.446 235.619 201.857 236.832C198.268 238.044 201.695 233.529 201.695 233.529Z" fill="url(#paint15_linear_624_12858)"/>
<path d="M187.833 162.97L188.221 195.118L207.973 219.897L203.324 225.064C203.324 225.064 178.864 204.727 176.184 198.891C174.522 195.271 168.468 161.036 168.468 161.036L187.833 162.97Z" fill="#473B1E"/>
<path d="M167.775 160.437C169.797 155.872 169.563 123.148 177.435 115.483C180.204 115.951 182.179 116.213 182.641 116.335C183.052 119.706 183.504 132.076 183.782 143.413C183.966 150.966 183.776 158.886 184.706 163.062C185.283 165.65 165.927 164.606 167.775 160.437Z" fill="#EDFDFC"/>
<path d="M166.984 162.625C165.215 162.625 164.562 162.38 163.384 162.026C163.384 162.026 164.651 143.688 168.419 124.213C169.84 116.871 170.202 113.726 173.271 114.265C174.158 114.42 176.561 115.336 177.434 115.483C169.724 137.299 169.697 154.091 168.605 158.96C168.058 161.403 167.58 162.64 166.984 162.625Z" fill="url(#paint16_linear_624_12858)"/>
<path d="M178.248 112.187L177.44 115.483C177.44 115.483 177.256 118.353 178.588 118.611C180.194 118.922 182.581 116.518 182.581 116.518L183.964 107.223L178.248 112.187Z" fill="#F7A491"/>
<path d="M178.248 112.187L177.44 115.483C177.44 115.483 177.256 118.353 178.588 118.611C180.194 118.922 182.581 116.518 182.581 116.518L183.964 107.223L178.248 112.187Z" fill="#F7A491"/>
<path d="M183.949 107.266L178.248 112.187L177.644 114.65C179.823 114.125 182.931 111.727 183.949 107.266Z" fill="#F47458"/>
<path d="M178.228 98.7129C176.849 98.7084 175.608 99.6657 175.123 101.041C174.721 102.182 174.207 103.873 173.879 105.814C173.276 109.388 175.311 112.66 177.083 112.921C178.854 113.183 183.073 112.009 184.006 106.946C184.406 104.775 184.932 101.928 183.147 100.433C181.758 99.2692 179.813 98.718 178.228 98.7129Z" fill="#F7A491"/>
<path d="M183.431 110.805C183.431 110.805 189.674 105.241 189.947 100.894C190.219 96.5468 186.205 94.2182 182.772 94.097C181.221 94.0425 180.172 94.1118 178.571 94.3137C175.131 94.7473 172.902 96.2719 173.687 99.0897C174.74 102.873 181.878 99.6811 183.338 100.855C184.542 101.824 182.589 104.155 183.76 105.044C184.859 105.88 184.299 105.597 183.935 107.186C183.571 108.775 183.431 110.805 183.431 110.805Z" fill="#002A24"/>
<path d="M185.838 105.764C185.683 106.806 185.047 107.575 184.416 107.482C183.785 107.388 183.399 106.469 183.554 105.427C183.709 104.386 184.345 103.617 184.976 103.71C185.607 103.803 185.993 104.723 185.838 105.764Z" fill="#F7A491"/>
<path d="M223.222 107.489L218.97 103.281C218.97 103.281 210.891 114.874 206.794 116.886C202.811 118.841 189.548 118.13 189.081 118.024C187.491 117.661 182.602 116.324 182.602 116.324C182.602 116.324 178.503 151.505 183.843 163.738C185.585 167.727 196.42 165.082 196.42 165.082C196.42 165.082 193.076 150.433 192.898 148.516C192.728 146.682 191.798 132.154 191.947 132.005C192.338 131.614 207.127 128.39 211.181 125.31C215.463 122.058 223.222 107.489 223.222 107.489Z" fill="url(#paint17_linear_624_12858)"/>
<path d="M175.61 117.399C175.61 117.399 172.414 126.491 169.785 125.181C167.155 123.871 152.382 108.811 152.236 108.083C152.09 107.355 151.067 88.869 151.067 88.869L156.911 87.7046L160.271 102.843C160.271 102.843 171.081 113.178 173.272 114.197C175.463 115.215 175.61 117.399 175.61 117.399Z" fill="url(#paint18_linear_624_12858)"/>
<path d="M50.1763 133.414C57.4688 141.014 63.873 134.28 63.5561 134.393C63.8061 134.287 65.4055 134.295 66.4482 134.254C70.7918 134.084 74.7474 130.972 76.474 126.845C82.9745 125.994 87.2247 119.987 85.3216 114.788C88.1946 111.211 87.3088 105.5 84.5911 101.843C83.9581 95.85 76.1285 94.8352 70.7386 96.9348C68.0062 97.9992 65.6801 100.3 64.4825 103.089C59.2875 102.964 54.852 106.785 53.6948 112.106C45.6149 114.36 42.7347 125.659 50.1763 133.414Z" fill="#473B1E"/>
<path d="M97.2445 65.4352C97.2445 65.4352 98.7534 68.0676 98.5246 68.1286C98.3482 68.1758 97.587 66.7917 96.5573 65.3243C96.2926 64.947 96.1541 64.421 95.9101 64.0815C95.2701 63.1906 94.5582 63.3153 95.0842 64.3508C95.2701 64.7164 95.3997 65.163 95.689 65.5599C96.0016 65.9887 96.3481 66.6338 96.5573 67.033C96.973 67.8256 97.2858 68.3986 97.2445 68.397C97.1911 68.3949 96.9743 68.7893 96.6814 68.397C96.3292 67.9255 95.6542 66.9617 95.0842 66.3071C94.761 65.936 94.2503 65.1699 94.2503 65.1699C94.2503 65.1699 93.2879 63.6804 93.2056 63.7269C92.76 63.979 92.8986 65.1116 93.4011 65.5599C93.5811 66.0066 94.3165 66.9324 94.3165 66.9324C94.3165 66.9324 95.6346 69.079 95.3609 69.2199C95.2392 69.491 94.3274 68.0527 93.4011 67.033C92.5411 66.0862 91.7931 64.9201 91.5873 65.0572C91.238 65.2904 91.5876 66.4749 91.5876 66.4749C91.5876 66.4749 92.2943 67.5746 92.4862 67.8474C92.7112 68.1679 93.4011 69.2199 93.4011 69.2199C93.4011 69.2199 95.6321 72.4563 95.3609 72.567C95.0899 72.6779 94.5119 73.0635 94.3161 72.8799C94.1204 72.6965 93.5968 72.1485 93.4011 71.9649C93.2055 71.7813 92.3196 71.3536 92.0852 71.5718C91.8508 71.7898 92.9436 73.3374 92.9436 73.3374C92.9436 73.3374 93.6044 73.9977 94.2503 74.4349C96.4885 75.9496 96.6388 75.5216 96.9208 75.7234C97.2543 75.9621 99.3349 81.0437 99.3349 81.0437C99.3349 81.0437 99.3438 81.0746 99.3606 81.1317L102.094 79.2848C103.009 77.455 102.551 75.1675 102.551 74.2526C102.551 73.3376 102.551 72.8801 102.551 72.8801C102.3 71.359 99.8433 68.357 99.7076 67.9375C99.6877 67.8757 99.0714 66.5858 97.9765 65.0574C97.0328 63.7408 97.2445 65.4352 97.2445 65.4352Z" fill="#F8A492"/>
<path d="M89.7383 110.573C89.7383 110.573 94.3025 101.791 95.0102 98.5675C95.7182 95.3437 98.1701 79.1093 97.9634 78.0639C97.7567 77.0185 93.8794 74.5026 94.358 73.6146C94.8364 72.7267 98.5295 72.7242 99.3752 72.8003C100.221 72.8763 101.92 73.369 102.648 73.9688C103.375 74.5689 101.83 94.0239 101.368 98.2126C100.907 102.401 95.2368 115.3 95.2368 115.3L89.7383 110.573Z" fill="#F7A491"/>
<path d="M97.0248 207.056C96.2651 211.159 94.971 214.771 94.7942 215.195C94.7091 215.399 93.8949 216.146 93.8018 216.355C94.2387 221.359 97.4279 224.332 100.422 226.451C99.7722 223.927 98.3263 221.032 98.513 220.471C98.8102 219.577 99.9675 215.499 102.432 210.371C99.9406 210.09 99.0535 208.575 97.0248 207.056Z" fill="#F7A491"/>
<path d="M87.9078 147.512L70.606 159.326C70.606 159.326 79.0321 164.797 81.9215 167.551C84.8108 170.305 100.27 182.793 100.521 183.424C100.708 183.891 99.0865 189.814 95.3689 208.775C97.0127 210.456 100.633 212.103 102.777 212.646C107.273 202.53 112.35 181.483 111.78 179.168C110.896 175.575 87.9078 147.512 87.9078 147.512Z" fill="#473B1E"/>
<path d="M44.0986 171.288C44.6068 171.784 47.984 178.36 49.2684 181.881C51.1491 180.697 52.2866 179.286 54.3879 178.489C52.7301 176.09 49.4973 170.318 49.2316 168.944C48.6011 165.685 47.8613 165.204 47.8613 165.204C47.8613 165.204 36.9344 168.901 36.2064 169.937C35.4784 170.973 42.056 169.296 44.0986 171.288Z" fill="#F7A491"/>
<path d="M49.3592 169.668C50.2069 169.67 49.2858 165.838 49.0915 164.956C48.8729 163.963 48.2979 163.665 48.1547 163.63C47.7671 163.534 35.6234 167.643 33.5716 169.118C33.433 169.218 33.1837 169.534 33.1454 169.605C32.0214 171.702 42.0329 172.101 43.4736 171.184C44.755 170.369 45.5458 169.657 49.3592 169.668Z" fill="url(#paint19_linear_624_12858)"/>
<path d="M91.0513 151.207C91.0513 151.207 76.3935 145.435 76.2031 146.049C74.6854 150.937 69.9631 149.36 67.1598 157.971C65.9857 161.576 65.0616 171.095 64.27 178.153C63.7259 183.004 62.9658 186.891 62.9658 186.891C62.9658 186.891 59.5725 181.873 53.1852 174.677C52.6903 174.119 47.5332 179.023 47.5332 179.023C57.7056 199.194 65.1263 202.046 66.7479 201.498C74.0986 199.013 83.8428 165.201 83.8268 165.204C85.0215 162.876 91.0513 151.207 91.0513 151.207Z" fill="#847D3D"/>
<path d="M68.4298 117.031C68.4298 117.031 50.9319 117.009 47.1856 116.793C43.7949 116.597 30.3466 116.939 29.8208 116.879C29.295 116.818 25.8189 110.931 25.2411 111.563C24.6634 112.195 27.1755 114.482 26.3986 115.075C25.6215 115.668 17.2754 114.34 17.3863 114.956C17.5935 116.111 22.4628 115.964 22.4578 116.521C22.4529 117.078 17.3616 116.209 17.0163 117.134C16.6711 118.059 21.9138 117.511 22.123 117.924C22.3322 118.337 17.2605 119.093 17.7795 119.954C18.0611 120.421 22.2732 119.173 22.2528 119.81C22.2322 120.447 19.1592 121.897 19.5362 122.404C19.9131 122.912 21.9478 120.847 23.7308 120.821C25.5139 120.796 26.7906 119.865 29.637 120.646C31.0424 121.031 41.7715 122.343 50.8373 123.118C60.1312 123.912 67.7496 124.164 67.7496 124.164L68.4298 117.031Z" fill="#F7A491"/>
<path d="M94.3758 132.586C94.6079 129.776 94.0551 124.429 93.9286 123.496C94.7784 120.578 96.5863 114.352 97.2363 113.129C97.2363 113.129 94.1898 107.274 91.0711 107.314C91.0711 107.314 87.8862 114.493 85.4237 115.778C85.3876 115.768 84.5525 116.15 84.1853 116.147C81.8075 116.131 73.4994 115.879 71.9487 115.851L72.8211 127.638C76.0957 136.32 75.4981 144.004 74.9208 146.68C74.5995 148.169 89.0278 152.638 91.2445 151.212C91.3323 151.155 93.9069 138.265 94.3758 132.586Z" fill="url(#paint20_linear_624_12858)"/>
<path d="M76.1707 116.296C74.6381 115.564 63.5481 115.931 63.5481 115.931C63.5481 115.931 61.9982 123.654 63.2502 125.51C63.2502 125.51 73.1663 126.985 72.8844 127.799L76.1707 116.296Z" fill="url(#paint21_linear_624_12858)"/>
<path d="M78.103 110.894C78.103 110.894 79.2556 114.95 79.4647 116.703C79.6738 118.455 82.345 123.916 85.9809 123.136C89.6168 122.355 85.8232 117.256 85.1113 115.65C84.3994 114.044 82.4742 107.554 82.4742 107.554L78.103 110.894Z" fill="#F7A491"/>
<path d="M83.2818 110.216C82.8246 108.736 82.4741 107.555 82.4741 107.555L78.103 110.895C78.103 110.895 78.3149 111.64 78.5735 112.63C80.8843 112.943 82.4643 111.838 83.2818 110.216Z" fill="#F47257"/>
<path d="M74.934 98.7466C74.934 98.7466 73.0281 99.8406 72.3594 102.161C71.6907 104.482 72.5772 110.431 77.5616 111.797C82.5458 113.163 84.6268 108.411 83.5507 104.736C82.4745 101.06 80.1827 96.4192 74.934 98.7466Z" fill="#F7A491"/>
<path d="M84.1501 103.296C84.0674 104.289 83.5315 105.055 82.9533 105.006C82.375 104.958 81.9734 104.114 82.0562 103.122C82.139 102.129 82.6747 101.364 83.253 101.412C83.8313 101.46 84.233 102.304 84.1501 103.296Z" fill="#F7A491"/>
<path d="M94.7559 215.318C94.4424 214.53 91.2769 217.04 90.5302 217.549C89.6901 218.122 89.628 218.766 89.6485 218.913C89.7026 219.298 97.7576 229.219 100.113 230.589C100.336 230.719 100.804 230.722 100.942 230.669C102.25 230.165 100.12 222.048 98.4026 220.445C97.2921 219.409 96.1662 218.861 94.7559 215.318Z" fill="url(#paint22_linear_624_12858)"/>
<path d="M75.5116 98.437C75.5116 98.437 74.7087 105.1 72.5762 106.332C70.4438 107.563 71.3869 110.5 71.3869 110.5C71.3869 110.5 69.3368 103.678 71.0049 101.454C72.6725 99.2287 75.5116 98.437 75.5116 98.437Z" fill="#473B1E"/>
<path d="M73.8634 107.268C74.4591 108.125 74.4719 109.147 73.8919 109.55C73.3121 109.953 72.3591 109.584 71.7634 108.726C71.1677 107.868 71.1549 106.846 71.7349 106.443C72.3147 106.041 73.2677 106.41 73.8634 107.268Z" fill="#F7A491"/>
<path d="M128.106 47.9998C115.917 47.9998 106 38.083 106 25.8942C106 13.7051 115.917 3.78857 128.106 3.78857C140.295 3.78857 150.212 13.7051 150.212 25.8942C150.212 38.083 140.295 47.9998 128.106 47.9998ZM128.106 6.67499C117.508 6.67499 108.887 15.2966 108.887 25.894C108.887 36.4913 117.508 45.113 128.106 45.113C138.703 45.113 147.325 36.4915 147.325 25.894C147.325 15.2964 138.703 6.67499 128.106 6.67499Z" fill="#00AF8D"/>
<path d="M113.195 22.6105C113.195 22.6105 122.882 33.8283 128.64 38.9407C128.64 38.9407 139.78 16.0275 153.148 0C153.148 0 137.673 11.4696 124.688 25.9596C124.688 25.9596 121.076 25.4436 113.195 22.6105Z" fill="#FA412B"/>
<defs>
<linearGradient id="paint0_linear_624_12858" x1="219.372" y1="36.0525" x2="92.3667" y2="185.754" gradientUnits="userSpaceOnUse">
<stop stop-color="#FB9A2B"/>
<stop offset="1" stop-color="#E65925"/>
</linearGradient>
<linearGradient id="paint1_linear_624_12858" x1="225.714" y1="42.0696" x2="99.9512" y2="188.914" gradientUnits="userSpaceOnUse">
<stop stop-color="#FB9A2B"/>
<stop offset="1" stop-color="#E65925"/>
</linearGradient>
<linearGradient id="paint2_linear_624_12858" x1="93.5425" y1="79.1603" x2="174.29" y2="227.352" gradientUnits="userSpaceOnUse">
<stop stop-color="#C7A44F"/>
<stop offset="1" stop-color="#609A3F"/>
</linearGradient>
<linearGradient id="paint3_linear_624_12858" x1="187.954" y1="25.2525" x2="278.307" y2="176.017" gradientUnits="userSpaceOnUse">
<stop stop-color="#C7A44F"/>
<stop offset="1" stop-color="#609A3F"/>
</linearGradient>
<linearGradient id="paint4_linear_624_12858" x1="-2.8951" y1="133.183" x2="73.3566" y2="280.952" gradientUnits="userSpaceOnUse">
<stop stop-color="#C7A44F"/>
<stop offset="1" stop-color="#609A3F"/>
</linearGradient>
<linearGradient id="paint5_linear_624_12858" x1="206" y1="142.587" x2="221.307" y2="142.587" gradientUnits="userSpaceOnUse">
<stop stop-color="#53CD9F"/>
<stop offset="1" stop-color="#0D7A5C"/>
</linearGradient>
<linearGradient id="paint6_linear_624_12858" x1="150.097" y1="-53.1122" x2="26.2623" y2="97.9291" gradientUnits="userSpaceOnUse">
<stop stop-color="#FB9A2B"/>
<stop offset="1" stop-color="#E65925"/>
</linearGradient>
<linearGradient id="paint7_linear_624_12858" x1="122.068" y1="-69.1324" x2="-4.665" y2="78.843" gradientUnits="userSpaceOnUse">
<stop stop-color="#FB9A2B"/>
<stop offset="1" stop-color="#E65925"/>
</linearGradient>
<linearGradient id="paint8_linear_624_12858" x1="281.795" y1="117.151" x2="153.475" y2="265.539" gradientUnits="userSpaceOnUse">
<stop stop-color="#FB9A2B"/>
<stop offset="1" stop-color="#E65925"/>
</linearGradient>
<linearGradient id="paint9_linear_624_12858" x1="75.2208" y1="57.2157" x2="75.4732" y2="96.8082" gradientUnits="userSpaceOnUse">
<stop stop-color="#FB9A2B"/>
<stop offset="1" stop-color="#E65925"/>
</linearGradient>
<linearGradient id="paint10_linear_624_12858" x1="-17.914" y1="139.49" x2="66.841" y2="293.056" gradientUnits="userSpaceOnUse">
<stop stop-color="#C7A44F"/>
<stop offset="1" stop-color="#609A3F"/>
</linearGradient>
<linearGradient id="paint11_linear_624_12858" x1="199.011" y1="27.6666" x2="55.5477" y2="190.931" gradientUnits="userSpaceOnUse">
<stop stop-color="#53CD9F"/>
<stop offset="1" stop-color="#0D7A5C"/>
</linearGradient>
<linearGradient id="paint12_linear_624_12858" x1="248.3" y1="61.6326" x2="127.847" y2="207.639" gradientUnits="userSpaceOnUse">
<stop stop-color="#FB9A2B"/>
<stop offset="1" stop-color="#E65925"/>
</linearGradient>
<linearGradient id="paint13_linear_624_12858" x1="292.393" y1="98.1649" x2="175.832" y2="250.54" gradientUnits="userSpaceOnUse">
<stop stop-color="#FB9A2B"/>
<stop offset="1" stop-color="#E65925"/>
</linearGradient>
<linearGradient id="paint14_linear_624_12858" x1="172.348" y1="216.895" x2="187.394" y2="216.895" gradientUnits="userSpaceOnUse">
<stop stop-color="#FB9A2B"/>
<stop offset="1" stop-color="#E65925"/>
</linearGradient>
<linearGradient id="paint15_linear_624_12858" x1="200.219" y1="230.499" x2="215.265" y2="230.499" gradientUnits="userSpaceOnUse">
<stop stop-color="#FB9A2B"/>
<stop offset="1" stop-color="#E65925"/>
</linearGradient>
<linearGradient id="paint16_linear_624_12858" x1="209.644" y1="102.947" x2="156.965" y2="149.469" gradientUnits="userSpaceOnUse">
<stop stop-color="#C9CD55"/>
<stop offset="0.5065" stop-color="#659C52"/>
<stop offset="1" stop-color="#287F50"/>
</linearGradient>
<linearGradient id="paint17_linear_624_12858" x1="219.556" y1="114.17" x2="166.876" y2="160.692" gradientUnits="userSpaceOnUse">
<stop stop-color="#C9CD55"/>
<stop offset="0.5065" stop-color="#659C52"/>
<stop offset="1" stop-color="#287F50"/>
</linearGradient>
<linearGradient id="paint18_linear_624_12858" x1="190.383" y1="81.1358" x2="137.703" y2="127.658" gradientUnits="userSpaceOnUse">
<stop stop-color="#C9CD55"/>
<stop offset="0.5065" stop-color="#659C52"/>
<stop offset="1" stop-color="#287F50"/>
</linearGradient>
<linearGradient id="paint19_linear_624_12858" x1="33.0575" y1="167.638" x2="49.7121" y2="167.638" gradientUnits="userSpaceOnUse">
<stop stop-color="#00503E"/>
<stop offset="1" stop-color="#023222"/>
</linearGradient>
<linearGradient id="paint20_linear_624_12858" x1="119.299" y1="98.7516" x2="75.1714" y2="139.458" gradientUnits="userSpaceOnUse">
<stop stop-color="#53CD9F"/>
<stop offset="1" stop-color="#0D7A5C"/>
</linearGradient>
<linearGradient id="paint21_linear_624_12858" x1="107.333" y1="85.7799" x2="63.2057" y2="126.487" gradientUnits="userSpaceOnUse">
<stop stop-color="#53CD9F"/>
<stop offset="1" stop-color="#0D7A5C"/>
</linearGradient>
<linearGradient id="paint22_linear_624_12858" x1="89.6455" y1="222.934" x2="101.347" y2="222.934" gradientUnits="userSpaceOnUse">
<stop stop-color="#00503E"/>
<stop offset="1" stop-color="#023222"/>
</linearGradient>
</defs>
</svg>
